<?xml version="1.0" standalone="no"?>
<!DOCTYPE svg PUBLIC "-//W3C//DTD SVG 1.1//EN" "http://www.w3.org/Graphics/SVG/1.1/DTD/svg11.dtd" >
<svg>
<metadata>
Created by FontForge 20090914 at Thu Nov 12 09:09:35 2015
 By www-data
Copyright &#194;&#169; 2013, Natanael Gama (www.ndiscovered.com . info(at)ndiscovered.com), with Reserved Font Name Exo. This Font Software is licensed under the SIL Open Font License, Version 1.1.
</metadata>
<defs>
<font id="Exo2-BlackItalic" horiz-adv-x="700" >
  <font-face 
    font-family="Exo 2 Black"
    font-weight="900"
    font-style="italic"
    font-stretch="normal"
    units-per-em="1000"
    panose-1="0 0 10 0 0 0 0 0 0 0"
    ascent="800"
    descent="-200"
    x-height="500"
    cap-height="690"
    bbox="-216 -311.001 1290.06 968"
    underline-thickness="50"
    underline-position="-50"
    slope="-8"
    unicode-range="U+0020-U+FB02"
  />
<missing-glyph horiz-adv-x="600" 
 />
    <glyph glyph-name=".notdef" horiz-adv-x="600" 
 />
    <glyph glyph-name="space" unicode=" " horiz-adv-x="210" 
 />
    <glyph glyph-name="exclam" unicode="!" horiz-adv-x="328" 
d="M292 461l-55 -234h-164l11 234l32 234h208zM124 185h39.9971c24 0 42.333 -6.5 55 -19.5s17.334 -31.833 14.001 -56.5l-6 -41c-3.33301 -24 -11.166 -41.333 -23.499 -52s-31.166 -16 -56.499 -16h-40c-52 -0 -75 25.333 -69 76l5 41c6.66699 45.333 33.667 68 81 68z
" />
    <glyph glyph-name="quotedbl" unicode="&#x22;" horiz-adv-x="394" 
d="M191 462h-120l20 228h144zM370 462h-120l20 228h144z" />
    <glyph glyph-name="numbersign" unicode="#" horiz-adv-x="743" 
d="M602 404l-31 -100h110l-42 -122h-107l-57 -182h-157l57 182h-94l-57 -182h-157l57 182h-118l42 122h115l31 100h-114l41 122h111l52 164h157l-52 -164h94l52 164h157l-52 -164h114l-41 -122h-111zM445 404h-94l-31 -100h94z" />
    <glyph glyph-name="dollar" unicode="$" horiz-adv-x="583" 
d="M589 668l-20 -137.999c-78.667 1.33301 -157.667 2 -237 2c-20.667 0 -35.334 -2 -44.001 -6s-14 -11.333 -16 -22c-3.33301 -15.333 10.334 -30.333 41.001 -45l110 -55c53.333 -27.333 88.5 -56.833 105.5 -88.5s22.5 -73.834 16.5 -126.501
c-8.66699 -76 -31.834 -128.5 -69.501 -157.5s-101.5 -44.167 -191.5 -45.5l-23 -94h-155l25 104c-46 5.33301 -89.667 13.666 -131 24.999l21 151c123.333 -3.33301 201 -5 233 -5c26.667 0 45.334 2.16699 56.001 6.5s17.334 11.833 20.001 22.5
c2 8.66699 0.833008 15.834 -3.5 21.501s-12.833 11.5 -25.5 17.5l-121 62c-53.333 28 -88.333 58.667 -105 92s-22.334 73.333 -17.001 120c8 69.333 32 118.333 72 147s101.667 44.667 185 48l24 87h156l-26 -95c46 -6.66699 86 -16 120 -28z" />
    <glyph glyph-name="percent" unicode="%" horiz-adv-x="919" 
d="M247 704c68 0 115.33 -15.833 141.997 -47.5s34.334 -87.167 23.001 -166.5c-10.667 -76.667 -30.167 -128.834 -58.5 -156.501s-75.166 -41.5 -140.499 -41.5c-67.333 0 -114.166 15.833 -140.499 47.5s-33.833 87.167 -22.5 166.5c10.667 76.667 30 128.834 58 156.501
s74.333 41.5 139 41.5zM291.997 0h-130l477 690h130zM242.997 595c-12.667 0 -21.333 -5.66699 -26 -17s-10 -40.666 -16 -87.999c-5.33301 -40 -7.16602 -64.833 -5.49902 -74.5s9.16699 -14.5 22.5 -14.5c14 0 23.333 5.66699 28 17s9.66699 40.666 15 87.999
c4 40 5.16699 64.833 3.5 74.5s-8.83398 14.5 -21.501 14.5zM717.998 398c68 0 115.33 -15.833 141.997 -47.5s34.334 -87.167 23.001 -166.5c-10.667 -76.667 -30.167 -128.834 -58.5 -156.501s-75.166 -41.5 -140.499 -41.5c-67.333 0 -114.166 15.833 -140.499 47.5
s-33.833 87.167 -22.5 166.5c10.667 76.667 30 128.834 58 156.501s74.333 41.5 139 41.5zM713.995 289c-12.667 0 -21.333 -5.66699 -26 -17s-10 -40.666 -16 -87.999c-5.33301 -40 -7.16602 -64.833 -5.49902 -74.5s9.16699 -14.5 22.5 -14.5c14 0 23.333 5.66699 28 17
s9.66699 40.666 15 87.999c4 40 5.16699 64.833 3.5 74.5s-8.83398 14.5 -21.501 14.5z" />
    <glyph glyph-name="ampersand" unicode="&#x26;" horiz-adv-x="759" 
d="M743 288l-76.001 -0.000976562c-6.66699 -35.333 -17.334 -69 -32.001 -101c-60 -134 -183.333 -201 -370 -201c-94.667 0 -161.834 16.333 -201.501 49s-55.5 82.334 -47.5 149.001c6 49.333 22 89.5 48 120.5s62.667 47.833 110 50.5l1 6
c-33.333 2.66699 -58.5 20.667 -75.5 54s-21.833 71 -14.5 113c5.33301 30 14.333 55.833 27 77.5s27 38.834 43 51.501s36.167 22.5 60.5 29.5s48.5 11.667 72.5 14s52.333 3.5 85 3.5c67.333 0 124.333 -8 171 -24l-33 -139c-52 8 -95.667 12 -131 12
c-29.333 0 -49.666 -4 -60.999 -12s-18.666 -25.667 -21.999 -53c-3.33301 -26.667 -1.33301 -44.834 6 -54.501s21.333 -14.5 42 -14.5h166c2.66699 32 4.33398 59.667 5.00098 83h172c0 -28 -1 -55.667 -3 -83h77zM487.999 287.999h-162
c-23.333 0 -41.333 -5.33301 -54 -16s-20.667 -30.334 -24 -59.001c-2.66699 -23.333 1.5 -39.666 12.5 -48.999s29.5 -14 55.5 -14c35.333 0 65.833 6.83301 91.5 20.5s47.167 39.167 64.5 76.5c4.66699 9.33301 10 23 16 41z" />
    <glyph glyph-name="quotesingle" unicode="'" horiz-adv-x="215" 
d="M191 462h-120l20 228h144z" />
    <glyph glyph-name="parenleft" unicode="(" horiz-adv-x="373" 
d="M404 791l25 -91c-101.333 -38.667 -167.666 -170.334 -198.999 -395.001c-16.667 -94.667 -19.167 -176.167 -7.5 -244.5s40.834 -113.5 87.501 -135.5l-26 -85c-106 28.667 -179.833 82.167 -221.5 160.5s-52.834 184.833 -33.501 319.5s58.666 239.834 117.999 315.501
s145 127.5 257 155.5z" />
    <glyph glyph-name="parenright" unicode=")" horiz-adv-x="373" 
d="M70 700l25 86c105.333 -28 178.833 -81.333 220.5 -160s53.167 -186 34.5 -322c-19.333 -134 -58.833 -238.833 -118.5 -314.5s-145.167 -127.5 -256.5 -155.5l-25 91c101.333 42 167.666 174 198.999 396c16.667 97.333 19.334 179.833 8.00098 247.5
s-40.333 111.5 -87 131.5z" />
    <glyph glyph-name="asterisk" unicode="*" horiz-adv-x="457" 
d="M301 517l95 -129l-94 -66l-47 119l-80 -119l-85 66l132 128l7 176h114zM208 572l-3 -49l-31 -29l-118 23l44 107zM466 516l-122 -26l-25 32l11 49l114 52z" />
    <glyph glyph-name="plus" unicode="+" horiz-adv-x="520" 
d="M485 226h-158l-22 -158h-153l22 158h-158l23 155h158l22 158h153l-22 -158h158z" />
    <glyph glyph-name="comma" unicode="," horiz-adv-x="257" 
d="M93 185l35.998 0.000976562c26.667 0 45.334 -5.83301 56.001 -17.5s14.334 -31.167 11.001 -58.5l-9 -64c-5.33301 -35.333 -16.333 -72.833 -33 -112.5s-35.667 -72.167 -57 -97.5l-85 32c10.667 24 25 69.667 43 137c-21.333 -0.666992 -36 4.16602 -44 14.499
s-10.667 26.833 -8 49.5l7 46c4 26.667 12.333 45.167 25 55.5s32 15.5 58 15.5z" />
    <glyph glyph-name="hyphen" unicode="-" horiz-adv-x="382" 
d="M323 196h-291l18 122h291z" />
    <glyph glyph-name="period" unicode="." horiz-adv-x="255" 
d="M89 185h39.9971c24 0 42.333 -6.5 55 -19.5s17.334 -31.833 14.001 -56.5l-6 -41c-3.33301 -24 -11.166 -41.333 -23.499 -52s-31.166 -16 -56.499 -16h-40c-52 -0 -75 25.333 -69 76l5 41c6.66699 45.333 33.667 68 81 68z" />
    <glyph glyph-name="slash" unicode="/" horiz-adv-x="597" 
d="M134 -79h-169l501 769h169z" />
    <glyph glyph-name="zero" unicode="0" horiz-adv-x="656" 
d="M373 704c110 0 184.667 -26.999 224 -80.999s49.333 -149.333 30 -286c-18.667 -134.667 -51.5 -226.834 -98.5 -276.501s-124.5 -74.5 -232.5 -74.5c-106 0 -179.5 27.5 -220.5 82.5s-52.167 149.833 -33.5 284.5c18.667 134 52 226 100 276s125 75 231 75zM363 543.001
c-25.333 0 -43.8291 -4.33398 -55.4961 -13.001s-21.334 -26.167 -29.001 -52.5s-15.5 -69.833 -23.5 -130.5c-9.33301 -58 -13.333 -101.833 -12 -131.5s6.16602 -48.5 14.499 -56.5s24.833 -12 49.5 -12c25.333 0 44 4.33301 56 13s21.667 26.167 29 52.5
s14.666 69.833 21.999 130.5c4.66699 38 7.83398 68 9.50098 90s2.16699 41.167 1.5 57.5s-3.83398 27.833 -9.50098 34.5s-12.334 11.334 -20.001 14.001s-18.5 4 -32.5 4z" />
    <glyph glyph-name="one" unicode="1" horiz-adv-x="469" 
d="M356 0h-216l64 436c4.66699 35.333 11 65 19 89l-162 -35l-18 129l201 71h209z" />
    <glyph glyph-name="two" unicode="2" horiz-adv-x="590" 
d="M82 521l4.00195 160c79.333 14 160.666 21 243.999 21c92 0 157.167 -12.5 195.5 -37.5s53.833 -72.5 46.5 -142.5c-4 -36 -14.5 -68.667 -31.5 -98s-46.5 -62 -88.5 -98l-185 -159c28.667 10 60.667 15 96 15h182l-24 -182h-532l16 112c5.33301 38 17 66.667 35 86
l165 141l41 37.5l34.5 31l25.5 23.5c9.33301 8.66699 16.166 15.334 20.499 20.001s8.83301 10 13.5 16s8 11.167 10 15.5s3.66699 9.16602 5 14.499c2.66699 10 0.666992 16.833 -6 20.5s-19.667 5.5 -39 5.5c-87.333 0 -163.333 -0.666992 -228 -2z" />
    <glyph glyph-name="three" unicode="3" horiz-adv-x="571" 
d="M91 539l0.000976562 147c77.333 12 154 18 230 18c84.667 0 145.5 -12.333 182.5 -37s52.833 -68.667 47.5 -132c-7.33301 -102 -53 -157.667 -137 -167l-1 -4c46.667 -6 78.667 -22.5 96 -49.5s23.333 -63.833 18 -110.5c-8.66699 -77.333 -38 -133 -88 -167
s-122 -51 -216 -51c-64 0 -140.333 6.66699 -229 20l14 151c50.667 -3.33301 111.667 -5 183 -5c42.667 0 73.167 7 91.5 21s29.5 33 33.5 57c4.66699 23.333 3.33398 39.333 -3.99902 48s-23.333 13 -48 13h-145l17 130h141c27.333 0 45.666 5.16699 54.999 15.5
s14.666 28.5 15.999 54.5c1.33301 18 -1.5 30.5 -8.5 37.5s-23.5 10.5 -49.5 10.5h-199z" />
    <glyph glyph-name="four" unicode="4" horiz-adv-x="653" 
d="M633 278l-15.999 -118.001l-69 -20h-3l-20 -140h-197l19 140h-267c-34 0 -57.833 11 -71.5 33s-13.834 46.667 -0.500977 74l230 443h205l-196 -391c-4.66699 -7.33301 -6.66699 -12.666 -6 -15.999s4.66699 -5 12 -5h113l23 170l49 106h165l-39 -276h69z" />
    <glyph glyph-name="five" unicode="5" horiz-adv-x="559" 
d="M536 535l-264 0.00292969l-18 -79l83 -10c34 -4.66699 63.5 -12.834 88.5 -24.501s44 -25 57 -40s23.5 -31.5 31.5 -49.5s12 -35.833 12 -53.5s-0.666992 -34.834 -2 -51.501c-10.667 -71.333 -38.834 -127.833 -84.501 -169.5s-116.5 -64.834 -212.5 -69.501
c-48 -2.66699 -127 3.33301 -237 18l27 161c74 -6.66699 131 -8.66699 171 -6c38.667 2 67.5 8.66699 86.5 20s31.167 31.333 36.5 60c3.33301 18 -0.166992 30.167 -10.5 36.5s-32.5 11.5 -66.5 15.5l-112 17c-21.333 3.33301 -37.666 12.5 -48.999 27.5s-15 32.5 -11 52.5
l59 300h443z" />
    <glyph glyph-name="six" unicode="6" horiz-adv-x="604" 
d="M567 551h-173.002c-42.667 0 -72.334 -8.33301 -89.001 -25s-30.667 -52 -42 -106c38 24 79 36 123 36c79.333 0 133 -17.167 161 -51.5s36.333 -89.833 25 -166.5c-13.333 -90.667 -41.666 -155 -84.999 -193s-112.666 -57 -207.999 -57
c-54.667 0 -98.667 5.66699 -132 17s-60.333 30.833 -81 58.5s-32 64.5 -34 110.5s1.33301 103.667 10 173c11.333 76.667 25.833 138.667 43.5 186s41.167 83.333 70.5 108s60.833 41 94.5 49s77.167 12 130.5 12c70.667 0 137.334 -7.66699 200.001 -23zM370.998 249
c4 29.333 3.16895 47.502 -2.49805 54.502s-19.834 10.5 -42.501 10.5c-28 0 -56.667 -8.33301 -86 -25c-4.66699 -30 -7.83398 -52.833 -9.50098 -68.5s-2.33398 -29.834 -2.00098 -42.501s3 -21.334 8 -26.001s11.167 -8 18.5 -10s18.333 -3 33 -3
c29.333 0 48.833 7.33301 58.5 22s17.834 44 24.501 88z" />
    <glyph glyph-name="seven" unicode="7" horiz-adv-x="548" 
d="M67 690l438 0.000976562c37.333 0 62.5 -9.83301 75.5 -29.5s12.167 -44.834 -2.5 -75.501l-293 -585h-213l222 442c12 25.333 29.333 51 52 77h-292z" />
    <glyph glyph-name="eight" unicode="8" horiz-adv-x="634" 
d="M171 356l1.00098 4.00195c-72 12 -101.667 67.333 -89 166c8 64 31.833 109.667 71.5 137s106.834 41 201.501 41c102.667 0 172.667 -15.667 210 -47s51 -80.333 41 -147c-14 -90.667 -58.333 -140.667 -133 -150l-1 -4c86 -9.33301 120.667 -73.333 104 -192
c-6 -44.667 -17.833 -79.334 -35.5 -104.001s-46.167 -43.334 -85.5 -56.001s-93.333 -19 -162 -19c-112 0 -188.167 15.667 -228.5 47s-56.833 80.666 -49.5 147.999c5.33301 48.667 20.166 89.334 44.499 122.001s61.166 50.667 110.499 54zM356.001 564.002
c-28.667 0 -48.501 -5.16797 -59.501 -15.501s-18.833 -32.833 -23.5 -67.5c-2.66699 -23.333 -0.5 -38.666 6.5 -45.999s24.833 -11 53.5 -11s48 4.5 58 13.5s17.333 28.833 22 59.5c4 28 2.33301 46.167 -5 54.5s-24.666 12.5 -51.999 12.5zM313 292.001
c-30 0 -51.333 -5.33301 -64 -16s-21 -34.667 -25 -72c-3.33301 -26.667 -0.5 -44.5 8.5 -53.5s29.5 -13.5 61.5 -13.5c29.333 0 50 5.16699 62 15.5s20.333 32.833 25 67.5c4 30 1.66699 49.5 -7 58.5s-29 13.5 -61 13.5z" />
    <glyph glyph-name="nine" unicode="9" horiz-adv-x="605" 
d="M32 140l194.002 -0.00292969c41.333 0 71.666 9.5 90.999 28.5s33.666 52.833 42.999 101.5c-37.333 -25.333 -82.333 -38 -135 -38c-32.667 0 -61 4.83301 -85 14.5s-42 22.334 -54 38.001s-21.667 33.5 -29 53.5s-10.666 40.5 -9.99902 61.5s2 41.167 4 60.5
c6.66699 46.667 15 83.834 25 111.501s25.667 52 47 73s49.666 35.5 84.999 43.5s81 12 137 12c44.667 0 81.834 -3.5 111.501 -10.5s54.834 -18.667 75.501 -35s35 -38.166 43 -65.499s12.667 -61.5 14 -102.5s-2.66699 -89.5 -12 -145.5
c-18.667 -138 -52.334 -231.667 -101.001 -281s-128.334 -74 -239.001 -74c-78 0 -151 7.66699 -219 23zM249.002 468.997c-4 -39.333 -3.33203 -65 2.00098 -77s18.666 -18 39.999 -18c32 0 60.667 7 86 21c8.66699 72 11 115 7 129c-4.66699 14.667 -18.667 23 -42 25h-17
c-27.333 0 -46 -5 -56 -15s-16.667 -31.667 -20 -65z" />
    <glyph glyph-name="colon" unicode=":" horiz-adv-x="275" 
d="M122 462h39.9971c24 0 42.333 -6.5 55 -19.5s17.334 -31.833 14.001 -56.5l-6 -41c-3.33301 -24 -11.166 -41.333 -23.499 -52s-31.166 -16 -56.499 -16h-40c-52 0 -75 25.333 -69 76l5 41c6.66699 45.333 33.667 68 81 68zM82.9971 186h39.9971
c24 0 42.333 -6.5 55 -19.5s17.334 -31.833 14.001 -56.5l-6 -41c-3.33301 -24 -11.166 -41.333 -23.499 -52s-31.166 -16 -56.499 -16h-40c-52 0 -75 25.333 -69 76l5 41c6.66699 45.333 33.667 68 81 68z" />
    <glyph glyph-name="semicolon" unicode=";" horiz-adv-x="273" 
d="M137 462h39.9971c24 0 42.333 -6.5 55 -19.5s17.334 -31.833 14.001 -56.5l-6 -41c-3.33301 -24 -11.166 -41.333 -23.499 -52s-31.166 -16 -56.499 -16h-40c-52 0 -75 25.333 -69 76l5 41c6.66699 45.333 33.667 68 81 68zM101.997 185l35.998 0.000976562
c26.667 0 45.334 -5.83301 56.001 -17.5s14.334 -31.167 11.001 -58.5l-9 -64c-5.33301 -35.333 -16.333 -72.833 -33 -112.5s-35.667 -72.167 -57 -97.5l-85 32c10.667 24 25 69.667 43 137c-21.333 -0.666992 -36 4.16602 -44 14.499s-10.667 26.833 -8 49.5l7 46
c4 26.667 12.333 45.167 25 55.5s32 15.5 58 15.5z" />
    <glyph glyph-name="less" unicode="&#x3c;" horiz-adv-x="503" 
d="M472 374l-268 -69l246 -77l-21 -162l-413 157l22 161l456 158z" />
    <glyph glyph-name="equal" unicode="=" horiz-adv-x="571" 
d="M530 329h-478l22 154h478zM499 117h-478l24 154h478z" />
    <glyph glyph-name="greater" unicode="&#x3e;" horiz-adv-x="500" 
d="M487 384l-22 -161l-453 -159l23 167l265 79l-242 79l19 152z" />
    <glyph glyph-name="question" unicode="?" horiz-adv-x="540" 
d="M75 546l0.00292969 138.999c5.33301 1.33301 15.166 3.33301 29.499 6s24 4.33398 29 5.00098s13.5 2.16699 25.5 4.5s21.5 3.83301 28.5 4.5s16.667 1.5 29 2.5s23.833 1.83301 34.5 2.5s23.5 1.16699 38.5 1.5s30.833 0.5 47.5 0.5c80 0 137.833 -13.5 173.5 -40.5
s49.834 -67.833 42.501 -122.5c-4 -26 -12.833 -49.833 -26.5 -71.5s-29.834 -40.667 -48.501 -57l-57 -49.5c-19.333 -16.667 -37.833 -37.334 -55.5 -62.001s-30.834 -51.667 -39.501 -81h-164c2.66699 35.333 11.667 69.5 27 102.5s31.166 59.333 47.499 79l50.5 59
c17.333 19.667 28 33.834 32 42.501c6 15.333 6.83301 25 2.5 29s-15.833 6 -34.5 6h-212zM217.003 184.999h39.9971c24.667 0 43.334 -6.5 56.001 -19.5s17.334 -31.833 14.001 -56.5l-6 -41c-3.33301 -24 -11.166 -41.333 -23.499 -52s-30.833 -16 -55.5 -16h-41
c-52 0 -75.333 25.333 -70 76l6 41c6 45.333 32.667 68 80 68z" />
    <glyph glyph-name="at" unicode="@" horiz-adv-x="822" 
d="M78 515l9 130.001c99.333 5.33301 212.666 8.66602 339.999 9.99902c59.333 0.666992 108 -0.333008 146 -3s72.833 -8.5 104.5 -17.5s55.334 -20.833 71.001 -35.5s28.167 -35 37.5 -61s13.666 -56.167 12.999 -90.5s-4.66699 -76.833 -12 -127.5
c-5.33301 -35.333 -10 -64.166 -14 -86.499s-9 -46 -15 -71s-12.5 -44.667 -19.5 -59s-15.667 -29 -26 -44s-22.166 -26.5 -35.499 -34.5s-29.166 -15.333 -47.499 -22s-38.833 -11.167 -61.5 -13.5s-48.667 -3.5 -78 -3.5c-88.667 0 -145.334 30.333 -170.001 91
c-40 -59.333 -90 -89 -150 -89c-57.333 0 -98.5 20.167 -123.5 60.5s-30.833 101.166 -17.5 182.499c8 48 19 87.333 33 118s32.167 53.5 54.5 68.5s45.333 25 69 30s53.167 7.5 88.5 7.5c66.667 0 155.334 -9.33301 266.001 -28l-44 -271c-4 -23.333 3 -35 21 -35
c26.667 0 44 9 52 27s18.667 65 32 141c3.33301 16.667 5.66602 29.667 6.99902 39c4 24.667 7.16699 45 9.5 61s3 31.167 2 45.5s-2.33301 25.5 -4 33.5s-6.83398 15.333 -15.501 22s-16.5 11.5 -23.5 14.5s-19.667 5.33301 -38 7s-34.666 2.66699 -48.999 3
s-35.833 0.5 -64.5 0.5h-347zM338 328.001h-44c-14.667 0 -25.834 -1.5 -33.501 -4.5s-15.834 -12.333 -24.501 -28s-16 -39.5 -22 -71.5c-5.33301 -40.667 -6.16602 -65 -2.49902 -73s13.834 -12 30.501 -12c25.333 0 50.333 22 75 66z" />
    <glyph glyph-name="A" unicode="A" horiz-adv-x="678" 
d="M418 146l-187.998 0.000976562l-54 -146h-225l266 638c13.333 34.667 38.666 52 75.999 52h196c17.333 0 32.666 -5.83301 45.999 -17.5s21 -25.834 23 -42.501l89 -630h-217zM406.002 304.001l-11.999 149c-2 17.333 -2.33301 43 -1 77h-28
c-4.66699 -27.333 -11.334 -52.333 -20.001 -75l-56 -151h117z" />
    <glyph glyph-name="B" unicode="B" horiz-adv-x="657" 
d="M11 0l96.999 690.001c65.333 5.33301 159.666 8 282.999 8c94.667 0 160.334 -13.5 197.001 -40.5s50.334 -76.167 41.001 -147.5c-6.66699 -49.333 -20.334 -85.5 -41.001 -108.5s-54.334 -36.5 -101.001 -40.5l-1 -6c102 -8.66699 144.667 -72.334 128 -191.001
c-9.33301 -66.667 -33.666 -112 -72.999 -136s-103.666 -36 -192.999 -36c-150 0 -262.333 2.66699 -337 8zM281.999 423.001h67.002c25.333 0 42.666 4.5 51.999 13.5s16.333 28.5 21 58.5c3.33301 20 2.16602 33.833 -3.50098 41.5s-17.167 11.5 -34.5 11.5h-84z
M243.001 142.001h63c32 0 54 5.16699 66 15.5s20.333 32.5 25 66.5c4 28 2.66699 46.333 -4 55s-22.667 13 -48 13h-81z" />
    <glyph glyph-name="C" unicode="C" horiz-adv-x="603" 
d="M545 179l8.00195 -158.998c-68.667 -21.333 -148.334 -32 -239.001 -32c-116.667 0 -196 27.167 -238 81.5s-53.667 148.833 -35 283.5c10 70.667 22.833 128 38.5 172s37.5 79.5 65.5 106.5s61.167 45.5 99.5 55.5s87.166 15 146.499 15c85.333 0 161 -9.33301 227 -28
l-25 -157c-97.333 1.33301 -168.333 2 -213 2c-25.333 0 -44.333 -3.83301 -57 -11.5s-23.334 -24.334 -32.001 -50.001s-16.667 -65.834 -24 -120.501c-10 -68 -12 -112.667 -6 -134s27 -32 63 -32c90.667 0 164.334 2.66699 221.001 8z" />
    <glyph glyph-name="D" unicode="D" 
d="M11 0l97.002 690.001c85.333 6.66699 179 10 281 10c78 0 139.167 -10.333 183.5 -31s75.666 -57.834 93.999 -111.501s20.833 -127.167 7.5 -220.5c-10 -70.667 -22.833 -127.667 -38.5 -171s-37.5 -78.5 -65.5 -105.5s-61.333 -45.5 -100 -55.5
s-88.334 -15 -149.001 -15c-104.667 0 -208 3.33301 -310 10zM249.002 148.001l69 -1c36.667 0 64.5 13.833 83.5 41.5s33.833 82.5 44.5 164.5c10.667 77.333 12.167 128.333 4.5 153s-30.5 37 -68.5 37h-78z" />
    <glyph glyph-name="E" unicode="E" horiz-adv-x="587" 
d="M583 528l-240.002 0.000976562c-17.333 0 -29.666 -3 -36.999 -9s-12 -16.333 -14 -31l-9 -63h249l-18 -144h-251l-11 -80c-4 -26 8.33301 -39 37 -39h240l-4 -154c-59.333 -8 -172 -12 -338 -12c-56 0 -97.667 17.333 -125 52s-37.333 80 -30 136l50 357
c6.66699 47.333 25.334 84.666 56.001 111.999s71 41 121 41c165.333 0 281.333 -4.66699 348 -14z" />
    <glyph glyph-name="F" unicode="F" horiz-adv-x="567" 
d="M579 528l-230.001 0.000976562c-18 0 -31 -3 -39 -9s-13 -16.333 -15 -31l-11 -77h241l-18 -144h-243l-37 -267h-218l76 541c6.66699 47.333 25.834 84.666 57.501 111.999s71.167 41 118.5 41c162 0 276 -5 342 -15z" />
    <glyph glyph-name="G" unicode="G" horiz-adv-x="670" 
d="M441 397l206.997 0.00195312l-56 -397h-159l-8 80c-61.333 -62.667 -128.666 -94 -201.999 -94c-155.333 0 -215.666 122.333 -180.999 367c10 71.333 24 129.666 42 174.999s42.833 81.166 74.5 107.499s67.834 44.333 108.501 54s91.667 14.5 153 14.5
c89.333 0 166.333 -10 231 -30l-24 -155c-100 1.33301 -174 2 -222 2c-43.333 0 -74.166 -12.667 -92.499 -38s-33.166 -74 -44.499 -146c-10.667 -68 -12.334 -112.667 -5.00098 -134s27.666 -32 60.999 -32c31.333 0 61.333 10.333 90 31z" />
    <glyph glyph-name="H" unicode="H" horiz-adv-x="705" 
d="M708 690l-97 -690h-217l41 289h-165l-41 -289h-217l97 690h217l-35 -247h165l35 247h217z" />
    <glyph glyph-name="I" unicode="I" horiz-adv-x="322" 
d="M228 0h-216l97 690h216z" />
    <glyph glyph-name="J" unicode="J" horiz-adv-x="395" 
d="M400 690l-77.999 -567c-6.66699 -44 -26.167 -77.833 -58.5 -101.5s-74.166 -35.5 -125.499 -35.5c-28 0 -58.333 2.5 -91 7.5s-56.334 11.833 -71.001 20.5l34 134h37c39.333 0 60.666 13 63.999 39l73 503h216z" />
    <glyph glyph-name="K" unicode="K" horiz-adv-x="668" 
d="M460 343l-1.00195 -4.00098c9.33301 -4 19.333 -12.833 30 -26.5s19 -28.167 25 -43.5l120 -269h-234l-107 288h-31c2.66699 -21.333 2.33398 -43.666 -0.999023 -66.999l-31 -221h-218l97 690h218l-27 -191c-3.33301 -25.333 -8.66602 -49 -15.999 -71h33l168 262h240
l-193 -288c-18 -28 -42 -47.667 -72 -59z" />
    <glyph glyph-name="L" unicode="L" horiz-adv-x="552" 
d="M323 690l-71.001 -478c-1.33301 -15.333 0.5 -25.833 5.5 -31.5s15.167 -8.5 30.5 -8.5h228l-4 -163c-66.667 -8.66699 -177 -13 -331 -13c-50 0 -89.167 15.167 -117.5 45.5s-39.166 68.833 -32.499 115.5l74 533h218z" />
    <glyph glyph-name="M" unicode="M" horiz-adv-x="947" 
d="M664 690h193.001c24.667 0 43.334 -7 56.001 -21s17.667 -33.333 15 -58l-62 -611h-195l54 528h-14l-116 -356c-12 -41.333 -41 -62 -87 -62h-110c-23.333 0 -41.833 6.16699 -55.5 18.5s-20.834 29.5 -21.501 51.5l-19 348h-16l-91 -528h-195l111 619
c4.66699 24.667 13 42.667 25 54s30 17 54 17h184c22.667 0 40.667 -6.33301 54 -19s20.333 -30 21 -52l12 -274c2 -30.667 1.33301 -65 -2 -103h10c5.33301 25.333 13.666 59 24.999 101l84 284c11.333 42 40 63 86 63z" />
    <glyph glyph-name="N" unicode="N" horiz-adv-x="730" 
d="M734 690l-87 -619c-3.33301 -24.667 -11.333 -42.667 -24 -54s-31 -17 -55 -17h-72c-20.667 0 -35.834 5 -45.501 15s-20.167 27.333 -31.5 52l-118 237c-12.667 24.667 -24.334 62.667 -35.001 114h-7c1.33301 -48 -0.666992 -90.667 -6 -128l-43 -290h-199l87 619
c3.33301 24.667 11.333 42.667 24 54s31 17 55 17h72c10.667 0 19.834 -1.33301 27.501 -4s14.5 -7.83398 20.5 -15.501s10.667 -14.167 14 -19.5s8 -14.666 14 -27.999l116 -225c17.333 -36 31.333 -75.667 42 -119h8c-3.33301 40 -2.66602 79 2.00098 117l42 294h199z" />
    <glyph glyph-name="O" unicode="O" 
d="M389 704c47.333 0 87.666 -3.5 120.999 -10.5s63 -19 89 -36s45.167 -39.5 57.5 -67.5s20.833 -62.833 25.5 -104.5s2.33398 -91.167 -6.99902 -148.5c-9.33301 -71.333 -22.666 -129.666 -39.999 -174.999s-40.666 -81 -69.999 -107s-63 -44 -101 -54
s-85.333 -15 -142 -15c-82 0 -144.833 10.833 -188.5 32.5s-73.334 59.167 -89.001 112.5s-16.834 127.333 -3.50098 222c10 70.667 23.333 128.5 40 173.5s39.5 80.667 68.5 107s62.167 44.666 99.5 54.999s84 15.5 140 15.5zM387 543c-36 0 -61.499 -12.833 -76.499 -38.5
s-29.167 -81.5 -42.5 -167.5c-12 -79.333 -14.167 -130.833 -6.5 -154.5s29.5 -35.5 65.5 -35.5c37.333 0 63.333 12.833 78 38.5s28.667 81.5 42 167.5c11.333 78.667 13.166 130 5.49902 154s-29.5 36 -65.5 36z" />
    <glyph glyph-name="P" unicode="P" horiz-adv-x="638" 
d="M11 0l96.999 690c66.667 6.66699 159.334 10 278.001 10c107.333 0 180.333 -17.333 219 -52s52 -98.334 40 -191.001c-12 -87.333 -37.5 -146.666 -76.5 -177.999s-104.5 -47 -196.5 -47c-32 0 -69 2.33301 -111 7l-34 -239h-216zM280.999 385h72
c27.333 0 45.833 5 55.5 15s17.167 34.333 22.5 73c4 28.667 2.66699 48.167 -4 58.5s-22 15.5 -46 15.5h-77z" />
    <glyph glyph-name="Q" unicode="Q" 
d="M389 704c47.333 0 87.666 -3.5 120.999 -10.5s63 -19 89 -36s45.167 -39.5 57.5 -67.5s20.833 -62.833 25.5 -104.5s2.33398 -91.167 -6.99902 -148.5c-9.33301 -71.333 -22.666 -129.666 -39.999 -174.999s-40.666 -81 -69.999 -107s-63 -44 -101 -54
s-85.333 -15 -142 -15c-82 0 -144.833 10.833 -188.5 32.5s-73.334 59.167 -89.001 112.5s-16.834 127.333 -3.50098 222c10 70.667 23.333 128.5 40 173.5s39.5 80.667 68.5 107s62.167 44.666 99.5 54.999s84 15.5 140 15.5zM387 543c-36 0 -61.499 -12.833 -76.499 -38.5
s-29.167 -81.5 -42.5 -167.5c-12 -79.333 -14.167 -130.833 -6.5 -154.5s29.5 -35.5 65.5 -35.5c37.333 0 63.333 12.833 78 38.5s28.667 81.5 42 167.5c11.333 78.667 13.166 130 5.49902 154s-29.5 36 -65.5 36zM181.001 -130l60.001 103
c71.333 -28 177.666 -52.667 318.999 -74l-78 -175c-126 37.333 -226.333 86 -301 146z" />
    <glyph glyph-name="R" unicode="R" horiz-adv-x="669" 
d="M11 0l96.998 690c66.667 6.66699 159.667 10 279 10c100.667 0 173.334 -16.5 218.001 -49.5s61.667 -89.167 51 -168.5c-6 -44.667 -20.5 -80.5 -43.5 -107.5s-60.5 -43.167 -112.5 -48.5l-1 -7c54.667 -8 85 -45 91 -111l26 -208h-224l-18 209
c-0.666992 18.667 -3.66699 30.5 -9 35.5s-15.666 7.5 -30.999 7.5h-76l-35 -252h-212zM279.998 405h75.0029c29.333 0 49.666 5 60.999 15s19.333 31.333 24 64c3.33301 24 1.16602 40.5 -6.50098 49.5s-23.834 13.5 -48.501 13.5h-85z" />
    <glyph glyph-name="S" unicode="S" horiz-adv-x="602" 
d="M314 235l-125.997 62c-54.667 26.667 -90.834 57 -108.501 91s-23.834 74.333 -18.501 121c8.66699 74 35.834 125 81.501 153s117.167 42 214.5 42c93.333 0 175.666 -12 246.999 -36l-19 -138c-81.333 1.33301 -162 2 -242 2c-23.333 0 -39.833 -2 -49.5 -6
s-15.834 -11.333 -18.501 -22c-1.33301 -8 0.833984 -15.167 6.50098 -21.5s18.167 -14.166 37.5 -23.499l116 -55c54.667 -26 90.834 -55 108.501 -87s23.5 -74.667 17.5 -128c-8.66699 -78.667 -33.667 -132.167 -75 -160.5s-112.333 -42.5 -213 -42.5
c-88.667 0 -178.334 11.667 -269.001 35l20 151c128.667 -3.33301 208 -5 238 -5s51 2.16699 63 6.5s19.333 11.833 22 22.5c2 8 0.666992 14.667 -4 20s-14.334 11.666 -29.001 18.999z" />
    <glyph glyph-name="T" unicode="T" horiz-adv-x="618" 
d="M641 528h-191l-74 -528h-217l74 528h-190l23 162h598z" />
    <glyph glyph-name="U" unicode="U" 
d="M710 690l-59 -408.999c-15.333 -110.667 -46.666 -187.5 -93.999 -230.5s-125.666 -64.5 -234.999 -64.5c-107.333 0 -183.833 23.667 -229.5 71s-61.5 124.666 -47.5 231.999l58 401h216l-58 -409c-8.66699 -52.667 -8.83398 -88.167 -0.500977 -106.5
s30.5 -27.5 66.5 -27.5c36.667 0 61.667 9.16699 75 27.5s24.666 56.5 33.999 114.5l57 401h217z" />
    <glyph glyph-name="V" unicode="V" horiz-adv-x="665" 
d="M723 690l-257.001 -636c-14 -36 -39.333 -54 -76 -54h-189c-18 -0 -33.5 5.83301 -46.5 17.5s-20.5 26.5 -22.5 44.5l-78 628h218l24 -441c1.33301 -20.667 1.33301 -50.667 0 -90h26c4.66699 27.333 12.334 56 23.001 86l150 445h228z" />
    <glyph glyph-name="W" unicode="W" horiz-adv-x="995" 
d="M1030 690l-174.001 -635.999c-9.33301 -36 -34.666 -54 -75.999 -54h-182c-18.667 0 -35 6 -49 18s-20.667 26.667 -20 44l7 369c0.666992 16 2.33398 51 5.00098 105h-18c-4.66699 -33.333 -11.334 -67.333 -20.001 -102l-99 -380c-9.33301 -36 -34.666 -54 -75.999 -54
h-187c-18.667 0 -34.834 6 -48.501 18s-19.834 26.667 -18.501 44v628h213l-27 -427c-0.666992 -13.333 -2 -33.5 -4 -60.5l-4 -54.5h17c8.66699 46.667 18 88 28 124l96 358c10.667 40 36.334 60 77.001 60h151c19.333 0 35.333 -6.5 48 -19.5s19 -29.167 19 -48.5v-360
c0 -28 -0.666992 -66 -2 -114h18c4 39.333 11 79.666 21 120.999l92 421h213z" />
    <glyph glyph-name="X" unicode="X" horiz-adv-x="672" 
d="M516 352l117 -352h-213l-75 284l-161 -284h-230l218 352l-104 338h209l71 -268l151 268h221z" />
    <glyph glyph-name="Y" unicode="Y" horiz-adv-x="649" 
d="M420 209l-29 -208.999h-218l31 221l-158 469h216l53 -221c6 -26.667 8.33301 -60.334 7 -101.001h15c3.33301 32 13.333 65 30 99l117 223h231z" />
    <glyph glyph-name="Z" unicode="Z" horiz-adv-x="598" 
d="M594 538l-333 -386h288l-21 -152h-539l20 152l334 386h-268l21 152h519z" />
    <glyph glyph-name="bracketleft" unicode="[" horiz-adv-x="364" 
d="M389 640h-53.999c-10.667 0 -18.334 -1.83301 -23.001 -5.5s-7.66699 -10.5 -9 -20.5l-89 -628c-2 -15.333 4.33301 -23 19 -23h61l-18 -128h-171c-71.333 0 -102.333 35 -93 105l103 731c4.66699 30 16.5 53.667 35.5 71s43.5 26 73.5 26h183z" />
    <glyph glyph-name="backslash" unicode="\" horiz-adv-x="581" 
d="M516 -79h-156l-290 769h156z" />
    <glyph glyph-name="bracketright" unicode="]" horiz-adv-x="364" 
d="M92 768h171c30 0 53.833 -10 71.5 -30s24.5 -45 20.5 -75l-103 -731c-4 -30 -15.5 -53.667 -34.5 -71s-43.5 -26 -73.5 -26h-183l18 128h54c10 0 17.333 1.83301 22 5.5s7.66699 10.5 9 20.5l89 628c2 15.333 -4 23 -18 23h-61z" />
    <glyph glyph-name="asciicircum" unicode="^" horiz-adv-x="497" 
d="M489 414l-83 -42l-111 157h-8l-157 -157l-78 42l172 239h152z" />
    <glyph glyph-name="underscore" unicode="_" horiz-adv-x="533" 
d="M434 -122h-451l17 122h451z" />
    <glyph glyph-name="grave" unicode="`" horiz-adv-x="392" 
d="M402 597l-67 -86l-248 106l80 130z" />
    <glyph glyph-name="a" unicode="a" horiz-adv-x="613" 
d="M367 0l-2 97.001c-44.667 -66.667 -109.667 -103 -195 -109c-46.667 -3.33301 -82.5 6.16699 -107.5 28.5s-39.5 54.5 -43.5 96.5s-2 92.333 6 151c6 38.667 14 72.167 24 100.5s22.833 51.5 38.5 69.5s31.5 32.5 47.5 43.5s36.833 19.167 62.5 24.5
s49.5 8.66602 71.5 9.99902s50.333 2 85 2s79 -3.5 133 -10.5s90.667 -14.167 110 -21.5l-68 -482h-162zM374 377.001h-46c-24.667 0 -44 -6.83301 -58 -20.5s-24.333 -42.5 -31 -86.5c-9.33301 -63.333 -11.333 -100.333 -6 -111c3.33301 -8 12.333 -11.333 27 -10
c28 2 59 27.667 93 77z" />
    <glyph glyph-name="b" unicode="b" horiz-adv-x="616" 
d="M311 700l-16 -122.997c-5.33301 -48.667 -16.333 -94 -33 -136c52 48.667 111 73 177 73c122.667 0 170.667 -88.667 144 -266c-4.66699 -29.333 -10.334 -55.333 -17.001 -78s-17.167 -45.834 -31.5 -69.501s-31.666 -43.334 -51.999 -59.001s-47 -28.5 -80 -38.5
s-70.5 -15 -112.5 -15c-46 0 -98.333 3.66699 -157 11s-101 17.666 -127 30.999l94 670h211zM260 321.003l-28.001 -189.998c19.333 -2 35.333 -2.66699 48 -2c26.667 1.33301 46.334 11.166 59.001 29.499s23 53.166 31 104.499c5.33301 35.333 6.5 58.833 3.5 70.5
s-12.5 17.5 -28.5 17.5c-24.667 0 -53 -10 -85 -30z" />
    <glyph glyph-name="c" unicode="c" horiz-adv-x="536" 
d="M470 161l14.998 -132.998c-56 -26.667 -129.333 -40 -220 -40c-91.333 0 -158.166 21.5 -200.499 64.5s-56.833 111.833 -43.5 206.5c12.667 91.333 39.834 156.666 81.501 195.999s108.5 59 200.5 59s168.333 -13 229 -39l-28 -128h-176c-29.333 0 -50 -6.66699 -62 -20
s-20.667 -38 -26 -74c-6 -40.667 -4.83301 -67.334 3.5 -80.001s27.833 -19 58.5 -19c70 0 126 2.33301 168 7z" />
    <glyph glyph-name="d" unicode="d" horiz-adv-x="617" 
d="M631 700l-99.001 -700h-166l-4 80c-64 -61.333 -126.333 -92 -187 -92c-123.333 0 -173.666 92 -150.999 276c12 94 36 159.167 72 195.5s82.667 54.5 140 54.5c62.667 0 116 -4.33301 160 -13c0 40 2.33301 74.667 7 104l18 95h210zM373.999 387h-47.001
c-30 0 -50.667 -7.16699 -62 -21.5s-20.333 -46.166 -27 -95.499c-6.66699 -36 -8.66699 -63.333 -6 -82s13.334 -27.334 32.001 -26.001c25.333 1.33301 53.333 13 84 35z" />
    <glyph glyph-name="e" unicode="e" horiz-adv-x="590" 
d="M512 160l13.999 -127.999c-63.333 -29.333 -142.333 -44 -237 -44c-56 0 -102.667 5.66699 -140 17s-66 28.666 -86 51.999s-33.167 50.833 -39.5 82.5s-7.16602 69.834 -2.49902 114.501c5.33301 52.667 15.666 96.334 30.999 131.001s36.5 61.167 63.5 79.5
s57 31.166 90 38.499s73.167 11 120.5 11c100 0 168.667 -15.333 206 -46s51.333 -77.334 42 -140.001c-6 -43.333 -25.167 -73.5 -57.5 -90.5s-84.166 -28.167 -155.499 -33.5l-125 -9c0.666992 -18.667 6.16699 -31 16.5 -37s28.5 -9 54.5 -9c72.667 0 141 3.66699 205 11
zM248.999 297.001l57.001 6.00195c24 2 40.833 5.83301 50.5 11.5s15.5 17.167 17.5 34.5c1.33301 11.333 -1.16699 19.333 -7.5 24s-19.166 6.66699 -38.499 6c-24.667 -0.666992 -42.334 -6.33398 -53.001 -17.001s-19.334 -32.334 -26.001 -65.001z" />
    <glyph glyph-name="f" unicode="f" horiz-adv-x="423" 
d="M474 584h-79.999c-20 0 -34.333 -4 -43 -12s-14.667 -22.667 -18 -44l-4 -28h117l-17 -126h-119l-60 -406c-16 -106 -79.333 -159 -190 -159c-33.333 0 -85 5 -155 15l32 125h49c20.667 0 35.667 4 45 12s15.666 22.667 18.999 44l53 369h-81l15 121l85 5l9 65
c16 106 79.333 159 190 159c74 0 135.667 -5 185 -15z" />
    <glyph glyph-name="g" unicode="g" horiz-adv-x="618" 
d="M15 -56l126 0.000976562c102.667 0 167.667 21.333 195 64c8.66699 12.667 16.167 30.667 22.5 54s11.833 39.666 16.5 48.999c-45.333 -71.333 -112.666 -109 -201.999 -113c-68.667 -3.33301 -113.834 18 -135.501 64s-25.5 113.333 -11.5 202
c5.33301 33.333 11.833 62.833 19.5 88.5s16 47.334 25 65.001s20.167 32.5 33.5 44.5s26 21.333 38 28s27.5 11.834 46.5 15.501s36.167 6 51.5 7s35 1.5 59 1.5c62 0 121.333 -3.33301 178 -10s98.334 -14 125.001 -22l-55 -392
c-6.66699 -50.667 -17.834 -94.334 -33.501 -131.001s-33.167 -65.334 -52.5 -86.001s-42.833 -37 -70.5 -49s-53.667 -19.667 -78 -23s-52.5 -5 -84.5 -5c-98.667 0 -173 11.667 -223 35zM379 377.001h-48c-31.333 0 -52.5 -7 -63.5 -21s-20.167 -42.667 -27.5 -86
c-4.66699 -26 -7.66699 -47 -9 -63s-1 -28.667 1 -38s5.33301 -15.5 10 -18.5s11.667 -3.5 21 -1.5c31.333 6 63 32 95 78z" />
    <glyph glyph-name="h" unicode="h" horiz-adv-x="619" 
d="M311 700l-21 -153c-5.33301 -39.333 -15 -79 -29 -119c66 57.333 129.333 86 190 86c50.667 0 88 -12.5 112 -37.5s32.667 -60.5 26 -106.5l-52 -370h-210l44 311c2 10.667 1.66699 17.667 -1 21s-8.66699 5 -18 5c-30 0 -62.667 -13.667 -98 -41l-41 -296h-210l98 700
h210z" />
    <glyph glyph-name="i" unicode="i" horiz-adv-x="304" 
d="M169 729h81c44.667 0 64.667 -22 60 -66l-7 -51c-4.66699 -38.667 -27.667 -58 -69 -58h-82c-44 0 -63.667 22 -59 66l7 51c4 38.667 27 58 69 58zM216 0h-209l69 500h209z" />
    <glyph glyph-name="j" unicode="j" horiz-adv-x="306" 
d="M171 729h79.001c45.333 0 65 -22 59 -66l-7 -51c-4.66699 -38.667 -28.334 -58 -71.001 -58h-79c-44.667 0 -64.667 22 -60 66l7 51c4.66699 38.667 28.667 58 72 58zM289.001 500l-65 -446.001c-6.66699 -53.333 -26.167 -102.666 -58.5 -147.999s-73.5 -78 -123.5 -98
l-115 97c51.333 48 81 100.333 89 157l63 438h210z" />
    <glyph glyph-name="k" unicode="k" horiz-adv-x="609" 
d="M388 500l215.998 0.000976562c-22.667 -101.333 -79.667 -182 -171 -242c24.667 -17.333 43.334 -40.333 56.001 -69l91 -189h-215l-85 185c-14.667 -6 -29.667 -11 -45 -15c0 -8.66699 -0.666992 -19 -2 -31l-20 -139h-210l98 700h210l-38 -272
c-6.66699 -40.667 -21 -81.334 -43 -122.001c39.333 21.333 73.333 49.5 102 84.5s47.334 71.5 56.001 109.5z" />
    <glyph glyph-name="l" unicode="l" horiz-adv-x="360" 
d="M311 700l-74.998 -522c-2.66699 -12.667 -1.33398 -21.167 3.99902 -25.5s17 -6.5 35 -6.5h40l12 -136c-28.667 -16 -76.334 -24 -143.001 -24c-56 0 -98.5 13 -127.5 39s-40.833 61 -35.5 105l81 570h209z" />
    <glyph glyph-name="m" unicode="m" horiz-adv-x="884" 
d="M236 500l6.00098 -71.001c58.667 56.667 119.334 85 182.001 85c69.333 0 111.666 -24 126.999 -72c54 48 110.667 72 170 72c49.333 0 85.666 -12.667 108.999 -38s31.666 -60.666 24.999 -105.999l-52 -370h-208l43 311c2.66699 17.333 -3.66602 26 -18.999 26
c-19.333 0 -43.333 -10 -72 -30l-43 -307h-201l43 311c3.33301 17.333 -3 26 -19 26c-20 0 -44.333 -9.33301 -73 -28l-42 -309h-209l70 500h163z" />
    <glyph glyph-name="n" unicode="n" horiz-adv-x="619" 
d="M236 500l4.99902 -88c32 32 67.333 57 106 75s76.334 27 113.001 27c43.333 0 77.5 -12.5 102.5 -37.5s34.167 -60.5 27.5 -106.5l-52 -370h-211l43 302c2 14 1.16699 23.667 -2.5 29s-11.834 7.33301 -24.501 6c-27.333 -2.66699 -56.666 -16 -87.999 -40l-42 -297h-210
l69 500h164z" />
    <glyph glyph-name="o" unicode="o" horiz-adv-x="615" 
d="M327 514c102 0 173.5 -21 214.5 -63s54.5 -112 40.5 -210c-13.333 -94 -42.5 -159.667 -87.5 -197s-117.167 -56 -216.5 -56c-101.333 0 -173 20.833 -215 62.5s-56 110.5 -42 206.5c13.333 95.333 42.5 162 87.5 200s117.833 57 218.5 57zM323 372
c-26.667 0 -45.167 -8.16699 -55.5 -24.5s-19.5 -51.833 -27.5 -106.5c-6.66699 -46 -7.16699 -76 -1.5 -90s21.5 -21 47.5 -21c25.333 0 42.833 7.83301 52.5 23.5s18.5 50.167 26.5 103.5c7.33301 47.333 8.33301 78.333 3 93s-20.333 22 -45 22z" />
    <glyph glyph-name="p" unicode="p" horiz-adv-x="615" 
d="M239 500v-87.999c64 66.667 131 100 201 100c57.333 0 97.833 -23.333 121.5 -70s29.834 -115.334 18.501 -206.001c-6.66699 -50 -16.834 -92 -30.501 -126s-31 -59.667 -52 -77s-43.333 -29.5 -67 -36.5s-51.5 -10.5 -83.5 -10.5c-44.667 0 -90.667 4.33301 -138 13
c0 -31.333 -2.33301 -62.333 -7 -93l-14 -86h-210l94 680h167zM231 113.001h46c32 0 52.833 7 62.5 21s18.167 46 25.5 96c4.66699 33.333 7 58.333 7 75s-2.16699 28.5 -6.5 35.5s-11.833 10.5 -22.5 10.5c-28 0 -57.667 -15.667 -89 -47z" />
    <glyph glyph-name="q" unicode="q" horiz-adv-x="616" 
d="M296 -180l13.9971 104.999c6 47.333 14.333 89.666 25 126.999c-53.333 -42.667 -104.333 -64 -153 -64c-67.333 0 -114.166 21.167 -140.499 63.5s-32.833 109.833 -19.5 202.5c4 28 8.5 52 13.5 72s12 40.667 21 62s20.5 39 34.5 53s30.833 26.833 50.5 38.5
s43.834 20.334 72.501 26.001s61.334 8.5 98.001 8.5c48 0 101.333 -3.66699 160 -11s101 -17.666 127 -30.999l-93 -652h-210zM346.997 196.999l25.999 174.001c-13.333 1.33301 -29.666 2 -48.999 2c-27.333 -2 -47.166 -10.333 -59.499 -25
s-21.833 -44.334 -28.5 -89.001c-6 -34 -7.33301 -58.667 -4 -74s14.666 -23 33.999 -23c18.667 0 45.667 11.667 81 35z" />
    <glyph glyph-name="r" unicode="r" horiz-adv-x="452" 
d="M479 514l-43 -192h-47c-34 0 -78.333 -4.33301 -133 -13l-42 -309h-211l70 500h164l7 -68c66 54.667 132.333 82 199 82h36z" />
    <glyph glyph-name="s" unicode="s" horiz-adv-x="548" 
d="M252 175l-105.002 29.999c-87.333 24.667 -124.333 81.667 -111 171c6.66699 46.667 27.834 81.334 63.501 104.001s95.167 34 178.5 34c98.667 0 182.667 -7.66699 252 -23l-17 -121h-191c-37.333 0 -61 -0.5 -71 -1.5s-15.333 -3.83301 -16 -8.5
c-1.33301 -5.33301 1.5 -9.83301 8.5 -13.5s20.5 -8.16699 40.5 -13.5l109 -29c86 -23.333 124 -76 114 -158c-7.33301 -62 -31.166 -103.667 -71.499 -125s-101.166 -32 -182.499 -32c-88.667 0 -174 7.33301 -256 22l17 121h168c50.667 0 83.667 1 99 3
s23.666 6.33301 24.999 13c0.666992 4.66699 -2.33301 8.66699 -9 12s-21.667 8.33301 -45 15z" />
    <glyph glyph-name="t" unicode="t" horiz-adv-x="439" 
d="M317 374l-27.999 -196c-2 -13.333 -1.16699 -22 2.5 -26s13.167 -6 28.5 -6h59l11 -136c-40.667 -16 -96.334 -24 -167.001 -24c-51.333 0 -90.833 13 -118.5 39s-38.167 61 -31.5 105l36 244h-86l15 121l90 5l19 131h207l-19 -131h120l-17 -126h-121z" />
    <glyph glyph-name="u" unicode="u" horiz-adv-x="613" 
d="M598 500l-69 -500h-164l-4 85c-68 -66 -136 -99 -204 -99c-52 0 -89.833 12.5 -113.5 37.5s-32.167 60.5 -25.5 106.5l51 370h211l-45 -311c-2.66699 -18 5 -27 23 -27c26 0 55.667 12.333 89 37l43 301h208z" />
    <glyph glyph-name="v" unicode="v" horiz-adv-x="607" 
d="M384 500l229.002 -0.000976562c-10 -73.333 -26.333 -144.666 -49 -213.999c-22 -68 -47.667 -128.667 -77 -182c-24 -42.667 -49.833 -70.667 -77.5 -84s-66.834 -20 -117.501 -20h-148c-16 0 -29.5 5 -40.5 15s-17.167 22.667 -18.5 38l-53 447h227v-374h9
c13.333 0 23 3.83301 29 11.5s14.667 25.167 26 52.5c12.667 32 24.667 74.667 36 128c9.33301 46 17.666 106.667 24.999 182z" />
    <glyph glyph-name="w" unicode="w" horiz-adv-x="925" 
d="M246 130l6.00391 -0.00390625c17.333 0 31.333 22 42 66c6 24.667 12 55 18 91c2.66699 16 6.66699 42.5 12 79.5l12 81.5c2 13.333 8 25.333 18 36s24.667 16 44 16h172c16 0 29.5 -5 40.5 -15s17.5 -22.667 19.5 -38v-317h7c2.66699 0 5.16699 0.333008 7.5 1
s4.5 1.83398 6.5 3.50098s3.66699 3.33398 5 5.00098s2.66602 4.33398 3.99902 8.00098s2.5 6.66699 3.5 9s2 6 3 11s1.83301 9 2.5 12l3 13.5c1.33301 6 2.33301 11 3 15c4 17.333 10.667 55.333 20 114c8 52.667 14.333 112 19 178h208
c-8.66699 -77.333 -20 -146 -34 -206c-16 -69.333 -32.333 -124.666 -49 -165.999c-19.333 -48 -43.833 -81.333 -73.5 -100s-78.5 -28 -146.5 -28h-77c-16.667 0 -30.667 5.5 -42 16.5s-16.333 24.167 -15 39.5v320h-12c-4 -34.667 -10.333 -75.667 -19 -123
c-8.66699 -48 -16.334 -85 -23.001 -111c-7.33301 -26.667 -16.166 -49 -26.499 -67s-20.833 -32 -31.5 -42s-24.834 -17.5 -42.501 -22.5s-33.334 -8 -47.001 -9s-32.834 -1.5 -57.501 -1.5h-110c-16 -0 -29.5 5.33301 -40.5 16s-17.167 24 -18.5 40l-16 445h213z" />
    <glyph glyph-name="x" unicode="x" horiz-adv-x="604" 
d="M458 255l106 -255h-197l-71 186l-125 -186h-216l181 255l-97 245h194l65 -175l119 175h210z" />
    <glyph glyph-name="y" unicode="y" horiz-adv-x="622" 
d="M404 500h224.999c-11.333 -82 -36.666 -174.333 -75.999 -277s-72 -174.334 -98 -215.001c-96.667 -151.333 -226.334 -222.666 -389.001 -213.999l-13 113c8.66699 3.33301 21.834 7.83301 39.501 13.5s31 10.167 40 13.5s20.167 8 33.5 14s25.333 13.333 36 22
s21 18.667 31 30h-79c-16 0 -29.833 5 -41.5 15s-18.5 22.667 -20.5 38l-62 447h230l8 -358c0 -10.667 5.33301 -16 16 -16h24c42 93.333 74 218 96 374z" />
    <glyph glyph-name="z" unicode="z" horiz-adv-x="538" 
d="M515 365l-257 -230h228l-18 -135h-478l17 135h-1l258 230h-217l18 135h466l-17 -135h1z" />
    <glyph glyph-name="braceleft" unicode="{" horiz-adv-x="366" 
d="M396 767l-15.998 -127.001c-23.333 0 -39.5 -2.5 -48.5 -7.5s-14.5 -16.5 -16.5 -34.5l-18 -125c-5.33301 -46 -17.333 -80.333 -36 -103s-52 -37.334 -100 -44.001c76.667 -22 109.667 -71 99 -147l-24 -174c-2 -14 1 -24.5 9 -31.5s23 -10.5 45 -10.5l-6 -129
c-92 -14 -158.833 -6.16699 -200.5 23.5s-58.5 72.167 -50.5 127.5l31 222c0.666992 5.33301 1 10.166 1 14.499s-0.166992 8 -0.5 11s-1.5 5.66699 -3.5 8l-5 6c-1.33301 1.66699 -3.66602 3.33398 -6.99902 5.00098l-8 4c-2 1 -5.5 2.33301 -10.5 4
s-8.83301 3.16699 -11.5 4.5l16 130c12.667 4 21.167 6.83301 25.5 8.5s9.66602 4.83398 15.999 9.50098s10.666 10.834 12.999 18.501s4.5 17.834 6.5 30.501l23 165c7.33301 55.333 33.666 96.166 78.999 122.499s111.333 32.5 198 18.5z" />
    <glyph glyph-name="bar" unicode="|" horiz-adv-x="276" 
d="M146 -169h-146l134 950h146z" />
    <glyph glyph-name="braceright" unicode="}" horiz-adv-x="365" 
d="M82 640l5.99902 128.999c92 14 158.833 6.16699 200.5 -23.5s58.834 -72.167 51.501 -127.5l-24 -165c-1.33301 -7.33301 -2.16602 -13.666 -2.49902 -18.999s0.166992 -10 1.5 -14s2.16602 -7 2.49902 -9s2.5 -4.16699 6.5 -6.5s6.66699 -3.83301 8 -4.5
s5.16602 -2 11.499 -4s10.833 -3.33301 13.5 -4l-17 -130c-12.667 -4.66699 -21.167 -8 -25.5 -10s-10 -5.33301 -17 -10s-12 -10.334 -15 -17.001s-5.16699 -15.334 -6.5 -26.001l-31 -222c-8 -55.333 -34.667 -96.166 -80 -122.499s-111 -32.5 -197 -18.5l16 127
c16.667 0 28.5 0.5 35.5 1.5s13.167 4.33301 18.5 10s8.66602 14.834 9.99902 27.501l26 185c6 38.667 18.833 69.167 38.5 91.5s53.5 39.5 101.5 51.5c-41.333 6 -69.166 21.5 -83.499 46.5s-18.166 59.833 -11.499 104.5l19 125c2 13.333 -1 22.333 -9 27s-23.667 7 -47 7
z" />
    <glyph glyph-name="asciitilde" unicode="~" horiz-adv-x="500" 
d="M119 203l-84 8.00098c-2.66699 56 5.33301 97.5 24 124.5s42.667 40.5 72 40.5c14 0 35 -3 63 -9s57.667 -13.333 89 -22s47.666 -13 48.999 -13c16.667 -3.33301 28.167 -1.5 34.5 5.5s10.833 19.5 13.5 37.5l84 -8c2 -54.667 -5.5 -95.834 -22.5 -123.501
s-41.167 -41.5 -72.5 -41.5c-15.333 0 -37.166 3.16699 -65.499 9.5s-57 13.333 -86 21l-51.5 13.5c-16 3.33301 -27.167 1.5 -33.5 -5.5s-10.833 -19.5 -13.5 -37.5z" />
    <glyph glyph-name="uni00A0" unicode="&#xa0;" horiz-adv-x="210" 
 />
    <glyph glyph-name="exclamdown" unicode="&#xa1;" horiz-adv-x="312" 
d="M162 520h39.9971c24 0 42.333 -6.5 55 -19.5s17.334 -31.833 14.001 -56.5l-6 -41c-3.33301 -24 -11.166 -41.333 -23.499 -52s-31.166 -16 -56.499 -16h-40c-52 0 -75 25.333 -69 76l5 41c6.66699 45.333 33.667 68 81 68zM226.997 59l-32 -234h-208l32 234l55 234h164z
" />
    <glyph glyph-name="cent" unicode="&#xa2;" horiz-adv-x="538" 
d="M510 444l-173.002 0.000976562c-27.333 0 -46.5 -6.66699 -57.5 -20s-19.167 -38 -24.5 -74c-6 -40.667 -5 -67.334 3 -80.001s26 -19 54 -19c68.667 0 123.667 2.33301 165 7l14 -133c-45.333 -22.667 -105 -35.667 -179 -39l-23 -86h-155l26 100
c-101.333 32.667 -142.666 118 -123.999 256c12 88.667 37.333 152.667 76 192s99.334 60.333 182.001 63l21 79h156l-24 -91c35.333 -6.66699 66 -15.667 92 -27z" />
    <glyph glyph-name="sterling" unicode="&#xa3;" horiz-adv-x="596" 
d="M579 538l-185.998 0.000976562c-20 0 -34.167 -3 -42.5 -9s-12.833 -17.333 -13.5 -34l-3 -81h147l-19 -100h-131l-1 -14c-0.666992 -26.667 -6.16699 -49.834 -16.5 -69.501s-20.833 -34 -31.5 -43s-26 -20.167 -46 -33.5c23.333 8.66699 50.666 13 81.999 13h232
l-22 -167h-529l18 169c63.333 28.667 96.666 75 99.999 139v6h-75l12 100h69l5 99c6 74.667 26.5 125 61.5 151s92.5 39 172.5 39c71.333 0 150 -3.33301 236 -10z" />
    <glyph glyph-name="currency" unicode="&#xa4;" horiz-adv-x="570" 
d="M566 511l-77 -70c11.333 -30.667 14.666 -63 9.99902 -97c-5.33301 -36 -17.333 -67.667 -36 -95l63 -68l-92 -83l-63 69c-32 -16 -64.333 -24 -97 -24c-38 0 -72.333 9 -103 27l-67 -61l-83 91l72 65c-11.333 30.667 -14.666 62.334 -9.99902 95.001
c4.66699 33.333 17.334 65.666 38.001 96.999l-62 68l93 83l63 -70c29.333 15.333 60.666 23 93.999 23c38 0 71.667 -8.66699 101 -26l73 67zM200 355c-4 -28 2.16699 -50.666 18.5 -67.999s37.166 -26 62.499 -26c26.667 0 49.334 8.16699 68.001 24.5
s30 38.166 34 65.499c4 28 -1.83301 50.667 -17.5 68s-36.5 26 -62.5 26c-29.333 0 -52.833 -8 -70.5 -24s-28.5 -38 -32.5 -66z" />
    <glyph glyph-name="yen" unicode="&#xa5;" horiz-adv-x="705" 
d="M544 368l69 0.000976562l-15 -110h-505l13 110h76l-108 322h216l53 -221c5.33301 -26.667 7.33301 -60.334 6 -101.001h15c3.33301 32 13.333 65 30 99l116 223h231zM87 228.001h507l-15 -110h-145l-16 -118h-218l17 118h-143z" />
    <glyph glyph-name="brokenbar" unicode="&#xa6;" horiz-adv-x="279" 
d="M225 381h-146l57 400h146zM148 -169h-146l56 400h146z" />
    <glyph glyph-name="section" unicode="&#xa7;" horiz-adv-x="540" 
d="M267 297l-122 82.001c-18 13.333 -32.167 25.5 -42.5 36.5s-19.666 28 -27.999 51s-10.5 49.167 -6.5 78.5c4 32.667 13.333 60 28 82s34 38.333 58 49s48.333 18 73 22s53.667 6 87 6c84 0 160.667 -4 230 -12l-22 -142c-19.333 1.33301 -71.333 1.66602 -156 0.999023
c-26.667 0 -45.334 -2 -56.001 -6s-16.334 -11.667 -17.001 -23c-1.33301 -15.333 10.334 -30 35.001 -44l83 -48c54.667 -28.667 86 -63.667 94 -105s-4.33301 -92 -37 -152l-145 8c4.66699 34.667 4 57.667 -2 69s-24 27 -54 47zM61 334.001l144.999 -8.00195
c-4.66699 -35.333 -4 -58.666 2 -69.999s24 -26.666 54 -45.999l122 -76c0.666992 -0.666992 4.16699 -3 10.5 -7s10.666 -6.83301 12.999 -8.5s6.5 -5 12.5 -10s10.5 -9.66699 13.5 -14l11.5 -17c4.66699 -7 8 -14.167 10 -21.5s4 -15.833 6 -25.5
s2.83301 -20.334 2.5 -32.001s-1.5 -24.167 -3.5 -37.5c-8.66699 -61.333 -32 -103 -70 -125s-95.667 -33 -173 -33c-91.333 0 -168.666 4.33301 -231.999 13l22 141c12 0 33 -0.333008 63 -1s53.667 -1 71 -1c33.333 0 56.833 1.83301 70.5 5.5
s21.834 11.834 24.501 24.501c2.66699 14 -5.33301 26.333 -24 37l-94 55c-54.667 28.667 -86 63.667 -94 105s4.33301 92 37 152z" />
    <glyph glyph-name="dieresis" unicode="&#xa8;" horiz-adv-x="436" 
d="M151 720h77.001c24 0 34 -11 30 -33l-11 -76c-2.66699 -21.333 -14.334 -32 -35.001 -32h-81c-24 0 -34 11 -30 33l11 73c2.66699 23.333 15.667 35 39 35zM337.001 720h79.998c24 0 34 -11 30 -33l-11 -75c-1.33301 -12 -4.66602 -20.5 -9.99902 -25.5
s-13.666 -7.5 -24.999 -7.5h-81c-24 0 -34 11 -30 33l11 74c3.33301 22.667 15.333 34 36 34z" />
    <glyph glyph-name="copyright" unicode="&#xa9;" horiz-adv-x="787" 
d="M430 704c112 0 198.498 -33.335 259.498 -100.002s85.833 -155.667 74.5 -267c-11.333 -107.333 -51.666 -192.666 -120.999 -255.999s-159 -95 -269 -95c-111.333 0 -198.166 32.5 -260.499 97.5s-87.5 154.833 -75.5 269.5c12 108.667 53.333 194.334 124 257.001
s160 94 268 94zM432.998 610.998c-84 0 -152.332 -24.168 -204.999 -72.501s-82.667 -115.5 -90 -201.5c-6.66699 -80 9.66602 -143 48.999 -189s100 -69 182 -69c82.667 0 150.5 23.833 203.5 71.5s83.5 115.167 91.5 202.5c7.33301 80.667 -9 143.834 -49 189.501
s-100.667 68.5 -182 68.5zM525.999 278.997l9.00098 -109.002c-40.667 -13.333 -86 -20 -136 -20c-76.667 0 -129.167 15.333 -157.5 46s-37.833 83.334 -28.5 158.001c8.66699 70.667 29.167 119.5 61.5 146.5s84.833 40.5 157.5 40.5c46.667 0 90.667 -5.66699 132 -17
l-15 -108h-132c-16 0 -27.333 -4.33301 -34 -13s-11.334 -27 -14.001 -55c-3.33301 -30 -3 -49.167 1 -57.5s14 -13.166 30 -14.499c36 -2 78 -1 126 3z" />
    <glyph glyph-name="ordfeminine" unicode="&#xaa;" horiz-adv-x="449" 
d="M284 280l-2.00293 64c-26.667 -44 -67.667 -68 -123 -72c-50.667 -3.33301 -83.5 10.5 -98.5 41.5s-17.833 77.833 -8.5 140.5c4.66699 30.667 11.834 56.167 21.501 76.5s20.334 36.333 32.001 48s27.5 20.5 47.5 26.5s38.833 9.66699 56.5 11s41.5 2 71.5 2
c74.667 0.666992 129.334 -6.33301 164.001 -21l-45 -317h-116zM287.997 525h-27c-13.333 0 -24.333 -4.5 -33 -13.5s-15.334 -27.167 -20.001 -54.5c-5.33301 -31.333 -7.33301 -51.833 -6 -61.5s7.33301 -14.167 18 -13.5c16.667 1.33301 34.334 16.333 53.001 45z" />
    <glyph glyph-name="guillemotleft" unicode="&#xab;" horiz-adv-x="554" 
d="M296 400l-88 -149l62 -154l-110 -72l-142 202l3 45l162 198zM530 400l-88 -149l62 -154l-110 -72l-142 202l3 45l162 198z" />
    <glyph glyph-name="logicalnot" unicode="&#xac;" horiz-adv-x="569" 
d="M534 387l-36 -249h-166l14 95h-315l23 154h480z" />
    <glyph glyph-name="softhyphen" unicode="&#xad;" horiz-adv-x="384" 
d="M323 196h-291l18 122h291z" />
    <glyph glyph-name="registered" unicode="&#xae;" horiz-adv-x="494" 
d="M303 704c62 0 111.667 -21.666 149 -64.999s51.333 -98.333 42 -165c-10 -64.667 -37.167 -116.667 -81.5 -156s-100.5 -59 -168.5 -59c-62.667 0 -112.667 21.667 -150 65s-51.333 98.666 -42 165.999c10 64.667 37.167 116.5 81.5 155.5s100.833 58.5 169.5 58.5z
M439 490.001c6 48 -4.66895 87.168 -32.002 117.501s-63.333 45.5 -108 45.5c-54 0 -97.667 -16 -131 -48s-53.666 -75.667 -60.999 -131c-6 -48.667 4.83301 -88.167 32.5 -118.5s63.834 -45.5 108.501 -45.5c54 0 97.667 16.167 131 48.5s53.333 76.166 60 131.499z
M160.998 383.002l29 208c20 2 50.333 3 91 3c40 0 68.667 -5.33301 86 -16s24 -27.667 20 -51c-3.33301 -26.667 -20 -41.667 -50 -45l-1 -2c20 -1.33301 31.333 -14 34 -38l6 -59h-89v61c0 6.66699 -3.33301 10 -10 10h-21l-10 -71h-85zM262.998 505.002h19
c12 0 18.667 4.66699 20 14c2 10.667 -2 16 -12 16h-23z" />
    <glyph glyph-name="macron" unicode="&#xaf;" horiz-adv-x="400" 
d="M408 590h-320l17 123h320z" />
    <glyph glyph-name="degree" unicode="&#xb0;" horiz-adv-x="332" 
d="M210 698c40.667 0 75 -13.501 103 -40.501s39.333 -61.5 34 -103.5c-5.33301 -39.333 -21.5 -70.666 -48.5 -93.999s-61.833 -35 -104.5 -35c-42 0 -76.333 13.5 -103 40.5s-37 61.833 -31 104.5c5.33301 38.667 21 69.667 47 93s60.333 35 103 35zM206 609.999
c-30 0 -46.667 -15.333 -50 -46c-2 -16 1 -28.5 9 -37.5s19.667 -13.5 35 -13.5c30.667 0 47.667 15.667 51 47c1.33301 14.667 -2 26.667 -10 36s-19.667 14 -35 14z" />
    <glyph glyph-name="plusminus" unicode="&#xb1;" horiz-adv-x="555" 
d="M538 465l-23 -154h-158l-15 -107h-152l15 107h-158l22 154h158l15 108h153l-16 -108h159zM28 174h468l-22 -155h-469z" />
    <glyph glyph-name="twosuperior" unicode="&#xb2;" horiz-adv-x="431" 
d="M103 658l-0.000976562 112.002c45.333 7.33301 97.333 11 156 11c30.667 0 56.5 -1.5 77.5 -4.5s40.667 -8.66699 59 -17s31 -21.166 38 -38.499s8.5 -39.333 4.5 -66c-5.33301 -32.667 -29.666 -63.334 -72.999 -92.001l-112 -76
c18.667 5.33301 37.667 7.66602 57 6.99902l113 -3l-18 -131h-358l12 83c4.66699 31.333 12.667 52.333 24 63l87 63c52 35.333 82.667 57.333 92 66c6 5.33301 7.5 10.166 4.5 14.499s-8.5 6.5 -16.5 6.5c-54.667 0 -103.667 0.666992 -147 2z" />
    <glyph glyph-name="threesuperior" unicode="&#xb3;" horiz-adv-x="407" 
d="M105 662l-1.99902 110c51.333 7.33301 103.666 11 156.999 11c64.667 0 108.667 -7.83301 132 -23.5s32.666 -42.834 27.999 -81.501c-7.33301 -59.333 -38.666 -91.666 -93.999 -96.999l-1 -3c63.333 -7.33301 90.333 -44.333 81 -111
c-4.66699 -37.333 -21.167 -66 -49.5 -86s-75.5 -30 -141.5 -30c-45.333 0 -101.333 4.33301 -168 13l8 112c24 -0.666992 70 -1 138 -1c34 0 52.333 10.333 55 31c0.666992 7.33301 -0.5 12.333 -3.5 15s-9.16699 4 -18.5 4h-102l13 94h100c10 0 17.167 2 21.5 6
s6.5 11 6.5 21c0 9.33301 -8.33301 14 -25 14c-48 0 -93 0.666992 -135 2z" />
    <glyph glyph-name="acute" unicode="&#xb4;" horiz-adv-x="392" 
d="M403 607l-266 -96l-47 86l247 156z" />
    <glyph glyph-name="paragraph" unicode="&#xb6;" horiz-adv-x="595" 
d="M560 568l-79.999 -567.999h-125l81 578l-32 1l-111 -789h-125l58 412c-73.333 8.66699 -125.333 35.667 -156 81s-40.667 103.666 -30 174.999c13.333 90 45.666 153.167 96.999 189.5s133 54.5 245 54.5c75.333 0 140 -5.66699 194 -17z" />
    <glyph glyph-name="periodcentered" unicode="&#xb7;" horiz-adv-x="262" 
d="M115 351h39.9971c24 0 42.333 -6.5 55 -19.5s17.334 -31.833 14.001 -56.5l-6 -41c-3.33301 -24 -11.166 -41.333 -23.499 -52s-31.166 -16 -56.499 -16h-40c-52 0 -75 25.333 -69 76l5 41c6.66699 45.333 33.667 68 81 68z" />
    <glyph glyph-name="cedilla" unicode="&#xb8;" horiz-adv-x="263" 
d="M8 -105l18.001 72.001c54 10 97.833 10 131.5 0s47.167 -34.333 40.5 -73c-9.33301 -53.333 -37 -91.833 -83 -115.5s-101 -31.167 -165 -22.5l21 77c59.333 0 92.333 15.333 99 46c0 2 0.166992 3.83301 0.5 5.5s-0.333984 3.16699 -2.00098 4.5s-3.66699 2.33301 -6 3
s-6 1.16699 -11 1.5s-11 0.666016 -18 0.999023s-15.5 0.5 -25.5 0.5z" />
    <glyph glyph-name="onesuperior" unicode="&#xb9;" horiz-adv-x="321" 
d="M283 360h-159l34 235c4 25.333 8.66699 45.333 14 60l-99 -18l-6 98l115 39h160z" />
    <glyph glyph-name="ordmasculine" unicode="&#xba;" horiz-adv-x="434" 
d="M251 623c70.667 0 120 -14.5 148 -43.5s37.333 -76.833 28 -143.5c-8.66699 -62.667 -27.667 -106.167 -57 -130.5s-77.333 -36.5 -144 -36.5c-70 0 -119.333 14.167 -148 42.5s-38.667 75.166 -30 140.499c8.66699 62.667 28.5 106.834 59.5 132.501
s78.833 38.5 143.5 38.5zM249 521c-13.333 0 -23.001 -5.66699 -29.001 -17s-11.333 -34 -16 -68c-4 -18.667 -4.5 -34.334 -1.5 -47.001s11.167 -19 24.5 -19s22.833 5.5 28.5 16.5s10.834 32.833 15.501 65.5c3.33301 30.667 3.5 49.834 0.5 57.501s-10.5 11.5 -22.5 11.5
z" />
    <glyph glyph-name="guillemotright" unicode="&#xbb;" horiz-adv-x="555" 
d="M12 97l88 149l-62 154l110 72l142 -202l-3 -45l-162 -198zM246 97l88 149l-62 154l110 72l142 -202l-3 -45l-162 -198z" />
    <glyph glyph-name="onequarter" unicode="&#xbc;" horiz-adv-x="957" 
d="M119 276l33 235c4 25.333 8.66699 45.333 14 60l-90 -18l-6 98l107 39h160l-59 -414h-159zM744 690l-483 -690h-133l483 690h133zM915 176l-11 -86l-47 -13h-1l-11 -77h-140l11 77h-170c-22.667 0 -38.167 9 -46.5 27s-7.5 35.333 2.5 52l133 258h143l-108 -224
c-4 -9.33301 -1.66699 -14 7 -14h52l12 86l34 69h117l-22 -155h45z" />
    <glyph glyph-name="onehalf" unicode="&#xbd;" horiz-adv-x="945" 
d="M278 276h-160l33 235c4 25.333 8.66699 45.333 14 60l-90 -18l-5 98l106 39h161zM260 0h-133l483 690h132zM577 298l0.000976562 112.003c44 7.33301 94.667 11 152 11c64 0 111.667 -8.5 143 -25.5s42.666 -50.5 33.999 -100.5c-6 -32.667 -29.333 -63.334 -70 -92.001
l-110 -76c19.333 5.33301 38 7.66602 56 6.99902l110 -3l-18 -131h-354l12 83c4.66699 30.667 13 51.667 25 63l83 63c51.333 36 81 58 89 66c6 5.33301 8 10.166 6 14.499s-6.66699 6.5 -14 6.5c-54 0 -102 0.666992 -144 2z" />
    <glyph glyph-name="threequarters" unicode="&#xbe;" horiz-adv-x="1006" 
d="M309 497l-0.99707 -3c61.333 -7.33301 88 -44.333 80 -111c-4.66699 -37.333 -20.834 -66 -48.501 -86s-73.834 -30 -138.501 -30c-46 0 -101.333 4.33301 -166 13l8 112c24 -0.666992 69 -1 135 -1c32 0 49.333 10.333 52 31
c1.33301 7.33301 0.666016 12.333 -2.00098 15s-8.33398 4 -17.001 4l-100 2l13 92h98c9.33301 0 15.833 2 19.5 6s5.5 11 5.5 21c0 9.33301 -7 14 -21 14c-47.333 0 -92 0.666992 -134 2l-2 110c51.333 7.33301 103 11 155 11c64 0 107.667 -7.83301 131 -23.5
s32.333 -42.834 27 -81.501c-7.33301 -59.333 -38.666 -91.666 -93.999 -96.999zM813.003 690l-482 -690h-132l481 690h133zM968.003 178l-10.999 -86l-46 -13h-2l-11 -77h-139l11 77h-169c-22.667 0 -38.334 9 -47.001 27s-8 35.333 2 52l133 258h143l-109 -224
c-4 -9.33301 -1.66699 -14 7 -14h53l12 84l33 71h117l-22 -155h45z" />
    <glyph glyph-name="questiondown" unicode="&#xbf;" horiz-adv-x="535" 
d="M289 518h40.9971c24 0 42.333 -6.5 55 -19.5s17.334 -31.833 14.001 -56.5l-6 -41c-2.66699 -24 -10.167 -41.333 -22.5 -52s-31.166 -16 -56.499 -16h-41c-52 0 -75 25.333 -69 76l5 41c6.66699 45.333 33.334 68 80.001 68zM200.997 290l164.003 -0.00390625
c-3.33301 -39.333 -12.5 -76 -27.5 -110s-30.5 -60.167 -46.5 -78.5s-33 -36.666 -51 -54.999s-29.333 -31.5 -34 -39.5c-13.333 -23.333 -1.66602 -35 35.001 -35h213l-2 -139c-4.66699 -0.666992 -15.667 -2.66699 -33 -6s-28.333 -5.5 -33 -6.5
s-14.167 -2.66699 -28.5 -5s-25.833 -3.66602 -34.5 -3.99902s-20.334 -1.16602 -35.001 -2.49902s-29.834 -2.16602 -45.501 -2.49902s-33.167 -0.5 -52.5 -0.5c-80 0 -137.833 13.5 -173.5 40.5s-49.834 67.833 -42.501 122.5c3.33301 26 12.166 49.5 26.499 70.5
s30.833 39.5 49.5 55.5l57.5 48.5c19.667 16.333 38.167 37 55.5 62s30 53.167 38 84.5z" />
    <glyph glyph-name="Agrave" unicode="&#xc0;" horiz-adv-x="678" 
d="M442 720l-248 106l80 130l235 -150zM418 146l-187.998 0.000976562l-54 -146h-225l266 638c13.333 34.667 38.666 52 75.999 52h196c17.333 0 32.666 -5.83301 45.999 -17.5s21 -25.834 23 -42.501l89 -630h-217zM406.002 304.001l-11.999 149
c-2 17.333 -2.33301 43 -1 77h-28c-4.66699 -27.333 -11.334 -52.333 -20.001 -75l-56 -151h117z" />
    <glyph glyph-name="Aacute" unicode="&#xc1;" horiz-adv-x="678" 
d="M354 720l-47 86l247 156l66 -146zM418 146l-187.998 0.000976562l-54 -146h-225l266 638c13.333 34.667 38.666 52 75.999 52h196c17.333 0 32.666 -5.83301 45.999 -17.5s21 -25.834 23 -42.501l89 -630h-217zM406.002 304.001l-11.999 149c-2 17.333 -2.33301 43 -1 77
h-28c-4.66699 -27.333 -11.334 -52.333 -20.001 -75l-56 -151h117z" />
    <glyph glyph-name="Acircumflex" unicode="&#xc2;" horiz-adv-x="678" 
d="M236 719l-48 72l150 136h141l131 -140l-55 -68l-147 94h-8zM418 146l-187.998 0.000976562l-54 -146h-225l266 638c13.333 34.667 38.666 52 75.999 52h196c17.333 0 32.666 -5.83301 45.999 -17.5s21 -25.834 23 -42.501l89 -630h-217zM406.002 304.001l-11.999 149
c-2 17.333 -2.33301 43 -1 77h-28c-4.66699 -27.333 -11.334 -52.333 -20.001 -75l-56 -151h117z" />
    <glyph glyph-name="Atilde" unicode="&#xc3;" horiz-adv-x="678" 
d="M295 747l-85.0029 7.99805c-1.33301 54.667 6.83398 95.834 24.501 123.501s42.167 41.5 73.5 41.5c20 0 51.5 -7.33301 94.5 -22s64.833 -22 65.5 -22c16 -4 27.333 -2.33301 34 5s11 20 13 38l85 -8c2.66699 -55.333 -4.66602 -96.666 -21.999 -123.999
s-41.666 -41 -72.999 -41c-20.667 0 -52 7.16699 -94 21.5s-65.333 21.833 -70 22.5c-16 3.33301 -27 1.5 -33 -5.5s-10.333 -19.5 -13 -37.5zM417.997 145.998l-187.998 0.000976562l-54 -146h-225l266 638c13.333 34.667 38.666 52 75.999 52h196
c17.333 0 32.666 -5.83301 45.999 -17.5s21 -25.834 23 -42.501l89 -630h-217zM405.999 303.999l-11.999 149c-2 17.333 -2.33301 43 -1 77h-28c-4.66699 -27.333 -11.334 -52.333 -20.001 -75l-56 -151h117z" />
    <glyph glyph-name="Adieresis" unicode="&#xc4;" horiz-adv-x="678" 
d="M348 763h-80.999c-24 0 -34 11 -30 33l11 73c2.66699 23.333 15.667 35 39 35h77c24 0 34 -11 30 -33l-11 -76c-2.66699 -21.333 -14.334 -32 -35.001 -32zM537.001 763h-81.002c-24 0 -34 11 -30 33l11 74c3.33301 22.667 15.333 34 36 34h80c24 0 34 -11 30 -33
l-11 -75c-1.33301 -12 -4.66602 -20.5 -9.99902 -25.5s-13.666 -7.5 -24.999 -7.5zM417.999 146l-187.998 0.000976562l-54 -146h-225l266 638c13.333 34.667 38.666 52 75.999 52h196c17.333 0 32.666 -5.83301 45.999 -17.5s21 -25.834 23 -42.501l89 -630h-217z
M406.001 304.001l-11.999 149c-2 17.333 -2.33301 43 -1 77h-28c-4.66699 -27.333 -11.334 -52.333 -20.001 -75l-56 -151h117z" />
    <glyph glyph-name="Aring" unicode="&#xc5;" horiz-adv-x="678" 
d="M407 717c-38 0 -69 12.667 -93 38s-33.667 55.666 -29 90.999c4 32 18 58.833 42 80.5s54.333 32.5 91 32.5c37.333 0 68.333 -12.667 93 -38s34.667 -55.666 30 -90.999c-4 -32 -18 -58.833 -42 -80.5s-54.667 -32.5 -92 -32.5zM368 841
c-1.33301 -14.667 1.66797 -26.5 9.00098 -35.5s18 -13.5 32 -13.5s25.5 4.5 34.5 13.5s13.833 20.833 14.5 35.5c0.666992 12.667 -3 23 -11 31s-18.667 12 -32 12c-12.667 0 -23.334 -4 -32.001 -12s-13.667 -18.333 -15 -31zM418.001 146l-187.998 0.000976562l-54 -146
h-225l266 638c13.333 34.667 38.666 52 75.999 52h196c17.333 0 32.666 -5.83301 45.999 -17.5s21 -25.834 23 -42.501l89 -630h-217zM406.003 304.001l-11.999 149c-2 17.333 -2.33301 43 -1 77h-28c-4.66699 -27.333 -11.334 -52.333 -20.001 -75l-56 -151h117z" />
    <glyph glyph-name="AE" unicode="&#xc6;" horiz-adv-x="956" 
d="M951 531h-229.999c-16.667 0 -28.5 -2.83301 -35.5 -8.5s-11.5 -16.167 -13.5 -31.5l-10 -71h238l-16 -134h-242l-13 -87c-3.33301 -26.667 8.66699 -40 36 -40h232l-3 -151c-64.667 -8 -176.334 -12 -335.001 -12c-48 0 -84.333 15 -109 45s-33.667 68.333 -27 115h-169
l-87 -156h-225l315 538c23.333 39.333 47.833 69.5 73.5 90.5s61.667 36.833 108 47.5s107.833 16 184.5 16c156 0 274 -3.66699 354 -11zM343.001 314h102l26 188c3.33301 19.333 10.333 40 21 62h-11l-12.5 -25c-7 -14 -11.833 -23 -14.5 -27z" />
    <glyph glyph-name="Ccedilla" unicode="&#xc7;" horiz-adv-x="603" 
d="M545 179l8.00195 -158.998c-68.667 -21.333 -148.334 -32 -239.001 -32c-116.667 0 -196 27.167 -238 81.5s-53.667 148.833 -35 283.5c10 70.667 22.833 128 38.5 172s37.5 79.5 65.5 106.5s61.167 45.5 99.5 55.5s87.166 15 146.499 15c85.333 0 161 -9.33301 227 -28
l-25 -157c-97.333 1.33301 -168.333 2 -213 2c-25.333 0 -44.333 -3.83301 -57 -11.5s-23.334 -24.334 -32.001 -50.001s-16.667 -65.834 -24 -120.501c-10 -68 -12 -112.667 -6 -134s27 -32 63 -32c90.667 0 164.334 2.66699 221.001 8zM182.002 -136.998l18.001 72.001
c54 10 97.833 10 131.5 0s47.167 -34.333 40.5 -73c-9.33301 -53.333 -37 -91.833 -83 -115.5s-101 -31.167 -165 -22.5l21 77c59.333 0 92.333 15.333 99 46c0 2 0.166992 3.83301 0.5 5.5s-0.333984 3.16699 -2.00098 4.5s-3.66699 2.33301 -6 3s-6 1.16699 -11 1.5
s-11 0.666016 -18 0.999023s-15.5 0.5 -25.5 0.5z" />
    <glyph glyph-name="Egrave" unicode="&#xc8;" horiz-adv-x="587" 
d="M424 720l-248 106l80 130l235 -150zM583 528l-240.002 0.000976562c-17.333 0 -29.666 -3 -36.999 -9s-12 -16.333 -14 -31l-9 -63h249l-18 -144h-251l-11 -80c-4 -26 8.33301 -39 37 -39h240l-4 -154c-59.333 -8 -172 -12 -338 -12c-56 0 -97.667 17.333 -125 52
s-37.333 80 -30 136l50 357c6.66699 47.333 25.334 84.666 56.001 111.999s71 41 121 41c165.333 0 281.333 -4.66699 348 -14z" />
    <glyph glyph-name="Eacute" unicode="&#xc9;" horiz-adv-x="587" 
d="M336 720l-47 86l247 156l66 -146zM583 528l-240.002 0.000976562c-17.333 0 -29.666 -3 -36.999 -9s-12 -16.333 -14 -31l-9 -63h249l-18 -144h-251l-11 -80c-4 -26 8.33301 -39 37 -39h240l-4 -154c-59.333 -8 -172 -12 -338 -12c-56 0 -97.667 17.333 -125 52
s-37.333 80 -30 136l50 357c6.66699 47.333 25.334 84.666 56.001 111.999s71 41 121 41c165.333 0 281.333 -4.66699 348 -14z" />
    <glyph glyph-name="Ecircumflex" unicode="&#xca;" horiz-adv-x="587" 
d="M218 719l-48 72l150 136h141l131 -140l-55 -68l-147 94h-8zM583 528l-240.002 0.000976562c-17.333 0 -29.666 -3 -36.999 -9s-12 -16.333 -14 -31l-9 -63h249l-18 -144h-251l-11 -80c-4 -26 8.33301 -39 37 -39h240l-4 -154c-59.333 -8 -172 -12 -338 -12
c-56 0 -97.667 17.333 -125 52s-37.333 80 -30 136l50 357c6.66699 47.333 25.334 84.666 56.001 111.999s71 41 121 41c165.333 0 281.333 -4.66699 348 -14z" />
    <glyph glyph-name="Edieresis" unicode="&#xcb;" horiz-adv-x="587" 
d="M330 763h-80.999c-24 0 -34 11 -30 33l11 73c2.66699 23.333 15.667 35 39 35h77c24 0 34 -11 30 -33l-11 -76c-2.66699 -21.333 -14.334 -32 -35.001 -32zM519.001 763h-81.002c-24 0 -34 11 -30 33l11 74c3.33301 22.667 15.333 34 36 34h80c24 0 34 -11 30 -33
l-11 -75c-1.33301 -12 -4.66602 -20.5 -9.99902 -25.5s-13.666 -7.5 -24.999 -7.5zM582.999 528l-240.002 0.000976562c-17.333 0 -29.666 -3 -36.999 -9s-12 -16.333 -14 -31l-9 -63h249l-18 -144h-251l-11 -80c-4 -26 8.33301 -39 37 -39h240l-4 -154
c-59.333 -8 -172 -12 -338 -12c-56 0 -97.667 17.333 -125 52s-37.333 80 -30 136l50 357c6.66699 47.333 25.334 84.666 56.001 111.999s71 41 121 41c165.333 0 281.333 -4.66699 348 -14z" />
    <glyph glyph-name="Igrave" unicode="&#xcc;" horiz-adv-x="322" 
d="M336 806l-67 -86l-248 106l80 130zM228 0h-216l97 690h216z" />
    <glyph glyph-name="Iacute" unicode="&#xcd;" horiz-adv-x="322" 
d="M447 816l-266 -96l-47 86l247 156zM228 0h-216l97 690h216z" />
    <glyph glyph-name="Icircumflex" unicode="&#xce;" horiz-adv-x="322" 
d="M437 787l-55 -68l-147 94h-8l-164 -94l-48 72l150 136h141zM228 0h-216l97 690h216z" />
    <glyph glyph-name="Idieresis" unicode="&#xcf;" horiz-adv-x="322" 
d="M114 904h77.001c24 0 34 -11 30 -33l-11 -76c-2.66699 -21.333 -14.334 -32 -35.001 -32h-81c-24 0 -34 11 -30 33l11 73c2.66699 23.333 15.667 35 39 35zM300.001 904h79.998c24 0 34 -11 30 -33l-11 -75c-1.33301 -12 -4.66602 -20.5 -9.99902 -25.5
s-13.666 -7.5 -24.999 -7.5h-81c-24 0 -34 11 -30 33l11 74c3.33301 22.667 15.333 34 36 34zM227.999 0h-216l97 690h216z" />
    <glyph glyph-name="Eth" unicode="&#xd0;" 
d="M69 413l39.002 277.001c85.333 6.66699 179 10 281 10c78 0 139.167 -10.333 183.5 -31s75.666 -57.834 93.999 -111.501s20.833 -127.167 7.5 -220.5c-10 -70.667 -22.833 -127.667 -38.5 -171s-37.5 -78.5 -65.5 -105.5s-61.333 -45.5 -100 -55.5
s-88.334 -15 -149.001 -15c-104.667 0 -208 3.33301 -310 10l44 313h-47l14 100h47zM249.002 148.001l69 -1c36.667 0 64.5 13.833 83.5 41.5s33.833 82.5 44.5 164.5c10.667 77.333 12.167 128.333 4.5 153s-30.5 37 -68.5 37h-78l-18 -130h87l-14 -100h-87z" />
    <glyph glyph-name="Ntilde" unicode="&#xd1;" horiz-adv-x="730" 
d="M320 747l-85.0029 7.99805c-1.33301 54.667 6.83398 95.834 24.501 123.501s42.167 41.5 73.5 41.5c20 0 51.5 -7.33301 94.5 -22s64.833 -22 65.5 -22c16 -4 27.333 -2.33301 34 5s11 20 13 38l85 -8c2.66699 -55.333 -4.66602 -96.666 -21.999 -123.999
s-41.666 -41 -72.999 -41c-20.667 0 -52 7.16699 -94 21.5s-65.333 21.833 -70 22.5c-16 3.33301 -27 1.5 -33 -5.5s-10.333 -19.5 -13 -37.5zM733.997 689.998l-87 -619c-3.33301 -24.667 -11.333 -42.667 -24 -54s-31 -17 -55 -17h-72c-20.667 0 -35.834 5 -45.501 15
s-20.167 27.333 -31.5 52l-118 237c-12.667 24.667 -24.334 62.667 -35.001 114h-7c1.33301 -48 -0.666992 -90.667 -6 -128l-43 -290h-199l87 619c3.33301 24.667 11.333 42.667 24 54s31 17 55 17h72c10.667 0 19.834 -1.33301 27.501 -4s14.5 -7.83398 20.5 -15.501
s10.667 -14.167 14 -19.5s8 -14.666 14 -27.999l116 -225c17.333 -36 31.333 -75.667 42 -119h8c-3.33301 40 -2.66602 79 2.00098 117l42 294h199z" />
    <glyph glyph-name="Ograve" unicode="&#xd2;" 
d="M526 806l-67 -86l-248 106l80 130zM389 704c47.333 0 87.666 -3.5 120.999 -10.5s63 -19 89 -36s45.167 -39.5 57.5 -67.5s20.833 -62.833 25.5 -104.5s2.33398 -91.167 -6.99902 -148.5c-9.33301 -71.333 -22.666 -129.666 -39.999 -174.999s-40.666 -81 -69.999 -107
s-63 -44 -101 -54s-85.333 -15 -142 -15c-82 0 -144.833 10.833 -188.5 32.5s-73.334 59.167 -89.001 112.5s-16.834 127.333 -3.50098 222c10 70.667 23.333 128.5 40 173.5s39.5 80.667 68.5 107s62.167 44.666 99.5 54.999s84 15.5 140 15.5zM387 543
c-36 0 -61.499 -12.833 -76.499 -38.5s-29.167 -81.5 -42.5 -167.5c-12 -79.333 -14.167 -130.833 -6.5 -154.5s29.5 -35.5 65.5 -35.5c37.333 0 63.333 12.833 78 38.5s28.667 81.5 42 167.5c11.333 78.667 13.166 130 5.49902 154s-29.5 36 -65.5 36z" />
    <glyph glyph-name="Oacute" unicode="&#xd3;" 
d="M637 816l-266 -96l-47 86l247 156zM389 704c47.333 0 87.666 -3.5 120.999 -10.5s63 -19 89 -36s45.167 -39.5 57.5 -67.5s20.833 -62.833 25.5 -104.5s2.33398 -91.167 -6.99902 -148.5c-9.33301 -71.333 -22.666 -129.666 -39.999 -174.999s-40.666 -81 -69.999 -107
s-63 -44 -101 -54s-85.333 -15 -142 -15c-82 0 -144.833 10.833 -188.5 32.5s-73.334 59.167 -89.001 112.5s-16.834 127.333 -3.50098 222c10 70.667 23.333 128.5 40 173.5s39.5 80.667 68.5 107s62.167 44.666 99.5 54.999s84 15.5 140 15.5zM387 543
c-36 0 -61.499 -12.833 -76.499 -38.5s-29.167 -81.5 -42.5 -167.5c-12 -79.333 -14.167 -130.833 -6.5 -154.5s29.5 -35.5 65.5 -35.5c37.333 0 63.333 12.833 78 38.5s28.667 81.5 42 167.5c11.333 78.667 13.166 130 5.49902 154s-29.5 36 -65.5 36z" />
    <glyph glyph-name="Ocircumflex" unicode="&#xd4;" 
d="M627 787l-55 -68l-147 94h-8l-164 -94l-48 72l150 136h141zM389 704c47.333 0 87.666 -3.5 120.999 -10.5s63 -19 89 -36s45.167 -39.5 57.5 -67.5s20.833 -62.833 25.5 -104.5s2.33398 -91.167 -6.99902 -148.5c-9.33301 -71.333 -22.666 -129.666 -39.999 -174.999
s-40.666 -81 -69.999 -107s-63 -44 -101 -54s-85.333 -15 -142 -15c-82 0 -144.833 10.833 -188.5 32.5s-73.334 59.167 -89.001 112.5s-16.834 127.333 -3.50098 222c10 70.667 23.333 128.5 40 173.5s39.5 80.667 68.5 107s62.167 44.666 99.5 54.999s84 15.5 140 15.5z
M387 543c-36 0 -61.499 -12.833 -76.499 -38.5s-29.167 -81.5 -42.5 -167.5c-12 -79.333 -14.167 -130.833 -6.5 -154.5s29.5 -35.5 65.5 -35.5c37.333 0 63.333 12.833 78 38.5s28.667 81.5 42 167.5c11.333 78.667 13.166 130 5.49902 154s-29.5 36 -65.5 36z" />
    <glyph glyph-name="Otilde" unicode="&#xd5;" 
d="M312 747l-85.0029 7.99805c-1.33301 54.667 6.83398 95.834 24.501 123.501s42.167 41.5 73.5 41.5c20 0 51.5 -7.33301 94.5 -22s64.833 -22 65.5 -22c16 -4 27.333 -2.33301 34 5s11 20 13 38l85 -8c2.66699 -55.333 -4.66602 -96.666 -21.999 -123.999
s-41.666 -41 -72.999 -41c-20.667 0 -52 7.16699 -94 21.5s-65.333 21.833 -70 22.5c-16 3.33301 -27 1.5 -33 -5.5s-10.333 -19.5 -13 -37.5zM388.997 703.998c47.333 0 87.666 -3.5 120.999 -10.5s63 -19 89 -36s45.167 -39.5 57.5 -67.5s20.833 -62.833 25.5 -104.5
s2.33398 -91.167 -6.99902 -148.5c-9.33301 -71.333 -22.666 -129.666 -39.999 -174.999s-40.666 -81 -69.999 -107s-63 -44 -101 -54s-85.333 -15 -142 -15c-82 0 -144.833 10.833 -188.5 32.5s-73.334 59.167 -89.001 112.5s-16.834 127.333 -3.50098 222
c10 70.667 23.333 128.5 40 173.5s39.5 80.667 68.5 107s62.167 44.666 99.5 54.999s84 15.5 140 15.5zM386.997 542.998c-36 0 -61.499 -12.833 -76.499 -38.5s-29.167 -81.5 -42.5 -167.5c-12 -79.333 -14.167 -130.833 -6.5 -154.5s29.5 -35.5 65.5 -35.5
c37.333 0 63.333 12.833 78 38.5s28.667 81.5 42 167.5c11.333 78.667 13.166 130 5.49902 154s-29.5 36 -65.5 36z" />
    <glyph glyph-name="Odieresis" unicode="&#xd6;" 
d="M304 904h77.001c24 0 34 -11 30 -33l-11 -76c-2.66699 -21.333 -14.334 -32 -35.001 -32h-81c-24 0 -34 11 -30 33l11 73c2.66699 23.333 15.667 35 39 35zM490.001 904h79.998c24 0 34 -11 30 -33l-11 -75c-1.33301 -12 -4.66602 -20.5 -9.99902 -25.5
s-13.666 -7.5 -24.999 -7.5h-81c-24 0 -34 11 -30 33l11 74c3.33301 22.667 15.333 34 36 34zM388.999 704c47.333 0 87.666 -3.5 120.999 -10.5s63 -19 89 -36s45.167 -39.5 57.5 -67.5s20.833 -62.833 25.5 -104.5s2.33398 -91.167 -6.99902 -148.5
c-9.33301 -71.333 -22.666 -129.666 -39.999 -174.999s-40.666 -81 -69.999 -107s-63 -44 -101 -54s-85.333 -15 -142 -15c-82 0 -144.833 10.833 -188.5 32.5s-73.334 59.167 -89.001 112.5s-16.834 127.333 -3.50098 222c10 70.667 23.333 128.5 40 173.5
s39.5 80.667 68.5 107s62.167 44.666 99.5 54.999s84 15.5 140 15.5zM386.999 543c-36 0 -61.499 -12.833 -76.499 -38.5s-29.167 -81.5 -42.5 -167.5c-12 -79.333 -14.167 -130.833 -6.5 -154.5s29.5 -35.5 65.5 -35.5c37.333 0 63.333 12.833 78 38.5
s28.667 81.5 42 167.5c11.333 78.667 13.166 130 5.49902 154s-29.5 36 -65.5 36z" />
    <glyph glyph-name="multiply" unicode="&#xd7;" horiz-adv-x="526" 
d="M379 294l109 -106l-111 -125l-129 129l-161 -127l-77 125l135 106l-103 103l110 115l121 -118l163 128l77 -124z" />
    <glyph glyph-name="Oslash" unicode="&#xd8;" 
d="M691 735l-62.001 -104.001c49.333 -54 64.666 -152 45.999 -294c-9.33301 -71.333 -22.666 -129.666 -39.999 -174.999s-40.666 -81 -69.999 -107s-63 -44 -101 -54s-85.333 -15 -142 -15c-31.333 0 -57.666 1.33301 -78.999 4l-62 -101l-150 77l54 88
c-50 52.667 -64.667 152.334 -44 299.001c10 70.667 23.333 128.5 40 173.5s39.5 80.667 68.5 107s62.167 44.666 99.5 54.999s84 15.5 140 15.5c35.333 0 63.666 -1.66699 84.999 -5l67 112zM446.999 352.999c11.333 78.667 13.167 130 5.5 154s-29.5 36 -65.5 36
s-61.5 -12.833 -76.5 -38.5s-29.167 -81.5 -42.5 -167.5c-12 -79.333 -14.167 -130.833 -6.5 -154.5s29.5 -35.5 65.5 -35.5c37.333 0 63.333 12.833 78 38.5s28.667 81.5 42 167.5z" />
    <glyph glyph-name="Ugrave" unicode="&#xd9;" 
d="M522 806l-67 -86l-248 106l80 130zM710 690l-59 -408.999c-15.333 -110.667 -46.666 -187.5 -93.999 -230.5s-125.666 -64.5 -234.999 -64.5c-107.333 0 -183.833 23.667 -229.5 71s-61.5 124.666 -47.5 231.999l58 401h216l-58 -409
c-8.66699 -52.667 -8.83398 -88.167 -0.500977 -106.5s30.5 -27.5 66.5 -27.5c36.667 0 61.667 9.16699 75 27.5s24.666 56.5 33.999 114.5l57 401h217z" />
    <glyph glyph-name="Uacute" unicode="&#xda;" 
d="M633 816l-266 -96l-47 86l247 156zM710 690l-59 -408.999c-15.333 -110.667 -46.666 -187.5 -93.999 -230.5s-125.666 -64.5 -234.999 -64.5c-107.333 0 -183.833 23.667 -229.5 71s-61.5 124.666 -47.5 231.999l58 401h216l-58 -409
c-8.66699 -52.667 -8.83398 -88.167 -0.500977 -106.5s30.5 -27.5 66.5 -27.5c36.667 0 61.667 9.16699 75 27.5s24.666 56.5 33.999 114.5l57 401h217z" />
    <glyph glyph-name="Ucircumflex" unicode="&#xdb;" 
d="M623 787l-55 -68l-147 94h-8l-164 -94l-48 72l150 136h141zM710 690l-59 -408.999c-15.333 -110.667 -46.666 -187.5 -93.999 -230.5s-125.666 -64.5 -234.999 -64.5c-107.333 0 -183.833 23.667 -229.5 71s-61.5 124.666 -47.5 231.999l58 401h216l-58 -409
c-8.66699 -52.667 -8.83398 -88.167 -0.500977 -106.5s30.5 -27.5 66.5 -27.5c36.667 0 61.667 9.16699 75 27.5s24.666 56.5 33.999 114.5l57 401h217z" />
    <glyph glyph-name="Udieresis" unicode="&#xdc;" 
d="M300 904h77.001c24 0 34 -11 30 -33l-11 -76c-2.66699 -21.333 -14.334 -32 -35.001 -32h-81c-24 0 -34 11 -30 33l11 73c2.66699 23.333 15.667 35 39 35zM486.001 904h79.998c24 0 34 -11 30 -33l-11 -75c-1.33301 -12 -4.66602 -20.5 -9.99902 -25.5
s-13.666 -7.5 -24.999 -7.5h-81c-24 0 -34 11 -30 33l11 74c3.33301 22.667 15.333 34 36 34zM709.999 690l-59 -408.999c-15.333 -110.667 -46.666 -187.5 -93.999 -230.5s-125.666 -64.5 -234.999 -64.5c-107.333 0 -183.833 23.667 -229.5 71
s-61.5 124.666 -47.5 231.999l58 401h216l-58 -409c-8.66699 -52.667 -8.83398 -88.167 -0.500977 -106.5s30.5 -27.5 66.5 -27.5c36.667 0 61.667 9.16699 75 27.5s24.666 56.5 33.999 114.5l57 401h217z" />
    <glyph glyph-name="Yacute" unicode="&#xdd;" horiz-adv-x="649" 
d="M338 720l-47 86l247 156l66 -146zM420 209l-29 -208.999h-218l31 221l-158 469h216l53 -221c6 -26.667 8.33301 -60.334 7 -101.001h15c3.33301 32 13.333 65 30 99l117 223h231z" />
    <glyph glyph-name="Thorn" unicode="&#xde;" horiz-adv-x="636" 
d="M310 578l57 -0.000976562c106.667 0 179.5 -17.5 218.5 -52.5s52.5 -98.5 40.5 -190.5c-12 -87.333 -37.333 -146.666 -76 -177.999s-103.667 -47 -195 -47c-31.333 0 -68 2.33301 -110 7l-16 -117h-217l97 690h217zM266 262.999h70.001c26 0 43.667 5 53 15
s16.666 34.333 21.999 73c4 28.667 3 48.167 -3 58.5s-20.667 15.5 -44 15.5h-75z" />
    <glyph glyph-name="germandbls" unicode="&#xdf;" horiz-adv-x="731" 
d="M594 316l45.9971 -43c50 -51.333 70.667 -101.333 62 -150c-8 -47.333 -27.667 -81.5 -59 -102.5s-85 -31.5 -161 -31.5c-38 0 -95.667 3.66699 -173 11l18 128h110c19.333 0 33.833 1.83301 43.5 5.5s14.5 11.5 14.5 23.5c0 7.33301 -3.83301 16 -11.5 26
s-24.167 27 -49.5 51l-26 20c-22.667 20.667 -38.5 40 -47.5 58s-11.833 40 -8.5 66c2 18.667 7.5 34.667 16.5 48s26.833 35 53.5 65c30.667 33.333 47 59 49 77c2 14.667 -0.166992 24 -6.5 28s-19.5 6 -39.5 6c-33.333 0 -56.166 -4.33301 -68.499 -13
s-20.166 -26 -23.499 -52l-79 -569c-8 -50 -26.5 -89 -55.5 -117s-74.167 -42 -135.5 -42c-32 0 -82.667 5 -152 15l31 125h49c20 0 34.333 4 43 12s14.667 22.667 18 44l52 369h-83l15 121l85 5l10 70c8.66699 64.667 33.834 109.5 75.501 134.5s110.5 37.5 206.5 37.5
c72.667 0 128.5 -6.5 167.5 -19.5s64.167 -31.667 75.5 -56s13.333 -57.833 6 -100.5s-25.333 -80 -54 -112c-4.66699 -6 -11.334 -13.333 -20.001 -22s-15 -15.334 -19 -20.001s-7.83301 -10.167 -11.5 -16.5s-5.83398 -12.166 -6.50098 -17.499
c-0.666992 -6 0.833008 -12.333 4.5 -19s7.83398 -12.5 12.501 -17.5s13.334 -13.5 26.001 -25.5z" />
    <glyph glyph-name="agrave" unicode="&#xe0;" horiz-adv-x="613" 
d="M399 532l-248 106l80 130l235 -150zM367 0l-2 97.001c-44.667 -66.667 -109.667 -103 -195 -109c-46.667 -3.33301 -82.5 6.16699 -107.5 28.5s-39.5 54.5 -43.5 96.5s-2 92.333 6 151c6 38.667 14 72.167 24 100.5s22.833 51.5 38.5 69.5s31.5 32.5 47.5 43.5
s36.833 19.167 62.5 24.5s49.5 8.66602 71.5 9.99902s50.333 2 85 2s79 -3.5 133 -10.5s90.667 -14.167 110 -21.5l-68 -482h-162zM374 377.001h-46c-24.667 0 -44 -6.83301 -58 -20.5s-24.333 -42.5 -31 -86.5c-9.33301 -63.333 -11.333 -100.333 -6 -111
c3.33301 -8 12.333 -11.333 27 -10c28 2 59 27.667 93 77z" />
    <glyph glyph-name="aacute" unicode="&#xe1;" horiz-adv-x="613" 
d="M311 532l-47 86l247 156l66 -146zM367 0l-2 97.001c-44.667 -66.667 -109.667 -103 -195 -109c-46.667 -3.33301 -82.5 6.16699 -107.5 28.5s-39.5 54.5 -43.5 96.5s-2 92.333 6 151c6 38.667 14 72.167 24 100.5s22.833 51.5 38.5 69.5s31.5 32.5 47.5 43.5
s36.833 19.167 62.5 24.5s49.5 8.66602 71.5 9.99902s50.333 2 85 2s79 -3.5 133 -10.5s90.667 -14.167 110 -21.5l-68 -482h-162zM374 377.001h-46c-24.667 0 -44 -6.83301 -58 -20.5s-24.333 -42.5 -31 -86.5c-9.33301 -63.333 -11.333 -100.333 -6 -111
c3.33301 -8 12.333 -11.333 27 -10c28 2 59 27.667 93 77z" />
    <glyph glyph-name="acircumflex" unicode="&#xe2;" horiz-adv-x="613" 
d="M193 531l-48 72l150 136h141l131 -140l-55 -68l-147 94h-8zM367 0l-2 97.001c-44.667 -66.667 -109.667 -103 -195 -109c-46.667 -3.33301 -82.5 6.16699 -107.5 28.5s-39.5 54.5 -43.5 96.5s-2 92.333 6 151c6 38.667 14 72.167 24 100.5s22.833 51.5 38.5 69.5
s31.5 32.5 47.5 43.5s36.833 19.167 62.5 24.5s49.5 8.66602 71.5 9.99902s50.333 2 85 2s79 -3.5 133 -10.5s90.667 -14.167 110 -21.5l-68 -482h-162zM374 377.001h-46c-24.667 0 -44 -6.83301 -58 -20.5s-24.333 -42.5 -31 -86.5
c-9.33301 -63.333 -11.333 -100.333 -6 -111c3.33301 -8 12.333 -11.333 27 -10c28 2 59 27.667 93 77z" />
    <glyph glyph-name="atilde" unicode="&#xe3;" horiz-adv-x="613" 
d="M252 559l-85.0029 7.99805c-1.33301 54.667 6.83398 95.834 24.501 123.501s42.167 41.5 73.5 41.5c20 0 51.5 -7.33301 94.5 -22s64.833 -22 65.5 -22c16 -4 27.333 -2.33301 34 5s11 20 13 38l85 -8c2.66699 -55.333 -4.66602 -96.666 -21.999 -123.999
s-41.666 -41 -72.999 -41c-20.667 0 -52 7.16699 -94 21.5s-65.333 21.833 -70 22.5c-16 3.33301 -27 1.5 -33 -5.5s-10.333 -19.5 -13 -37.5zM366.997 -0.00195312l-2 97.001c-44.667 -66.667 -109.667 -103 -195 -109c-46.667 -3.33301 -82.5 6.16699 -107.5 28.5
s-39.5 54.5 -43.5 96.5s-2 92.333 6 151c6 38.667 14 72.167 24 100.5s22.833 51.5 38.5 69.5s31.5 32.5 47.5 43.5s36.833 19.167 62.5 24.5s49.5 8.66602 71.5 9.99902s50.333 2 85 2s79 -3.5 133 -10.5s90.667 -14.167 110 -21.5l-68 -482h-162zM373.997 376.999h-46
c-24.667 0 -44 -6.83301 -58 -20.5s-24.333 -42.5 -31 -86.5c-9.33301 -63.333 -11.333 -100.333 -6 -111c3.33301 -8 12.333 -11.333 27 -10c28 2 59 27.667 93 77z" />
    <glyph glyph-name="adieresis" unicode="&#xe4;" horiz-adv-x="613" 
d="M305 575h-80.999c-24 0 -34 11 -30 33l11 73c2.66699 23.333 15.667 35 39 35h77c24 0 34 -11 30 -33l-11 -76c-2.66699 -21.333 -14.334 -32 -35.001 -32zM494.001 575h-81.002c-24 0 -34 11 -30 33l11 74c3.33301 22.667 15.333 34 36 34h80c24 0 34 -11 30 -33
l-11 -75c-1.33301 -12 -4.66602 -20.5 -9.99902 -25.5s-13.666 -7.5 -24.999 -7.5zM366.999 0l-2 97.001c-44.667 -66.667 -109.667 -103 -195 -109c-46.667 -3.33301 -82.5 6.16699 -107.5 28.5s-39.5 54.5 -43.5 96.5s-2 92.333 6 151c6 38.667 14 72.167 24 100.5
s22.833 51.5 38.5 69.5s31.5 32.5 47.5 43.5s36.833 19.167 62.5 24.5s49.5 8.66602 71.5 9.99902s50.333 2 85 2s79 -3.5 133 -10.5s90.667 -14.167 110 -21.5l-68 -482h-162zM373.999 377.001h-46c-24.667 0 -44 -6.83301 -58 -20.5s-24.333 -42.5 -31 -86.5
c-9.33301 -63.333 -11.333 -100.333 -6 -111c3.33301 -8 12.333 -11.333 27 -10c28 2 59 27.667 93 77z" />
    <glyph glyph-name="aring" unicode="&#xe5;" horiz-adv-x="613" 
d="M364 529c-38 0 -69 12.667 -93 38s-33.667 55.666 -29 90.999c4 32 18 58.833 42 80.5s54.333 32.5 91 32.5c37.333 0 68.333 -12.667 93 -38s34.667 -55.666 30 -90.999c-4 -32 -18 -58.833 -42 -80.5s-54.667 -32.5 -92 -32.5zM325 653
c-1.33301 -14.667 1.66797 -26.5 9.00098 -35.5s18 -13.5 32 -13.5s25.5 4.5 34.5 13.5s13.833 20.833 14.5 35.5c0.666992 12.667 -3 23 -11 31s-18.667 12 -32 12c-12.667 0 -23.334 -4 -32.001 -12s-13.667 -18.333 -15 -31zM367.001 0l-2 97.001
c-44.667 -66.667 -109.667 -103 -195 -109c-46.667 -3.33301 -82.5 6.16699 -107.5 28.5s-39.5 54.5 -43.5 96.5s-2 92.333 6 151c6 38.667 14 72.167 24 100.5s22.833 51.5 38.5 69.5s31.5 32.5 47.5 43.5s36.833 19.167 62.5 24.5s49.5 8.66602 71.5 9.99902
s50.333 2 85 2s79 -3.5 133 -10.5s90.667 -14.167 110 -21.5l-68 -482h-162zM374.001 377.001h-46c-24.667 0 -44 -6.83301 -58 -20.5s-24.333 -42.5 -31 -86.5c-9.33301 -63.333 -11.333 -100.333 -6 -111c3.33301 -8 12.333 -11.333 27 -10c28 2 59 27.667 93 77z" />
    <glyph glyph-name="ae" unicode="&#xe6;" horiz-adv-x="917" 
d="M839 160l13.0029 -127.998c-62 -29.333 -139.667 -44 -233 -44c-137.333 0 -221.333 39 -252 117c-42.667 -72 -108.334 -111 -197.001 -117c-68 -4.66699 -112.333 16.833 -133 64.5s-24.334 118.167 -11.001 211.5c5.33301 38.667 12.333 72 21 100
s19.667 51.167 33 69.5s26.666 32.833 39.999 43.5s31 18.667 53 24s42.167 8.83301 60.5 10.5s42.5 2.5 72.5 2.5c74.667 0.666992 146 -4.33301 214 -15c35.333 10 80.666 15 135.999 15c98.667 0 166.5 -15.333 203.5 -46s50.833 -77.334 41.5 -140.001
c-6 -43.333 -25 -73.5 -57 -90.5s-83 -28.167 -153 -33.5l-128 -10c0.666992 -18.667 6.33398 -30.834 17.001 -36.501s30 -8.5 58 -8.5c71.333 0 138.333 3.66699 201 11zM576.003 297.002l59.002 6.00195c23.333 2 39.833 5.83301 49.5 11.5s15.167 17.167 16.5 34.5
c1.33301 11.333 -1 19.333 -7 24s-18 6.66699 -36 6c-26.667 -0.666992 -45.334 -6.33398 -56.001 -17.001s-19.334 -32.334 -26.001 -65.001zM261.005 149.004c12.667 0.666992 27.667 8.66699 45 24s33 34 47 56l2 25c4.66699 46.667 14 87.667 28 123h-56
c-26.667 0 -46.167 -6.5 -58.5 -19.5s-21.833 -42.167 -28.5 -87.5c-9.33301 -63.333 -11.333 -100.333 -6 -111c3.33301 -8 12.333 -11.333 27 -10z" />
    <glyph glyph-name="ccedilla" unicode="&#xe7;" horiz-adv-x="536" 
d="M470 161l14.998 -132.998c-56 -26.667 -129.333 -40 -220 -40c-91.333 0 -158.166 21.5 -200.499 64.5s-56.833 111.833 -43.5 206.5c12.667 91.333 39.834 156.666 81.501 195.999s108.5 59 200.5 59s168.333 -13 229 -39l-28 -128h-176c-29.333 0 -50 -6.66699 -62 -20
s-20.667 -38 -26 -74c-6 -40.667 -4.83301 -67.334 3.5 -80.001s27.833 -19 58.5 -19c70 0 126 2.33301 168 7zM139.998 -116.998l18.001 72.001c54 10 97.833 10 131.5 0s47.167 -34.333 40.5 -73c-9.33301 -53.333 -37 -91.833 -83 -115.5s-101 -31.167 -165 -22.5l21 77
c59.333 0 92.333 15.333 99 46c0 2 0.166992 3.83301 0.5 5.5s-0.333984 3.16699 -2.00098 4.5s-3.66699 2.33301 -6 3s-6 1.16699 -11 1.5s-11 0.666016 -18 0.999023s-15.5 0.5 -25.5 0.5z" />
    <glyph glyph-name="egrave" unicode="&#xe8;" horiz-adv-x="590" 
d="M388 532l-248 106l80 130l235 -150zM512 160l13.999 -127.999c-63.333 -29.333 -142.333 -44 -237 -44c-56 0 -102.667 5.66699 -140 17s-66 28.666 -86 51.999s-33.167 50.833 -39.5 82.5s-7.16602 69.834 -2.49902 114.501
c5.33301 52.667 15.666 96.334 30.999 131.001s36.5 61.167 63.5 79.5s57 31.166 90 38.499s73.167 11 120.5 11c100 0 168.667 -15.333 206 -46s51.333 -77.334 42 -140.001c-6 -43.333 -25.167 -73.5 -57.5 -90.5s-84.166 -28.167 -155.499 -33.5l-125 -9
c0.666992 -18.667 6.16699 -31 16.5 -37s28.5 -9 54.5 -9c72.667 0 141 3.66699 205 11zM248.999 297.001l57.001 6.00195c24 2 40.833 5.83301 50.5 11.5s15.5 17.167 17.5 34.5c1.33301 11.333 -1.16699 19.333 -7.5 24s-19.166 6.66699 -38.499 6
c-24.667 -0.666992 -42.334 -6.33398 -53.001 -17.001s-19.334 -32.334 -26.001 -65.001z" />
    <glyph glyph-name="eacute" unicode="&#xe9;" horiz-adv-x="590" 
d="M300 532l-47 86l247 156l66 -146zM512 160l13.999 -127.999c-63.333 -29.333 -142.333 -44 -237 -44c-56 0 -102.667 5.66699 -140 17s-66 28.666 -86 51.999s-33.167 50.833 -39.5 82.5s-7.16602 69.834 -2.49902 114.501c5.33301 52.667 15.666 96.334 30.999 131.001
s36.5 61.167 63.5 79.5s57 31.166 90 38.499s73.167 11 120.5 11c100 0 168.667 -15.333 206 -46s51.333 -77.334 42 -140.001c-6 -43.333 -25.167 -73.5 -57.5 -90.5s-84.166 -28.167 -155.499 -33.5l-125 -9c0.666992 -18.667 6.16699 -31 16.5 -37s28.5 -9 54.5 -9
c72.667 0 141 3.66699 205 11zM248.999 297.001l57.001 6.00195c24 2 40.833 5.83301 50.5 11.5s15.5 17.167 17.5 34.5c1.33301 11.333 -1.16699 19.333 -7.5 24s-19.166 6.66699 -38.499 6c-24.667 -0.666992 -42.334 -6.33398 -53.001 -17.001
s-19.334 -32.334 -26.001 -65.001z" />
    <glyph glyph-name="ecircumflex" unicode="&#xea;" horiz-adv-x="590" 
d="M182 531l-48 72l150 136h141l131 -140l-55 -68l-147 94h-8zM512 160l13.999 -127.999c-63.333 -29.333 -142.333 -44 -237 -44c-56 0 -102.667 5.66699 -140 17s-66 28.666 -86 51.999s-33.167 50.833 -39.5 82.5s-7.16602 69.834 -2.49902 114.501
c5.33301 52.667 15.666 96.334 30.999 131.001s36.5 61.167 63.5 79.5s57 31.166 90 38.499s73.167 11 120.5 11c100 0 168.667 -15.333 206 -46s51.333 -77.334 42 -140.001c-6 -43.333 -25.167 -73.5 -57.5 -90.5s-84.166 -28.167 -155.499 -33.5l-125 -9
c0.666992 -18.667 6.16699 -31 16.5 -37s28.5 -9 54.5 -9c72.667 0 141 3.66699 205 11zM248.999 297.001l57.001 6.00195c24 2 40.833 5.83301 50.5 11.5s15.5 17.167 17.5 34.5c1.33301 11.333 -1.16699 19.333 -7.5 24s-19.166 6.66699 -38.499 6
c-24.667 -0.666992 -42.334 -6.33398 -53.001 -17.001s-19.334 -32.334 -26.001 -65.001z" />
    <glyph glyph-name="edieresis" unicode="&#xeb;" horiz-adv-x="590" 
d="M294 575h-80.999c-24 0 -34 11 -30 33l11 73c2.66699 23.333 15.667 35 39 35h77c24 0 34 -11 30 -33l-11 -76c-2.66699 -21.333 -14.334 -32 -35.001 -32zM483.001 575h-81.002c-24 0 -34 11 -30 33l11 74c3.33301 22.667 15.333 34 36 34h80c24 0 34 -11 30 -33
l-11 -75c-1.33301 -12 -4.66602 -20.5 -9.99902 -25.5s-13.666 -7.5 -24.999 -7.5zM511.999 160l13.999 -127.999c-63.333 -29.333 -142.333 -44 -237 -44c-56 0 -102.667 5.66699 -140 17s-66 28.666 -86 51.999s-33.167 50.833 -39.5 82.5
s-7.16602 69.834 -2.49902 114.501c5.33301 52.667 15.666 96.334 30.999 131.001s36.5 61.167 63.5 79.5s57 31.166 90 38.499s73.167 11 120.5 11c100 0 168.667 -15.333 206 -46s51.333 -77.334 42 -140.001c-6 -43.333 -25.167 -73.5 -57.5 -90.5
s-84.166 -28.167 -155.499 -33.5l-125 -9c0.666992 -18.667 6.16699 -31 16.5 -37s28.5 -9 54.5 -9c72.667 0 141 3.66699 205 11zM248.998 297.001l57.001 6.00195c24 2 40.833 5.83301 50.5 11.5s15.5 17.167 17.5 34.5c1.33301 11.333 -1.16699 19.333 -7.5 24
s-19.166 6.66699 -38.499 6c-24.667 -0.666992 -42.334 -6.33398 -53.001 -17.001s-19.334 -32.334 -26.001 -65.001z" />
    <glyph glyph-name="igrave" unicode="&#xec;" horiz-adv-x="306" 
d="M294 618l-67 -86l-248 106l80 130zM218 0h-211l70 500h211z" />
    <glyph glyph-name="iacute" unicode="&#xed;" horiz-adv-x="306" 
d="M405 628l-266 -96l-47 86l247 156zM218 0h-211l70 500h211z" />
    <glyph glyph-name="icircumflex" unicode="&#xee;" horiz-adv-x="306" 
d="M395 599l-55 -68l-147 94h-8l-164 -94l-48 72l150 136h141zM218 0h-211l70 500h211z" />
    <glyph glyph-name="idieresis" unicode="&#xef;" horiz-adv-x="306" 
d="M72 716h77.001c24 0 34 -11 30 -33l-11 -76c-2.66699 -21.333 -14.334 -32 -35.001 -32h-81c-24 0 -34 11 -30 33l11 73c2.66699 23.333 15.667 35 39 35zM258.001 716h79.998c24 0 34 -11 30 -33l-11 -75c-1.33301 -12 -4.66602 -20.5 -9.99902 -25.5
s-13.666 -7.5 -24.999 -7.5h-81c-24 0 -34 11 -30 33l11 74c3.33301 22.667 15.333 34 36 34zM217.999 0h-211l70 500h211z" />
    <glyph glyph-name="eth" unicode="&#xf0;" horiz-adv-x="603" 
d="M622 633l-79.0029 -68c35.333 -66.667 45.333 -160.667 30 -282c-13.333 -109.333 -44.5 -186.166 -93.5 -230.499s-121.833 -66.5 -218.5 -66.5c-86 0 -150.667 19.5 -194 58.5s-59.666 98.167 -48.999 177.5c10.667 81.333 35.667 140.166 75 176.499s94 54.5 164 54.5
c45.333 0 82.333 -8.33301 111 -25c1.33301 56.667 -11.667 95.5 -39 116.5s-78.666 28.833 -153.999 23.5l23 130c96.667 6 174.334 -4 233.001 -30l88 78zM275.997 130c24 0 40.832 11.001 50.499 33.001s19.167 67 28.5 135l2 15c-14 5.33301 -28 8 -42 8
c-24.667 0 -42.167 -7.5 -52.5 -22.5s-18.5 -41.167 -24.5 -78.5c-6.66699 -34.667 -7.66699 -58.334 -3 -71.001s18.334 -19 41.001 -19z" />
    <glyph glyph-name="ntilde" unicode="&#xf1;" horiz-adv-x="619" 
d="M244 559l-85.0029 7.99805c-1.33301 54.667 6.83398 95.834 24.501 123.501s42.167 41.5 73.5 41.5c20 0 51.5 -7.33301 94.5 -22s64.833 -22 65.5 -22c16 -4 27.333 -2.33301 34 5s11 20 13 38l85 -8c2.66699 -55.333 -4.66602 -96.666 -21.999 -123.999
s-41.666 -41 -72.999 -41c-20.667 0 -52 7.16699 -94 21.5s-65.333 21.833 -70 22.5c-16 3.33301 -27 1.5 -33 -5.5s-10.333 -19.5 -13 -37.5zM235.997 499.998l4.99902 -88c32 32 67.333 57 106 75s76.334 27 113.001 27c43.333 0 77.5 -12.5 102.5 -37.5
s34.167 -60.5 27.5 -106.5l-52 -370h-211l43 302c2 14 1.16699 23.667 -2.5 29s-11.834 7.33301 -24.501 6c-27.333 -2.66699 -56.666 -16 -87.999 -40l-42 -297h-210l69 500h164z" />
    <glyph glyph-name="ograve" unicode="&#xf2;" horiz-adv-x="615" 
d="M457 618l-67 -86l-248 106l80 130zM327 514c102 0 173.5 -21 214.5 -63s54.5 -112 40.5 -210c-13.333 -94 -42.5 -159.667 -87.5 -197s-117.167 -56 -216.5 -56c-101.333 0 -173 20.833 -215 62.5s-56 110.5 -42 206.5c13.333 95.333 42.5 162 87.5 200
s117.833 57 218.5 57zM323 372c-26.667 0 -45.167 -8.16699 -55.5 -24.5s-19.5 -51.833 -27.5 -106.5c-6.66699 -46 -7.16699 -76 -1.5 -90s21.5 -21 47.5 -21c25.333 0 42.833 7.83301 52.5 23.5s18.5 50.167 26.5 103.5c7.33301 47.333 8.33301 78.333 3 93
s-20.333 22 -45 22z" />
    <glyph glyph-name="oacute" unicode="&#xf3;" horiz-adv-x="615" 
d="M568 628l-266 -96l-47 86l247 156zM327 514c102 0 173.5 -21 214.5 -63s54.5 -112 40.5 -210c-13.333 -94 -42.5 -159.667 -87.5 -197s-117.167 -56 -216.5 -56c-101.333 0 -173 20.833 -215 62.5s-56 110.5 -42 206.5c13.333 95.333 42.5 162 87.5 200
s117.833 57 218.5 57zM323 372c-26.667 0 -45.167 -8.16699 -55.5 -24.5s-19.5 -51.833 -27.5 -106.5c-6.66699 -46 -7.16699 -76 -1.5 -90s21.5 -21 47.5 -21c25.333 0 42.833 7.83301 52.5 23.5s18.5 50.167 26.5 103.5c7.33301 47.333 8.33301 78.333 3 93
s-20.333 22 -45 22z" />
    <glyph glyph-name="ocircumflex" unicode="&#xf4;" horiz-adv-x="615" 
d="M558 599l-55 -68l-147 94h-8l-164 -94l-48 72l150 136h141zM327 514c102 0 173.5 -21 214.5 -63s54.5 -112 40.5 -210c-13.333 -94 -42.5 -159.667 -87.5 -197s-117.167 -56 -216.5 -56c-101.333 0 -173 20.833 -215 62.5s-56 110.5 -42 206.5
c13.333 95.333 42.5 162 87.5 200s117.833 57 218.5 57zM323 372c-26.667 0 -45.167 -8.16699 -55.5 -24.5s-19.5 -51.833 -27.5 -106.5c-6.66699 -46 -7.16699 -76 -1.5 -90s21.5 -21 47.5 -21c25.333 0 42.833 7.83301 52.5 23.5s18.5 50.167 26.5 103.5
c7.33301 47.333 8.33301 78.333 3 93s-20.333 22 -45 22z" />
    <glyph glyph-name="otilde" unicode="&#xf5;" horiz-adv-x="615" 
d="M243 559l-85.0029 7.99805c-1.33301 54.667 6.83398 95.834 24.501 123.501s42.167 41.5 73.5 41.5c20 0 51.5 -7.33301 94.5 -22s64.833 -22 65.5 -22c16 -4 27.333 -2.33301 34 5s11 20 13 38l85 -8c2.66699 -55.333 -4.66602 -96.666 -21.999 -123.999
s-41.666 -41 -72.999 -41c-20.667 0 -52 7.16699 -94 21.5s-65.333 21.833 -70 22.5c-16 3.33301 -27 1.5 -33 -5.5s-10.333 -19.5 -13 -37.5zM326.997 513.998c102 0 173.5 -21 214.5 -63s54.5 -112 40.5 -210c-13.333 -94 -42.5 -159.667 -87.5 -197
s-117.167 -56 -216.5 -56c-101.333 0 -173 20.833 -215 62.5s-56 110.5 -42 206.5c13.333 95.333 42.5 162 87.5 200s117.833 57 218.5 57zM322.997 371.998c-26.667 0 -45.167 -8.16699 -55.5 -24.5s-19.5 -51.833 -27.5 -106.5c-6.66699 -46 -7.16699 -76 -1.5 -90
s21.5 -21 47.5 -21c25.333 0 42.833 7.83301 52.5 23.5s18.5 50.167 26.5 103.5c7.33301 47.333 8.33301 78.333 3 93s-20.333 22 -45 22z" />
    <glyph glyph-name="odieresis" unicode="&#xf6;" horiz-adv-x="615" 
d="M235 716h77.001c24 0 34 -11 30 -33l-11 -76c-2.66699 -21.333 -14.334 -32 -35.001 -32h-81c-24 0 -34 11 -30 33l11 73c2.66699 23.333 15.667 35 39 35zM421.001 716h79.998c24 0 34 -11 30 -33l-11 -75c-1.33301 -12 -4.66602 -20.5 -9.99902 -25.5
s-13.666 -7.5 -24.999 -7.5h-81c-24 0 -34 11 -30 33l11 74c3.33301 22.667 15.333 34 36 34zM326.999 514c102 0 173.5 -21 214.5 -63s54.5 -112 40.5 -210c-13.333 -94 -42.5 -159.667 -87.5 -197s-117.167 -56 -216.5 -56c-101.333 0 -173 20.833 -215 62.5
s-56 110.5 -42 206.5c13.333 95.333 42.5 162 87.5 200s117.833 57 218.5 57zM322.999 372c-26.667 0 -45.167 -8.16699 -55.5 -24.5s-19.5 -51.833 -27.5 -106.5c-6.66699 -46 -7.16699 -76 -1.5 -90s21.5 -21 47.5 -21c25.333 0 42.833 7.83301 52.5 23.5
s18.5 50.167 26.5 103.5c7.33301 47.333 8.33301 78.333 3 93s-20.333 22 -45 22z" />
    <glyph glyph-name="divide" unicode="&#xf7;" horiz-adv-x="528" 
d="M283 582l41 0.000976562c32 0 53.667 -6 65 -18s14.666 -33.333 9.99902 -64l-1 -14c-4.66699 -32 -13.5 -53.667 -26.5 -65s-35.167 -17 -66.5 -17h-46c-32.667 0 -54.667 6.16699 -66 18.5s-14.666 34.166 -9.99902 65.499l2 14c4.66699 31.333 14 52.5 28 63.5
s37.333 16.5 70 16.5zM491 215.001h-477l23 154h477zM224 176.001l40 0.000976562c32 0 53.833 -6 65.5 -18s15.167 -33.667 10.5 -65l-2 -14c-4 -32 -12.333 -53.5 -25 -64.5s-35 -16.5 -67 -16.5h-46c-33.333 0 -55.5 6.16699 -66.5 18.5s-14.167 34.166 -9.5 65.499l2 14
c4 31.333 13.167 52.5 27.5 63.5s37.833 16.5 70.5 16.5z" />
    <glyph glyph-name="oslash" unicode="&#xf8;" horiz-adv-x="616" 
d="M575 539l-47 -76c50.667 -40.667 68.667 -114.667 54 -222c-13.333 -94 -42.5 -159.667 -87.5 -197s-117.167 -56 -216.5 -56c-18 0 -31.333 0.333008 -40 1l-59 -95l-130 71l40 64c-60.667 40.667 -83.334 116.667 -68.001 228c13.333 95.333 42.5 162 87.5 200
s117.833 57 218.5 57c14.667 0 33.334 -0.666992 56.001 -2l62 99zM365 257c7.33301 47.333 8.33301 78.333 3 93s-20.333 22 -45 22c-26.667 0 -45.167 -8.16699 -55.5 -24.5s-19.5 -51.833 -27.5 -106.5c-6.66699 -46 -7.16699 -76 -1.5 -90s21.5 -21 47.5 -21
c25.333 0 42.833 7.83301 52.5 23.5s18.5 50.167 26.5 103.5z" />
    <glyph glyph-name="ugrave" unicode="&#xf9;" horiz-adv-x="613" 
d="M387 543l-248 106l80 130l235 -150zM598 500l-69 -500h-164l-4 85c-68 -66 -136 -99 -204 -99c-52 0 -89.833 12.5 -113.5 37.5s-32.167 60.5 -25.5 106.5l51 370h211l-45 -311c-2.66699 -18 5 -27 23 -27c26 0 55.667 12.333 89 37l43 301h208z" />
    <glyph glyph-name="uacute" unicode="&#xfa;" horiz-adv-x="613" 
d="M299 543l-47 86l247 156l66 -146zM598 500l-69 -500h-164l-4 85c-68 -66 -136 -99 -204 -99c-52 0 -89.833 12.5 -113.5 37.5s-32.167 60.5 -25.5 106.5l51 370h211l-45 -311c-2.66699 -18 5 -27 23 -27c26 0 55.667 12.333 89 37l43 301h208z" />
    <glyph glyph-name="ucircumflex" unicode="&#xfb;" horiz-adv-x="613" 
d="M181 542l-48 72l150 136h141l131 -140l-55 -68l-147 94h-8zM598 500l-69 -500h-164l-4 85c-68 -66 -136 -99 -204 -99c-52 0 -89.833 12.5 -113.5 37.5s-32.167 60.5 -25.5 106.5l51 370h211l-45 -311c-2.66699 -18 5 -27 23 -27c26 0 55.667 12.333 89 37l43 301h208z
" />
    <glyph glyph-name="udieresis" unicode="&#xfc;" horiz-adv-x="613" 
d="M293 586h-80.999c-24 0 -34 11 -30 33l11 73c2.66699 23.333 15.667 35 39 35h77c24 0 34 -11 30 -33l-11 -76c-2.66699 -21.333 -14.334 -32 -35.001 -32zM482.001 586h-81.002c-24 0 -34 11 -30 33l11 74c3.33301 22.667 15.333 34 36 34h80c24 0 34 -11 30 -33
l-11 -75c-1.33301 -12 -4.66602 -20.5 -9.99902 -25.5s-13.666 -7.5 -24.999 -7.5zM597.999 500l-69 -500h-164l-4 85c-68 -66 -136 -99 -204 -99c-52 0 -89.833 12.5 -113.5 37.5s-32.167 60.5 -25.5 106.5l51 370h211l-45 -311c-2.66699 -18 5 -27 23 -27
c26 0 55.667 12.333 89 37l43 301h208z" />
    <glyph glyph-name="yacute" unicode="&#xfd;" horiz-adv-x="622" 
d="M294 532l-47 86l247 156l66 -146zM404 500h224.999c-11.333 -82 -36.666 -174.333 -75.999 -277s-72 -174.334 -98 -215.001c-96.667 -151.333 -226.334 -222.666 -389.001 -213.999l-13 113c8.66699 3.33301 21.834 7.83301 39.501 13.5s31 10.167 40 13.5
s20.167 8 33.5 14s25.333 13.333 36 22s21 18.667 31 30h-79c-16 0 -29.833 5 -41.5 15s-18.5 22.667 -20.5 38l-62 447h230l8 -358c0 -10.667 5.33301 -16 16 -16h24c42 93.333 74 218 96 374z" />
    <glyph glyph-name="thorn" unicode="&#xfe;" horiz-adv-x="616" 
d="M270 453l3.00195 -7c46 44 98 66 156 66c65.333 0 109.666 -22.5 132.999 -67.5s29.666 -114.5 18.999 -208.5c-10 -86.667 -33.833 -150 -71.5 -190s-84.5 -60 -140.5 -60c-61.333 0 -114 4.33301 -158 13c-2.66699 -38.667 -5.66699 -66.667 -9 -84l-14 -95h-210
l123 880h210l-14 -104c-6.66699 -50 -15.667 -97.667 -27 -143zM230.002 113l47.999 0.000976562c30 0 50.667 7.16699 62 21.5s20 46.166 26 95.499c6.66699 41.333 8.83398 71.833 6.50098 91.5s-12.833 29.5 -31.5 29.5c-33.333 0 -63.333 -24.333 -90 -73z" />
    <glyph glyph-name="ydieresis" unicode="&#xff;" horiz-adv-x="622" 
d="M288 575h-80.999c-24 0 -34 11 -30 33l11 73c2.66699 23.333 15.667 35 39 35h77c24 0 34 -11 30 -33l-11 -76c-2.66699 -21.333 -14.334 -32 -35.001 -32zM477.001 575h-81.002c-24 0 -34 11 -30 33l11 74c3.33301 22.667 15.333 34 36 34h80c24 0 34 -11 30 -33
l-11 -75c-1.33301 -12 -4.66602 -20.5 -9.99902 -25.5s-13.666 -7.5 -24.999 -7.5zM403.999 500h224.999c-11.333 -82 -36.666 -174.333 -75.999 -277s-72 -174.334 -98 -215.001c-96.667 -151.333 -226.334 -222.666 -389.001 -213.999l-13 113
c8.66699 3.33301 21.834 7.83301 39.501 13.5s31 10.167 40 13.5s20.167 8 33.5 14s25.333 13.333 36 22s21 18.667 31 30h-79c-16 0 -29.833 5 -41.5 15s-18.5 22.667 -20.5 38l-62 447h230l8 -358c0 -10.667 5.33301 -16 16 -16h24c42 93.333 74 218 96 374z" />
    <glyph glyph-name="Amacron" unicode="&#x100;" horiz-adv-x="678" 
d="M560 772h-320l17 123h320zM418 146l-187.998 0.000976562l-54 -146h-225l266 638c13.333 34.667 38.666 52 75.999 52h196c17.333 0 32.666 -5.83301 45.999 -17.5s21 -25.834 23 -42.501l89 -630h-217zM406.002 304.001l-11.999 149c-2 17.333 -2.33301 43 -1 77h-28
c-4.66699 -27.333 -11.334 -52.333 -20.001 -75l-56 -151h117z" />
    <glyph glyph-name="amacron" unicode="&#x101;" horiz-adv-x="613" 
d="M517 584h-320l17 123h320zM367 0l-2 97.001c-44.667 -66.667 -109.667 -103 -195 -109c-46.667 -3.33301 -82.5 6.16699 -107.5 28.5s-39.5 54.5 -43.5 96.5s-2 92.333 6 151c6 38.667 14 72.167 24 100.5s22.833 51.5 38.5 69.5s31.5 32.5 47.5 43.5
s36.833 19.167 62.5 24.5s49.5 8.66602 71.5 9.99902s50.333 2 85 2s79 -3.5 133 -10.5s90.667 -14.167 110 -21.5l-68 -482h-162zM374 377.001h-46c-24.667 0 -44 -6.83301 -58 -20.5s-24.333 -42.5 -31 -86.5c-9.33301 -63.333 -11.333 -100.333 -6 -111
c3.33301 -8 12.333 -11.333 27 -10c28 2 59 27.667 93 77z" />
    <glyph glyph-name="Abreve" unicode="&#x102;" horiz-adv-x="678" 
d="M505 920l94.001 -14.999c1.33301 -46.667 -15.667 -86.334 -51 -119.001s-83 -49 -143 -49c-60.667 0 -106.5 17.833 -137.5 53.5s-39.167 76.5 -24.5 122.5l98 5c-3.33301 -20.667 0.666992 -35 12 -43s31.666 -12 60.999 -12c56.667 0 87 19 91 57zM418.001 146.001
l-187.998 0.000976562l-54 -146h-225l266 638c13.333 34.667 38.666 52 75.999 52h196c17.333 0 32.666 -5.83301 45.999 -17.5s21 -25.834 23 -42.501l89 -630h-217zM406.003 304.002l-11.999 149c-2 17.333 -2.33301 43 -1 77h-28
c-4.66699 -27.333 -11.334 -52.333 -20.001 -75l-56 -151h117z" />
    <glyph glyph-name="abreve" unicode="&#x103;" horiz-adv-x="613" 
d="M462 732l94.001 -14.999c1.33301 -46.667 -15.667 -86.334 -51 -119.001s-83 -49 -143 -49c-60.667 0 -106.5 17.833 -137.5 53.5s-39.167 76.5 -24.5 122.5l98 5c-3.33301 -20.667 0.666992 -35 12 -43s31.666 -12 60.999 -12c56.667 0 87 19 91 57z
M367.001 0.000976562l-2 97.001c-44.667 -66.667 -109.667 -103 -195 -109c-46.667 -3.33301 -82.5 6.16699 -107.5 28.5s-39.5 54.5 -43.5 96.5s-2 92.333 6 151c6 38.667 14 72.167 24 100.5s22.833 51.5 38.5 69.5s31.5 32.5 47.5 43.5s36.833 19.167 62.5 24.5
s49.5 8.66602 71.5 9.99902s50.333 2 85 2s79 -3.5 133 -10.5s90.667 -14.167 110 -21.5l-68 -482h-162zM374.001 377.002h-46c-24.667 0 -44 -6.83301 -58 -20.5s-24.333 -42.5 -31 -86.5c-9.33301 -63.333 -11.333 -100.333 -6 -111c3.33301 -8 12.333 -11.333 27 -10
c28 2 59 27.667 93 77z" />
    <glyph glyph-name="Aogonek" unicode="&#x104;" horiz-adv-x="678" 
d="M647 0h1.00098c-28 -30 -47 -60.333 -57 -91c-3.33301 -11.333 -2.66602 -18.833 2.00098 -22.5s14.667 -4.16699 30 -1.5l15 -74c-32.667 -12 -62.5 -19 -89.5 -21s-48.167 0.333008 -63.5 7s-28 15.667 -38 27s-14.5 24.333 -13.5 39s4.5 29.334 10.5 44.001
c16.667 32 51 63 103 93h-117l-12 146h-188l-54 -146h-225l266 638c13.333 34.667 38.666 52 75.999 52h196c17.333 0 32.666 -5.83301 45.999 -17.5s21 -25.834 23 -42.501zM406.001 304l-11.999 149c-2 17.333 -2.33301 43 -1 77h-28
c-4.66699 -27.333 -11.334 -52.333 -20.001 -75l-56 -151h117z" />
    <glyph glyph-name="aogonek" unicode="&#x105;" horiz-adv-x="613" 
d="M597 482l-68.001 -482c-28 -30 -47 -60.333 -57 -91c-3.33301 -11.333 -2.66602 -18.833 2.00098 -22.5s14.667 -4.16699 30 -1.5l15 -74c-32.667 -12 -62.5 -19 -89.5 -21s-48.167 0.333008 -63.5 7s-28 15.667 -38 27s-14.5 24.333 -13.5 39s4.5 29.334 10.5 44.001
c16.667 32 51 63 103 93h-61l-2 97c-44.667 -66.667 -109.667 -103 -195 -109c-46.667 -3.33301 -82.5 6.16699 -107.5 28.5s-39.5 54.5 -43.5 96.5s-2 92.333 6 151c6 38.667 14 72.167 24 100.5s22.833 51.5 38.5 69.5s31.5 32.5 47.5 43.5s36.833 19.167 62.5 24.5
s49.5 8.66602 71.5 9.99902s50.333 2 85 2s79 -3.5 133 -10.5s90.667 -14.167 110 -21.5zM373.999 377h-46c-24.667 0 -44 -6.83301 -58 -20.5s-24.333 -42.5 -31 -86.5c-9.33301 -63.333 -11.333 -100.333 -6 -111c3.33301 -8 12.333 -11.333 27 -10c28 2 59 27.667 93 77z
" />
    <glyph glyph-name="Cacute" unicode="&#x106;" horiz-adv-x="603" 
d="M626 817l-266 -96l-47 86l247 156zM545 179l8.00195 -158.998c-68.667 -21.333 -148.334 -32 -239.001 -32c-116.667 0 -196 27.167 -238 81.5s-53.667 148.833 -35 283.5c10 70.667 22.833 128 38.5 172s37.5 79.5 65.5 106.5s61.167 45.5 99.5 55.5
s87.166 15 146.499 15c85.333 0 161 -9.33301 227 -28l-25 -157c-97.333 1.33301 -168.333 2 -213 2c-25.333 0 -44.333 -3.83301 -57 -11.5s-23.334 -24.334 -32.001 -50.001s-16.667 -65.834 -24 -120.501c-10 -68 -12 -112.667 -6 -134s27 -32 63 -32
c90.667 0 164.334 2.66699 221.001 8z" />
    <glyph glyph-name="cacute" unicode="&#x107;" horiz-adv-x="536" 
d="M547 628l-266 -96l-47 86l247 156zM470 161l14.998 -132.998c-56 -26.667 -129.333 -40 -220 -40c-91.333 0 -158.166 21.5 -200.499 64.5s-56.833 111.833 -43.5 206.5c12.667 91.333 39.834 156.666 81.501 195.999s108.5 59 200.5 59s168.333 -13 229 -39l-28 -128
h-176c-29.333 0 -50 -6.66699 -62 -20s-20.667 -38 -26 -74c-6 -40.667 -4.83301 -67.334 3.5 -80.001s27.833 -19 58.5 -19c70 0 126 2.33301 168 7z" />
    <glyph glyph-name="Cdotaccent" unicode="&#x10a;" horiz-adv-x="603" 
d="M393 914h58.999c18.667 0 33.334 -5 44.001 -15s15 -24.667 13 -44l-5 -49c-4 -35.333 -24 -53 -60 -53h-63c-43.333 0 -62 20.333 -56 61l6 47c5.33301 35.333 26 53 62 53zM544.999 179l8.00195 -158.998c-68.667 -21.333 -148.334 -32 -239.001 -32
c-116.667 0 -196 27.167 -238 81.5s-53.667 148.833 -35 283.5c10 70.667 22.833 128 38.5 172s37.5 79.5 65.5 106.5s61.167 45.5 99.5 55.5s87.166 15 146.499 15c85.333 0 161 -9.33301 227 -28l-25 -157c-97.333 1.33301 -168.333 2 -213 2
c-25.333 0 -44.333 -3.83301 -57 -11.5s-23.334 -24.334 -32.001 -50.001s-16.667 -65.834 -24 -120.501c-10 -68 -12 -112.667 -6 -134s27 -32 63 -32c90.667 0 164.334 2.66699 221.001 8z" />
    <glyph glyph-name="cdotaccent" unicode="&#x10b;" horiz-adv-x="536" 
d="M314 725h58.999c18.667 0 33.334 -5 44.001 -15s15 -24.667 13 -44l-5 -49c-4 -35.333 -24 -53 -60 -53h-63c-43.333 0 -62 20.333 -56 61l6 47c5.33301 35.333 26 53 62 53zM469.999 161l14.998 -132.998c-56 -26.667 -129.333 -40 -220 -40
c-91.333 0 -158.166 21.5 -200.499 64.5s-56.833 111.833 -43.5 206.5c12.667 91.333 39.834 156.666 81.501 195.999s108.5 59 200.5 59s168.333 -13 229 -39l-28 -128h-176c-29.333 0 -50 -6.66699 -62 -20s-20.667 -38 -26 -74c-6 -40.667 -4.83301 -67.334 3.5 -80.001
s27.833 -19 58.5 -19c70 0 126 2.33301 168 7z" />
    <glyph glyph-name="Ccaron" unicode="&#x10c;" horiz-adv-x="603" 
d="M626 869l-179 -131h-82l-163 144l58 66l147 -81h8l171 77zM545 179l8.00195 -158.998c-68.667 -21.333 -148.334 -32 -239.001 -32c-116.667 0 -196 27.167 -238 81.5s-53.667 148.833 -35 283.5c10 70.667 22.833 128 38.5 172s37.5 79.5 65.5 106.5
s61.167 45.5 99.5 55.5s87.166 15 146.499 15c85.333 0 161 -9.33301 227 -28l-25 -157c-97.333 1.33301 -168.333 2 -213 2c-25.333 0 -44.333 -3.83301 -57 -11.5s-23.334 -24.334 -32.001 -50.001s-16.667 -65.834 -24 -120.501c-10 -68 -12 -112.667 -6 -134
s27 -32 63 -32c90.667 0 164.334 2.66699 221.001 8z" />
    <glyph glyph-name="ccaron" unicode="&#x10d;" horiz-adv-x="536" 
d="M547 680l-179 -131h-82l-163 144l58 66l147 -81h8l171 77zM470 161l14.998 -132.998c-56 -26.667 -129.333 -40 -220 -40c-91.333 0 -158.166 21.5 -200.499 64.5s-56.833 111.833 -43.5 206.5c12.667 91.333 39.834 156.666 81.501 195.999s108.5 59 200.5 59
s168.333 -13 229 -39l-28 -128h-176c-29.333 0 -50 -6.66699 -62 -20s-20.667 -38 -26 -74c-6 -40.667 -4.83301 -67.334 3.5 -80.001s27.833 -19 58.5 -19c70 0 126 2.33301 168 7z" />
    <glyph glyph-name="Dcaron" unicode="&#x10e;" 
d="M359 737l-163 144l58 66l147 -81h8l171 77l40 -75l-179 -131h-82zM11 0l97.002 690.001c85.333 6.66699 179 10 281 10c78 0 139.167 -10.333 183.5 -31s75.666 -57.834 93.999 -111.501s20.833 -127.167 7.5 -220.5c-10 -70.667 -22.833 -127.667 -38.5 -171
s-37.5 -78.5 -65.5 -105.5s-61.333 -45.5 -100 -55.5s-88.334 -15 -149.001 -15c-104.667 0 -208 3.33301 -310 10zM249.002 148.001l69 -1c36.667 0 64.5 13.833 83.5 41.5s33.833 82.5 44.5 164.5c10.667 77.333 12.167 128.333 4.5 153s-30.5 37 -68.5 37h-78z" />
    <glyph glyph-name="dcaron" unicode="&#x10f;" horiz-adv-x="617" 
d="M421 700h209.999l-99 -700h-166l-4 80c-64 -61.333 -126.333 -92 -187 -92c-123.333 0 -173.666 92 -150.999 276c12 94 36 159.167 72 195.5s82.667 54.5 140 54.5c62.667 0 116 -4.33301 160 -13c0 40 2.33301 74.667 7 104zM734.999 699h31.9951
c24.667 0 41.834 -4.5 51.501 -13.5s12.834 -23.5 9.50098 -43.5l-8 -48c-4.66699 -26.667 -14.667 -55 -30 -85s-32.666 -54.333 -51.999 -73l-77 24c10 18.667 23 53 39 103c-19.333 -0.666992 -32.666 3 -39.999 11s-9.66602 20.333 -6.99902 37l6 35
c3.33301 20 10.833 33.833 22.5 41.5s29.5 11.5 53.5 11.5zM373.994 387h-47.001c-30 0 -50.667 -7.16699 -62 -21.5s-20.333 -46.166 -27 -95.499c-6.66699 -36 -8.66699 -63.333 -6 -82s13.334 -27.334 32.001 -26.001c25.333 1.33301 53.333 13 84 35z" />
    <glyph glyph-name="Dcroat" unicode="&#x110;" 
d="M69 413l39.002 277.001c85.333 6.66699 179 10 281 10c78 0 139.167 -10.333 183.5 -31s75.666 -57.834 93.999 -111.501s20.833 -127.167 7.5 -220.5c-10 -70.667 -22.833 -127.667 -38.5 -171s-37.5 -78.5 -65.5 -105.5s-61.333 -45.5 -100 -55.5
s-88.334 -15 -149.001 -15c-104.667 0 -208 3.33301 -310 10l44 313h-47l14 100h47zM249.002 148.001l69 -1c36.667 0 64.5 13.833 83.5 41.5s33.833 82.5 44.5 164.5c10.667 77.333 12.167 128.333 4.5 153s-30.5 37 -68.5 37h-78l-18 -130h87l-14 -100h-87z" />
    <glyph glyph-name="dcroat" unicode="&#x111;" horiz-adv-x="622" 
d="M673 547h-64.001l-77 -547h-166l-4 80c-64 -61.333 -126.333 -92 -187 -92c-123.333 0 -173.666 92 -150.999 276c12 94 36 159.167 72 195.5s82.667 54.5 140 54.5c62.667 0 116 -4.33301 160 -13c0 20 0.333008 35.333 1 46h-95l12 84h94l13 69h210l-10 -69h64z
M373.999 387h-47.001c-30 0 -50.667 -7.16699 -62 -21.5s-20.333 -46.166 -27 -95.499c-6.66699 -36 -8.66699 -63.333 -6 -82s13.334 -27.334 32.001 -26.001c25.333 1.33301 53.333 13 84 35z" />
    <glyph glyph-name="Emacron" unicode="&#x112;" horiz-adv-x="587" 
d="M542 772h-320l17 123h320zM583 528l-240.002 0.000976562c-17.333 0 -29.666 -3 -36.999 -9s-12 -16.333 -14 -31l-9 -63h249l-18 -144h-251l-11 -80c-4 -26 8.33301 -39 37 -39h240l-4 -154c-59.333 -8 -172 -12 -338 -12c-56 0 -97.667 17.333 -125 52
s-37.333 80 -30 136l50 357c6.66699 47.333 25.334 84.666 56.001 111.999s71 41 121 41c165.333 0 281.333 -4.66699 348 -14z" />
    <glyph glyph-name="emacron" unicode="&#x113;" horiz-adv-x="590" 
d="M506 584h-320l17 123h320zM512 160l13.999 -127.999c-63.333 -29.333 -142.333 -44 -237 -44c-56 0 -102.667 5.66699 -140 17s-66 28.666 -86 51.999s-33.167 50.833 -39.5 82.5s-7.16602 69.834 -2.49902 114.501c5.33301 52.667 15.666 96.334 30.999 131.001
s36.5 61.167 63.5 79.5s57 31.166 90 38.499s73.167 11 120.5 11c100 0 168.667 -15.333 206 -46s51.333 -77.334 42 -140.001c-6 -43.333 -25.167 -73.5 -57.5 -90.5s-84.166 -28.167 -155.499 -33.5l-125 -9c0.666992 -18.667 6.16699 -31 16.5 -37s28.5 -9 54.5 -9
c72.667 0 141 3.66699 205 11zM248.999 297.001l57.001 6.00195c24 2 40.833 5.83301 50.5 11.5s15.5 17.167 17.5 34.5c1.33301 11.333 -1.16699 19.333 -7.5 24s-19.166 6.66699 -38.499 6c-24.667 -0.666992 -42.334 -6.33398 -53.001 -17.001
s-19.334 -32.334 -26.001 -65.001z" />
    <glyph glyph-name="Edotaccent" unicode="&#x116;" horiz-adv-x="587" 
d="M420 752h-63.001c-43.333 0 -62 20.333 -56 61l6 47c5.33301 35.333 26 53 62 53h59c18.667 0 33.334 -5 44.001 -15s15 -24.667 13 -44l-5 -49c-4 -35.333 -24 -53 -60 -53zM582.999 528l-240.002 0.000976562c-17.333 0 -29.666 -3 -36.999 -9s-12 -16.333 -14 -31
l-9 -63h249l-18 -144h-251l-11 -80c-4 -26 8.33301 -39 37 -39h240l-4 -154c-59.333 -8 -172 -12 -338 -12c-56 0 -97.667 17.333 -125 52s-37.333 80 -30 136l50 357c6.66699 47.333 25.334 84.666 56.001 111.999s71 41 121 41c165.333 0 281.333 -4.66699 348 -14z" />
    <glyph glyph-name="edotaccent" unicode="&#x117;" horiz-adv-x="590" 
d="M384 564h-63.001c-43.333 0 -62 20.333 -56 61l6 47c5.33301 35.333 26 53 62 53h59c18.667 0 33.334 -5 44.001 -15s15 -24.667 13 -44l-5 -49c-4 -35.333 -24 -53 -60 -53zM511.999 160l13.999 -127.999c-63.333 -29.333 -142.333 -44 -237 -44
c-56 0 -102.667 5.66699 -140 17s-66 28.666 -86 51.999s-33.167 50.833 -39.5 82.5s-7.16602 69.834 -2.49902 114.501c5.33301 52.667 15.666 96.334 30.999 131.001s36.5 61.167 63.5 79.5s57 31.166 90 38.499s73.167 11 120.5 11c100 0 168.667 -15.333 206 -46
s51.333 -77.334 42 -140.001c-6 -43.333 -25.167 -73.5 -57.5 -90.5s-84.166 -28.167 -155.499 -33.5l-125 -9c0.666992 -18.667 6.16699 -31 16.5 -37s28.5 -9 54.5 -9c72.667 0 141 3.66699 205 11zM248.998 297.001l57.001 6.00195c24 2 40.833 5.83301 50.5 11.5
s15.5 17.167 17.5 34.5c1.33301 11.333 -1.16699 19.333 -7.5 24s-19.166 6.66699 -38.499 6c-24.667 -0.666992 -42.334 -6.33398 -53.001 -17.001s-19.334 -32.334 -26.001 -65.001z" />
    <glyph glyph-name="Eogonek" unicode="&#x118;" horiz-adv-x="587" 
d="M583 528h-240.002c-17.333 0 -29.666 -3 -36.999 -9s-12 -16.333 -14 -31l-9 -63h249l-18 -144h-251l-11 -80c-4 -26 8.33301 -39 37 -39h240l-4 -154c-28 -30 -47 -60.333 -57 -91c-3.33301 -11.333 -2.66602 -18.833 2.00098 -22.5s14.667 -4.16699 30 -1.5l15 -74
c-32.667 -12 -62.5 -19 -89.5 -21s-48.167 0.333008 -63.5 7s-28 15.667 -38 27s-14.5 24.333 -13.5 39s4.5 29.334 10.5 44.001c14 28 43 56 87 84c-48.667 -2 -122.334 -3 -221.001 -3c-56 0 -97.667 17.333 -125 52s-37.333 80 -30 136l50 357
c6.66699 47.333 25.334 84.666 56.001 111.999s71 41 121 41c165.333 0 281.333 -4.66699 348 -14z" />
    <glyph glyph-name="eogonek" unicode="&#x119;" horiz-adv-x="590" 
d="M501 -83l14.9971 -74.001c-32.667 -12 -62.5 -19 -89.5 -21s-48.167 0.333008 -63.5 7s-28 15.667 -38 27s-14.5 24.333 -13.5 39s4.5 29.334 10.5 44.001c8.66699 16.667 23.334 34.334 44.001 53.001c-23.333 -2.66699 -49 -4 -77 -4c-56 0 -102.667 5.66699 -140 17
s-66 28.666 -86 51.999s-33.167 50.833 -39.5 82.5s-7.16602 69.834 -2.49902 114.501c5.33301 52.667 15.666 96.334 30.999 131.001s36.5 61.167 63.5 79.5s57 31.166 90 38.499s73.167 11 120.5 11c100 0 168.667 -15.333 206 -46s51.333 -77.334 42 -140.001
c-6 -43.333 -25.167 -73.5 -57.5 -90.5s-84.166 -28.167 -155.499 -33.5l-125 -9c0.666992 -18.667 6.16699 -31 16.5 -37s28.5 -9 54.5 -9c72.667 0 141 3.66699 205 11l14 -128c-28 -30 -47 -60.333 -57 -91c-3.33301 -11.333 -2.66602 -18.833 2.00098 -22.5
s14.667 -4.16699 30 -1.5zM248.997 296.999l57.001 6.00195c24 2 40.833 5.83301 50.5 11.5s15.5 17.167 17.5 34.5c1.33301 11.333 -1.16699 19.333 -7.5 24s-19.166 6.66699 -38.499 6c-24.667 -0.666992 -42.334 -6.33398 -53.001 -17.001
s-19.334 -32.334 -26.001 -65.001z" />
    <glyph glyph-name="Ecaron" unicode="&#x11a;" horiz-adv-x="587" 
d="M341 737l-163 144l58 66l147 -81h8l171 77l40 -75l-179 -131h-82zM583 528l-240.002 0.000976562c-17.333 0 -29.666 -3 -36.999 -9s-12 -16.333 -14 -31l-9 -63h249l-18 -144h-251l-11 -80c-4 -26 8.33301 -39 37 -39h240l-4 -154c-59.333 -8 -172 -12 -338 -12
c-56 0 -97.667 17.333 -125 52s-37.333 80 -30 136l50 357c6.66699 47.333 25.334 84.666 56.001 111.999s71 41 121 41c165.333 0 281.333 -4.66699 348 -14z" />
    <glyph glyph-name="ecaron" unicode="&#x11b;" horiz-adv-x="590" 
d="M305 549l-163 144l58 66l147 -81h8l171 77l40 -75l-179 -131h-82zM512 160l13.999 -127.999c-63.333 -29.333 -142.333 -44 -237 -44c-56 0 -102.667 5.66699 -140 17s-66 28.666 -86 51.999s-33.167 50.833 -39.5 82.5s-7.16602 69.834 -2.49902 114.501
c5.33301 52.667 15.666 96.334 30.999 131.001s36.5 61.167 63.5 79.5s57 31.166 90 38.499s73.167 11 120.5 11c100 0 168.667 -15.333 206 -46s51.333 -77.334 42 -140.001c-6 -43.333 -25.167 -73.5 -57.5 -90.5s-84.166 -28.167 -155.499 -33.5l-125 -9
c0.666992 -18.667 6.16699 -31 16.5 -37s28.5 -9 54.5 -9c72.667 0 141 3.66699 205 11zM248.999 297.001l57.001 6.00195c24 2 40.833 5.83301 50.5 11.5s15.5 17.167 17.5 34.5c1.33301 11.333 -1.16699 19.333 -7.5 24s-19.166 6.66699 -38.499 6
c-24.667 -0.666992 -42.334 -6.33398 -53.001 -17.001s-19.334 -32.334 -26.001 -65.001z" />
    <glyph glyph-name="Gbreve" unicode="&#x11e;" horiz-adv-x="670" 
d="M520 920l94.001 -14.999c1.33301 -46.667 -15.667 -86.334 -51 -119.001s-83 -49 -143 -49c-60.667 0 -106.5 17.833 -137.5 53.5s-39.167 76.5 -24.5 122.5l98 5c-3.33301 -20.667 0.666992 -35 12 -43s31.666 -12 60.999 -12c56.667 0 87 19 91 57zM441.001 397.001
l206.997 0.00195312l-56 -397h-159l-8 80c-61.333 -62.667 -128.666 -94 -201.999 -94c-155.333 0 -215.666 122.333 -180.999 367c10 71.333 24 129.666 42 174.999s42.833 81.166 74.5 107.499s67.834 44.333 108.501 54s91.667 14.5 153 14.5
c89.333 0 166.333 -10 231 -30l-24 -155c-100 1.33301 -174 2 -222 2c-43.333 0 -74.166 -12.667 -92.499 -38s-33.166 -74 -44.499 -146c-10.667 -68 -12.334 -112.667 -5.00098 -134s27.666 -32 60.999 -32c31.333 0 61.333 10.333 90 31z" />
    <glyph glyph-name="gbreve" unicode="&#x11f;" horiz-adv-x="618" 
d="M461 738l94.001 -14.999c1.33301 -46.667 -15.667 -86.334 -51 -119.001s-83 -49 -143 -49c-60.667 0 -106.5 17.833 -137.5 53.5s-39.167 76.5 -24.5 122.5l98 5c-3.33301 -20.667 0.666992 -35 12 -43s31.666 -12 60.999 -12c56.667 0 87 19 91 57zM15.001 -55.999
l126 0.000976562c102.667 0 167.667 21.333 195 64c8.66699 12.667 16.167 30.667 22.5 54s11.833 39.666 16.5 48.999c-45.333 -71.333 -112.666 -109 -201.999 -113c-68.667 -3.33301 -113.834 18 -135.501 64s-25.5 113.333 -11.5 202
c5.33301 33.333 11.833 62.833 19.5 88.5s16 47.334 25 65.001s20.167 32.5 33.5 44.5s26 21.333 38 28s27.5 11.834 46.5 15.501s36.167 6 51.5 7s35 1.5 59 1.5c62 0 121.333 -3.33301 178 -10s98.334 -14 125.001 -22l-55 -392
c-6.66699 -50.667 -17.834 -94.334 -33.501 -131.001s-33.167 -65.334 -52.5 -86.001s-42.833 -37 -70.5 -49s-53.667 -19.667 -78 -23s-52.5 -5 -84.5 -5c-98.667 0 -173 11.667 -223 35zM379.001 377.002h-48c-31.333 0 -52.5 -7 -63.5 -21s-20.167 -42.667 -27.5 -86
c-4.66699 -26 -7.66699 -47 -9 -63s-1 -28.667 1 -38s5.33301 -15.5 10 -18.5s11.667 -3.5 21 -1.5c31.333 6 63 32 95 78z" />
    <glyph glyph-name="Gdotaccent" unicode="&#x120;" horiz-adv-x="670" 
d="M453 752h-63.001c-43.333 0 -62 20.333 -56 61l6 47c5.33301 35.333 26 53 62 53h59c18.667 0 33.334 -5 44.001 -15s15 -24.667 13 -44l-5 -49c-4 -35.333 -24 -53 -60 -53zM440.999 397l206.997 0.00195312l-56 -397h-159l-8 80
c-61.333 -62.667 -128.666 -94 -201.999 -94c-155.333 0 -215.666 122.333 -180.999 367c10 71.333 24 129.666 42 174.999s42.833 81.166 74.5 107.499s67.834 44.333 108.501 54s91.667 14.5 153 14.5c89.333 0 166.333 -10 231 -30l-24 -155c-100 1.33301 -174 2 -222 2
c-43.333 0 -74.166 -12.667 -92.499 -38s-33.166 -74 -44.499 -146c-10.667 -68 -12.334 -112.667 -5.00098 -134s27.666 -32 60.999 -32c31.333 0 61.333 10.333 90 31z" />
    <glyph glyph-name="gdotaccent" unicode="&#x121;" horiz-adv-x="618" 
d="M394 570h-63.001c-43.333 0 -62 20.333 -56 61l6 47c5.33301 35.333 26 53 62 53h59c18.667 0 33.334 -5 44.001 -15s15 -24.667 13 -44l-5 -49c-4 -35.333 -24 -53 -60 -53zM14.999 -56l126 0.000976562c102.667 0 167.667 21.333 195 64
c8.66699 12.667 16.167 30.667 22.5 54s11.833 39.666 16.5 48.999c-45.333 -71.333 -112.666 -109 -201.999 -113c-68.667 -3.33301 -113.834 18 -135.501 64s-25.5 113.333 -11.5 202c5.33301 33.333 11.833 62.833 19.5 88.5s16 47.334 25 65.001s20.167 32.5 33.5 44.5
s26 21.333 38 28s27.5 11.834 46.5 15.501s36.167 6 51.5 7s35 1.5 59 1.5c62 0 121.333 -3.33301 178 -10s98.334 -14 125.001 -22l-55 -392c-6.66699 -50.667 -17.834 -94.334 -33.501 -131.001s-33.167 -65.334 -52.5 -86.001s-42.833 -37 -70.5 -49
s-53.667 -19.667 -78 -23s-52.5 -5 -84.5 -5c-98.667 0 -173 11.667 -223 35zM378.999 377.001h-48c-31.333 0 -52.5 -7 -63.5 -21s-20.167 -42.667 -27.5 -86c-4.66699 -26 -7.66699 -47 -9 -63s-1 -28.667 1 -38s5.33301 -15.5 10 -18.5s11.667 -3.5 21 -1.5
c31.333 6 63 32 95 78z" />
    <glyph glyph-name="Gcommaaccent" unicode="&#x122;" horiz-adv-x="670" 
d="M441 397l206.997 0.00195312l-56 -397h-159l-8 80c-61.333 -62.667 -128.666 -94 -201.999 -94c-155.333 0 -215.666 122.333 -180.999 367c10 71.333 24 129.666 42 174.999s42.833 81.166 74.5 107.499s67.834 44.333 108.501 54s91.667 14.5 153 14.5
c89.333 0 166.333 -10 231 -30l-24 -155c-100 1.33301 -174 2 -222 2c-43.333 0 -74.166 -12.667 -92.499 -38s-33.166 -74 -44.499 -146c-10.667 -68 -12.334 -112.667 -5.00098 -134s27.666 -32 60.999 -32c31.333 0 61.333 10.333 90 31zM306.997 -47.998h31.9951
c24.667 0 41.834 -4.5 51.501 -13.5s12.834 -23.5 9.50098 -43.5l-8 -48c-4.66699 -26.667 -14.667 -55 -30 -85s-32.666 -54.333 -51.999 -73l-77 24c10 18.667 23 53 39 103c-19.333 -0.666992 -32.666 3 -39.999 11s-9.66602 20.333 -6.99902 37l6 35
c3.33301 20 10.833 33.833 22.5 41.5s29.5 11.5 53.5 11.5z" />
    <glyph glyph-name="gcommaaccent" unicode="&#x123;" horiz-adv-x="618" 
d="M373 548h-31.9951c-24.667 0 -41.834 4.5 -51.501 13.5s-12.834 23.5 -9.50098 43.5l8 48c4.66699 26.667 14.667 55 30 85s32.666 54.333 51.999 73l77 -24c-10 -18.667 -23 -53 -39 -103c19.333 0.666992 32.666 -3 39.999 -11s9.66602 -20.333 6.99902 -37l-6 -35
c-3.33301 -20 -10.833 -33.833 -22.5 -41.5s-29.5 -11.5 -53.5 -11.5zM15.0049 -56l126 0.000976562c102.667 0 167.667 21.333 195 64c8.66699 12.667 16.167 30.667 22.5 54s11.833 39.666 16.5 48.999c-45.333 -71.333 -112.666 -109 -201.999 -113
c-68.667 -3.33301 -113.834 18 -135.501 64s-25.5 113.333 -11.5 202c5.33301 33.333 11.833 62.833 19.5 88.5s16 47.334 25 65.001s20.167 32.5 33.5 44.5s26 21.333 38 28s27.5 11.834 46.5 15.501s36.167 6 51.5 7s35 1.5 59 1.5c62 0 121.333 -3.33301 178 -10
s98.334 -14 125.001 -22l-55 -392c-6.66699 -50.667 -17.834 -94.334 -33.501 -131.001s-33.167 -65.334 -52.5 -86.001s-42.833 -37 -70.5 -49s-53.667 -19.667 -78 -23s-52.5 -5 -84.5 -5c-98.667 0 -173 11.667 -223 35zM379.005 377.001h-48
c-31.333 0 -52.5 -7 -63.5 -21s-20.167 -42.667 -27.5 -86c-4.66699 -26 -7.66699 -47 -9 -63s-1 -28.667 1 -38s5.33301 -15.5 10 -18.5s11.667 -3.5 21 -1.5c31.333 6 63 32 95 78z" />
    <glyph glyph-name="Hbar" unicode="&#x126;" horiz-adv-x="705" 
d="M734 509h-51l-72 -509h-217l41 289h-165l-41 -289h-217l72 509h-53l14 92h51l13 89h217l-13 -89h165l13 89h217l-13 -89h53zM466 509h-165l-10 -66h165z" />
    <glyph glyph-name="hbar" unicode="&#x127;" horiz-adv-x="615" 
d="M397 547h-111c-5.33301 -39.333 -15 -79 -29 -119c66 57.333 129.333 86 190 86c50.667 0 88 -12.5 112 -37.5s32.667 -60.5 26 -106.5l-52 -370h-210l44 311c2 10.667 1.66699 17.667 -1 21s-8.66699 5 -18 5c-30 0 -62.667 -13.667 -98 -41l-41 -296h-210l77 547h-50
l12 84h49l10 69h210l-9 -69h111z" />
    <glyph glyph-name="Imacron" unicode="&#x12a;" horiz-adv-x="322" 
d="M387 772h-320l17 123h320zM228 0h-216l97 690h216z" />
    <glyph glyph-name="imacron" unicode="&#x12b;" horiz-adv-x="306" 
d="M345 584h-320l17 123h320zM218 0h-211l70 500h211z" />
    <glyph glyph-name="Iogonek" unicode="&#x12e;" horiz-adv-x="322" 
d="M325 690l-97.001 -690.001h-29c-28 -30 -47 -60.333 -57 -91c-3.33301 -11.333 -2.66602 -18.833 2.00098 -22.5s14.667 -4.16699 30 -1.5l15 -74c-32.667 -12 -62.5 -19 -89.5 -21s-48.167 0.333008 -63.5 7s-28 15.667 -38 27s-14.5 24.333 -13.5 39
s4.5 29.334 10.5 44.001c16.667 32 51 63 103 93h-86l97 690h216z" />
    <glyph glyph-name="iogonek" unicode="&#x12f;" horiz-adv-x="306" 
d="M172 725h58.999c18.667 0 33.334 -5 44.001 -15s15 -24.667 13 -44l-5 -49c-4 -35.333 -24 -53 -60 -53h-63c-43.333 0 -62 20.333 -56 61l6 47c5.33301 35.333 26 53 62 53zM76.999 500l210.999 -0.000976562l-70 -500h-20c-28 -30 -47 -60.333 -57 -91
c-3.33301 -11.333 -2.66602 -18.833 2.00098 -22.5s14.667 -4.16699 30 -1.5l15 -74c-32.667 -12 -62.5 -19 -89.5 -21s-48.167 0.333008 -63.5 7s-28 15.667 -38 27s-14.5 24.333 -13.5 39s4.5 29.334 10.5 44.001c16.667 32 51 63 103 93h-90z" />
    <glyph glyph-name="Idotaccent" unicode="&#x130;" horiz-adv-x="322" 
d="M214 913h58.999c18.667 0 33.334 -5 44.001 -15s15 -24.667 13 -44l-5 -49c-4 -35.333 -24 -53 -60 -53h-63c-43.333 0 -62 20.333 -56 61l6 47c5.33301 35.333 26 53 62 53zM227.999 0h-216l97 690h216z" />
    <glyph glyph-name="dotlessi" unicode="&#x131;" horiz-adv-x="306" 
d="M218 0h-211l70 500h211z" />
    <glyph glyph-name="IJ" unicode="&#x132;" horiz-adv-x="717" 
d="M228 0h-216l97 690h216zM722 690l-77.999 -567c-6.66699 -44 -26.167 -77.833 -58.5 -101.5s-74.166 -35.5 -125.499 -35.5c-28 0 -58.333 2.5 -91 7.5s-56.334 11.833 -71.001 20.5l34 134h37c39.333 0 60.666 13 63.999 39l73 503h216z" />
    <glyph glyph-name="ij" unicode="&#x133;" horiz-adv-x="610" 
d="M169 729h81c44.667 0 64.667 -22 60 -66l-7 -51c-4.66699 -38.667 -27.667 -58 -69 -58h-82c-44 0 -63.667 22 -59 66l7 51c4 38.667 27 58 69 58zM475 729h79.001c45.333 0 65 -22 59 -66l-7 -51c-4.66699 -38.667 -28.334 -58 -71.001 -58h-79
c-44.667 0 -64.667 22 -60 66l7 51c4.66699 38.667 28.667 58 72 58zM216.001 0h-209l69 500h209zM593.001 500l-65 -446.001c-6.66699 -53.333 -26.167 -102.666 -58.5 -147.999s-73.5 -78 -123.5 -98l-115 97c51.333 48 81 100.333 89 157l63 438h210z" />
    <glyph glyph-name="Kcommaaccent" unicode="&#x136;" horiz-adv-x="668" 
d="M460 343l-1.00195 -4.00098c9.33301 -4 19.333 -12.833 30 -26.5s19 -28.167 25 -43.5l120 -269h-234l-107 288h-31c2.66699 -21.333 2.33398 -43.666 -0.999023 -66.999l-31 -221h-218l97 690h218l-27 -191c-3.33301 -25.333 -8.66602 -49 -15.999 -71h33l168 262h240
l-193 -288c-18 -28 -42 -47.667 -72 -59zM291.998 -48.001h31.9951c24.667 0 41.834 -4.5 51.501 -13.5s12.834 -23.5 9.50098 -43.5l-8 -48c-4.66699 -26.667 -14.667 -55 -30 -85s-32.666 -54.333 -51.999 -73l-77 24c10 18.667 23 53 39 103
c-19.333 -0.666992 -32.666 3 -39.999 11s-9.66602 20.333 -6.99902 37l6 35c3.33301 20 10.833 33.833 22.5 41.5s29.5 11.5 53.5 11.5z" />
    <glyph glyph-name="kcommaaccent" unicode="&#x137;" horiz-adv-x="609" 
d="M388 500l215.998 0.000976562c-22.667 -101.333 -79.667 -182 -171 -242c24.667 -17.333 43.334 -40.333 56.001 -69l91 -189h-215l-85 185c-14.667 -6 -29.667 -11 -45 -15c0 -8.66699 -0.666992 -19 -2 -31l-20 -139h-210l98 700h210l-38 -272
c-6.66699 -40.667 -21 -81.334 -43 -122.001c39.333 21.333 73.333 49.5 102 84.5s47.334 71.5 56.001 109.5zM263.998 -37.999h31.9951c24.667 0 41.834 -4.5 51.501 -13.5s12.834 -23.5 9.50098 -43.5l-8 -48c-4.66699 -26.667 -14.667 -55 -30 -85
s-32.666 -54.333 -51.999 -73l-77 24c10 18.667 23 53 39 103c-19.333 -0.666992 -32.666 3 -39.999 11s-9.66602 20.333 -6.99902 37l6 35c3.33301 20 10.833 33.833 22.5 41.5s29.5 11.5 53.5 11.5z" />
    <glyph glyph-name="Lacute" unicode="&#x139;" horiz-adv-x="552" 
d="M445 802l-266 -96l-47 86l247 156zM323 690l-71.001 -478c-1.33301 -15.333 0.5 -25.833 5.5 -31.5s15.167 -8.5 30.5 -8.5h228l-4 -163c-66.667 -8.66699 -177 -13 -331 -13c-50 0 -89.167 15.167 -117.5 45.5s-39.166 68.833 -32.499 115.5l74 533h218z" />
    <glyph glyph-name="lacute" unicode="&#x13a;" horiz-adv-x="360" 
d="M441 821l-266 -96l-47 86l247 156zM311 700l-74.998 -522c-2.66699 -12.667 -1.33398 -21.167 3.99902 -25.5s17 -6.5 35 -6.5h40l12 -136c-28.667 -16 -76.334 -24 -143.001 -24c-56 0 -98.5 13 -127.5 39s-40.833 61 -35.5 105l81 570h209z" />
    <glyph glyph-name="Lcommaaccent" unicode="&#x13b;" horiz-adv-x="552" 
d="M323 690l-71.001 -478c-1.33301 -15.333 0.5 -25.833 5.5 -31.5s15.167 -8.5 30.5 -8.5h228l-4 -163c-66.667 -8.66699 -177 -13 -331 -13c-50 0 -89.167 15.167 -117.5 45.5s-39.166 68.833 -32.499 115.5l74 533h218zM240.999 -48h31.9951
c24.667 0 41.834 -4.5 51.501 -13.5s12.834 -23.5 9.50098 -43.5l-8 -48c-4.66699 -26.667 -14.667 -55 -30 -85s-32.666 -54.333 -51.999 -73l-77 24c10 18.667 23 53 39 103c-19.333 -0.666992 -32.666 3 -39.999 11s-9.66602 20.333 -6.99902 37l6 35
c3.33301 20 10.833 33.833 22.5 41.5s29.5 11.5 53.5 11.5z" />
    <glyph glyph-name="lcommaaccent" unicode="&#x13c;" horiz-adv-x="360" 
d="M311 700l-74.998 -522c-2.66699 -12.667 -1.33398 -21.167 3.99902 -25.5s17 -6.5 35 -6.5h40l12 -136c-28.667 -16 -76.334 -24 -143.001 -24c-56 0 -98.5 13 -127.5 39s-40.833 61 -35.5 105l81 570h209zM141.002 -43h31.9951c24.667 0 41.834 -4.5 51.501 -13.5
s12.834 -23.5 9.50098 -43.5l-8 -48c-4.66699 -26.667 -14.667 -55 -30 -85s-32.666 -54.333 -51.999 -73l-77 24c10 18.667 23 53 39 103c-19.333 -0.666992 -32.666 3 -39.999 11s-9.66602 20.333 -6.99902 37l6 35c3.33301 20 10.833 33.833 22.5 41.5
s29.5 11.5 53.5 11.5z" />
    <glyph glyph-name="Lcaron" unicode="&#x13d;" horiz-adv-x="552" 
d="M323 690l-71.001 -478c-1.33301 -15.333 0.5 -25.833 5.5 -31.5s15.167 -8.5 30.5 -8.5h228l-4 -163c-66.667 -8.66699 -177 -13 -331 -13c-50 0 -89.167 15.167 -117.5 45.5s-39.166 68.833 -32.499 115.5l74 533h218zM438.999 689h31.9951
c24.667 0 41.834 -4.5 51.501 -13.5s12.834 -23.5 9.50098 -43.5l-8 -48c-4.66699 -26.667 -14.667 -55 -30 -85s-32.666 -54.333 -51.999 -73l-77 24c10 18.667 23 53 39 103c-19.333 -0.666992 -32.666 3 -39.999 11s-9.66602 20.333 -6.99902 37l6 35
c3.33301 20 10.833 33.833 22.5 41.5s29.5 11.5 53.5 11.5z" />
    <glyph glyph-name="lcaron" unicode="&#x13e;" horiz-adv-x="360" 
d="M311 700l-74.998 -522c-2.66699 -12.667 -1.33398 -21.167 3.99902 -25.5s17 -6.5 35 -6.5h40l12 -136c-28.667 -16 -76.334 -24 -143.001 -24c-56 0 -98.5 13 -127.5 39s-40.833 61 -35.5 105l81 570h209zM411.002 699h31.9951c24.667 0 41.834 -4.5 51.501 -13.5
s12.834 -23.5 9.50098 -43.5l-8 -48c-4.66699 -26.667 -14.667 -55 -30 -85s-32.666 -54.333 -51.999 -73l-77 24c10 18.667 23 53 39 103c-19.333 -0.666992 -32.666 3 -39.999 11s-9.66602 20.333 -6.99902 37l6 35c3.33301 20 10.833 33.833 22.5 41.5
s29.5 11.5 53.5 11.5z" />
    <glyph glyph-name="Ldot" unicode="&#x13f;" horiz-adv-x="552" 
d="M323 690l-71.001 -478c-1.33301 -15.333 0.5 -25.833 5.5 -31.5s15.167 -8.5 30.5 -8.5h228l-4 -163c-66.667 -8.66699 -177 -13 -331 -13c-50 0 -89.167 15.167 -117.5 45.5s-39.166 68.833 -32.499 115.5l74 533h218zM475.999 343h-58.999
c-18.667 0 -33.334 5 -44.001 15s-15 24.667 -13 44l5 49c4 35.333 24 53 60 53h63c43.333 0 62 -20.333 56 -61l-6 -47c-5.33301 -35.333 -26 -53 -62 -53z" />
    <glyph glyph-name="ldot" unicode="&#x140;" horiz-adv-x="504" 
d="M311 700l-74.998 -522c-2.66699 -12.667 -1.33398 -21.167 3.99902 -25.5s17 -6.5 35 -6.5h40l12 -136c-28.667 -16 -76.334 -24 -143.001 -24c-56 0 -98.5 13 -127.5 39s-40.833 61 -35.5 105l81 570h209zM442.002 291h-58.999c-18.667 0 -33.334 5 -44.001 15
s-15 24.667 -13 44l5 49c4 35.333 24 53 60 53h63c43.333 0 62 -20.333 56 -61l-6 -47c-5.33301 -35.333 -26 -53 -62 -53z" />
    <glyph glyph-name="Lslash" unicode="&#x141;" horiz-adv-x="556" 
d="M520 172l-4.00098 -163c-66.667 -8.66699 -177 -13 -331 -13c-50 0 -89.167 15.167 -117.5 45.5s-39.166 68.833 -32.499 115.5l18 130l-49 -18l14 104l50 18l41 299h218l-32 -215l104 38l-15 -104l-104 -38l-24 -159c-1.33301 -15.333 0.5 -25.833 5.5 -31.5
s15.167 -8.5 30.5 -8.5h228z" />
    <glyph glyph-name="lslash" unicode="&#x142;" horiz-adv-x="376" 
d="M276 371l-27.998 -193c-2.66699 -12.667 -1.33398 -21.167 3.99902 -25.5s17 -6.5 35 -6.5h40l12 -136c-28.667 -16 -76.334 -24 -143.001 -24c-56 0 -98.5 13 -127.5 39s-40.833 61 -35.5 105l23 160l-56 -21l14 104l56 21l44 306h209l-32 -225l104 38l-15 -104z" />
    <glyph glyph-name="Nacute" unicode="&#x143;" horiz-adv-x="730" 
d="M645 816l-266 -96l-47 86l247 156zM734 690l-87 -619c-3.33301 -24.667 -11.333 -42.667 -24 -54s-31 -17 -55 -17h-72c-20.667 0 -35.834 5 -45.501 15s-20.167 27.333 -31.5 52l-118 237c-12.667 24.667 -24.334 62.667 -35.001 114h-7
c1.33301 -48 -0.666992 -90.667 -6 -128l-43 -290h-199l87 619c3.33301 24.667 11.333 42.667 24 54s31 17 55 17h72c10.667 0 19.834 -1.33301 27.501 -4s14.5 -7.83398 20.5 -15.501s10.667 -14.167 14 -19.5s8 -14.666 14 -27.999l116 -225
c17.333 -36 31.333 -75.667 42 -119h8c-3.33301 40 -2.66602 79 2.00098 117l42 294h199z" />
    <glyph glyph-name="nacute" unicode="&#x144;" horiz-adv-x="619" 
d="M303 532l-47 86l247 156l66 -146zM236 500l4.99902 -88c32 32 67.333 57 106 75s76.334 27 113.001 27c43.333 0 77.5 -12.5 102.5 -37.5s34.167 -60.5 27.5 -106.5l-52 -370h-211l43 302c2 14 1.16699 23.667 -2.5 29s-11.834 7.33301 -24.501 6
c-27.333 -2.66699 -56.666 -16 -87.999 -40l-42 -297h-210l69 500h164z" />
    <glyph glyph-name="Ncommaaccent" unicode="&#x145;" horiz-adv-x="730" 
d="M734 690l-87 -619c-3.33301 -24.667 -11.333 -42.667 -24 -54s-31 -17 -55 -17h-72c-20.667 0 -35.834 5 -45.501 15s-20.167 27.333 -31.5 52l-118 237c-12.667 24.667 -24.334 62.667 -35.001 114h-7c1.33301 -48 -0.666992 -90.667 -6 -128l-43 -290h-199l87 619
c3.33301 24.667 11.333 42.667 24 54s31 17 55 17h72c10.667 0 19.834 -1.33301 27.501 -4s14.5 -7.83398 20.5 -15.501s10.667 -14.167 14 -19.5s8 -14.666 14 -27.999l116 -225c17.333 -36 31.333 -75.667 42 -119h8c-3.33301 40 -2.66602 79 2.00098 117l42 294h199z
M329 -48h31.9951c24.667 0 41.834 -4.5 51.501 -13.5s12.834 -23.5 9.50098 -43.5l-8 -48c-4.66699 -26.667 -14.667 -55 -30 -85s-32.666 -54.333 -51.999 -73l-77 24c10 18.667 23 53 39 103c-19.333 -0.666992 -32.666 3 -39.999 11s-9.66602 20.333 -6.99902 37l6 35
c3.33301 20 10.833 33.833 22.5 41.5s29.5 11.5 53.5 11.5z" />
    <glyph glyph-name="ncommaaccent" unicode="&#x146;" horiz-adv-x="619" 
d="M236 500l4.99902 -88c32 32 67.333 57 106 75s76.334 27 113.001 27c43.333 0 77.5 -12.5 102.5 -37.5s34.167 -60.5 27.5 -106.5l-52 -370h-211l43 302c2 14 1.16699 23.667 -2.5 29s-11.834 7.33301 -24.501 6c-27.333 -2.66699 -56.666 -16 -87.999 -40l-42 -297h-210
l69 500h164zM242.999 -38h31.9951c24.667 0 41.834 -4.5 51.501 -13.5s12.834 -23.5 9.50098 -43.5l-8 -48c-4.66699 -26.667 -14.667 -55 -30 -85s-32.666 -54.333 -51.999 -73l-77 24c10 18.667 23 53 39 103c-19.333 -0.666992 -32.666 3 -39.999 11
s-9.66602 20.333 -6.99902 37l6 35c3.33301 20 10.833 33.833 22.5 41.5s29.5 11.5 53.5 11.5z" />
    <glyph glyph-name="Ncaron" unicode="&#x147;" horiz-adv-x="730" 
d="M645 868l-179 -131h-82l-163 144l58 66l147 -81h8l171 77zM734 690l-87 -619c-3.33301 -24.667 -11.333 -42.667 -24 -54s-31 -17 -55 -17h-72c-20.667 0 -35.834 5 -45.501 15s-20.167 27.333 -31.5 52l-118 237c-12.667 24.667 -24.334 62.667 -35.001 114h-7
c1.33301 -48 -0.666992 -90.667 -6 -128l-43 -290h-199l87 619c3.33301 24.667 11.333 42.667 24 54s31 17 55 17h72c10.667 0 19.834 -1.33301 27.501 -4s14.5 -7.83398 20.5 -15.501s10.667 -14.167 14 -19.5s8 -14.666 14 -27.999l116 -225
c17.333 -36 31.333 -75.667 42 -119h8c-3.33301 40 -2.66602 79 2.00098 117l42 294h199z" />
    <glyph glyph-name="ncaron" unicode="&#x148;" horiz-adv-x="619" 
d="M308 549l-163 144l58 66l147 -81h8l171 77l40 -75l-179 -131h-82zM236 500l4.99902 -88c32 32 67.333 57 106 75s76.334 27 113.001 27c43.333 0 77.5 -12.5 102.5 -37.5s34.167 -60.5 27.5 -106.5l-52 -370h-211l43 302c2 14 1.16699 23.667 -2.5 29
s-11.834 7.33301 -24.501 6c-27.333 -2.66699 -56.666 -16 -87.999 -40l-42 -297h-210l69 500h164z" />
    <glyph glyph-name="Eng" unicode="&#x14a;" horiz-adv-x="735" 
d="M739 690l-103.001 -726.998c-7.33301 -53.333 -24.833 -94.5 -52.5 -123.5s-61.834 -43.5 -102.501 -43.5c-58 0 -107.333 9.33301 -148 28l37 134h30c29.333 0 46.333 10.333 51 31l5 24h-3c-2.66699 0 -5.16699 1.16699 -7.5 3.5s-4.66602 5.66602 -6.99902 9.99902
s-4.5 8.66602 -6.5 12.999s-4.16699 9.33301 -6.5 15s-4.16602 9.83398 -5.49902 12.501l-119 236c-11.333 25.333 -22.333 63.666 -33 114.999h-6c0 -46 -2.66699 -87.667 -8 -125l-43 -293h-200l87 619c3.33301 24.667 11.333 42.667 24 54s31 17 55 17h82
c20.667 0 36.167 -5.33301 46.5 -16s19.833 -27.667 28.5 -51l110 -226c19.333 -44 32.666 -83.333 39.999 -118h6c-1.33301 37.333 1.33398 80.333 8.00098 129l41 282h200z" />
    <glyph glyph-name="eng" unicode="&#x14b;" horiz-adv-x="619" 
d="M236 500l6 -86c71.333 66.667 141 100 209 100c50.667 0 88 -12.5 112 -37.5s33 -60.5 27 -106.5l-57 -398c-7.33301 -54 -25.5 -95.333 -54.5 -124s-66.833 -43 -113.5 -43c-26 0 -54.833 2.5 -86.5 7.5s-54.834 11.833 -69.501 20.5l36 134h30
c12.667 0 24 2.83301 34 8.5s15.667 13.167 17 22.5l45 313c2 10.667 0.833008 18 -3.5 22s-12.166 5.33301 -23.499 4c-28 -2.66699 -57.667 -16 -89 -40l-42 -297h-210l69 500h164z" />
    <glyph glyph-name="Omacron" unicode="&#x14c;" 
d="M577 772h-320l17 123h320zM389 704c47.333 0 87.666 -3.5 120.999 -10.5s63 -19 89 -36s45.167 -39.5 57.5 -67.5s20.833 -62.833 25.5 -104.5s2.33398 -91.167 -6.99902 -148.5c-9.33301 -71.333 -22.666 -129.666 -39.999 -174.999s-40.666 -81 -69.999 -107
s-63 -44 -101 -54s-85.333 -15 -142 -15c-82 0 -144.833 10.833 -188.5 32.5s-73.334 59.167 -89.001 112.5s-16.834 127.333 -3.50098 222c10 70.667 23.333 128.5 40 173.5s39.5 80.667 68.5 107s62.167 44.666 99.5 54.999s84 15.5 140 15.5zM387 543
c-36 0 -61.499 -12.833 -76.499 -38.5s-29.167 -81.5 -42.5 -167.5c-12 -79.333 -14.167 -130.833 -6.5 -154.5s29.5 -35.5 65.5 -35.5c37.333 0 63.333 12.833 78 38.5s28.667 81.5 42 167.5c11.333 78.667 13.166 130 5.49902 154s-29.5 36 -65.5 36z" />
    <glyph glyph-name="omacron" unicode="&#x14d;" horiz-adv-x="615" 
d="M508 584h-320l17 123h320zM327 514c102 0 173.5 -21 214.5 -63s54.5 -112 40.5 -210c-13.333 -94 -42.5 -159.667 -87.5 -197s-117.167 -56 -216.5 -56c-101.333 0 -173 20.833 -215 62.5s-56 110.5 -42 206.5c13.333 95.333 42.5 162 87.5 200s117.833 57 218.5 57z
M323 372c-26.667 0 -45.167 -8.16699 -55.5 -24.5s-19.5 -51.833 -27.5 -106.5c-6.66699 -46 -7.16699 -76 -1.5 -90s21.5 -21 47.5 -21c25.333 0 42.833 7.83301 52.5 23.5s18.5 50.167 26.5 103.5c7.33301 47.333 8.33301 78.333 3 93s-20.333 22 -45 22z" />
    <glyph glyph-name="Ohungarumlaut" unicode="&#x150;" 
d="M486 884l-183 -161l-85 52l147 193zM701 884l-184 -161l-84 51l147 194zM389 704c47.333 0 87.666 -3.5 120.999 -10.5s63 -19 89 -36s45.167 -39.5 57.5 -67.5s20.833 -62.833 25.5 -104.5s2.33398 -91.167 -6.99902 -148.5
c-9.33301 -71.333 -22.666 -129.666 -39.999 -174.999s-40.666 -81 -69.999 -107s-63 -44 -101 -54s-85.333 -15 -142 -15c-82 0 -144.833 10.833 -188.5 32.5s-73.334 59.167 -89.001 112.5s-16.834 127.333 -3.50098 222c10 70.667 23.333 128.5 40 173.5
s39.5 80.667 68.5 107s62.167 44.666 99.5 54.999s84 15.5 140 15.5zM387 543c-36 0 -61.499 -12.833 -76.499 -38.5s-29.167 -81.5 -42.5 -167.5c-12 -79.333 -14.167 -130.833 -6.5 -154.5s29.5 -35.5 65.5 -35.5c37.333 0 63.333 12.833 78 38.5s28.667 81.5 42 167.5
c11.333 78.667 13.166 130 5.49902 154s-29.5 36 -65.5 36z" />
    <glyph glyph-name="ohungarumlaut" unicode="&#x151;" horiz-adv-x="615" 
d="M417 696l-183 -161l-85 52l147 193zM632 696l-184 -161l-84 51l147 194zM327 514c102 0 173.5 -21 214.5 -63s54.5 -112 40.5 -210c-13.333 -94 -42.5 -159.667 -87.5 -197s-117.167 -56 -216.5 -56c-101.333 0 -173 20.833 -215 62.5s-56 110.5 -42 206.5
c13.333 95.333 42.5 162 87.5 200s117.833 57 218.5 57zM323 372c-26.667 0 -45.167 -8.16699 -55.5 -24.5s-19.5 -51.833 -27.5 -106.5c-6.66699 -46 -7.16699 -76 -1.5 -90s21.5 -21 47.5 -21c25.333 0 42.833 7.83301 52.5 23.5s18.5 50.167 26.5 103.5
c7.33301 47.333 8.33301 78.333 3 93s-20.333 22 -45 22z" />
    <glyph glyph-name="OE" unicode="&#x152;" horiz-adv-x="976" 
d="M970 528l-233 -0.00195312c-11.333 0 -22.166 -4 -32.499 -12s-16.166 -17.333 -17.499 -28l-10 -68h243l-17 -134h-245l-13 -92c-3.33301 -21.333 6 -32 28 -32h244l-4 -154c-60 -8 -174.667 -12 -344 -12c-33.333 0 -62 7.33301 -86 22
c-49.333 -21.333 -105 -32 -167 -32c-82 0 -144.333 10.667 -187 32s-71.334 58.5 -86.001 111.5s-15.334 127.5 -2.00098 223.5c10 70.667 23.167 128.334 39.5 173.001s38.833 80.334 67.5 107.001s62 45.167 100 55.5s86.333 15.5 145 15.5
c67.333 0 126.333 -8.66699 177 -26c22.667 10.667 46.667 16 72 16c168 0 285.667 -4.66699 353 -14zM424 161.998l52.998 375c-16.667 4 -44.334 6 -83.001 6c-37.333 0 -64.833 -14 -82.5 -42s-32.167 -82.667 -43.5 -164c-11.333 -78 -14.166 -129.167 -8.49902 -153.5
s23.834 -36.5 54.501 -36.5c50.667 0 87.334 5 110.001 15z" />
    <glyph glyph-name="oe" unicode="&#x153;" horiz-adv-x="909" 
d="M832 160l13 -128c-62 -29.333 -139.667 -44 -233 -44c-68.667 0 -125 15 -169 45c-48 -30 -105.667 -45 -173 -45c-98.667 0 -168.334 20.833 -209.001 62.5s-54 110.5 -40 206.5c13.333 95.333 42 162 86 200s114.667 57 212 57c62 0 114.333 -13.333 157 -40
c48 26.667 105.667 40 173 40c98.667 0 166.5 -15.333 203.5 -46s50.833 -77.334 41.5 -140.001c-6 -42.667 -25 -72.667 -57 -90s-82.667 -28.666 -152 -33.999l-122 -9c0.666992 -18.667 5.83398 -31 15.501 -37s27.167 -9 52.5 -9c71.333 0 138.333 3.66699 201 11z
M577 298l51.001 5.00098c23.333 2 39.833 5.83301 49.5 11.5s15.167 17.167 16.5 34.5c1.33301 11.333 -1 19.333 -7 24s-18 6.66699 -36 6c-23.333 -0.666992 -39.833 -6.33398 -49.5 -17.001s-17.834 -32 -24.501 -64zM279.001 130.001c22 0 37.332 7.83301 45.999 23.5
s16.667 50.167 24 103.5c7.33301 47.333 8.83301 78.333 4.5 93s-17.5 22 -39.5 22c-24 0 -40.667 -8 -50 -24s-17.666 -51.667 -24.999 -107c-6.66699 -46 -7.66699 -76 -3 -90s19 -21 43 -21z" />
    <glyph glyph-name="Racute" unicode="&#x154;" horiz-adv-x="669" 
d="M347 720l-47 86l247 156l66 -146zM11 0l96.998 690c66.667 6.66699 159.667 10 279 10c100.667 0 173.334 -16.5 218.001 -49.5s61.667 -89.167 51 -168.5c-6 -44.667 -20.5 -80.5 -43.5 -107.5s-60.5 -43.167 -112.5 -48.5l-1 -7c54.667 -8 85 -45 91 -111l26 -208h-224
l-18 209c-0.666992 18.667 -3.66699 30.5 -9 35.5s-15.666 7.5 -30.999 7.5h-76l-35 -252h-212zM279.998 405h75.0029c29.333 0 49.666 5 60.999 15s19.333 31.333 24 64c3.33301 24 1.16602 40.5 -6.50098 49.5s-23.834 13.5 -48.501 13.5h-85z" />
    <glyph glyph-name="racute" unicode="&#x155;" horiz-adv-x="452" 
d="M241 532l-47 86l247 156l66 -146zM237 500l7 -68c66 54.667 132.333 82 199 82h36l-43 -192h-47c-34 0 -78.333 -4.33301 -133 -13l-42 -309h-211l70 500h164z" />
    <glyph glyph-name="Rcommaaccent" unicode="&#x156;" horiz-adv-x="669" 
d="M11 0l96.998 690c66.667 6.66699 159.667 10 279 10c100.667 0 173.334 -16.5 218.001 -49.5s61.667 -89.167 51 -168.5c-6 -44.667 -20.5 -80.5 -43.5 -107.5s-60.5 -43.167 -112.5 -48.5l-1 -7c54.667 -8 85 -45 91 -111l26 -208h-224l-18 209
c-0.666992 18.667 -3.66699 30.5 -9 35.5s-15.666 7.5 -30.999 7.5h-76l-35 -252h-212zM279.998 405h75.0029c29.333 0 49.666 5 60.999 15s19.333 31.333 24 64c3.33301 24 1.16602 40.5 -6.50098 49.5s-23.834 13.5 -48.501 13.5h-85zM291.001 -48h31.9951
c24.667 0 41.834 -4.5 51.501 -13.5s12.834 -23.5 9.50098 -43.5l-8 -48c-4.66699 -26.667 -14.667 -55 -30 -85s-32.666 -54.333 -51.999 -73l-77 24c10 18.667 23 53 39 103c-19.333 -0.666992 -32.666 3 -39.999 11s-9.66602 20.333 -6.99902 37l6 35
c3.33301 20 10.833 33.833 22.5 41.5s29.5 11.5 53.5 11.5z" />
    <glyph glyph-name="rcommaaccent" unicode="&#x157;" horiz-adv-x="452" 
d="M479 514l-43 -192h-47c-34 0 -78.333 -4.33301 -133 -13l-42 -309h-211l70 500h164l7 -68c66 54.667 132.333 82 199 82h36zM82 -38h31.9951c24.667 0 41.834 -4.5 51.501 -13.5s12.834 -23.5 9.50098 -43.5l-8 -48c-4.66699 -26.667 -14.667 -55 -30 -85
s-32.666 -54.333 -51.999 -73l-77 24c10 18.667 23 53 39 103c-19.333 -0.666992 -32.666 3 -39.999 11s-9.66602 20.333 -6.99902 37l6 35c3.33301 20 10.833 33.833 22.5 41.5s29.5 11.5 53.5 11.5z" />
    <glyph glyph-name="Rcaron" unicode="&#x158;" horiz-adv-x="669" 
d="M352 737l-163 144l58 66l147 -81h8l171 77l40 -75l-179 -131h-82zM11 0l96.998 690c66.667 6.66699 159.667 10 279 10c100.667 0 173.334 -16.5 218.001 -49.5s61.667 -89.167 51 -168.5c-6 -44.667 -20.5 -80.5 -43.5 -107.5s-60.5 -43.167 -112.5 -48.5l-1 -7
c54.667 -8 85 -45 91 -111l26 -208h-224l-18 209c-0.666992 18.667 -3.66699 30.5 -9 35.5s-15.666 7.5 -30.999 7.5h-76l-35 -252h-212zM279.998 405h75.0029c29.333 0 49.666 5 60.999 15s19.333 31.333 24 64c3.33301 24 1.16602 40.5 -6.50098 49.5
s-23.834 13.5 -48.501 13.5h-85z" />
    <glyph glyph-name="rcaron" unicode="&#x159;" horiz-adv-x="452" 
d="M246 549l-163 144l58 66l147 -81h8l171 77l40 -75l-179 -131h-82zM237 500l7 -68c66 54.667 132.333 82 199 82h36l-43 -192h-47c-34 0 -78.333 -4.33301 -133 -13l-42 -309h-211l70 500h164z" />
    <glyph glyph-name="Sacute" unicode="&#x15a;" horiz-adv-x="602" 
d="M586 816l-266 -96l-47 86l247 156zM314 235l-125.997 62c-54.667 26.667 -90.834 57 -108.501 91s-23.834 74.333 -18.501 121c8.66699 74 35.834 125 81.501 153s117.167 42 214.5 42c93.333 0 175.666 -12 246.999 -36l-19 -138c-81.333 1.33301 -162 2 -242 2
c-23.333 0 -39.833 -2 -49.5 -6s-15.834 -11.333 -18.501 -22c-1.33301 -8 0.833984 -15.167 6.50098 -21.5s18.167 -14.166 37.5 -23.499l116 -55c54.667 -26 90.834 -55 108.501 -87s23.5 -74.667 17.5 -128c-8.66699 -78.667 -33.667 -132.167 -75 -160.5
s-112.333 -42.5 -213 -42.5c-88.667 0 -178.334 11.667 -269.001 35l20 151c128.667 -3.33301 208 -5 238 -5s51 2.16699 63 6.5s19.333 11.833 22 22.5c2 8 0.666992 14.667 -4 20s-14.334 11.666 -29.001 18.999z" />
    <glyph glyph-name="sacute" unicode="&#x15b;" horiz-adv-x="548" 
d="M535 628l-266 -96l-47 86l247 156zM252 175l-105.002 29.999c-87.333 24.667 -124.333 81.667 -111 171c6.66699 46.667 27.834 81.334 63.501 104.001s95.167 34 178.5 34c98.667 0 182.667 -7.66699 252 -23l-17 -121h-191c-37.333 0 -61 -0.5 -71 -1.5
s-15.333 -3.83301 -16 -8.5c-1.33301 -5.33301 1.5 -9.83301 8.5 -13.5s20.5 -8.16699 40.5 -13.5l109 -29c86 -23.333 124 -76 114 -158c-7.33301 -62 -31.166 -103.667 -71.499 -125s-101.166 -32 -182.499 -32c-88.667 0 -174 7.33301 -256 22l17 121h168
c50.667 0 83.667 1 99 3s23.666 6.33301 24.999 13c0.666992 4.66699 -2.33301 8.66699 -9 12s-21.667 8.33301 -45 15z" />
    <glyph glyph-name="Scedilla" unicode="&#x15e;" horiz-adv-x="602" 
d="M314 235l-125.997 62c-54.667 26.667 -90.834 57 -108.501 91s-23.834 74.333 -18.501 121c8.66699 74 35.834 125 81.501 153s117.167 42 214.5 42c93.333 0 175.666 -12 246.999 -36l-19 -138c-81.333 1.33301 -162 2 -242 2c-23.333 0 -39.833 -2 -49.5 -6
s-15.834 -11.333 -18.501 -22c-1.33301 -8 0.833984 -15.167 6.50098 -21.5s18.167 -14.166 37.5 -23.499l116 -55c54.667 -26 90.834 -55 108.501 -87s23.5 -74.667 17.5 -128c-8.66699 -78.667 -33.667 -132.167 -75 -160.5s-112.333 -42.5 -213 -42.5
c-88.667 0 -178.334 11.667 -269.001 35l20 151c128.667 -3.33301 208 -5 238 -5s51 2.16699 63 6.5s19.333 11.833 22 22.5c2 8 0.666992 14.667 -4 20s-14.334 11.666 -29.001 18.999zM165.003 -139l18.001 72.001c54 10 97.833 10 131.5 0s47.167 -34.333 40.5 -73
c-9.33301 -53.333 -37 -91.833 -83 -115.5s-101 -31.167 -165 -22.5l21 77c59.333 0 92.333 15.333 99 46c0 2 0.166992 3.83301 0.5 5.5s-0.333984 3.16699 -2.00098 4.5s-3.66699 2.33301 -6 3s-6 1.16699 -11 1.5s-11 0.666016 -18 0.999023s-15.5 0.5 -25.5 0.5z" />
    <glyph glyph-name="scedilla" unicode="&#x15f;" horiz-adv-x="548" 
d="M252 175l-105.002 29.999c-87.333 24.667 -124.333 81.667 -111 171c6.66699 46.667 27.834 81.334 63.501 104.001s95.167 34 178.5 34c98.667 0 182.667 -7.66699 252 -23l-17 -121h-191c-37.333 0 -61 -0.5 -71 -1.5s-15.333 -3.83301 -16 -8.5
c-1.33301 -5.33301 1.5 -9.83301 8.5 -13.5s20.5 -8.16699 40.5 -13.5l109 -29c86 -23.333 124 -76 114 -158c-7.33301 -62 -31.166 -103.667 -71.499 -125s-101.166 -32 -182.499 -32c-88.667 0 -174 7.33301 -256 22l17 121h168c50.667 0 83.667 1 99 3
s23.666 6.33301 24.999 13c0.666992 4.66699 -2.33301 8.66699 -9 12s-21.667 8.33301 -45 15zM127.998 -121.001l18.001 72.001c54 10 97.833 10 131.5 0s47.167 -34.333 40.5 -73c-9.33301 -53.333 -37 -91.833 -83 -115.5s-101 -31.167 -165 -22.5l21 77
c59.333 0 92.333 15.333 99 46c0 2 0.166992 3.83301 0.5 5.5s-0.333984 3.16699 -2.00098 4.5s-3.66699 2.33301 -6 3s-6 1.16699 -11 1.5s-11 0.666016 -18 0.999023s-15.5 0.5 -25.5 0.5z" />
    <glyph glyph-name="Scaron" unicode="&#x160;" horiz-adv-x="602" 
d="M586 868l-179 -131h-82l-163 144l58 66l147 -81h8l171 77zM314 235l-125.997 62c-54.667 26.667 -90.834 57 -108.501 91s-23.834 74.333 -18.501 121c8.66699 74 35.834 125 81.501 153s117.167 42 214.5 42c93.333 0 175.666 -12 246.999 -36l-19 -138
c-81.333 1.33301 -162 2 -242 2c-23.333 0 -39.833 -2 -49.5 -6s-15.834 -11.333 -18.501 -22c-1.33301 -8 0.833984 -15.167 6.50098 -21.5s18.167 -14.166 37.5 -23.499l116 -55c54.667 -26 90.834 -55 108.501 -87s23.5 -74.667 17.5 -128
c-8.66699 -78.667 -33.667 -132.167 -75 -160.5s-112.333 -42.5 -213 -42.5c-88.667 0 -178.334 11.667 -269.001 35l20 151c128.667 -3.33301 208 -5 238 -5s51 2.16699 63 6.5s19.333 11.833 22 22.5c2 8 0.666992 14.667 -4 20s-14.334 11.666 -29.001 18.999z" />
    <glyph glyph-name="scaron" unicode="&#x161;" horiz-adv-x="548" 
d="M535 680l-179 -131h-82l-163 144l58 66l147 -81h8l171 77zM252 175l-105.002 29.999c-87.333 24.667 -124.333 81.667 -111 171c6.66699 46.667 27.834 81.334 63.501 104.001s95.167 34 178.5 34c98.667 0 182.667 -7.66699 252 -23l-17 -121h-191
c-37.333 0 -61 -0.5 -71 -1.5s-15.333 -3.83301 -16 -8.5c-1.33301 -5.33301 1.5 -9.83301 8.5 -13.5s20.5 -8.16699 40.5 -13.5l109 -29c86 -23.333 124 -76 114 -158c-7.33301 -62 -31.166 -103.667 -71.499 -125s-101.166 -32 -182.499 -32
c-88.667 0 -174 7.33301 -256 22l17 121h168c50.667 0 83.667 1 99 3s23.666 6.33301 24.999 13c0.666992 4.66699 -2.33301 8.66699 -9 12s-21.667 8.33301 -45 15z" />
    <glyph glyph-name="Tcedilla" unicode="&#x162;" horiz-adv-x="618" 
d="M641 528h-191l-74 -528h-217l74 528h-190l23 162h598zM166 -115l18.001 72.001c54 10 97.833 10 131.5 0s47.167 -34.333 40.5 -73c-9.33301 -53.333 -37 -91.833 -83 -115.5s-101 -31.167 -165 -22.5l21 77c59.333 0 92.333 15.333 99 46c0 2 0.166992 3.83301 0.5 5.5
s-0.333984 3.16699 -2.00098 4.5s-3.66699 2.33301 -6 3s-6 1.16699 -11 1.5s-11 0.666016 -18 0.999023s-15.5 0.5 -25.5 0.5z" />
    <glyph glyph-name="tcedilla" unicode="&#x163;" horiz-adv-x="439" 
d="M317 374l-27.999 -196c-2 -13.333 -1.16699 -22 2.5 -26s13.167 -6 28.5 -6h59l11 -136c-40.667 -16 -96.334 -24 -167.001 -24c-51.333 0 -90.833 13 -118.5 39s-38.167 61 -31.5 105l36 244h-86l15 121l90 5l19 131h207l-19 -131h120l-17 -126h-121zM111.001 -124
l18.001 72.001c54 10 97.833 10 131.5 0s47.167 -34.333 40.5 -73c-9.33301 -53.333 -37 -91.833 -83 -115.5s-101 -31.167 -165 -22.5l21 77c59.333 0 92.333 15.333 99 46c0 2 0.166992 3.83301 0.5 5.5s-0.333984 3.16699 -2.00098 4.5s-3.66699 2.33301 -6 3
s-6 1.16699 -11 1.5s-11 0.666016 -18 0.999023s-15.5 0.5 -25.5 0.5z" />
    <glyph glyph-name="Tcaron" unicode="&#x164;" horiz-adv-x="618" 
d="M329 737l-163 144l58 66l147 -81h8l171 77l40 -75l-179 -131h-82zM641 528h-191l-74 -528h-217l74 528h-190l23 162h598z" />
    <glyph glyph-name="tcaron" unicode="&#x165;" horiz-adv-x="439" 
d="M445 811h31.9951c24.667 0 41.834 -4.5 51.501 -13.5s12.834 -23.5 9.50098 -43.5l-8 -48c-4.66699 -26.667 -14.667 -55 -30 -85s-32.666 -54.333 -51.999 -73l-77 24c10 18.667 23 53 39 103c-19.333 -0.666992 -32.666 3 -39.999 11s-9.66602 20.333 -6.99902 37l6 35
c3.33301 20 10.833 33.833 22.5 41.5s29.5 11.5 53.5 11.5zM334.995 500h120.001l-17 -126h-121l-28 -196c-2 -13.333 -1.16699 -22 2.5 -26s13.167 -6 28.5 -6h59l11 -136c-40.667 -16 -96.334 -24 -167.001 -24c-51.333 0 -90.833 13 -118.5 39s-38.167 61 -31.5 105
l36 244h-86l15 121l90 5l19 131h207z" />
    <glyph glyph-name="Tbar" unicode="&#x166;" horiz-adv-x="618" 
d="M450 528l-18 -127h121l-13 -94h-121l-43 -307h-217l43 307h-112l13 94h112l18 127h-190l23 162h598l-23 -162h-191z" />
    <glyph glyph-name="tbar" unicode="&#x167;" horiz-adv-x="439" 
d="M317 374l-6.99902 -50h77l-13 -94h-78l-7 -52c-2 -13.333 -1.16699 -22 2.5 -26s13.167 -6 28.5 -6h59l11 -136c-40.667 -16 -96.334 -24 -167.001 -24c-51.333 0 -90.833 13 -118.5 39s-38.167 61 -31.5 105l15 100h-57l13 94h58l7 50h-86l15 121l90 5l19 131h207
l-19 -131h120l-17 -126h-121z" />
    <glyph glyph-name="Umacron" unicode="&#x16a;" 
d="M573 772h-320l17 123h320zM710 690l-59 -408.999c-15.333 -110.667 -46.666 -187.5 -93.999 -230.5s-125.666 -64.5 -234.999 -64.5c-107.333 0 -183.833 23.667 -229.5 71s-61.5 124.666 -47.5 231.999l58 401h216l-58 -409
c-8.66699 -52.667 -8.83398 -88.167 -0.500977 -106.5s30.5 -27.5 66.5 -27.5c36.667 0 61.667 9.16699 75 27.5s24.666 56.5 33.999 114.5l57 401h217z" />
    <glyph glyph-name="umacron" unicode="&#x16b;" horiz-adv-x="613" 
d="M505 595h-320l17 123h320zM598 500l-69 -500h-164l-4 85c-68 -66 -136 -99 -204 -99c-52 0 -89.833 12.5 -113.5 37.5s-32.167 60.5 -25.5 106.5l51 370h211l-45 -311c-2.66699 -18 5 -27 23 -27c26 0 55.667 12.333 89 37l43 301h208z" />
    <glyph glyph-name="Uring" unicode="&#x16e;" 
d="M431 959c37.333 0 68.333 -12.667 93 -38s34.667 -55.666 30 -90.999c-4 -32 -18 -58.833 -42 -80.5s-54.667 -32.5 -92 -32.5c-38 0 -69 12.667 -93 38s-33.667 55.666 -29 90.999c4 32 18 58.833 42 80.5s54.333 32.5 91 32.5zM428 884c-12.667 0 -23.333 -4 -32 -12
s-13.667 -18.333 -15 -31c-1.33301 -14.667 1.66699 -26.5 9 -35.5s18 -13.5 32 -13.5s25.5 4.5 34.5 13.5s13.833 20.833 14.5 35.5c0.666992 12.667 -3 23 -11 31s-18.667 12 -32 12zM710.001 690l-59 -408.999c-15.333 -110.667 -46.666 -187.5 -93.999 -230.5
s-125.666 -64.5 -234.999 -64.5c-107.333 0 -183.833 23.667 -229.5 71s-61.5 124.666 -47.5 231.999l58 401h216l-58 -409c-8.66699 -52.667 -8.83398 -88.167 -0.500977 -106.5s30.5 -27.5 66.5 -27.5c36.667 0 61.667 9.16699 75 27.5s24.666 56.5 33.999 114.5l57 401
h217z" />
    <glyph glyph-name="uring" unicode="&#x16f;" horiz-adv-x="613" 
d="M352 540c-38 0 -69 12.667 -93 38s-33.667 55.666 -29 90.999c4 32 18 58.833 42 80.5s54.333 32.5 91 32.5c37.333 0 68.333 -12.667 93 -38s34.667 -55.666 30 -90.999c-4 -32 -18 -58.833 -42 -80.5s-54.667 -32.5 -92 -32.5zM313 664
c-1.33301 -14.667 1.66797 -26.5 9.00098 -35.5s18 -13.5 32 -13.5s25.5 4.5 34.5 13.5s13.833 20.833 14.5 35.5c0.666992 12.667 -3 23 -11 31s-18.667 12 -32 12c-12.667 0 -23.334 -4 -32.001 -12s-13.667 -18.333 -15 -31zM598.001 500l-69 -500h-164l-4 85
c-68 -66 -136 -99 -204 -99c-52 0 -89.833 12.5 -113.5 37.5s-32.167 60.5 -25.5 106.5l51 370h211l-45 -311c-2.66699 -18 5 -27 23 -27c26 0 55.667 12.333 89 37l43 301h208z" />
    <glyph glyph-name="Uhungarumlaut" unicode="&#x170;" 
d="M482 884l-183 -161l-85 52l147 193zM697 884l-184 -161l-84 51l147 194zM710 690l-59 -408.999c-15.333 -110.667 -46.666 -187.5 -93.999 -230.5s-125.666 -64.5 -234.999 -64.5c-107.333 0 -183.833 23.667 -229.5 71s-61.5 124.666 -47.5 231.999l58 401h216l-58 -409
c-8.66699 -52.667 -8.83398 -88.167 -0.500977 -106.5s30.5 -27.5 66.5 -27.5c36.667 0 61.667 9.16699 75 27.5s24.666 56.5 33.999 114.5l57 401h217z" />
    <glyph glyph-name="uhungarumlaut" unicode="&#x171;" horiz-adv-x="613" 
d="M231 546l-85 52l147 193l121 -84zM361 597l147 194l121 -84l-184 -161zM390 500h208l-69 -500h-164l-4 85c-68 -66 -136 -99 -204 -99c-52 0 -89.833 12.5 -113.5 37.5s-32.167 60.5 -25.5 106.5l51 370h211l-45 -311c-2.66699 -18 5 -27 23 -27
c26 0 55.667 12.333 89 37z" />
    <glyph glyph-name="Uogonek" unicode="&#x172;" 
d="M710 690l-59.001 -409.002c-15.333 -106 -44.666 -180.833 -87.999 -224.5s-114.333 -67.167 -213 -70.5c-26 -28 -43.667 -56.667 -53 -86c-3.33301 -11.333 -2.66602 -18.833 2.00098 -22.5s14.667 -4.16699 30 -1.5l15 -74c-32.667 -12 -62.5 -19 -89.5 -21
s-48.167 0.333008 -63.5 7s-28 15.667 -38 27s-14.5 24.333 -13.5 39s4.5 29.334 10.5 44.001c16.667 31.333 50.334 62 101.001 92c-81.333 9.33301 -139 37.833 -173 85.5s-45 118.834 -33 213.501l58 401h216l-58 -409
c-8.66699 -52.667 -8.83398 -88.167 -0.500977 -106.5s30.5 -27.5 66.5 -27.5c36.667 0 61.667 9.16699 75 27.5s24.666 56.5 33.999 114.5l57 401h217z" />
    <glyph glyph-name="uogonek" unicode="&#x173;" horiz-adv-x="613" 
d="M598 500l-69.001 -500.001c-28 -30 -47 -60.333 -57 -91c-3.33301 -11.333 -2.66602 -18.833 2.00098 -22.5s14.667 -4.16699 30 -1.5l15 -74c-32.667 -12 -62.5 -19 -89.5 -21s-48.167 0.333008 -63.5 7s-28 15.667 -38 27s-14.5 24.333 -13.5 39
s4.5 29.334 10.5 44.001c16.667 32 51 63 103 93h-63l-4 85c-68 -66 -136 -99 -204 -99c-52 0 -89.833 12.5 -113.5 37.5s-32.167 60.5 -25.5 106.5l51 370h211l-45 -311c-2.66699 -18 5 -27 23 -27c26 0 55.667 12.333 89 37l43 301h208z" />
    <glyph glyph-name="Wcircumflex" unicode="&#x174;" horiz-adv-x="995" 
d="M766 787l-55 -68l-147 94h-8l-164 -94l-48 72l150 136h141zM1030 690l-174.001 -635.999c-9.33301 -36 -34.666 -54 -75.999 -54h-182c-18.667 0 -35 6 -49 18s-20.667 26.667 -20 44l7 369c0.666992 16 2.33398 51 5.00098 105h-18
c-4.66699 -33.333 -11.334 -67.333 -20.001 -102l-99 -380c-9.33301 -36 -34.666 -54 -75.999 -54h-187c-18.667 0 -34.834 6 -48.501 18s-19.834 26.667 -18.501 44v628h213l-27 -427c-0.666992 -13.333 -2 -33.5 -4 -60.5l-4 -54.5h17c8.66699 46.667 18 88 28 124l96 358
c10.667 40 36.334 60 77.001 60h151c19.333 0 35.333 -6.5 48 -19.5s19 -29.167 19 -48.5v-360c0 -28 -0.666992 -66 -2 -114h18c4 39.333 11 79.666 21 120.999l92 421h213z" />
    <glyph glyph-name="wcircumflex" unicode="&#x175;" horiz-adv-x="925" 
d="M703 598l-55 -68l-147 94h-8l-164 -94l-48 72l150 136h141zM246 130l6.00391 -0.00390625c17.333 0 31.333 22 42 66c6 24.667 12 55 18 91c2.66699 16 6.66699 42.5 12 79.5l12 81.5c2 13.333 8 25.333 18 36s24.667 16 44 16h172c16 0 29.5 -5 40.5 -15
s17.5 -22.667 19.5 -38v-317h7c2.66699 0 5.16699 0.333008 7.5 1s4.5 1.83398 6.5 3.50098s3.66699 3.33398 5 5.00098s2.66602 4.33398 3.99902 8.00098s2.5 6.66699 3.5 9s2 6 3 11s1.83301 9 2.5 12l3 13.5c1.33301 6 2.33301 11 3 15c4 17.333 10.667 55.333 20 114
c8 52.667 14.333 112 19 178h208c-8.66699 -77.333 -20 -146 -34 -206c-16 -69.333 -32.333 -124.666 -49 -165.999c-19.333 -48 -43.833 -81.333 -73.5 -100s-78.5 -28 -146.5 -28h-77c-16.667 0 -30.667 5.5 -42 16.5s-16.333 24.167 -15 39.5v320h-12
c-4 -34.667 -10.333 -75.667 -19 -123c-8.66699 -48 -16.334 -85 -23.001 -111c-7.33301 -26.667 -16.166 -49 -26.499 -67s-20.833 -32 -31.5 -42s-24.834 -17.5 -42.501 -22.5s-33.334 -8 -47.001 -9s-32.834 -1.5 -57.501 -1.5h-110c-16 -0 -29.5 5.33301 -40.5 16
s-17.167 24 -18.5 40l-16 445h213z" />
    <glyph glyph-name="Ycircumflex" unicode="&#x176;" horiz-adv-x="649" 
d="M220 719l-48 72l150 136h141l131 -140l-55 -68l-147 94h-8zM420 209l-29 -208.999h-218l31 221l-158 469h216l53 -221c6 -26.667 8.33301 -60.334 7 -101.001h15c3.33301 32 13.333 65 30 99l117 223h231z" />
    <glyph glyph-name="ycircumflex" unicode="&#x177;" horiz-adv-x="622" 
d="M176 531l-48 72l150 136h141l131 -140l-55 -68l-147 94h-8zM404 500h224.999c-11.333 -82 -36.666 -174.333 -75.999 -277s-72 -174.334 -98 -215.001c-96.667 -151.333 -226.334 -222.666 -389.001 -213.999l-13 113c8.66699 3.33301 21.834 7.83301 39.501 13.5
s31 10.167 40 13.5s20.167 8 33.5 14s25.333 13.333 36 22s21 18.667 31 30h-79c-16 0 -29.833 5 -41.5 15s-18.5 22.667 -20.5 38l-62 447h230l8 -358c0 -10.667 5.33301 -16 16 -16h24c42 93.333 74 218 96 374z" />
    <glyph glyph-name="Ydieresis" unicode="&#x178;" horiz-adv-x="649" 
d="M332 763h-80.999c-24 0 -34 11 -30 33l11 73c2.66699 23.333 15.667 35 39 35h77c24 0 34 -11 30 -33l-11 -76c-2.66699 -21.333 -14.334 -32 -35.001 -32zM521.001 763h-81.002c-24 0 -34 11 -30 33l11 74c3.33301 22.667 15.333 34 36 34h80c24 0 34 -11 30 -33
l-11 -75c-1.33301 -12 -4.66602 -20.5 -9.99902 -25.5s-13.666 -7.5 -24.999 -7.5zM419.999 209l-29 -208.999h-218l31 221l-158 469h216l53 -221c6 -26.667 8.33301 -60.334 7 -101.001h15c3.33301 32 13.333 65 30 99l117 223h231z" />
    <glyph glyph-name="Zacute" unicode="&#x179;" horiz-adv-x="598" 
d="M311 720l-47 86l247 156l66 -146zM594 538l-333 -386h288l-21 -152h-539l20 152l334 386h-268l21 152h519z" />
    <glyph glyph-name="zacute" unicode="&#x17a;" horiz-adv-x="538" 
d="M265 532l-47 86l247 156l66 -146zM531 500l-17 -135h1l-257 -230h228l-18 -135h-478l17 135h-1l258 230h-217l18 135h466z" />
    <glyph glyph-name="Zdotaccent" unicode="&#x17b;" horiz-adv-x="598" 
d="M395 752h-63.001c-43.333 0 -62 20.333 -56 61l6 47c5.33301 35.333 26 53 62 53h59c18.667 0 33.334 -5 44.001 -15s15 -24.667 13 -44l-5 -49c-4 -35.333 -24 -53 -60 -53zM593.999 538l-333 -386h288l-21 -152h-539l20 152l334 386h-268l21 152h519z" />
    <glyph glyph-name="zdotaccent" unicode="&#x17c;" horiz-adv-x="538" 
d="M349 564h-63.001c-43.333 0 -62 20.333 -56 61l6 47c5.33301 35.333 26 53 62 53h59c18.667 0 33.334 -5 44.001 -15s15 -24.667 13 -44l-5 -49c-4 -35.333 -24 -53 -60 -53zM514.999 365l-257 -230h228l-18 -135h-478l17 135h-1l258 230h-217l18 135h466l-17 -135h1z
" />
    <glyph glyph-name="Zcaron" unicode="&#x17d;" horiz-adv-x="598" 
d="M316 737l-163 144l58 66l147 -81h8l171 77l40 -75l-179 -131h-82zM594 538l-333 -386h288l-21 -152h-539l20 152l334 386h-268l21 152h519z" />
    <glyph glyph-name="zcaron" unicode="&#x17e;" horiz-adv-x="538" 
d="M270 549l-163 144l58 66l147 -81h8l171 77l40 -75l-179 -131h-82zM531 500l-17 -135h1l-257 -230h228l-18 -135h-478l17 135h-1l258 230h-217l18 135h466z" />
    <glyph glyph-name="florin" unicode="&#x192;" horiz-adv-x="501" 
d="M502 564h-55.998c-30.667 0 -50.334 -18.667 -59.001 -56l-22 -98h93l-27 -126h-94l-69 -305c-24.667 -106 -92.334 -159 -203.001 -159c-66 0 -119 5 -159 15l42 125h56c32 0 51.667 18.667 59 56l60 268h-89l24 111l93 14l31 136c26 106 94 159 204 159
c65.333 0 118.333 -5 159 -15z" />
    <glyph glyph-name="Scommaaccent" unicode="&#x218;" horiz-adv-x="602" 
d="M314 235l-125.997 62c-54.667 26.667 -90.834 57 -108.501 91s-23.834 74.333 -18.501 121c8.66699 74 35.834 125 81.501 153s117.167 42 214.5 42c93.333 0 175.666 -12 246.999 -36l-19 -138c-81.333 1.33301 -162 2 -242 2c-23.333 0 -39.833 -2 -49.5 -6
s-15.834 -11.333 -18.501 -22c-1.33301 -8 0.833984 -15.167 6.50098 -21.5s18.167 -14.166 37.5 -23.499l116 -55c54.667 -26 90.834 -55 108.501 -87s23.5 -74.667 17.5 -128c-8.66699 -78.667 -33.667 -132.167 -75 -160.5s-112.333 -42.5 -213 -42.5
c-88.667 0 -178.334 11.667 -269.001 35l20 151c128.667 -3.33301 208 -5 238 -5s51 2.16699 63 6.5s19.333 11.833 22 22.5c2 8 0.666992 14.667 -4 20s-14.334 11.666 -29.001 18.999zM247.003 -48h31.9951c24.667 0 41.834 -4.5 51.501 -13.5s12.834 -23.5 9.50098 -43.5
l-8 -48c-4.66699 -26.667 -14.667 -55 -30 -85s-32.666 -54.333 -51.999 -73l-77 24c10 18.667 23 53 39 103c-19.333 -0.666992 -32.666 3 -39.999 11s-9.66602 20.333 -6.99902 37l6 35c3.33301 20 10.833 33.833 22.5 41.5s29.5 11.5 53.5 11.5z" />
    <glyph glyph-name="scommaaccent" unicode="&#x219;" horiz-adv-x="548" 
d="M252 175l-105.002 29.999c-87.333 24.667 -124.333 81.667 -111 171c6.66699 46.667 27.834 81.334 63.501 104.001s95.167 34 178.5 34c98.667 0 182.667 -7.66699 252 -23l-17 -121h-191c-37.333 0 -61 -0.5 -71 -1.5s-15.333 -3.83301 -16 -8.5
c-1.33301 -5.33301 1.5 -9.83301 8.5 -13.5s20.5 -8.16699 40.5 -13.5l109 -29c86 -23.333 124 -76 114 -158c-7.33301 -62 -31.166 -103.667 -71.499 -125s-101.166 -32 -182.499 -32c-88.667 0 -174 7.33301 -256 22l17 121h168c50.667 0 83.667 1 99 3
s23.666 6.33301 24.999 13c0.666992 4.66699 -2.33301 8.66699 -9 12s-21.667 8.33301 -45 15zM212.998 -43.001h31.9951c24.667 0 41.834 -4.5 51.501 -13.5s12.834 -23.5 9.50098 -43.5l-8 -48c-4.66699 -26.667 -14.667 -55 -30 -85s-32.666 -54.333 -51.999 -73l-77 24
c10 18.667 23 53 39 103c-19.333 -0.666992 -32.666 3 -39.999 11s-9.66602 20.333 -6.99902 37l6 35c3.33301 20 10.833 33.833 22.5 41.5s29.5 11.5 53.5 11.5z" />
    <glyph glyph-name="uni021A" unicode="&#x21a;" horiz-adv-x="618" 
d="M641 528h-191l-74 -528h-217l74 528h-190l23 162h598zM233 -38h31.9951c24.667 0 41.834 -4.5 51.501 -13.5s12.834 -23.5 9.50098 -43.5l-8 -48c-4.66699 -26.667 -14.667 -55 -30 -85s-32.666 -54.333 -51.999 -73l-77 24c10 18.667 23 53 39 103
c-19.333 -0.666992 -32.666 3 -39.999 11s-9.66602 20.333 -6.99902 37l6 35c3.33301 20 10.833 33.833 22.5 41.5s29.5 11.5 53.5 11.5z" />
    <glyph glyph-name="uni021B" unicode="&#x21b;" horiz-adv-x="439" 
d="M317 374l-27.999 -196c-2 -13.333 -1.16699 -22 2.5 -26s13.167 -6 28.5 -6h59l11 -136c-40.667 -16 -96.334 -24 -167.001 -24c-51.333 0 -90.833 13 -118.5 39s-38.167 61 -31.5 105l36 244h-86l15 121l90 5l19 131h207l-19 -131h120l-17 -126h-121zM180.001 -43
h31.9951c24.667 0 41.834 -4.5 51.501 -13.5s12.834 -23.5 9.50098 -43.5l-8 -48c-4.66699 -26.667 -14.667 -55 -30 -85s-32.666 -54.333 -51.999 -73l-77 24c10 18.667 23 53 39 103c-19.333 -0.666992 -32.666 3 -39.999 11s-9.66602 20.333 -6.99902 37l6 35
c3.33301 20 10.833 33.833 22.5 41.5s29.5 11.5 53.5 11.5z" />
    <glyph glyph-name="circumflex" unicode="&#x2c6;" horiz-adv-x="477" 
d="M494 602l-55 -68l-147 94h-8l-164 -94l-48 72l150 136h141z" />
    <glyph glyph-name="caron" unicode="&#x2c7;" horiz-adv-x="477" 
d="M503 678l-179 -131h-82l-163 144l58 66l147 -81h8l171 77z" />
    <glyph glyph-name="breve" unicode="&#x2d8;" horiz-adv-x="411" 
d="M352 717l94.001 -14.999c1.33301 -46.667 -15.667 -86.334 -51 -119.001s-83 -49 -143 -49c-60.667 0 -106.5 17.833 -137.5 53.5s-39.167 76.5 -24.5 122.5l98 5c-3.33301 -20.667 0.666992 -35 12 -43s31.666 -12 60.999 -12c56.667 0 87 19 91 57z" />
    <glyph glyph-name="dotaccent" unicode="&#x2d9;" horiz-adv-x="251" 
d="M156 724h58.999c18.667 0 33.334 -5 44.001 -15s15 -24.667 13 -44l-5 -49c-4 -35.333 -24 -53 -60 -53h-63c-43.333 0 -62 20.333 -56 61l6 47c5.33301 35.333 26 53 62 53z" />
    <glyph glyph-name="ring" unicode="&#x2da;" horiz-adv-x="318" 
d="M221 776c37.333 0 68.333 -12.667 93 -38s34.667 -55.666 30 -90.999c-4 -32 -18 -58.833 -42 -80.5s-54.667 -32.5 -92 -32.5c-38 0 -69 12.667 -93 38s-33.667 55.666 -29 90.999c4 32 18 58.833 42 80.5s54.333 32.5 91 32.5zM218 701c-12.667 0 -23.333 -4 -32 -12
s-13.667 -18.333 -15 -31c-1.33301 -14.667 1.66699 -26.5 9 -35.5s18 -13.5 32 -13.5s25.5 4.5 34.5 13.5s13.833 20.833 14.5 35.5c0.666992 12.667 -3 23 -11 31s-18.667 12 -32 12z" />
    <glyph glyph-name="ogonek" unicode="&#x2db;" horiz-adv-x="250" 
d="M99 8l86.999 -8.00195c-28 -30 -47 -60.333 -57 -91c-3.33301 -11.333 -2.66602 -18.833 2.00098 -22.5s14.667 -4.16699 30 -1.5l15 -74c-32.667 -12 -62.5 -19 -89.5 -21s-48.167 0.333008 -63.5 7s-28 15.667 -38 27s-14.5 24.333 -13.5 39s4.5 29.334 10.5 44.001
c18 34.667 57 68.334 117 101.001z" />
    <glyph glyph-name="tilde" unicode="&#x2dc;" horiz-adv-x="460" 
d="M174 551l-85.0029 7.99805c-1.33301 54.667 6.83398 95.834 24.501 123.501s42.167 41.5 73.5 41.5c20 0 51.5 -7.33301 94.5 -22s64.833 -22 65.5 -22c16 -4 27.333 -2.33301 34 5s11 20 13 38l85 -8c2.66699 -55.333 -4.66602 -96.666 -21.999 -123.999
s-41.666 -41 -72.999 -41c-20.667 0 -52 7.16699 -94 21.5s-65.333 21.833 -70 22.5c-16 3.33301 -27 1.5 -33 -5.5s-10.333 -19.5 -13 -37.5z" />
    <glyph glyph-name="hungarumlaut" unicode="&#x2dd;" horiz-adv-x="547" 
d="M352 672l-183 -161l-85 52l147 193zM567 672l-184 -161l-84 51l147 194z" />
    <glyph glyph-name="Delta" unicode="&#x394;" horiz-adv-x="708" 
d="M658 68l-7 -68h-670l7 68l316 622h214zM434 152l-40.001 235c-4 31.333 -6 64 -6 98c-13.333 -48.667 -23.666 -81 -30.999 -97l-114 -236h191z" />
    <glyph glyph-name="Omega" unicode="&#x3a9;" horiz-adv-x="719" 
d="M18 162l61.9971 0.00292969c26.667 0 52.334 -6 77.001 -18c-44 45.333 -73.333 86.166 -88 122.499s-18 85.166 -10 146.499c12.667 99.333 46 172.666 100 219.999s136.667 71 248 71c110 0 188.5 -25.333 235.5 -76s63.167 -129 48.5 -235
c-8 -58 -23.5 -103.333 -46.5 -136s-63.5 -71 -121.5 -115c24.667 13.333 51.667 20 81 20h60l-22 -162h-305l18 148c34 29.333 58.333 59.333 73 90s26.334 74.667 35.001 132c10 72 10.5 119 1.5 141s-31.5 33 -67.5 33c-38 0 -64.667 -10.5 -80 -31.5
s-27.666 -64.167 -36.999 -129.5c-8.66699 -53.333 -10.5 -98 -5.5 -134s18.833 -69.667 41.5 -101l-16 -148h-305z" />
    <glyph glyph-name="mu" unicode="&#x3bc;" horiz-adv-x="649" 
d="M616 500l-70 -500h-164l-8 86c-62 -63.333 -124.667 -96.666 -188 -99.999c4 -22.667 4.66699 -43.667 2 -63l-14 -103h-181l44 310l51 370h211l-45 -311c-1.33301 -10.667 -0.5 -17.834 2.5 -21.501s9.16699 -5.5 18.5 -5.5c26.667 0 55.667 10.667 87 32l43 306h211z
" />
    <glyph glyph-name="pi" unicode="&#x3c0;" horiz-adv-x="658" 
d="M654 365h-64l-51 -365h-210l51 365h-81l-51 -365h-210l51 365h-64l19 136h629z" />
    <glyph glyph-name="uni0401" unicode="&#x401;" horiz-adv-x="587" 
d="M330 763h-80.999c-24 0 -34 11 -30 33l11 73c2.66699 23.333 15.667 35 39 35h77c24 0 34 -11 30 -33l-11 -76c-2.66699 -21.333 -14.334 -32 -35.001 -32zM519.001 763h-81.002c-24 0 -34 11 -30 33l11 74c3.33301 22.667 15.333 34 36 34h80c24 0 34 -11 30 -33
l-11 -75c-1.33301 -12 -4.66602 -20.5 -9.99902 -25.5s-13.666 -7.5 -24.999 -7.5zM582.999 528l-240.002 0.000976562c-17.333 0 -29.666 -3 -36.999 -9s-12 -16.333 -14 -31l-9 -63h249l-18 -144h-251l-11 -80c-4 -26 8.33301 -39 37 -39h240l-4 -154
c-59.333 -8 -172 -12 -338 -12c-56 0 -97.667 17.333 -125 52s-37.333 80 -30 136l50 357c6.66699 47.333 25.334 84.666 56.001 111.999s71 41 121 41c165.333 0 281.333 -4.66699 348 -14z" />
    <glyph glyph-name="uni0402" unicode="&#x402;" horiz-adv-x="775" 
d="M450 528l-15.999 -119.001c53.333 30 111 45 173 45c59.333 0 101.666 -17.167 126.999 -51.5s31.666 -91.166 18.999 -170.499c-14.667 -91.333 -47.5 -155.5 -98.5 -192.5s-119.833 -55.5 -206.5 -55.5l-12 151c30.667 6.66699 53.834 18.334 69.501 35.001
s26.167 39.667 31.5 69c4 19.333 2.16699 32.166 -5.5 38.499s-20.5 9.5 -38.5 9.5c-29.333 0 -56 -7 -80 -21l-37 -266h-218l74 528h-189l22 162h598l-22 -162h-191z" />
    <glyph glyph-name="uni0403" unicode="&#x403;" horiz-adv-x="543" 
d="M579 816l-266 -96l-47 86l247 156zM13 0l76.0029 541c6.66699 46 25.167 83 55.5 111s67.166 42 110.499 42c161.333 0 272.666 -5 333.999 -15l-24 -151h-215c-16.667 0 -28.834 -2.83301 -36.501 -8.5s-12.5 -16.167 -14.5 -31.5l-69 -488h-217z" />
    <glyph glyph-name="uni0404" unicode="&#x404;" horiz-adv-x="604" 
d="M624 674l-25.002 -157c-98.667 1.33301 -170 2 -214 2c-35.333 0 -60.5 -6.5 -75.5 -19.5s-26.5 -37.833 -34.5 -74.5h266l-16 -144h-270c-3.33301 -44 0.333984 -73.333 11.001 -88s33.667 -22 69 -22c93.333 0 161.666 2.66699 204.999 8l8 -159
c-62 -21.333 -139.667 -32 -233 -32c-118 0 -198 27.5 -240 82.5s-53.667 149.167 -35 282.5c18 129.333 53.333 219.833 106 271.5s135.334 77.5 248.001 77.5c88.667 0 165.334 -9.33301 230.001 -28z" />
    <glyph glyph-name="uni0405" unicode="&#x405;" horiz-adv-x="602" 
d="M314 235l-125.997 62c-54.667 26.667 -90.834 57 -108.501 91s-23.834 74.333 -18.501 121c8.66699 74 35.834 125 81.501 153s117.167 42 214.5 42c93.333 0 175.666 -12 246.999 -36l-19 -138c-81.333 1.33301 -162 2 -242 2c-23.333 0 -39.833 -2 -49.5 -6
s-15.834 -11.333 -18.501 -22c-1.33301 -8 0.833984 -15.167 6.50098 -21.5s18.167 -14.166 37.5 -23.499l116 -55c54.667 -26 90.834 -55 108.501 -87s23.5 -74.667 17.5 -128c-8.66699 -78.667 -33.667 -132.167 -75 -160.5s-112.333 -42.5 -213 -42.5
c-88.667 0 -178.334 11.667 -269.001 35l20 151c128.667 -3.33301 208 -5 238 -5s51 2.16699 63 6.5s19.333 11.833 22 22.5c2 8 0.666992 14.667 -4 20s-14.334 11.666 -29.001 18.999z" />
    <glyph glyph-name="uni0406" unicode="&#x406;" horiz-adv-x="329" 
d="M231 0h-215l97 690h215z" />
    <glyph glyph-name="uni0407" unicode="&#x407;" horiz-adv-x="322" 
d="M114 904h77.001c24 0 34 -11 30 -33l-11 -76c-2.66699 -21.333 -14.334 -32 -35.001 -32h-81c-24 0 -34 11 -30 33l11 73c2.66699 23.333 15.667 35 39 35zM300.001 904h79.998c24 0 34 -11 30 -33l-11 -75c-1.33301 -12 -4.66602 -20.5 -9.99902 -25.5
s-13.666 -7.5 -24.999 -7.5h-81c-24 0 -34 11 -30 33l11 74c3.33301 22.667 15.333 34 36 34zM227.999 0h-216l97 690h216z" />
    <glyph glyph-name="uni0408" unicode="&#x408;" horiz-adv-x="399" 
d="M400 690l-77.999 -567c-6.66699 -44 -26.167 -77.833 -58.5 -101.5s-74.166 -35.5 -125.499 -35.5c-28 0 -58.333 2.5 -91 7.5s-56.334 11.833 -71.001 20.5l34 134h37c39.333 0 60.666 13 63.999 39l73 503h216z" />
    <glyph glyph-name="uni0409" unicode="&#x409;" horiz-adv-x="996" 
d="M675 453h45.0049c103.333 0 173.166 -17.167 209.499 -51.5s48.166 -96.5 35.499 -186.5c-12.667 -88 -36.167 -147.167 -70.5 -177.5s-95.166 -45.5 -182.499 -45.5c-140 0 -245 2.66699 -315 8l77 548h-26c-18 0 -31.333 -3.83301 -40 -11.5
s-15.334 -21.834 -20.001 -42.501c-33.333 -158 -64.333 -270.667 -93 -338c-20.667 -50 -46.834 -88.833 -78.501 -116.5s-65.667 -43.5 -102 -47.5s-75.5 -2.66699 -117.5 4l-8 168c2 0 7 0.5 15 1.5l16 2c2.66699 0.333008 7.5 1.33301 14.5 3s12 3.33398 15 5.00098
l13.5 7.5c6 3.33301 10.667 7 14 11s7.16602 9 11.499 15s8.16602 13 11.499 21c26 53.333 55.333 158.333 88 315c20 96.667 81 145 183 145h337zM631.005 142l39 -0.000976562c16.667 0 28 0.333008 34 1s12.833 3.66699 20.5 9s13.167 14 16.5 26s6.33301 29 9 51
c6 36.667 6.5 61.334 1.5 74.001s-20.833 19 -47.5 19h-48z" />
    <glyph glyph-name="uni040A" unicode="&#x40a;" horiz-adv-x="976" 
d="M657 437l55 0.00195312c44.667 0 81.667 -3.16699 111 -9.5s55 -18 77 -35s36.5 -41.333 43.5 -73s7.16699 -71.834 0.5 -120.501c-10.667 -80.667 -32.667 -135.334 -66 -164.001s-91.333 -43 -174 -43c-144 0 -250.667 2.66699 -320 8h-1l41 295h-149l-41 -295h-218
l97 690h218l-36 -253h149l36 253h213zM616 142.002h46c23.333 0 39.5 4.16699 48.5 12.5s15.5 29.5 19.5 63.5c5.33301 28 5.5 48 0.5 60s-19.833 18 -44.5 18h-48z" />
    <glyph glyph-name="uni040B" unicode="&#x40b;" horiz-adv-x="798" 
d="M450 528l-13.999 -104c57.333 26.667 118.333 40 183 40c62 0 104.5 -14.833 127.5 -44.5s30.833 -76.167 23.5 -139.5l-39 -280h-217l34 241c2.66699 19.333 0.666992 31.833 -6 37.5s-20.667 8.5 -42 8.5c-32.667 0 -61.334 -5.66699 -86.001 -17l-38 -270h-218l74 528
h-189l22 162h598l-22 -162h-191z" />
    <glyph glyph-name="uni040C" unicode="&#x40c;" horiz-adv-x="676" 
d="M363 720l-47 86l247 156l66 -146zM449 361l-0.999023 -5.99902c23.333 -4 42 -8 56 -12s27 -11.333 39 -22s21 -21.834 27 -33.501s12.333 -31 19 -58s12.167 -54.333 16.5 -82s10.166 -67.167 17.499 -118.5c2 -12.667 3.33301 -22.334 4 -29.001h-222
c-16.667 134 -26.667 208.667 -30 224c-8 32.667 -20.667 52.334 -38 59.001c-9.33301 3.33301 -24 5 -44 5h-29c3.33301 -24 3.33301 -46.333 0 -67l-31 -221h-217l97 690h217l-26 -178c-2.66699 -23.333 -8.66699 -51.333 -18 -84h20c40.667 0 70.334 14.667 89.001 44
s48 102 88 218h225c-50.667 -126 -80.334 -198 -89.001 -216c-22.667 -44.667 -49 -74.667 -79 -90c-20.667 -10 -51 -17.667 -91 -23z" />
    <glyph glyph-name="uni040D" unicode="&#x40d;" horiz-adv-x="735" 
d="M532 806l-67 -86l-248 106l80 130zM637 0h-206l45 309c6 38 15.667 77 29 117h-7c-22 -48.667 -40.667 -84 -56 -106l-217 -320h-209l97 690h208l-41 -293c-4 -30 -15 -73.667 -33 -131h8c20 46 40 83.667 60 113l213 311h206z" />
    <glyph glyph-name="uni040E" unicode="&#x40e;" horiz-adv-x="622" 
d="M476 920l94.001 -14.999c1.33301 -46.667 -15.667 -86.334 -51 -119.001s-83 -49 -143 -49c-60.667 0 -106.5 17.833 -137.5 53.5s-39.167 76.5 -24.5 122.5l98 5c-3.33301 -20.667 0.666992 -35 12 -43s31.666 -12 60.999 -12c56.667 0 87 19 91 57zM682.001 690.001
l-218.999 -507c-30 -68.667 -59.333 -117.5 -88 -146.5s-68.334 -45.833 -119.001 -50.5c-49.333 -5.33301 -122.333 -0.333008 -219 15l32 147c26.667 -0.666992 49.667 -1 69 -1s35.666 0.833008 48.999 2.5s24.333 5 33 10s15.334 11.833 20.001 20.5l6 12h-34
c-56.667 0 -89 32.667 -97 98l-68 400h217l31 -329c0.666992 -11.333 5.66699 -17 15 -17h7l138 346h227z" />
    <glyph glyph-name="uni040F" unicode="&#x40f;" horiz-adv-x="717" 
d="M716 690l-97 -690h-216l-29 -151h-148l13 151h-223l97 690h218l-77 -548h167l77 548h218z" />
    <glyph glyph-name="uni0410" unicode="&#x410;" horiz-adv-x="678" 
d="M418 146l-187.998 0.000976562l-54 -146h-225l266 638c13.333 34.667 38.666 52 75.999 52h196c17.333 0 32.666 -5.83301 45.999 -17.5s21 -25.834 23 -42.501l89 -630h-217zM406.002 304.001l-11.999 149c-2 17.333 -2.33301 43 -1 77h-28
c-4.66699 -27.333 -11.334 -52.333 -20.001 -75l-56 -151h117z" />
    <glyph glyph-name="uni0411" unicode="&#x411;" horiz-adv-x="643" 
d="M292 423h58.998c105.333 0 177.833 -16.5 217.5 -49.5s53.5 -90.833 41.5 -173.5c-11.333 -80 -36.166 -134.667 -74.499 -164s-101.166 -44 -188.499 -44c-147.333 0 -258 2.66699 -332 8l97 690c77.333 5.33301 165.333 8 264 8c78 0 163.333 -2.66699 256 -8l-38 -155
h-286zM251.998 142h53c34 0 56.5 4.66699 67.5 14s18.833 32 23.5 68c3.33301 28.667 1.5 47.167 -5.5 55.5s-24.833 12.5 -53.5 12.5h-64z" />
    <glyph glyph-name="uni0412" unicode="&#x412;" horiz-adv-x="661" 
d="M15 0l96.999 690.001c65.333 5.33301 159.666 8 282.999 8c94.667 0 160.334 -13.5 197.001 -40.5s50.334 -76.167 41.001 -147.5c-6.66699 -49.333 -20.334 -85.5 -41.001 -108.5s-54.334 -36.5 -101.001 -40.5l-1 -6c102 -8.66699 144.667 -72.334 128 -191.001
c-9.33301 -66.667 -33.666 -112 -72.999 -136s-103.666 -36 -192.999 -36c-150 0 -262.333 2.66699 -337 8zM285.999 423.001h67.002c25.333 0 42.666 4.5 51.999 13.5s16.333 28.5 21 58.5c3.33301 20 2.16602 33.833 -3.50098 41.5s-17.167 11.5 -34.5 11.5h-84z
M247.001 142.001h63c32 0 54 5.16699 66 15.5s20.333 32.5 25 66.5c4 28 2.66699 46.333 -4 55s-22.667 13 -48 13h-81z" />
    <glyph glyph-name="uni0413" unicode="&#x413;" horiz-adv-x="543" 
d="M13 0l76.0029 541c6.66699 46 25.167 83 55.5 111s67.166 42 110.499 42c161.333 0 272.666 -5 333.999 -15l-24 -151h-215c-16.667 0 -28.834 -2.83301 -36.501 -8.5s-12.5 -16.167 -14.5 -31.5l-69 -488h-217z" />
    <glyph glyph-name="uni0414" unicode="&#x414;" horiz-adv-x="790" 
d="M740 7l-22 -158h-157l6 151h-423l-35 -151h-159l21 151l18 142h72c49.333 100.667 97 235 143 403c26.667 96.667 91 145 193 145h342l-77 -548h95zM446 142l57.999 406h-31c-18 0 -32 -4 -42 -12s-17.667 -22.667 -23 -44c-37.333 -154 -74.666 -270.667 -111.999 -350
h150z" />
    <glyph glyph-name="uni0415" unicode="&#x415;" horiz-adv-x="590" 
d="M586 528l-240.002 0.000976562c-17.333 0 -29.666 -3 -36.999 -9s-12 -16.333 -14 -31l-9 -63h249l-18 -144h-251l-11 -80c-4 -26 8.33301 -39 37 -39h240l-4 -154c-59.333 -8 -172 -12 -338 -12c-56 0 -97.667 17.333 -125 52s-37.333 80 -30 136l50 357
c6.66699 47.333 25.334 84.666 56.001 111.999s71 41 121 41c165.333 0 281.333 -4.66699 348 -14z" />
    <glyph glyph-name="uni0416" unicode="&#x416;" horiz-adv-x="961" 
d="M744 362l-1.00586 -5.99902c18.667 -3.33301 33.834 -6.5 45.501 -9.5s22.5 -9.16699 32.5 -18.5s17.5 -18 22.5 -26s10.5 -23.333 16.5 -46s10.667 -43.167 14 -61.5l16 -90.5l18 -104h-219c-6 38.667 -12.667 86 -20 142c-9.33301 68 -17 109.333 -23 124
s-19.667 22 -41 22h-23c2 -22.667 1 -45 -3 -67l-31 -221h-208l32 229c3.33301 20 8.66602 39.667 15.999 59h-19c-10.667 0 -19.5 -1.66699 -26.5 -5s-14.667 -9.33301 -23 -18s-17.666 -23.667 -27.999 -45l-35.5 -77l-54 -122l-9 -21h-230l45 107.5
c10 23.667 21.833 50.167 35.5 79.5s23.667 49.833 30 61.5s15.333 25.5 27 41.5s20.834 26.167 27.501 30.5s16.667 9.83301 30 16.5s25.5 11 36.5 13l44.5 8l1 6c-54 11.333 -87.667 29.666 -101 54.999s-27.333 88.333 -42 189c-4.66699 34.667 -8.66699 62 -12 82h216
c4 -27.333 8.66699 -62.666 14 -105.999c8.66699 -68.667 16.334 -111.834 23.001 -129.501s20.334 -26.5 41.001 -26.5h34c-3.33301 32 -3 62.667 1 92l24 170h207l-26 -178c-5.33301 -34.667 -11.333 -62.667 -18 -84h8c8 0 15 0.5 21 1.5s11.833 3.33301 17.5 7
s10.5 7.16699 14.5 10.5s8.83301 9.5 14.5 18.5s10.334 17.333 14.001 25s8.83398 19.334 15.501 35.001l18 43l22.5 55l27.5 66.5h224l-33.5 -80l-28 -67c-5.66699 -14 -13.167 -31 -22.5 -51s-16.333 -34 -21 -42s-11.5 -18 -20.5 -30s-16.833 -20 -23.5 -24
s-15.667 -8.83301 -27 -14.5s-23 -9.83398 -35 -12.501s-26.333 -5 -43 -7z" />
    <glyph glyph-name="uni0417" unicode="&#x417;" horiz-adv-x="583" 
d="M88 527l-9.00293 149.002c73.333 14.667 156 22 248 22c96 0 161.667 -13.5 197 -40.5s48 -76.167 38 -147.5c-6.66699 -49.333 -20.334 -85.5 -41.001 -108.5s-53.667 -36.5 -99 -40.5l-1 -6c92.667 -8.66699 130.667 -72.334 114 -191.001
c-9.33301 -66.667 -32.666 -112 -69.999 -136s-97.666 -36 -180.999 -36c-114.667 0 -213 13 -295 39l23 139c90 -14.667 165 -22 225 -22c27.333 0 47 5.5 59 16.5s20 30.833 24 59.5c4 26.667 2.5 44.167 -4.5 52.5s-22.5 12.5 -46.5 12.5h-150l17 137h140
c26 0 43.167 4.66699 51.5 14s14.5 27.666 18.5 54.999c2.66699 19.333 0.333984 32 -6.99902 38s-21.666 9 -42.999 9c-56 0 -125.333 -5 -208 -15z" />
    <glyph glyph-name="uni0418" unicode="&#x418;" horiz-adv-x="735" 
d="M637 0h-206l45 309c6 38 15.667 77 29 117h-7c-22 -48.667 -40.667 -84 -56 -106l-217 -320h-209l97 690h208l-41 -293c-4 -30 -15 -73.667 -33 -131h8c20 46 40 83.667 60 113l213 311h206z" />
    <glyph glyph-name="uni0419" unicode="&#x419;" horiz-adv-x="735" 
d="M499 909h122.999c1.33301 -48 -15.5 -88.667 -50.5 -122s-81.167 -50 -138.5 -50c-63.333 0 -110.666 16.833 -141.999 50.5s-39.666 74.167 -24.999 121.5h129c-8.66699 -30 -8.83398 -50.167 -0.500977 -60.5s21.5 -15.5 39.5 -15.5c43.333 0 65 25.333 65 76z
M636.999 0h-206l45 309c6 38 15.667 77 29 117h-7c-22 -48.667 -40.667 -84 -56 -106l-217 -320h-209l97 690h208l-41 -293c-4 -30 -15 -73.667 -33 -131h8c20 46 40 83.667 60 113l213 311h206z" />
    <glyph glyph-name="uni041A" unicode="&#x41a;" horiz-adv-x="676" 
d="M449 361l-0.999023 -5.99902c23.333 -4 42 -8 56 -12s27 -11.333 39 -22s21 -21.834 27 -33.501s12.333 -31 19 -58s12.167 -54.333 16.5 -82s10.166 -67.167 17.499 -118.5c2 -12.667 3.33301 -22.334 4 -29.001h-222c-16.667 134 -26.667 208.667 -30 224
c-8 32.667 -20.667 52.334 -38 59.001c-9.33301 3.33301 -24 5 -44 5h-29c3.33301 -24 3.33301 -46.333 0 -67l-31 -221h-217l97 690h217l-26 -178c-2.66699 -23.333 -8.66699 -51.333 -18 -84h20c40.667 0 70.334 14.667 89.001 44s48 102 88 218h225
c-50.667 -126 -80.334 -198 -89.001 -216c-22.667 -44.667 -49 -74.667 -79 -90c-20.667 -10 -51 -17.667 -91 -23z" />
    <glyph glyph-name="uni041B" unicode="&#x41b;" horiz-adv-x="711" 
d="M710 690l-97.001 -690h-217l77 548h-29c-20.667 0 -35.667 -3.83301 -45 -11.5s-16.333 -21.834 -21 -42.501c-36.667 -167.333 -69 -280 -97 -338c-35.333 -74 -77 -122.333 -125 -145s-106 -27.667 -174 -15l-8 168c0.666992 0 7 0.666992 19 2s19.167 2.33301 21.5 3
s8.33301 2.5 18 5.5s16.5 6.5 20.5 10.5s9.33301 9.83301 16 17.5s12.334 16.834 17.001 27.501c26 54 55.667 159 89 315c21.333 96.667 83.333 145 186 145h349z" />
    <glyph glyph-name="uni041C" unicode="&#x41c;" horiz-adv-x="954" 
d="M667 690h193.001c24.667 0 43.334 -7 56.001 -21s17.667 -33.333 15 -58l-62 -611h-195l54 528h-14l-116 -356c-12 -41.333 -41 -62 -87 -62h-110c-23.333 0 -41.833 6.16699 -55.5 18.5s-20.834 29.5 -21.501 51.5l-19 348h-16l-91 -528h-195l111 619
c4.66699 24.667 13 42.667 25 54s30 17 54 17h184c22.667 0 40.667 -6.33301 54 -19s20.333 -30 21 -52l12 -274c2 -30.667 1.33301 -65 -2 -103h10c5.33301 25.333 13.666 59 24.999 101l84 284c11.333 42 40 63 86 63z" />
    <glyph glyph-name="uni041D" unicode="&#x41d;" horiz-adv-x="713" 
d="M712 690l-97 -690h-217l41 289h-165l-41 -289h-217l97 690h217l-35 -247h165l35 247h217z" />
    <glyph glyph-name="uni041E" unicode="&#x41e;" 
d="M389 704c47.333 0 87.666 -3.5 120.999 -10.5s63 -19 89 -36s45.167 -39.5 57.5 -67.5s20.833 -62.833 25.5 -104.5s2.33398 -91.167 -6.99902 -148.5c-9.33301 -71.333 -22.666 -129.666 -39.999 -174.999s-40.666 -81 -69.999 -107s-63 -44 -101 -54
s-85.333 -15 -142 -15c-82 0 -144.833 10.833 -188.5 32.5s-73.334 59.167 -89.001 112.5s-16.834 127.333 -3.50098 222c10 70.667 23.333 128.5 40 173.5s39.5 80.667 68.5 107s62.167 44.666 99.5 54.999s84 15.5 140 15.5zM387 543c-36 0 -61.499 -12.833 -76.499 -38.5
s-29.167 -81.5 -42.5 -167.5c-12 -79.333 -14.167 -130.833 -6.5 -154.5s29.5 -35.5 65.5 -35.5c37.333 0 63.333 12.833 78 38.5s28.667 81.5 42 167.5c11.333 78.667 13.166 130 5.49902 154s-29.5 36 -65.5 36z" />
    <glyph glyph-name="uni041F" unicode="&#x41f;" horiz-adv-x="714" 
d="M713 690l-97 -690h-218l77 548h-164l-77 -548h-218l97 690h600z" />
    <glyph glyph-name="uni0420" unicode="&#x420;" horiz-adv-x="642" 
d="M15 0l96.999 690c66.667 6.66699 159.334 10 278.001 10c107.333 0 180.333 -17.333 219 -52s52 -98.334 40 -191.001c-12 -87.333 -37.5 -146.666 -76.5 -177.999s-104.5 -47 -196.5 -47c-32 0 -69 2.33301 -111 7l-34 -239h-216zM284.999 385h72
c27.333 0 45.833 5 55.5 15s17.167 34.333 22.5 73c4 28.667 2.66699 48.167 -4 58.5s-22 15.5 -46 15.5h-77z" />
    <glyph glyph-name="uni0421" unicode="&#x421;" horiz-adv-x="603" 
d="M545 179l8.00195 -158.998c-68.667 -21.333 -148.334 -32 -239.001 -32c-116.667 0 -196 27.167 -238 81.5s-53.667 148.833 -35 283.5c10 70.667 22.833 128 38.5 172s37.5 79.5 65.5 106.5s61.167 45.5 99.5 55.5s87.166 15 146.499 15c85.333 0 161 -9.33301 227 -28
l-25 -157c-97.333 1.33301 -168.333 2 -213 2c-25.333 0 -44.333 -3.83301 -57 -11.5s-23.334 -24.334 -32.001 -50.001s-16.667 -65.834 -24 -120.501c-10 -68 -12 -112.667 -6 -134s27 -32 63 -32c90.667 0 164.334 2.66699 221.001 8z" />
    <glyph glyph-name="uni0422" unicode="&#x422;" horiz-adv-x="618" 
d="M641 528h-191l-74 -528h-217l74 528h-190l23 162h598z" />
    <glyph glyph-name="uni0423" unicode="&#x423;" horiz-adv-x="622" 
d="M682 690l-218.999 -507c-30 -68.667 -59.333 -117.5 -88 -146.5s-68.334 -45.833 -119.001 -50.5c-49.333 -5.33301 -122.333 -0.333008 -219 15l32 147c26.667 -0.666992 49.667 -1 69 -1s35.666 0.833008 48.999 2.5s24.333 5 33 10s15.334 11.833 20.001 20.5l6 12
h-34c-56.667 0 -89 32.667 -97 98l-68 400h217l31 -329c0.666992 -11.333 5.66699 -17 15 -17h7l138 346h227z" />
    <glyph glyph-name="uni0424" unicode="&#x424;" horiz-adv-x="876" 
d="M606 704l-10 -74.002c111.333 -9.33301 187.5 -36.166 228.5 -80.499s54.833 -115.166 41.5 -212.499c-13.333 -98 -45.833 -167.333 -97.5 -208s-136.5 -64.334 -254.5 -71.001l-10 -72h-218l10 74c-112 9.33301 -188.5 36 -229.5 80s-54.833 115 -41.5 213
s46 167.333 98 208s137 64.334 255 71.001l10 72h218zM565 479.998l-40.001 -268.999c44.667 4.66699 74.334 16.5 89.001 35.5s25 54.5 31 106.5c6 45.333 3.83301 76.666 -6.5 93.999s-34.833 28.333 -73.5 33zM326.999 209.999l39.999 269.002
c-45.333 -4.66699 -75.333 -16.334 -90 -35.001s-25 -54.334 -31 -107.001c-6 -47.333 -4.16699 -79.333 5.5 -96s34.834 -27 75.501 -31z" />
    <glyph glyph-name="uni0425" unicode="&#x425;" horiz-adv-x="672" 
d="M516 352l117 -352h-213l-75 284l-161 -284h-230l218 352l-104 338h209l71 -268l151 268h221z" />
    <glyph glyph-name="uni0426" unicode="&#x426;" horiz-adv-x="753" 
d="M720 142l-20 -142l-21 -151h-157l6 151h-512l97 690h218l-77 -548h154l77 548h217l-77 -548h95z" />
    <glyph glyph-name="uni0427" unicode="&#x427;" horiz-adv-x="690" 
d="M689 690l-97.001 -690h-217l36 258c-66.667 -28 -126.667 -42 -180 -42c-70 0 -119.833 15.167 -149.5 45.5s-40.5 76.5 -32.5 138.5l41 290h218l-36 -251c-2.66699 -19.333 -0.166992 -32 7.5 -38s21.167 -9 40.5 -9c42.667 0 80.334 5.66699 113.001 17l39 281h217z
" />
    <glyph glyph-name="uni0428" unicode="&#x428;" horiz-adv-x="1015" 
d="M1014 690l-97 -690h-901l97 690h211l-77 -548h134l77 548h211l-77 -548h134l77 548h211z" />
    <glyph glyph-name="uni0429" unicode="&#x429;" horiz-adv-x="1066" 
d="M1033 142l-20 -142l-21 -151h-157l6 151h-825l97 690h212l-77 -548h134l77 548h211l-77 -548h134l77 548h212l-77 -548h94z" />
    <glyph glyph-name="uni042A" unicode="&#x42a;" horiz-adv-x="786" 
d="M457 453h50.002c104.667 0 175.334 -17.167 212.001 -51.5s48.667 -96.5 36 -186.5c-12.667 -88 -36.334 -147.167 -71.001 -177.5s-96.334 -45.5 -185.001 -45.5c-144.667 0 -252.334 2.66699 -323.001 8l74 528h-209l22 162h427zM413.002 142l44.001 -0.000976562
c17.333 0 29.166 0.333008 35.499 1s13.5 3.66699 21.5 9s13.667 14 17 26s6.33301 29 9 51c6 36.667 6.5 61.334 1.5 74.001s-21.833 19 -50.5 19h-53z" />
    <glyph glyph-name="uni042B" unicode="&#x42b;" horiz-adv-x="951" 
d="M297 453h49c104 0 174.333 -17.167 211 -51.5s48.667 -96.5 36 -186.5c-12.667 -88 -36.167 -147.167 -70.5 -177.5s-95.5 -45.5 -183.5 -45.5c-145.333 0 -253 2.66699 -323 8l97 690h217zM950 690l-97 -690h-217l97 690h217zM253 142l43 -0.000976562
c17.333 0 29 0.333008 35 1s13 3.66699 21 9s13.667 14 17 26s6.33301 29 9 51c6 36.667 6.5 61.334 1.5 74.001s-21.5 19 -49.5 19h-52z" />
    <glyph glyph-name="uni042C" unicode="&#x42c;" horiz-adv-x="631" 
d="M297 453h53.001c105.333 0 176.5 -17.167 213.5 -51.5s49.167 -96.5 36.5 -186.5c-12.667 -88 -36.5 -147.167 -71.5 -177.5s-97.167 -45.5 -186.5 -45.5c-146.667 0 -255.334 2.66699 -326.001 8l97 690h217zM253.001 142l46 -0.000976562c18 0 30.333 0.333008 37 1
s14.167 3.66699 22.5 9s14.166 14 17.499 26s6.33301 29 9 51c6 36.667 6.33301 61.334 1 74.001s-22.666 19 -51.999 19h-56z" />
    <glyph glyph-name="uni042D" unicode="&#x42d;" horiz-adv-x="602" 
d="M84 517l-8 159c64 17.333 139 26 225 26c115.333 0 194.666 -27.833 237.999 -83.5s56 -149.5 38 -281.5c-17.333 -129.333 -51.166 -219.833 -101.499 -271.5s-130.166 -77.5 -239.499 -77.5c-101.333 0 -183 11.333 -245 34l25 157c47.333 -5.33301 117.333 -8 210 -8
c36 0 62.167 7.66699 78.5 23s29.166 44.333 38.499 87h-264l16 144h270c2.66699 36.667 -0.833008 61.5 -10.5 74.5s-28.167 19.5 -55.5 19.5c-51.333 0 -123 -0.666992 -215 -2z" />
    <glyph glyph-name="uni042E" unicode="&#x42e;" horiz-adv-x="1017" 
d="M294 427l99.0029 0.00195312c21.333 106.667 55.666 179.5 102.999 218.5s120.333 58.5 219 58.5c110.667 0 189 -28.333 235 -85s60 -150.667 42 -282c-10 -70.667 -23.167 -128.334 -39.5 -173.001s-38.833 -80.334 -67.5 -107.001s-62.334 -45.167 -101.001 -55.5
s-87.334 -15.5 -146.001 -15.5c-103.333 0 -175.5 21.5 -216.5 64.5s-57.167 121.167 -48.5 234.5h-99l-40 -285h-218l97 690h218zM765.003 353.002c10.667 78.667 12.5 130 5.5 154s-27.833 36 -62.5 36c-38 0 -64 -12.5 -78 -37.5s-27 -81.167 -39 -168.5
c-10.667 -78.667 -12.167 -130 -4.5 -154s28.167 -36 61.5 -36c37.333 0 63.333 12.833 78 38.5s27.667 81.5 39 167.5z" />
    <glyph glyph-name="uni042F" unicode="&#x42f;" horiz-adv-x="675" 
d="M192 320l1.00195 5.00098c-48.667 6.66699 -82.334 27.667 -101.001 63s-24.334 78.666 -17.001 129.999c10 72 38 120.333 84 145s118 37 216 37c132.667 0 232.334 -3.33301 299.001 -10l-97 -690h-218l35 252h-43c-20 0 -35.333 -3.83301 -46 -11.5
s-19.334 -20.834 -26.001 -39.501l-71 -201h-236l84 216c22 60.667 67.333 95.334 136 104.001zM416.002 405.001l20 142h-70c-26 0 -44.167 -4.16699 -54.5 -12.5s-17.5 -25.5 -21.5 -51.5c-4.66699 -32 -3 -53 5 -63s25.667 -15 53 -15h68z" />
    <glyph glyph-name="uni0430" unicode="&#x430;" horiz-adv-x="616" 
d="M367 0l-2 97.001c-44.667 -66.667 -109.667 -103 -195 -109c-46.667 -3.33301 -82.5 6.16699 -107.5 28.5s-39.5 54.5 -43.5 96.5s-2 92.333 6 151c6 38.667 14 72.167 24 100.5s22.833 51.5 38.5 69.5s31.5 32.5 47.5 43.5s36.833 19.167 62.5 24.5
s49.5 8.66602 71.5 9.99902s50.333 2 85 2s79 -3.5 133 -10.5s90.667 -14.167 110 -21.5l-68 -482h-162zM374 377.001h-46c-24.667 0 -44 -6.83301 -58 -20.5s-24.333 -42.5 -31 -86.5c-9.33301 -63.333 -11.333 -100.333 -6 -111c3.33301 -8 12.333 -11.333 27 -10
c28 2 59 27.667 93 77z" />
    <glyph glyph-name="uni0431" unicode="&#x431;" horiz-adv-x="612" 
d="M584 732l18.002 -163.998c-42.667 -9.33301 -91.167 -14.666 -145.5 -15.999s-93.833 -5.33301 -118.5 -12c-42 -10.667 -72.333 -26 -91 -46c-17.333 -18 -30 -39.667 -38 -65c43.333 35.333 98.666 53 165.999 53c86.667 0 145 -18.833 175 -56.5
s39 -99.834 27 -186.501c-12 -88 -40 -151.833 -84 -191.5s-111.333 -59.5 -202 -59.5c-40 0 -75 3.16699 -105 9.5s-54.833 14.333 -74.5 24s-35.5 23.167 -47.5 40.5s-20.833 34.166 -26.5 50.499s-8.83398 37.666 -9.50098 63.999s0 49.833 2 70.5s5.33301 47 10 79
c7.33301 52.667 15.5 96.834 24.5 132.501s21.667 70.167 38 103.5s37.5 60.5 63.5 81.5s58 37.167 96 48.5c42 12.667 100.333 21.667 175 27s123.667 9.66602 147 12.999zM359.002 257.002c4.66699 32.667 7 55.5 7 68.5s-2.33301 22.333 -7 28s-14 8.5 -28 8.5
c-28 0 -48 -8 -60 -24s-21.333 -48.333 -28 -97c-7.33301 -48 -9.33301 -78.5 -6 -91.5s15.333 -19.5 36 -19.5c26 0 45 8.5 57 25.5s21.667 50.833 29 101.5z" />
    <glyph glyph-name="uni0432" unicode="&#x432;" horiz-adv-x="599" 
d="M423 260l-1.00293 -4.99902c106 -6 151.667 -52.333 137 -139c-8 -50.667 -32.333 -85 -73 -103s-103.667 -27 -189 -27c-117.333 0 -196 22.667 -236 68s-53 118.333 -39 219c12.667 90.667 43.834 154.5 93.501 191.5s127.167 53.5 232.5 49.5
c82 -3.33301 140.667 -17.5 176 -42.5s50.333 -60.5 45 -106.5c-3.33301 -28 -16.666 -51.833 -39.999 -71.5s-58.666 -30.834 -105.999 -33.501zM240.997 305.001l63.999 4.00195c22 1.33301 38.333 4.16602 49 8.49902s17.334 12.166 20.001 23.499
c3.33301 14 1.33301 23.667 -6 29s-22.333 8 -45 8c-28.667 0 -48.5 -6.16699 -59.5 -18.5s-18.5 -30.5 -22.5 -54.5zM298.996 206.003l-73.001 -4c-3.33301 -32 -1.5 -53.333 5.5 -64s23.833 -16 50.5 -16s45 2.66699 55 8s16.333 17 19 35
c2.66699 16.667 -0.166016 28 -8.49902 34s-24.5 8.33301 -48.5 7z" />
    <glyph glyph-name="uni0433" unicode="&#x433;" horiz-adv-x="552" 
d="M63 354l-3.99902 116.994c71.333 28.667 155 43 251 43c72.667 0 129 -11.5 169 -34.5s59 -60.833 57 -113.5c-2.66699 -84 -58 -138 -166 -162l-111 -25c-24 -5.33301 -39.667 -9.83301 -47 -13.5s-11 -8.16699 -11 -13.5c0 -8 6.16699 -13 18.5 -15
s38.166 -1.66699 77.499 1c80.667 5.33301 142 11 184 17l17 -125c-28.667 -9.33301 -51 -16.166 -67 -20.499s-39.833 -8.83301 -71.5 -13.5s-65.5 -7 -101.5 -7c-92 0 -159.333 13.167 -202 39.5s-61 68.833 -55 127.5c4 42 18.5 74.333 43.5 97
s59.833 39.334 104.5 50.001l118 28c4 0.666992 9.16699 1.83398 15.5 3.50098s11.166 2.83398 14.499 3.50098s7.33301 1.66699 12 3s8.33398 2.5 11.001 3.5s5.16699 2.33301 7.5 4s3.83301 3.33398 4.5 5.00098s1 3.83398 1 6.50098c-0.666992 6 -6 9.5 -16 10.5
s-28.667 0.833008 -56 -0.5c-32 -0.666992 -98 -6 -198 -16z" />
    <glyph glyph-name="uni0434" unicode="&#x434;" horiz-adv-x="606" 
d="M118 598l28.001 131.004c166 -13.333 283.667 -58.333 353 -135s95.333 -180.334 78 -311.001c-14.667 -110 -46.334 -187 -95.001 -231s-121.334 -66 -218.001 -66c-86 0 -150.5 19.5 -193.5 58.5s-59.167 98.167 -48.5 177.5c10.667 81.333 35.667 140.166 75 176.499
s94 54.5 164 54.5c41.333 0 76 -7.33301 104 -22c-6.66699 43.333 -28.667 78.166 -66 104.499s-97.666 47.166 -180.999 62.499zM280.001 130.004c23.333 0 39.499 10.501 48.499 31.501s19.167 66.5 30.5 136.5l2 15c-14 5.33301 -28 8 -42 8
c-24.667 0 -42.167 -7.5 -52.5 -22.5s-18.5 -41.167 -24.5 -78.5c-6.66699 -34.667 -7.66699 -58.334 -3 -71.001s18.334 -19 41.001 -19z" />
    <glyph glyph-name="uni0435" unicode="&#x435;" horiz-adv-x="590" 
d="M512 160l13.999 -127.999c-63.333 -29.333 -142.333 -44 -237 -44c-56 0 -102.667 5.66699 -140 17s-66 28.666 -86 51.999s-33.167 50.833 -39.5 82.5s-7.16602 69.834 -2.49902 114.501c5.33301 52.667 15.666 96.334 30.999 131.001s36.5 61.167 63.5 79.5
s57 31.166 90 38.499s73.167 11 120.5 11c100 0 168.667 -15.333 206 -46s51.333 -77.334 42 -140.001c-6 -43.333 -25.167 -73.5 -57.5 -90.5s-84.166 -28.167 -155.499 -33.5l-125 -9c0.666992 -18.667 6.16699 -31 16.5 -37s28.5 -9 54.5 -9c72.667 0 141 3.66699 205 11
zM248.999 297.001l57.001 6.00195c24 2 40.833 5.83301 50.5 11.5s15.5 17.167 17.5 34.5c1.33301 11.333 -1.16699 19.333 -7.5 24s-19.166 6.66699 -38.499 6c-24.667 -0.666992 -42.334 -6.33398 -53.001 -17.001s-19.334 -32.334 -26.001 -65.001z" />
    <glyph glyph-name="uni0436" unicode="&#x436;" horiz-adv-x="853" 
d="M649 263l-1 -5.99902c41.333 -8.66699 66.666 -16 75.999 -22c19.333 -12 36 -42.333 50 -91c7.33301 -28 18 -76 32 -144h-200c-22 104 -35.333 161.667 -40 173c-10.667 13.333 -22.334 20.333 -35.001 21h-30c2 -15.333 2 -30 0 -44l-18 -150h-184l21 151
c2.66699 16 6 30.333 10 43h-25c-10 0 -18 -1.5 -24 -4.5s-14 -11.833 -24 -26.5s-20.5 -33.5 -31.5 -56.5l-49.5 -106.5h-213c52.667 111.333 84.334 175 95.001 191c17.333 28 38.333 46 63 54c11.333 3.33301 38.333 8 81 14l1 6c-45.333 6 -73.666 13 -84.999 21
c-16 11.333 -28.667 39.333 -38 84l-24 130h199c15.333 -92 25.333 -144 30 -156c6 -12.667 16.667 -19.334 32 -20.001h10h24c-3.33301 21.333 -3 44.333 1 69l15 107h183l-17 -110c-2.66699 -19.333 -7.33398 -41.333 -14.001 -66h6c27.333 0 46.333 7.33301 57 22
s35.334 66 74.001 154h210c-50.667 -104.667 -82.334 -166 -95.001 -184c-18 -26.667 -40.333 -42.667 -67 -48c-11.333 -2 -29.666 -3.66699 -54.999 -5z" />
    <glyph glyph-name="uni0437" unicode="&#x437;" horiz-adv-x="532" 
d="M58 355l-7 135c60.667 16 131.667 24 213 24c94.667 0 159.834 -9.5 195.501 -28.5s49.5 -58.167 41.5 -117.5c-4.66699 -33.333 -16 -58.833 -34 -76.5s-48 -28.167 -90 -31.5l-1 -5c84.667 -6 121 -52 109 -138c-3.33301 -24 -9.5 -44 -18.5 -60
s-19.667 -28.667 -32 -38s-29 -16.5 -50 -21.5s-42 -8.16699 -63 -9.5s-48.167 -2 -81.5 -2c-100.667 0 -185.667 8.33301 -255 25l20 133c76.667 -8 146.334 -12 209.001 -12c24.667 0 41.5 1.83301 50.5 5.5s13.833 12.5 14.5 26.5c1.33301 12 -1 20 -7 24
s-16.667 6.33301 -32 7h-171l14 116h162c28.667 0 45 9.33301 49 28c1.33301 12 -0.833984 19.333 -6.50098 22s-19.834 4 -42.501 4c-44.667 0 -107 -3.33301 -187 -10z" />
    <glyph glyph-name="uni0438" unicode="&#x438;" horiz-adv-x="618" 
d="M600 500l-69 -500h-164l-4 85c-68 -66 -136 -99 -204 -99c-52 0 -89.833 12.5 -113.5 37.5s-32.167 60.5 -25.5 106.5l51 370h211l-45 -311c-2.66699 -18 5 -27 23 -27c26 0 55.667 12.333 89 37l43 301h208z" />
    <glyph glyph-name="uni0439" unicode="&#x439;" horiz-adv-x="618" 
d="M401 721h122.999c1.33301 -48 -15.5 -88.667 -50.5 -122s-81.167 -50 -138.5 -50c-63.333 0 -110.666 16.833 -141.999 50.5s-39.666 74.167 -24.999 121.5h129c-8.66699 -30 -8.83398 -50.167 -0.500977 -60.5s21.5 -15.5 39.5 -15.5c43.333 0 65 25.333 65 76z
M599.999 500l-69 -500h-164l-4 85c-68 -66 -136 -99 -204 -99c-52 0 -89.833 12.5 -113.5 37.5s-32.167 60.5 -25.5 106.5l51 370h211l-45 -311c-2.66699 -18 5 -27 23 -27c26 0 55.667 12.333 89 37l43 301h208z" />
    <glyph glyph-name="uni043A" unicode="&#x43a;" horiz-adv-x="592" 
d="M396 260l-1.00098 -5.99902c43.333 -7.33301 69 -13 77 -17c16.667 -8.66699 29.667 -31.334 39 -68.001c4.66699 -19.333 14.667 -75.666 30 -168.999h-213c-12.667 93.333 -21.667 148.5 -27 165.5s-17.333 25.5 -36 25.5h-30c3.33301 -16 4 -30.333 2 -43l-22 -148
h-209l70 500h209l-16 -113c-4 -25.333 -8.66699 -46 -14 -62h10c27.333 0 46.333 7.83301 57 23.5s31.334 66.167 62.001 151.5h219l-22 -52l-31 -73.5c-6 -13.667 -14 -29.334 -24 -47.001s-17 -28.5 -21 -32.5s-12.333 -9.33301 -25 -16s-23.334 -10.5 -32.001 -11.5
s-23.667 -3.16699 -45 -6.5c-3.33301 -0.666992 -5.66602 -1 -6.99902 -1z" />
    <glyph glyph-name="uni043B" unicode="&#x43b;" horiz-adv-x="625" 
d="M607 500l-70 -500.002h-209l50 364h-17c-14 0 -24.167 -3 -30.5 -9s-11.833 -17.333 -16.5 -34c-17.333 -60 -35.333 -125.667 -54 -197c-10.667 -41.333 -30.667 -73.5 -60 -96.5s-61.833 -35.5 -97.5 -37.5s-72.834 0 -111.501 6l-10 157
c11.333 0.666992 20 1.33398 26 2.00098s13.667 2.16699 23 4.5s17 6.5 23 12.5s10.667 14 14 24c17.333 50.667 34 111.334 50 182.001c9.33301 42 26.833 72.833 52.5 92.5s61.834 29.5 108.501 29.5h329z" />
    <glyph glyph-name="uni043C" unicode="&#x43c;" horiz-adv-x="822" 
d="M547 500h176c49.333 0 71.666 -25 66.999 -75l-49 -425h-190l39 348h-10l-72 -215c-12 -40 -39.333 -60 -82 -60h-80c-22 0 -39.5 6 -52.5 18s-19.833 28.667 -20.5 50l-18 207h-9l-57 -348h-190l70 421c3.33301 28 11.333 48.167 24 60.5s32 18.5 58 18.5h165
c46 0 70 -23 72 -69l6 -147c0 -12.667 -1.33301 -41 -4 -85h10c8.66699 46.667 14.334 74.667 17.001 84l49 156c10.667 40.667 37.667 61 81 61z" />
    <glyph glyph-name="uni043D" unicode="&#x43d;" horiz-adv-x="626" 
d="M608 500l-70 -500h-206l27 195h-119l-27 -195h-207l70 500h207l-24 -170h119l24 170h206z" />
    <glyph glyph-name="uni043E" unicode="&#x43e;" horiz-adv-x="615" 
d="M327 514c102 0 173.5 -21 214.5 -63s54.5 -112 40.5 -210c-13.333 -94 -42.5 -159.667 -87.5 -197s-117.167 -56 -216.5 -56c-101.333 0 -173 20.833 -215 62.5s-56 110.5 -42 206.5c13.333 95.333 42.5 162 87.5 200s117.833 57 218.5 57zM323 372
c-26.667 0 -45.167 -8.16699 -55.5 -24.5s-19.5 -51.833 -27.5 -106.5c-6.66699 -46 -7.16699 -76 -1.5 -90s21.5 -21 47.5 -21c25.333 0 42.833 7.83301 52.5 23.5s18.5 50.167 26.5 103.5c7.33301 47.333 8.33301 78.333 3 93s-20.333 22 -45 22z" />
    <glyph glyph-name="uni043F" unicode="&#x43f;" horiz-adv-x="625" 
d="M239 500l4.99902 -88c32 32 67.333 57 106 75s76.334 27 113.001 27c43.333 0 77.5 -12.5 102.5 -37.5s34.167 -60.5 27.5 -106.5l-52 -370h-211l43 302c2 14 1.16699 23.667 -2.5 29s-11.834 7.33301 -24.501 6c-27.333 -2.66699 -56.666 -16 -87.999 -40l-42 -297h-210
l69 500h164z" />
    <glyph glyph-name="uni0440" unicode="&#x440;" horiz-adv-x="618" 
d="M242 500v-87.999c64 66.667 131 100 201 100c57.333 0 97.833 -23.333 121.5 -70s29.834 -115.334 18.501 -206.001c-6.66699 -50 -16.834 -92 -30.501 -126s-31 -59.667 -52 -77s-43.333 -29.5 -67 -36.5s-51.5 -10.5 -83.5 -10.5c-44.667 0 -90.667 4.33301 -138 13
c0 -31.333 -2.33301 -62.333 -7 -93l-14 -86h-210l94 680h167zM234 113.001h46c32 0 52.833 7 62.5 21s18.167 46 25.5 96c4.66699 33.333 7 58.333 7 75s-2.16699 28.5 -6.5 35.5s-11.833 10.5 -22.5 10.5c-28 0 -57.667 -15.667 -89 -47z" />
    <glyph glyph-name="uni0441" unicode="&#x441;" horiz-adv-x="536" 
d="M470 161l14.998 -132.998c-56 -26.667 -129.333 -40 -220 -40c-91.333 0 -158.166 21.5 -200.499 64.5s-56.833 111.833 -43.5 206.5c12.667 91.333 39.834 156.666 81.501 195.999s108.5 59 200.5 59s168.333 -13 229 -39l-28 -128h-176c-29.333 0 -50 -6.66699 -62 -20
s-20.667 -38 -26 -74c-6 -40.667 -4.83301 -67.334 3.5 -80.001s27.833 -19 58.5 -19c70 0 126 2.33301 168 7z" />
    <glyph glyph-name="uni0442" unicode="&#x442;" horiz-adv-x="890" 
d="M239 500l6.00098 -71.001c58.667 56.667 119.334 85 182.001 85c69.333 0 111.666 -24 126.999 -72c54 48 110.667 72 170 72c49.333 0 85.666 -12.667 108.999 -38s31.666 -60.666 24.999 -105.999l-52 -370h-208l43 311c2.66699 17.333 -3.66602 26 -18.999 26
c-19.333 0 -43.333 -10 -72 -30l-43 -307h-201l43 311c3.33301 17.333 -3 26 -19 26c-20 0 -44.333 -9.33301 -73 -28l-42 -309h-209l70 500h163z" />
    <glyph glyph-name="uni0443" unicode="&#x443;" horiz-adv-x="621" 
d="M403 500l225 0.000976562c-20.667 -108.667 -42.334 -196.167 -65.001 -262.5s-60 -141.833 -112 -226.5c-12 -19.333 -23.167 -36.333 -33.5 -51s-24 -31.834 -41 -51.501s-34 -36.167 -51 -49.5s-37.833 -26.5 -62.5 -39.5s-50.167 -22.5 -76.5 -28.5
s-56.666 -9 -90.999 -9s-70.5 4 -108.5 12l15 133c92 -14 166.333 10.333 223 73h-72c-16 0 -29.833 5 -41.5 15s-18.5 22.667 -20.5 38l-61 447h230l7 -358c0 -10.667 5.33301 -16 16 -16h22c24.667 50 44 102.5 58 157.5s27.333 127.167 40 216.5z" />
    <glyph glyph-name="uni0444" unicode="&#x444;" horiz-adv-x="779" 
d="M539 700l-26 -190.999c92.667 -10 157.667 -36.167 195 -78.5s50 -105.5 38 -189.5s-41.333 -145.167 -88 -183.5s-119.667 -60.833 -219 -67.5l-23 -170h-185l23 173c-94 9.33301 -159.333 34.666 -196 75.999s-49 104 -37 188c12 85.333 41.333 147.5 88 186.5
s120 61.833 220 68.5l25 188h185zM283 125.001l35.998 251.999c-33.333 -5.33301 -57 -17 -71 -35s-23.667 -48.333 -29 -91c-5.33301 -41.333 -3.66602 -71.166 5.00098 -89.499s28.334 -30.5 59.001 -36.5zM483.998 376l-35.998 -251c33.333 5.33301 57 17 71 35
s23.667 47.667 29 89c5.33301 42 3.66602 72.167 -5.00098 90.5s-28.334 30.5 -59.001 36.5z" />
    <glyph glyph-name="uni0445" unicode="&#x445;" horiz-adv-x="604" 
d="M458 255l106 -255h-197l-71 186l-125 -186h-216l181 255l-97 245h194l65 -175l119 175h210z" />
    <glyph glyph-name="uni0446" unicode="&#x446;" horiz-adv-x="663" 
d="M628 118l-17 -118l-22 -149h-172l49 149h-13c-23.333 0 -43.5 8 -60.5 24s-26.833 36.333 -29.5 61c-68 -66 -136 -99 -204 -99c-51.333 0 -89 12.5 -113 37.5s-32.667 60.5 -26 106.5l52 370h211l-45 -311c-2.66699 -18 5 -27 23 -27c26 0 55.333 12.333 88 37l43 301
h209l-51 -359c-0.666992 -6.66699 1 -12.167 5 -16.5s9.33301 -6.5 16 -6.5h57z" />
    <glyph glyph-name="uni0447" unicode="&#x447;" horiz-adv-x="605" 
d="M587 500l-69.999 -500.001h-209l23 163c-41.333 -14.667 -86.333 -22 -135 -22c-64.667 0 -110.834 11.333 -138.501 34s-37.5 61.334 -29.5 116.001l33 209h208l-24 -177c-4 -21.333 6 -32 30 -32c22 0 47.333 4.66699 76 14l27 195h209z" />
    <glyph glyph-name="uni0448" unicode="&#x448;" horiz-adv-x="890" 
d="M872 500l-70.002 -499.999h-163l-6 72c-58 -57.333 -119.333 -86 -184 -86c-67.333 0 -108.666 24.333 -123.999 73c-53.333 -48.667 -110.333 -73 -171 -73c-49.333 0 -85.666 12.667 -108.999 38s-31.666 60.666 -24.999 105.999l52 370h209l-44 -311
c-2.66699 -17.333 3.66602 -26 18.999 -26c20 0 44.667 10.667 74 32l43 305h197l-43 -311c-3.33301 -17.333 3 -26 19 -26c20.667 0 45.667 10 75 30l42 307h209z" />
    <glyph glyph-name="uni0449" unicode="&#x449;" horiz-adv-x="932" 
d="M897 118l-17.002 -118l-21 -149h-172l48 149h-14c-21.333 -0 -40 6.83301 -56 20.5s-26 31.834 -30 54.501c-59.333 -59.333 -121 -89 -185 -89c-68 0 -109.667 24.333 -125 73c-53.333 -48.667 -110.333 -73 -171 -73c-49.333 0 -85.666 12.667 -108.999 38
s-31.666 60.666 -24.999 105.999l52 370h209l-43 -311c-3.33301 -17.333 2.66699 -26 18 -26c20 0 44.667 10.667 74 32l43 305h197l-43 -311c-2.66699 -17.333 3.66602 -26 18.999 -26c20.667 0 45 9.66699 73 29l43 308h209l-50 -359
c-0.666992 -6.66699 0.833008 -12.167 4.5 -16.5s8.83398 -6.5 15.501 -6.5h56z" />
    <glyph glyph-name="uni044A" unicode="&#x44a;" horiz-adv-x="662" 
d="M433 500l-42.001 -162.997c18.667 4 40.334 6 65.001 6c74 -2 123.333 -14.833 148 -38.5s32.334 -71.5 23.001 -143.5c-8.66699 -66.667 -32.167 -112 -70.5 -136s-98.5 -36 -180.5 -36c-23.333 0 -45 1 -65 3s-40.667 5.5 -62 10.5s-38.833 12.167 -52.5 21.5
s-26.334 21.166 -38.001 35.499s-17.667 31.666 -18 51.999s2.5 44.166 8.5 71.499l47 167h-178l20 150h395zM361.999 224.003l-16.999 -64c-6.66699 -21.333 3.33301 -32 30 -32c15.333 0 25.666 3.16699 30.999 9.5s10 19.166 14 38.499
c4.66699 22.667 5.5 36.834 2.5 42.501s-12.167 8.5 -27.5 8.5c-13.333 0 -24.333 -1 -33 -3z" />
    <glyph glyph-name="uni044B" unicode="&#x44b;" horiz-adv-x="829" 
d="M273 500l-24.001 -169.002c28.667 8 57.667 12 87 12c74 -2 123.333 -14.833 148 -38.5s32.334 -71.5 23.001 -143.5c-8.66699 -66.667 -32.167 -112 -70.5 -136s-98.5 -36 -180.5 -36c-39.333 0 -72.333 2 -99 6s-51.667 11.833 -75 23.5s-39.833 29.334 -49.5 53.001
s-12.5 53.834 -8.5 90.501l47 338h202zM810.999 499.998l-70 -500h-211l70 500h211zM233.999 222.998l-8.99902 -63.001c-2 -11.333 0 -19.5 6 -24.5s15 -7.5 27 -7.5c14 0 24 3.5 30 10.5s10.333 19.5 13 37.5c3.33301 22.667 3.66602 36.834 0.999023 42.501
s-11.667 8.5 -27 8.5c-16 0 -29.667 -1.33301 -41 -4z" />
    <glyph glyph-name="uni044C" unicode="&#x44c;" horiz-adv-x="547" 
d="M273 500l-24 -169c28.667 8 58 12 88 12c75.333 -2 125.666 -14.833 150.999 -38.5s33.333 -71.5 24 -143.5c-8.66699 -66.667 -32.167 -112.167 -70.5 -136.5s-99.166 -36.5 -182.499 -36.5c-39.333 0 -72.5 2 -99.5 6s-52.333 11.833 -76 23.5s-40.5 29.5 -50.5 53.5
s-13 54.333 -9 91l47 338h202zM233 222l-9 -62.002c-1.33301 -11.333 1 -19.5 7 -24.5s15.667 -7.5 29 -7.5c15.333 0 26 3.33301 32 10s10.667 19.334 14 38.001c3.33301 22.667 3.5 36.834 0.5 42.501s-12.5 8.5 -28.5 8.5c-18 0 -33 -1.66699 -45 -5z" />
    <glyph glyph-name="uni044D" unicode="&#x44d;" horiz-adv-x="561" 
d="M56 357l-9.99902 127.001c64.667 20 143 30 235 30c97.333 0 165.333 -21.333 204 -64s52.667 -112.667 42 -210c-10.667 -98.667 -39.334 -165.667 -86.001 -201s-121 -53 -223 -53c-94 0 -170.667 11.667 -230 35l21 127c56.667 -2.66699 118 -4 184 -4
c42 0 70.167 2.66699 84.5 8s24.5 19 30.5 41h-248l14 120h248c0 19.333 -4.16699 31.666 -12.5 36.999s-25.5 8 -51.5 8c-72.667 -0.666992 -140 -1 -202 -1z" />
    <glyph glyph-name="uni044E" unicode="&#x44e;" horiz-adv-x="869" 
d="M261 323l69.9971 -0.000976562c16.667 75.333 44.334 126 83.001 152s98.334 39 179.001 39c33.333 0 62.166 -1.66699 86.499 -5s47 -9 68 -17s37.5 -18.667 49.5 -32s22.5 -30.166 31.5 -50.499s13.333 -44.333 13 -72s-2.5 -60.167 -6.5 -97.5
c-14 -100 -41.667 -166.833 -83 -200.5s-110.666 -50.5 -207.999 -50.5c-86 0 -146.667 14 -182 42s-51.666 80 -48.999 156h-71l-26 -187h-210l70 500h210zM616.997 248.999c6 48 6.66797 78.332 2.00098 90.999s-17.667 19 -39 19c-23.333 0 -39.333 -6.66699 -48 -20
s-16.334 -42.666 -23.001 -87.999c-6 -48 -6.5 -77.833 -1.5 -89.5s18.833 -17.5 41.5 -17.5s38.167 6.5 46.5 19.5s15.5 41.5 21.5 85.5z" />
    <glyph glyph-name="uni044F" unicode="&#x44f;" horiz-adv-x="593" 
d="M134 220l1.00195 6.00098c-74 20.667 -105 67.667 -93 141c10.667 63.333 36.667 103.666 78 120.999s118.666 26 231.999 26c106.667 0 181.667 -2.66699 225 -8l-71 -506h-204l22 157h-41c-29.333 0 -47 -11 -53 -33l-38 -124h-216l49 155
c13.333 43.333 49.666 65 108.999 65zM341.002 280.001l12.9971 90.001h-62c-17.333 0 -29.166 -2.5 -35.499 -7.5s-10.833 -15.5 -13.5 -31.5c-3.33301 -18.667 -2.16602 -31.834 3.50098 -39.501s18.834 -11.5 39.501 -11.5h55z" />
    <glyph glyph-name="uni0451" unicode="&#x451;" horiz-adv-x="590" 
d="M294 575h-80.999c-24 0 -34 11 -30 33l11 73c2.66699 23.333 15.667 35 39 35h77c24 0 34 -11 30 -33l-11 -76c-2.66699 -21.333 -14.334 -32 -35.001 -32zM483.001 575h-81.002c-24 0 -34 11 -30 33l11 74c3.33301 22.667 15.333 34 36 34h80c24 0 34 -11 30 -33
l-11 -75c-1.33301 -12 -4.66602 -20.5 -9.99902 -25.5s-13.666 -7.5 -24.999 -7.5zM511.999 160l13.999 -127.999c-63.333 -29.333 -142.333 -44 -237 -44c-56 0 -102.667 5.66699 -140 17s-66 28.666 -86 51.999s-33.167 50.833 -39.5 82.5
s-7.16602 69.834 -2.49902 114.501c5.33301 52.667 15.666 96.334 30.999 131.001s36.5 61.167 63.5 79.5s57 31.166 90 38.499s73.167 11 120.5 11c100 0 168.667 -15.333 206 -46s51.333 -77.334 42 -140.001c-6 -43.333 -25.167 -73.5 -57.5 -90.5
s-84.166 -28.167 -155.499 -33.5l-125 -9c0.666992 -18.667 6.16699 -31 16.5 -37s28.5 -9 54.5 -9c72.667 0 141 3.66699 205 11zM248.998 297.001l57.001 6.00195c24 2 40.833 5.83301 50.5 11.5s15.5 17.167 17.5 34.5c1.33301 11.333 -1.16699 19.333 -7.5 24
s-19.166 6.66699 -38.499 6c-24.667 -0.666992 -42.334 -6.33398 -53.001 -17.001s-19.334 -32.334 -26.001 -65.001z" />
    </font>
</defs>
</svg>
