<?xml version="1.0" standalone="no"?>
<!DOCTYPE svg PUBLIC "-//W3C//DTD SVG 1.1//EN" "http://www.w3.org/Graphics/SVG/1.1/DTD/svg11.dtd" >
<svg>
<metadata>
Created by FontForge 20090914 at Thu Nov 12 09:14:14 2015
 By www-data
Copyright &#194;&#169; 2013, Natanael Gama (www.ndiscovered.com . info(at)ndiscovered.com), with Reserved Font Name Exo. This Font Software is licensed under the SIL Open Font License, Version 1.1.
</metadata>
<defs>
<font id="Exo2-ExtraLightItalic" horiz-adv-x="559" >
  <font-face 
    font-family="Exo 2 Extra Light"
    font-weight="250"
    font-style="italic"
    font-stretch="normal"
    units-per-em="1000"
    panose-1="0 0 3 0 0 0 0 0 0 0"
    ascent="800"
    descent="-200"
    x-height="482"
    cap-height="690"
    bbox="-214 -263 1179.17 925"
    underline-thickness="50"
    underline-position="-50"
    slope="-8"
    unicode-range="U+0020-U+FB02"
  />
<missing-glyph horiz-adv-x="600" 
 />
    <glyph glyph-name=".notdef" horiz-adv-x="600" 
 />
    <glyph glyph-name="space" unicode=" " horiz-adv-x="228" 
 />
    <glyph glyph-name="exclam" unicode="!" horiz-adv-x="257" 
d="M158 363l-25 -158h-33l18 158l47 332h40zM94 94h14c11.333 0 16 -6 14 -18l-8 -60c-2 -10.667 -8 -16 -18 -16h-14c-12 0 -17.333 6 -16 18l9 60c2 10.667 8.33301 16 19 16z" />
    <glyph glyph-name="quotedbl" unicode="&#x22;" horiz-adv-x="329" 
d="M139 480h-30l27 210h36zM271 480h-30l26 210h36z" />
    <glyph glyph-name="numbersign" unicode="#" horiz-adv-x="667" 
d="M522 464l-66 -209h110l-9 -31h-110l-71 -224h-34l70 224h-216l-71 -224h-34l70 224h-117l10 31h117l66 209h-117l10 31h116l62 195h34l-61 -195h216l62 195h34l-61 -195h110l-10 -31h-110zM488 464h-217l-66 -209h217z" />
    <glyph glyph-name="dollar" unicode="$" horiz-adv-x="563" 
d="M525 687l-5.99902 -29.9961c-62 4 -111.667 6 -149 6l-59 -301l58 -24c51.333 -21.333 85 -45 101 -71s20.667 -64.333 14 -115c-4.66699 -28.667 -11.834 -53 -21.501 -73s-20.834 -36 -33.501 -48s-29.667 -21 -51 -27s-42.5 -10 -63.5 -12s-47.833 -3 -80.5 -3
l-24 -122h-27l25 122c-63.333 1.33301 -119.666 5.66602 -168.999 12.999l5 31c67.333 -4.66699 124.333 -7 171 -7l61 306l-66 27c-48 20 -80 43.667 -96 71s-21 64.666 -15 111.999c4 29.333 11 54.166 21 74.499s21.167 36 33.5 47s28.833 19.5 49.5 25.5
s40.5 9.66699 59.5 11s42.833 1.66602 71.5 0.999023h17l20 102h27l-20 -103c53.333 -2 102.333 -6.33301 147 -13zM344.001 664.004l-24.0059 -0.000976562c-19.333 0 -34.166 -0.333008 -44.499 -1s-23.166 -2.16699 -38.499 -4.5s-27.166 -6.16602 -35.499 -11.499
s-17.166 -12.5 -26.499 -21.5s-16.666 -21 -21.999 -36s-9.33301 -32.833 -12 -53.5c-4 -37.333 -0.666992 -65.833 10 -85.5s34.334 -37.167 71.001 -52.5l64 -26zM241.995 26.0029l1.99902 -0.00195312c34 0.666992 61 2.5 81 5.5s38.833 8.83301 56.5 17.5
s31 21.667 40 39s15.833 40.333 20.5 69c5.33301 40.667 2.33301 70.334 -9 89.001s-36.666 36.334 -75.999 53.001l-56 23z" />
    <glyph glyph-name="percent" unicode="%" horiz-adv-x="882" 
d="M262 702c56.667 0 94.5 -16.167 113.5 -48.5s23.5 -84.833 13.5 -157.5c-10 -72 -28.5 -123.667 -55.5 -155s-67.833 -47 -122.5 -47c-56.667 0 -94.5 16.333 -113.5 49s-23.5 85 -13.5 157s28.167 123.667 54.5 155s67.5 47 123.5 47zM180 0h-35l568 690h35zM264 674
c-47.333 0 -81.334 -13.499 -102.001 -40.499s-35.667 -72.833 -45 -137.5c-8.66699 -62.667 -6.33398 -107.334 6.99902 -134.001s41.333 -40 84 -40c46.667 0 80.834 13.667 102.501 41s36.834 73 45.501 137c8 64 5.66699 109 -7 135s-41 39 -85 39zM686.999 401.001
c56.667 0 94.501 -16.333 113.501 -49s23.167 -85.334 12.5 -158.001c-10 -71.333 -28.5 -122.833 -55.5 -154.5s-67.833 -47.5 -122.5 -47.5c-56.667 0 -94.334 16.333 -113.001 49s-23 85.334 -13 158.001c10 72 28.167 123.667 54.5 155s67.5 47 123.5 47zM689 373.001
c-48 0 -82.333 -13.499 -103 -40.499s-35.334 -73.167 -44.001 -138.5c-8.66699 -62.667 -6.5 -107.334 6.5 -134.001s41.167 -40 84.5 -40c46.667 0 80.834 13.833 102.501 41.5s36.5 73.5 44.5 137.5c8.66699 64 6.66699 109 -6 135s-41 39 -85 39z" />
    <glyph glyph-name="ampersand" unicode="&#x26;" horiz-adv-x="782" 
d="M735 341l-135.998 0.00292969c-12 -74.667 -34.333 -139 -67 -193c-34 -56.667 -74.667 -97 -122 -121s-104 -36.667 -170 -38c-76.667 -2 -129.834 10.833 -159.501 38.5s-38.834 77.5 -27.501 149.5c9.33301 59.333 29.833 103.666 61.5 132.999
s76.167 44.666 133.5 45.999v4c-48.667 3.33301 -81.334 18.666 -98.001 45.999s-20.667 66.333 -12 117c12 69.333 36.5 116 73.5 140s95.167 36 174.5 36c57.333 0 110.333 -7.66699 159 -23l-7 -30c-47.333 11.333 -98.333 17 -153 17
c-68.667 0 -117.667 -9.5 -147 -28.5s-49 -57.833 -59 -116.5c-10 -56 -2.83301 -94 21.5 -114s70.5 -30 138.5 -30h227c5.33301 45.333 7.33301 94.333 6 147h38c0.666992 -48.667 -1.66602 -97.667 -6.99902 -147h140zM561.002 341.003h-224.998
c-40 -0.666992 -72.333 -3 -97 -7s-47.334 -11.667 -68.001 -23s-36.667 -27.833 -48 -49.5s-20.333 -50.167 -27 -85.5c-10.667 -60 -4.83398 -100 17.499 -120s59.5 -30 111.5 -30c66 0 120.667 11 164 33s80 57.667 110 107c30 48.667 50.667 107 62 175z" />
    <glyph glyph-name="quotesingle" unicode="'" horiz-adv-x="197" 
d="M139 480h-30l27 210h36z" />
    <glyph glyph-name="parenleft" unicode="(" horiz-adv-x="353" 
d="M376 790l6.00098 -23.999c-77.333 -36.667 -138.166 -91.834 -182.499 -165.501s-74.833 -170.167 -91.5 -289.5c-16.667 -116.667 -13.334 -211.5 9.99902 -284.5s68 -128.833 134 -167.5l-7 -24c-154 73.333 -213.333 234.333 -178 483
c17.333 124 51.166 224.5 101.499 301.5s119.5 133.833 207.5 170.5z" />
    <glyph glyph-name="parenright" unicode=")" horiz-adv-x="353" 
d="M107 766l5.99805 24c78 -36 131.833 -93.333 161.5 -172s35.5 -182.667 17.5 -312c-17.333 -124.667 -51 -225 -101 -301s-119.667 -132.667 -209 -170l-5 24c76.667 38.667 137.334 95.167 182.001 169.5s75.334 169.833 92.001 286.5
c16.667 116 13.5 211.167 -9.5 285.5s-67.833 129.5 -134.5 165.5z" />
    <glyph glyph-name="asterisk" unicode="*" horiz-adv-x="449" 
d="M267 534l79 -129l-26 -16l-65 124l-100 -123l-23 19l114 126l18 155h30zM232 550l-3 -13l-7 -9l-121 37l12 29zM421 563l-131 -35l-5 9l1 13l128 43z" />
    <glyph glyph-name="plus" unicode="+" horiz-adv-x="550" 
d="M484 281h-194l-27 -184h-32l25 184h-195l6 33h194l26 184h34l-27 -184h195z" />
    <glyph glyph-name="comma" unicode="," horiz-adv-x="211" 
d="M72 94h16.001c9.33301 0 13.666 -5.33301 12.999 -16l-10 -66c-4.66699 -38 -18.667 -82 -42 -132l-22 7c12 40 21 78 27 114c-8.66699 0 -12.334 5 -11.001 15l9 62c1.33301 6 3.33301 10.167 6 12.5s7.33398 3.5 14.001 3.5z" />
    <glyph glyph-name="hyphen" unicode="-" horiz-adv-x="472" 
d="M383 235h-309l4 33h309z" />
    <glyph glyph-name="period" unicode="." horiz-adv-x="210" 
d="M70 94h15c12 0 17 -6 15 -18l-8 -60c-2 -10.667 -8.33301 -16 -19 -16h-14c-12.667 0 -18 6 -16 18l9 60c0.666992 10.667 6.66699 16 18 16z" />
    <glyph glyph-name="slash" unicode="/" horiz-adv-x="504" 
d="M26 -61h-39l497 751h39z" />
    <glyph glyph-name="zero" unicode="0" horiz-adv-x="587" 
d="M349 702c81.333 0 134.833 -28.5 160.5 -85.5s29.5 -148.167 11.5 -273.5c-17.333 -125.333 -46.166 -215.833 -86.499 -271.5s-100.5 -83.5 -180.5 -83.5c-81.333 0 -135 28.5 -161 85.5s-30 148.167 -12 273.5c17.333 125.333 46.166 215.833 86.499 271.5
s100.833 83.5 181.5 83.5zM349 665c-68 0 -118.832 -25 -152.499 -75s-58.834 -132.333 -75.501 -247c-15.333 -113.333 -13.5 -194.666 5.5 -243.999s61.167 -74 126.5 -74c67.333 0 118.166 25.167 152.499 75.5s59.5 132.5 75.5 246.5
c16 113.333 14.333 194.666 -5 243.999s-61.666 74 -126.999 74z" />
    <glyph glyph-name="one" unicode="1" horiz-adv-x="379" 
d="M215 0l-40.999 -0.000976562l85 601c1.33301 10.667 4.66602 27.334 9.99902 50.001l-191 -62l-2 29l195 72h41z" />
    <glyph glyph-name="two" unicode="2" horiz-adv-x="550" 
d="M121 644l-5.00195 31c76.667 18 144 27 202 27c70.667 0 121.334 -9.66699 152.001 -29s42.334 -57.333 35.001 -114c-6 -44 -21.833 -85.5 -47.5 -124.5s-66.5 -86.167 -122.5 -141.5l-259 -256c25.333 0.666992 63.333 1 114 1h271l-5 -38h-439l3 26
c2.66699 9.33301 5.66699 15.666 9 18.999l267 264c54.667 54 95.167 101 121.5 141s41.5 79.667 45.5 119c4 40.667 -5.33301 66.834 -28 78.501s-60.667 17.5 -114 17.5c-62 0 -128.667 -7 -200 -21z" />
    <glyph glyph-name="three" unicode="3" horiz-adv-x="546" 
d="M128 654l-5.00195 31.002c68 11.333 128.667 17 182 17c76.667 0 128.834 -12 156.501 -36s37.5 -65.667 29.5 -125c-13.333 -102 -56.666 -159.667 -129.999 -173l-1 -4c42.667 -6.66699 72.167 -25.834 88.5 -57.501s20.833 -70.5 13.5 -116.5
c-8.66699 -56 -32.834 -102.667 -72.501 -140s-97.834 -58 -174.501 -62c-64.667 -3.33301 -130 2.33398 -196 17.001l8 31c63.333 -10.667 124.333 -14.334 183 -11.001c124 8 194.667 65.333 212 172c16 100.667 -30.667 151 -140 151l-130 1l4 31l128 2
c98.667 2 154.334 54.333 167.001 157c6 49.333 -1.33301 82.666 -22 99.999s-63.667 26 -129 26c-57.333 0 -114.666 -3.66699 -171.999 -11z" />
    <glyph glyph-name="four" unicode="4" horiz-adv-x="595" 
d="M531 194l-84 -4l-27 -190h-40l27 189h-312c-24 0 -40.667 9.5 -50 28.5s-7 38.833 7 59.5l271 413h45l-276 -420c-8 -12.667 -10.167 -23.5 -6.5 -32.5s12.167 -13.5 25.5 -13.5h301l31 219l25 116h31l-47 -335h84z" />
    <glyph glyph-name="five" unicode="5" horiz-adv-x="527" 
d="M493 654l-306 0.00195312l-46 -245l59 -1c49.333 -0.666992 89.333 -3.83398 120 -9.50098s57.667 -15.667 81 -30s38.833 -35 46.5 -62s8.83398 -61.5 3.50098 -103.5c-2 -18.667 -5.66699 -36.334 -11 -53.001s-14 -35 -26 -55s-26.667 -37.167 -44 -51.5
s-40.5 -26.833 -69.5 -37.5s-61.833 -16.667 -98.5 -18c-58.667 -2 -117.667 7 -177 27l8 32c55.333 -17.333 109.333 -25 162 -23c72 3.33301 124.5 22.666 157.5 57.999s52.5 77.333 58.5 126c4 30 3.66699 54.833 -1 74.5s-12.5 35.5 -23.5 47.5s-29 21.167 -54 27.5
s-50.833 10.333 -77.5 12s-62.667 2.83398 -108 3.50098l-27 1c-6 0.666992 -10.833 3.16699 -14.5 7.5s-4.83398 9.5 -3.50098 15.5l55 293h342z" />
    <glyph glyph-name="six" unicode="6" horiz-adv-x="564" 
d="M512 689l-8.99805 -29.9971c-30 4.66699 -68.333 7 -115 7c-41.333 0 -74.833 -3.83301 -100.5 -11.5s-49.667 -23.167 -72 -46.5s-40.5 -56.833 -54.5 -100.5s-26.333 -101.167 -37 -172.5c52.667 68.667 122 104.667 208 108c68 3.33301 114.5 -12.667 139.5 -48
s31.5 -95 19.5 -179c-10 -74.667 -33.333 -131.334 -70 -170.001s-91 -58 -163 -58c-64.667 0 -111.834 12.833 -141.501 38.5s-45.5 64.5 -47.5 116.5s2.66699 117.333 14 196c11.333 78 25.333 141.167 42 189.5s38.167 85.166 64.5 110.499s54.166 42.166 83.499 50.499
s67 12.5 113 12.5s88 -4.33301 126 -13zM326.002 409.003c-38.667 -2 -73.5 -11 -104.5 -27s-65.5 -45 -103.5 -87c-9.33301 -62.667 -12.666 -114 -9.99902 -154s15.667 -69.5 39 -88.5s60.666 -28.5 111.999 -28.5c58.667 0 103.167 16.833 133.5 50.5
s49.833 82.834 58.5 147.501c10 68.667 6.16699 117.667 -11.5 147s-55.5 42.666 -113.5 39.999z" />
    <glyph glyph-name="seven" unicode="7" horiz-adv-x="502" 
d="M95 690h380c34 0 43.333 -15.667 28 -47l-311 -643h-43l297 614c7.33301 14.667 15 28 23 40h-376z" />
    <glyph glyph-name="eight" unicode="8" horiz-adv-x="610" 
d="M202 357l2 3.99805c-65.333 8 -91 61 -77 159c9.33301 64.667 30.5 110.667 63.5 138s89.167 41 168.5 41c82 0 135.833 -14.167 161.5 -42.5s34.167 -75.166 25.5 -140.499c-6.66699 -49.333 -19.5 -86.666 -38.5 -111.999s-46.167 -40 -81.5 -44l-2 -4
c40.667 -4.66699 67.5 -22 80.5 -52s15.5 -74.667 7.5 -134c-9.33301 -66.667 -30.833 -113 -64.5 -139s-94.167 -39.333 -181.5 -40c-86 -0.666992 -143.5 13 -172.5 41s-38.833 75.333 -29.5 142c8 59.333 22.5 103.5 43.5 132.5s52.5 45.833 94.5 50.5zM358 662.998
c-68 0 -115.001 -10.667 -141.001 -32s-43 -60.333 -51 -117c-8.66699 -58.667 -3.33398 -96.5 15.999 -113.5s64.333 -25.5 135 -25.5s117.834 9 141.501 27s39.834 56.667 48.501 116c8 56 2.33301 94.167 -17 114.5s-63.333 30.5 -132 30.5zM313.999 340.998
c-77.333 -0.666992 -129.168 -10.999 -155.501 -30.999s-44.5 -65.333 -54.5 -136c-8 -55.333 -0.833008 -93.5 21.5 -114.5s69.5 -31.5 141.5 -31.5c73.333 0 124 11 152 33s46 61.333 54 118c10 69.333 4.83301 113.666 -15.5 132.999s-68.166 29 -143.499 29z" />
    <glyph glyph-name="nine" unicode="9" horiz-adv-x="565" 
d="M54 1l10 30.001c34 -4.66699 74 -7 120 -7c60.667 0.666992 107 9.16699 139 25.5s58.333 47.666 79 93.999s38.667 116.833 54 211.5l1 2c-30.667 -38.667 -62.167 -66.334 -94.5 -83.001s-69.833 -25.667 -112.5 -27c-69.333 -2.66699 -116.333 14.5 -141 51.5
s-31 95.5 -19 175.5c10.667 76.667 34.334 133.834 71.001 171.501s92.667 56.5 168 56.5c88 0 143.167 -26.667 165.5 -80s23.166 -143.666 2.49902 -270.999c-10 -62.667 -21.333 -115 -34 -157s-26.667 -76.833 -42 -104.5s-34.5 -48.834 -57.5 -63.501
s-47.5 -24.667 -73.5 -30s-58.333 -8 -97 -8c-52 0 -98.333 4.33301 -139 13zM255 281.001c39.333 1.33301 74.5 10.501 105.5 27.501s65.167 46.167 102.5 87.5c14 97.333 12 166.666 -6 207.999s-61.333 62 -130 62c-63.333 0 -109.5 -16 -138.5 -48
s-48.833 -82 -59.5 -150c-10 -70.667 -5 -120 15 -148s57 -41 111 -39z" />
    <glyph glyph-name="colon" unicode=":" horiz-adv-x="213" 
d="M142 433h16c11.333 0 16 -6.33301 14 -19l-8 -60c-2 -10.667 -8 -16 -18 -16h-15c-12.667 0 -18 6.33301 -16 19l9 59c1.33301 11.333 7.33301 17 18 17zM94 94h15c12 0 17 -6 15 -18l-8 -60c-2 -10.667 -8.33301 -16 -19 -16h-14c-12.667 0 -18 6 -16 18l9 60
c0.666992 10.667 6.66699 16 18 16z" />
    <glyph glyph-name="semicolon" unicode=";" horiz-adv-x="215" 
d="M119 433h16c11.333 0 16.333 -6.33301 15 -19l-9 -60c-0.666992 -10.667 -6.66699 -16 -18 -16h-15c-12 0 -17.333 6.33301 -16 19l9 59c1.33301 11.333 7.33301 17 18 17zM74 94h15.002c10.667 0 15 -5.33301 13 -16l-9 -66c-5.33301 -36.667 -19.333 -80.667 -42 -132
l-22 7c10 33.333 19 71.333 27 114c-9.33301 0 -13 5 -11 15l9 62c1.33301 6 3.16602 10.167 5.49902 12.5s7.16602 3.5 14.499 3.5z" />
    <glyph glyph-name="less" unicode="&#x3c;" horiz-adv-x="535" 
d="M480 457l-382 -162l336 -158l-4 -34l-372 176l5 34l422 180z" />
    <glyph glyph-name="equal" unicode="=" horiz-adv-x="590" 
d="M518 380h-423l5 33h422zM489 168h-423l5 33h422z" />
    <glyph glyph-name="greater" unicode="&#x3e;" horiz-adv-x="533" 
d="M476 313l-5 -34l-421 -176l4 37l382 158l-336 162l5 33z" />
    <glyph glyph-name="question" unicode="?" horiz-adv-x="498" 
d="M99 664l-4 28.999l30 5l30 5c4 0.666992 13 1.83398 27 3.50098s25.5 2.66699 34.5 3s21.333 0.833008 37 1.5s32.5 1 50.5 1c65.333 0 113.166 -13 143.499 -39s41.833 -65.333 34.5 -118c-3.33301 -23.333 -11 -45.5 -23 -66.5s-26 -38.667 -42 -53l-51.5 -47l-52 -49
c-16.333 -15.667 -30.833 -35.334 -43.5 -59.001s-21 -49.167 -25 -76.5l-36 2c4.66699 34.667 15.167 66.167 31.5 94.5s34.833 52.166 55.5 71.499l62 55.5c20.667 17.667 38.834 37.334 54.501 59.001s25.167 44.834 28.5 69.501
c5.33301 42.667 -3.16699 73.5 -25.5 92.5s-60.833 28.5 -115.5 28.5c-60 0 -127 -4.33301 -201 -13zM204 93.999h13.001c11.333 0 16.666 -6 15.999 -18l-9 -59c-1.33301 -11.333 -7.33301 -17 -18 -17h-14c-12 0 -17 6 -15 18l8 60c2 10.667 8.33301 16 19 16z" />
    <glyph glyph-name="at" unicode="@" horiz-adv-x="747" 
d="M123 586l2.99609 28.9971c78 2.66699 176.333 4.66699 295 6c33.333 0 61 -0.666992 83 -2s43 -4.16602 63 -8.49902s35.833 -9.5 47.5 -15.5s22.167 -15 31.5 -27s15.833 -25.167 19.5 -39.5s5.83398 -33.166 6.50098 -56.499s-0.166016 -48 -2.49902 -74
s-5.83301 -57.667 -10.5 -95c-17.333 -126 -36.666 -209.833 -57.999 -251.5s-60.666 -62.5 -117.999 -62.5c-64.667 0 -91.334 36.333 -80.001 109l2 14c-72 -82.667 -147.667 -124 -227 -124c-30.667 0 -55.5 6.33301 -74.5 19s-31.5 30.834 -37.5 54.501
s-8.83301 48.167 -8.5 73.5s3.5 55 9.5 89c16 88.667 40.333 147.5 73 176.5s90.667 43.5 174 43.5c46 0 105 -5 177 -15l-50 -339c-3.33301 -23.333 -1.5 -40.166 5.5 -50.499s20.167 -15.5 39.5 -15.5c42 0 71 17.5 87 52.5s32.333 111.833 49 230.5
c4.66699 35.333 8.33398 64.833 11.001 88.5s3.5 46.167 2.5 67.5s-2.5 38 -4.5 50s-7.33301 23.167 -16 33.5s-17.5 17.666 -26.5 21.999s-22.833 8 -41.5 11s-36.667 4.83301 -54 5.5s-41.333 1 -72 1h-298zM410.996 154.997l36.001 249c-49.333 3.33301 -90 5 -122 5
c-78 0 -130.5 -11.833 -157.5 -35.5s-47.5 -75.167 -61.5 -154.5c-6 -39.333 -9.33301 -73.5 -10 -102.5s6.16602 -51.833 20.499 -68.5s36.833 -25 67.5 -25c74 0 149.667 44 227 132z" />
    <glyph glyph-name="A" unicode="A" horiz-adv-x="604" 
d="M458 242h-318l-119 -242h-45l337 678c2.66699 8 8.66699 12 18 12h56c10 0 15.667 -4.66699 17 -14l146 -676h-42zM450 279l-66.999 320.999c-0.666992 4.66699 -2.33398 13.334 -5.00098 26.001s-4.66699 22.667 -6 30h-30l-27 -57l-158 -320h293z" />
    <glyph glyph-name="B" unicode="B" horiz-adv-x="612" 
d="M58 0l97 690c48.667 5.33301 115.667 8 201 8c83.333 0 140 -12.833 170 -38.5s40 -73.5 30 -143.5c-7.33301 -50 -21.833 -87.5 -43.5 -112.5s-53.5 -39.5 -95.5 -43.5v-4c48.667 -4.66699 81.5 -22.5 98.5 -53.5s21.167 -75.167 12.5 -132.5
c-10 -70 -32 -117.167 -66 -141.5s-90.667 -36.5 -170 -36.5c-101.333 0 -179.333 2.66699 -234 8zM151 374h178c62 0.666992 106.5 10.834 133.5 30.501s44.5 57.5 52.5 113.5c8 57.333 0.5 95.666 -22.5 114.999s-68.833 29 -137.5 29l-164 -1zM146 341l-43 -310.998
c52 -1.33301 113.667 -2 185 -2c67.333 0 115.333 10.167 144 30.5s47 60.166 55 119.499c8.66699 62.667 1.5 105.167 -21.5 127.5s-69.167 34.166 -138.5 35.499h-181z" />
    <glyph glyph-name="C" unicode="C" 
d="M478 38l5 -30.999c-54.667 -12.667 -118.667 -19 -192 -19c-96 0 -160 27.167 -192 81.5s-38.667 146.833 -20 277.5c18.667 131.333 50.667 223.333 96 276s115.333 79 210 79c70 0 129 -6 177 -18l-9 -30c-51.333 7.33301 -107 11 -167 11
c-83.333 0 -144 -23.333 -182 -70s-65.667 -130.667 -83 -252c-16.667 -118.667 -12.667 -201.334 12 -248.001s77 -70 157 -70c73.333 0 136 4.33301 188 13z" />
    <glyph glyph-name="D" unicode="D" horiz-adv-x="659" 
d="M58 0l96.999 690c80.667 6 156.667 9 228 9c96 0 159.833 -26.5 191.5 -79.5s38.5 -145.167 20.5 -276.5c-18.667 -134.667 -50.5 -227 -95.5 -277s-115.833 -75 -212.5 -75c-71.333 0 -147.666 3 -228.999 9zM191.999 659l-89.001 -627.999c56 -2 117 -3 183 -3
c83.333 0 144.333 22.667 183 68s66.667 129 84 251c16.667 119.333 12.5 201.666 -12.5 246.999s-77.833 68 -158.5 68c-69.333 0 -132.666 -1 -189.999 -3z" />
    <glyph glyph-name="E" unicode="E" horiz-adv-x="551" 
d="M545 655h-283c-52 0 -81.667 -26.667 -89 -80l-27 -190h321l-5 -33h-320l-33 -240c-3.33301 -23.333 0.833984 -42 12.501 -56s29.167 -21 52.5 -21h284v-31c-64 -2.66699 -161 -4 -291 -4c-34.667 -0 -61.334 10.333 -80.001 31s-25.334 47.667 -20.001 81l66 473
c4.66699 32 17.667 57.5 39 76.5s49 28.5 83 28.5c132.667 0 231.334 -1.33301 296.001 -4z" />
    <glyph glyph-name="F" unicode="F" horiz-adv-x="532" 
d="M541 655h-273.001c-52.667 0 -83 -26.667 -91 -80l-28 -196h313l-5 -33h-312l-49 -346h-41l82 584c5.33301 33.333 18.833 59.333 40.5 78s48.834 28 81.501 28c129.333 0 225.333 -1.66699 288 -5z" />
    <glyph glyph-name="G" unicode="G" horiz-adv-x="621" 
d="M586 684l-8.99707 -30c-56.667 7.33301 -118 11 -184 11c-87.333 0 -150.333 -23 -189 -69s-66.334 -130.333 -83.001 -253c-14.667 -116 -11.334 -198 9.99902 -246s65.666 -72 132.999 -72c38.667 0 74.667 10 108 30s70.666 49 111.999 87l36 258h40l-57 -400h-29
l8 104c-72 -77.333 -147.333 -116 -226 -116c-79.333 0 -132.666 28 -159.999 84s-33.333 147.667 -18 275c18 132.667 50.5 225 97.5 277s118.5 78 214.5 78c76 0 141.333 -6 196 -18z" />
    <glyph glyph-name="H" unicode="H" horiz-adv-x="659" 
d="M617 690l-97 -690h-41l49 351h-380l-49 -351h-41l97 690h41l-42 -303h379l43 303h41z" />
    <glyph glyph-name="I" unicode="I" horiz-adv-x="239" 
d="M99 0h-41l97 690h41z" />
    <glyph glyph-name="J" unicode="J" horiz-adv-x="326" 
d="M287 690l-79.999 -568c-11.333 -87.333 -58 -130.333 -140 -129c-22.667 0 -46.667 2.66699 -72 8l9 28h54c63.333 0 99.666 31.667 108.999 95l79 566h41z" />
    <glyph glyph-name="K" unicode="K" horiz-adv-x="568" 
d="M284 361l-0.000976562 -3c4.66699 -5.33301 12.334 -16.333 23.001 -33l193 -325h-47l-204 343h-106c-0.666992 -28 -3.66699 -56 -9 -84l-36 -259h-40l97 690h40l-32 -232c-5.33301 -33.333 -10.333 -60.333 -15 -81h104l278 313h51l-260 -294
c-12.667 -14 -25 -25.667 -37 -35z" />
    <glyph glyph-name="L" unicode="L" horiz-adv-x="503" 
d="M193 690l-81.0029 -578c-3.33301 -23.333 0.833984 -42 12.501 -56s29.5 -21 53.5 -21h267l-1 -31c-61.333 -2.66699 -153 -4 -275 -4c-33.333 0 -59.166 10.5 -77.499 31.5s-25.166 48.167 -20.499 81.5l81 577h41z" />
    <glyph glyph-name="M" unicode="M" horiz-adv-x="860" 
d="M723 690h57.001c14 0 20.333 -7.33301 19 -22l-64 -668h-42l64 655h-23l-288 -577c-3.33301 -8.66699 -10 -13 -20 -13h-52c-10.667 0 -17 5 -19 15l-127 575h-24l-120 -655h-41l124 671c2 12.667 9.33301 19 22 19h55c10.667 0 16.667 -5.33301 18 -16l108 -483
c3.33301 -12 7.16602 -28.833 11.499 -50.5s7.16602 -36.167 8.49902 -43.5h25l46 97l242 483c4.66699 8.66699 11.334 13 20.001 13z" />
    <glyph glyph-name="N" unicode="N" horiz-adv-x="692" 
d="M649 690l-94 -670.999c-2 -12.667 -9 -19 -21 -19h-51c-10.667 0 -18 5.66699 -22 17l-221 563l-28 73h-23c-4 -34.667 -7.33301 -62 -10 -82l-80 -571h-41l94 671c2 12.667 9 19 21 19h49c10.667 0 18 -5.66699 22 -17l216 -550c10 -24.667 20.667 -53.334 32 -86.001
h26c7.33301 57.333 11.333 87 12 89l78 564h41z" />
    <glyph glyph-name="O" unicode="O" horiz-adv-x="662" 
d="M386 702c95.333 0 159 -27 191 -81s38.667 -146.667 20 -278c-18 -132 -49.5 -224.167 -94.5 -276.5s-115.167 -78.5 -210.5 -78.5s-159.333 26.833 -192 80.5s-39.667 146.5 -21 278.5c18.667 131.333 50.5 223.333 95.5 276s115.5 79 211.5 79zM385 665
c-82.667 0 -142.999 -23.499 -180.999 -70.499s-65.667 -130.833 -83 -251.5c-16 -118.667 -11.5 -201.334 13.5 -248.001s77.5 -70 157.5 -70c82 0 142 23.5 180 70.5s65.667 130.833 83 251.5c17.333 120 13.666 203 -11.001 249s-77.667 69 -159 69z" />
    <glyph glyph-name="P" unicode="P" horiz-adv-x="582" 
d="M58 0l96.999 690c54.667 5.33301 129 8 223 8c76.667 0 128.334 -15 155.001 -45s34.667 -84.333 24 -163c-12 -80 -34.5 -134 -67.5 -162s-87.5 -42 -163.5 -42c-72 0 -134 2 -186 6l-41 -292h-41zM143.999 322l181 0.00195312
c63.333 1.33301 108.5 13.666 135.5 36.999s45.167 68.333 54.5 135c9.33301 65.333 4 109.666 -16 132.999s-60.333 35 -121 35c-73.333 0 -135.333 -0.666992 -186 -2z" />
    <glyph glyph-name="Q" unicode="Q" horiz-adv-x="662" 
d="M386 702c95.333 0 159 -27 191 -81s38.667 -146.667 20 -278c-18 -132 -49.5 -224.167 -94.5 -276.5s-115.167 -78.5 -210.5 -78.5s-159.333 26.833 -192 80.5s-39.667 146.5 -21 278.5c18.667 131.333 50.5 223.333 95.5 276s115.5 79 211.5 79zM385 665
c-82.667 0 -142.999 -23.499 -180.999 -70.499s-65.667 -130.833 -83 -251.5c-16 -118.667 -11.5 -201.334 13.5 -248.001s77.5 -70 157.5 -70c82 0 142 23.5 180 70.5s65.667 130.833 83 251.5c17.333 120 13.666 203 -11.001 249s-77.667 69 -159 69zM229.001 -72.999
l17 24.002c59.333 -40.667 134 -68.334 224 -83.001l-15 -41c-92 15.333 -167.333 48.666 -226 99.999z" />
    <glyph glyph-name="R" unicode="R" horiz-adv-x="609" 
d="M58 0l97.001 690c54.667 5.33301 129 8 223 8c75.333 0 126.833 -14.167 154.5 -42.5s36.5 -80.166 26.5 -155.499c-8.66699 -58.667 -24.834 -101.667 -48.501 -129s-58.834 -44 -105.501 -50v-5c34 -10.667 56 -43 66 -97l45 -219h-43l-44 219
c-6 30.667 -16.5 52.5 -31.5 65.5s-35.5 19.5 -61.5 19.5c-23.333 0.666992 -49.666 1.16699 -78.999 1.5s-53 0.666016 -71 0.999023s-32.667 0.833008 -44 1.5l-44 -308h-40zM146.001 341h182.999c62 1.33301 106.667 13.333 134 36s45.333 65 54 127
c8.66699 61.333 2.83398 103 -17.499 125s-60.833 33 -121.5 33c-72.667 0 -135 -0.666992 -187 -2z" />
    <glyph glyph-name="S" unicode="S" horiz-adv-x="555" 
d="M352 299l-146.002 59.999c-48 20 -80 43.667 -96 71s-21.333 64.666 -16 111.999c5.33301 36 14.333 65.333 27 88s30.334 39 53.001 49s45.167 16.333 67.5 19s51.833 3.66699 88.5 3c70.667 -1.33301 134 -6 190 -14l-5 -30c-78.667 4.66699 -145 7 -199 7
c-23.333 0 -41.166 -0.333008 -53.499 -1s-27 -3.16699 -44 -7.5s-30 -10.833 -39 -19.5s-17.667 -21.334 -26 -38.001s-14.166 -37.334 -17.499 -62.001c-4 -37.333 -0.5 -65.833 10.5 -85.5s34.833 -37.167 71.5 -52.5l146 -60c52 -21.333 86 -45.166 102 -71.499
s20.667 -64.5 14 -114.5c-4.66699 -28.667 -11.834 -53 -21.501 -73s-21 -36 -34 -48s-30 -21 -51 -27s-42.167 -10 -63.5 -12s-48.333 -3 -81 -3c-68 0 -133 4.33301 -195 13l6 31c77.333 -5.33301 144 -7.66602 200 -6.99902c33.333 0.666992 60 2.5 80 5.5
s38.833 8.83301 56.5 17.5s31.167 21.667 40.5 39s16.333 40.333 21 69c5.33301 40.667 2.33301 70.334 -9 89.001s-37 36.334 -77 53.001z" />
    <glyph glyph-name="T" unicode="T" horiz-adv-x="562" 
d="M590 654h-238l-92 -654h-41l92 654h-237l5 36h516z" />
    <glyph glyph-name="U" unicode="U" horiz-adv-x="666" 
d="M629 690l-60.999 -434c-14 -97.333 -41.5 -166.333 -82.5 -207s-104.5 -61 -190.5 -61c-87.333 0 -146.833 20.833 -178.5 62.5s-40.834 111.167 -27.501 208.5l60 431h42l-61 -434c-12 -85.333 -5.66699 -145.166 19 -179.499s73 -51.5 145 -51.5
c72.667 0 126.667 17.667 162 53s59 95.666 71 180.999l60 431h42z" />
    <glyph glyph-name="V" unicode="V" horiz-adv-x="592" 
d="M625 690l-325 -678c-2.66699 -8 -9 -12 -19 -12h-53c-10 0 -15.667 4.66699 -17 14l-135 676h42l113 -583c4 -19.333 8.33301 -44 13 -74h27c2.66699 7.33301 6 15.333 10 24l13 28.5l11 24.5l276 580h44z" />
    <glyph glyph-name="W" unicode="W" horiz-adv-x="930" 
d="M954 690l-266.997 -677c-2.66699 -8.66699 -9.33398 -13 -20.001 -13h-57c-10 -0 -15.667 5.33301 -17 16l-58 565c-0.666992 8.66699 -1.83398 21.167 -3.50098 37.5s-3.16699 28.833 -4.5 37.5h-24l-30 -78l-215 -564c-3.33301 -9.33301 -10 -14 -20 -14h-57
c-10.667 0 -16.667 5 -18 15l-78 675h42l65 -584l6 -74h28l8.5 23.5l10 28l8.5 23.5l218 568c3.33301 10 9.66602 15 18.999 15h54c10.667 0 16.667 -5.66699 18 -17l60 -568c0 -2.66699 2 -27 6 -73h28l27 75l228 583h43z" />
    <glyph glyph-name="X" unicode="X" horiz-adv-x="595" 
d="M359 359l162 -359h-43l-153 343h-34l-250 -343h-49l264 360l-153 330h43l144 -313h35l234 313h46z" />
    <glyph glyph-name="Y" unicode="Y" horiz-adv-x="543" 
d="M285 253l-36 -253h-42l37 254l-173 436h42l126 -323c12 -31.333 20.667 -55.333 26 -72h7c13.333 24 28.333 48.333 45 73l217 322h45z" />
    <glyph glyph-name="Z" unicode="Z" horiz-adv-x="555" 
d="M60 36h412l-6 -36h-459l6 36l492 618h-402l5 36h450l-5 -36z" />
    <glyph glyph-name="bracketleft" unicode="[" horiz-adv-x="312" 
d="M329 737h-113.001c-10 0 -15.667 -4.66699 -17 -14l-118 -845c-0.666992 -8 2.33301 -12 9 -12h117l-5 -31h-128c-10.667 0 -19.167 3.5 -25.5 10.5s-8.5 16.167 -6.5 27.5l120 859c4.66699 24 18.334 36 41.001 36h130z" />
    <glyph glyph-name="backslash" unicode="\" horiz-adv-x="489" 
d="M410 -61h-35l-289 751h35z" />
    <glyph glyph-name="bracketright" unicode="]" horiz-adv-x="312" 
d="M112 768l128 0.000976562c10.667 0 19.167 -3.66699 25.5 -11s8.83301 -16.333 7.5 -27l-121 -859c-1.33301 -10.667 -5.66602 -19.334 -12.999 -26.001s-16.333 -10 -27 -10h-131l4 31h114c9.33301 0 14.666 4.66699 15.999 14l119 845c1.33301 8 -2 12 -10 12h-116z
" />
    <glyph glyph-name="asciicircum" unicode="^" horiz-adv-x="401" 
d="M391 380l-20 -13l-121 179h-8l-174 -179l-19 14l184 201h30z" />
    <glyph glyph-name="underscore" unicode="_" horiz-adv-x="595" 
d="M473 -33h-432l4 33h433z" />
    <glyph glyph-name="grave" unicode="`" horiz-adv-x="287" 
d="M270 566l-19 -19l-147 137l26 29z" />
    <glyph glyph-name="a" unicode="a" horiz-adv-x="566" 
d="M437 0h-30.999l13 118c-36 -40.667 -75.667 -72.5 -119 -95.5s-83 -34.5 -119 -34.5c-58.667 0 -96.334 19.667 -113.001 59s-17.667 105 -3 197c16 101.333 40.5 168.333 73.5 201s91.167 49 174.5 49c56 0 119.667 -5 191 -15zM419.001 156l41.001 297
c-76 4 -122.333 6 -139 6c-76.667 0 -128.334 -13.667 -155.001 -41s-47 -87 -61 -179c-13.333 -78 -14.5 -133.333 -3.5 -166s38.833 -49 83.5 -49c33.333 0 70.833 11.5 112.5 34.5s82.167 55.5 121.5 97.5z" />
    <glyph glyph-name="b" unicode="b" horiz-adv-x="564" 
d="M130 366c92 85.333 169.998 128 233.998 128c56.667 0 94.834 -18.833 114.501 -56.5s22.5 -104.167 8.5 -199.5c-9.33301 -70 -23.166 -123 -41.499 -159s-41.5 -60.167 -69.5 -72.5s-67.333 -18.5 -118 -18.5c-61.333 0 -131.333 10.667 -210 32l96 680h39l-29 -201
c-8 -52.667 -16 -97 -24 -133zM131.998 335l-41 -294c53.333 -12 105.333 -18 156 -18c70.667 0 118.5 14.167 143.5 42.5s43.5 87.5 55.5 177.5c11.333 82.667 10.833 139.167 -1.5 169.5s-41.833 45.5 -88.5 45.5c-28.667 0 -60.667 -10 -96 -30s-78 -51 -128 -93z" />
    <glyph glyph-name="c" unicode="c" horiz-adv-x="477" 
d="M395 35l3.99902 -28.001c-49.333 -12.667 -100 -19 -152 -19c-82 0 -137.333 19.333 -166 58s-36.667 104.334 -24 197.001c12.667 92 38.334 156.833 77.001 194.5s98 56.5 178 56.5c55.333 0 101.666 -6.33301 138.999 -19l-8 -27c-30 6.66699 -71.333 10 -124 10
c-70.667 0 -122.167 -15.5 -154.5 -46.5s-54.166 -88.5 -65.499 -172.5c-12 -83.333 -6.66699 -140 16 -170s68.667 -45 138 -45c56.667 0 104 3.66699 142 11z" />
    <glyph glyph-name="d" unicode="d" horiz-adv-x="565" 
d="M534 700l-99.0029 -700h-31l12 119c-79.333 -87.333 -161.333 -131 -246 -131c-53.333 0 -87.666 20.333 -102.999 61s-16.666 105.667 -3.99902 195c14.667 100.667 38.834 167.5 72.501 200.5s91.834 49.5 174.501 49.5c49.333 0 101.666 -3.66699 156.999 -11
c0.666992 25.333 3.66699 56.333 9 93l18 124h40zM417.997 156l41 298c-64.667 3.33301 -111 5 -139 5c-77.333 0 -129.5 -13.667 -156.5 -41s-47.167 -87 -60.5 -179c-12 -74 -13 -128.333 -3 -163s36 -52 78 -52c75.333 0 155.333 44 240 132z" />
    <glyph glyph-name="e" unicode="e" horiz-adv-x="529" 
d="M425 36l4.00391 -28c-45.333 -13.333 -109.333 -20 -192 -20c-79.333 0 -132.333 19.833 -159 59.5s-33.334 106.167 -20.001 199.5c7.33301 50.667 17.5 92.167 30.5 124.5s30.167 57.5 51.5 75.5s45.166 30.333 71.499 37s59.5 10 99.5 10
c66.667 0 114.167 -11.167 142.5 -33.5s36.166 -61.166 23.499 -116.499c-8.66699 -40.667 -25.167 -69.334 -49.5 -86.001s-63.166 -27.667 -116.499 -33l-218 -23c-6.66699 -69.333 1.66602 -116.5 24.999 -141.5s66.666 -37.5 129.999 -37.5
c53.333 0 112.333 4.33301 177 13zM97.0039 234l215.001 24c41.333 4.66699 70.666 13 87.999 25s30 33.333 38 64c2.66699 16.667 4.5 31 5.5 43s-1.5 22.167 -7.5 30.5s-12.167 15 -18.5 20s-15.5 8.83301 -27.5 11.5s-23.833 4.5 -35.5 5.5s-25.5 1.5 -41.5 1.5
c-36 0 -64.833 -2.5 -86.5 -7.5s-41.334 -15.167 -59.001 -30.5s-31.667 -37 -42 -65s-19.166 -65.333 -26.499 -112z" />
    <glyph glyph-name="f" unicode="f" horiz-adv-x="358" 
d="M424 680l-105.998 0.00195312c-38.667 0 -67 -7.66699 -85 -23s-29.333 -42.333 -34 -81l-14 -94h173l-6 -34h-171l-74 -521c-6 -46 -19.833 -80 -41.5 -102s-53.834 -33 -96.501 -33c-28.667 0 -60.334 1.66699 -95.001 5l4 30h78c36 0 62.333 7.66699 79 23
s27.667 42.666 33 81.999l73 516h-88l4 29l88 4l14 99c6 45.333 20.5 79.166 43.5 101.499s57.167 33.5 102.5 33.5c52.667 0 94 -1.66699 124 -5z" />
    <glyph glyph-name="g" unicode="g" horiz-adv-x="571" 
d="M511 479l-73.999 -481.001c-20 -134 -97.667 -206 -233 -216c-62 -4.66699 -123.333 -2.66699 -184 6l5 28c63.333 -3.33301 121 -3 173 1c57.333 5.33301 102.5 22.166 135.5 50.499s54.167 70.833 63.5 127.5c12 68.667 21.667 112.334 29 131.001
c-36.667 -43.333 -77.334 -77.166 -122.001 -101.499s-86 -36.5 -124 -36.5c-57.333 0 -94.333 19.667 -111 59s-18 105 -4 197c16 101.333 40.5 168.333 73.5 201s90.5 49 172.5 49c57.333 0 122 -5 194 -15h6zM421.001 156.999l46.001 296c-81.333 4 -130 6 -146 6
c-76.667 0 -128.167 -13.5 -154.5 -40.5s-46.833 -86.833 -61.5 -179.5c-13.333 -77.333 -14.5 -132.5 -3.5 -165.5s39.167 -49.5 84.5 -49.5c32.667 0 70.167 11.667 112.5 35s83.166 56 122.499 98z" />
    <glyph glyph-name="h" unicode="h" horiz-adv-x="570" 
d="M186 700l-29.0029 -211c-5.33301 -38.667 -12.666 -79 -21.999 -121c99.333 84 181.333 126 246 126c42 0 72.833 -11.333 92.5 -34s26.5 -55.667 20.5 -99l-51 -361h-40l51 355c4.66699 36.667 0.333984 63 -12.999 79s-36.666 24 -69.999 24
c-32.667 0 -67 -10 -103 -30s-80.333 -51.667 -133 -95l-48 -333h-39l99 700h39z" />
    <glyph glyph-name="i" unicode="i" horiz-adv-x="225" 
d="M158 683h17.998c10.667 0 15.334 -5.66699 14.001 -17l-9 -61c-0.666992 -9.33301 -6 -14 -16 -14h-17c-12 0 -17.333 5.66699 -16 17l9 60c0.666992 10 6.33398 15 17.001 15zM90.998 0h-39l68 482h39z" />
    <glyph glyph-name="j" unicode="j" horiz-adv-x="226" 
d="M158 683h17.998c10.667 0 15.334 -5.66699 14.001 -17l-9 -61c-0.666992 -9.33301 -6 -14 -16 -14h-17c-12 0 -17.333 5.66699 -16 17l9 60c0.666992 10 6.33398 15 17.001 15zM158.998 482l-73 -521.001c-8.66699 -64 -40.667 -120.333 -96 -169l-21 17
c44 48.667 70 100.334 78 155.001l73 518h39z" />
    <glyph glyph-name="k" unicode="k" horiz-adv-x="496" 
d="M429 482h41c-34 -89.333 -95.333 -161.333 -184 -216l27 -51l105 -215h-44l-120 248c-38 -20 -84.333 -39 -139 -57l-28 -191h-39l99 700h39l-51 -377c-4 -30 -11 -62 -21 -96c162.667 52 267.667 137 315 255z" />
    <glyph glyph-name="l" unicode="l" horiz-adv-x="272" 
d="M187 700l-83 -595c-8 -50 13.333 -75 64 -75h57l1 -29c-14.667 -5.33301 -38 -8 -70 -8c-32.667 0 -57.5 9.5 -74.5 28.5s-23.167 45.5 -18.5 79.5l85 599h39z" />
    <glyph glyph-name="m" unicode="m" horiz-adv-x="875" 
d="M146 482l-12.001 -114c44.667 42 84.667 73.5 120 94.5s69.333 31.5 102 31.5c40.667 0 70.667 -10.333 90 -31s27.333 -50.667 24 -90c44 40.667 83 71 117 91s67 30 99 30c42.667 0 73.667 -11.5 93 -34.5s26 -55.833 20 -98.5l-51 -361h-39l50 355
c4.66699 36.667 0.166992 63 -13.5 79s-37.167 24 -70.5 24c-28.667 0 -58.167 -9.33301 -88.5 -28s-70.833 -50 -121.5 -94l-47 -336h-39l50 355c4.66699 36 0.333984 62.167 -12.999 78.5s-37 24.5 -71 24.5c-29.333 0 -59.5 -9.5 -90.5 -28.5s-71.167 -50.5 -120.5 -94.5
l-47 -335h-39l68 482h30z" />
    <glyph glyph-name="n" unicode="n" horiz-adv-x="570" 
d="M147 482l-13.002 -113.999c99.333 84 181.666 126 246.999 126c42 0 72.833 -11.333 92.5 -34s26.5 -55.667 20.5 -99l-51 -361h-40l51 355c4.66699 36.667 0.333984 63 -12.999 79s-36.666 24 -69.999 24c-32 0 -66.167 -9.83301 -102.5 -29.5
s-81.166 -50.834 -134.499 -93.501l-47 -335h-39l68 482h31z" />
    <glyph glyph-name="o" unicode="o" 
d="M305 494c79.333 0 132.667 -19.334 160 -58.001s34.666 -104.667 21.999 -198c-13.333 -92 -38.333 -156.667 -75 -194s-94 -56 -172 -56c-79.333 0 -132.833 19.333 -160.5 58s-35.167 104.334 -22.5 197.001c13.333 92 38.333 156.833 75 194.5
s94.334 56.5 173.001 56.5zM305.001 457.999c-65.333 0 -113.169 -15.833 -143.502 -47.5s-51.166 -89.167 -62.499 -172.5c-11.333 -81.333 -6.66602 -137.5 14.001 -168.5s63 -46.5 127 -46.5c64.667 0 112.334 16 143.001 48s51.667 89.333 63 172
c11.333 81.333 6.66602 137.5 -14.001 168.5s-63 46.5 -127 46.5z" />
    <glyph glyph-name="p" unicode="p" horiz-adv-x="566" 
d="M147 482l-12.001 -119c36 40 76.167 71.833 120.5 95.5s83.166 35.5 116.499 35.5c58.667 0 96 -19.333 112 -58s17.333 -104.667 4 -198c-15.333 -101.333 -39.666 -168.333 -72.999 -201s-91.333 -49 -174 -49c-49.333 0 -101.666 3.66699 -156.999 11
c-0.666992 -25.333 -3.66699 -56.333 -9 -93l-18 -122h-40l99 698h31zM132.999 326l-40.999 -298.001c77.333 -4 123.666 -6 138.999 -6c77.333 0 129.5 13.833 156.5 41.5s47.167 87.5 60.5 179.5c12.667 78 13.5 133.333 2.5 166s-38.833 49 -83.5 49
c-30.667 0 -67.5 -11.667 -110.5 -35s-84.167 -55.666 -123.5 -96.999z" />
    <glyph glyph-name="q" unicode="q" horiz-adv-x="565" 
d="M501 462l-94.999 -677.999h-40l30 207c8.66699 55.333 17 99.666 25 132.999c-42.667 -46.667 -82.5 -81 -119.5 -103s-76.833 -33 -119.5 -33c-54 0 -90.667 18.833 -110 56.5s-22.333 104.167 -9 199.5c9.33301 69.333 23.166 122 41.499 158s41.5 60.333 69.5 73
s67 19 117 19c62.667 0 132.667 -10.667 210 -32zM419.001 155.001l39.999 286c-57.333 12 -109.666 18 -156.999 18c-70 0 -117.833 -14.167 -143.5 -42.5s-44.167 -87.5 -55.5 -177.5c-10 -81.333 -9.33301 -137.5 2 -168.5s40 -46.5 86 -46.5
c36.667 0 70.667 9.5 102 28.5s73.333 53.167 126 102.5z" />
    <glyph glyph-name="r" unicode="r" horiz-adv-x="387" 
d="M394 494l-11.0029 -38h-19c-31.333 0 -64.166 -9.83301 -98.499 -29.5s-78.166 -51.167 -131.499 -94.5l-47 -332h-39l68 482h30l-12 -117c92.667 86 172.334 129 239.001 129h21z" />
    <glyph glyph-name="s" unicode="s" horiz-adv-x="500" 
d="M310 197l-153 60.002c-35.333 14 -60.166 29.667 -74.499 47s-18.833 44.666 -13.5 81.999c7.33301 46 25.5 75.833 54.5 89.5s75.833 19.834 140.5 18.501c64 -0.666992 127.667 -5 191 -13l-6 -29c-78 4 -139.333 6.33301 -184 7
c-57.333 1.33301 -96.5 -2.33398 -117.5 -11.001s-34.167 -30.667 -39.5 -66c-4 -26 -1.33301 -45.167 8 -57.5s27.666 -23.833 54.999 -34.5l154 -60c37.333 -14.667 63.5 -30.667 78.5 -48s19.833 -44 14.5 -80c-3.33301 -25.333 -10.333 -45.833 -21 -61.5
s-26 -27.334 -46 -35.001s-40.5 -12.5 -61.5 -14.5s-49.5 -3 -85.5 -3c-53.333 0 -111.333 4.33301 -174 13l5 29c55.333 -5.33301 111 -7.66602 167 -6.99902c64.667 1.33301 109.167 7.16602 133.5 17.499s38.833 32.5 43.5 66.5
c3.33301 26.667 -0.166992 45.5 -10.5 56.5s-29.833 22.167 -58.5 33.5z" />
    <glyph glyph-name="t" unicode="t" horiz-adv-x="350" 
d="M178 448l-48 -343c-8 -50 13.333 -75 64 -75h86l1 -29c-30 -5.33301 -60.333 -8 -91 -8c-38 0 -65.5 9.5 -82.5 28.5s-22.833 46.167 -17.5 81.5l48 345h-88l4 29l89 4l21 150h39l-20 -149h172l-6 -34h-171z" />
    <glyph glyph-name="u" unicode="u" 
d="M497 482l-67.9971 -482h-30l13 121c-88.667 -88.667 -167.667 -133 -237 -133c-43.333 0 -74.833 11.333 -94.5 34s-26.167 55.667 -19.5 99l51 361h40l-51 -355c-4.66699 -36 -0.333984 -62.167 12.999 -78.5s37 -24.5 71 -24.5c33.333 0 67.166 10.5 101.499 31.5
s76.166 54.833 125.499 101.5l46 325h39z" />
    <glyph glyph-name="v" unicode="v" horiz-adv-x="510" 
d="M453 482h41c-24.667 -103.333 -63 -201 -115 -293c-42 -72.667 -77 -125.667 -105 -159c-16.667 -20 -37.334 -30 -62.001 -30h-41c-9.33301 -0 -14.666 4.33301 -15.999 13l-100 469h42l90 -449h18c10.667 0 19 1.66699 25 5s13.333 10.333 22 21
c28.667 36 60 85 94 147c49.333 90 85 182 107 276z" />
    <glyph glyph-name="w" unicode="w" horiz-adv-x="823" 
d="M177 33l12.999 -0.00195312c14 0 27 8.33301 39 25c27.333 38.667 53.666 88.667 78.999 150c30.667 71.333 58.334 159 83.001 263c1.33301 8.66699 6.33301 12.334 15 11.001h42c8.66699 0 13.667 -4 15 -12l64 -437h12c13.333 0 26 8.66699 38 26
c38 56 67.333 105.333 88 148c40 81.333 70.333 173 91 275h42c-26.667 -114 -60.667 -211.667 -102 -293c-38.667 -73.333 -71.334 -126.666 -98.001 -159.999c-17.333 -19.333 -37 -29 -59 -29h-28c-9.33301 -0 -14.666 4.33301 -15.999 13l-63 439h-11
c-19.333 -92 -45.666 -176.667 -78.999 -254c-12 -30 -27 -61.5 -45 -94.5s-33.333 -57.167 -46 -72.5c-15.333 -20.667 -36 -31 -62 -31h-28c-8 -0 -13.333 4.33301 -16 13l-90 469h41z" />
    <glyph glyph-name="x" unicode="x" horiz-adv-x="507" 
d="M294 250l142 -250h-43l-132 235h-26l-197 -235h-48l213 251l-131 231h42l120 -214h29l182 214h46z" />
    <glyph glyph-name="y" unicode="y" horiz-adv-x="518" 
d="M455 482l41.0039 0.00195312c-38.667 -152 -97.334 -291.333 -176.001 -418c-52.667 -86.667 -99.334 -151.167 -140.001 -193.5s-85.667 -68.833 -135 -79.5l-7 27c36 11.333 69.667 31.5 101 60.5s64 69.5 98 121.5h-38c-12.667 0 -23.334 3.66699 -32.001 11
s-14.334 16.666 -17.001 27.999l-97 443h42l89 -425c4.66699 -16.667 14.667 -24.334 30 -23.001h44l25 40c74 122 131.333 258 172 408z" />
    <glyph glyph-name="z" unicode="z" horiz-adv-x="490" 
d="M459 447l-396 -413h341l-5 -34h-390l5 34l395 413h-333l4 35h384z" />
    <glyph glyph-name="braceleft" unicode="{" horiz-adv-x="303" 
d="M322 768l-1.99805 -27.002c-37.333 0 -64.833 -8.33301 -82.5 -25s-28.834 -43 -33.501 -79l-27 -198c-6 -40 -15 -66.667 -27 -80s-35 -23.666 -69 -30.999c31.333 -11.333 51.666 -24 60.999 -38s11.666 -38 6.99902 -72l-35 -255
c-5.33301 -35.333 -1.83301 -61 10.5 -77s37.166 -24 74.499 -24l-3 -27c-49.333 -0.666992 -83.5 9.33301 -102.5 30s-25.167 53.667 -18.5 99l37 268c3.33301 24 1.33301 40.333 -6 49s-22.666 17.667 -45.999 27c-2.66699 0.666992 -4.66699 1.33398 -6 2.00098l6 38
c30.667 9.33301 49.334 17.333 56.001 24c9.33301 9.33301 16 29 20 59l30 210c6 46 21 79 45 99s61 29.333 111 28z" />
    <glyph glyph-name="bar" unicode="|" horiz-adv-x="236" 
d="M70 -169h-33l133 950h33z" />
    <glyph glyph-name="braceright" unicode="}" horiz-adv-x="302" 
d="M110 741l2.00098 27.002c49.333 1.33301 83.5 -8.5 102.5 -29.5s25.5 -54.167 19.5 -99.5l-30 -211c-4 -30.667 -3 -49.834 3 -57.501s23 -15.834 51 -24.501l-6 -38c-17.333 -6 -28.5 -10.167 -33.5 -12.5s-12 -6.5 -21 -12.5s-15 -13 -18 -21s-5.5 -19 -7.5 -33
l-37 -267c-6.66699 -46 -21.667 -78.833 -45 -98.5s-60 -29.167 -110 -28.5l2 27c37.333 0 64.5 8.33301 81.5 25s27.833 42.667 32.5 78l37 256c4.66699 34.667 13 58.334 25 71.001s36 24.667 72 36c-30.667 7.33301 -50.334 18.166 -59.001 32.499s-10 41.5 -4 81.5
l29 198c4.66699 36 1 61.833 -11 77.5s-37 23.5 -75 23.5z" />
    <glyph glyph-name="asciitilde" unicode="~" horiz-adv-x="530" 
d="M100 236l-23.998 2.99902c2.66699 32.667 11.667 57.167 27 73.5s35 23.833 59 22.5c28.667 -2 62.834 -13.167 102.501 -33.5s72.167 -31.166 97.5 -32.499c20 -1.33301 35.167 2.83398 45.5 12.501s17.166 26.167 20.499 49.5l24 -3
c-2.66699 -30.667 -11.834 -54.167 -27.501 -70.5s-35.167 -23.5 -58.5 -21.5c-34.667 2 -71.334 13.167 -110.001 33.5s-68.667 31.166 -90 32.499c-38 4 -60 -18 -66 -66z" />
    <glyph glyph-name="uni00A0" unicode="&#xa0;" horiz-adv-x="228" 
 />
    <glyph glyph-name="exclamdown" unicode="&#xa1;" horiz-adv-x="236" 
d="M138 483h13.999c10.667 0 15.667 -6 15 -18l-9 -58c-1.33301 -12 -7.66602 -18 -18.999 -18h-12c-12.667 0 -18 6 -16 18l8 60c2 10.667 8.33301 16 19 16zM113.999 120l-46 -323h-40l46 323l26 158h33z" />
    <glyph glyph-name="cent" unicode="&#xa2;" horiz-adv-x="503" 
d="M467 583l-7.99902 -27c-26.667 6 -63.667 9.66699 -111 11l-92 -435h12c48 0 95.667 4 143 12l4 -29c-54 -12.667 -104.667 -19 -152 -19l-16 1l-21 -97h-27l22 98c-64.667 6 -108.334 28.667 -131.001 68s-28 101.333 -16 186c12.667 92 38.167 156.667 76.5 194
s97.5 56 177.5 56h1l19 88h27l-19 -88c47.333 -2.66699 84.333 -9 111 -19zM229.001 134l91.999 433.001c-65.333 -2 -113.166 -18.5 -143.499 -49.5s-51.166 -87.167 -62.499 -168.5c-10.667 -75.333 -7.33398 -128.833 9.99902 -160.5s52 -49.834 104 -54.501z" />
    <glyph glyph-name="sterling" unicode="&#xa3;" horiz-adv-x="560" 
d="M536 691l-5.00195 -30.999c-65.333 3.33301 -123.333 5 -174 5c-49.333 0 -85.166 -10.5 -107.499 -31.5s-35.833 -56.833 -40.5 -107.5l-13 -149h241l-5 -28h-239l-9 -98c-4.66699 -52 -14.5 -95.833 -29.5 -131.5s-39.167 -63.834 -72.5 -84.501c12 0.666992 32 1 60 1
h327l-4 -36h-437l4 36c36 20 62.5 47.5 79.5 82.5s27.833 78.5 32.5 130.5l9 100h-82l4 28h81l13 150c4 38 11.333 69 22 93s25.834 41.667 45.501 53s39.5 18.833 59.5 22.5s46 5.5 78 5.5c47.333 0 101.333 -3.33301 162 -10z" />
    <glyph glyph-name="currency" unicode="&#xa4;" horiz-adv-x="599" 
d="M546 550l-78.001 -67.999c26.667 -36 37 -80 31 -132c-6 -52.667 -25.333 -95.667 -58 -129l69 -79l-21 -18l-68 79c-37.333 -28.667 -81.333 -43 -132 -43c-52 0 -94.333 15.667 -127 47l-78 -69l-19 21l79 69c-24.667 35.333 -34 77.333 -28 126
c6 55.333 26.333 99.666 61 132.999l-69 79l21 19l69 -79c36.667 26 79.667 39 129 39c50.667 0 91.334 -14.333 122.001 -43l79 70zM282.999 187.001c51.333 -1.33301 94.1641 13.5 128.497 44.5s54.166 72.167 59.499 123.5c4.66699 47.333 -5.66602 86.333 -30.999 117
s-63 46 -113 46c-52 0 -94.167 -15.5 -126.5 -46.5s-51.166 -71.5 -56.499 -121.5c-5.33301 -47.333 4.83398 -86 30.501 -116s61.834 -45.667 108.501 -47z" />
    <glyph glyph-name="yen" unicode="&#xa5;" horiz-adv-x="605" 
d="M343 310h174.001l-4 -28h-190l-4 -5l-10 -77h193l-5 -28h-192l-25 -172h-41l24 172h-188l4 28h188l11 78l-2 4h-185l3 28h170l-162 380h43l127 -299c0.666992 -2 4.66699 -12 12 -30s12.666 -31.667 15.999 -41h8c12 20 27.667 43.667 47 71l210 299h46z" />
    <glyph glyph-name="brokenbar" unicode="&#xa6;" horiz-adv-x="236" 
d="M147 381h-33l56 400h33zM70 -169h-33l56 400h33z" />
    <glyph glyph-name="section" unicode="&#xa7;" horiz-adv-x="543" 
d="M368 332l-172.004 106.998c-35.333 22 -59.166 44.5 -71.499 67.5s-16.166 51.167 -11.499 84.5c6.66699 45.333 25 75.333 55 90s76.667 21.667 140 21c78.667 0 150.667 -4 216 -12l-5 -30c-63.333 4 -131.333 6.33301 -204 7
c-53.333 0.666992 -92.166 -3.83301 -116.499 -13.5s-39.166 -32.5 -44.499 -68.5c-6.66699 -46.667 13 -83.667 59 -111l170 -105c40.667 -25.333 64.5 -56.333 71.5 -93s1.83301 -80.667 -15.5 -132l-32 1c12.667 44.667 16.667 82.334 12 113.001
s-21.667 55.334 -51 74.001zM100.996 408.998l32.002 -1.99805c-12.667 -44 -16.834 -80.833 -12.501 -110.5s21.166 -53.5 50.499 -71.5l174 -107c34 -20.667 57.333 -42.667 70 -66s16.667 -52 12 -86c-4 -26.667 -11.333 -48 -22 -64s-25.5 -27.667 -44.5 -35
s-37.667 -11.833 -56 -13.5s-42.833 -2.5 -73.5 -2.5c-70.667 1.33301 -142.667 5.33301 -216 12l5 31c86 -4.66699 154.333 -7.33398 205 -8.00098c20.667 0 36.834 0.166992 48.501 0.5s25 2 40 5s26.667 7.33301 35 13s16.166 14.167 23.499 25.5s12 25 14 41
c5.33301 47.333 -14 84.666 -58 111.999l-170 104c-40.667 24.667 -64.667 55 -72 91s-2.33301 79.667 15 131z" />
    <glyph glyph-name="dieresis" unicode="&#xa8;" horiz-adv-x="402" 
d="M169 682h13c9.33301 0 13.666 -5 12.999 -15l-8 -53c-2 -10.667 -7.66699 -16 -17 -16h-12c-9.33301 0 -13.666 5 -12.999 15l8 54c0.666992 10 6 15 16 15zM344 682h13c10 0 14.333 -5 13 -15l-8 -53c-2 -10.667 -7.66699 -16 -17 -16h-12
c-9.33301 0 -13.666 5 -12.999 15l8 54c1.33301 10 6.66602 15 15.999 15z" />
    <glyph glyph-name="copyright" unicode="&#xa9;" horiz-adv-x="850" 
d="M479 702c102.667 0 183.668 -33.167 243.001 -99.5s82 -152.833 68 -259.5c-14 -105.333 -57.167 -190.833 -129.5 -256.5s-163.5 -98.5 -273.5 -98.5c-102.667 0 -183.667 33.333 -243 100s-82 153 -68 259c13.333 104.667 56.166 190 128.499 256s163.833 99 274.5 99z
M479.001 677c-102.667 0 -187.83 -30.999 -255.497 -92.999s-108.167 -142.333 -121.5 -241c-12.667 -98.667 8.16602 -178.334 62.499 -239.001s128.166 -91 221.499 -91c102.667 0 188 31 256 93s108.333 142.333 121 241c12.667 98 -7.83301 177.5 -61.5 238.5
s-127.834 91.5 -222.501 91.5zM550.005 156.001l2.99902 -23.999c-39.333 -8.66699 -86.666 -13 -141.999 -13c-74 0 -123.333 17.167 -148 51.5s-31.334 94.166 -20.001 179.499c12 84 34.833 142.833 68.5 176.5s86.5 50.5 158.5 50.5c50 0 93.667 -4.33301 131 -13
l-7 -22c-35.333 3.33301 -76 5 -122 5c-62.667 0 -108.167 -14.333 -136.5 -43s-48.166 -81.667 -59.499 -159c-10 -73.333 -5.33301 -124.333 14 -153s58.333 -43 117 -43c63.333 0 111 2.33301 143 7z" />
    <glyph glyph-name="ordfeminine" unicode="&#xaa;" horiz-adv-x="445" 
d="M355 270l-25.998 -0.000976562l7 72c-22 -24.667 -46.5 -44 -73.5 -58s-52.5 -21 -76.5 -21c-42 0 -70.833 11.5 -86.5 34.5s-18.834 68.5 -9.50098 136.5c9.33301 66.667 27.666 111.334 54.999 134.001s68.333 34 123 34c34 0 78 -3.66699 132 -11zM338.002 370.999
l28 200c-38 2 -68 3 -90 3c-50.667 0 -86.667 -9 -108 -27s-36.333 -56.667 -45 -116c-8 -56 -7.16699 -93.167 2.5 -111.5s31.167 -27.5 64.5 -27.5c44.667 0 94 26.333 148 79z" />
    <glyph glyph-name="guillemotleft" unicode="&#xab;" horiz-adv-x="458" 
d="M251 438l-170 -189l118 -190l-21 -15l-136 203l1 11l190 197zM415 438l-170 -189l118 -190l-21 -15l-136 203l1 11l190 197z" />
    <glyph glyph-name="logicalnot" unicode="&#xac;" horiz-adv-x="590" 
d="M508 313l-26 -179h-34l21 146h-388l4 33h423z" />
    <glyph glyph-name="softhyphen" unicode="&#xad;" horiz-adv-x="473" 
d="M383 235h-310l5 33h309z" />
    <glyph glyph-name="registered" unicode="&#xae;" horiz-adv-x="573" 
d="M334 701c68 0 120.5 -20.5 157.5 -61.5s51.5 -95.167 43.5 -162.5c-8 -64 -33.833 -116.833 -77.5 -158.5s-98.5 -62.5 -164.5 -62.5c-66.667 0 -119 21.167 -157 63.5s-53 97.833 -45 166.5c7.33301 67.333 33.333 120 78 158s99.667 57 165 57zM514 482
c7.33301 62 -5.50195 110.834 -38.502 146.501s-80.167 53.5 -141.5 53.5c-63.333 0 -114.666 -18.167 -153.999 -54.5s-62.333 -84.833 -69 -145.5c-6.66699 -62.667 7 -112.834 41 -150.501s81 -56.5 141 -56.5c60.667 0 110.834 19.5 150.501 58.5
s63.167 88.5 70.5 148.5zM190.998 341.001l38.998 276c24.667 2 57.334 3 98.001 3s69.167 -5 85.5 -15s22.5 -31.333 18.5 -64c-2.66699 -23.333 -9.16699 -40.333 -19.5 -51s-27.166 -17.667 -50.499 -21v-2c14.667 -4.66699 25 -18 31 -40l23 -86h-25l-22 87
c-6 22 -20.667 33 -44 33c-54 0 -85.333 0.333008 -94 1l-17 -121h-23zM233.996 479.001h86c30.667 0.666992 52.5 5 65.5 13s20.833 25.333 23.5 52c3.33301 24 -0.5 39.5 -11.5 46.5s-32.833 10.5 -65.5 10.5l-81 -1z" />
    <glyph glyph-name="macron" unicode="&#xaf;" horiz-adv-x="400" 
d="M386 621h-265l4 33h265z" />
    <glyph glyph-name="degree" unicode="&#xb0;" horiz-adv-x="376" 
d="M239 702c36.667 0 65.667 -11.833 87 -35.5s30 -53.834 26 -90.501c-4 -37.333 -19 -67.166 -45 -89.499s-56.667 -33.5 -92 -33.5c-38 0 -67 12.5 -87 37.5s-28.333 55.167 -25 90.5c4 36 18.833 65.167 44.5 87.5s56.167 33.5 91.5 33.5zM238 675
c-28.667 0 -52.8291 -9.16699 -72.4961 -27.5s-30.834 -41.833 -33.501 -70.5c-2.66699 -28 3.66602 -51.167 18.999 -69.5s37 -27.5 65 -27.5s52.167 9 72.5 27s31.833 42 34.5 72c3.33301 28 -2.83398 51 -18.501 69s-37.834 27 -66.501 27z" />
    <glyph glyph-name="plusminus" unicode="&#xb1;" horiz-adv-x="594" 
d="M518 366l-5 -32h-194l-21 -144h-32l20 144h-195l5 32h194l20 144h34l-21 -144h195zM61 120h423l-5 -32h-423z" />
    <glyph glyph-name="twosuperior" unicode="&#xb2;" horiz-adv-x="429" 
d="M139 739l-3 26.001c48.667 10.667 93.667 16 135 16c46 0 79.667 -6.16699 101 -18.5s29.666 -35.5 24.999 -69.5c-4 -26 -14 -50.333 -30 -73s-42 -50.334 -78 -83.001l-164 -145c16.667 0.666992 41.334 1 74.001 1h173l-3 -33h-292l2 22
c1.33301 7.33301 3.66602 12.333 6.99902 15l169 151c35.333 31.333 61.333 58.5 78 81.5s26.334 45.5 29.001 67.5c2 22 -4.16699 36.333 -18.5 43s-38.5 10 -72.5 10c-40.667 0 -84.667 -3.66699 -132 -11z" />
    <glyph glyph-name="threesuperior" unicode="&#xb3;" horiz-adv-x="410" 
d="M142 744l-2.99707 27.001c42.667 6.66699 83 10 121 10c50.667 0 85.5 -7.5 104.5 -22.5s26.167 -39.833 21.5 -74.5c-8.66699 -62.667 -36.334 -97.334 -83.001 -104.001l-1 -3c54.667 -7.33301 77.334 -41.666 68.001 -102.999c-5.33301 -34 -21 -62.167 -47 -84.5
s-64.667 -34.5 -116 -36.5c-42 -2 -85.667 1.33301 -131 10l6 27c47.333 -6 87.666 -8 120.999 -6c79.333 5.33301 123.666 37.333 132.999 96c4 25.333 -0.333008 45.666 -13 60.999s-38.334 23.333 -77.001 24h-85l3 26l84 2c26 0 47 5 63 15s26.5 20.667 31.5 32
s8.5 25 10.5 41c3.33301 27.333 -1.5 45.833 -14.5 55.5s-40.5 14.5 -82.5 14.5c-28 0 -66 -2.33301 -114 -7z" />
    <glyph glyph-name="acute" unicode="&#xb4;" horiz-adv-x="287" 
d="M301 683l-181 -136l-17 20l175 147z" />
    <glyph glyph-name="paragraph" unicode="&#xb6;" horiz-adv-x="595" 
d="M211 -210l58 411c-154.667 17.333 -220.334 106 -197.001 266c13.333 92 43.833 154.167 91.5 186.5s125.5 48.5 233.5 48.5c52.667 0 102.334 -5.66699 149.001 -17l-97 -685h-36l94 663c-33.333 4 -79 6.66699 -137 8l-124 -881h-35z" />
    <glyph glyph-name="periodcentered" unicode="&#xb7;" horiz-adv-x="212" 
d="M100 304h15c11.333 0 16.333 -6 15 -18l-9 -60c-0.666992 -10.667 -6.66699 -16 -18 -16h-15c-12 0 -17.333 6 -16 18l9 60c2 10.667 8.33301 16 19 16z" />
    <glyph glyph-name="cedilla" unicode="&#xb8;" horiz-adv-x="223" 
d="M53 -68l4 21c61.333 4 87.666 -18.667 78.999 -68c-5.33301 -36 -22.833 -64.167 -52.5 -84.5s-65.5 -27.833 -107.5 -22.5l8 23c31.333 -1.33301 58.333 6.5 81 23.5s36 38.167 40 63.5c2.66699 16.667 0.333984 28 -6.99902 34s-22.333 9.33301 -45 10z" />
    <glyph glyph-name="onesuperior" unicode="&#xb9;" horiz-adv-x="283" 
d="M206 360l-34 -0.000976562l49 349c2 12.667 4.33301 23.334 7 32.001l-124 -35l-2 25l128 43h35z" />
    <glyph glyph-name="ordmasculine" unicode="&#xba;" horiz-adv-x="445" 
d="M262 602c57.333 0 96 -12.833 116 -38.5s25.333 -70.167 16 -133.5c-8.66699 -62 -26 -105.333 -52 -130s-66.667 -37 -122 -37c-56.667 0 -94.834 12.833 -114.501 38.5s-25.167 70.167 -16.5 133.5c8.66699 61.333 25.834 104.5 51.501 129.5s66.167 37.5 121.5 37.5z
M263 574c-45.333 0 -78.168 -10.332 -98.501 -30.999s-34.166 -58.334 -41.499 -113.001c-7.33301 -52.667 -4 -89 10 -109s43 -30 87 -30s76.333 10.5 97 31.5s35 58.5 43 112.5c7.33301 53.333 4 89.833 -10 109.5s-43 29.5 -87 29.5z" />
    <glyph glyph-name="guillemotright" unicode="&#xbb;" horiz-adv-x="457" 
d="M30 61l170 188l-118 191l21 15l136 -203l-1 -11l-190 -197zM194 61l170 188l-118 191l21 15l136 -203l-1 -11l-190 -197z" />
    <glyph glyph-name="onequarter" unicode="&#xbc;" horiz-adv-x="839" 
d="M685 690l-569 -690h-34l569 690h34zM96 624l-0.999023 21.999l129 44h33l-58 -414h-33l49 352c3.33301 16.667 5.66602 27.334 6.99902 32.001zM767.001 113.999l-47.001 -2.99902l-16 -111h-31l15 110h-218c-15.333 0 -26 5.66699 -32 17s-4.66699 23.666 4 36.999
l177 250h35l-177 -251c-4.66699 -6.66699 -5.66699 -12.667 -3 -18s8.33398 -8 17.001 -8h201l18 129l16 70h25l-27 -199h47z" />
    <glyph glyph-name="onehalf" unicode="&#xbd;" horiz-adv-x="865" 
d="M114 0h-34l568 690h34zM198 276l-33 -0.000976562l49 352c2 12.667 4.33301 23.334 7 32.001l-125 -36l-2 22l129 44h33zM537 380.999l-4 24c50 10.667 95.333 16 136 16c49.333 0 84.5 -6 105.5 -18s28.833 -35.667 23.5 -71c-3.33301 -24.667 -13.5 -48.5 -30.5 -71.5
s-43.833 -50.833 -80.5 -83.5l-169 -148c26 0.666992 52 0.666992 78 0h180l-5 -29h-298l3 20c0.666992 5.33301 3.33398 10.333 8.00098 15l171 151c66.667 60 102.667 110.333 108 151c2.66699 23.333 -3.33301 38.333 -18 45s-39.334 10 -74.001 10
c-42 0 -86.667 -3.66699 -134 -11z" />
    <glyph glyph-name="threequarters" unicode="&#xbe;" horiz-adv-x="931" 
d="M289 495l-2.99902 -1.99805c55.333 -8 79.666 -43.667 72.999 -107c-5.33301 -41.333 -20 -71.5 -44 -90.5s-61.667 -28.5 -113 -28.5c-35.333 0 -82.333 3.33301 -141 10l4 25c48 -4.66699 91 -7 129 -7c42 0 73.167 7.66699 93.5 23s32.833 40.666 37.5 75.999
c4 26 -0.166992 46.667 -12.5 62s-38.833 23.333 -79.5 24h-87l4 24l84 1c65.333 1.33301 102 31.666 110 90.999c4 27.333 -1.16699 46 -15.5 56s-42.5 15 -84.5 15c-36 0 -75.333 -2 -118 -6l-3 24c42 6.66699 82.667 10 122 10c54.667 0 91.667 -7.16699 111 -21.5
s26.333 -39.833 21 -76.5c-8 -59.333 -37.333 -93.333 -88 -102zM790.001 690.002l-569 -690h-34l569 690h34zM859.001 114.002l-56.002 -2.99902l-15 -111h-32l16 110h-211c-14.667 0 -25.167 5.66699 -31.5 17s-5.16602 23.666 3.50098 36.999l178 250h34l-177 -251
c-4.66699 -6.66699 -5.66699 -12.667 -3 -18s8.33398 -8 17.001 -8h193l19 129l16 70h25l-28 -199h55z" />
    <glyph glyph-name="questiondown" unicode="&#xbf;" horiz-adv-x="497" 
d="M277 492h13.998c12 0 17 -5.66699 15 -17l-8 -60c-0.666992 -11.333 -6.66699 -17 -18 -17h-13c-11.333 0 -16.666 6 -15.999 18l9 61c0.666992 10 6.33398 15 17.001 15zM237.998 288l34.998 -2.00195c-4.66699 -34.667 -15.167 -66.167 -31.5 -94.5
s-34.666 -52.166 -54.999 -71.499s-40.666 -37.666 -60.999 -54.999s-38.5 -36.833 -54.5 -58.5s-25.667 -44.834 -29 -69.501c-6 -42 2.16699 -72.833 24.5 -92.5s60.833 -29.5 115.5 -29.5c62.667 0 129.667 4.33301 201 13l4 -29l-36 -6c-16 -2.66699 -28 -4.5 -36 -5.5
s-19.167 -2.16699 -33.5 -3.5s-29.833 -2.33301 -46.5 -3s-35.667 -1 -57 -1c-65.333 0 -113 13.333 -143 40s-41.667 66 -35 118c4 27.333 14 52.833 30 76.5s34.5 44.5 55.5 62.5l63 55c21 18.667 40 41.334 57 68.001s27.833 56 32.5 88z" />
    <glyph glyph-name="Agrave" unicode="&#xc0;" horiz-adv-x="604" 
d="M392 734l-147 137l26 29l139 -147zM458 242h-318l-119 -242h-45l337 678c2.66699 8 8.66699 12 18 12h56c10 0 15.667 -4.66699 17 -14l146 -676h-42zM450 279l-66.999 320.999c-0.666992 4.66699 -2.33398 13.334 -5.00098 26.001s-4.66699 22.667 -6 30h-30l-27 -57
l-158 -320h293z" />
    <glyph glyph-name="Aacute" unicode="&#xc1;" horiz-adv-x="604" 
d="M333 734l-17 21l175 146l23 -31zM458 242h-318l-119 -242h-45l337 678c2.66699 8 8.66699 12 18 12h56c10 0 15.667 -4.66699 17 -14l146 -676h-42zM450 279l-66.999 320.999c-0.666992 4.66699 -2.33398 13.334 -5.00098 26.001s-4.66699 22.667 -6 30h-30l-27 -57
l-158 -320h293z" />
    <glyph glyph-name="Acircumflex" unicode="&#xc2;" horiz-adv-x="604" 
d="M234 745l-13 20l151 119h29l121 -121l-17 -17l-116 101h-9zM458 242h-318l-119 -242h-45l337 678c2.66699 8 8.66699 12 18 12h56c10 0 15.667 -4.66699 17 -14l146 -676h-42zM450 279l-66.999 320.999c-0.666992 4.66699 -2.33398 13.334 -5.00098 26.001
s-4.66699 22.667 -6 30h-30l-27 -57l-158 -320h293z" />
    <glyph glyph-name="Atilde" unicode="&#xc3;" horiz-adv-x="604" 
d="M511 866l23.001 -2.99902c-2.66699 -30.667 -11.834 -53.834 -27.501 -69.501s-35.167 -22.5 -58.5 -20.5c-24.667 2 -49.667 12.833 -75 32.5s-45 30.5 -59 32.5c-20 2 -35.333 -2.33301 -46 -13s-17.667 -28 -21 -52l-23 2c2.66699 32 12 56.333 28 73s35.667 24 59 22
c20.667 -2 43.5 -13 68.5 -33s46.5 -30.667 64.5 -32c38.667 -4 61 16.333 67 61zM458.001 242.001h-318l-119 -242h-45l337 678c2.66699 8 8.66699 12 18 12h56c10 0 15.667 -4.66699 17 -14l146 -676h-42zM450.001 279.001l-66.999 320.999
c-0.666992 4.66699 -2.33398 13.334 -5.00098 26.001s-4.66699 22.667 -6 30h-30l-27 -57l-158 -320h293z" />
    <glyph glyph-name="Adieresis" unicode="&#xc4;" horiz-adv-x="604" 
d="M291 775h-12c-9.33301 0 -13.666 5 -12.999 15l8 54c0.666992 10.667 6 16 16 16h14c8.66699 0 12.667 -5.33301 12 -16l-8 -53c-0.666992 -10.667 -6.33398 -16 -17.001 -16zM466 775h-12c-9.33301 0 -13.666 5 -12.999 15l8 54c0.666992 10.667 6 16 16 16h14
c8.66699 0 12.667 -5.33301 12 -16l-8 -53c-0.666992 -10.667 -6.33398 -16 -17.001 -16zM458 242h-318l-119 -242h-45l337 678c2.66699 8 8.66699 12 18 12h56c10 0 15.667 -4.66699 17 -14l146 -676h-42zM450 279l-66.999 320.999
c-0.666992 4.66699 -2.33398 13.334 -5.00098 26.001s-4.66699 22.667 -6 30h-30l-27 -57l-158 -320h293z" />
    <glyph glyph-name="Aring" unicode="&#xc5;" horiz-adv-x="604" 
d="M370 718c-29.333 0 -52.4971 9.66699 -69.4971 29s-23.833 43 -20.5 71c3.33301 26 14.666 48.333 33.999 67s43.333 28 72 28c29.333 0 52.666 -9.66699 69.999 -29s24.333 -43 21 -71c-3.33301 -26 -14.833 -48.333 -34.5 -67s-43.834 -28 -72.501 -28zM307.003 814
c-2 -20.667 2.83203 -37.667 14.499 -51s27.834 -20 48.501 -20s38.334 7.16699 53.001 21.5s23.334 31.833 26.001 52.5c2.66699 20 -1.83301 36.833 -13.5 50.5s-28.167 20.5 -49.5 20.5c-20.667 0 -38.334 -7.16699 -53.001 -21.5s-23.334 -31.833 -26.001 -52.5z
M458.002 242h-318l-119 -242h-45l337 678c2.66699 8 8.66699 12 18 12h56c10 0 15.667 -4.66699 17 -14l146 -676h-42zM450.002 279l-66.999 320.999c-0.666992 4.66699 -2.33398 13.334 -5.00098 26.001s-4.66699 22.667 -6 30h-30l-27 -57l-158 -320h293z" />
    <glyph glyph-name="AE" unicode="&#xc6;" horiz-adv-x="906" 
d="M901 655h-265.002c-23.333 0 -43.166 -7.16699 -59.499 -21.5s-26.5 -33.833 -30.5 -58.5l-26 -190h302l-5 -34h-302l-33 -239c-3.33301 -23.333 0.833984 -42 12.501 -56s29.167 -21 52.5 -21h267l-2 -31c-61.333 -2.66699 -152.333 -4 -273 -4
c-33.333 0 -59 10.5 -77 31.5s-24.667 47.833 -20 80.5l21 148h-247l-203 -260h-46l468 600c28.667 36 57 60 85 72s63.333 18 106 18c118 0 211.333 -1.33301 280 -4zM467.998 295l40 286c1.33301 15.333 6.83301 30.333 16.5 45s20.167 24.334 31.5 29.001h-4
c-27.333 -10.667 -55 -34.334 -83 -71.001l-225 -289h224z" />
    <glyph glyph-name="Ccedilla" unicode="&#xc7;" 
d="M478 38l5 -30.999c-54.667 -12.667 -118.667 -19 -192 -19c-96 0 -160 27.167 -192 81.5s-38.667 146.833 -20 277.5c18.667 131.333 50.667 223.333 96 276s115.333 79 210 79c70 0 129 -6 177 -18l-9 -30c-51.333 7.33301 -107 11 -167 11
c-83.333 0 -144 -23.333 -182 -70s-65.667 -130.667 -83 -252c-16.667 -118.667 -12.667 -201.334 12 -248.001s77 -70 157 -70c73.333 0 136 4.33301 188 13zM240 -79.999l5.00195 21c61.333 4 87.666 -18.667 78.999 -68c-5.33301 -36 -22.833 -64.167 -52.5 -84.5
s-65.834 -27.833 -108.501 -22.5l8 23c32 -1.33301 59.333 6.5 82 23.5s36 38.167 40 63.5c2 16.667 -0.666992 28 -8 34s-22.333 9.33301 -45 10z" />
    <glyph glyph-name="Egrave" unicode="&#xc8;" horiz-adv-x="551" 
d="M392 758l-147 137l26 29l140 -147zM545 655h-283c-52 0 -81.667 -26.667 -89 -80l-27 -190h321l-5 -33h-320l-33 -240c-3.33301 -23.333 0.833984 -42 12.501 -56s29.167 -21 52.5 -21h284v-31c-64 -2.66699 -161 -4 -291 -4c-34.667 -0 -61.334 10.333 -80.001 31
s-25.334 47.667 -20.001 81l66 473c4.66699 32 17.667 57.5 39 76.5s49 28.5 83 28.5c132.667 0 231.334 -1.33301 296.001 -4z" />
    <glyph glyph-name="Eacute" unicode="&#xc9;" horiz-adv-x="551" 
d="M334 758l-17 20l175 147l23 -31zM545 655h-283c-52 0 -81.667 -26.667 -89 -80l-27 -190h321l-5 -33h-320l-33 -240c-3.33301 -23.333 0.833984 -42 12.501 -56s29.167 -21 52.5 -21h284v-31c-64 -2.66699 -161 -4 -291 -4c-34.667 -0 -61.334 10.333 -80.001 31
s-25.334 47.667 -20.001 81l66 473c4.66699 32 17.667 57.5 39 76.5s49 28.5 83 28.5c132.667 0 231.334 -1.33301 296.001 -4z" />
    <glyph glyph-name="Ecircumflex" unicode="&#xca;" horiz-adv-x="551" 
d="M235 769l-14 19l151 120h29l122 -121l-17 -18l-116 102h-9zM545 655h-283c-52 0 -81.667 -26.667 -89 -80l-27 -190h321l-5 -33h-320l-33 -240c-3.33301 -23.333 0.833984 -42 12.501 -56s29.167 -21 52.5 -21h284v-31c-64 -2.66699 -161 -4 -291 -4
c-34.667 -0 -61.334 10.333 -80.001 31s-25.334 47.667 -20.001 81l66 473c4.66699 32 17.667 57.5 39 76.5s49 28.5 83 28.5c132.667 0 231.334 -1.33301 296.001 -4z" />
    <glyph glyph-name="Edieresis" unicode="&#xcb;" horiz-adv-x="551" 
d="M292 799h-11.999c-10.667 0 -15 5 -13 15l8 54c0.666992 10 6 15 16 15h13c9.33301 0 13.666 -5 12.999 -15l-9 -53c-0.666992 -10.667 -6 -16 -16 -16zM467.001 799h-11.999c-10.667 0 -15 5 -13 15l8 54c0.666992 10 6 15 16 15h13c9.33301 0 13.666 -5 12.999 -15
l-9 -53c-0.666992 -10.667 -6 -16 -16 -16zM545.002 655h-283c-52 0 -81.667 -26.667 -89 -80l-27 -190h321l-5 -33h-320l-33 -240c-3.33301 -23.333 0.833984 -42 12.501 -56s29.167 -21 52.5 -21h284v-31c-64 -2.66699 -161 -4 -291 -4
c-34.667 -0 -61.334 10.333 -80.001 31s-25.334 47.667 -20.001 81l66 473c4.66699 32 17.667 57.5 39 76.5s49 28.5 83 28.5c132.667 0 231.334 -1.33301 296.001 -4z" />
    <glyph glyph-name="Igrave" unicode="&#xcc;" horiz-adv-x="239" 
d="M224 753l-18 -19l-147 137l26 29zM99 0h-41l97 690h41z" />
    <glyph glyph-name="Iacute" unicode="&#xcd;" horiz-adv-x="239" 
d="M328 870l-181 -136l-17 21l175 146zM99 0h-41l97 690h41z" />
    <glyph glyph-name="Icircumflex" unicode="&#xce;" horiz-adv-x="239" 
d="M337 763l-18 -17l-116 101h-8l-146 -102l-14 20l151 119h29zM99 0h-41l97 690h41z" />
    <glyph glyph-name="Idieresis" unicode="&#xcf;" horiz-adv-x="239" 
d="M104 860h13.999c8.66699 0 12.667 -5.33301 12 -16l-8 -53c-0.666992 -10.667 -6 -16 -16 -16h-13c-9.33301 0 -13.666 5 -12.999 15l8 54c2 10.667 7.33301 16 16 16zM278.999 860h14c8.66699 0 12.667 -5.33301 12 -16l-8 -53
c-0.666992 -10.667 -6.33398 -16 -17.001 -16h-12c-9.33301 0 -13.666 5 -12.999 15l8 54c2 10.667 7.33301 16 16 16zM98.999 0h-41l97 690h41z" />
    <glyph glyph-name="Eth" unicode="&#xd0;" horiz-adv-x="659" 
d="M112 384l42.999 306c80.667 6 156.667 9 228 9c96 0 159.833 -26.5 191.5 -79.5s38.5 -145.167 20.5 -276.5c-18.667 -134.667 -50.5 -227 -95.5 -277s-115.833 -75 -212.5 -75c-71.333 0 -147.666 3 -228.999 9l50 356h-79l4 28h79zM148.999 356l-46.001 -324.999
c56 -2 117 -3 183 -3c83.333 0 144.333 22.667 183 68s66.667 129 84 251c16.667 119.333 12.5 201.666 -12.5 246.999s-77.833 68 -158.5 68c-69.333 0 -132.666 -1 -189.999 -3l-39 -275h173l-3 -28h-174z" />
    <glyph glyph-name="Ntilde" unicode="&#xd1;" horiz-adv-x="692" 
d="M297 773l-23.002 2.00195c2.66699 32.667 11.834 57.167 27.501 73.5s35.5 23.5 59.5 21.5c20 -2 42.5 -13 67.5 -33s46.833 -30.667 65.5 -32c39.333 -4 61.333 16.333 66 61l23 -3c-2.66699 -30.667 -11.667 -53.834 -27 -69.501s-35 -22.5 -59 -20.5
c-19.333 1.33301 -36.666 7 -51.999 17s-29.5 20.167 -42.5 30.5s-25.833 16.166 -38.5 17.499c-38.667 4 -61 -17.667 -67 -65zM648.998 690.002l-94 -670.999c-2 -12.667 -9 -19 -21 -19h-51c-10.667 0 -18 5.66699 -22 17l-221 563l-28 73h-23
c-4 -34.667 -7.33301 -62 -10 -82l-80 -571h-41l94 671c2 12.667 9 19 21 19h49c10.667 0 18 -5.66699 22 -17l216 -550c10 -24.667 20.667 -53.334 32 -86.001h26c7.33301 57.333 11.333 87 12 89l78 564h41z" />
    <glyph glyph-name="Ograve" unicode="&#xd2;" horiz-adv-x="662" 
d="M441 753l-19 -19l-147 137l26 29zM386 702c95.333 0 159 -27 191 -81s38.667 -146.667 20 -278c-18 -132 -49.5 -224.167 -94.5 -276.5s-115.167 -78.5 -210.5 -78.5s-159.333 26.833 -192 80.5s-39.667 146.5 -21 278.5c18.667 131.333 50.5 223.333 95.5 276
s115.5 79 211.5 79zM385 665c-82.667 0 -142.999 -23.499 -180.999 -70.499s-65.667 -130.833 -83 -251.5c-16 -118.667 -11.5 -201.334 13.5 -248.001s77.5 -70 157.5 -70c82 0 142 23.5 180 70.5s65.667 130.833 83 251.5c17.333 120 13.666 203 -11.001 249
s-77.667 69 -159 69z" />
    <glyph glyph-name="Oacute" unicode="&#xd3;" horiz-adv-x="662" 
d="M545 870l-181 -136l-17 21l175 146zM386 702c95.333 0 159 -27 191 -81s38.667 -146.667 20 -278c-18 -132 -49.5 -224.167 -94.5 -276.5s-115.167 -78.5 -210.5 -78.5s-159.333 26.833 -192 80.5s-39.667 146.5 -21 278.5c18.667 131.333 50.5 223.333 95.5 276
s115.5 79 211.5 79zM385 665c-82.667 0 -142.999 -23.499 -180.999 -70.499s-65.667 -130.833 -83 -251.5c-16 -118.667 -11.5 -201.334 13.5 -248.001s77.5 -70 157.5 -70c82 0 142 23.5 180 70.5s65.667 130.833 83 251.5c17.333 120 13.666 203 -11.001 249
s-77.667 69 -159 69z" />
    <glyph glyph-name="Ocircumflex" unicode="&#xd4;" horiz-adv-x="662" 
d="M553 763l-17 -17l-116 101h-9l-146 -102l-14 20l151 119h29zM386 702c95.333 0 159 -27 191 -81s38.667 -146.667 20 -278c-18 -132 -49.5 -224.167 -94.5 -276.5s-115.167 -78.5 -210.5 -78.5s-159.333 26.833 -192 80.5s-39.667 146.5 -21 278.5
c18.667 131.333 50.5 223.333 95.5 276s115.5 79 211.5 79zM385 665c-82.667 0 -142.999 -23.499 -180.999 -70.499s-65.667 -130.833 -83 -251.5c-16 -118.667 -11.5 -201.334 13.5 -248.001s77.5 -70 157.5 -70c82 0 142 23.5 180 70.5s65.667 130.833 83 251.5
c17.333 120 13.666 203 -11.001 249s-77.667 69 -159 69z" />
    <glyph glyph-name="Otilde" unicode="&#xd5;" horiz-adv-x="662" 
d="M278 773l-23.0029 2.00195c2.66699 32.667 11.834 57.167 27.501 73.5s35.5 23.5 59.5 21.5c20.667 -2 43.334 -13 68.001 -33s46 -30.667 64 -32c40 -4 62.333 16.333 67 61l23 -3c-2.66699 -30.667 -11.667 -53.834 -27 -69.501s-35 -22.5 -59 -20.5
c-19.333 1.33301 -36.666 7 -51.999 17s-29.5 20.167 -42.5 30.5s-25.833 16.166 -38.5 17.499c-38.667 4 -61 -17.667 -67 -65zM385.997 702.002c95.333 0 159 -27 191 -81s38.667 -146.667 20 -278c-18 -132 -49.5 -224.167 -94.5 -276.5s-115.167 -78.5 -210.5 -78.5
s-159.333 26.833 -192 80.5s-39.667 146.5 -21 278.5c18.667 131.333 50.5 223.333 95.5 276s115.5 79 211.5 79zM384.997 665.002c-82.667 0 -142.999 -23.499 -180.999 -70.499s-65.667 -130.833 -83 -251.5c-16 -118.667 -11.5 -201.334 13.5 -248.001
s77.5 -70 157.5 -70c82 0 142 23.5 180 70.5s65.667 130.833 83 251.5c17.333 120 13.666 203 -11.001 249s-77.667 69 -159 69z" />
    <glyph glyph-name="Odieresis" unicode="&#xd6;" horiz-adv-x="662" 
d="M321 860h13.001c9.33301 0 13.666 -5.33301 12.999 -16l-9 -53c-0.666992 -10.667 -6 -16 -16 -16h-12c-10.667 0 -15 5 -13 15l8 54c0.666992 10.667 6 16 16 16zM496.001 860h13c9.33301 0 13.666 -5.33301 12.999 -16l-9 -53c-0.666992 -10.667 -6 -16 -16 -16h-13
c-9.33301 0 -13.666 5 -12.999 15l9 54c0.666992 10.667 6 16 16 16zM386.001 702c95.333 0 159 -27 191 -81s38.667 -146.667 20 -278c-18 -132 -49.5 -224.167 -94.5 -276.5s-115.167 -78.5 -210.5 -78.5s-159.333 26.833 -192 80.5s-39.667 146.5 -21 278.5
c18.667 131.333 50.5 223.333 95.5 276s115.5 79 211.5 79zM385.001 665c-82.667 0 -142.999 -23.499 -180.999 -70.499s-65.667 -130.833 -83 -251.5c-16 -118.667 -11.5 -201.334 13.5 -248.001s77.5 -70 157.5 -70c82 0 142 23.5 180 70.5s65.667 130.833 83 251.5
c17.333 120 13.666 203 -11.001 249s-77.667 69 -159 69z" />
    <glyph glyph-name="multiply" unicode="&#xd7;" horiz-adv-x="526" 
d="M287 287l140 -145l-24 -25l-143 148l-186 -148l-21 27l183 146l-139 143l24 24l142 -146l186 149l22 -27z" />
    <glyph glyph-name="Oslash" unicode="&#xd8;" horiz-adv-x="662" 
d="M589 730l-43.001 -71.001c30 -25.333 49 -63.666 57 -114.999s6 -118.333 -6 -201c-18 -132 -49.5 -224.167 -94.5 -276.5s-115.167 -78.5 -210.5 -78.5c-59.333 0 -105.333 9.33301 -138 28l-42 -69l-25 14l44 71c-57.333 48.667 -74.666 153.667 -51.999 315
c18.667 131.333 50.5 223.333 95.5 276s115.5 79 211.5 79c58.667 0 104 -9 136 -27l42 69zM152.999 68.999l348.001 572.002c-26.667 16 -65.334 24 -116.001 24c-82.667 0 -143 -23.5 -181 -70.5s-65.667 -130.833 -83 -251.5c-10 -70.667 -12.5 -128.334 -7.5 -173.001
s18.167 -78.334 39.5 -101.001zM524 623.001l-349 -572c28 -17.333 67 -26 117 -26c82 0 142 23.5 180 70.5s65.667 130.833 83 251.5c10.667 72 13.667 130.5 9 175.5s-18 78.5 -40 100.5z" />
    <glyph glyph-name="Ugrave" unicode="&#xd9;" horiz-adv-x="666" 
d="M440 753l-19 -19l-147 137l26 29zM629 690l-60.999 -434c-14 -97.333 -41.5 -166.333 -82.5 -207s-104.5 -61 -190.5 -61c-87.333 0 -146.833 20.833 -178.5 62.5s-40.834 111.167 -27.501 208.5l60 431h42l-61 -434c-12 -85.333 -5.66699 -145.166 19 -179.499
s73 -51.5 145 -51.5c72.667 0 126.667 17.667 162 53s59 95.666 71 180.999l60 431h42z" />
    <glyph glyph-name="Uacute" unicode="&#xda;" horiz-adv-x="666" 
d="M544 870l-181 -136l-17 21l175 146zM629 690l-60.999 -434c-14 -97.333 -41.5 -166.333 -82.5 -207s-104.5 -61 -190.5 -61c-87.333 0 -146.833 20.833 -178.5 62.5s-40.834 111.167 -27.501 208.5l60 431h42l-61 -434c-12 -85.333 -5.66699 -145.166 19 -179.499
s73 -51.5 145 -51.5c72.667 0 126.667 17.667 162 53s59 95.666 71 180.999l60 431h42z" />
    <glyph glyph-name="Ucircumflex" unicode="&#xdb;" horiz-adv-x="666" 
d="M552 763l-17 -17l-116 101h-9l-146 -102l-14 20l151 119h29zM629 690l-60.999 -434c-14 -97.333 -41.5 -166.333 -82.5 -207s-104.5 -61 -190.5 -61c-87.333 0 -146.833 20.833 -178.5 62.5s-40.834 111.167 -27.501 208.5l60 431h42l-61 -434
c-12 -85.333 -5.66699 -145.166 19 -179.499s73 -51.5 145 -51.5c72.667 0 126.667 17.667 162 53s59 95.666 71 180.999l60 431h42z" />
    <glyph glyph-name="Udieresis" unicode="&#xdc;" horiz-adv-x="666" 
d="M320 860h13.001c9.33301 0 13.666 -5.33301 12.999 -16l-9 -53c-0.666992 -10.667 -6 -16 -16 -16h-12c-10.667 0 -15 5 -13 15l8 54c0.666992 10.667 6 16 16 16zM495.001 860h13c9.33301 0 13.666 -5.33301 12.999 -16l-9 -53c-0.666992 -10.667 -6 -16 -16 -16h-13
c-9.33301 0 -13.666 5 -12.999 15l9 54c0.666992 10.667 6 16 16 16zM629.001 690l-60.999 -434c-14 -97.333 -41.5 -166.333 -82.5 -207s-104.5 -61 -190.5 -61c-87.333 0 -146.833 20.833 -178.5 62.5s-40.834 111.167 -27.501 208.5l60 431h42l-61 -434
c-12 -85.333 -5.66699 -145.166 19 -179.499s73 -51.5 145 -51.5c72.667 0 126.667 17.667 162 53s59 95.666 71 180.999l60 431h42z" />
    <glyph glyph-name="Yacute" unicode="&#xdd;" horiz-adv-x="543" 
d="M298 734l-17 21l174 146l24 -31zM285 253l-36 -253h-42l37 254l-173 436h42l126 -323c12 -31.333 20.667 -55.333 26 -72h7c13.333 24 28.333 48.333 45 73l217 322h45z" />
    <glyph glyph-name="Thorn" unicode="&#xde;" horiz-adv-x="584" 
d="M197 690l-18.999 -136c34.667 2.66699 95 4 181 4c76 0 127.667 -15 155 -45s35 -84.667 23 -164c-10.667 -79.333 -32.667 -133.333 -66 -162s-87.333 -43 -162 -43c-64.667 0 -127.334 2.33301 -188.001 7l-21 -151h-42l78 549v1l19 140h42zM125.001 181
l180.999 0.00195312c62.667 1.33301 107.667 13.666 135 36.999s45.666 68.666 54.999 135.999c8.66699 66 3.33398 110.5 -15.999 133.5s-59.666 34.5 -120.999 34.5c-73.333 0 -135.333 -0.666992 -186 -2z" />
    <glyph glyph-name="germandbls" unicode="&#xdf;" horiz-adv-x="653" 
d="M386 289l120.004 -59.9912c32 -16 54 -32.833 66 -50.5s16 -42.834 12 -75.501c-6.66699 -46.667 -24.834 -77.334 -54.501 -92.001s-74.5 -22 -134.5 -22c-54 0 -105.667 3.66699 -155 11l5 30c56 -5.33301 107.333 -7.33301 154 -6
c47.333 0.666992 82.166 6.5 104.499 17.5s35.833 33.5 40.5 67.5c2 13.333 2.16699 24.833 0.5 34.5s-5.83398 18 -12.501 25s-12 11.833 -16 14.5s-11.667 7 -23 13c-3.33301 2 -5.66602 3.33301 -6.99902 4l-120 60c-28 14.667 -47.667 30 -59 46
s-15.666 36.667 -12.999 62c0.666992 8 2.16699 15.333 4.5 22s4.66602 12.667 6.99902 18s6.16602 10.666 11.499 15.999s9.5 9.66602 12.5 12.999s8.5 7.16602 16.5 11.499s13.833 7.66602 17.5 9.99902s10.667 5.5 21 9.5s17.333 6.83301 21 8.5s11.667 4.66699 24 9
l24.5 8.5c12.667 4.66699 22.667 9 30 13s16.666 10 27.999 18s20 18.167 26 30.5s9.33301 26.833 10 43.5c1.33301 18.667 -1.66699 33.5 -9 44.5s-22.833 19.833 -46.5 26.5s-57.5 10 -101.5 10c-69.333 0 -117.666 -10 -144.999 -30s-45.333 -59.667 -54 -119l-85 -604
c-7.33301 -48.667 -21.833 -83.334 -43.5 -104.001s-55.167 -31 -100.5 -31c-26 0 -55.667 1.66699 -89 5l4 30h78c36 0 62.167 7.66699 78.5 23s27.5 42.666 33.5 81.999l73 516h-88l4 29l88 4l8 54c4.66699 32 12 59.167 22 81.5s21.333 39.833 34 52.5
s29 22.334 49 29.001s38.833 11 56.5 13s39.834 3 66.501 3c77.333 0 131.666 -8.33301 162.999 -25s45 -47.667 41 -93c-2.66699 -34 -13.334 -60.333 -32.001 -79s-46.334 -35.334 -83.001 -50.001c-5.33301 -2 -16.833 -6 -34.5 -12s-29 -10 -34 -12s-13.333 -6 -25 -12
s-19.5 -11.667 -23.5 -17s-8.16699 -12.333 -12.5 -21s-7.16602 -18.334 -8.49902 -29.001c-1.33301 -17.333 2 -31.5 10 -42.5s22.667 -21.833 44 -32.5z" />
    <glyph glyph-name="agrave" unicode="&#xe0;" horiz-adv-x="566" 
d="M350 552l-147 137l26 29l139 -147zM437 0h-30.999l13 118c-36 -40.667 -75.667 -72.5 -119 -95.5s-83 -34.5 -119 -34.5c-58.667 0 -96.334 19.667 -113.001 59s-17.667 105 -3 197c16 101.333 40.5 168.333 73.5 201s91.167 49 174.5 49c56 0 119.667 -5 191 -15z
M419.001 156l41.001 297c-76 4 -122.333 6 -139 6c-76.667 0 -128.334 -13.667 -155.001 -41s-47 -87 -61 -179c-13.333 -78 -14.5 -133.333 -3.5 -166s38.833 -49 83.5 -49c33.333 0 70.833 11.5 112.5 34.5s82.167 55.5 121.5 97.5z" />
    <glyph glyph-name="aacute" unicode="&#xe1;" horiz-adv-x="566" 
d="M292 552l-18 21l175 146l24 -31zM437 0h-30.999l13 118c-36 -40.667 -75.667 -72.5 -119 -95.5s-83 -34.5 -119 -34.5c-58.667 0 -96.334 19.667 -113.001 59s-17.667 105 -3 197c16 101.333 40.5 168.333 73.5 201s91.167 49 174.5 49c56 0 119.667 -5 191 -15z
M419.001 156l41.001 297c-76 4 -122.333 6 -139 6c-76.667 0 -128.334 -13.667 -155.001 -41s-47 -87 -61 -179c-13.333 -78 -14.5 -133.333 -3.5 -166s38.833 -49 83.5 -49c33.333 0 70.833 11.5 112.5 34.5s82.167 55.5 121.5 97.5z" />
    <glyph glyph-name="acircumflex" unicode="&#xe2;" horiz-adv-x="566" 
d="M193 564l-14 19l151 120h29l122 -121l-17 -18l-116 102h-9zM437 0h-30.999l13 118c-36 -40.667 -75.667 -72.5 -119 -95.5s-83 -34.5 -119 -34.5c-58.667 0 -96.334 19.667 -113.001 59s-17.667 105 -3 197c16 101.333 40.5 168.333 73.5 201s91.167 49 174.5 49
c56 0 119.667 -5 191 -15zM419.001 156l41.001 297c-76 4 -122.333 6 -139 6c-76.667 0 -128.334 -13.667 -155.001 -41s-47 -87 -61 -179c-13.333 -78 -14.5 -133.333 -3.5 -166s38.833 -49 83.5 -49c33.333 0 70.833 11.5 112.5 34.5s82.167 55.5 121.5 97.5z" />
    <glyph glyph-name="atilde" unicode="&#xe3;" horiz-adv-x="566" 
d="M469 684l23 -2.00195c-2.66699 -30.667 -11.667 -54 -27 -70s-35 -23 -59 -21c-24.667 2 -49.667 13 -75 33s-44.666 30.667 -57.999 32c-38 4 -60.667 -17.667 -68 -65l-23 3c3.33301 32.667 12.833 57 28.5 73s35.167 23 58.5 21c20.667 -2 43.5 -12.833 68.5 -32.5
s46.5 -30.5 64.5 -32.5c20.667 -1.33301 36.167 2.83398 46.5 12.501s17.166 25.834 20.499 48.501zM437 -0.00195312h-30.999l13 118c-36 -40.667 -75.667 -72.5 -119 -95.5s-83 -34.5 -119 -34.5c-58.667 0 -96.334 19.667 -113.001 59s-17.667 105 -3 197
c16 101.333 40.5 168.333 73.5 201s91.167 49 174.5 49c56 0 119.667 -5 191 -15zM419.001 155.998l41.001 297c-76 4 -122.333 6 -139 6c-76.667 0 -128.334 -13.667 -155.001 -41s-47 -87 -61 -179c-13.333 -78 -14.5 -133.333 -3.5 -166s38.833 -49 83.5 -49
c33.333 0 70.833 11.5 112.5 34.5s82.167 55.5 121.5 97.5z" />
    <glyph glyph-name="adieresis" unicode="&#xe4;" horiz-adv-x="566" 
d="M250 594h-13.001c-9.33301 0 -13.666 5 -12.999 15l9 54c0.666992 10 6 15 16 15h13c10 0 14 -5 12 -15l-8 -53c-0.666992 -10.667 -6 -16 -16 -16zM424.999 594h-13.001c-9.33301 0 -13.666 5 -12.999 15l8 54c2 10 7.66699 15 17 15h13c10 0 14 -5 12 -15l-8 -53
c-0.666992 -10.667 -6 -16 -16 -16zM436.998 0h-30.999l13 118c-36 -40.667 -75.667 -72.5 -119 -95.5s-83 -34.5 -119 -34.5c-58.667 0 -96.334 19.667 -113.001 59s-17.667 105 -3 197c16 101.333 40.5 168.333 73.5 201s91.167 49 174.5 49c56 0 119.667 -5 191 -15z
M418.999 156l41.001 297c-76 4 -122.333 6 -139 6c-76.667 0 -128.334 -13.667 -155.001 -41s-47 -87 -61 -179c-13.333 -78 -14.5 -133.333 -3.5 -166s38.833 -49 83.5 -49c33.333 0 70.833 11.5 112.5 34.5s82.167 55.5 121.5 97.5z" />
    <glyph glyph-name="aring" unicode="&#xe5;" horiz-adv-x="566" 
d="M328 536c-29.333 0 -52.5 9.66602 -69.5 28.999s-23.833 43 -20.5 71c3.33301 26.667 14.833 49.334 34.5 68.001s43.834 28 72.501 28s51.667 -9.66699 69 -29s24.333 -43 21 -71c-3.33301 -26 -14.833 -48.5 -34.5 -67.5s-43.834 -28.5 -72.501 -28.5zM266 631.999
c-2.66699 -20 1.99805 -36.667 13.998 -50s28.333 -20 49 -20c20 0 37.5 7.16699 52.5 21.5s23.5 31.833 25.5 52.5c2.66699 19.333 -1.66602 35.833 -12.999 49.5s-27.666 20.5 -48.999 20.5s-39.333 -7.16699 -54 -21.5s-23 -31.833 -25 -52.5zM436.998 -0.000976562
h-30.999l13 118c-36 -40.667 -75.667 -72.5 -119 -95.5s-83 -34.5 -119 -34.5c-58.667 0 -96.334 19.667 -113.001 59s-17.667 105 -3 197c16 101.333 40.5 168.333 73.5 201s91.167 49 174.5 49c56 0 119.667 -5 191 -15zM418.999 155.999l41.001 297
c-76 4 -122.333 6 -139 6c-76.667 0 -128.334 -13.667 -155.001 -41s-47 -87 -61 -179c-13.333 -78 -14.5 -133.333 -3.5 -166s38.833 -49 83.5 -49c33.333 0 70.833 11.5 112.5 34.5s82.167 55.5 121.5 97.5z" />
    <glyph glyph-name="ae" unicode="&#xe6;" horiz-adv-x="872" 
d="M766 36l4.00586 -28.001c-44.667 -13.333 -108.334 -20 -191.001 -20c-56.667 0 -99.5 9.83301 -128.5 29.5s-46.833 50.834 -53.5 93.501c-70 -82 -145.333 -123 -226 -123c-56 0 -91.333 20.667 -106 62s-15.334 106 -2.00098 194
c15.333 100.667 39.666 167.5 72.999 200.5s90.333 49.5 171 49.5c62 0 133 -7.33301 213 -22c33.333 14.667 77.666 22 132.999 22c66.667 0 114.167 -11.167 142.5 -33.5s36.166 -61.166 23.499 -116.499c-8.66699 -40.667 -25.167 -69.334 -49.5 -86.001
s-62.833 -27.667 -115.5 -33l-218 -23c-7.33301 -69.333 0.666992 -116.5 24 -141.5s66.666 -37.5 129.999 -37.5c54 0 112.667 4.33301 176 13zM176.006 23.999c69.333 0 141.666 40.334 216.999 121.001c-0.666992 27.333 2 61.333 8 102
c13.333 95.333 40 161.666 80 198.999c-84 8.66699 -139.333 13 -166 13c-39.333 0 -70.666 -3 -93.999 -9s-43 -17.833 -59 -35.5s-28 -39.667 -36 -66s-15.667 -62.833 -23 -109.5c-12.667 -75.333 -14 -130 -4 -164s35.667 -51 77 -51zM440.006 234l213.999 24
c41.333 4.66699 70.833 13 88.5 25s30.167 33.333 37.5 64c2.66699 16.667 4.5 31 5.5 43s-1.5 22.167 -7.5 30.5s-12.167 15 -18.5 20s-15.5 8.83301 -27.5 11.5s-23.667 4.5 -35 5.5s-25 1.5 -41 1.5c-36 0 -64.833 -2.5 -86.5 -7.5s-41.5 -15.167 -59.5 -30.5
s-32.167 -37 -42.5 -65s-19.166 -65.333 -26.499 -112z" />
    <glyph glyph-name="ccedilla" unicode="&#xe7;" horiz-adv-x="477" 
d="M395 35l3.99902 -28.001c-49.333 -12.667 -100 -19 -152 -19c-82 0 -137.333 19.333 -166 58s-36.667 104.334 -24 197.001c12.667 92 38.334 156.833 77.001 194.5s98 56.5 178 56.5c55.333 0 101.666 -6.33301 138.999 -19l-8 -27c-30 6.66699 -71.333 10 -124 10
c-70.667 0 -122.167 -15.5 -154.5 -46.5s-54.166 -88.5 -65.499 -172.5c-12 -83.333 -6.66699 -140 16 -170s68.667 -45 138 -45c56.667 0 104 3.66699 142 11zM194.999 -80.001l5 21c30 2 51.667 -2.33301 65 -13s18 -29 14 -55c-5.33301 -36 -22.833 -64.167 -52.5 -84.5
s-65.834 -27.833 -108.501 -22.5l8 23c32 -1.33301 59.167 6.5 81.5 23.5s35.5 38.167 39.5 63.5c2.66699 16.667 0.333984 28 -6.99902 34s-22.333 9.33301 -45 10z" />
    <glyph glyph-name="egrave" unicode="&#xe8;" horiz-adv-x="529" 
d="M340 552l-147 137l26 29l140 -147zM425 36l4.00391 -28c-45.333 -13.333 -109.333 -20 -192 -20c-79.333 0 -132.333 19.833 -159 59.5s-33.334 106.167 -20.001 199.5c7.33301 50.667 17.5 92.167 30.5 124.5s30.167 57.5 51.5 75.5s45.166 30.333 71.499 37
s59.5 10 99.5 10c66.667 0 114.167 -11.167 142.5 -33.5s36.166 -61.166 23.499 -116.499c-8.66699 -40.667 -25.167 -69.334 -49.5 -86.001s-63.166 -27.667 -116.499 -33l-218 -23c-6.66699 -69.333 1.66602 -116.5 24.999 -141.5s66.666 -37.5 129.999 -37.5
c53.333 0 112.333 4.33301 177 13zM97.0039 234l215.001 24c41.333 4.66699 70.666 13 87.999 25s30 33.333 38 64c2.66699 16.667 4.5 31 5.5 43s-1.5 22.167 -7.5 30.5s-12.167 15 -18.5 20s-15.5 8.83301 -27.5 11.5s-23.833 4.5 -35.5 5.5s-25.5 1.5 -41.5 1.5
c-36 0 -64.833 -2.5 -86.5 -7.5s-41.334 -15.167 -59.001 -30.5s-31.667 -37 -42 -65s-19.166 -65.333 -26.499 -112z" />
    <glyph glyph-name="eacute" unicode="&#xe9;" horiz-adv-x="529" 
d="M282 552l-17 21l174 146l24 -31zM425 36l4.00391 -28c-45.333 -13.333 -109.333 -20 -192 -20c-79.333 0 -132.333 19.833 -159 59.5s-33.334 106.167 -20.001 199.5c7.33301 50.667 17.5 92.167 30.5 124.5s30.167 57.5 51.5 75.5s45.166 30.333 71.499 37
s59.5 10 99.5 10c66.667 0 114.167 -11.167 142.5 -33.5s36.166 -61.166 23.499 -116.499c-8.66699 -40.667 -25.167 -69.334 -49.5 -86.001s-63.166 -27.667 -116.499 -33l-218 -23c-6.66699 -69.333 1.66602 -116.5 24.999 -141.5s66.666 -37.5 129.999 -37.5
c53.333 0 112.333 4.33301 177 13zM97.0039 234l215.001 24c41.333 4.66699 70.666 13 87.999 25s30 33.333 38 64c2.66699 16.667 4.5 31 5.5 43s-1.5 22.167 -7.5 30.5s-12.167 15 -18.5 20s-15.5 8.83301 -27.5 11.5s-23.833 4.5 -35.5 5.5s-25.5 1.5 -41.5 1.5
c-36 0 -64.833 -2.5 -86.5 -7.5s-41.334 -15.167 -59.001 -30.5s-31.667 -37 -42 -65s-19.166 -65.333 -26.499 -112z" />
    <glyph glyph-name="ecircumflex" unicode="&#xea;" horiz-adv-x="529" 
d="M183 564l-14 19l151 120h29l122 -121l-17 -18l-116 102h-9zM425 36l4.00391 -28c-45.333 -13.333 -109.333 -20 -192 -20c-79.333 0 -132.333 19.833 -159 59.5s-33.334 106.167 -20.001 199.5c7.33301 50.667 17.5 92.167 30.5 124.5s30.167 57.5 51.5 75.5
s45.166 30.333 71.499 37s59.5 10 99.5 10c66.667 0 114.167 -11.167 142.5 -33.5s36.166 -61.166 23.499 -116.499c-8.66699 -40.667 -25.167 -69.334 -49.5 -86.001s-63.166 -27.667 -116.499 -33l-218 -23c-6.66699 -69.333 1.66602 -116.5 24.999 -141.5
s66.666 -37.5 129.999 -37.5c53.333 0 112.333 4.33301 177 13zM97.0039 234l215.001 24c41.333 4.66699 70.666 13 87.999 25s30 33.333 38 64c2.66699 16.667 4.5 31 5.5 43s-1.5 22.167 -7.5 30.5s-12.167 15 -18.5 20s-15.5 8.83301 -27.5 11.5s-23.833 4.5 -35.5 5.5
s-25.5 1.5 -41.5 1.5c-36 0 -64.833 -2.5 -86.5 -7.5s-41.334 -15.167 -59.001 -30.5s-31.667 -37 -42 -65s-19.166 -65.333 -26.499 -112z" />
    <glyph glyph-name="edieresis" unicode="&#xeb;" horiz-adv-x="529" 
d="M240 594h-13c-9.33301 0 -13.666 5 -12.999 15l9 54c0.666992 10 6 15 16 15h13c9.33301 0 13.666 -5 12.999 -15l-9 -53c-0.666992 -10.667 -6 -16 -16 -16zM415 594h-13c-9.33301 0 -13.666 5 -12.999 15l9 54c1.33301 10 6.66602 15 15.999 15h13c10 0 14 -5 12 -15
l-8 -53c-0.666992 -10.667 -6 -16 -16 -16zM425 36l4.00391 -28c-45.333 -13.333 -109.333 -20 -192 -20c-79.333 0 -132.333 19.833 -159 59.5s-33.334 106.167 -20.001 199.5c7.33301 50.667 17.5 92.167 30.5 124.5s30.167 57.5 51.5 75.5s45.166 30.333 71.499 37
s59.5 10 99.5 10c66.667 0 114.167 -11.167 142.5 -33.5s36.166 -61.166 23.499 -116.499c-8.66699 -40.667 -25.167 -69.334 -49.5 -86.001s-63.166 -27.667 -116.499 -33l-218 -23c-6.66699 -69.333 1.66602 -116.5 24.999 -141.5s66.666 -37.5 129.999 -37.5
c53.333 0 112.333 4.33301 177 13zM97.0039 234l215.001 24c41.333 4.66699 70.666 13 87.999 25s30 33.333 38 64c2.66699 16.667 4.5 31 5.5 43s-1.5 22.167 -7.5 30.5s-12.167 15 -18.5 20s-15.5 8.83301 -27.5 11.5s-23.833 4.5 -35.5 5.5s-25.5 1.5 -41.5 1.5
c-36 0 -64.833 -2.5 -86.5 -7.5s-41.334 -15.167 -59.001 -30.5s-31.667 -37 -42 -65s-19.166 -65.333 -26.499 -112z" />
    <glyph glyph-name="igrave" unicode="&#xec;" horiz-adv-x="225" 
d="M192 571l-18 -19l-147 137l26 29zM91 0h-39l68 482h40z" />
    <glyph glyph-name="iacute" unicode="&#xed;" horiz-adv-x="225" 
d="M296 688l-181 -136l-17 21l175 146zM91 0h-39l68 482h40z" />
    <glyph glyph-name="icircumflex" unicode="&#xee;" horiz-adv-x="225" 
d="M305 582l-18 -18l-116 102h-8l-146 -102l-14 19l151 120h29zM91 0h-39l68 482h40z" />
    <glyph glyph-name="idieresis" unicode="&#xef;" horiz-adv-x="225" 
d="M72 678h13.999c9.33301 0 13.333 -5 12 -15l-8 -53c-0.666992 -10.667 -6 -16 -16 -16h-13c-9.33301 0 -13.666 5 -12.999 15l8 54c2 10 7.33301 15 16 15zM246.999 678h14c8.66699 0 12.667 -5 12 -15l-8 -53c-0.666992 -10.667 -6.33398 -16 -17.001 -16h-12
c-9.33301 0 -13.666 5 -12.999 15l8 54c2 10 7.33301 15 16 15zM90.999 0h-39l68 482h40z" />
    <glyph glyph-name="eth" unicode="&#xf0;" horiz-adv-x="548" 
d="M482 679l-84.001 -54c70.667 -69.333 94.667 -185 72 -347c-6 -44.667 -13.333 -82.167 -22 -112.5s-21.5 -60.166 -38.5 -89.499s-40.5 -51.333 -70.5 -66s-66.667 -22 -110 -22c-70.667 0 -120.167 18.833 -148.5 56.5s-36.833 97.167 -25.5 178.5
c20.667 149.333 95.334 224 224.001 224c70.667 0 124 -23.667 160 -71c2 104 -22 180.333 -72 229l-99 -64l-12 21l91 60c-42.667 31.333 -102 47 -178 47l8 29c84.667 1.33301 151.667 -17.334 201 -56.001l91 59zM228.999 23c66 0 113.333 21.668 142 65.001
s49 110.333 61 201c2.66699 25.333 4.66699 43.666 6 54.999c-36 45.333 -88.333 68 -157 68c-58 0 -101.333 -17 -130 -51s-47 -82 -55 -144c-10 -70 -4.16699 -119.833 17.5 -149.5s60.167 -44.5 115.5 -44.5z" />
    <glyph glyph-name="ntilde" unicode="&#xf1;" horiz-adv-x="570" 
d="M459 684l22.998 -2.00195c-2.66699 -30.667 -11.667 -54 -27 -70s-35 -23 -59 -21c-24.667 2 -49.667 13 -75 33s-44.666 30.667 -57.999 32c-38 4 -60.667 -17.667 -68 -65l-22 3c2.66699 32.667 11.834 57 27.501 73s35.5 23 59.5 21
c20.667 -2 43.334 -12.833 68.001 -32.5s46 -30.5 64 -32.5c20.667 -1.33301 36.167 2.83398 46.5 12.501s17.166 25.834 20.499 48.501zM146.998 481.998l-13.002 -113.999c99.333 84 181.666 126 246.999 126c42 0 72.833 -11.333 92.5 -34s26.5 -55.667 20.5 -99
l-51 -361h-40l51 355c4.66699 36.667 0.333984 63 -12.999 79s-36.666 24 -69.999 24c-32 0 -66.167 -9.83301 -102.5 -29.5s-81.166 -50.834 -134.499 -93.501l-47 -335h-39l68 482h31z" />
    <glyph glyph-name="ograve" unicode="&#xf2;" 
d="M358 571l-18 -19l-147 137l26 29zM305 494c79.333 0 132.667 -19.334 160 -58.001s34.666 -104.667 21.999 -198c-13.333 -92 -38.333 -156.667 -75 -194s-94 -56 -172 -56c-79.333 0 -132.833 19.333 -160.5 58s-35.167 104.334 -22.5 197.001
c13.333 92 38.333 156.833 75 194.5s94.334 56.5 173.001 56.5zM305.001 457.999c-65.333 0 -113.169 -15.833 -143.502 -47.5s-51.166 -89.167 -62.499 -172.5c-11.333 -81.333 -6.66602 -137.5 14.001 -168.5s63 -46.5 127 -46.5c64.667 0 112.334 16 143.001 48
s51.667 89.333 63 172c11.333 81.333 6.66602 137.5 -14.001 168.5s-63 46.5 -127 46.5z" />
    <glyph glyph-name="oacute" unicode="&#xf3;" 
d="M462 688l-181 -136l-17 21l175 146zM305 494c79.333 0 132.667 -19.334 160 -58.001s34.666 -104.667 21.999 -198c-13.333 -92 -38.333 -156.667 -75 -194s-94 -56 -172 -56c-79.333 0 -132.833 19.333 -160.5 58s-35.167 104.334 -22.5 197.001
c13.333 92 38.333 156.833 75 194.5s94.334 56.5 173.001 56.5zM305.001 457.999c-65.333 0 -113.169 -15.833 -143.502 -47.5s-51.166 -89.167 -62.499 -172.5c-11.333 -81.333 -6.66602 -137.5 14.001 -168.5s63 -46.5 127 -46.5c64.667 0 112.334 16 143.001 48
s51.667 89.333 63 172c11.333 81.333 6.66602 137.5 -14.001 168.5s-63 46.5 -127 46.5z" />
    <glyph glyph-name="ocircumflex" unicode="&#xf4;" 
d="M471 582l-18 -18l-116 102h-8l-146 -102l-14 19l151 120h29zM305 494c79.333 0 132.667 -19.334 160 -58.001s34.666 -104.667 21.999 -198c-13.333 -92 -38.333 -156.667 -75 -194s-94 -56 -172 -56c-79.333 0 -132.833 19.333 -160.5 58s-35.167 104.334 -22.5 197.001
c13.333 92 38.333 156.833 75 194.5s94.334 56.5 173.001 56.5zM305.001 457.999c-65.333 0 -113.169 -15.833 -143.502 -47.5s-51.166 -89.167 -62.499 -172.5c-11.333 -81.333 -6.66602 -137.5 14.001 -168.5s63 -46.5 127 -46.5c64.667 0 112.334 16 143.001 48
s51.667 89.333 63 172c11.333 81.333 6.66602 137.5 -14.001 168.5s-63 46.5 -127 46.5z" />
    <glyph glyph-name="otilde" unicode="&#xf5;" 
d="M195 591l-23 3.00098c2.66699 32 12 56.167 28 72.5s35.667 23.5 59 21.5c20.667 -2 43.5 -12.833 68.5 -32.5s46.5 -30.5 64.5 -32.5c38.667 -2.66699 61 17.666 67 60.999l23 -2c-2.66699 -30.667 -11.667 -54 -27 -70s-35 -23 -59 -21c-24.667 2 -49.667 13 -75 33
s-44.666 30.667 -57.999 32c-20.667 2 -36.334 -2.33301 -47.001 -13s-17.667 -28 -21 -52zM305 494.001c79.333 0 132.667 -19.334 160 -58.001s34.666 -104.667 21.999 -198c-13.333 -92 -38.333 -156.667 -75 -194s-94 -56 -172 -56c-79.333 0 -132.833 19.333 -160.5 58
s-35.167 104.334 -22.5 197.001c13.333 92 38.333 156.833 75 194.5s94.334 56.5 173.001 56.5zM305.001 458c-65.333 0 -113.169 -15.833 -143.502 -47.5s-51.166 -89.167 -62.499 -172.5c-11.333 -81.333 -6.66602 -137.5 14.001 -168.5s63 -46.5 127 -46.5
c64.667 0 112.334 16 143.001 48s51.667 89.333 63 172c11.333 81.333 6.66602 137.5 -14.001 168.5s-63 46.5 -127 46.5z" />
    <glyph glyph-name="odieresis" unicode="&#xf6;" 
d="M238 678h13.999c9.33301 0 13.333 -5 12 -15l-8 -53c-0.666992 -10.667 -6 -16 -16 -16h-13c-9.33301 0 -13.666 5 -12.999 15l8 54c2 10 7.33301 15 16 15zM412.999 678h14c8.66699 0 12.667 -5 12 -15l-8 -53c-0.666992 -10.667 -6.33398 -16 -17.001 -16h-12
c-9.33301 0 -13.666 5 -12.999 15l8 54c2 10 7.33301 15 16 15zM304.999 494c79.333 0 132.667 -19.334 160 -58.001s34.666 -104.667 21.999 -198c-13.333 -92 -38.333 -156.667 -75 -194s-94 -56 -172 -56c-79.333 0 -132.833 19.333 -160.5 58
s-35.167 104.334 -22.5 197.001c13.333 92 38.333 156.833 75 194.5s94.334 56.5 173.001 56.5zM305 457.999c-65.333 0 -113.169 -15.833 -143.502 -47.5s-51.166 -89.167 -62.499 -172.5c-11.333 -81.333 -6.66602 -137.5 14.001 -168.5s63 -46.5 127 -46.5
c64.667 0 112.334 16 143.001 48s51.667 89.333 63 172c11.333 81.333 6.66602 137.5 -14.001 168.5s-63 46.5 -127 46.5z" />
    <glyph glyph-name="divide" unicode="&#xf7;" horiz-adv-x="583" 
d="M313 508h13c12.667 -0.666992 18 -6.66699 16 -18l-8 -59c-2 -10.667 -8.33301 -16 -19 -16h-13c-12 0 -17.333 6 -16 18l9 58c1.33301 11.333 7.33301 17 18 17zM501 279h-422l4 33h423zM267 175h13.999c12 0 17 -6 15 -18l-9 -59c-0.666992 -10 -6.66699 -15 -18 -15
h-13c-11.333 0 -16.666 6 -15.999 18l9 57c0.666992 11.333 6.66699 17 18 17z" />
    <glyph glyph-name="oslash" unicode="&#xf8;" 
d="M469 533l-39.0039 -64.999c54.667 -32.667 73.667 -109.334 57 -230.001c-13.333 -92 -38.333 -156.667 -75 -194s-94 -56 -172 -56c-37.333 0 -68.666 4 -93.999 12l-40 -65l-23 13l38 62c-31.333 16.667 -52.166 43.667 -62.499 81s-10.833 88 -1.5 152
c13.333 92 38.333 156.833 75 194.5s94.334 56.5 173.001 56.5c40.667 0 74.334 -5 101.001 -15l40 66zM140.996 43.001l244.999 404c-19.333 7.33301 -46.333 11 -81 11c-65.333 0 -113.166 -15.833 -143.499 -47.5s-51.166 -89.167 -62.499 -172.5
c-8 -54.667 -8.83301 -97.5 -2.5 -128.5s21.166 -53.167 44.499 -66.5zM409.995 435.001l-245 -403c20.667 -6 45.667 -9 75 -9c64.667 0 112.334 16 143.001 48s51.667 89.333 63 172c7.33301 52 8.16602 93.5 2.49902 124.5s-18.5 53.5 -38.5 67.5z" />
    <glyph glyph-name="ugrave" unicode="&#xf9;" 
d="M338 553l-147 137l26 29l139 -147zM497 482l-67.9971 -482h-30l13 121c-88.667 -88.667 -167.667 -133 -237 -133c-43.333 0 -74.833 11.333 -94.5 34s-26.167 55.667 -19.5 99l51 361h40l-51 -355c-4.66699 -36 -0.333984 -62.167 12.999 -78.5s37 -24.5 71 -24.5
c33.333 0 67.166 10.5 101.499 31.5s76.166 54.833 125.499 101.5l46 325h39z" />
    <glyph glyph-name="uacute" unicode="&#xfa;" 
d="M279 553l-17 21l175 146l23 -31zM497 482l-67.9971 -482h-30l13 121c-88.667 -88.667 -167.667 -133 -237 -133c-43.333 0 -74.833 11.333 -94.5 34s-26.167 55.667 -19.5 99l51 361h40l-51 -355c-4.66699 -36 -0.333984 -62.167 12.999 -78.5s37 -24.5 71 -24.5
c33.333 0 67.166 10.5 101.499 31.5s76.166 54.833 125.499 101.5l46 325h39z" />
    <glyph glyph-name="ucircumflex" unicode="&#xfb;" 
d="M181 565l-14 19l151 120h29l122 -121l-17 -18l-117 102h-8zM497 482l-67.9971 -482h-30l13 121c-88.667 -88.667 -167.667 -133 -237 -133c-43.333 0 -74.833 11.333 -94.5 34s-26.167 55.667 -19.5 99l51 361h40l-51 -355c-4.66699 -36 -0.333984 -62.167 12.999 -78.5
s37 -24.5 71 -24.5c33.333 0 67.166 10.5 101.499 31.5s76.166 54.833 125.499 101.5l46 325h39z" />
    <glyph glyph-name="udieresis" unicode="&#xfc;" 
d="M238 595h-13.001c-9.33301 0 -13.666 5 -12.999 15l8 54c2 10 7.33301 15 16 15h14c10 0 14 -5 12 -15l-8 -53c-0.666992 -10.667 -6 -16 -16 -16zM412.999 595h-13.001c-9.33301 0 -13.666 5 -12.999 15l8 54c2 10 7.33301 15 16 15h14c8.66699 0 12.667 -5 12 -15
l-8 -53c-0.666992 -10.667 -6 -16 -16 -16zM496.998 482l-67.9971 -482h-30l13 121c-88.667 -88.667 -167.667 -133 -237 -133c-43.333 0 -74.833 11.333 -94.5 34s-26.167 55.667 -19.5 99l51 361h40l-51 -355c-4.66699 -36 -0.333984 -62.167 12.999 -78.5
s37 -24.5 71 -24.5c33.333 0 67.166 10.5 101.499 31.5s76.166 54.833 125.499 101.5l46 325h39z" />
    <glyph glyph-name="yacute" unicode="&#xfd;" horiz-adv-x="518" 
d="M248 552l-17 21l175 146l23 -31zM455 482l41.0039 0.00195312c-38.667 -152 -97.334 -291.333 -176.001 -418c-52.667 -86.667 -99.334 -151.167 -140.001 -193.5s-85.667 -68.833 -135 -79.5l-7 27c36 11.333 69.667 31.5 101 60.5s64 69.5 98 121.5h-38
c-12.667 0 -23.334 3.66699 -32.001 11s-14.334 16.666 -17.001 27.999l-97 443h42l89 -425c4.66699 -16.667 14.667 -24.334 30 -23.001h44l25 40c74 122 131.333 258 172 408z" />
    <glyph glyph-name="thorn" unicode="&#xfe;" horiz-adv-x="566" 
d="M187 700l-33.999 -239.999c-6 -44 -11.333 -75.333 -16 -94c36 40.667 75.333 72.167 118 94.5s82 33.5 118 33.5c58 0 95.167 -19.5 111.5 -58.5s17.5 -104.833 3.5 -197.5c-14.667 -101.333 -38.667 -168.333 -72 -201s-91.333 -49 -174 -49
c-48.667 0 -100.334 3.66699 -155.001 11c-0.666992 -8.66699 -4 -37.334 -10 -86.001l-18 -121h-39l127 908h40zM134.001 326.001l-40.999 -297c58.667 -4 105 -6 139 -6c76.667 0 128.5 13.667 155.5 41s47.167 87 60.5 179c12.667 78 13.667 133.333 3 166
s-38.334 49 -83.001 49c-33.333 0 -70.833 -11.5 -112.5 -34.5s-82.167 -55.5 -121.5 -97.5z" />
    <glyph glyph-name="ydieresis" unicode="&#xff;" horiz-adv-x="518" 
d="M206 594h-12c-9.33301 0 -13.666 5 -12.999 15l8 54c0.666992 10 6 15 16 15h14c8.66699 0 12.667 -5 12 -15l-8 -53c-0.666992 -10.667 -6.33398 -16 -17.001 -16zM381 594h-11.999c-9.33301 0 -13.666 5 -12.999 15l8 54c1.33301 10 6.66602 15 15.999 15h14
c9.33301 0 13.333 -5 12 -15l-8 -53c-0.666992 -10.667 -6.33398 -16 -17.001 -16zM455.001 482l41.0039 0.00195312c-38.667 -152 -97.334 -291.333 -176.001 -418c-52.667 -86.667 -99.334 -151.167 -140.001 -193.5s-85.667 -68.833 -135 -79.5l-7 27
c36 11.333 69.667 31.5 101 60.5s64 69.5 98 121.5h-38c-12.667 0 -23.334 3.66699 -32.001 11s-14.334 16.666 -17.001 27.999l-97 443h42l89 -425c4.66699 -16.667 14.667 -24.334 30 -23.001h44l25 40c74 122 131.333 258 172 408z" />
    <glyph glyph-name="Amacron" unicode="&#x100;" horiz-adv-x="604" 
d="M509 799h-265l4 34h265zM458 242h-318l-119 -242h-45l337 678c2.66699 8 8.66699 12 18 12h56c10 0 15.667 -4.66699 17 -14l146 -676h-42zM450 279l-66.999 320.999c-0.666992 4.66699 -2.33398 13.334 -5.00098 26.001s-4.66699 22.667 -6 30h-30l-27 -57l-158 -320
h293z" />
    <glyph glyph-name="amacron" unicode="&#x101;" horiz-adv-x="566" 
d="M467 618h-265l5 33h264zM437 0h-30.999l13 118c-36 -40.667 -75.667 -72.5 -119 -95.5s-83 -34.5 -119 -34.5c-58.667 0 -96.334 19.667 -113.001 59s-17.667 105 -3 197c16 101.333 40.5 168.333 73.5 201s91.167 49 174.5 49c56 0 119.667 -5 191 -15zM419.001 156
l41.001 297c-76 4 -122.333 6 -139 6c-76.667 0 -128.334 -13.667 -155.001 -41s-47 -87 -61 -179c-13.333 -78 -14.5 -133.333 -3.5 -166s38.833 -49 83.5 -49c33.333 0 70.833 11.5 112.5 34.5s82.167 55.5 121.5 97.5z" />
    <glyph glyph-name="Abreve" unicode="&#x102;" horiz-adv-x="604" 
d="M501 877l24.0029 -6.99902c-4.66699 -36.667 -20.667 -65.334 -48 -86.001s-62.333 -31 -105 -31c-44.667 0 -78.334 10.833 -101.001 32.5s-31 50.5 -25 86.5l24 3c-4 -28 3.16699 -49.667 21.5 -65s45.166 -23 80.499 -23c36 0 65.667 8 89 24s36.666 38 39.999 66z
M458.003 242.001h-318l-119 -242h-45l337 678c2.66699 8 8.66699 12 18 12h56c10 0 15.667 -4.66699 17 -14l146 -676h-42zM450.003 279.001l-66.999 320.999c-0.666992 4.66699 -2.33398 13.334 -5.00098 26.001s-4.66699 22.667 -6 30h-30l-27 -57l-158 -320h293z" />
    <glyph glyph-name="abreve" unicode="&#x103;" horiz-adv-x="566" 
d="M459 696l24.0049 -8.00098c-4.66699 -36 -20.5 -64.5 -47.5 -85.5s-61.833 -31.5 -104.5 -31.5c-44.667 0 -78.334 10.833 -101.001 32.5s-31.334 50.834 -26.001 87.501l25 2c-4.66699 -28 2.16602 -49.667 20.499 -65s45.166 -23 80.499 -23
c36 0 65.667 8.16699 89 24.5s36.666 38.5 39.999 66.5zM437.005 -0.000976562h-30.999l13 118c-36 -40.667 -75.667 -72.5 -119 -95.5s-83 -34.5 -119 -34.5c-58.667 0 -96.334 19.667 -113.001 59s-17.667 105 -3 197c16 101.333 40.5 168.333 73.5 201
s91.167 49 174.5 49c56 0 119.667 -5 191 -15zM419.006 155.999l41.001 297c-76 4 -122.333 6 -139 6c-76.667 0 -128.334 -13.667 -155.001 -41s-47 -87 -61 -179c-13.333 -78 -14.5 -133.333 -3.5 -166s38.833 -49 83.5 -49c33.333 0 70.833 11.5 112.5 34.5
s82.167 55.5 121.5 97.5z" />
    <glyph glyph-name="Aogonek" unicode="&#x104;" horiz-adv-x="604" 
d="M404 676l145.999 -676c-46.667 -42.667 -80 -84.334 -100 -125.001c-14.667 -28.667 -14.5 -47.5 0.5 -56.5s41.5 -7.16699 79.5 5.5l5 -18c-56.667 -21.333 -95 -23.666 -115 -6.99902s-20.667 43.667 -2 81c18.667 38.667 54.334 78.667 107.001 120h-17l-50 242h-318
l-119 -242h-45l337 678c2.66699 8 8.66699 12 18 12h56c10 0 15.667 -4.66699 17 -14zM449.999 279l-66.999 320.999c-0.666992 4.66699 -2.33398 13.334 -5.00098 26.001s-4.66699 22.667 -6 30h-30l-27 -57l-158 -320h293z" />
    <glyph glyph-name="aogonek" unicode="&#x105;" horiz-adv-x="566" 
d="M504 479l-66.999 -479.001c-46.667 -42 -80.334 -83.667 -101.001 -125c-14.667 -28.667 -14.5 -47.5 0.5 -56.5s41.5 -7.16699 79.5 5.5l5 -18c-56.667 -21.333 -95 -23.666 -115 -6.99902s-20.667 43.667 -2 81c20.667 40.667 56.334 80.667 107.001 120h-5l13 118
c-36 -40.667 -75.667 -72.5 -119 -95.5s-83 -34.5 -119 -34.5c-58.667 0 -96.334 19.667 -113.001 59s-17.667 105 -3 197c16 101.333 40.5 168.333 73.5 201s91.167 49 174.5 49c56 0 119.667 -5 191 -15zM419.001 155.999l41.001 297c-76 4 -122.333 6 -139 6
c-76.667 0 -128.334 -13.667 -155.001 -41s-47 -87 -61 -179c-13.333 -78 -14.5 -133.333 -3.5 -166s38.833 -49 83.5 -49c33.333 0 70.833 11.5 112.5 34.5s82.167 55.5 121.5 97.5z" />
    <glyph glyph-name="Cacute" unicode="&#x106;" 
d="M530 870l-181 -136l-17 21l175 146zM478 38l5 -30.999c-54.667 -12.667 -118.667 -19 -192 -19c-96 0 -160 27.167 -192 81.5s-38.667 146.833 -20 277.5c18.667 131.333 50.667 223.333 96 276s115.333 79 210 79c70 0 129 -6 177 -18l-9 -30
c-51.333 7.33301 -107 11 -167 11c-83.333 0 -144 -23.333 -182 -70s-65.667 -130.667 -83 -252c-16.667 -118.667 -12.667 -201.334 12 -248.001s77 -70 157 -70c73.333 0 136 4.33301 188 13z" />
    <glyph glyph-name="cacute" unicode="&#x107;" horiz-adv-x="477" 
d="M447 688l-181 -136l-17 21l175 146zM395 35l3.99902 -28.001c-49.333 -12.667 -100 -19 -152 -19c-82 0 -137.333 19.333 -166 58s-36.667 104.334 -24 197.001c12.667 92 38.334 156.833 77.001 194.5s98 56.5 178 56.5c55.333 0 101.666 -6.33301 138.999 -19l-8 -27
c-30 6.66699 -71.333 10 -124 10c-70.667 0 -122.167 -15.5 -154.5 -46.5s-54.166 -88.5 -65.499 -172.5c-12 -83.333 -6.66699 -140 16 -170s68.667 -45 138 -45c56.667 0 104 3.66699 142 11z" />
    <glyph glyph-name="Cdotaccent" unicode="&#x10a;" 
d="M392 862h16.001c10.667 0 15 -5.66699 13 -17l-8 -59c-0.666992 -10.667 -6.33398 -16 -17.001 -16h-14c-11.333 0 -16 5.66699 -14 17l8 59c0.666992 10.667 6 16 16 16zM478.001 38l5 -30.999c-54.667 -12.667 -118.667 -19 -192 -19c-96 0 -160 27.167 -192 81.5
s-38.667 146.833 -20 277.5c18.667 131.333 50.667 223.333 96 276s115.333 79 210 79c70 0 129 -6 177 -18l-9 -30c-51.333 7.33301 -107 11 -167 11c-83.333 0 -144 -23.333 -182 -70s-65.667 -130.667 -83 -252c-16.667 -118.667 -12.667 -201.334 12 -248.001
s77 -70 157 -70c73.333 0 136 4.33301 188 13z" />
    <glyph glyph-name="cdotaccent" unicode="&#x10b;" horiz-adv-x="477" 
d="M310 680h14.999c10 0 14.667 -5.33301 14 -16l-8 -59c-2 -10.667 -8 -16 -18 -16h-13c-11.333 0 -16.333 5.33301 -15 16l8 59c0.666992 10.667 6.33398 16 17.001 16zM394.999 35l3.99902 -28.001c-49.333 -12.667 -100 -19 -152 -19c-82 0 -137.333 19.333 -166 58
s-36.667 104.334 -24 197.001c12.667 92 38.334 156.833 77.001 194.5s98 56.5 178 56.5c55.333 0 101.666 -6.33301 138.999 -19l-8 -27c-30 6.66699 -71.333 10 -124 10c-70.667 0 -122.167 -15.5 -154.5 -46.5s-54.166 -88.5 -65.499 -172.5
c-12 -83.333 -6.66699 -140 16 -170s68.667 -45 138 -45c56.667 0 104 3.66699 142 11z" />
    <glyph glyph-name="Ccaron" unicode="&#x10c;" 
d="M553 869l-153 -120h-29l-119 121l17 17l115 -101h8l146 101zM478 38l5 -30.999c-54.667 -12.667 -118.667 -19 -192 -19c-96 0 -160 27.167 -192 81.5s-38.667 146.833 -20 277.5c18.667 131.333 50.667 223.333 96 276s115.333 79 210 79c70 0 129 -6 177 -18l-9 -30
c-51.333 7.33301 -107 11 -167 11c-83.333 0 -144 -23.333 -182 -70s-65.667 -130.667 -83 -252c-16.667 -118.667 -12.667 -201.334 12 -248.001s77 -70 157 -70c73.333 0 136 4.33301 188 13z" />
    <glyph glyph-name="ccaron" unicode="&#x10d;" horiz-adv-x="477" 
d="M471 687l-153 -119h-29l-120 121l17 17l116 -102h8l146 102zM395 35l3.99902 -28.001c-49.333 -12.667 -100 -19 -152 -19c-82 0 -137.333 19.333 -166 58s-36.667 104.334 -24 197.001c12.667 92 38.334 156.833 77.001 194.5s98 56.5 178 56.5
c55.333 0 101.666 -6.33301 138.999 -19l-8 -27c-30 6.66699 -71.333 10 -124 10c-70.667 0 -122.167 -15.5 -154.5 -46.5s-54.166 -88.5 -65.499 -172.5c-12 -83.333 -6.66699 -140 16 -170s68.667 -45 138 -45c56.667 0 104 3.66699 142 11z" />
    <glyph glyph-name="Dcaron" unicode="&#x10e;" horiz-adv-x="659" 
d="M366 749l-120 121l17 17l116 -101h8l146 101l15 -18l-153 -120h-29zM58 0l96.999 690c80.667 6 156.667 9 228 9c96 0 159.833 -26.5 191.5 -79.5s38.5 -145.167 20.5 -276.5c-18.667 -134.667 -50.5 -227 -95.5 -277s-115.833 -75 -212.5 -75
c-71.333 0 -147.666 3 -228.999 9zM191.999 659l-89.001 -627.999c56 -2 117 -3 183 -3c83.333 0 144.333 22.667 183 68s66.667 129 84 251c16.667 119.333 12.5 201.666 -12.5 246.999s-77.833 68 -158.5 68c-69.333 0 -132.666 -1 -189.999 -3z" />
    <glyph glyph-name="dcaron" unicode="&#x10f;" horiz-adv-x="565" 
d="M634 700h14c8.66699 0 12.667 -4.66699 12 -14l-9 -59c-5.33301 -36 -18 -75.333 -38 -118l-20 6c10.667 34.667 18.667 68.667 24 102c-8 0 -11.333 4.33301 -10 13l9 56c1.33301 5.33301 3 9 5 11s6.33301 3 13 3zM494 700h39.9971l-99 -700h-31l12 119
c-79.333 -87.333 -161.333 -131 -246 -131c-53.333 0 -87.666 20.333 -102.999 61s-16.666 105.667 -3.99902 195c14.667 100.667 38.834 167.5 72.501 200.5s91.834 49.5 174.501 49.5c49.333 0 101.666 -3.66699 156.999 -11c0.666992 25.333 3.66699 56.333 9 93z
M417.997 156l41 298c-64.667 3.33301 -111 5 -139 5c-77.333 0 -129.5 -13.667 -156.5 -41s-47.167 -87 -60.5 -179c-12 -74 -13 -128.333 -3 -163s36 -52 78 -52c75.333 0 155.333 44 240 132z" />
    <glyph glyph-name="Dcroat" unicode="&#x110;" horiz-adv-x="659" 
d="M112 384l42.999 306c80.667 6 156.667 9 228 9c96 0 159.833 -26.5 191.5 -79.5s38.5 -145.167 20.5 -276.5c-18.667 -134.667 -50.5 -227 -95.5 -277s-115.833 -75 -212.5 -75c-71.333 0 -147.666 3 -228.999 9l50 356h-79l4 28h79zM148.999 356l-46.001 -324.999
c56 -2 117 -3 183 -3c83.333 0 144.333 22.667 183 68s66.667 129 84 251c16.667 119.333 12.5 201.666 -12.5 246.999s-77.833 68 -158.5 68c-69.333 0 -132.666 -1 -189.999 -3l-39 -275h173l-3 -28h-174z" />
    <glyph glyph-name="dcroat" unicode="&#x111;" horiz-adv-x="565" 
d="M594 586h-76.0029l-83 -586h-31l12 119c-79.333 -87.333 -161.333 -131 -246 -131c-53.333 0 -87.666 20.333 -102.999 61s-16.666 105.667 -3.99902 195c14.667 100.667 38.834 167.5 72.501 200.5s91.834 49.5 174.501 49.5c49.333 0 101.666 -3.66699 156.999 -11
c0.666992 25.333 3.66699 56.333 9 93l2 10h-167l4 28h167l12 86h40l-12 -86h76zM417.997 156l41 298c-64.667 3.33301 -111 5 -139 5c-77.333 0 -129.5 -13.667 -156.5 -41s-47.167 -87 -60.5 -179c-12 -74 -13 -128.333 -3 -163s36 -52 78 -52
c75.333 0 155.333 44 240 132z" />
    <glyph glyph-name="Emacron" unicode="&#x112;" horiz-adv-x="551" 
d="M509 823h-265l5 34h265zM545 655h-283c-52 0 -81.667 -26.667 -89 -80l-27 -190h321l-5 -33h-320l-33 -240c-3.33301 -23.333 0.833984 -42 12.501 -56s29.167 -21 52.5 -21h284v-31c-64 -2.66699 -161 -4 -291 -4c-34.667 -0 -61.334 10.333 -80.001 31
s-25.334 47.667 -20.001 81l66 473c4.66699 32 17.667 57.5 39 76.5s49 28.5 83 28.5c132.667 0 231.334 -1.33301 296.001 -4z" />
    <glyph glyph-name="emacron" unicode="&#x113;" horiz-adv-x="529" 
d="M457 618h-265l5 33h265zM425 36l4.00391 -28c-45.333 -13.333 -109.333 -20 -192 -20c-79.333 0 -132.333 19.833 -159 59.5s-33.334 106.167 -20.001 199.5c7.33301 50.667 17.5 92.167 30.5 124.5s30.167 57.5 51.5 75.5s45.166 30.333 71.499 37s59.5 10 99.5 10
c66.667 0 114.167 -11.167 142.5 -33.5s36.166 -61.166 23.499 -116.499c-8.66699 -40.667 -25.167 -69.334 -49.5 -86.001s-63.166 -27.667 -116.499 -33l-218 -23c-6.66699 -69.333 1.66602 -116.5 24.999 -141.5s66.666 -37.5 129.999 -37.5
c53.333 0 112.333 4.33301 177 13zM97.0039 234l215.001 24c41.333 4.66699 70.666 13 87.999 25s30 33.333 38 64c2.66699 16.667 4.5 31 5.5 43s-1.5 22.167 -7.5 30.5s-12.167 15 -18.5 20s-15.5 8.83301 -27.5 11.5s-23.833 4.5 -35.5 5.5s-25.5 1.5 -41.5 1.5
c-36 0 -64.833 -2.5 -86.5 -7.5s-41.334 -15.167 -59.001 -30.5s-31.667 -37 -42 -65s-19.166 -65.333 -26.499 -112z" />
    <glyph glyph-name="Edotaccent" unicode="&#x116;" horiz-adv-x="551" 
d="M381 794h-13.999c-11.333 0 -16 5.66699 -14 17l7 59c2 10.667 7.66699 16 17 16h15c11.333 0 16 -5.66699 14 -17l-8 -59c-0.666992 -10.667 -6.33398 -16 -17.001 -16zM545.001 655h-283c-52 0 -81.667 -26.667 -89 -80l-27 -190h321l-5 -33h-320l-33 -240
c-3.33301 -23.333 0.833984 -42 12.501 -56s29.167 -21 52.5 -21h284v-31c-64 -2.66699 -161 -4 -291 -4c-34.667 -0 -61.334 10.333 -80.001 31s-25.334 47.667 -20.001 81l66 473c4.66699 32 17.667 57.5 39 76.5s49 28.5 83 28.5c132.667 0 231.334 -1.33301 296.001 -4z
" />
    <glyph glyph-name="edotaccent" unicode="&#x117;" horiz-adv-x="529" 
d="M329 589h-13.999c-11.333 0 -16 5.33301 -14 16l7 59c2 10.667 7.66699 16 17 16h15c10 0 14.667 -5.33301 14 -16l-8 -59c-0.666992 -10.667 -6.33398 -16 -17.001 -16zM425.001 36l4.00391 -28c-45.333 -13.333 -109.333 -20 -192 -20
c-79.333 0 -132.333 19.833 -159 59.5s-33.334 106.167 -20.001 199.5c7.33301 50.667 17.5 92.167 30.5 124.5s30.167 57.5 51.5 75.5s45.166 30.333 71.499 37s59.5 10 99.5 10c66.667 0 114.167 -11.167 142.5 -33.5s36.166 -61.166 23.499 -116.499
c-8.66699 -40.667 -25.167 -69.334 -49.5 -86.001s-63.166 -27.667 -116.499 -33l-218 -23c-6.66699 -69.333 1.66602 -116.5 24.999 -141.5s66.666 -37.5 129.999 -37.5c53.333 0 112.333 4.33301 177 13zM97.0049 234l215.001 24c41.333 4.66699 70.666 13 87.999 25
s30 33.333 38 64c2.66699 16.667 4.5 31 5.5 43s-1.5 22.167 -7.5 30.5s-12.167 15 -18.5 20s-15.5 8.83301 -27.5 11.5s-23.833 4.5 -35.5 5.5s-25.5 1.5 -41.5 1.5c-36 0 -64.833 -2.5 -86.5 -7.5s-41.334 -15.167 -59.001 -30.5s-31.667 -37 -42 -65
s-19.166 -65.333 -26.499 -112z" />
    <glyph glyph-name="Eogonek" unicode="&#x118;" horiz-adv-x="551" 
d="M545 655h-282.999c-52 0 -81.667 -26.667 -89 -80l-27 -190h321l-5 -33h-320l-33 -240c-3.33301 -23.333 0.833984 -42 12.501 -56s29.167 -21 52.5 -21h284v-31c-46.667 -42 -80.334 -83.667 -101.001 -125c-14.667 -28.667 -14.5 -47.5 0.5 -56.5
s41.833 -6.83301 80.5 6.5l4 -19c-56 -21.333 -94 -23.5 -114 -6.5s-21 43.833 -3 80.5c20.667 40 55.667 79.667 105 119c-58 -2 -145.667 -3 -263 -3c-34.667 -0 -61.334 10.333 -80.001 31s-25.334 47.667 -20.001 81l66 473c4.66699 32 17.667 57.5 39 76.5
s49 28.5 83 28.5c132.667 0 231.334 -1.33301 296.001 -4z" />
    <glyph glyph-name="eogonek" unicode="&#x119;" horiz-adv-x="529" 
d="M408 -167l5.00391 -19c-56 -21.333 -94.167 -23.5 -114.5 -6.5s-21.166 43.833 -2.49902 80.5c20 38 52.333 75.333 97 112c-54 -8 -106 -12 -156 -12c-79.333 0 -132.333 19.833 -159 59.5s-33.334 106.167 -20.001 199.5c7.33301 50.667 17.5 92.167 30.5 124.5
s30.167 57.5 51.5 75.5s45.166 30.333 71.499 37s59.5 10 99.5 10c66.667 0 114.167 -11.167 142.5 -33.5s36.166 -61.166 23.499 -116.499c-8.66699 -40.667 -25.167 -69.334 -49.5 -86.001s-63.166 -27.667 -116.499 -33l-218 -23
c-6.66699 -69.333 1.66602 -116.5 24.999 -141.5s66.666 -37.5 129.999 -37.5c53.333 0 112.333 4.33301 177 13l4 -28c-46.667 -42 -80.334 -83.667 -101.001 -125c-14.667 -28.667 -14.5 -47.5 0.5 -56.5s41.5 -6.83301 79.5 6.5zM97.0039 234l215.001 24
c41.333 4.66699 70.666 13 87.999 25s30 33.333 38 64c2.66699 16.667 4.5 31 5.5 43s-1.5 22.167 -7.5 30.5s-12.167 15 -18.5 20s-15.5 8.83301 -27.5 11.5s-23.833 4.5 -35.5 5.5s-25.5 1.5 -41.5 1.5c-36 0 -64.833 -2.5 -86.5 -7.5s-41.334 -15.167 -59.001 -30.5
s-31.667 -37 -42 -65s-19.166 -65.333 -26.499 -112z" />
    <glyph glyph-name="Ecaron" unicode="&#x11a;" horiz-adv-x="551" 
d="M356 773l-119 121l17 17l115 -101h8l146 101l15 -18l-153 -120h-29zM545 655h-283c-52 0 -81.667 -26.667 -89 -80l-27 -190h321l-5 -33h-320l-33 -240c-3.33301 -23.333 0.833984 -42 12.501 -56s29.167 -21 52.5 -21h284v-31c-64 -2.66699 -161 -4 -291 -4
c-34.667 -0 -61.334 10.333 -80.001 31s-25.334 47.667 -20.001 81l66 473c4.66699 32 17.667 57.5 39 76.5s49 28.5 83 28.5c132.667 0 231.334 -1.33301 296.001 -4z" />
    <glyph glyph-name="ecaron" unicode="&#x11b;" horiz-adv-x="529" 
d="M304 568l-119 121l17 17l115 -102h8l146 102l15 -19l-153 -119h-29zM425 36l4.00391 -28c-45.333 -13.333 -109.333 -20 -192 -20c-79.333 0 -132.333 19.833 -159 59.5s-33.334 106.167 -20.001 199.5c7.33301 50.667 17.5 92.167 30.5 124.5s30.167 57.5 51.5 75.5
s45.166 30.333 71.499 37s59.5 10 99.5 10c66.667 0 114.167 -11.167 142.5 -33.5s36.166 -61.166 23.499 -116.499c-8.66699 -40.667 -25.167 -69.334 -49.5 -86.001s-63.166 -27.667 -116.499 -33l-218 -23c-6.66699 -69.333 1.66602 -116.5 24.999 -141.5
s66.666 -37.5 129.999 -37.5c53.333 0 112.333 4.33301 177 13zM97.0039 234l215.001 24c41.333 4.66699 70.666 13 87.999 25s30 33.333 38 64c2.66699 16.667 4.5 31 5.5 43s-1.5 22.167 -7.5 30.5s-12.167 15 -18.5 20s-15.5 8.83301 -27.5 11.5s-23.833 4.5 -35.5 5.5
s-25.5 1.5 -41.5 1.5c-36 0 -64.833 -2.5 -86.5 -7.5s-41.334 -15.167 -59.001 -30.5s-31.667 -37 -42 -65s-19.166 -65.333 -26.499 -112z" />
    <glyph glyph-name="Gbreve" unicode="&#x11e;" horiz-adv-x="621" 
d="M529 877l23.0029 -6.99902c-4.66699 -36.667 -20.5 -65.334 -47.5 -86.001s-61.833 -31 -104.5 -31c-44.667 0 -78.334 10.833 -101.001 32.5s-31.334 50.5 -26.001 86.5l25 3c-4 -28 3.16699 -49.667 21.5 -65s45.166 -23 80.499 -23c36 0 65.5 8 88.5 24
s36.5 38 40.5 66zM586.003 684.001l-8.99707 -30c-56.667 7.33301 -118 11 -184 11c-87.333 0 -150.333 -23 -189 -69s-66.334 -130.333 -83.001 -253c-14.667 -116 -11.334 -198 9.99902 -246s65.666 -72 132.999 -72c38.667 0 74.667 10 108 30s70.666 49 111.999 87
l36 258h40l-57 -400h-29l8 104c-72 -77.333 -147.333 -116 -226 -116c-79.333 0 -132.666 28 -159.999 84s-33.333 147.667 -18 275c18 132.667 50.5 225 97.5 277s118.5 78 214.5 78c76 0 141.333 -6 196 -18z" />
    <glyph glyph-name="gbreve" unicode="&#x11f;" horiz-adv-x="571" 
d="M461 696l24.0029 -8.00098c-4.66699 -36 -20.667 -64.5 -48 -85.5s-62.333 -31.5 -105 -31.5c-44.667 0 -78.334 10.833 -101.001 32.5s-31 50.834 -25 87.501l24 2c-4 -28 3.16699 -49.667 21.5 -65s45.166 -23 80.499 -23c36 0 65.667 8.16699 89 24.5
s36.666 38.5 39.999 66.5zM511.003 478.999l-73.999 -481.001c-20 -134 -97.667 -206 -233 -216c-62 -4.66699 -123.333 -2.66699 -184 6l5 28c63.333 -3.33301 121 -3 173 1c57.333 5.33301 102.5 22.166 135.5 50.499s54.167 70.833 63.5 127.5
c12 68.667 21.667 112.334 29 131.001c-36.667 -43.333 -77.334 -77.166 -122.001 -101.499s-86 -36.5 -124 -36.5c-57.333 0 -94.333 19.667 -111 59s-18 105 -4 197c16 101.333 40.5 168.333 73.5 201s90.5 49 172.5 49c57.333 0 122 -5 194 -15h6zM421.004 156.998
l46.001 296c-81.333 4 -130 6 -146 6c-76.667 0 -128.167 -13.5 -154.5 -40.5s-46.833 -86.833 -61.5 -179.5c-13.333 -77.333 -14.5 -132.5 -3.5 -165.5s39.167 -49.5 84.5 -49.5c32.667 0 70.167 11.667 112.5 35s83.166 56 122.499 98z" />
    <glyph glyph-name="Gdotaccent" unicode="&#x120;" horiz-adv-x="621" 
d="M408 770h-13.999c-11.333 0 -16 5.66699 -14 17l7 59c2 10.667 7.66699 16 17 16h15c11.333 0 16 -5.66699 14 -17l-8 -59c-0.666992 -10.667 -6.33398 -16 -17.001 -16zM586.001 684l-8.99707 -30c-56.667 7.33301 -118 11 -184 11c-87.333 0 -150.333 -23 -189 -69
s-66.334 -130.333 -83.001 -253c-14.667 -116 -11.334 -198 9.99902 -246s65.666 -72 132.999 -72c38.667 0 74.667 10 108 30s70.666 49 111.999 87l36 258h40l-57 -400h-29l8 104c-72 -77.333 -147.333 -116 -226 -116c-79.333 0 -132.666 28 -159.999 84
s-33.333 147.667 -18 275c18 132.667 50.5 225 97.5 277s118.5 78 214.5 78c76 0 141.333 -6 196 -18z" />
    <glyph glyph-name="gdotaccent" unicode="&#x121;" horiz-adv-x="571" 
d="M340 589h-13.999c-10.667 0 -15.334 5.33301 -14.001 16l8 59c0.666992 10.667 6 16 16 16h16c10 0 14.667 -5.33301 14 -16l-8 -59c-2 -10.667 -8 -16 -18 -16zM511.001 479l-73.999 -481.001c-20 -134 -97.667 -206 -233 -216c-62 -4.66699 -123.333 -2.66699 -184 6
l5 28c63.333 -3.33301 121 -3 173 1c57.333 5.33301 102.5 22.166 135.5 50.499s54.167 70.833 63.5 127.5c12 68.667 21.667 112.334 29 131.001c-36.667 -43.333 -77.334 -77.166 -122.001 -101.499s-86 -36.5 -124 -36.5c-57.333 0 -94.333 19.667 -111 59
s-18 105 -4 197c16 101.333 40.5 168.333 73.5 201s90.5 49 172.5 49c57.333 0 122 -5 194 -15h6zM421.002 156.999l46.001 296c-81.333 4 -130 6 -146 6c-76.667 0 -128.167 -13.5 -154.5 -40.5s-46.833 -86.833 -61.5 -179.5c-13.333 -77.333 -14.5 -132.5 -3.5 -165.5
s39.167 -49.5 84.5 -49.5c32.667 0 70.167 11.667 112.5 35s83.166 56 122.499 98z" />
    <glyph glyph-name="Gcommaaccent" unicode="&#x122;" horiz-adv-x="621" 
d="M586 684l-8.99707 -30c-56.667 7.33301 -118 11 -184 11c-87.333 0 -150.333 -23 -189 -69s-66.334 -130.333 -83.001 -253c-14.667 -116 -11.334 -198 9.99902 -246s65.666 -72 132.999 -72c38.667 0 74.667 10 108 30s70.666 49 111.999 87l36 258h40l-57 -400h-29
l8 104c-72 -77.333 -147.333 -116 -226 -116c-79.333 0 -132.666 28 -159.999 84s-33.333 147.667 -18 275c18 132.667 50.5 225 97.5 277s118.5 78 214.5 78c76 0 141.333 -6 196 -18zM269.003 -63h14.001c10 0 14 -5 12 -15l-9 -59
c-4.66699 -34 -17.334 -73.333 -38.001 -118l-20 7c10 33.333 18.333 67.333 25 102c-3.33301 -0.666992 -6 0.333008 -8 3s-2.66699 6 -2 10l8 56c1.33301 5.33301 3 9 5 11s6.33301 3 13 3z" />
    <glyph glyph-name="gcommaaccent" unicode="&#x123;" horiz-adv-x="571" 
d="M336 563h-14.999c-9.33301 0 -13 5 -11 15l8 59c4.66699 33.333 17.667 73 39 119l19 -7c-10.667 -34.667 -18.667 -68.667 -24 -102c8 0 11.333 -4.33301 10 -13l-9 -56c-0.666992 -10 -6.33398 -15 -17.001 -15zM511.001 479l-73.999 -481.001
c-20 -134 -97.667 -206 -233 -216c-62 -4.66699 -123.333 -2.66699 -184 6l5 28c63.333 -3.33301 121 -3 173 1c57.333 5.33301 102.5 22.166 135.5 50.499s54.167 70.833 63.5 127.5c12 68.667 21.667 112.334 29 131.001
c-36.667 -43.333 -77.334 -77.166 -122.001 -101.499s-86 -36.5 -124 -36.5c-57.333 0 -94.333 19.667 -111 59s-18 105 -4 197c16 101.333 40.5 168.333 73.5 201s90.5 49 172.5 49c57.333 0 122 -5 194 -15h6zM421.002 156.999l46.001 296c-81.333 4 -130 6 -146 6
c-76.667 0 -128.167 -13.5 -154.5 -40.5s-46.833 -86.833 -61.5 -179.5c-13.333 -77.333 -14.5 -132.5 -3.5 -165.5s39.167 -49.5 84.5 -49.5c32.667 0 70.167 11.667 112.5 35s83.166 56 122.499 98z" />
    <glyph glyph-name="Hbar" unicode="&#x126;" horiz-adv-x="659" 
d="M672 523h-79l-73 -523h-41l49 351h-380l-49 -351h-41l73 523h-76l4 27h76l20 140h41l-20 -140h380l20 140h41l-20 -140h79zM552 523h-379l-19 -136h379z" />
    <glyph glyph-name="hbar" unicode="&#x127;" horiz-adv-x="570" 
d="M171 586l-14.0029 -97c-5.33301 -38.667 -12.666 -79 -21.999 -121c99.333 84 181.333 126 246 126c42 0 72.833 -11.333 92.5 -34s26.5 -55.667 20.5 -99l-51 -361h-40l51 355c4.66699 36.667 0.333984 63 -12.999 79s-36.666 24 -69.999 24c-32.667 0 -67 -10 -103 -30
s-80.333 -51.667 -133 -95l-48 -333h-39l83 586h-79l4 28h78l13 86h39l-12 -86h165l-4 -28h-164z" />
    <glyph glyph-name="Imacron" unicode="&#x12a;" horiz-adv-x="239" 
d="M323 799h-265l4 34h265zM99 0h-41l97 690h41z" />
    <glyph glyph-name="imacron" unicode="&#x12b;" horiz-adv-x="225" 
d="M291 618h-265l4 33h265zM91 0h-39l68 482h40z" />
    <glyph glyph-name="Iogonek" unicode="&#x12e;" horiz-adv-x="239" 
d="M196 690l-97.001 -690h-3c-46.667 -42.667 -80 -84.334 -100 -125.001c-14.667 -28.667 -14.5 -47.5 0.5 -56.5s41.5 -7.16699 79.5 5.5l5 -18c-56.667 -21.333 -95 -23.666 -115 -6.99902s-20.667 43.667 -2 81c20.667 40.667 56.334 80.667 107.001 120h-13l97 690h41z
" />
    <glyph glyph-name="iogonek" unicode="&#x12f;" horiz-adv-x="225" 
d="M159 680h14.999c10 0 14.667 -5.33301 14 -16l-8 -59c-2 -10.667 -8 -16 -18 -16h-13c-11.333 0 -16.333 5.33301 -15 16l8 59c0.666992 10.667 6.33398 16 17.001 16zM119.999 482l40 -0.000976562l-69 -482h-1c-48 -44 -81.667 -85.667 -101 -125
c-14.667 -28.667 -14.5 -47.5 0.5 -56.5s41.833 -7.16699 80.5 5.5l4 -18c-56 -21.333 -94 -23.666 -114 -6.99902s-21 43.667 -3 81c20 39.333 55.667 79.333 107 120h-12z" />
    <glyph glyph-name="Idotaccent" unicode="&#x130;" horiz-adv-x="239" 
d="M191 862h14.998c10.667 0 15.334 -5.66699 14.001 -17l-8 -59c-2 -10.667 -8 -16 -18 -16h-13c-11.333 0 -16.333 5.66699 -15 17l8 59c0.666992 10.667 6.33398 16 17.001 16zM98.998 0h-41l97 690h41z" />
    <glyph glyph-name="dotlessi" unicode="&#x131;" horiz-adv-x="225" 
d="M91 0h-39l68 482h40z" />
    <glyph glyph-name="IJ" unicode="&#x132;" horiz-adv-x="565" 
d="M99 0h-41l97 690h41zM526 690l-79.999 -568c-12 -87.333 -58.667 -130.333 -140 -129c-22.667 0 -46.667 2.66699 -72 8l8 28h55c63.333 0 99.666 31.667 108.999 95l79 566h41z" />
    <glyph glyph-name="ij" unicode="&#x133;" horiz-adv-x="451" 
d="M158 683h17.998c10.667 0 15.334 -5.66699 14.001 -17l-9 -61c-0.666992 -9.33301 -6 -14 -16 -14h-17c-12 0 -17.333 5.66699 -16 17l9 60c0.666992 10 6.33398 15 17.001 15zM382.998 683h17.999c10.667 0 15.334 -5.66699 14.001 -17l-9 -61
c-0.666992 -9.33301 -6 -14 -16 -14h-17c-12 0 -17 5.66699 -15 17l8 60c2 10 7.66699 15 17 15zM90.9971 0h-39l68 482h39zM384.997 482l-73.001 -521.001c-9.33301 -65.333 -41.666 -121.666 -96.999 -168.999l-20 17c44 49.333 69.667 101 77 155l73 518h40z" />
    <glyph glyph-name="Kcommaaccent" unicode="&#x136;" horiz-adv-x="568" 
d="M284 361l-0.000976562 -3c4.66699 -5.33301 12.334 -16.333 23.001 -33l193 -325h-47l-204 343h-106c-0.666992 -28 -3.66699 -56 -9 -84l-36 -259h-40l97 690h40l-32 -232c-5.33301 -33.333 -10.333 -60.333 -15 -81h104l278 313h51l-260 -294
c-12.667 -14 -25 -25.667 -37 -35zM259.999 -63h14.001c10 0 14 -5 12 -15l-9 -59c-4.66699 -34 -17.334 -73.333 -38.001 -118l-20 7c10 33.333 18.333 67.333 25 102c-3.33301 -0.666992 -6 0.333008 -8 3s-2.66699 6 -2 10l8 56c1.33301 5.33301 3 9 5 11s6.33301 3 13 3
z" />
    <glyph glyph-name="kcommaaccent" unicode="&#x137;" horiz-adv-x="496" 
d="M429 482h41c-34 -89.333 -95.333 -161.333 -184 -216l27 -51l105 -215h-44l-120 248c-38 -20 -84.333 -39 -139 -57l-28 -191h-39l99 700h39l-51 -377c-4 -30 -11 -62 -21 -96c162.667 52 267.667 137 315 255zM214 -63h14.001c10 0 14 -5 12 -15l-9 -59
c-4.66699 -34 -17.334 -73.333 -38.001 -118l-20 7c10 33.333 18.333 67.333 25 102c-4 -0.666992 -7 0.333008 -9 3s-2.66699 6 -2 10l9 56c1.33301 5.33301 3 9 5 11s6.33301 3 13 3z" />
    <glyph glyph-name="Lacute" unicode="&#x139;" horiz-adv-x="503" 
d="M326 870l-180 -136l-18 21l175 146zM193 690l-81.0029 -578c-3.33301 -23.333 0.833984 -42 12.501 -56s29.5 -21 53.5 -21h267l-1 -31c-61.333 -2.66699 -153 -4 -275 -4c-33.333 0 -59.166 10.5 -77.499 31.5s-25.166 48.167 -20.499 81.5l81 577h41z" />
    <glyph glyph-name="lacute" unicode="&#x13a;" horiz-adv-x="272" 
d="M324 892l-181 -135l-17 20l175 146zM187 700l-83 -595c-8 -50 13.333 -75 64 -75h57l1 -29c-14.667 -5.33301 -38 -8 -70 -8c-32.667 0 -57.5 9.5 -74.5 28.5s-23.167 45.5 -18.5 79.5l85 599h39z" />
    <glyph glyph-name="Lcommaaccent" unicode="&#x13b;" horiz-adv-x="503" 
d="M193 690l-81.0029 -578c-3.33301 -23.333 0.833984 -42 12.501 -56s29.5 -21 53.5 -21h267l-1 -31c-61.333 -2.66699 -153 -4 -275 -4c-33.333 0 -59.166 10.5 -77.499 31.5s-25.166 48.167 -20.499 81.5l81 577h41zM245.997 -71l13.999 -0.000976562c10 0 14 -5 12 -15
l-9 -59c-3.33301 -31.333 -16 -70.666 -38 -117.999l-20 6c10 32.667 18.333 67 25 103c-3.33301 -0.666992 -6 0.333008 -8 3s-2.66699 6 -2 10l9 56c0.666992 9.33301 6.33398 14 17.001 14z" />
    <glyph glyph-name="lcommaaccent" unicode="&#x13c;" horiz-adv-x="272" 
d="M187 700l-83 -595c-8 -50 13.333 -75 64 -75h57l1 -29c-14.667 -5.33301 -38 -8 -70 -8c-32.667 0 -57.5 9.5 -74.5 28.5s-23.167 45.5 -18.5 79.5l85 599h39zM117 -71h14.001c8.66699 0 12.667 -5 12 -15l-9 -59c-4.66699 -34 -17.334 -73.333 -38.001 -118l-20 6
c10 34 18 68.333 24 103c-3.33301 -0.666992 -6 0.333008 -8 3s-2.66699 6 -2 10l9 56c2 9.33301 8 14 18 14z" />
    <glyph glyph-name="Lcaron" unicode="&#x13d;" horiz-adv-x="503" 
d="M193 690l-81.0029 -578c-3.33301 -23.333 0.833984 -42 12.501 -56s29.5 -21 53.5 -21h267l-1 -31c-61.333 -2.66699 -153 -4 -275 -4c-33.333 0 -59.166 10.5 -77.499 31.5s-25.166 48.167 -20.499 81.5l81 577h41zM318.997 688l14.0029 0.000976562c10 0 14 -5 12 -15
l-9 -59c-4.66699 -34.667 -17.334 -74.334 -38.001 -119.001l-20 7c10 33.333 18.333 67.333 25 102c-8.66699 0 -12.334 4.33301 -11.001 13l9 56c1.33301 6 3.16602 10 5.49902 12s6.5 3 12.5 3z" />
    <glyph glyph-name="lcaron" unicode="&#x13e;" horiz-adv-x="272" 
d="M296 700l14.002 0.000976562c10 0 14 -4.66699 12 -14l-9 -59c-4.66699 -34.667 -17.334 -74.334 -38.001 -119.001l-20 7c10 33.333 18.333 67.333 25 102c-8.66699 0 -12.334 4.33301 -11.001 13l9 56c1.33301 5.33301 3 9 5 11s6.33301 3 13 3zM187.002 700.001
l-83 -595c-8 -50 13.333 -75 64 -75h57l1 -29c-14.667 -5.33301 -38 -8 -70 -8c-32.667 0 -57.5 9.5 -74.5 28.5s-23.167 45.5 -18.5 79.5l85 599h39z" />
    <glyph glyph-name="Ldot" unicode="&#x13f;" horiz-adv-x="503" 
d="M193 690l-81.0029 -578c-3.33301 -23.333 0.833984 -42 12.501 -56s29.5 -21 53.5 -21h267l-1 -31c-61.333 -2.66699 -153 -4 -275 -4c-33.333 0 -59.166 10.5 -77.499 31.5s-25.166 48.167 -20.499 81.5l81 577h41zM374.997 333h-16.002c-10.667 0 -15 5.66699 -13 17
l8 59c0.666992 10.667 6.33398 16 17.001 16h14c10.667 0 15.334 -5.66699 14.001 -17l-8 -59c-0.666992 -10.667 -6 -16 -16 -16z" />
    <glyph glyph-name="ldot" unicode="&#x140;" horiz-adv-x="301" 
d="M187 700l-83 -595c-8 -50 13.333 -75 64 -75h57l1 -29c-14.667 -5.33301 -38 -8 -70 -8c-32.667 0 -57.5 9.5 -74.5 28.5s-23.167 45.5 -18.5 79.5l85 599h39zM291 328h-15.001c-11.333 0 -16 5.66699 -14 17l8 59c0.666992 10.667 6.33398 16 17.001 16h14
c11.333 0 16 -5.66699 14 -17l-8 -59c-0.666992 -10.667 -6 -16 -16 -16z" />
    <glyph glyph-name="Lslash" unicode="&#x141;" horiz-adv-x="503" 
d="M445 35l-2.00098 -31c-60.667 -2.66699 -152 -4 -274 -4c-34 -0 -60 10.333 -78 31s-24.667 48 -20 82l33 236l-75 -31l2 29l77 31l43 312h42l-41 -294l137 56l-4 -28l-137 -57l-36 -255c-3.33301 -23.333 0.833984 -42 12.501 -56s29.5 -21 53.5 -21h267z" />
    <glyph glyph-name="lslash" unicode="&#x142;" horiz-adv-x="291" 
d="M140 364l-36 -259c-8 -50 13.333 -75 64 -75h57l1 -29c-14.667 -5.33301 -38 -8 -70 -8c-32.667 0 -57.5 9.5 -74.5 28.5s-23.167 45.5 -18.5 79.5l35 245l-68 -28l3 29l69 28l46 325h39l-43 -308l147 60l-4 -28z" />
    <glyph glyph-name="Nacute" unicode="&#x143;" horiz-adv-x="692" 
d="M564 870l-181 -136l-17 21l175 146zM649 690l-94 -670.999c-2 -12.667 -9 -19 -21 -19h-51c-10.667 0 -18 5.66699 -22 17l-221 563l-28 73h-23c-4 -34.667 -7.33301 -62 -10 -82l-80 -571h-41l94 671c2 12.667 9 19 21 19h49c10.667 0 18 -5.66699 22 -17l216 -550
c10 -24.667 20.667 -53.334 32 -86.001h26c7.33301 57.333 11.333 87 12 89l78 564h41z" />
    <glyph glyph-name="nacute" unicode="&#x144;" horiz-adv-x="570" 
d="M282 552l-17 21l174 146l24 -31zM147 482l-13.002 -113.999c99.333 84 181.666 126 246.999 126c42 0 72.833 -11.333 92.5 -34s26.5 -55.667 20.5 -99l-51 -361h-40l51 355c4.66699 36.667 0.333984 63 -12.999 79s-36.666 24 -69.999 24
c-32 0 -66.167 -9.83301 -102.5 -29.5s-81.166 -50.834 -134.499 -93.501l-47 -335h-39l68 482h31z" />
    <glyph glyph-name="Ncommaaccent" unicode="&#x145;" horiz-adv-x="692" 
d="M649 690l-94 -670.999c-2 -12.667 -9 -19 -21 -19h-51c-10.667 0 -18 5.66699 -22 17l-221 563l-28 73h-23c-4 -34.667 -7.33301 -62 -10 -82l-80 -571h-41l94 671c2 12.667 9 19 21 19h49c10.667 0 18 -5.66699 22 -17l216 -550c10 -24.667 20.667 -53.334 32 -86.001
h26c7.33301 57.333 11.333 87 12 89l78 564h41zM299 -62.999h14.001c8.66699 0 12.667 -5 12 -15l-9 -59c-4.66699 -34 -17.334 -73.333 -38.001 -118l-20 7c10.667 34.667 18.667 68.667 24 102c-3.33301 -0.666992 -6 0.333008 -8 3s-2.66699 6 -2 10l9 56
c1.33301 5.33301 3 9 5 11s6.33301 3 13 3z" />
    <glyph glyph-name="ncommaaccent" unicode="&#x146;" horiz-adv-x="570" 
d="M147 482l-13.002 -113.999c99.333 84 181.666 126 246.999 126c42 0 72.833 -11.333 92.5 -34s26.5 -55.667 20.5 -99l-51 -361h-40l51 355c4.66699 36.667 0.333984 63 -12.999 79s-36.666 24 -69.999 24c-32 0 -66.167 -9.83301 -102.5 -29.5
s-81.166 -50.834 -134.499 -93.501l-47 -335h-39l68 482h31zM239.998 -62.999h14.001c8.66699 0 12.667 -5 12 -15l-9 -59c-4.66699 -34 -17.334 -73.333 -38.001 -118l-20 7c10 33.333 18.333 67.333 25 102c-4 -0.666992 -7 0.333008 -9 3s-2.66699 6 -2 10l9 56
c1.33301 5.33301 3 9 5 11s6.33301 3 13 3z" />
    <glyph glyph-name="Ncaron" unicode="&#x147;" horiz-adv-x="692" 
d="M587 869l-153 -120h-29l-119 121l17 17l115 -101h8l146 101zM649 690l-94 -670.999c-2 -12.667 -9 -19 -21 -19h-51c-10.667 0 -18 5.66699 -22 17l-221 563l-28 73h-23c-4 -34.667 -7.33301 -62 -10 -82l-80 -571h-41l94 671c2 12.667 9 19 21 19h49
c10.667 0 18 -5.66699 22 -17l216 -550c10 -24.667 20.667 -53.334 32 -86.001h26c7.33301 57.333 11.333 87 12 89l78 564h41z" />
    <glyph glyph-name="ncaron" unicode="&#x148;" horiz-adv-x="570" 
d="M304 568l-119 121l17 17l115 -102h8l146 102l15 -19l-153 -119h-29zM147 482l-13.002 -113.999c99.333 84 181.666 126 246.999 126c42 0 72.833 -11.333 92.5 -34s26.5 -55.667 20.5 -99l-51 -361h-40l51 355c4.66699 36.667 0.333984 63 -12.999 79
s-36.666 24 -69.999 24c-32 0 -66.167 -9.83301 -102.5 -29.5s-81.166 -50.834 -134.499 -93.501l-47 -335h-39l68 482h31z" />
    <glyph glyph-name="Eng" unicode="&#x14a;" horiz-adv-x="692" 
d="M649 690l-110 -787c-12 -83.333 -58.667 -124.333 -140 -123c-25.333 0 -49 2.33301 -71 7l7 26h55c64.667 0 101 31.667 109 95l13 92h-29c-8.66699 -0 -15 5.33301 -19 16l-225 560c-13.333 34 -22.333 58.333 -27 73h-23c0 -2 -3 -26.333 -9 -73l-81 -576h-41l94 671
c2 12.667 9 19 21 19h46c11.333 0 19 -5.66699 23 -17l218 -546l33 -86h25c2 22 5.66699 51.333 11 88l79 561h41z" />
    <glyph glyph-name="eng" unicode="&#x14b;" horiz-adv-x="570" 
d="M146 482l-12 -113.999c52 42.667 96.667 74.334 134 95.001s74.666 31 111.999 31c42.667 0 73.834 -11.333 93.501 -34s26.5 -55.667 20.5 -99l-62 -442c-12 -85.333 -55.333 -128 -130 -128c-19.333 0 -40 2.66699 -62 8l7 26h45c58 0 91.333 31.667 100 95l62 435
c4.66699 35.333 0.166992 61.166 -13.5 77.499s-37.167 24.5 -70.5 24.5c-24 0 -50.167 -6.33301 -78.5 -19s-51.5 -25.334 -69.5 -38.001l-87 -64l-48 -336h-39l68 482h30z" />
    <glyph glyph-name="Omacron" unicode="&#x14c;" horiz-adv-x="662" 
d="M539 799h-265l5 34h265zM386 702c95.333 0 159 -27 191 -81s38.667 -146.667 20 -278c-18 -132 -49.5 -224.167 -94.5 -276.5s-115.167 -78.5 -210.5 -78.5s-159.333 26.833 -192 80.5s-39.667 146.5 -21 278.5c18.667 131.333 50.5 223.333 95.5 276s115.5 79 211.5 79z
M385 665c-82.667 0 -142.999 -23.499 -180.999 -70.499s-65.667 -130.833 -83 -251.5c-16 -118.667 -11.5 -201.334 13.5 -248.001s77.5 -70 157.5 -70c82 0 142 23.5 180 70.5s65.667 130.833 83 251.5c17.333 120 13.666 203 -11.001 249s-77.667 69 -159 69z" />
    <glyph glyph-name="omacron" unicode="&#x14d;" 
d="M457 618h-265l4 33h265zM305 494c79.333 0 132.667 -19.334 160 -58.001s34.666 -104.667 21.999 -198c-13.333 -92 -38.333 -156.667 -75 -194s-94 -56 -172 -56c-79.333 0 -132.833 19.333 -160.5 58s-35.167 104.334 -22.5 197.001c13.333 92 38.333 156.833 75 194.5
s94.334 56.5 173.001 56.5zM305.001 457.999c-65.333 0 -113.169 -15.833 -143.502 -47.5s-51.166 -89.167 -62.499 -172.5c-11.333 -81.333 -6.66602 -137.5 14.001 -168.5s63 -46.5 127 -46.5c64.667 0 112.334 16 143.001 48s51.667 89.333 63 172
c11.333 81.333 6.66602 137.5 -14.001 168.5s-63 46.5 -127 46.5z" />
    <glyph glyph-name="Ohungarumlaut" unicode="&#x150;" horiz-adv-x="662" 
d="M457 884l-144 -153l-19 16l135 159zM603 884l-144 -153l-19 16l135 159zM386 702c95.333 0 159 -27 191 -81s38.667 -146.667 20 -278c-18 -132 -49.5 -224.167 -94.5 -276.5s-115.167 -78.5 -210.5 -78.5s-159.333 26.833 -192 80.5s-39.667 146.5 -21 278.5
c18.667 131.333 50.5 223.333 95.5 276s115.5 79 211.5 79zM385 665c-82.667 0 -142.999 -23.499 -180.999 -70.499s-65.667 -130.833 -83 -251.5c-16 -118.667 -11.5 -201.334 13.5 -248.001s77.5 -70 157.5 -70c82 0 142 23.5 180 70.5s65.667 130.833 83 251.5
c17.333 120 13.666 203 -11.001 249s-77.667 69 -159 69z" />
    <glyph glyph-name="ohungarumlaut" unicode="&#x151;" 
d="M521 703l-144 -153l-20 15l135 159zM375 703l-144 -153l-20 15l135 159zM305 494c79.333 0 132.667 -19.334 160 -58.001s34.666 -104.667 21.999 -198c-13.333 -92 -38.333 -156.667 -75 -194s-94 -56 -172 -56c-79.333 0 -132.833 19.333 -160.5 58
s-35.167 104.334 -22.5 197.001c13.333 92 38.333 156.833 75 194.5s94.334 56.5 173.001 56.5zM305.001 457.999c-65.333 0 -113.169 -15.833 -143.502 -47.5s-51.166 -89.167 -62.499 -172.5c-11.333 -81.333 -6.66602 -137.5 14.001 -168.5s63 -46.5 127 -46.5
c64.667 0 112.334 16 143.001 48s51.667 89.333 63 172c11.333 81.333 6.66602 137.5 -14.001 168.5s-63 46.5 -127 46.5z" />
    <glyph glyph-name="OE" unicode="&#x152;" horiz-adv-x="895" 
d="M891 655h-267.998c-23.333 0 -43.333 -7.33301 -60 -22s-26.334 -34 -29.001 -58l-27 -190h304l-4 -34h-304l-34 -239c-3.33301 -23.333 1 -42 13 -56s29.667 -21 53 -21h269l-2 -31c-60.667 -2.66699 -152 -4 -274 -4c-28.667 -0 -52.334 7.33301 -71.001 22
c-28.667 -12.667 -53.834 -21.5 -75.501 -26.5s-49.167 -7.5 -82.5 -7.5c-100.667 0 -167 26.167 -199 78.5s-38.667 145.833 -20 280.5c18.667 132.667 50.667 225 96 277s118.333 78 219 78c54.667 0 104.667 -10.667 150 -32c20.667 13.333 44.334 20 71.001 20
c125.333 0 218.333 -1.33301 279 -4zM428.002 112l66 472.999c3.33301 22 11 41.333 23 58c-36 14.667 -77 22 -123 22c-86 0 -148.5 -23.167 -187.5 -69.5s-67.167 -130.5 -84.5 -252.5c-17.333 -119.333 -13.333 -202.166 12 -248.499s81 -69.5 167 -69.5
c46 0 91 8.33301 135 25c-9.33301 17.333 -12 38 -8 62z" />
    <glyph glyph-name="oe" unicode="&#x153;" horiz-adv-x="916" 
d="M811 36l4.00293 -28.001c-44.667 -13.333 -108.334 -20 -191.001 -20c-52.667 0 -93.334 8.33301 -122.001 25s-47.667 43 -57 79c-18.667 -36.667 -44.5 -63.167 -77.5 -79.5s-75.833 -24.5 -128.5 -24.5c-79.333 0 -132.833 19.333 -160.5 58
s-35.167 104.334 -22.5 197.001c13.333 92 38.333 156.833 75 194.5s94.334 56.5 173.001 56.5c52.667 0 93.5 -8.16699 122.5 -24.5s48.5 -42.5 58.5 -78.5c19.333 39.333 45.666 66.333 78.999 81s78 22 134 22c66.667 0 114.167 -11.167 142.5 -33.5
s36.166 -61.166 23.499 -116.499c-8.66699 -40.667 -25.167 -69.334 -49.5 -86.001s-63.166 -27.667 -116.499 -33l-218 -23c-6.66699 -68 1.66602 -114.667 24.999 -140s67.333 -38 132 -38c56 0 114 4 174 12zM239.003 22.999c63.333 0 110.164 15.1689 140.497 45.502
s51.5 83.833 63.5 160.5l2 18c0.666992 1.33301 1 3.66602 1 6.99902c10 77.333 4.5 130.666 -16.5 159.999s-62.833 44 -125.5 44c-65.333 0 -113.166 -15.833 -143.499 -47.5s-51.166 -89.167 -62.499 -172.5c-11.333 -81.333 -6.66602 -137.5 14.001 -168.5
s63 -46.5 127 -46.5zM486.001 235.001l212.999 22.999c41.333 5.33301 70.833 14 88.5 26s30.167 33 37.5 63c4.66699 14.667 6.33398 27.334 5.00098 38.001s-2.83301 20 -4.5 28s-6 14.667 -13 20s-13.833 9.66602 -20.5 12.999s-15.5 5.83301 -26.5 7.5
s-21.5 2.83398 -31.5 3.50098s-22 1 -36 1c-65.333 0 -112.833 -12.5 -142.5 -37.5s-51.5 -76.167 -65.5 -153.5l-4 -29v-3z" />
    <glyph glyph-name="Racute" unicode="&#x154;" horiz-adv-x="609" 
d="M327 734l-18 21l175 146l23 -31zM58 0l97.001 690c54.667 5.33301 129 8 223 8c75.333 0 126.833 -14.167 154.5 -42.5s36.5 -80.166 26.5 -155.499c-8.66699 -58.667 -24.834 -101.667 -48.501 -129s-58.834 -44 -105.501 -50v-5c34 -10.667 56 -43 66 -97l45 -219h-43
l-44 219c-6 30.667 -16.5 52.5 -31.5 65.5s-35.5 19.5 -61.5 19.5c-23.333 0.666992 -49.666 1.16699 -78.999 1.5s-53 0.666016 -71 0.999023s-32.667 0.833008 -44 1.5l-44 -308h-40zM146.001 341h182.999c62 1.33301 106.667 13.333 134 36s45.333 65 54 127
c8.66699 61.333 2.83398 103 -17.499 125s-60.833 33 -121.5 33c-72.667 0 -135 -0.666992 -187 -2z" />
    <glyph glyph-name="racute" unicode="&#x155;" horiz-adv-x="387" 
d="M226 552l-17 21l175 146l23 -31zM146 482l-12.0029 -117c92.667 86 172.334 129 239.001 129h21l-11 -38h-19c-31.333 0 -64.166 -9.83301 -98.499 -29.5s-78.166 -51.167 -131.499 -94.5l-47 -332h-39l68 482h30z" />
    <glyph glyph-name="Rcommaaccent" unicode="&#x156;" horiz-adv-x="609" 
d="M58 0l97.001 690c54.667 5.33301 129 8 223 8c75.333 0 126.833 -14.167 154.5 -42.5s36.5 -80.166 26.5 -155.499c-8.66699 -58.667 -24.834 -101.667 -48.501 -129s-58.834 -44 -105.501 -50v-5c34 -10.667 56 -43 66 -97l45 -219h-43l-44 219
c-6 30.667 -16.5 52.5 -31.5 65.5s-35.5 19.5 -61.5 19.5c-23.333 0.666992 -49.666 1.16699 -78.999 1.5s-53 0.666016 -71 0.999023s-32.667 0.833008 -44 1.5l-44 -308h-40zM146.001 341h182.999c62 1.33301 106.667 13.333 134 36s45.333 65 54 127
c8.66699 61.333 2.83398 103 -17.499 125s-60.833 33 -121.5 33c-72.667 0 -135 -0.666992 -187 -2zM280 -63h14.001c8.66699 0 12.667 -5 12 -15l-9 -59c-4.66699 -34 -17.334 -73.333 -38.001 -118l-20 7c10.667 34.667 18.667 68.667 24 102
c-3.33301 -0.666992 -6 0.333008 -8 3s-2.66699 6 -2 10l9 56c1.33301 5.33301 3 9 5 11s6.33301 3 13 3z" />
    <glyph glyph-name="rcommaaccent" unicode="&#x157;" horiz-adv-x="387" 
d="M394 494l-11.0029 -38h-19c-31.333 0 -64.166 -9.83301 -98.499 -29.5s-78.166 -51.167 -131.499 -94.5l-47 -332h-39l68 482h30l-12 -117c92.667 86 172.334 129 239.001 129h21zM50.9971 -63l13.999 -0.000976562c10 0 14 -5 12 -15l-9 -59
c-3.33301 -31.333 -16 -70.666 -38 -117.999l-20 7c10 33.333 18.333 67.333 25 102c-3.33301 -0.666992 -6 0.333008 -8 3s-2.66699 6 -2 10l9 56c0.666992 9.33301 6.33398 14 17.001 14z" />
    <glyph glyph-name="Rcaron" unicode="&#x158;" horiz-adv-x="609" 
d="M349 749l-120 121l17 17l116 -101h8l146 101l15 -18l-153 -120h-29zM58 0l97.001 690c54.667 5.33301 129 8 223 8c75.333 0 126.833 -14.167 154.5 -42.5s36.5 -80.166 26.5 -155.499c-8.66699 -58.667 -24.834 -101.667 -48.501 -129s-58.834 -44 -105.501 -50v-5
c34 -10.667 56 -43 66 -97l45 -219h-43l-44 219c-6 30.667 -16.5 52.5 -31.5 65.5s-35.5 19.5 -61.5 19.5c-23.333 0.666992 -49.666 1.16699 -78.999 1.5s-53 0.666016 -71 0.999023s-32.667 0.833008 -44 1.5l-44 -308h-40zM146.001 341h182.999
c62 1.33301 106.667 13.333 134 36s45.333 65 54 127c8.66699 61.333 2.83398 103 -17.499 125s-60.833 33 -121.5 33c-72.667 0 -135 -0.666992 -187 -2z" />
    <glyph glyph-name="rcaron" unicode="&#x159;" horiz-adv-x="387" 
d="M248 568l-119 121l17 17l115 -102h8l146 102l15 -19l-153 -119h-29zM146 482l-12.0029 -117c92.667 86 172.334 129 239.001 129h21l-11 -38h-19c-31.333 0 -64.166 -9.83301 -98.499 -29.5s-78.166 -51.167 -131.499 -94.5l-47 -332h-39l68 482h30z" />
    <glyph glyph-name="Sacute" unicode="&#x15a;" horiz-adv-x="555" 
d="M481 870l-181 -136l-17 21l175 146zM352 299l-146.002 59.999c-48 20 -80 43.667 -96 71s-21.333 64.666 -16 111.999c5.33301 36 14.333 65.333 27 88s30.334 39 53.001 49s45.167 16.333 67.5 19s51.833 3.66699 88.5 3c70.667 -1.33301 134 -6 190 -14l-5 -30
c-78.667 4.66699 -145 7 -199 7c-23.333 0 -41.166 -0.333008 -53.499 -1s-27 -3.16699 -44 -7.5s-30 -10.833 -39 -19.5s-17.667 -21.334 -26 -38.001s-14.166 -37.334 -17.499 -62.001c-4 -37.333 -0.5 -65.833 10.5 -85.5s34.833 -37.167 71.5 -52.5l146 -60
c52 -21.333 86 -45.166 102 -71.499s20.667 -64.5 14 -114.5c-4.66699 -28.667 -11.834 -53 -21.501 -73s-21 -36 -34 -48s-30 -21 -51 -27s-42.167 -10 -63.5 -12s-48.333 -3 -81 -3c-68 0 -133 4.33301 -195 13l6 31c77.333 -5.33301 144 -7.66602 200 -6.99902
c33.333 0.666992 60 2.5 80 5.5s38.833 8.83301 56.5 17.5s31.167 21.667 40.5 39s16.333 40.333 21 69c5.33301 40.667 2.33301 70.334 -9 89.001s-37 36.334 -77 53.001z" />
    <glyph glyph-name="sacute" unicode="&#x15b;" horiz-adv-x="500" 
d="M436 688l-181 -136l-17 21l175 146zM310 197l-153 60.002c-35.333 14 -60.166 29.667 -74.499 47s-18.833 44.666 -13.5 81.999c7.33301 46 25.5 75.833 54.5 89.5s75.833 19.834 140.5 18.501c64 -0.666992 127.667 -5 191 -13l-6 -29c-78 4 -139.333 6.33301 -184 7
c-57.333 1.33301 -96.5 -2.33398 -117.5 -11.001s-34.167 -30.667 -39.5 -66c-4 -26 -1.33301 -45.167 8 -57.5s27.666 -23.833 54.999 -34.5l154 -60c37.333 -14.667 63.5 -30.667 78.5 -48s19.833 -44 14.5 -80c-3.33301 -25.333 -10.333 -45.833 -21 -61.5
s-26 -27.334 -46 -35.001s-40.5 -12.5 -61.5 -14.5s-49.5 -3 -85.5 -3c-53.333 0 -111.333 4.33301 -174 13l5 29c55.333 -5.33301 111 -7.66602 167 -6.99902c64.667 1.33301 109.167 7.16602 133.5 17.499s38.833 32.5 43.5 66.5
c3.33301 26.667 -0.166992 45.5 -10.5 56.5s-29.833 22.167 -58.5 33.5z" />
    <glyph glyph-name="Scedilla" unicode="&#x15e;" horiz-adv-x="555" 
d="M352 299l-146.002 59.999c-48 20 -80 43.667 -96 71s-21.333 64.666 -16 111.999c5.33301 36 14.333 65.333 27 88s30.334 39 53.001 49s45.167 16.333 67.5 19s51.833 3.66699 88.5 3c70.667 -1.33301 134 -6 190 -14l-5 -30c-78.667 4.66699 -145 7 -199 7
c-23.333 0 -41.166 -0.333008 -53.499 -1s-27 -3.16699 -44 -7.5s-30 -10.833 -39 -19.5s-17.667 -21.334 -26 -38.001s-14.166 -37.334 -17.499 -62.001c-4 -37.333 -0.5 -65.833 10.5 -85.5s34.833 -37.167 71.5 -52.5l146 -60c52 -21.333 86 -45.166 102 -71.499
s20.667 -64.5 14 -114.5c-4.66699 -28.667 -11.834 -53 -21.501 -73s-21 -36 -34 -48s-30 -21 -51 -27s-42.167 -10 -63.5 -12s-48.333 -3 -81 -3c-68 0 -133 4.33301 -195 13l6 31c77.333 -5.33301 144 -7.66602 200 -6.99902c33.333 0.666992 60 2.5 80 5.5
s38.833 8.83301 56.5 17.5s31.167 21.667 40.5 39s16.333 40.333 21 69c5.33301 40.667 2.33301 70.334 -9 89.001s-37 36.334 -77 53.001zM209.998 -79.001l5 20c30 2 51.667 -2.33301 65 -13s18 -28.667 14 -54c-5.33301 -36 -22.833 -64.167 -52.5 -84.5
s-65.834 -27.833 -108.501 -22.5l8 23c32 -1.33301 59.167 6.5 81.5 23.5s35.5 38.167 39.5 63.5c2.66699 16 0.333984 27.167 -6.99902 33.5s-22.333 9.83301 -45 10.5z" />
    <glyph glyph-name="scedilla" unicode="&#x15f;" horiz-adv-x="500" 
d="M310 197l-153 60.002c-35.333 14 -60.166 29.667 -74.499 47s-18.833 44.666 -13.5 81.999c7.33301 46 25.5 75.833 54.5 89.5s75.833 19.834 140.5 18.501c64 -0.666992 127.667 -5 191 -13l-6 -29c-78 4 -139.333 6.33301 -184 7
c-57.333 1.33301 -96.5 -2.33398 -117.5 -11.001s-34.167 -30.667 -39.5 -66c-4 -26 -1.33301 -45.167 8 -57.5s27.666 -23.833 54.999 -34.5l154 -60c37.333 -14.667 63.5 -30.667 78.5 -48s19.833 -44 14.5 -80c-3.33301 -25.333 -10.333 -45.833 -21 -61.5
s-26 -27.334 -46 -35.001s-40.5 -12.5 -61.5 -14.5s-49.5 -3 -85.5 -3c-53.333 0 -111.333 4.33301 -174 13l5 29c55.333 -5.33301 111 -7.66602 167 -6.99902c64.667 1.33301 109.167 7.16602 133.5 17.499s38.833 32.5 43.5 66.5
c3.33301 26.667 -0.166992 45.5 -10.5 56.5s-29.833 22.167 -58.5 33.5zM177 -78.998l5.00098 21c61.333 4 87.666 -18.667 78.999 -68c-5.33301 -36 -22.833 -64.167 -52.5 -84.5s-65.5 -27.833 -107.5 -22.5l7 23c32 -1.33301 59.333 6.5 82 23.5s36 38.167 40 63.5
c2 16.667 -0.666992 28 -8 34s-22.333 9.33301 -45 10z" />
    <glyph glyph-name="Scaron" unicode="&#x160;" horiz-adv-x="555" 
d="M504 869l-153 -120h-29l-119 121l17 17l115 -101h8l146 101zM352 299l-146.002 59.999c-48 20 -80 43.667 -96 71s-21.333 64.666 -16 111.999c5.33301 36 14.333 65.333 27 88s30.334 39 53.001 49s45.167 16.333 67.5 19s51.833 3.66699 88.5 3
c70.667 -1.33301 134 -6 190 -14l-5 -30c-78.667 4.66699 -145 7 -199 7c-23.333 0 -41.166 -0.333008 -53.499 -1s-27 -3.16699 -44 -7.5s-30 -10.833 -39 -19.5s-17.667 -21.334 -26 -38.001s-14.166 -37.334 -17.499 -62.001c-4 -37.333 -0.5 -65.833 10.5 -85.5
s34.833 -37.167 71.5 -52.5l146 -60c52 -21.333 86 -45.166 102 -71.499s20.667 -64.5 14 -114.5c-4.66699 -28.667 -11.834 -53 -21.501 -73s-21 -36 -34 -48s-30 -21 -51 -27s-42.167 -10 -63.5 -12s-48.333 -3 -81 -3c-68 0 -133 4.33301 -195 13l6 31
c77.333 -5.33301 144 -7.66602 200 -6.99902c33.333 0.666992 60 2.5 80 5.5s38.833 8.83301 56.5 17.5s31.167 21.667 40.5 39s16.333 40.333 21 69c5.33301 40.667 2.33301 70.334 -9 89.001s-37 36.334 -77 53.001z" />
    <glyph glyph-name="scaron" unicode="&#x161;" horiz-adv-x="500" 
d="M459 687l-152 -119h-30l-119 121l17 17l115 -102h8l146 102zM310 197l-153 60.002c-35.333 14 -60.166 29.667 -74.499 47s-18.833 44.666 -13.5 81.999c7.33301 46 25.5 75.833 54.5 89.5s75.833 19.834 140.5 18.501c64 -0.666992 127.667 -5 191 -13l-6 -29
c-78 4 -139.333 6.33301 -184 7c-57.333 1.33301 -96.5 -2.33398 -117.5 -11.001s-34.167 -30.667 -39.5 -66c-4 -26 -1.33301 -45.167 8 -57.5s27.666 -23.833 54.999 -34.5l154 -60c37.333 -14.667 63.5 -30.667 78.5 -48s19.833 -44 14.5 -80
c-3.33301 -25.333 -10.333 -45.833 -21 -61.5s-26 -27.334 -46 -35.001s-40.5 -12.5 -61.5 -14.5s-49.5 -3 -85.5 -3c-53.333 0 -111.333 4.33301 -174 13l5 29c55.333 -5.33301 111 -7.66602 167 -6.99902c64.667 1.33301 109.167 7.16602 133.5 17.499
s38.833 32.5 43.5 66.5c3.33301 26.667 -0.166992 45.5 -10.5 56.5s-29.833 22.167 -58.5 33.5z" />
    <glyph glyph-name="Tcedilla" unicode="&#x162;" horiz-adv-x="562" 
d="M590 654h-238l-92 -654h-41l92 654h-237l5 36h516zM193 -68l5.00098 21c61.333 4 87.666 -18.667 78.999 -68c-5.33301 -36 -22.833 -64.167 -52.5 -84.5s-65.5 -27.833 -107.5 -22.5l8 23c31.333 -1.33301 58.333 6.5 81 23.5s36 38.167 40 63.5
c2 16.667 -0.666992 28 -8 34s-22.333 9.33301 -45 10z" />
    <glyph glyph-name="tcedilla" unicode="&#x163;" horiz-adv-x="350" 
d="M178 448l-48 -343c-8 -50 13.333 -75 64 -75h86l1 -29c-30 -5.33301 -60.333 -8 -91 -8c-38 0 -65.5 9.5 -82.5 28.5s-22.833 46.167 -17.5 81.5l48 345h-88l4 29l89 4l21 150h39l-20 -149h172l-6 -34h-171zM114 -75l4.99902 21c30 2 51.667 -2.33301 65 -13
s17.666 -29 12.999 -55c-5.33301 -36 -22.666 -64.167 -51.999 -84.5s-65.333 -27.5 -108 -21.5l8 22c32 -0.666992 59.167 7.5 81.5 24.5s35.5 37.833 39.5 62.5c2.66699 16.667 0.333984 28 -6.99902 34s-22.333 9.33301 -45 10z" />
    <glyph glyph-name="Tcaron" unicode="&#x164;" horiz-adv-x="562" 
d="M332 749l-119 121l17 17l115 -101h8l146 101l15 -18l-152 -120h-30zM590 654h-238l-92 -654h-41l92 654h-237l5 36h516z" />
    <glyph glyph-name="tcaron" unicode="&#x165;" horiz-adv-x="350" 
d="M287 561l-20 5.99902c10 33.333 18.333 67.333 25 102c-8 0 -11.333 4.33301 -10 13l8 57c2 9.33301 8 14 18 14h14c10 0 14 -5 12 -15l-9 -59c-4 -33.333 -16.667 -72.666 -38 -117.999zM178 447.999l-48 -343c-8 -50 13.333 -75 64 -75h86l1 -29
c-30 -5.33301 -60.333 -8 -91 -8c-38 0 -65.5 9.5 -82.5 28.5s-22.833 46.167 -17.5 81.5l48 345h-88l4 29l89 4l21 150h39l-20 -149h172l-6 -34h-171z" />
    <glyph glyph-name="Tbar" unicode="&#x166;" horiz-adv-x="562" 
d="M352 654l-33 -231h157l-4 -28h-156l-56 -395h-41l55 395h-142l4 28h142l33 231h-237l5 36h516l-5 -36h-238z" />
    <glyph glyph-name="tbar" unicode="&#x167;" horiz-adv-x="350" 
d="M178 448l-16 -111h154l-4 -27h-154l-28 -205c-8 -50 13.333 -75 64 -75h86l1 -29c-30 -5.33301 -60.333 -8 -91 -8c-38 0 -65.5 9.5 -82.5 28.5s-22.833 46.167 -17.5 81.5l29 207h-69l4 27h69l15 111h-88l4 29l89 4l21 150h39l-20 -149h172l-6 -34h-171z" />
    <glyph glyph-name="Umacron" unicode="&#x16a;" horiz-adv-x="666" 
d="M538 799h-265l5 34h265zM629 690l-60.999 -434c-14 -97.333 -41.5 -166.333 -82.5 -207s-104.5 -61 -190.5 -61c-87.333 0 -146.833 20.833 -178.5 62.5s-40.834 111.167 -27.501 208.5l60 431h42l-61 -434c-12 -85.333 -5.66699 -145.166 19 -179.499
s73 -51.5 145 -51.5c72.667 0 126.667 17.667 162 53s59 95.666 71 180.999l60 431h42z" />
    <glyph glyph-name="umacron" unicode="&#x16b;" 
d="M455 619h-265l4 33h265zM497 482l-67.9971 -482h-30l13 121c-88.667 -88.667 -167.667 -133 -237 -133c-43.333 0 -74.833 11.333 -94.5 34s-26.167 55.667 -19.5 99l51 361h40l-51 -355c-4.66699 -36 -0.333984 -62.167 12.999 -78.5s37 -24.5 71 -24.5
c33.333 0 67.166 10.5 101.499 31.5s76.166 54.833 125.499 101.5l46 325h39z" />
    <glyph glyph-name="Uring" unicode="&#x16e;" horiz-adv-x="666" 
d="M416 913c29.333 0 52.665 -9.66699 69.998 -29s24 -43 20 -71c-3.33301 -26 -14.666 -48.333 -33.999 -67s-43.333 -28 -72 -28c-30 0 -53.5 9.66699 -70.5 29s-23.833 43 -20.5 71c3.33301 26 14.833 48.333 34.5 67s43.834 28 72.501 28zM415.999 888
c-21.333 0 -39.168 -7.16699 -53.501 -21.5s-22.833 -31.833 -25.5 -52.5s2 -37.667 14 -51s28.333 -20 49 -20s38.334 7.16699 53.001 21.5s23.334 31.833 26.001 52.5c2 20 -2.83301 36.833 -14.5 50.5s-27.834 20.5 -48.501 20.5zM628.997 690l-60.999 -434
c-14 -97.333 -41.5 -166.333 -82.5 -207s-104.5 -61 -190.5 -61c-87.333 0 -146.833 20.833 -178.5 62.5s-40.834 111.167 -27.501 208.5l60 431h42l-61 -434c-12 -85.333 -5.66699 -145.166 19 -179.499s73 -51.5 145 -51.5c72.667 0 126.667 17.667 162 53
s59 95.666 71 180.999l60 431h42z" />
    <glyph glyph-name="uring" unicode="&#x16f;" 
d="M316 537c-29.333 0 -52.498 9.66699 -69.498 29s-23.833 43 -20.5 71c3.33301 26.667 14.833 49.167 34.5 67.5s43.5 27.5 71.5 27.5c29.333 0 52.666 -9.66699 69.999 -29s24.333 -43 21 -71c-3.33301 -26 -14.833 -48.333 -34.5 -67s-43.834 -28 -72.501 -28z
M254.002 633c-2.66699 -20 1.83008 -36.667 13.4971 -50s27.834 -20 48.501 -20s38.5 7.16699 53.5 21.5s23.5 31.833 25.5 52.5c2.66699 19.333 -1.66602 35.833 -12.999 49.5s-27.666 20.5 -48.999 20.5s-39.333 -7.16699 -54 -21.5s-23 -31.833 -25 -52.5zM496.999 482
l-67.9971 -482h-30l13 121c-88.667 -88.667 -167.667 -133 -237 -133c-43.333 0 -74.833 11.333 -94.5 34s-26.167 55.667 -19.5 99l51 361h40l-51 -355c-4.66699 -36 -0.333984 -62.167 12.999 -78.5s37 -24.5 71 -24.5c33.333 0 67.166 10.5 101.499 31.5
s76.166 54.833 125.499 101.5l46 325h39z" />
    <glyph glyph-name="Uhungarumlaut" unicode="&#x170;" horiz-adv-x="666" 
d="M602 884l-144 -153l-19 16l135 159zM456 884l-144 -153l-19 16l135 159zM629 690l-60.999 -434c-14 -97.333 -41.5 -166.333 -82.5 -207s-104.5 -61 -190.5 -61c-87.333 0 -146.833 20.833 -178.5 62.5s-40.834 111.167 -27.501 208.5l60 431h42l-61 -434
c-12 -85.333 -5.66699 -145.166 19 -179.499s73 -51.5 145 -51.5c72.667 0 126.667 17.667 162 53s59 95.666 71 180.999l60 431h42z" />
    <glyph glyph-name="uhungarumlaut" unicode="&#x171;" 
d="M229 550l-20 16l135 159l29 -21zM356 566l135 159l28 -21l-144 -154zM458 482h39.0029l-68 -482h-30l13 121c-88.667 -88.667 -167.667 -133 -237 -133c-43.333 0 -74.833 11.333 -94.5 34s-26.167 55.667 -19.5 99l51 361h40l-51 -355
c-4.66699 -36 -0.333984 -62.167 12.999 -78.5s37 -24.5 71 -24.5c33.333 0 67.166 10.5 101.499 31.5s76.166 54.833 125.499 101.5z" />
    <glyph glyph-name="Uogonek" unicode="&#x172;" horiz-adv-x="666" 
d="M629 690l-61.001 -434.001c-13.333 -91.333 -38.166 -157.5 -74.499 -198.5s-91.166 -63.833 -164.499 -68.5c-44 -40.667 -76.667 -81.667 -98 -123c-14.667 -28.667 -14.5 -47.5 0.5 -56.5s41.5 -7.16699 79.5 5.5l5 -18c-56.667 -21.333 -95 -23.666 -115 -6.99902
s-20.667 43.667 -2 81c18.667 38 53 77 103 117h-7c-87.333 0 -146.833 20.833 -178.5 62.5s-40.834 111.167 -27.501 208.5l60 431h42l-61 -434c-12 -85.333 -5.66699 -145.166 19 -179.499s73 -51.5 145 -51.5c72.667 0 126.667 17.667 162 53s59 95.666 71 180.999
l60 431h42z" />
    <glyph glyph-name="uogonek" unicode="&#x173;" 
d="M497 482l-67.9961 -482c-46 -42.667 -79.667 -84.334 -101 -125.001c-14.667 -28.667 -14.334 -47.5 0.999023 -56.5s42 -7.16699 80 5.5l5 -18c-56.667 -21.333 -95 -23.666 -115 -6.99902s-20.667 43.667 -2 81c18.667 38.667 54 78.667 106 120h-4l13 121
c-88.667 -88.667 -167.667 -133 -237 -133c-43.333 0 -74.833 11.333 -94.5 34s-26.167 55.667 -19.5 99l51 361h40l-51 -355c-4.66699 -36 -0.333984 -62.167 12.999 -78.5s37 -24.5 71 -24.5c33.333 0 67.166 10.5 101.499 31.5s76.166 54.833 125.499 101.5l46 325h39z
" />
    <glyph glyph-name="Wcircumflex" unicode="&#x174;" horiz-adv-x="930" 
d="M682 763l-17 -18l-117 102h-8l-146 -102l-14 19l151 120h29zM954 690l-266.997 -677c-2.66699 -8.66699 -9.33398 -13 -20.001 -13h-57c-10 -0 -15.667 5.33301 -17 16l-58 565c-0.666992 8.66699 -1.83398 21.167 -3.50098 37.5s-3.16699 28.833 -4.5 37.5h-24l-30 -78
l-215 -564c-3.33301 -9.33301 -10 -14 -20 -14h-57c-10.667 0 -16.667 5 -18 15l-78 675h42l65 -584l6 -74h28l8.5 23.5l10 28l8.5 23.5l218 568c3.33301 10 9.66602 15 18.999 15h54c10.667 0 16.667 -5.66699 18 -17l60 -568c0 -2.66699 2 -27 6 -73h28l27 75l228 583h43z
" />
    <glyph glyph-name="wcircumflex" unicode="&#x175;" horiz-adv-x="823" 
d="M609 582l-17 -18l-116 102h-9l-146 -102l-13 19l151 120h29zM177 33l12.999 -0.00195312c14 0 27 8.33301 39 25c27.333 38.667 53.666 88.667 78.999 150c30.667 71.333 58.334 159 83.001 263c1.33301 8.66699 6.33301 12.334 15 11.001h42c8.66699 0 13.667 -4 15 -12
l64 -437h12c13.333 0 26 8.66699 38 26c38 56 67.333 105.333 88 148c40 81.333 70.333 173 91 275h42c-26.667 -114 -60.667 -211.667 -102 -293c-38.667 -73.333 -71.334 -126.666 -98.001 -159.999c-17.333 -19.333 -37 -29 -59 -29h-28
c-9.33301 -0 -14.666 4.33301 -15.999 13l-63 439h-11c-19.333 -92 -45.666 -176.667 -78.999 -254c-12 -30 -27 -61.5 -45 -94.5s-33.333 -57.167 -46 -72.5c-15.333 -20.667 -36 -31 -62 -31h-28c-8 -0 -13.333 4.33301 -16 13l-90 469h41z" />
    <glyph glyph-name="Ycircumflex" unicode="&#x176;" horiz-adv-x="543" 
d="M199 745l-14 20l151 119h29l122 -121l-17 -17l-116 101h-9zM285 253l-36 -253h-42l37 254l-173 436h42l126 -323c12 -31.333 20.667 -55.333 26 -72h7c13.333 24 28.333 48.333 45 73l217 322h45z" />
    <glyph glyph-name="ycircumflex" unicode="&#x177;" horiz-adv-x="518" 
d="M149 564l-13 19l151 120h29l121 -121l-17 -18l-116 102h-9zM455 482l41.0039 0.00195312c-38.667 -152 -97.334 -291.333 -176.001 -418c-52.667 -86.667 -99.334 -151.167 -140.001 -193.5s-85.667 -68.833 -135 -79.5l-7 27c36 11.333 69.667 31.5 101 60.5
s64 69.5 98 121.5h-38c-12.667 0 -23.334 3.66699 -32.001 11s-14.334 16.666 -17.001 27.999l-97 443h42l89 -425c4.66699 -16.667 14.667 -24.334 30 -23.001h44l25 40c74 122 131.333 258 172 408z" />
    <glyph glyph-name="Ydieresis" unicode="&#x178;" horiz-adv-x="543" 
d="M256 775h-11.999c-10 0 -14.667 5 -14 15l9 54c0.666992 10.667 6 16 16 16h13c9.33301 0 13.666 -5.33301 12.999 -16l-9 -53c-0.666992 -10.667 -6 -16 -16 -16zM431.001 775h-13.001c-9.33301 0 -13.666 5 -12.999 15l9 54c0.666992 10.667 6 16 16 16h13
c10 0 14 -5.33301 12 -16l-8 -53c-0.666992 -10.667 -6 -16 -16 -16zM285 253l-36 -253h-42l37 254l-173 436h42l126 -323c12 -31.333 20.667 -55.333 26 -72h7c13.333 24 28.333 48.333 45 73l217 322h45z" />
    <glyph glyph-name="Zacute" unicode="&#x179;" horiz-adv-x="555" 
d="M307 734l-18 21l175 146l23 -31zM60 36h412l-6 -36h-459l6 36l492 618h-402l5 36h450l-5 -36z" />
    <glyph glyph-name="zacute" unicode="&#x17a;" horiz-adv-x="490" 
d="M241 552l-17 21l175 146l23 -31zM459 447l-396 -413h341l-5 -34h-390l5 34l395 413h-333l4 35h384z" />
    <glyph glyph-name="Zdotaccent" unicode="&#x17b;" horiz-adv-x="555" 
d="M353 770h-13.002c-11.333 0 -16.333 5.66699 -15 17l8 59c0.666992 10.667 6.33398 16 17.001 16h15c10.667 0 15.334 -5.66699 14.001 -17l-8 -59c-2 -10.667 -8 -16 -18 -16zM59.998 36h412l-6 -36h-459l6 36l492 618h-402l5 36h450l-5 -36z" />
    <glyph glyph-name="zdotaccent" unicode="&#x17c;" horiz-adv-x="490" 
d="M288 589h-13.998c-10.667 0 -15.334 5.33301 -14.001 16l8 59c0.666992 10.667 6 16 16 16h16c10.667 0 15 -5.33301 13 -16l-8 -59c-0.666992 -10.667 -6.33398 -16 -17.001 -16zM459.002 447l-396 -413h341l-5 -34h-390l5 34l395 413h-333l4 35h384z" />
    <glyph glyph-name="Zcaron" unicode="&#x17d;" horiz-adv-x="555" 
d="M329 749l-120 121l17 17l116 -101h8l146 101l15 -18l-153 -120h-29zM60 36h412l-6 -36h-459l6 36l492 618h-402l5 36h450l-5 -36z" />
    <glyph glyph-name="zcaron" unicode="&#x17e;" horiz-adv-x="490" 
d="M263 568l-119 121l17 17l115 -102h8l147 102l15 -19l-153 -119h-30zM459 447l-396 -413h341l-5 -34h-390l5 34l395 413h-333l4 35h384z" />
    <glyph glyph-name="florin" unicode="&#x192;" horiz-adv-x="413" 
d="M168 388l42 177.001c10 45.333 27.5 79 52.5 101s60.167 33 105.5 33c35.333 0 63.333 -1.33301 84 -4l-7 -30h-69c-38 0 -66.5 -7.83301 -85.5 -23.5s-32.833 -42.834 -41.5 -81.501l-41 -172h161l-9 -34h-160l-83 -354c-10.667 -45.333 -27.667 -79 -51 -101
s-56 -33 -98 -33c-37.333 0 -65.333 1.66699 -84 5l6 29h68c34.667 0 61 8 79 24s31.667 43 41 81l82 349h-96l7 29z" />
    <glyph glyph-name="Scommaaccent" unicode="&#x218;" horiz-adv-x="555" 
d="M352 299l-146.002 59.999c-48 20 -80 43.667 -96 71s-21.333 64.666 -16 111.999c5.33301 36 14.333 65.333 27 88s30.334 39 53.001 49s45.167 16.333 67.5 19s51.833 3.66699 88.5 3c70.667 -1.33301 134 -6 190 -14l-5 -30c-78.667 4.66699 -145 7 -199 7
c-23.333 0 -41.166 -0.333008 -53.499 -1s-27 -3.16699 -44 -7.5s-30 -10.833 -39 -19.5s-17.667 -21.334 -26 -38.001s-14.166 -37.334 -17.499 -62.001c-4 -37.333 -0.5 -65.833 10.5 -85.5s34.833 -37.167 71.5 -52.5l146 -60c52 -21.333 86 -45.166 102 -71.499
s20.667 -64.5 14 -114.5c-4.66699 -28.667 -11.834 -53 -21.501 -73s-21 -36 -34 -48s-30 -21 -51 -27s-42.167 -10 -63.5 -12s-48.333 -3 -81 -3c-68 0 -133 4.33301 -195 13l6 31c77.333 -5.33301 144 -7.66602 200 -6.99902c33.333 0.666992 60 2.5 80 5.5
s38.833 8.83301 56.5 17.5s31.167 21.667 40.5 39s16.333 40.333 21 69c5.33301 40.667 2.33301 70.334 -9 89.001s-37 36.334 -77 53.001zM252.998 -63.001h14.001c8.66699 0 12.667 -5 12 -15l-9 -59c-4.66699 -34 -17.334 -73.333 -38.001 -118l-20 7
c10.667 34.667 18.667 68.667 24 102c-3.33301 -0.666992 -6 0.333008 -8 3s-2.66699 6 -2 10l9 56c1.33301 5.33301 3 9 5 11s6.33301 3 13 3z" />
    <glyph glyph-name="scommaaccent" unicode="&#x219;" horiz-adv-x="500" 
d="M310 197l-153 60.002c-35.333 14 -60.166 29.667 -74.499 47s-18.833 44.666 -13.5 81.999c7.33301 46 25.5 75.833 54.5 89.5s75.833 19.834 140.5 18.501c64 -0.666992 127.667 -5 191 -13l-6 -29c-78 4 -139.333 6.33301 -184 7
c-57.333 1.33301 -96.5 -2.33398 -117.5 -11.001s-34.167 -30.667 -39.5 -66c-4 -26 -1.33301 -45.167 8 -57.5s27.666 -23.833 54.999 -34.5l154 -60c37.333 -14.667 63.5 -30.667 78.5 -48s19.833 -44 14.5 -80c-3.33301 -25.333 -10.333 -45.833 -21 -61.5
s-26 -27.334 -46 -35.001s-40.5 -12.5 -61.5 -14.5s-49.5 -3 -85.5 -3c-53.333 0 -111.333 4.33301 -174 13l5 29c55.333 -5.33301 111 -7.66602 167 -6.99902c64.667 1.33301 109.167 7.16602 133.5 17.499s38.833 32.5 43.5 66.5
c3.33301 26.667 -0.166992 45.5 -10.5 56.5s-29.833 22.167 -58.5 33.5zM210 -62.998h14.001c8.66699 0 12.667 -5 12 -15l-9 -59c-4.66699 -34 -17.334 -73.333 -38.001 -118l-20 7c10.667 34.667 18.667 68.667 24 102c-3.33301 -0.666992 -6 0.333008 -8 3
s-2.66699 6 -2 10l9 56c1.33301 5.33301 3 9 5 11s6.33301 3 13 3z" />
    <glyph glyph-name="uni021A" unicode="&#x21a;" horiz-adv-x="562" 
d="M590 654h-238l-92 -654h-41l92 654h-237l5 36h516zM223 -63l13.999 -0.000976562c10 0 14 -5 12 -15l-9 -59c-3.33301 -31.333 -16 -70.666 -38 -117.999l-20 7c10 33.333 18.333 67.333 25 102c-3.33301 -0.666992 -6 0.333008 -8 3s-2.66699 6 -2 10l9 56
c0.666992 9.33301 6.33398 14 17.001 14z" />
    <glyph glyph-name="uni021B" unicode="&#x21b;" horiz-adv-x="350" 
d="M178 448l-48 -343c-8 -50 13.333 -75 64 -75h86l1 -29c-30 -5.33301 -60.333 -8 -91 -8c-38 0 -65.5 9.5 -82.5 28.5s-22.833 46.167 -17.5 81.5l48 345h-88l4 29l89 4l21 150h39l-20 -149h172l-6 -34h-171zM163 -63h14.999c9.33301 0 13 -5 11 -15l-8 -59
c-4 -30 -16.667 -69.333 -38 -118l-20 7c10.667 34.667 18.667 68.667 24 102c-3.33301 -0.666992 -6 0.333008 -8 3s-2.66699 6 -2 10l9 56c0.666992 9.33301 6.33398 14 17.001 14z" />
    <glyph glyph-name="circumflex" unicode="&#x2c6;" horiz-adv-x="399" 
d="M401 585l-17 -17l-116 101h-9l-146 -102l-14 20l151 119h29z" />
    <glyph glyph-name="caron" unicode="&#x2c7;" horiz-adv-x="399" 
d="M414 691l-153 -120h-29l-120 121l18 17l115 -101h8l146 101z" />
    <glyph glyph-name="breve" unicode="&#x2d8;" horiz-adv-x="362" 
d="M359 691l24.0029 -7.00098c-4.66699 -36.667 -20.667 -65.5 -48 -86.5s-62.333 -31.5 -105 -31.5c-44 0 -77.5 10.833 -100.5 32.5s-31.5 50.834 -25.5 87.501l25 2c-4.66699 -28 2.16602 -49.667 20.499 -65s45.166 -23 80.499 -23c36 0 65.667 8.16699 89 24.5
s36.666 38.5 39.999 66.5z" />
    <glyph glyph-name="dotaccent" unicode="&#x2d9;" horiz-adv-x="210" 
d="M157 678h16.001c10 0 14.667 -5.33301 14 -16l-8 -59c-2 -10.667 -8 -16 -18 -16h-14c-10.667 0 -15.334 5.33301 -14.001 16l8 59c0.666992 10.667 6 16 16 16z" />
    <glyph glyph-name="ring" unicode="&#x2da;" horiz-adv-x="294" 
d="M211 735c29.333 0 52.665 -9.66699 69.998 -29s24.333 -43 21 -71c-4 -26 -15.833 -48.333 -35.5 -67s-43.5 -28 -71.5 -28c-29.333 0 -52.666 9.66699 -69.999 29s-24.333 43 -21 71c3.33301 26.667 14.833 49.167 34.5 67.5s43.834 27.5 72.501 27.5zM210.999 710
c-21.333 0 -39.1699 -7.16699 -53.5029 -21.5s-22.833 -31.833 -25.5 -52.5c-2.66699 -20 2 -36.667 14 -50s28.333 -20 49 -20s38.334 7.16699 53.001 21.5s23.334 31.833 26.001 52.5c2 20 -2.66699 36.667 -14 50s-27.666 20 -48.999 20z" />
    <glyph glyph-name="ogonek" unicode="&#x2db;" horiz-adv-x="253" 
d="M112 2l23.001 -2c-46 -42.667 -79.667 -84.334 -101 -125.001c-14.667 -28.667 -14.334 -47.5 0.999023 -56.5s42 -7.16699 80 5.5l5 -18c-56.667 -21.333 -95 -23.666 -115 -6.99902s-20.667 43.667 -2 81c20 40 56.333 80.667 109 122z" />
    <glyph glyph-name="tilde" unicode="&#x2dc;" horiz-adv-x="405" 
d="M127 593l-23.002 3.00098c2.66699 32.667 11.834 57 27.501 73s35.5 23 59.5 21c20.667 -2 43.334 -12.833 68.001 -32.5s46 -30.5 64 -32.5c40 -2.66699 62.333 17.666 67 60.999l23 -2c-2.66699 -30.667 -11.667 -54 -27 -70s-35 -23 -59 -21s-48.667 13 -74 33
s-45 30.667 -59 32c-38.667 4 -61 -17.667 -67 -65z" />
    <glyph glyph-name="hungarumlaut" unicode="&#x2dd;" horiz-adv-x="421" 
d="M270 697l-144 -153l-19 15l135 160zM417 697l-144 -153l-20 15l135 160z" />
    <glyph glyph-name="Delta" unicode="&#x394;" horiz-adv-x="614" 
d="M545 26l-4 -26h-549l3 26l347 664h43zM501 35l-127 544.001c-1.33301 5.33301 -3 12.666 -5 21.999l-5.5 25.5l-4.5 21.5c-4 -9.33301 -10 -22 -18 -38s-13.333 -27.333 -16 -34l-281 -541h457z" />
    <glyph glyph-name="Omega" unicode="&#x3a9;" horiz-adv-x="715" 
d="M18 36l125.998 -0.000976562c28 0 49.333 -0.333008 64 -1c-49.333 38.667 -83 83.834 -101 135.501s-21.333 116.167 -10 193.5c15.333 114 48.333 198.833 99 254.5s123.667 83.5 219 83.5c94 0 159.167 -28.5 195.5 -85.5s46.5 -143.167 30.5 -258.5
c-11.333 -78.667 -32.666 -142.667 -63.999 -192s-77.333 -93 -138 -131c13.333 0.666992 33.333 1 60 1h128l-4 -36h-234l3 36c64 38.667 111.5 82.667 142.5 132s51.833 113 62.5 191c15.333 106 8.5 183.5 -20.5 232.5s-83.167 73.5 -162.5 73.5
c-82.667 0 -145.5 -24.833 -188.5 -74.5s-72.167 -128.834 -87.5 -237.501c-11.333 -80 -8.16602 -142.667 9.50098 -188s52.167 -88.666 103.5 -129.999l-4 -35h-234z" />
    <glyph glyph-name="mu" unicode="&#x3bc;" horiz-adv-x="579" 
d="M507 482l-67.9971 -482h-30l7 83c-84.667 -63.333 -160.334 -95 -227.001 -95c-46 0 -79 13.667 -99 41c0 -22.667 -2.33301 -51 -7 -85l-21 -152h-37l46 333l51 357h39l-50 -355c-4.66699 -34.667 0 -60.167 14 -76.5s38.333 -24.5 73 -24.5
c31.333 0 63.166 7 95.499 21s73.166 36.667 122.499 68l51 367h40z" />
    <glyph glyph-name="pi" unicode="&#x3c0;" horiz-adv-x="638" 
d="M631 448h-106l-64 -448h-40l64 448h-288l-63 -448h-40l63 448h-106l4 34h581z" />
    <glyph glyph-name="uni0401" unicode="&#x401;" horiz-adv-x="551" 
d="M292 799h-11.999c-10.667 0 -15 5 -13 15l8 54c0.666992 10 6 15 16 15h13c9.33301 0 13.666 -5 12.999 -15l-9 -53c-0.666992 -10.667 -6 -16 -16 -16zM467.001 799h-11.999c-10.667 0 -15 5 -13 15l8 54c0.666992 10 6 15 16 15h13c9.33301 0 13.666 -5 12.999 -15
l-9 -53c-0.666992 -10.667 -6 -16 -16 -16zM545.002 655h-283c-52 0 -81.667 -26.667 -89 -80l-27 -190h321l-5 -33h-320l-33 -240c-3.33301 -23.333 0.833984 -42 12.501 -56s29.167 -21 52.5 -21h284v-31c-64 -2.66699 -161 -4 -291 -4
c-34.667 -0 -61.334 10.333 -80.001 31s-25.334 47.667 -20.001 81l66 473c4.66699 32 17.667 57.5 39 76.5s49 28.5 83 28.5c132.667 0 231.334 -1.33301 296.001 -4z" />
    <glyph glyph-name="uni0402" unicode="&#x402;" horiz-adv-x="744" 
d="M352 654l-42.001 -297.001c80 52 157.667 78 233 78c56 0 96 -16.167 120 -48.5s30.667 -86.166 20 -161.499c-12 -82.667 -42 -141.5 -90 -176.5s-112.667 -51.167 -194 -48.5l-2 29c73.333 4 129.833 20 169.5 48s64.834 77.667 75.501 149
c9.33301 65.333 5 110.333 -13 135s-49.333 37 -94 37c-42 0 -79 -5.83301 -111 -17.5s-71.667 -32.167 -119 -61.5l-45 -319h-41l92 654h-237l5 36h516l-5 -36h-238z" />
    <glyph glyph-name="uni0403" unicode="&#x403;" horiz-adv-x="514" 
d="M505 870l-181 -136l-17 21l175 146zM55 0l81.998 582.001c4.66699 35.333 18 62.166 40 80.499s48.667 27.5 80 27.5c128.667 0 224.334 -1.66699 287.001 -5l-6 -30h-270c-53.333 0 -83.666 -27 -90.999 -81l-81 -574h-41z" />
    <glyph glyph-name="uni0404" unicode="&#x404;" horiz-adv-x="567" 
d="M573 684l-9.00098 -31c-50 8 -105 12 -165 12c-82.667 0 -144.167 -20.5 -184.5 -61.5s-69.5 -113.833 -87.5 -218.5h310l-4 -33h-312l-1 -10c-12.667 -78 -14.5 -140.333 -5.5 -187s27.833 -79.834 56.5 -99.501s71.334 -29.834 128.001 -30.501
c68 0 129 4.33301 183 13l5 -31c-59.333 -13.333 -122 -19.666 -188 -18.999c-100 0.666992 -166.333 27.834 -199 81.501s-40 146.167 -22 277.5c18.667 132 51.667 224.167 99 276.5s120.666 78.5 219.999 78.5c68.667 0 127.334 -6 176.001 -18z" />
    <glyph glyph-name="uni0405" unicode="&#x405;" horiz-adv-x="555" 
d="M352 299l-146.002 59.999c-48 20 -80 43.667 -96 71s-21.333 64.666 -16 111.999c5.33301 36 14.333 65.333 27 88s30.334 39 53.001 49s45.167 16.333 67.5 19s51.833 3.66699 88.5 3c70.667 -1.33301 134 -6 190 -14l-5 -30c-78.667 4.66699 -145 7 -199 7
c-23.333 0 -41.166 -0.333008 -53.499 -1s-27 -3.16699 -44 -7.5s-30 -10.833 -39 -19.5s-17.667 -21.334 -26 -38.001s-14.166 -37.334 -17.499 -62.001c-4 -37.333 -0.5 -65.833 10.5 -85.5s34.833 -37.167 71.5 -52.5l146 -60c52 -21.333 86 -45.166 102 -71.499
s20.667 -64.5 14 -114.5c-4.66699 -28.667 -11.834 -53 -21.501 -73s-21 -36 -34 -48s-30 -21 -51 -27s-42.167 -10 -63.5 -12s-48.333 -3 -81 -3c-68 0 -133 4.33301 -195 13l6 31c77.333 -5.33301 144 -7.66602 200 -6.99902c33.333 0.666992 60 2.5 80 5.5
s38.833 8.83301 56.5 17.5s31.167 21.667 40.5 39s16.333 40.333 21 69c5.33301 40.667 2.33301 70.334 -9 89.001s-37 36.334 -77 53.001z" />
    <glyph glyph-name="uni0406" unicode="&#x406;" horiz-adv-x="238" 
d="M99 0h-41l97 690h41z" />
    <glyph glyph-name="uni0407" unicode="&#x407;" horiz-adv-x="239" 
d="M104 860h13.999c8.66699 0 12.667 -5.33301 12 -16l-8 -53c-0.666992 -10.667 -6 -16 -16 -16h-13c-9.33301 0 -13.666 5 -12.999 15l8 54c2 10.667 7.33301 16 16 16zM278.999 860h14c8.66699 0 12.667 -5.33301 12 -16l-8 -53
c-0.666992 -10.667 -6.33398 -16 -17.001 -16h-12c-9.33301 0 -13.666 5 -12.999 15l8 54c2 10.667 7.33301 16 16 16zM98.999 0h-41l97 690h41z" />
    <glyph glyph-name="uni0408" unicode="&#x408;" horiz-adv-x="326" 
d="M287 690l-79.999 -568c-11.333 -87.333 -58 -130.333 -140 -129c-22.667 0 -46.667 2.66699 -72 8l9 28h54c63.333 0 99.666 31.667 108.999 95l79 566h41z" />
    <glyph glyph-name="uni0409" unicode="&#x409;" horiz-adv-x="966" 
d="M542 391l172 -0.00195312c79.333 0 132.5 -15.167 159.5 -45.5s35.5 -82.5 25.5 -156.5c-10.667 -76 -33.167 -127.833 -67.5 -155.5s-89.833 -41.5 -166.5 -41.5c-92.667 0 -165.667 2.66699 -219 8l92 655h-154c-28 0 -49.333 -5.83301 -64 -17.5
s-25.334 -33.167 -32.001 -64.5c-32 -152 -56 -254.167 -72 -306.5s-41.333 -102.833 -76 -151.5c-47.333 -67.333 -96.666 -105.666 -147.999 -114.999l-3 36c20 6.66699 38.667 17.334 56 32.001s37 36 59 64c32.667 45.333 56.5 92.333 71.5 141s39.5 152 73.5 310
c8 38.667 22.333 66.167 43 82.5s48.667 24.5 84 24.5h208zM537 354.998l-46.001 -323.999c26 -1.33301 73 -2 141 -2c79.333 0 134.333 10.167 165 30.5s50.667 65.166 60 134.499c9.33301 60.667 3.83301 102.667 -16.5 126s-63.166 35 -128.499 35h-175z" />
    <glyph glyph-name="uni040A" unicode="&#x40a;" horiz-adv-x="979" 
d="M555 390l173 -0.000976562c79.333 0 132.5 -15.167 159.5 -45.5s35.167 -82.166 24.5 -155.499c-10 -76 -32.167 -127.833 -66.5 -155.5s-89.833 -41.5 -166.5 -41.5c-92.667 0 -165.667 2.66699 -219 8l49 354h-360l-50 -354h-41l97 690h41l-42 -301h360l43 301h41z
M550 353.999l-45.002 -323.001c48 -1.33301 104.667 -2 170 -2s112 11.333 140 34s46.667 66.334 56 131.001c8.66699 60 2.83398 101.667 -17.499 125s-63.166 35 -128.499 35h-175z" />
    <glyph glyph-name="uni040B" unicode="&#x40b;" horiz-adv-x="780" 
d="M352 654l-44 -313.999c89.333 63.333 182.333 95 279 95c100 0 143 -49.667 129 -149l-40 -286h-41l39 281c5.33301 41.333 0.333008 71.166 -15 89.499s-43 27.5 -83 27.5c-47.333 0 -91 -7.16699 -131 -21.5s-87.667 -39.5 -143 -75.5l-42 -301h-41l92 654h-237l5 36
h516l-5 -36h-238z" />
    <glyph glyph-name="uni040C" unicode="&#x40c;" horiz-adv-x="578" 
d="M328 734l-17 21l175 146l23 -31zM299 361l-2.00098 -2.99902c13.333 -1.33301 26 -4 38 -8s22.833 -10.833 32.5 -20.5l26 -26.5c7.66699 -8 15.334 -20.833 23.001 -38.5l18.5 -41.5c4.66699 -10 10.5 -27 17.5 -51l15 -52.5c3 -11 8.16699 -31.167 15.5 -60.5l15 -60
l-42 2l-14 55.5c-6 24.333 -10.667 42.333 -14 54l-13.5 48c-5.66699 20.333 -10.5 35.5 -14.5 45.5s-9.5 22.833 -16.5 38.5s-13.5 27.334 -19.5 35.001s-13.5 16.5 -22.5 26.5s-18.333 17.333 -28 22s-20.667 8.66699 -33 12s-25.5 5 -39.5 5h-98
c-0.666992 -25.333 -3.66699 -53.333 -9 -84l-36 -259h-40l97 690h40l-32 -232c-5.33301 -33.333 -10.333 -60.333 -15 -81h94c29.333 0 57.333 7.83301 84 23.5s51 37.667 73 66s42.5 58.166 61.5 89.499s39.167 66.666 60.5 105.999l15 29l43 -2
c-56.667 -104 -95.667 -171.667 -117 -203c-54.667 -78 -109 -119.667 -163 -125z" />
    <glyph glyph-name="uni040D" unicode="&#x40d;" horiz-adv-x="681" 
d="M444 753l-18 -19l-147 137l26 29zM541 0h-40l75 534l15 97l-2 -1l-17 -26c-12 -17.333 -21 -29.666 -27 -36.999l-445 -567h-42l97 690h40l-74 -530c-8 -52.667 -13.333 -86.334 -16 -101.001l2 1l50 69l439 561h42z" />
    <glyph glyph-name="uni040E" unicode="&#x40e;" horiz-adv-x="541" 
d="M466 877l24.0029 -6.99902c-4.66699 -36.667 -20.667 -65.334 -48 -86.001s-62.333 -31 -105 -31c-44 0 -77.5 10.833 -100.5 32.5s-31.5 50.5 -25.5 86.5l25 3c-4.66699 -28 2.16602 -49.667 20.499 -65s45.166 -23 80.499 -23c36 0 65.667 8 89 24s36.666 38 39.999 66
zM575.003 690.001l-270.001 -527.998c-13.333 -26.667 -24.166 -47.167 -32.499 -61.5s-19.166 -30.833 -32.499 -49.5s-27.5 -32.5 -42.5 -41.5s-31.167 -14.167 -48.5 -15.5c-36.667 -2.66699 -71 1.66602 -103 12.999l6 28
c22.667 -3.33301 40.834 -5.66602 54.501 -6.99902s27.334 -0.333008 41.001 3s24.167 7.16602 31.5 11.499s16.166 13.166 26.499 26.499s19.166 26.5 26.499 39.5l32 58.5l20 37h-41c-27.333 0 -44.333 13 -51 39l-107 447h42l100 -431
c3.33301 -13.333 11.666 -20 24.999 -20h49l230 451h44z" />
    <glyph glyph-name="uni040F" unicode="&#x40f;" horiz-adv-x="668" 
d="M625 690l-97 -690h-209l-24 -151h-29l17 151h-225l97 690h41l-92 -655h388l92 655h41z" />
    <glyph glyph-name="uni0410" unicode="&#x410;" horiz-adv-x="604" 
d="M458 242h-318l-119 -242h-45l337 678c2.66699 8 8.66699 12 18 12h56c10 0 15.667 -4.66699 17 -14l146 -676h-42zM450 279l-66.999 320.999c-0.666992 4.66699 -2.33398 13.334 -5.00098 26.001s-4.66699 22.667 -6 30h-30l-27 -57l-158 -320h293z" />
    <glyph glyph-name="uni0411" unicode="&#x411;" horiz-adv-x="592" 
d="M191 657l-38.998 -281h180c80 0 133.5 -14.5 160.5 -43.5s35.5 -79.167 25.5 -150.5c-10 -74 -32.167 -124.167 -66.5 -150.5s-89.833 -39.5 -166.5 -39.5c-96.667 0 -172.334 2.66699 -227.001 8l97 690c54.667 3.33301 121 5 199 5
c59.333 0 126.666 -1.66699 201.999 -5l-8 -33h-357zM147.002 341l-44.002 -311.001c50.667 -1.33301 110.334 -2 179.001 -2c64.667 0 111.167 10.833 139.5 32.5s46.833 63.834 55.5 126.501c8 58.667 1.83301 99 -18.5 121s-63.166 33 -128.499 33h-183z" />
    <glyph glyph-name="uni0412" unicode="&#x412;" horiz-adv-x="612" 
d="M58 0l97 690c48.667 5.33301 115.667 8 201 8c83.333 0 140 -12.833 170 -38.5s40 -73.5 30 -143.5c-7.33301 -50 -21.833 -87.5 -43.5 -112.5s-53.5 -39.5 -95.5 -43.5v-4c48.667 -4.66699 81.5 -22.5 98.5 -53.5s21.167 -75.167 12.5 -132.5
c-10 -70 -32 -117.167 -66 -141.5s-90.667 -36.5 -170 -36.5c-101.333 0 -179.333 2.66699 -234 8zM151 374h178c62 0.666992 106.5 10.834 133.5 30.501s44.5 57.5 52.5 113.5c8 57.333 0.5 95.666 -22.5 114.999s-68.833 29 -137.5 29l-164 -1zM146 341l-43 -310.998
c52 -1.33301 113.667 -2 185 -2c67.333 0 115.333 10.167 144 30.5s47 60.166 55 119.499c8.66699 62.667 1.5 105.167 -21.5 127.5s-69.167 34.166 -138.5 35.499h-181z" />
    <glyph glyph-name="uni0413" unicode="&#x413;" horiz-adv-x="514" 
d="M55 0l81.998 582.001c4.66699 35.333 18 62.166 40 80.499s48.667 27.5 80 27.5c128.667 0 224.334 -1.66699 287.001 -5l-6 -30h-270c-53.333 0 -83.666 -27 -90.999 -81l-81 -574h-41z" />
    <glyph glyph-name="uni0414" unicode="&#x414;" horiz-adv-x="659" 
d="M590 35l-2.99902 -28.001l-22 -158h-31l14 151h-529l-28 -151h-31l22 151l4 35h57c89.333 128.667 153.666 311.334 192.999 548.001c6.66699 38 20 65.333 40 82s48 25 84 25h240l-92 -655h82zM467.001 34.999l87.001 620h-188c-26.667 0 -47.334 -6 -62.001 -18
s-24.334 -32.667 -29.001 -62c-41.333 -236 -103.666 -416 -186.999 -540h379z" />
    <glyph glyph-name="uni0415" unicode="&#x415;" horiz-adv-x="551" 
d="M545 655h-283c-52 0 -81.667 -26.667 -89 -80l-27 -190h321l-5 -33h-320l-33 -240c-3.33301 -23.333 0.833984 -42 12.501 -56s29.167 -21 52.5 -21h284v-31c-64 -2.66699 -161 -4 -291 -4c-34.667 -0 -61.334 10.333 -80.001 31s-25.334 47.667 -20.001 81l66 473
c4.66699 32 17.667 57.5 39 76.5s49 28.5 83 28.5c132.667 0 231.334 -1.33301 296.001 -4z" />
    <glyph glyph-name="uni0416" unicode="&#x416;" horiz-adv-x="893" 
d="M644 361l0.00292969 -2.99316c22.667 -3.33301 42.167 -12.166 58.5 -26.499s31.333 -40.5 45 -78.5s23.167 -67.667 28.5 -89s14.666 -64 27.999 -128c3.33301 -16 6 -28 8 -36h-41c-25.333 116.667 -42.666 189 -51.999 217c-23.333 68.667 -55.666 109 -96.999 121
c-10.667 3.33301 -22.334 5 -35.001 5h-113c-1.33301 -32.667 -4 -60.667 -8 -84l-36 -259h-40l37 261c4 27.333 9.33301 54.666 16 81.999h-109c-16 0 -31 -1.83301 -45 -5.5s-27.667 -10.334 -41 -20.001s-25.166 -18.834 -35.499 -27.501s-21.833 -22.5 -34.5 -41.5
l-31 -47.5c-8 -12.667 -19 -32.834 -33 -60.501s-24.667 -49.334 -32 -65.001l-35 -75.5h-45l39 85l36 73c14.667 29.333 27 51.833 37 67.5s22.167 33.167 36.5 52.5s27.666 33.833 39.999 43.5s26.166 18.167 41.499 25.5s31.333 11.666 48 12.999l1 2
c-22 2.66699 -41.833 13.5 -59.5 32.5s-32.334 43.667 -44.001 74s-22 62.333 -31 96s-17.833 70.167 -26.5 109.5c-1.33301 7.33301 -2.33301 12.666 -3 15.999h40c24 -102.667 41.667 -169 53 -199c30 -76 71.667 -114 125 -114h113c0 19.333 2.33301 47 7 83l33 230h39
l-32 -232c-7.33301 -42 -12.333 -69 -15 -81h110c25.333 0 49.666 7.66699 72.999 23s44.833 37.333 64.5 66s37.667 58 54 88s34.166 65.333 53.499 106c6 13.333 10.667 23.333 14 30h43c-51.333 -109.333 -87.666 -180.333 -108.999 -213
c-46 -72.667 -92.333 -111.334 -139 -116.001z" />
    <glyph glyph-name="uni0417" unicode="&#x417;" horiz-adv-x="542" 
d="M111 654l-2.99805 30.002c56 9.33301 114.667 14 176 14c82.667 0 139.167 -13 169.5 -39s40.5 -73.667 30.5 -143c-7.33301 -50 -21.833 -87.5 -43.5 -112.5s-52.834 -39.5 -93.501 -43.5l-3 -4c48.667 -4.66699 81.5 -22.334 98.5 -53.001s21.5 -75 13.5 -133
c-10 -69.333 -31.833 -116.333 -65.5 -141s-90.5 -37 -170.5 -37c-84.667 0 -157.667 5.33301 -219 16l7 30c113.333 -6.66699 182.666 -10 207.999 -10c66.667 0 114.334 10.167 143.001 30.5s47 60.166 55 119.499c8.66699 62.667 1.33398 105.5 -21.999 128.5
s-69 34.5 -137 34.5h-106l4 33h104c62 0 106.5 10 133.5 30s44.5 58 52.5 114c8 58 0.666992 96.5 -22 115.5s-68.667 28.5 -138 28.5c-24.667 0 -48.834 -0.5 -72.501 -1.5s-44.834 -2.33301 -63.501 -4s-30.667 -2.5 -36 -2.5z" />
    <glyph glyph-name="uni0418" unicode="&#x418;" horiz-adv-x="681" 
d="M541 0h-40l75 534l15 97l-2 -1l-17 -26c-12 -17.333 -21 -29.666 -27 -36.999l-445 -567h-42l97 690h40l-74 -530c-8 -52.667 -13.333 -86.334 -16 -101.001l2 1l50 69l439 561h42z" />
    <glyph glyph-name="uni0419" unicode="&#x419;" horiz-adv-x="681" 
d="M524 875h34c-4.66699 -36.667 -20.834 -66.167 -48.501 -88.5s-62.5 -33.5 -104.5 -33.5c-44 0 -77.5 11.167 -100.5 33.5s-31.5 51.833 -25.5 88.5h35c-4.66699 -31.333 1.33301 -55.333 18 -72s41.334 -25 74.001 -25s59.5 8.33301 80.5 25s33.5 40.667 37.5 72zM541 0
h-40l75 534l15 97l-2 -1l-17 -26c-12 -17.333 -21 -29.666 -27 -36.999l-445 -567h-42l97 690h40l-74 -530c-8 -52.667 -13.333 -86.334 -16 -101.001l2 1l50 69l439 561h42z" />
    <glyph glyph-name="uni041A" unicode="&#x41a;" horiz-adv-x="578" 
d="M299 361l-2.00098 -2.99902c13.333 -1.33301 26 -4 38 -8s22.833 -10.833 32.5 -20.5l26 -26.5c7.66699 -8 15.334 -20.833 23.001 -38.5l18.5 -41.5c4.66699 -10 10.5 -27 17.5 -51l15 -52.5c3 -11 8.16699 -31.167 15.5 -60.5l15 -60l-42 2l-14 55.5
c-6 24.333 -10.667 42.333 -14 54l-13.5 48c-5.66699 20.333 -10.5 35.5 -14.5 45.5s-9.5 22.833 -16.5 38.5s-13.5 27.334 -19.5 35.001s-13.5 16.5 -22.5 26.5s-18.333 17.333 -28 22s-20.667 8.66699 -33 12s-25.5 5 -39.5 5h-98
c-0.666992 -25.333 -3.66699 -53.333 -9 -84l-36 -259h-40l97 690h40l-32 -232c-5.33301 -33.333 -10.333 -60.333 -15 -81h94c29.333 0 57.333 7.83301 84 23.5s51 37.667 73 66s42.5 58.166 61.5 89.499s39.167 66.666 60.5 105.999l15 29l43 -2
c-56.667 -104 -95.667 -171.667 -117 -203c-54.667 -78 -109 -119.667 -163 -125z" />
    <glyph glyph-name="uni041B" unicode="&#x41b;" horiz-adv-x="637" 
d="M594 690l-96.998 -690.002h-41l92 655h-178c-28 0 -49.5 -6 -64.5 -18s-25.5 -33.333 -31.5 -64c-32.667 -153.333 -57 -256.166 -73 -308.499s-40.333 -102.166 -73 -149.499c-43.333 -64 -93.333 -102.333 -150 -115l-3 35c16 7.33301 28.667 13.833 38 19.5
s21.166 15.167 35.499 28.5s28.5 30 42.5 50c31.333 44.667 54.666 91.5 69.999 140.5s40 152.167 74 309.5c8.66699 38 23.167 65.333 43.5 82s48.5 25 84.5 25h231z" />
    <glyph glyph-name="uni041C" unicode="&#x41c;" horiz-adv-x="860" 
d="M723 690h57.001c14 0 20.333 -7.33301 19 -22l-64 -668h-42l64 655h-23l-288 -577c-3.33301 -8.66699 -10 -13 -20 -13h-52c-10.667 0 -17 5 -19 15l-127 575h-24l-120 -655h-41l124 671c2 12.667 9.33301 19 22 19h55c10.667 0 16.667 -5.33301 18 -16l108 -483
c3.33301 -12 7.16602 -28.833 11.499 -50.5s7.16602 -36.167 8.49902 -43.5h25l46 97l242 483c4.66699 8.66699 11.334 13 20.001 13z" />
    <glyph glyph-name="uni041D" unicode="&#x41d;" horiz-adv-x="659" 
d="M617 690l-97 -690h-41l49 351h-380l-49 -351h-41l97 690h41l-42 -303h379l43 303h41z" />
    <glyph glyph-name="uni041E" unicode="&#x41e;" horiz-adv-x="662" 
d="M386 702c95.333 0 159 -27 191 -81s38.667 -146.667 20 -278c-18 -132 -49.5 -224.167 -94.5 -276.5s-115.167 -78.5 -210.5 -78.5s-159.333 26.833 -192 80.5s-39.667 146.5 -21 278.5c18.667 131.333 50.5 223.333 95.5 276s115.5 79 211.5 79zM385 665
c-82.667 0 -142.999 -23.499 -180.999 -70.499s-65.667 -130.833 -83 -251.5c-16 -118.667 -11.5 -201.334 13.5 -248.001s77.5 -70 157.5 -70c82 0 142 23.5 180 70.5s65.667 130.833 83 251.5c17.333 120 13.666 203 -11.001 249s-77.667 69 -159 69z" />
    <glyph glyph-name="uni041F" unicode="&#x41f;" horiz-adv-x="663" 
d="M620 690l-97 -690h-41l92 655h-383l-92 -655h-41l97 690h465z" />
    <glyph glyph-name="uni0420" unicode="&#x420;" horiz-adv-x="582" 
d="M58 0l96.999 690c54.667 5.33301 129 8 223 8c76.667 0 128.334 -15 155.001 -45s34.667 -84.333 24 -163c-12 -80 -34.5 -134 -67.5 -162s-87.5 -42 -163.5 -42c-72 0 -134 2 -186 6l-41 -292h-41zM143.999 322l181 0.00195312
c63.333 1.33301 108.5 13.666 135.5 36.999s45.167 68.333 54.5 135c9.33301 65.333 4 109.666 -16 132.999s-60.333 35 -121 35c-73.333 0 -135.333 -0.666992 -186 -2z" />
    <glyph glyph-name="uni0421" unicode="&#x421;" 
d="M478 38l5 -30.999c-54.667 -12.667 -118.667 -19 -192 -19c-96 0 -160 27.167 -192 81.5s-38.667 146.833 -20 277.5c18.667 131.333 50.667 223.333 96 276s115.333 79 210 79c70 0 129 -6 177 -18l-9 -30c-51.333 7.33301 -107 11 -167 11
c-83.333 0 -144 -23.333 -182 -70s-65.667 -130.667 -83 -252c-16.667 -118.667 -12.667 -201.334 12 -248.001s77 -70 157 -70c73.333 0 136 4.33301 188 13z" />
    <glyph glyph-name="uni0422" unicode="&#x422;" horiz-adv-x="562" 
d="M590 654h-238l-92 -654h-41l92 654h-237l5 36h516z" />
    <glyph glyph-name="uni0423" unicode="&#x423;" horiz-adv-x="541" 
d="M575 690l-270.001 -527.998c-13.333 -26.667 -24.166 -47.167 -32.499 -61.5s-19.166 -30.833 -32.499 -49.5s-27.5 -32.5 -42.5 -41.5s-31.167 -14.167 -48.5 -15.5c-36.667 -2.66699 -71 1.66602 -103 12.999l6 28c22.667 -3.33301 40.834 -5.66602 54.501 -6.99902
s27.334 -0.333008 41.001 3s24.167 7.16602 31.5 11.499s16.166 13.166 26.499 26.499s19.166 26.5 26.499 39.5l32 58.5l20 37h-41c-27.333 0 -44.333 13 -51 39l-107 447h42l100 -431c3.33301 -13.333 11.666 -20 24.999 -20h49l230 451h44z" />
    <glyph glyph-name="uni0424" unicode="&#x424;" horiz-adv-x="819" 
d="M496 753l-15 -103.998c116.667 -2.66699 196 -26.334 238 -71.001s55.667 -120 41 -226s-49.167 -180.833 -103.5 -224.5s-140.5 -66.5 -258.5 -68.5l-14 -104h-41l14 104c-117.333 2.66699 -197 26.167 -239 70.5s-55.667 120.166 -41 227.499
c14.667 106 49.167 180.833 103.5 224.5s140.833 66.167 259.5 67.5l15 104h41zM476 614.002l-73.999 -519.998c104 2.66699 179.333 23.167 226 61.5s76.667 105.5 90 201.5c13.333 95.333 2.16602 161.666 -33.501 198.999s-105.167 56.666 -208.5 57.999z
M363.001 94.0039l73 520c-104 -2 -179.333 -22 -226 -60s-76.667 -105.333 -90 -202c-14 -96.667 -3 -163.5 33 -200.5s106 -56.167 210 -57.5z" />
    <glyph glyph-name="uni0425" unicode="&#x425;" horiz-adv-x="595" 
d="M359 359l162 -359h-43l-153 343h-34l-250 -343h-49l264 360l-153 330h43l144 -313h35l234 313h46z" />
    <glyph glyph-name="uni0426" unicode="&#x426;" horiz-adv-x="672" 
d="M521 35h82l-4 -35l-21 -151h-31l15 151h-504l97 690h41l-92 -655h376l92 655h41z" />
    <glyph glyph-name="uni0427" unicode="&#x427;" horiz-adv-x="608" 
d="M565 690l-97 -690h-41l51 360c-91.333 -64 -180.333 -96 -267 -96c-50 0 -85.5 11.333 -106.5 34s-28.167 61 -21.5 115l39 277h41l-37 -273c-5.33301 -42.667 -1 -72.667 13 -90s41 -26 81 -26c45.333 0 88 8.33301 128 25s85 40.667 135 72l41 292h41z" />
    <glyph glyph-name="uni0428" unicode="&#x428;" horiz-adv-x="908" 
d="M865 690l-97 -690h-710l97 690h40l-92 -655h295l92 655h40l-92 -655h294l92 655h41z" />
    <glyph glyph-name="uni0429" unicode="&#x429;" horiz-adv-x="916" 
d="M764 35h83l-5 -35l-21 -151h-31l15 151h-747l97 690h41l-92 -655h289l92 655h41l-92 -655h290l92 655h40z" />
    <glyph glyph-name="uni042A" unicode="&#x42a;" horiz-adv-x="736" 
d="M305 391h180.002c79.333 0 132.5 -15.167 159.5 -45.5s35.5 -82.5 25.5 -156.5c-10 -76 -32.333 -127.833 -67 -155.5s-90.334 -41.5 -167.001 -41.5c-96.667 0 -172.334 2.66699 -227.001 8l92 654h-230l5 36h271zM300.002 355l-46 -324.001
c50.667 -1.33301 110 -2 178 -2c65.333 0 112.166 11.333 140.499 34s47.166 66.334 56.499 131.001c8.66699 60.667 2.83398 102.667 -17.499 126s-63.166 35 -128.499 35h-183z" />
    <glyph glyph-name="uni042B" unicode="&#x42b;" horiz-adv-x="819" 
d="M154 391h180c80 0 133.5 -15.167 160.5 -45.5s35.167 -82.5 24.5 -156.5c-10 -76 -32.167 -127.833 -66.5 -155.5s-89.833 -41.5 -166.5 -41.5c-97.333 0 -173.333 2.66699 -228 8l97 690h41zM776 690l-97 -690h-42l97 690h42zM149 355l-46.002 -324.001
c50.667 -1.33301 110.334 -2 179.001 -2c64.667 0 111.167 11.333 139.5 34s47.166 66.334 56.499 131.001c8.66699 60.667 2.83398 102.667 -17.499 126s-63.166 35 -128.499 35h-183z" />
    <glyph glyph-name="uni042C" unicode="&#x42c;" horiz-adv-x="586" 
d="M154 391h180c80 0 133.5 -15.167 160.5 -45.5s35.167 -82.5 24.5 -156.5c-10 -76 -32.167 -127.833 -66.5 -155.5s-89.833 -41.5 -166.5 -41.5c-97.333 0 -173.333 2.66699 -228 8l97 690h41zM149 355l-46.002 -324.001c50.667 -1.33301 110.334 -2 179.001 -2
c64.667 0 111.167 11.333 139.5 34s47.166 66.334 56.499 131.001c8.66699 60.667 2.83398 102.667 -17.499 126s-63.166 35 -128.499 35h-183z" />
    <glyph glyph-name="uni042D" unicode="&#x42d;" horiz-adv-x="568" 
d="M108 653l-5 31.001c52 12 111 18 177 18c100.667 0 167.834 -26.667 201.501 -80s41.167 -146.333 22.5 -279c-18 -131.333 -50.333 -223 -97 -275s-119.334 -78.667 -218.001 -80c-69.333 -0.666992 -131.333 6 -186 20l9 30c45.333 -8.66699 104.333 -13 177 -13
c84.667 1.33301 147.167 25.666 187.5 72.999s68.833 130.333 85.5 249l1 5h-314l4 33h314c12 106 3.83301 179.167 -24.5 219.5s-82.833 60.5 -163.5 60.5c-62.667 0 -119.667 -4 -171 -12z" />
    <glyph glyph-name="uni042E" unicode="&#x42e;" horiz-adv-x="899" 
d="M152 377l180.998 -0.000976562c18.667 120 49.834 204.167 93.501 252.5s109.5 72.5 197.5 72.5c95.333 0 159 -26.833 191 -80.5s38.667 -146.5 20 -278.5c-18 -132 -49.667 -224.167 -95 -276.5s-115.666 -78.5 -210.999 -78.5c-92 0 -153 26.333 -183 79
s-36.333 144.334 -19 275.001h-180l-48 -342h-41l97 690h41zM792.998 346.999c16.667 118.667 12.6689 201.332 -11.998 247.999s-77 70 -157 70c-78 0 -135.833 -23.833 -173.5 -71.5s-64.834 -131.167 -81.501 -250.5s-13.334 -202.166 9.99902 -248.499
s73.333 -69.5 150 -69.5c80.667 0 140.5 23.833 179.5 71.5s67.167 131.167 84.5 250.5z" />
    <glyph glyph-name="uni042F" unicode="&#x42f;" horiz-adv-x="603" 
d="M463 0l-40.999 -0.000976562l42 298c-22.667 -0.666992 -85.667 -1.66699 -189 -3c-54 -0.666992 -94.667 -30 -122 -88l-97 -207h-46l100 212c27.333 54.667 60.666 87.334 99.999 98.001l1 4c-40 10 -68.5 32.5 -85.5 67.5s-21.167 80.167 -12.5 135.5
c9.33301 64.667 31.5 111 66.5 139s86.167 42 153.5 42c99.333 0 175 -2.66699 227 -8zM468.001 330.999l47.001 329c-52 1.33301 -112.333 2 -181 2c-54 0 -95.167 -11.167 -123.5 -33.5s-46.833 -60.833 -55.5 -115.5c-10 -57.333 -4.33301 -102 17 -134
s58.666 -48 111.999 -48h184z" />
    <glyph glyph-name="uni0430" unicode="&#x430;" horiz-adv-x="567" 
d="M437 0h-30.999l13 118c-36 -40.667 -75.667 -72.5 -119 -95.5s-83 -34.5 -119 -34.5c-58.667 0 -96.334 19.667 -113.001 59s-17.667 105 -3 197c16 101.333 40.5 168.333 73.5 201s91.167 49 174.5 49c56 0 120 -5 192 -15zM420.001 156l40.9971 297
c-77.333 4 -123.666 6 -138.999 6c-77.333 0 -129.166 -13.5 -155.499 -40.5s-46.833 -86.833 -61.5 -179.5c-13.333 -78 -14.5 -133.333 -3.5 -166s39.167 -49 84.5 -49c32.667 0 69.834 11.5 111.501 34.5s82.5 55.5 122.5 97.5z" />
    <glyph glyph-name="uni0431" unicode="&#x431;" horiz-adv-x="562" 
d="M518 731l8.99512 -31c-25.333 -15.333 -48.666 -26.833 -69.999 -34.5s-46.166 -14.5 -74.499 -20.5s-47.166 -10.333 -56.499 -13c-61.333 -16.667 -104.666 -41.334 -129.999 -74.001s-45 -80 -59 -142c-2.66699 -8.66699 -8 -31 -16 -67h1
c33.333 79.333 100.666 119 201.999 119c72.667 0 120.834 -18.167 144.501 -54.5s29.834 -97.166 18.501 -182.499c-11.333 -82 -33.833 -143 -67.5 -183s-89.5 -60 -167.5 -60c-24.667 0 -46.667 1.66699 -66 5s-35.666 9 -48.999 17s-24.666 16.667 -33.999 26
s-16.5 21.5 -21.5 36.5s-8.66699 29.833 -11 44.5s-3 32.667 -2 54s2.33301 41.333 4 60s4.5 41.667 8.5 69c17.333 121.333 40.666 206.833 69.999 256.5s83.666 85.834 162.999 108.501c12.667 4 32.5 8.66699 59.5 14s51.167 11.666 72.5 18.999s45.333 18.333 72 33z
M317.995 433c-69.333 0 -118.502 -17 -147.502 -51s-47.833 -84.333 -56.5 -151c-11.333 -78 -6.66602 -132 14.001 -162s62.334 -45 125.001 -45c60 0 104.5 15.667 133.5 47s49.167 87.333 60.5 168c10.667 73.333 6.66699 124 -12 152s-57.667 42 -117 42z" />
    <glyph glyph-name="uni0432" unicode="&#x432;" horiz-adv-x="553" 
d="M355 267l-0.00195312 -2.00391c88 -4.66699 125.667 -54 113 -148c-7.33301 -49.333 -27.166 -83.166 -59.499 -101.499s-84.5 -27.5 -156.5 -27.5c-30 0 -55.333 1.33301 -76 4s-39.5 7.66699 -56.5 15s-30.167 17 -39.5 29s-16.5 27.833 -21.5 47.5
s-7.16699 42.834 -6.5 69.501s3.66699 58.334 9 95.001c8 54.667 18.333 98.5 31 131.5s29.667 57.833 51 74.5s43.833 27.5 67.5 32.5s55.167 7.5 94.5 7.5c69.333 0 118.833 -8 148.5 -24s39.834 -47.333 30.501 -94c-13.333 -61.333 -56.333 -97.666 -129 -108.999z
M99.998 246.996l173.001 26c60 8 102 19.833 126 35.5s39 38.834 45 69.501c6.66699 33.333 0.166992 55.333 -19.5 66s-59.834 16 -120.501 16c-34.667 0 -61.5 -1.83301 -80.5 -5.5s-37.5 -12.667 -55.5 -27s-32 -35.833 -42 -64.5s-18.667 -67.334 -26 -116.001z
M271.999 241.996l-175.998 -26.001c-2 -28 -3.66699 -52.333 -5 -73s0.666992 -38.167 6 -52.5s11.166 -26 17.499 -35s16.5 -16 30.5 -21s28.667 -8.33301 44 -10s34.666 -2.5 57.999 -2.5c61.333 0 105.333 7.16699 132 21.5s43 42.166 49 83.499
c6.66699 46.667 -1.83301 79.834 -25.5 99.501s-67.167 24.834 -130.5 15.501z" />
    <glyph glyph-name="uni0433" unicode="&#x433;" horiz-adv-x="510" 
d="M83 431l-1.99707 30.9971c60 18 127.333 28.667 202 32c16 0 32.167 0.166992 48.5 0.5s32 -1.66699 47 -6s28.167 -10.166 39.5 -17.499s19.666 -18.333 24.999 -33s6.66602 -32.667 3.99902 -54c-2.66699 -20.667 -8.33398 -38.834 -17.001 -54.501
s-20.5 -28.5 -35.5 -38.5s-27.167 -17.333 -36.5 -22s-22.333 -10 -39 -16l-160 -55c-25.333 -10 -44.833 -21.667 -58.5 -35s-22.167 -32 -25.5 -56c-5.33301 -34 2.33398 -56.333 23.001 -67s55 -16 103 -16c73.333 0 148.666 13 225.999 39l3 -31
c-68.667 -29.333 -145.667 -44 -231 -44c-27.333 0 -50.5 1.5 -69.5 4.5s-36.833 8.5 -53.5 16.5s-28.5 20.167 -35.5 36.5s-9.16699 36.833 -6.5 61.5c4 31.333 15.333 56.833 34 76.5s48 36.834 88 51.501l158 54c29.333 10.667 51.333 23.334 66 38.001
s23.667 33.334 27 56.001c5.33301 32.667 -2.66699 54 -24 64s-57 14 -107 12c-52 -2 -116.333 -11.333 -193 -28z" />
    <glyph glyph-name="uni0434" unicode="&#x434;" horiz-adv-x="558" 
d="M161 679l7.00098 30.999c26.667 -2.66699 50.667 -6 72 -10s43.5 -9.5 66.5 -16.5s43 -15.833 60 -26.5s33.667 -23.5 50 -38.5s29.5 -33.333 39.5 -55s18.167 -46 24.5 -73s9.33301 -58.5 9 -94.5s-3.83301 -75.333 -10.5 -118c-4.66699 -35.333 -10 -65.5 -16 -90.5
s-14.833 -51 -26.5 -78s-25.834 -48.667 -42.501 -65s-38.167 -29.833 -64.5 -40.5s-57.166 -16 -92.499 -16c-70.667 0 -120.167 18.833 -148.5 56.5s-36.833 97.167 -25.5 178.5c20.667 149.333 95.667 224 225 224c71.333 0 125 -24.667 161 -74
c2.66699 48.667 -1 91 -11 127s-23 64.333 -39 85s-38.167 37.834 -66.5 51.501s-54.833 23.167 -79.5 28.5s-55.334 10 -92.001 14zM237.001 22.999c66.667 0 114.001 21.5 142.001 64.5s48.333 110.167 61 201.5c2 10.667 4.33301 28.667 7 54
c-34.667 46 -87.334 69 -158.001 69c-57.333 0 -100.5 -17 -129.5 -51s-47.5 -82 -55.5 -144c-10 -69.333 -4.16699 -119 17.5 -149s60.167 -45 115.5 -45z" />
    <glyph glyph-name="uni0435" unicode="&#x435;" horiz-adv-x="529" 
d="M425 36l4.00391 -28c-45.333 -13.333 -109.333 -20 -192 -20c-79.333 0 -132.333 19.833 -159 59.5s-33.334 106.167 -20.001 199.5c7.33301 50.667 17.5 92.167 30.5 124.5s30.167 57.5 51.5 75.5s45.166 30.333 71.499 37s59.5 10 99.5 10
c66.667 0 114.167 -11.167 142.5 -33.5s36.166 -61.166 23.499 -116.499c-8.66699 -40.667 -25.167 -69.334 -49.5 -86.001s-63.166 -27.667 -116.499 -33l-218 -23c-6.66699 -69.333 1.66602 -116.5 24.999 -141.5s66.666 -37.5 129.999 -37.5
c53.333 0 112.333 4.33301 177 13zM97.0039 234l215.001 24c41.333 4.66699 70.666 13 87.999 25s30 33.333 38 64c2.66699 16.667 4.5 31 5.5 43s-1.5 22.167 -7.5 30.5s-12.167 15 -18.5 20s-15.5 8.83301 -27.5 11.5s-23.833 4.5 -35.5 5.5s-25.5 1.5 -41.5 1.5
c-36 0 -64.833 -2.5 -86.5 -7.5s-41.334 -15.167 -59.001 -30.5s-31.667 -37 -42 -65s-19.166 -65.333 -26.499 -112z" />
    <glyph glyph-name="uni0436" unicode="&#x436;" horiz-adv-x="760" 
d="M519 252l-0.00195312 -2.00488c22 -2 40.833 -8.83301 56.5 -20.5s29 -28 40 -49s20.5 -43.5 28.5 -67.5s17 -53 27 -87c2.66699 -11.333 5 -20 7 -26h-39c-2 8 -5.33301 19.333 -10 34c-8.66699 30.667 -15.5 53.334 -20.5 68.001s-12 32.334 -21 53.001
s-18.167 35.5 -27.5 44.5s-21.333 17.167 -36 24.5s-31.667 11 -51 11h-83c0 -21.333 -1.33301 -40.333 -4 -57l-25 -178h-38l26 181c4 22 7.66699 40 11 54h-85c-23.333 0 -44 -4 -62 -12s-36.833 -23.833 -56.5 -47.5s-34.167 -43 -43.5 -58l-51 -85.5
c-8.66699 -14 -15 -24.667 -19 -32h-42c50 88.667 84 144.667 102 168c40 52 83.333 80 130 84v1c-17.333 2 -33.166 8.16699 -47.499 18.5s-26 21.5 -35 33.5s-18.167 29.333 -27.5 52s-16.333 41.834 -21 57.501s-11 38.167 -19 67.5h38c22.667 -76.667 41 -127 55 -151
c25.333 -42.667 60 -64 104 -64h85c-0.666992 14 0.666016 33.667 3.99902 59l23 156h37l-22 -158c-3.33301 -22 -7 -41 -11 -57h76c18.667 0 36.834 4.33301 54.501 13s32.834 18.334 45.501 29.001s27.167 27.334 43.5 50.001s29 41.5 38 56.5l38.5 66.5h41
c-18 -32.667 -31 -55.667 -39 -69s-20.167 -32.333 -36.5 -57s-30.5 -42.667 -42.5 -54s-26.5 -22 -43.5 -32s-34.5 -16 -52.5 -18z" />
    <glyph glyph-name="uni0437" unicode="&#x437;" horiz-adv-x="487" 
d="M83 447l-2.99902 30.002c38 7.33301 86 11 144 11c78 0 131.167 -9 159.5 -27s39.166 -52 32.499 -102c-5.33301 -34.667 -16.666 -60.834 -33.999 -78.501s-45 -28.167 -83 -31.5l-2 -2c42 -3.33301 71 -15.5 87 -36.5s21.333 -52.5 16 -94.5
c-6.66699 -48.667 -25.334 -81.334 -56.001 -98.001s-84 -25 -160 -25c-74 0 -135 4 -183 12l7 30c67.333 -4.66699 125.333 -7 174 -7c64.667 0 109 6.5 133 19.5s39 39.833 45 80.5c5.33301 40 -2.33398 67 -23.001 81s-61 21.333 -121 22l-101 1l3 31h100
c55.333 0.666992 94.333 7.66699 117 21s36.334 38.333 41.001 75c5.33301 39.333 -2.5 65 -23.5 77s-65.167 18 -132.5 18c-56 0 -101.667 -2.33301 -137 -7z" />
    <glyph glyph-name="uni0438" unicode="&#x438;" horiz-adv-x="560" 
d="M498 482l-68.002 -482h-31l13 121c-88.667 -88.667 -167.667 -133 -237 -133c-43.333 0 -74.666 11.333 -93.999 34s-26 55.667 -20 99l51 361h40l-50 -355c-5.33301 -35.333 -1.16602 -61.333 12.501 -78s37.5 -25 71.5 -25c32.667 0 66.167 10.5 100.5 31.5
s76.5 54.833 126.5 101.5l45 325h40z" />
    <glyph glyph-name="uni0439" unicode="&#x439;" horiz-adv-x="560" 
d="M440 694h34.0029c-4.66699 -37.333 -20.834 -67.166 -48.501 -89.499s-62.5 -33.5 -104.5 -33.5c-44 0 -77.5 11.167 -100.5 33.5s-31.833 52.166 -26.5 89.499h36c-4.66699 -32 1.16602 -56.167 17.499 -72.5s41.166 -24.5 74.499 -24.5c32 0 58.5 8.33301 79.5 25
s33.833 40.667 38.5 72zM498.003 482l-68.002 -482h-31l13 121c-88.667 -88.667 -167.667 -133 -237 -133c-43.333 0 -74.666 11.333 -93.999 34s-26 55.667 -20 99l51 361h40l-50 -355c-5.33301 -35.333 -1.16602 -61.333 12.501 -78s37.5 -25 71.5 -25
c32.667 0 66.167 10.5 100.5 31.5s76.5 54.833 126.5 101.5l45 325h40z" />
    <glyph glyph-name="uni043A" unicode="&#x43a;" horiz-adv-x="518" 
d="M264 252l-1.99609 -2.00098c31.333 -2 58.166 -14.833 80.499 -38.5s38.166 -47.5 47.499 -71.5s22.666 -63.667 39.999 -119c3.33301 -10 5.66602 -17.333 6.99902 -22l-42 2c-2 6.66699 -6.16699 19.834 -12.5 39.501l-12.5 38.5c-2 6 -6 17 -12 33
s-10.333 26.5 -13 31.5l-13.5 25.5c-6.33301 12 -12 20 -17 24s-11.333 9.5 -19 16.5s-15.334 11.833 -23.001 14.5s-16.5 5.16699 -26.5 7.5s-20.667 3.5 -32 3.5h-4h-92c-1.33301 -24 -3 -43 -5 -57l-25 -178h-40l68 482h40l-22 -158
c-5.33301 -27.333 -9.33301 -46.333 -12 -57h92c20.667 0 40.667 4.5 60 13.5s35.5 18.667 48.5 29s28.333 27.333 46 51s30.667 42 39 55s21.833 35.5 40.5 67.5l43 -2l-41.5 -69c-8.33301 -13.333 -21.166 -32.333 -38.499 -57s-32.333 -42.5 -45 -53.5
s-28 -21.5 -46 -31.5s-36.667 -16 -56 -18z" />
    <glyph glyph-name="uni043B" unicode="&#x43b;" horiz-adv-x="543" 
d="M481 482l-68 -481.999h-40l63 449h-137c-24 0 -42.5 -5.33301 -55.5 -16s-22.167 -28.667 -27.5 -54c-33.333 -138.667 -65.666 -235 -96.999 -289c-30 -52.667 -73.333 -84.334 -130 -95.001l-4 34c45.333 17.333 78.666 44.333 99.999 81
c29.333 47.333 60.333 140 93 278c8 33.333 21 57.333 39 72s43.667 22 77 22h187z" />
    <glyph glyph-name="uni043C" unicode="&#x43c;" horiz-adv-x="723" 
d="M579 482h48.998c5.33301 0 9.83301 -1.83301 13.5 -5.5s5.16699 -8.16699 4.5 -13.5l-42 -463h-38l41 449h-19l-219 -390c-4.66699 -8.66699 -11 -13 -19 -13h-45c-7.33301 0 -12.666 5 -15.999 15l-110 388h-19l-86 -449h-38l89 465c1.33301 11.333 8 17 20 17h50
c8.66699 0 14 -5 16 -15l91 -324c6 -19.333 12.333 -42 19 -68l19 1c2.66699 4.66699 8.33398 15.167 17.001 31.5l20 37.5l183 324c2.66699 8.66699 9 13 19 13z" />
    <glyph glyph-name="uni043D" unicode="&#x43d;" horiz-adv-x="568" 
d="M506 482l-68 -482h-40l34 241h-310l-34 -241h-40l68 482h40l-30 -209h311l29 209h40z" />
    <glyph glyph-name="uni043E" unicode="&#x43e;" horiz-adv-x="560" 
d="M305 494c79.333 0 132.83 -19.334 160.497 -58.001s34.834 -104.667 21.501 -198c-13.333 -92 -38.166 -156.667 -74.499 -194s-93.833 -56 -172.5 -56s-131.834 19.333 -159.501 58s-35.167 104.334 -22.5 197.001c12.667 92 37.334 156.833 74.001 194.5
s94.334 56.5 173.001 56.5zM304.997 457.999c-64.667 0 -112.335 -16 -143.002 -48s-51.667 -89.333 -63 -172c-11.333 -81.333 -6.66602 -137.5 14.001 -168.5s63 -46.5 127 -46.5c64.667 0 112.334 16 143.001 48s51.667 89.333 63 172
c11.333 81.333 6.83301 137.5 -13.5 168.5s-62.833 46.5 -127.5 46.5z" />
    <glyph glyph-name="uni043F" unicode="&#x43f;" horiz-adv-x="571" 
d="M147 482l-12.001 -113.999c99.333 84 181.333 126 246 126c42.667 0 73.834 -11.333 93.501 -34s26.5 -55.667 20.5 -99l-52 -361h-39l50 355c4.66699 36.667 0.5 63 -12.5 79s-36.5 24 -70.5 24c-32 0 -66.167 -9.83301 -102.5 -29.5s-80.833 -50.834 -133.5 -93.501
l-47 -335h-40l68 482h31z" />
    <glyph glyph-name="uni0440" unicode="&#x440;" horiz-adv-x="567" 
d="M147 482l-12.001 -119c36.667 40 77.167 71.833 121.5 95.5s83.166 35.5 116.499 35.5c58 0 95 -19.333 111 -58s17.333 -104.667 4 -198c-14.667 -101.333 -38.667 -168.333 -72 -201s-91.333 -49 -174 -49c-49.333 0 -101.666 3.66699 -156.999 11
c-1.33301 -26 -4.66602 -57 -9.99902 -93l-18 -122h-39l98 698h31zM133.999 326l-40.999 -298.001c76 -4 122.333 -6 139 -6c76.667 0 128.5 13.833 155.5 41.5s47.167 87.5 60.5 179.5c12.667 78 13.667 133.333 3 166s-38.334 49 -83.001 49
c-30.667 0 -67.5 -11.667 -110.5 -35s-84.167 -55.666 -123.5 -96.999z" />
    <glyph glyph-name="uni0441" unicode="&#x441;" horiz-adv-x="478" 
d="M396 35l2.99902 -28.001c-48.667 -12.667 -99 -19 -151 -19c-82 0 -137.5 19.333 -166.5 58s-36.833 104.334 -23.5 197.001c12.667 92 38.167 156.833 76.5 194.5s97.5 56.5 177.5 56.5c56 0 102.667 -6.33301 140 -19l-9 -27c-30 6.66699 -71.333 10 -124 10
c-70.667 0 -122.167 -15.5 -154.5 -46.5s-54.166 -88.5 -65.499 -172.5c-12 -83.333 -6.66699 -140 16 -170s68.667 -45 138 -45c56 0 103.667 3.66699 143 11z" />
    <glyph glyph-name="uni0442" unicode="&#x442;" horiz-adv-x="876" 
d="M146 482l-11.998 -113.999c89.333 84 163.333 126 222 126c82.667 0 121 -40.333 115 -121c86 80.667 158 121 216 121c42.667 0 73.667 -11.5 93 -34.5s26 -55.833 20 -98.5l-51 -361h-40l50 355c5.33301 36 1.16602 62.167 -12.501 78.5s-37.5 24.5 -71.5 24.5
c-28.667 0 -58.167 -9.33301 -88.5 -28s-70.5 -50 -120.5 -94l-48 -336h-39l51 355c4.66699 36 0.166992 62.167 -13.5 78.5s-37.5 24.5 -71.5 24.5c-28.667 0 -58.334 -9.33301 -89.001 -28s-71 -50.334 -121 -95.001l-47 -335h-40l68 482h30z" />
    <glyph glyph-name="uni0443" unicode="&#x443;" horiz-adv-x="518" 
d="M455 482l42.001 0.000976562c-12.667 -54 -35 -120.167 -67 -198.5s-67 -152.166 -105 -221.499c-28 -53.333 -55.167 -98.333 -81.5 -135s-50.5 -64.167 -72.5 -82.5s-43.667 -32.5 -65 -42.5s-41.333 -14.667 -60 -14s-38 1.66699 -58 3l6 34
c14.667 -4 31.5 -4.5 50.5 -1.5s38 9 57 18s41.167 26.833 66.5 53.5s51.333 61.667 78 105h-47c-12 0 -22.5 3.66699 -31.5 11s-14.833 16.666 -17.5 27.999l-97 443h43l88 -425c4.66699 -16.667 14.667 -24.334 30 -23.001h52l21 37c38 68 73.167 142 105.5 222
s53.166 143 62.499 189z" />
    <glyph glyph-name="uni0444" unicode="&#x444;" horiz-adv-x="699" 
d="M427 700l-28.9961 -205.998c95.333 -2.66699 160.666 -23.834 195.999 -63.501s46.666 -103.834 33.999 -192.501c-12.667 -88 -41.834 -151.167 -87.501 -189.5s-116.834 -58.5 -213.501 -60.5l-28 -196h-39l28 196c-96 2.66699 -161.667 23.667 -197 63
s-47 103.333 -35 192c12.667 88.667 42 152.167 88 190.5s117.667 58.5 215 60.5l29 206h39zM392.004 458.002l-61.002 -434.002c83.333 2 144.5 19.333 183.5 52s63.833 88.334 74.5 167.001s1.33398 133.834 -27.999 165.501s-85.666 48.167 -168.999 49.5zM293.002 24
l61.001 433.999c-83.333 -2 -144.5 -19.333 -183.5 -52s-64.167 -88.667 -75.5 -168c-10.667 -78.667 -1.33398 -133.667 27.999 -165s86 -47.666 170 -48.999z" />
    <glyph glyph-name="uni0445" unicode="&#x445;" horiz-adv-x="507" 
d="M294 250l142 -250h-43l-132 235h-26l-197 -235h-48l213 251l-131 231h42l120 -214h29l182 214h46z" />
    <glyph glyph-name="uni0446" unicode="&#x446;" horiz-adv-x="577" 
d="M501 0l-22.002 -149h-36l29 149h-7c-45.333 -0 -65.333 24.333 -60 73l4 34c-88.667 -79.333 -166.667 -119 -234 -119c-43.333 0 -74.666 11.333 -93.999 34s-26 55.667 -20 99l51 361h40l-50 -355c-5.33301 -35.333 -1.16602 -61.333 12.501 -78s37.5 -25 71.5 -25
c32.667 0 66 9.66699 100 29s76 50.333 126 93l46 336h40l-58 -410c-4 -26.667 7 -40 33 -40h33z" />
    <glyph glyph-name="uni0447" unicode="&#x447;" horiz-adv-x="521" 
d="M459 482l-68 -482.001h-40l35 247c-81.333 -45.333 -154.333 -68 -219 -68c-40 -0.666992 -69.167 7.83301 -87.5 25.5s-25.166 43.834 -20.499 78.501l29 199h39l-26 -191c-4 -28 -0.166992 -47.833 11.5 -59.5s33.5 -17.5 65.5 -17.5
c35.333 0 68.666 5.33301 99.999 16s69 28.667 113 54l28 198h40z" />
    <glyph glyph-name="uni0448" unicode="&#x448;" horiz-adv-x="859" 
d="M797 482l-67.999 -481.999h-30l12 110c-84.667 -81.333 -158.667 -122 -222 -122c-36.667 0 -64.334 10.167 -83.001 30.5s-26.334 49.166 -23.001 86.499c-82 -78 -154.333 -117 -217 -117c-39.333 0 -68.166 11.5 -86.499 34.5s-24.5 55.833 -18.5 98.5l51 361h40
l-50 -355c-10.667 -68 15 -102 77 -102c30.667 0 61.167 9.16699 91.5 27.5s69.5 49.5 117.5 93.5l47 336h39l-50 -355c-10 -68 15.667 -102 77 -102c30.667 0 61.167 9.16699 91.5 27.5s69.833 49.5 118.5 93.5l47 336h39z" />
    <glyph glyph-name="uni0449" unicode="&#x449;" horiz-adv-x="876" 
d="M800 0l-22.999 -148.999h-36l30 149h-7c-45.333 0 -65.333 24.333 -60 73l3 34c-82.667 -79.333 -155.334 -119 -218.001 -119c-36.667 0 -64.334 10.167 -83.001 30.5s-26.334 49.166 -23.001 86.499c-82 -78 -154.333 -117 -217 -117
c-39.333 0 -68.166 11.5 -86.499 34.5s-24.5 55.833 -18.5 98.5l51 361h40l-50 -355c-10.667 -68 15 -102 77 -102c30.667 0 61.167 9.16699 91.5 27.5s69.5 49.5 117.5 93.5l47 336h39l-50 -355c-10 -68 15.667 -102 77 -102c30.667 0 61.167 9.16699 91.5 27.5
s69.833 49.5 118.5 93.5l47 336h39l-58 -410c-2 -16 -0.166992 -26.667 5.5 -32s14.834 -8 27.501 -8h33z" />
    <glyph glyph-name="uni044A" unicode="&#x44a;" horiz-adv-x="621" 
d="M320 482l-66 -233.999c36 21.333 79.333 32 130 32c70 0 116.5 -11 139.5 -33s30.833 -60.333 23.5 -115s-25.5 -92.167 -54.5 -112.5s-74.167 -30.5 -135.5 -30.5c-25.333 0 -48.333 2 -69 6s-41.167 11 -61.5 21s-34.333 25.667 -42 47s-7.5 47.666 0.5 78.999l87 306
h-226l5 34h269zM244 214.001l-21.001 -77.002c-6 -23.333 -6.16699 -43.166 -0.5 -59.499s16.167 -28.166 31.5 -35.499s30.5 -12.333 45.5 -15s31.5 -4 49.5 -4c54 0 92.167 7.83301 114.5 23.5s36.833 46.5 43.5 92.5c6 41.333 0.5 69.833 -16.5 85.5
s-52.833 23.5 -107.5 23.5c-55.333 0 -101.666 -11.333 -138.999 -34z" />
    <glyph glyph-name="uni044B" unicode="&#x44b;" horiz-adv-x="678" 
d="M153 482l-36 -241c41.333 26 90.666 39 147.999 39c70 0 116.833 -11 140.5 -33s31.5 -60.333 23.5 -115c-8 -55.333 -25.833 -93 -53.5 -113s-73.167 -30 -136.5 -30c-20 0 -37.833 0.666992 -53.5 2s-32.5 4.5 -50.5 9.5s-32.667 11.833 -44 20.5
s-20.166 21 -26.499 37s-7.83301 34.667 -4.5 56l54 368h39zM616 482l-68 -482h-41l68 482h41zM113 210l-14.999 -98c-2.66699 -19.333 -0.666992 -35.333 6 -48s17.5 -21.667 32.5 -27s29.667 -9 44 -11s31.166 -3 50.499 -3c54.667 0 93 7.83301 115 23.5
s36.333 46.5 43 92.5c5.33301 42 -0.5 70.667 -17.5 86s-53.167 23 -108.5 23c-58.667 0 -108.667 -12.667 -150 -38z" />
    <glyph glyph-name="uni044C" unicode="&#x44c;" horiz-adv-x="502" 
d="M153 482l-36 -241c41.333 26 90.666 39 147.999 39c70 0 116.833 -11 140.5 -33s31.5 -60.333 23.5 -115c-8 -55.333 -25.833 -93 -53.5 -113s-73.167 -30 -136.5 -30c-20 0 -37.833 0.666992 -53.5 2s-32.5 4.5 -50.5 9.5s-32.667 11.833 -44 20.5
s-20.166 21 -26.499 37s-7.83301 34.667 -4.5 56l54 368h39zM113 210l-14.999 -98c-2.66699 -19.333 -0.666992 -35.333 6 -48s17.5 -21.667 32.5 -27s29.667 -9 44 -11s31.166 -3 50.499 -3c54.667 0 93 7.83301 115 23.5s36.333 46.5 43 92.5
c5.33301 42 -0.5 70.667 -17.5 86s-53.167 23 -108.5 23c-58.667 0 -108.667 -12.667 -150 -38z" />
    <glyph glyph-name="uni044D" unicode="&#x44d;" horiz-adv-x="486" 
d="M78 444l-4.00195 28.999c38 8.66699 86.667 13 146 13c83.333 0 139.333 -18.333 168 -55s37 -101.667 25 -195c-12.667 -92.667 -37.667 -156.667 -75 -192s-97.666 -53 -180.999 -53c-63.333 0.666992 -114 5.66699 -152 15l8 30c42.667 -6 89.667 -9 141 -9
c70.667 -0.666992 121.834 13.5 153.501 42.5s53.167 82.833 64.5 161.5h-253l4 31h252c8 72.667 0.666992 122.334 -22 149.001s-67 40 -133 40c-48.667 0 -96 -2.33301 -142 -7z" />
    <glyph glyph-name="uni044E" unicode="&#x44e;" horiz-adv-x="772" 
d="M125 265h148.999c14 86 38.833 145.667 74.5 179s91.167 50 166.5 50c80 0 133.833 -18.667 161.5 -56s35.167 -103.333 22.5 -198c-12.667 -92.667 -37.667 -157.167 -75 -193.5s-95.666 -54.5 -174.999 -54.5c-77.333 0 -129.5 17.667 -156.5 53s-34.833 98 -23.5 188
h-148l-33 -233h-40l68 482h40zM657.999 245c11.333 81.333 5.99902 137.333 -16.001 168s-64.667 46 -128 46c-64 0 -111 -15.667 -141 -47s-51 -88.666 -63 -171.999c-11.333 -80.667 -7.16602 -136.334 12.501 -167.001s61.167 -46 124.5 -46
c67.333 0 116.5 16.167 147.5 48.5s52.167 88.833 63.5 169.5z" />
    <glyph glyph-name="uni044F" unicode="&#x44f;" horiz-adv-x="527" 
d="M464 478l-67 -478h-40l27 191h-158c-66.667 0 -107.334 -20.333 -122.001 -61l-47 -130h-43l52 141c14.667 39.333 48 61.333 100 66l1 3c-32.667 4 -56.167 19.667 -70.5 47s-19.166 58 -14.499 92c8 55.333 27.333 91.833 58 109.5s83.667 26.5 159 26.5
c53.333 0 108.333 -2.33301 165 -7zM389 223l32 225.999c-48 1.33301 -92.333 2 -133 2c-58.667 0 -99.5 -6.66699 -122.5 -20s-37.5 -42.666 -43.5 -87.999c-10 -80 24.667 -120 104 -120h163z" />
    <glyph glyph-name="uni0451" unicode="&#x451;" horiz-adv-x="529" 
d="M240 594h-13c-9.33301 0 -13.666 5 -12.999 15l9 54c0.666992 10 6 15 16 15h13c9.33301 0 13.666 -5 12.999 -15l-9 -53c-0.666992 -10.667 -6 -16 -16 -16zM415 594h-13c-9.33301 0 -13.666 5 -12.999 15l9 54c1.33301 10 6.66602 15 15.999 15h13c10 0 14 -5 12 -15
l-8 -53c-0.666992 -10.667 -6 -16 -16 -16zM425 36l4.00391 -28c-45.333 -13.333 -109.333 -20 -192 -20c-79.333 0 -132.333 19.833 -159 59.5s-33.334 106.167 -20.001 199.5c7.33301 50.667 17.5 92.167 30.5 124.5s30.167 57.5 51.5 75.5s45.166 30.333 71.499 37
s59.5 10 99.5 10c66.667 0 114.167 -11.167 142.5 -33.5s36.166 -61.166 23.499 -116.499c-8.66699 -40.667 -25.167 -69.334 -49.5 -86.001s-63.166 -27.667 -116.499 -33l-218 -23c-6.66699 -69.333 1.66602 -116.5 24.999 -141.5s66.666 -37.5 129.999 -37.5
c53.333 0 112.333 4.33301 177 13zM97.0039 234l215.001 24c41.333 4.66699 70.666 13 87.999 25s30 33.333 38 64c2.66699 16.667 4.5 31 5.5 43s-1.5 22.167 -7.5 30.5s-12.167 15 -18.5 20s-15.5 8.83301 -27.5 11.5s-23.833 4.5 -35.5 5.5s-25.5 1.5 -41.5 1.5
c-36 0 -64.833 -2.5 -86.5 -7.5s-41.334 -15.167 -59.001 -30.5s-31.667 -37 -42 -65s-19.166 -65.333 -26.499 -112z" />
    <glyph glyph-name="uni0452" unicode="&#x452;" horiz-adv-x="564" 
d="M177 507l-20.002 -141.999c-4.66699 -32.667 -10 -62 -16 -88c94.667 78.667 175.334 118 242.001 118c44 0 75.667 -11.333 95 -34s26 -55.667 20 -99l-37 -262h-40l37 256c4.66699 35.333 0 61.166 -14 77.499s-38.333 24.5 -73 24.5
c-33.333 0 -67.166 -9 -101.499 -27s-77.5 -47.333 -129.5 -88l-35 -243h-40l72 507h-79l4 28h79l23 165h40l-23 -165h212l-4 -28h-212z" />
    <glyph glyph-name="uni0453" unicode="&#x453;" horiz-adv-x="510" 
d="M425 688l-181 -136l-17 21l175 146zM83 431l-1.99707 30.9971c60 18 127.333 28.667 202 32c16 0 32.167 0.166992 48.5 0.5s32 -1.66699 47 -6s28.167 -10.166 39.5 -17.499s19.666 -18.333 24.999 -33s6.66602 -32.667 3.99902 -54
c-2.66699 -20.667 -8.33398 -38.834 -17.001 -54.501s-20.5 -28.5 -35.5 -38.5s-27.167 -17.333 -36.5 -22s-22.333 -10 -39 -16l-160 -55c-25.333 -10 -44.833 -21.667 -58.5 -35s-22.167 -32 -25.5 -56c-5.33301 -34 2.33398 -56.333 23.001 -67s55 -16 103 -16
c73.333 0 148.666 13 225.999 39l3 -31c-68.667 -29.333 -145.667 -44 -231 -44c-27.333 0 -50.5 1.5 -69.5 4.5s-36.833 8.5 -53.5 16.5s-28.5 20.167 -35.5 36.5s-9.16699 36.833 -6.5 61.5c4 31.333 15.333 56.833 34 76.5s48 36.834 88 51.501l158 54
c29.333 10.667 51.333 23.334 66 38.001s23.667 33.334 27 56.001c5.33301 32.667 -2.66699 54 -24 64s-57 14 -107 12c-52 -2 -116.333 -11.333 -193 -28z" />
    <glyph glyph-name="uni0454" unicode="&#x454;" horiz-adv-x="486" 
d="M461 473l-8.00098 -29c-42.667 4.66699 -88.667 7 -138 7c-67.333 0 -116.5 -13.5 -147.5 -40.5s-52.833 -76.833 -65.5 -149.5h253l-5 -30h-253c-10 -77.333 -3.83301 -130.5 18.5 -159.5s67.833 -43.833 136.5 -44.5c52.667 0 102 3 148 9l4 -30
c-44 -10 -96 -15 -156 -15c-80.667 0 -135.667 18.667 -165 56s-37.666 102 -24.999 194s38 155.833 76 191.5s98 53.5 180 53.5c60.667 0 109.667 -4.33301 147 -13z" />
    </font>
</defs>
</svg>
