<?xml version="1.0" standalone="no"?>
<!DOCTYPE svg PUBLIC "-//W3C//DTD SVG 1.1//EN" "http://www.w3.org/Graphics/SVG/1.1/DTD/svg11.dtd" >
<svg>
<metadata>
Created by FontForge 20090914 at Thu Nov 12 09:23:40 2015
 By www-data
Copyright &#194;&#169; 2013, Natanael Gama (www.ndiscovered.com . info(at)ndiscovered.com), with Reserved Font Name Exo. This Font Software is licensed under the SIL Open Font License, Version 1.1.
</metadata>
<defs>
<font id="Exo2-ThinItalic" horiz-adv-x="557" >
  <font-face 
    font-family="Exo 2 Thin"
    font-weight="250"
    font-style="italic"
    font-stretch="normal"
    units-per-em="1000"
    panose-1="0 0 3 0 0 0 0 0 0 0"
    ascent="800"
    descent="-200"
    x-height="480"
    cap-height="690"
    bbox="-213 -258 1168.29 921"
    underline-thickness="50"
    underline-position="-50"
    slope="-8"
    unicode-range="U+0020-U+FB02"
  />
<missing-glyph horiz-adv-x="600" 
 />
    <glyph glyph-name=".notdef" horiz-adv-x="600" 
 />
    <glyph glyph-name="space" unicode=" " horiz-adv-x="230" 
 />
    <glyph glyph-name="exclam" unicode="!" horiz-adv-x="252" 
d="M147 354l-23 -151h-21l19 151l48 341h25zM92 86h11.002c7.33301 0 10.666 -4.33301 9.99902 -13l-9 -62c-0.666992 -7.33301 -5 -11 -13 -11h-10c-8.66699 -0 -12.334 4.33301 -11.001 13l9 61c0.666992 8 5 12 13 12z" />
    <glyph glyph-name="quotedbl" unicode="&#x22;" horiz-adv-x="321" 
d="M133 482h-20l27 208h24zM260 482h-20l27 208h24z" />
    <glyph glyph-name="numbersign" unicode="#" horiz-adv-x="662" 
d="M516 470l-69 -220h110l-7 -22h-110l-72 -228h-23l72 228h-228l-72 -228h-23l72 228h-117l7 22h117l69 220h-117l7 22h117l62 198h23l-62 -198h228l62 198h23l-62 -198h110l-7 -22h-110zM493 470h-228l-69 -220h228z" />
    <glyph glyph-name="dollar" unicode="$" horiz-adv-x="562" 
d="M520 689l-3.99902 -18.9971c-60 4.66699 -109.667 7.33398 -149 8.00098l-62 -323l59 -25c52 -22.667 86 -46.5 102 -71.5s20.667 -62.167 14 -111.5c-4 -28.667 -11 -52.834 -21 -72.501s-21.333 -35.167 -34 -46.5s-29.834 -19.833 -51.501 -25.5
s-42.5 -9.33398 -62.5 -11.001s-46 -2.5 -78 -2.5l-24 -124h-21l24 124c-62 1.33301 -118.667 5 -170 11l4 19c58.667 -4.66699 115.667 -7 171 -7l63 327l-67 28c-48 20.667 -79.833 44 -95.5 70s-20.834 62.333 -15.501 109c4 29.333 11 53.833 21 73.5s21.167 35 33.5 46
s28.833 19.167 49.5 24.5s40 8.66602 58 9.99902s41.333 1.66602 70 0.999023h16l20 103h21l-20 -104c58.667 -2 108.334 -5.66699 149.001 -11zM346.001 678.003l-30 0.000976562c-23.333 0 -41.5 -0.5 -54.5 -1.5s-28.333 -3.83301 -46 -8.5s-31.5 -11.5 -41.5 -20.5
s-19.333 -22.333 -28 -40s-14.667 -39.5 -18 -65.5c-4 -38.667 -0.333008 -68.834 11 -90.501s36.333 -41.167 75 -58.5l71 -30zM238.001 12.0039h8.00098c68.667 1.33301 118.167 10.5 148.5 27.5s50.166 54.167 59.499 111.5c6 42.667 2.83301 74.167 -9.5 94.5
s-39.5 39.833 -81.5 58.5l-63 26z" />
    <glyph glyph-name="percent" unicode="%" horiz-adv-x="878" 
d="M264 702c55.333 0 92.166 -16.333 110.499 -49s22.5 -85 12.5 -157c-10 -70.667 -28.5 -122 -55.5 -154s-67.167 -48 -120.5 -48c-55.333 0 -92.166 16.333 -110.499 49s-22.5 85 -12.5 157c10 71.333 28 122.833 54 154.5s66.667 47.5 122 47.5zM168 0h-24l577 690h24z
M266 683c-50 0 -86.1689 -14.333 -108.502 -43s-38.166 -76.667 -47.499 -144c-9.33301 -64.667 -6.66602 -111.334 8.00098 -140.001s45 -43 91 -43c48.667 0 84.667 14.667 108 44s39.333 77 48 143c8.66699 66.667 6 113.834 -8 141.501s-44.333 41.5 -91 41.5z
M682.998 401c55.333 0 92.166 -16.333 110.499 -49s22.5 -85 12.5 -157c-10 -70.667 -28.5 -122 -55.5 -154s-67.167 -48 -120.5 -48c-55.333 0 -92.166 16.333 -110.499 49s-22.5 85 -12.5 157c10 71.333 28 122.833 54 154.5s66.667 47.5 122 47.5zM684.998 382
c-50 0 -86.1689 -14.333 -108.502 -43s-38.166 -76.667 -47.499 -144c-9.33301 -64.667 -6.66602 -111.334 8.00098 -140.001s45 -43 91 -43c48.667 0 84.667 14.667 108 44s39.333 77 48 143c8.66699 66.667 6 113.834 -8 141.501s-44.333 41.5 -91 41.5z" />
    <glyph glyph-name="ampersand" unicode="&#x26;" horiz-adv-x="791" 
d="M742 347l-146.002 0.00195312c-12.667 -75.333 -35.667 -140.666 -69 -195.999c-34.667 -58.667 -75 -99.834 -121 -123.501s-101 -36.5 -165 -38.5c-76.667 -2.66699 -129.667 9.66602 -159 36.999s-38 77.333 -26 150c10.667 61.333 32.334 106.333 65.001 135
s78.667 43.667 138 45v4c-50.667 3.33301 -84.5 18.666 -101.5 45.999s-21.167 66.333 -12.5 117c12 68.667 35.833 115 71.5 139s92.834 36 171.501 36c58 0 109.667 -7.66699 155 -23l-4 -18c-48 12 -99 18 -153 18c-70.667 0 -121.5 -10 -152.5 -30
s-52.167 -61 -63.5 -123c-10.667 -60 -2.83398 -100.667 23.499 -122s76.5 -32 150.5 -32h231c6.66699 42.667 9.33398 93.667 8.00098 153h24c0 -61.333 -2.66699 -112.333 -8 -153h149zM571.998 347.002l-228.998 0.00292969c-44 -0.666992 -79 -2.83398 -105 -6.50098
s-50.5 -11.5 -73.5 -23.5s-40.833 -29.667 -53.5 -53s-22.334 -54 -29.001 -92c-3.33301 -20 -5 -37.833 -5 -53.5s1.5 -29 4.5 -40s7.83301 -20.667 14.5 -29s14 -14.833 22 -19.5s17.667 -8.33398 29 -11.001s22.5 -4.5 33.5 -5.5s23.833 -1.5 38.5 -1.5
c69.333 0 126.666 11.667 171.999 35s84 62 116 116c31.333 51.333 53 112.666 65 183.999z" />
    <glyph glyph-name="quotesingle" unicode="'" horiz-adv-x="194" 
d="M133 482h-20l27 208h24z" />
    <glyph glyph-name="parenleft" unicode="(" horiz-adv-x="352" 
d="M374 790l4.00293 -18c-79.333 -38 -141.833 -94.333 -187.5 -169s-76.834 -172 -93.501 -292c-16.667 -117.333 -12.834 -213 11.499 -287s70.5 -131 138.5 -171l-5 -18c-149.333 74.667 -206.333 235.667 -171 483c17.333 123.333 50.666 223.333 99.999 300
s117 134 203 172z" />
    <glyph glyph-name="parenright" unicode=")" horiz-adv-x="352" 
d="M111 772l3.99902 18.0029c75.333 -36.667 127.333 -94.334 156 -173.001s34 -182.334 16 -311.001c-17.333 -123.333 -50.5 -223 -99.5 -299s-117.167 -133.333 -204.5 -172l-3 18c79.333 40 141.833 97.5 187.5 172.5s76.834 171.5 93.501 289.5
c33.333 231.333 -16.667 383.666 -150 456.999z" />
    <glyph glyph-name="asterisk" unicode="*" horiz-adv-x="449" 
d="M265 536l77 -130l-20 -11l-67 125l-102 -124l-17 15l112 126l20 153h22zM234 548l-2 -9l-5 -8l-121 38l9 22zM417 568l-132 -37l-3 8l1 9l129 42z" />
    <glyph glyph-name="plus" unicode="+" horiz-adv-x="551" 
d="M482 286h-197l-27 -187h-21l26 187h-198l4 22h197l26 187h23l-27 -187h198z" />
    <glyph glyph-name="comma" unicode="," horiz-adv-x="205" 
d="M70 86l12.001 0.000976562c6 0 8.66699 -3.66699 8 -11l-10 -66c-4.66699 -35.333 -17 -77 -37 -125l-15 5c9.33301 31.333 17.666 68.666 24.999 111.999c-5.33301 0 -7.33301 3.33301 -6 10l10 64c0.666992 7.33301 5 11 13 11z" />
    <glyph glyph-name="hyphen" unicode="-" horiz-adv-x="481" 
d="M389 240h-311l3 22h311z" />
    <glyph glyph-name="period" unicode="." horiz-adv-x="205" 
d="M69 86h11.002c8 0 11.333 -4.33301 10 -13l-9 -62c-0.666992 -7.33301 -5 -11 -13 -11h-10c-8.66699 -0 -12.334 4.33301 -11.001 13l9 61c1.33301 8 5.66602 12 12.999 12z" />
    <glyph glyph-name="slash" unicode="/" horiz-adv-x="497" 
d="M17 -59h-27l496 749h27z" />
    <glyph glyph-name="zero" unicode="0" horiz-adv-x="582" 
d="M347 702c79.333 0 131.334 -28.5 156.001 -85.5s28 -148.167 10 -273.5c-17.333 -124.667 -45.833 -215 -85.5 -271s-98.5 -84 -176.5 -84c-79.333 0 -131.333 28.5 -156 85.5s-28.334 148.167 -11.001 273.5c17.333 124 46 214.167 86 270.5s99 84.5 177 84.5z
M348.001 679c-70.667 0 -123.833 -26.3311 -159.5 -78.998s-62.167 -138.334 -79.5 -257.001c-16 -116.667 -13.667 -201.167 7 -253.5s65.334 -78.5 134.001 -78.5c70 0 123 26.667 159 80s62.333 138.666 79 255.999c16.667 116.667 14.667 201.167 -6 253.5
s-65.334 78.5 -134.001 78.5z" />
    <glyph glyph-name="one" unicode="1" horiz-adv-x="373" 
d="M206 0l-24.999 0.000976562l87 619c1.33301 11.333 4.66602 26.666 9.99902 45.999l-196 -64l-3 16l199 73h25z" />
    <glyph glyph-name="two" unicode="2" horiz-adv-x="548" 
d="M124 657l-5.99902 18.002c76.667 18 143 27 199 27c70.667 0 120.834 -9.33301 150.501 -28s40.5 -56 32.5 -112c-6 -44.667 -22.333 -86.834 -49 -126.501s-68.667 -88.167 -126 -145.5l-270 -268h117h283l-3 -22h-434l2 15c1.33301 4.66699 3.66602 9 6.99902 13
l279 277c55.333 55.333 96.166 103.666 122.499 144.999s41.833 82.666 46.5 123.999c2.66699 23.333 1 42.333 -5 57s-16.667 25.334 -32 32.001s-31.333 11 -48 13s-39 3 -67 3c-62 0 -128.333 -7.33301 -199 -22z" />
    <glyph glyph-name="three" unicode="3" horiz-adv-x="544" 
d="M131 667l-6.00195 17.9971c66 11.333 125.333 17 178 17c76.667 0 128.667 -11.667 156 -35s36.666 -65.333 27.999 -126c-14 -100 -58 -157.333 -132 -172l-2 -4c44 -6.66699 74 -26.167 90 -58.5s20.667 -71.166 14 -116.499c-8 -55.333 -31.833 -101.833 -71.5 -139.5
s-96.5 -58.5 -170.5 -62.5c-65.333 -3.33301 -130 2.33398 -194 17.001l7 18c56 -12 116.667 -16 182 -12c130.667 8.66699 205 69.667 223 183c16.667 107.333 -32.666 161.333 -147.999 162h-130l3 18l128 3c104 2 162.667 57.667 176 167
c6.66699 52.667 -1.16602 88.334 -23.499 107.001s-67.5 28 -135.5 28c-53.333 0 -110.666 -4 -171.999 -12z" />
    <glyph glyph-name="four" unicode="4" horiz-adv-x="590" 
d="M524 200l-82 -3l-28 -197h-25l28 196h-327c-20.667 0 -35 8.5 -43 25.5s-5.66699 34.833 7 53.5l279 415h29l-285 -424c-8 -12 -9.83301 -23 -5.5 -33s12.833 -15 25.5 -15h323l32 225l23 117h18l-48 -342h82z" />
    <glyph glyph-name="five" unicode="5" horiz-adv-x="525" 
d="M490 668h-310.996l-49 -265h54c41.333 0 75.666 -1.33301 102.999 -4s53.166 -8 77.499 -16s42.666 -19.5 54.999 -34.5s21 -34.5 26 -58.5s5.16699 -53.667 0.5 -89c-3.33301 -23.333 -9 -45.333 -17 -66s-20.5 -42.5 -37.5 -65.5s-42.167 -41.833 -75.5 -56.5
s-73 -23 -119 -25c-56 -2 -112.333 7.33301 -169 28l6 18c54 -18 107.333 -26 160 -24c40 1.33301 75 8.33301 105 21s53.167 29.167 69.5 49.5s28.5 40.5 36.5 60.5s13.667 41.333 17 64c10.667 77.333 -4.66602 126 -45.999 146s-123 30 -245 30h-13
c-4.66699 0 -8.33398 1.5 -11.001 4.5s-3.33398 6.5 -2.00098 10.5l55 294h334z" />
    <glyph glyph-name="six" unicode="6" horiz-adv-x="562" 
d="M507 690l-7.99902 -18c-32.667 5.33301 -69 8 -109 8c-42 0 -76.333 -3.83301 -103 -11.5s-52 -23.5 -76 -47.5s-43.667 -58.833 -59 -104.5s-28.333 -105.5 -39 -179.5l-2 -15c30.667 41.333 62.667 70.833 96 88.5s73.333 27.834 120 30.501c70 4 117 -11.667 141 -47
s30 -95.333 18 -180c-20 -150.667 -95.333 -226 -226 -226c-65.333 0 -112.833 13 -142.5 39s-45 64.833 -46 116.5s4.16699 116.5 15.5 194.5s25.333 141.333 42 190s38 85.667 64 111s53.667 42.166 83 50.499s67 12.5 113 12.5c45.333 0 84.666 -4 117.999 -12z
M326.001 419c-42 -2.66699 -79.165 -12.333 -111.498 -29s-68.166 -48 -107.499 -94c-8.66699 -64.667 -11.834 -118.167 -9.50098 -160.5s16.166 -73.833 41.499 -94.5s65.333 -31 120 -31c115.333 0 182.666 70 201.999 210c10.667 72.667 6.16699 125 -13.5 157
s-60.167 46 -121.5 42z" />
    <glyph glyph-name="seven" unicode="7" horiz-adv-x="499" 
d="M97 690l375.998 0.000976562c16.667 0 26.834 -3.33301 30.501 -10s1.83398 -17.334 -5.49902 -32.001l-314 -648h-28l306 631c5.33301 12 12.333 24.333 21 37h-386v22z" />
    <glyph glyph-name="eight" unicode="8" horiz-adv-x="612" 
d="M206 356l3.00195 4.00293c-66 7.33301 -92 60.666 -78 159.999c9.33301 64 30.333 109.667 63 137s88.334 41 167.001 41c41.333 0 75.166 -3.5 101.499 -10.5s46 -18 59 -33s21.167 -34 24.5 -57s2.66602 -50.167 -2.00098 -81.5c-7.33301 -50 -20.333 -87.5 -39 -112.5
s-45.667 -39.5 -81 -43.5l-3 -4c40.667 -4.66699 67.667 -21.834 81 -51.501s15.666 -74.5 6.99902 -134.5c-9.33301 -66.667 -30.5 -112.834 -63.5 -138.501s-92.833 -38.834 -179.5 -39.501c-86 -0.666992 -142.833 12.5 -170.5 39.5s-36.5 74.5 -26.5 142.5
c8 59.333 22.5 103.333 43.5 132s52.167 45.334 93.5 50.001zM362.002 675.003c-72.667 0 -123.166 -11.499 -151.499 -34.499s-46.5 -64.5 -54.5 -124.5c-8.66699 -62.667 -2.83398 -102.834 17.499 -120.501s67.833 -26.5 142.5 -26.5c76 0 126.667 9.16699 152 27.5
s42.333 59.5 51 123.5c8.66699 59.333 2.66699 100 -18 122s-67 33 -139 33zM317.003 347.004c-43.333 0 -76.833 -1.99902 -100.5 -5.99902s-44.667 -12.5 -63 -25.5s-31.5 -30.667 -39.5 -53s-15 -53.166 -21 -92.499c-8 -58 -0.333008 -98.333 23 -121s73 -34 149 -34
c78 0 132.167 11.667 162.5 35s49.5 64.666 57.5 123.999c3.33301 26 5.16602 48 5.49902 66s-1.66699 33.667 -6 47s-10.166 23.666 -17.499 30.999s-18.5 13.333 -33.5 18s-31.167 7.66699 -48.5 9s-40 2 -68 2z" />
    <glyph glyph-name="nine" unicode="9" horiz-adv-x="564" 
d="M57 0l7.99707 17.999c40 -5.33301 78.333 -8 115 -8c48 0 86 3.83301 114 11.5s53.667 24.167 77 49.5s41.833 59.833 55.5 103.5s26.834 103.167 39.501 178.5l2 15c-31.333 -40.667 -63.833 -70 -97.5 -88s-73.167 -28.333 -118.5 -31
c-69.333 -3.33301 -116.5 12.834 -141.5 48.501s-30.833 95.167 -17.5 178.5c12 75.333 35.5 131.833 70.5 169.5s89.5 56.5 163.5 56.5c60 0 104.333 -12.833 133 -38.5s44.334 -64.5 47.001 -116.5s-2.33301 -117 -15 -195c-16.667 -104 -37.5 -182.167 -62.5 -234.5
s-55.167 -87 -90.5 -104s-85 -25.5 -149 -25.5c-49.333 0 -93.666 4 -132.999 12zM471.997 393.999c14.667 101.333 12.332 174.332 -7.00098 218.999s-65.333 67 -138 67c-66 0 -114.5 -17.167 -145.5 -51.5s-52.167 -87.166 -63.5 -158.499
c-11.333 -76 -6.16602 -128.833 15.501 -158.5s61.5 -43.167 119.5 -40.5c42 2 79.5 12 112.5 30s68.5 49 106.5 93z" />
    <glyph glyph-name="colon" unicode=":" horiz-adv-x="205" 
d="M149 430h11.002c8 0 11.333 -4.33301 10 -13l-9 -62c-0.666992 -7.33301 -5 -11 -13 -11h-10c-8.66699 0 -12.334 4.33301 -11.001 13l9 61c1.33301 8 5.66602 12 12.999 12zM100.002 86h11.001c8 0 11.333 -4.33301 10 -13l-9 -62c-0.666992 -7.33301 -5 -11 -13 -11
h-10c-8.66699 -0 -12.334 4.33301 -11.001 13l9 61c0.666992 8 5 12 13 12z" />
    <glyph glyph-name="semicolon" unicode=";" horiz-adv-x="207" 
d="M118 430h11.001c8 0 11.333 -4.33301 10 -13l-9 -62c-0.666992 -7.33301 -5 -11 -13 -11h-10c-8.66699 0 -12.334 4.33301 -11.001 13l9 61c0.666992 8 5 12 13 12zM70.001 86l12.001 0.000976562c6 0 8.66699 -3.66699 8 -11l-10 -66c-4.66699 -35.333 -17 -77 -37 -125
l-15 5c9.33301 31.333 17.666 68.666 24.999 111.999c-5.33301 0 -7.33301 3.33301 -6 10l10 64c0.666992 7.33301 5 11 13 11z" />
    <glyph glyph-name="less" unicode="&#x3c;" horiz-adv-x="538" 
d="M481 465l-393 -170l345 -165l-3 -23l-368 177l3 22l419 183z" />
    <glyph glyph-name="equal" unicode="=" horiz-adv-x="592" 
d="M516 385h-417l3 22h417zM487 173h-417l3 22h417z" />
    <glyph glyph-name="greater" unicode="&#x3e;" horiz-adv-x="535" 
d="M474 306l-3 -22l-418 -177l3 24l392 166l-344 170l3 22z" />
    <glyph glyph-name="question" unicode="?" horiz-adv-x="497" 
d="M102 676l-3.99902 17.9971c6.66699 0.666992 16.667 2.16699 30 4.5s22.833 3.83301 28.5 4.5s14.5 1.83398 26.5 3.50098s22.833 2.83398 32.5 3.50098s22 1.16699 37 1.5s31.5 0.5 49.5 0.5c65.333 0 112.833 -13 142.5 -39s40.834 -65.333 33.501 -118
c-4 -28 -14.167 -53.833 -30.5 -77.5s-35 -44.5 -56 -62.5l-63.5 -55c-21.333 -18.667 -40.333 -41.5 -57 -68.5s-27.334 -56.833 -32.001 -89.5l-24 2c4.66699 34.667 15.667 66.334 33 95.001s36.5 52.5 57.5 71.5l63 55.5c21 18 39.667 38.167 56 60.5
s26.166 46.5 29.499 72.5c6 45.333 -3.16699 78.5 -27.5 99.5s-65.5 31.5 -123.5 31.5c-62.667 0 -129.667 -4.66699 -201 -14zM206.001 85.9971h9.00098c8 0 11.667 -4.33301 11 -13l-9 -61c-0.666992 -8 -5 -12 -13 -12h-10c-8.66699 0 -12.334 4.33301 -11.001 13l9 61
c1.33301 8 6 12 14 12z" />
    <glyph glyph-name="at" unicode="@" horiz-adv-x="739" 
d="M127 591l2.00293 17.9971c106.667 2.66699 203 4 289 4c43.333 0 78 -1 104 -3s49.333 -7.5 70 -16.5s35.334 -19.5 44.001 -31.5s15 -31 19 -57s5 -54.167 3 -84.5s-6.33301 -70.833 -13 -121.5c-6.66699 -45.333 -12 -80.166 -16 -104.499s-9.33301 -50.333 -16 -78
s-13.334 -48 -20.001 -61s-15.334 -25.5 -26.001 -37.5s-22.834 -20 -36.501 -24s-30.167 -6 -49.5 -6c-56 0 -79.667 32 -71 96l5 33c-76 -86 -155.333 -129 -238 -129c-22 0 -40.667 3.16699 -56 9.5s-27.166 15.666 -35.499 27.999s-14.666 25.5 -18.999 39.5
s-6.5 30.667 -6.5 50s1 37 3 53s4.66699 34 8 54c15.333 88.667 39.166 147.334 71.499 176.001s91.5 43 177.5 43c48 0 102.667 -4 164 -12l-50 -347c-3.33301 -25.333 -1.33301 -43.666 6 -54.999s21.333 -17 42 -17c18.667 0 34 2.66699 46 8s22.667 13.333 32 24
s17.333 28.334 24 53.001s12.834 52.167 18.501 82.5s12.167 71.833 19.5 124.5c5.33301 36.667 9.16602 67.167 11.499 91.5s3.16602 47.333 2.49902 69s-2.16699 39 -4.5 52s-7.83301 24.667 -16.5 35s-17.5 17.833 -26.5 22.5s-23 8.66699 -42 12s-37.333 5.33301 -55 6
s-41.834 1 -72.501 1h-292zM419.003 148.997l38.002 263.001c-60 4.66699 -104 7 -132 7c-81.333 0 -136.333 -12.833 -165 -38.5s-50.334 -79.834 -65.001 -162.501c-6 -38.667 -9.5 -73.5 -10.5 -104.5s6.16699 -56 21.5 -75s39.666 -28.5 72.999 -28.5
c80 0 160 46.333 240 139z" />
    <glyph glyph-name="A" unicode="A" horiz-adv-x="599" 
d="M462 252h-328.999l-127 -252h-28l344 682c2.66699 5.33301 7 8 13 8h43c7.33301 0 11.666 -3.33301 12.999 -10l152 -680h-26zM457.001 274l-75 339c-6 28 -10 46 -12 54h-29c-3.33301 -6 -8 -15.333 -14 -28s-10.667 -22 -14 -28l-169 -337h313z" />
    <glyph glyph-name="B" unicode="B" horiz-adv-x="610" 
d="M62 0l97 690c48 5.33301 112.667 8 194 8c84 0 140.5 -12.833 169.5 -38.5s38.5 -73.5 28.5 -143.5c-7.33301 -49.333 -22 -86.666 -44 -111.999s-53.667 -40 -95 -44v-4c48 -4.66699 80.5 -22.334 97.5 -53.001s21.167 -75 12.5 -133
c-10 -69.333 -31.667 -116.333 -65 -141s-90 -37 -170 -37c-96.667 0 -171.667 2.66699 -225 8zM139 368l188 -0.000976562c66 0.666992 113.5 11.334 142.5 32.001s47.5 60.667 55.5 120c8.66699 62 0.666992 103.333 -24 124s-74 31 -148 31h-171zM136 346.999
l-47 -330.002c46.667 -1.33301 112.334 -2 197.001 -2c71.333 0 122.166 10.833 152.499 32.5s49.833 63.834 58.5 126.501c9.33301 66.667 1.5 111.834 -23.5 135.501s-74.167 36.167 -147.5 37.5h-190z" />
    <glyph glyph-name="C" unicode="C" 
d="M474 24l5 -18c-55.333 -12 -118.333 -18 -189 -18c-94.667 0 -157.5 26.833 -188.5 80.5s-37.167 146.5 -18.5 278.5c18.667 131.333 50.334 223.333 95.001 276s114 79 208 79c67.333 0 125 -5.66699 173 -17l-7 -18c-48.667 8 -103.667 12 -165 12
c-88 0 -152 -24.5 -192 -73.5s-69 -136.5 -87 -262.5c-17.333 -124 -12.833 -210.333 13.5 -259s82.166 -73 167.499 -73c71.333 0 133 4.33301 185 13z" />
    <glyph glyph-name="D" unicode="D" horiz-adv-x="658" 
d="M62 0l97.001 690c80.667 6 157 9 229 9c92.667 0 154 -26.667 184 -80s36 -145.333 18 -276c-18 -131.333 -49 -222.833 -93 -274.5s-112.333 -77.5 -205 -77.5c-72.667 0 -149.334 3 -230.001 9zM182.001 672l-93 -655.001c122 -2 189.333 -3 202 -3
c84 0 146.333 24.333 187 73s69.667 135.334 87 260.001c16.667 122 12 207.333 -14 256s-80.333 73 -163 73c-57.333 0 -126 -1.33301 -206 -4z" />
    <glyph glyph-name="E" unicode="E" horiz-adv-x="548" 
d="M543 668h-285.999c-26.667 0 -48.334 -7.5 -65.001 -22.5s-26.667 -35.167 -30 -60.5l-28 -205h328l-3 -21h-328l-36 -256c-3.33301 -24 1.33398 -43.5 14.001 -58.5s31 -22.5 55 -22.5h288l1 -18c-66 -2.66699 -164 -4 -294 -4c-30 -0 -53.5 9.83301 -70.5 29.5
s-23.167 44.167 -18.5 73.5l68 486c4 30 16 54.333 36 73s46 28 78 28c131.333 0 229.666 -1.33301 294.999 -4z" />
    <glyph glyph-name="F" unicode="F" horiz-adv-x="530" 
d="M540 668h-279c-25.333 0 -46.5 -7.16699 -63.5 -21.5s-27.5 -34.833 -31.5 -61.5l-29 -209h321l-3 -21h-321l-50 -355h-25l83 589c4.66699 31.333 17.167 56 37.5 74s45.833 27 76.5 27c128 0 224 -1.33301 288 -4z" />
    <glyph glyph-name="G" unicode="G" horiz-adv-x="620" 
d="M583 685l-7.00195 -18c-55.333 8 -117.666 12 -186.999 12c-89.333 0 -154.333 -24.5 -195 -73.5s-69.667 -136.5 -87 -262.5c-15.333 -120.667 -11.333 -206.167 12 -256.5s71.333 -75.5 144 -75.5c40.667 0 78.667 10.667 114 32s74.333 51.333 117 90l37 267h25
l-58 -400h-17l11 107c-75.333 -79.333 -152 -119 -230 -119c-81.333 0 -135.833 27.833 -163.5 83.5s-33.167 147.5 -16.5 275.5c18 131.333 49.833 223.333 95.5 276s115.834 79 210.501 79c75.333 0 140.333 -5.66699 195 -17z" />
    <glyph glyph-name="H" unicode="H" horiz-adv-x="657" 
d="M610 690l-97 -690h-25l50 359h-401l-50 -359h-25l97 690h25l-43 -309h401l43 309h25z" />
    <glyph glyph-name="I" unicode="I" horiz-adv-x="231" 
d="M87 0h-25l97 690h25z" />
    <glyph glyph-name="J" unicode="J" horiz-adv-x="322" 
d="M279 690l-81 -576c-11.333 -80.667 -57 -120.667 -137 -120c-18.667 0 -40 2 -64 6l5 16h57c66.667 0 105 33.667 115 101l80 573h25z" />
    <glyph glyph-name="K" unicode="K" horiz-adv-x="559" 
d="M268 361v-2.00098c6.66699 -8 13 -17.333 19 -28l201 -331h-28l-214 349h-113c-2 -29.333 -5.33301 -58.333 -10 -87l-37 -262h-24l97 690h24l-33 -237c-3.33301 -25.333 -8 -52.666 -14 -81.999h112l289 319h31l-267 -297c-5.33301 -6 -16.333 -16.667 -33 -32z" />
    <glyph glyph-name="L" unicode="L" horiz-adv-x="501" 
d="M181 690l-82.001 -587c-3.33301 -24 1.33398 -43.5 14.001 -58.5s31 -22.5 55 -22.5h273l-1 -18c-62 -2.66699 -154.333 -4 -277 -4c-30 -0 -53.5 9.83301 -70.5 29.5s-23.167 44.167 -18.5 73.5l82 587h25z" />
    <glyph glyph-name="M" unicode="M" horiz-adv-x="855" 
d="M734 690l41.9971 0.00195312c10.667 0 15.334 -5.33301 14.001 -16l-65 -674h-25l64 668h-24l-310 -600c-2.66699 -5.33301 -7 -8 -13 -8h-42c-7.33301 0 -11.666 3.33301 -12.999 10l-142 598h-24l-124 -668h-25l125 676c2 9.33301 7.33301 14 16 14h41
c7.33301 0 11.666 -3.33301 12.999 -10l120 -505c2.66699 -10.667 6.33398 -26.334 11.001 -47.001s8.33398 -36.334 11.001 -47.001h27l49 98l261 503c2.66699 5.33301 7 8 13 8z" />
    <glyph glyph-name="N" unicode="N" horiz-adv-x="688" 
d="M641 690l-95.002 -676c-0.666992 -9.33301 -6 -14 -16 -14h-41c-8 0 -13.667 4 -17 12l-238 589l-14.5 34c-6.33301 14.667 -10.833 25.667 -13.5 33h-25c-1.33301 -8.66699 -3.16602 -21.667 -5.49902 -39s-4.16602 -30.333 -5.49902 -39l-83 -590h-25l95 676
c2 9.33301 7.33301 14 16 14h38c8.66699 0 14.667 -4 18 -12l233 -576c4 -9.33301 9.33301 -23 16 -41s12 -31.333 16 -40h28l12 85l82 584h25z" />
    <glyph glyph-name="O" unicode="O" horiz-adv-x="660" 
d="M386 702c94.667 0 157.499 -26.833 188.499 -80.5s36.833 -146.5 17.5 -278.5c-18 -131.333 -49.333 -223.333 -94 -276s-114 -79 -208 -79c-94.667 0 -157.5 26.833 -188.5 80.5s-37.167 146.5 -18.5 278.5c18.667 131.333 50.334 223.333 95.001 276s114 79 208 79z
M385.999 679c-86.667 0 -150.334 -24.667 -191.001 -74s-69.667 -136.666 -87 -261.999c-16.667 -123.333 -11.667 -209.5 15 -258.5s82 -73.5 166 -73.5c86.667 0 150.334 24.667 191.001 74s69.667 136.666 87 261.999c17.333 124 13 210.333 -13 259s-82 73 -168 73z" />
    <glyph glyph-name="P" unicode="P" horiz-adv-x="580" 
d="M62 0l96.999 690c54 5.33301 127.333 8 220 8c74.667 0 124.834 -14.5 150.501 -43.5s33.167 -82.5 22.5 -160.5c-11.333 -78 -33.333 -131.167 -66 -159.5s-86 -42.5 -160 -42.5c-87.333 0 -153 1.33301 -197 4l-42 -296h-25zM130.999 315h195
c66 1.33301 113.333 14.5 142 39.5s48 72.5 58 142.5c10 69.333 4.33301 116.333 -17 141s-64.333 37 -129 37c-88 0 -154 -0.666992 -198 -2z" />
    <glyph glyph-name="Q" unicode="Q" horiz-adv-x="660" 
d="M386 702c94.667 0 157.499 -26.833 188.499 -80.5s36.833 -146.5 17.5 -278.5c-18 -131.333 -49.333 -223.333 -94 -276s-114 -79 -208 -79c-94.667 0 -157.5 26.833 -188.5 80.5s-37.167 146.5 -18.5 278.5c18.667 131.333 50.334 223.333 95.001 276s114 79 208 79z
M385.999 679c-86.667 0 -150.334 -24.667 -191.001 -74s-69.667 -136.666 -87 -261.999c-16.667 -123.333 -11.667 -209.5 15 -258.5s82 -73.5 166 -73.5c86.667 0 150.334 24.667 191.001 74s69.667 136.666 87 261.999c17.333 124 13 210.333 -13 259s-82 73 -168 73z
M235.999 -65l12 14c54 -42 124.667 -70.333 212 -85l-8 -25c-89.333 12 -161.333 44 -216 96z" />
    <glyph glyph-name="R" unicode="R" horiz-adv-x="606" 
d="M62 0l97 689.999c54 5.33301 127.333 8 220 8c74.667 0 124.834 -13.833 150.501 -41.5s33.5 -79.167 23.5 -154.5c-8.66699 -60.667 -24.834 -104.5 -48.501 -131.5s-58.834 -43.833 -105.501 -50.5v-4c32 -10.667 53.333 -42.667 64 -96l45 -220h-27l-44 219
c-6 32 -17.167 55 -33.5 69s-38.166 21.333 -65.499 22c-26 0.666992 -55.167 1.33398 -87.5 2.00098s-57.5 1.16699 -75.5 1.5s-32.667 0.5 -44 0.5l-44 -314h-25zM134 332.999h195c65.333 1.33301 112.333 14 141 38s47.667 69 57 135s3.33301 110.667 -18 134
s-64.333 35 -129 35c-88 0 -154 -0.666992 -198 -2z" />
    <glyph glyph-name="S" unicode="S" horiz-adv-x="553" 
d="M358 304l-149.998 63.0039c-48 20.667 -79.833 44 -95.5 70s-20.834 62.333 -15.501 109c4 29.333 11 53.833 21 73.5s21.167 35 33.5 46s28.833 19.167 49.5 24.5s40 8.66602 58 9.99902s41.333 1.66602 70 0.999023c64.667 -0.666992 126.667 -4.66699 186 -12l-4 -19
c-79.333 5.33301 -146 8 -200 8c-23.333 0 -41.5 -0.5 -54.5 -1.5s-28.333 -3.83301 -46 -8.5s-31.5 -11.5 -41.5 -20.5s-19.333 -22.333 -28 -40s-14.667 -39.5 -18 -65.5c-4 -38.667 -0.333008 -68.834 11 -90.501s36.333 -41.167 75 -58.5l150 -63
c52 -22.667 86 -46.5 102 -71.5s20.667 -62.167 14 -111.5c-4 -28.667 -11.167 -52.834 -21.5 -72.501s-21.833 -35.167 -34.5 -46.5s-29.834 -19.833 -51.501 -25.5s-42.5 -9.33398 -62.5 -11.001s-46 -2.5 -78 -2.5c-65.333 0 -128.666 3.66699 -189.999 11l4 19
c68 -5.33301 134.667 -7.66602 200 -6.99902c68.667 1.33301 118.167 10.5 148.5 27.5s50.166 54.167 59.499 111.5c6 42.667 2.83301 74.167 -9.5 94.5s-39.5 39.833 -81.5 58.5z" />
    <glyph glyph-name="T" unicode="T" horiz-adv-x="558" 
d="M587 668h-243l-94 -668h-25l94 668h-242l3 22h510z" />
    <glyph glyph-name="U" unicode="U" horiz-adv-x="667" 
d="M625 690l-60.999 -436.001c-13.333 -96.667 -40.333 -165.167 -81 -205.5s-103.667 -60.5 -189 -60.5c-86.667 0 -145.167 20.5 -175.5 61.5s-38.833 109.833 -25.5 206.5l61 434h25l-61 -436c-12.667 -89.333 -5.83398 -152.166 20.499 -188.499
s77.833 -54.5 154.5 -54.5c77.333 0 134.5 18.5 171.5 55.5s61.833 100.167 74.5 189.5l61 434h25z" />
    <glyph glyph-name="V" unicode="V" horiz-adv-x="587" 
d="M618 690l-332 -682c-2 -5.33301 -6.33301 -8 -13 -8h-42c-6.66699 -0 -10.667 3.33301 -12 10l-141 680h26l122 -595c7.33301 -36 12 -60.667 14 -74h27l36 77l288 592h27z" />
    <glyph glyph-name="W" unicode="W" horiz-adv-x="926" 
d="M949 690l-278.004 -681.002c-3.33301 -6 -8.33301 -9 -15 -9h-42c-7.33301 0 -11.666 4 -12.999 12l-65 580c-5.33301 44 -8.33301 69 -9 75h-25l-31 -77l-227 -580c-2.66699 -6.66699 -7.66699 -10 -15 -10h-43c-7.33301 0 -11.666 3.66699 -12.999 11l-87 679h25
l76 -600c0.666992 -7.33301 1.83398 -18.666 3.50098 -33.999s3.16699 -27 4.5 -35h29c2.66699 8 6.83398 19.833 12.501 35.5s10.167 27.167 13.5 34.5l232 589c2.66699 6.66699 7.33398 10 14.001 10h39c8 0 12.667 -4 14 -12l67 -588
c1.33301 -7.33301 2.66602 -18.666 3.99902 -33.999l3 -35h29l27 70l244 599h26z" />
    <glyph glyph-name="X" unicode="X" horiz-adv-x="590" 
d="M345 360l168 -360h-27l-163 350h-35l-262 -350h-30l270 361l-160 329h27l154 -318h37l244 318h29z" />
    <glyph glyph-name="Y" unicode="Y" horiz-adv-x="535" 
d="M274 257l-37 -257h-25l37 257l-176 433h26l134 -334l28 -69h6l47 70l227 333h28z" />
    <glyph glyph-name="Z" unicode="Z" horiz-adv-x="553" 
d="M552 667l-510 -644h425l-4 -23h-455l4 23l509 644h-416l3 23h447z" />
    <glyph glyph-name="bracketleft" unicode="[" horiz-adv-x="308" 
d="M324 746h-118.999c-8.66699 0 -13.667 -4.33301 -15 -13l-121 -865c-1.33301 -7.33301 1.66699 -11 9 -11h121l-3 -22h-124c-9.33301 0 -16.5 3.16699 -21.5 9.5s-6.83301 13.833 -5.5 22.5l122 871c3.33301 20 14.666 30 33.999 30h126z" />
    <glyph glyph-name="backslash" unicode="\" horiz-adv-x="482" 
d="M401 -59h-24l-289 749h24z" />
    <glyph glyph-name="bracketright" unicode="]" horiz-adv-x="308" 
d="M114 768l123.997 0.000976562c8.66699 0 15.834 -3 21.501 -9s7.83398 -13.667 6.50098 -23l-123 -871c-0.666992 -8.66699 -4.16699 -15.834 -10.5 -21.501s-14.166 -8.5 -23.499 -8.5h-126l3 22h119c8.66699 0 13.667 4.33301 15 13l122 865
c1.33301 7.33301 -2 11 -10 11h-121z" />
    <glyph glyph-name="asciicircum" unicode="^" horiz-adv-x="392" 
d="M382 377l-14 -11l-123 182h-8l-175 -182l-13 12l185 197h18z" />
    <glyph glyph-name="underscore" unicode="_" horiz-adv-x="600" 
d="M478 -22h-431l3 22h431z" />
    <glyph glyph-name="grave" unicode="`" horiz-adv-x="277" 
d="M261 562l-14 -12l-134 141l19 18z" />
    <glyph glyph-name="a" unicode="a" horiz-adv-x="564" 
d="M412 0l15 122c-39.333 -43.333 -81.5 -76.5 -126.5 -99.5s-84.5 -34.5 -118.5 -34.5c-58.667 0 -96 20.667 -112 62s-16 105.333 0 192c16 100.667 40 167.5 72 200.5s91 49.5 177 49.5c47.333 0 107 -4 179 -12l-68 -480h-18zM428 151l43.002 312
c-72.667 4.66699 -122.334 7 -149.001 7c-34 0 -61.833 -2 -83.5 -6s-40.834 -10.667 -57.501 -20s-30.167 -23.5 -40.5 -42.5s-19.166 -41 -26.499 -66s-14 -57.5 -20 -97.5c-14.667 -79.333 -15.834 -137 -3.50098 -173s42.833 -54 91.5 -54
c33.333 0 72.833 12.5 118.5 37.5s88.167 59.167 127.5 102.5z" />
    <glyph glyph-name="b" unicode="b" horiz-adv-x="561" 
d="M172 700l-30.001 -201c-7.33301 -48.667 -15 -93.667 -23 -135c97.333 85.333 177 128 239 128c56.667 0 94.5 -18.833 113.5 -56.5s21.833 -103.5 8.5 -197.5c-14 -102 -36.5 -169.167 -67.5 -201.5s-84.5 -48.5 -160.5 -48.5c-57.333 0 -123.666 10.333 -198.999 31h-1
l96 681h24zM120.999 343l-43 -307c58 -16.667 114.667 -25 170 -25c72.667 0 122.167 15.333 148.5 46s45.833 92.334 58.5 185.001c12 86 11 145.333 -3 178s-46.667 49 -98 49c-30.667 0 -63.5 -9.83301 -98.5 -29.5s-79.833 -51.834 -134.5 -96.501z" />
    <glyph glyph-name="c" unicode="c" horiz-adv-x="475" 
d="M391 23l2.99902 -18.001c-50.667 -11.333 -99.334 -17 -146.001 -17c-80.667 0 -135.167 19.167 -163.5 57.5s-36.166 103.833 -23.499 196.5c12.667 92 38 156.667 76 194s96.667 56 176 56c54.667 0 99.334 -5.66699 134.001 -17l-7 -18c-29.333 8 -70 12 -122 12
c-74 0 -128 -16.5 -162 -49.5s-57.333 -93.167 -70 -180.5c-12 -87.333 -6 -147.166 18 -179.499s72.667 -48.5 146 -48.5c53.333 0 100.333 4 141 12z" />
    <glyph glyph-name="d" unicode="d" horiz-adv-x="562" 
d="M496 480l-67.999 -480.001h-18l14 121c-82.667 -88.667 -167 -133 -253 -133c-54 0 -88.333 21.833 -103 65.5s-14.667 106.5 0 188.5c14.667 100.667 38.5 167.5 71.5 200.5s92.833 49.5 179.5 49.5c42.667 0 94.667 -3.33301 156 -10
c1.33301 24.667 4.66602 55.334 9.99902 92.001l18 126h24zM426.001 149.999l42.998 313c-72.667 4.66699 -122 7 -148 7c-81.333 0 -136.333 -14.667 -165 -44s-50 -92 -64 -188c-13.333 -75.333 -14.333 -132 -3 -170s39.333 -57 84 -57c38.667 0 80.334 12 125.001 36
s87.334 58.333 128.001 103z" />
    <glyph glyph-name="e" unicode="e" horiz-adv-x="526" 
d="M420 24l3.00098 -18.001c-44.667 -12 -107.667 -18 -189 -18c-78.667 0 -130.5 19.167 -155.5 57.5s-30.5 104.5 -16.5 198.5c8 51.333 18.333 93.333 31 126s29.667 57.834 51 75.501s44.666 29.834 69.999 36.501s57.333 10 96 10c64 0 110.167 -10.5 138.5 -31.5
s35.833 -59.833 22.5 -116.5c-9.33301 -38.667 -25.5 -65.834 -48.5 -81.501s-59.833 -26.167 -110.5 -31.5l-231 -25c-8.66699 -76 -1 -127.667 23 -155s70.667 -41 140 -41c52 0 110.667 4.66699 176 14zM84.001 226.999l229 26.001c44.667 5.33301 76 14.166 94 26.499
s31.333 34.5 40 66.5c3.33301 18 5.5 33.667 6.5 47s-1.5 24.5 -7.5 33.5s-12.5 16.333 -19.5 22s-16.833 10.167 -29.5 13.5s-25 5.5 -37 6.5s-26.333 1.5 -43 1.5c-38.667 0 -69.5 -2.5 -92.5 -7.5s-44.333 -15.667 -64 -32s-35 -39.5 -46 -69.5s-20.5 -70 -28.5 -120z
" />
    <glyph glyph-name="f" unicode="f" horiz-adv-x="351" 
d="M420 692l-109.003 0.000976562c-40 0 -69.667 -8.5 -89 -25.5s-31.666 -45.833 -36.999 -86.5l-14 -100h178l-4 -22h-177l-76 -536c-6 -46 -19.167 -79.5 -39.5 -100.5s-51.166 -31.5 -92.499 -31.5c-36.667 0 -66 1.33301 -88 4l1 18h79
c36.667 0 63.834 8.33301 81.501 25s29.167 45.667 34.5 87l75 534h-87l3 17l88 5l14 102c6 45.333 20 78.666 42 99.999s55.333 32 100 32c48.667 0 88 -1.33301 118 -4z" />
    <glyph glyph-name="g" unicode="g" horiz-adv-x="569" 
d="M506 480l-76 -486c-20.667 -130.667 -93.334 -202 -218.001 -214c-62 -6 -125.333 -5.33301 -190 2l3 18c70.667 -4 130.334 -3.33301 179.001 2c59.333 6 105.333 24.5 138 55.5s54 77.167 64 138.5c10 64 18.333 107.667 25 131c-40 -44.667 -83 -79 -129 -103
s-86 -36 -120 -36c-58.667 0 -96 20.667 -112 62s-16 105.333 0 192c16 100.667 40 167.5 72 200.5s91 49.5 177 49.5c47.333 0 107 -4 179 -12h8zM430 153l48.001 310c-102.667 4.66699 -154.667 7 -156 7c-34 0 -61.833 -2 -83.5 -6s-40.834 -10.667 -57.501 -20
s-30.167 -23.5 -40.5 -42.5s-19.166 -41 -26.499 -66s-14 -57.5 -20 -97.5c-14.667 -79.333 -15.834 -137 -3.50098 -173s42.833 -54 91.5 -54c34 0 73.833 12.667 119.5 38s88.5 60 128.5 104z" />
    <glyph glyph-name="h" unicode="h" horiz-adv-x="567" 
d="M175 700l-29.999 -216c-6 -42.667 -13 -83 -21 -121c101.333 86 184.666 129 249.999 129c87.333 0 125 -44 113 -132l-51 -360h-24l51 359c5.33301 38.667 0.5 66.667 -14.5 84s-41.167 26 -78.5 26c-33.333 0 -69 -10.333 -107 -31s-84.333 -53.667 -139 -99l-48 -339
h-24l99 700h24z" />
    <glyph glyph-name="i" unicode="i" horiz-adv-x="218" 
d="M158 679h9.99902c8.66699 0 12.334 -4.33301 11.001 -13l-9 -62c-0.666992 -7.33301 -4.66699 -11 -12 -11h-10c-9.33301 0 -13.333 4.33301 -12 13l9 62c0.666992 7.33301 5 11 13 11zM79.999 0h-24l68 480h24z" />
    <glyph glyph-name="j" unicode="j" horiz-adv-x="219" 
d="M158 679h9.99902c8.66699 0 12.334 -4.33301 11.001 -13l-9 -62c-0.666992 -7.33301 -4.66699 -11 -12 -11h-10c-9.33301 0 -13.333 4.33301 -12 13l9 62c0.666992 7.33301 5 11 13 11zM147.999 480l-74 -527c-8 -58.667 -37.667 -113 -89 -163l-12 10
c44 49.333 69.667 101 77 155l74 525h24z" />
    <glyph glyph-name="k" unicode="k" horiz-adv-x="487" 
d="M436 480h25c-38 -92 -101.333 -163.333 -190 -214l12.5 -25c5.66699 -11.333 9.83398 -20 12.501 -26l108 -215h-27l-127 254c-40.667 -21.333 -89.334 -40 -146.001 -56l-28 -198h-24l99 700h24l-54 -390c-4.66699 -31.333 -10.334 -61.333 -17.001 -90
c166.667 48 277.334 134.667 332.001 260z" />
    <glyph glyph-name="l" unicode="l" horiz-adv-x="265" 
d="M176 700l-85 -605c-8 -52.667 14.667 -79 68 -79h59l1 -16c-12.667 -4 -34 -6 -64 -6c-31.333 0 -55 9 -71 27s-21.667 43 -17 75l85 604h24z" />
    <glyph glyph-name="m" unicode="m" horiz-adv-x="876" 
d="M138 480l-15.0029 -117c46.667 42.667 87.834 74.834 123.501 96.501s69.834 32.5 102.501 32.5c84 0 122 -41.333 114 -124c90 82.667 163.333 124 220 124c87.333 0 125 -44 113 -132l-51 -360h-24l51 359c5.33301 38.667 0.5 66.667 -14.5 84s-41.167 26 -78.5 26
c-30 0 -61.167 -9.83301 -93.5 -29.5s-74.166 -51.834 -125.499 -96.501l-49 -343h-24l51 359c5.33301 38.667 0.5 66.667 -14.5 84s-41.167 26 -78.5 26c-30 0 -61.5 -9.83301 -94.5 -29.5s-75.167 -52.167 -126.5 -97.5l-48 -342h-24l68 480h18z" />
    <glyph glyph-name="n" unicode="n" horiz-adv-x="567" 
d="M138 480l-15.001 -117c102 86 185.667 129 251 129c87.333 0 125 -44 113 -132l-51 -360h-24l51 359c5.33301 38.667 0.5 66.667 -14.5 84s-41.167 26 -78.5 26c-33.333 0 -69.166 -10.333 -107.499 -31s-84.5 -53 -138.5 -97l-48 -341h-24l68 480h18z" />
    <glyph glyph-name="o" unicode="o" 
d="M304 492c78 0 130.333 -19 157 -57s33.334 -103.667 20.001 -197c-13.333 -92 -38 -156.667 -74 -194s-92.333 -56 -169 -56c-78 0 -130.333 19 -157 57s-33.334 103.667 -20.001 197c13.333 92 38 156.667 74 194s92.333 56 169 56zM304 469
c-68.667 0 -119.167 -17 -151.5 -51s-54.5 -94 -66.5 -180c-12 -85.333 -6.83301 -144.5 15.5 -177.5s67.833 -49.5 136.5 -49.5s119.167 17 151.5 51s54.5 94 66.5 180c12 85.333 6.83301 144.5 -15.5 177.5s-67.833 49.5 -136.5 49.5z" />
    <glyph glyph-name="p" unicode="p" horiz-adv-x="563" 
d="M138 480l-14.002 -120.999c39.333 43.333 81.5 76.333 126.5 99s84.167 34 117.5 34c58.667 0 95.5 -19.5 110.5 -58.5s15.5 -104.167 1.5 -195.5c-15.333 -100.667 -39.166 -167.5 -71.499 -200.5s-91.5 -49.5 -177.5 -49.5c-44 0 -96.667 3.33301 -158 10
c-1.33301 -24.667 -4.66602 -55.334 -9.99902 -92.001l-18 -126h-24l31 220l68 480h18zM121.998 330.001l-43 -313c72.667 -4.66699 122.334 -7 149.001 -7c80.667 0 135.334 14.667 164.001 44s50 92 64 188c13.333 79.333 14.166 137 2.49902 173s-41.834 54 -90.501 54
c-33.333 0 -72.833 -12.333 -118.5 -37s-88.167 -58.667 -127.5 -102z" />
    <glyph glyph-name="q" unicode="q" horiz-adv-x="563" 
d="M495 461l-95.999 -681.001h-24l31 212c6 43.333 13.333 88 22 134c-48 -51.333 -90 -87.166 -126 -107.499s-74.667 -30.5 -116 -30.5c-54.667 0 -91.334 18.5 -110.001 55.5s-21.667 103.167 -9 198.5c13.333 100.667 35.833 167.5 67.5 200.5s85.5 49.5 161.5 49.5
c56.667 0 123 -10.333 199 -31zM427.001 148.999l42 294.999c-58 16.667 -114.667 25 -170 25c-72.667 0 -122.5 -15.167 -149.5 -45.5s-46.167 -92.166 -57.5 -185.499c-10.667 -84.667 -9.66699 -143.667 3 -177s44 -50 94 -50c38.667 0 74.5 10 107.5 30
s76.5 56 130.5 108z" />
    <glyph glyph-name="r" unicode="r" horiz-adv-x="383" 
d="M388 492l-7.99902 -23h-16c-32.667 0 -67.334 -10.333 -104.001 -31s-82.334 -54 -137.001 -100l-47 -338h-24l68 480h18l-15 -119c96.667 87.333 178.334 131 245.001 131h20z" />
    <glyph glyph-name="s" unicode="s" horiz-adv-x="498" 
d="M318 201l-159.001 60.001l-21 8c-5.33301 2 -11.666 4.83301 -18.999 8.5s-12.833 7 -16.5 10s-8.33398 7.16699 -14.001 12.5s-9 10.5 -10 15.5s-3.16699 11.333 -6.5 19s-4.16602 15.5 -2.49902 23.5s2.5 17.667 2.5 29c7.33301 46 25.166 75.333 53.499 88
s74.5 18.334 138.5 17.001c66.667 -1.33301 128.667 -5.33301 186 -12l-4 -18c-63.333 4.66699 -123.666 7.33398 -180.999 8.00098c-61.333 1.33301 -103.166 -2.83398 -125.499 -12.501s-36.833 -34.5 -43.5 -74.5c-4.66699 -28.667 -2.16699 -49.667 7.5 -63
s28.5 -25.333 56.5 -36l160 -60c36.667 -13.333 62.5 -28.5 77.5 -45.5s19.833 -43.167 14.5 -78.5c-2.66699 -20.667 -8.16699 -37.834 -16.5 -51.501s-17.666 -24.5 -27.999 -32.5s-24.833 -14.167 -43.5 -18.5s-36.5 -7 -53.5 -8s-39.5 -1.5 -67.5 -1.5
c-60.667 0 -117.334 4 -170.001 12l4 18c55.333 -6 112 -8.66699 170 -8c64.667 1.33301 109.667 7.83301 135 19.5s40.666 36.5 45.999 74.5c4 29.333 0.5 50.166 -10.5 62.499s-30.833 23.833 -59.5 34.5z" />
    <glyph glyph-name="t" unicode="t" horiz-adv-x="341" 
d="M165 458l-51.001 -363c-8 -52.667 14.667 -79 68 -79h89l1 -16c-27.333 -4 -55.666 -6 -84.999 -6c-74 0 -106.333 34 -97 102l51 362h-88l3 17l88 5l21 151h24l-21 -151h178l-4 -22h-177z" />
    <glyph glyph-name="u" unicode="u" horiz-adv-x="556" 
d="M490 480l-68.002 -480.002h-18l15 126c-92 -92 -172.333 -138 -241 -138c-43.333 0 -74.666 11.333 -93.999 34s-25.666 55.334 -18.999 98.001l51 360h24l-51 -359c-10.667 -73.333 20.333 -110 93 -110c34 0 69.5 11.333 106.5 34s80.833 58.334 131.5 107.001l46 328
h24z" />
    <glyph glyph-name="v" unicode="v" horiz-adv-x="503" 
d="M461 480h25.001c-26.667 -106.667 -67.667 -205.334 -123 -296.001c-46 -75.333 -83.333 -129.333 -112 -162c-13.333 -14.667 -30 -22 -50 -22h-29c-6.66699 0 -10.667 3 -12 9l-101 471h25l96 -459h19c9.33301 0 16.666 1.66699 21.999 5s12.333 10 21 20
c28.667 34.667 62.334 84.334 101.001 149.001c55.333 92.667 94.666 187.667 117.999 285z" />
    <glyph glyph-name="w" unicode="w" horiz-adv-x="813" 
d="M169 21h12.002c12.667 0 24.667 7.33301 36 22c29.333 38 58.666 89.333 87.999 154c27.333 60.667 58.666 152.667 93.999 276c1.33301 6 5 8.33301 11 7h25c6.66699 0 10.667 -3 12 -9l69 -450h12c14 0 26.667 8.33301 38 25c42 60.667 73 110.667 93 150
c43.333 84 77 178.667 101 284h25c-26.667 -114 -62.334 -212.667 -107.001 -296c-40 -75.333 -74 -129 -102 -161c-13.333 -15.333 -29.666 -23 -48.999 -23h-19c-6.66699 0 -10.667 3 -12 9l-69 451h-10c-26 -103.333 -56 -193 -90 -269c-14 -32 -31 -65 -51 -99
s-36.333 -58 -49 -72c-12 -13.333 -27.333 -20 -46 -20h-20c-6.66699 0 -10.667 3 -12 9l-91 471h25z" />
    <glyph glyph-name="x" unicode="x" horiz-adv-x="501" 
d="M279 250l147 -250h-27l-141 240h-27l-206 -240h-32l218 251l-136 229h27l129 -218h29l191 218h30z" />
    <glyph glyph-name="y" unicode="y" horiz-adv-x="511" 
d="M462 480l24.999 0.000976562c-40 -150.667 -102 -291.334 -186 -422.001c-56.667 -87.333 -102.834 -151.166 -138.501 -191.499s-75.5 -65.833 -119.5 -76.5l-4 15c34 11.333 66.167 32.666 96.5 63.999s63.833 75 100.5 131h-36c-11.333 -0 -21.166 3.33301 -29.499 10
s-13.833 15.667 -16.5 27l-98 443h26l93 -433c4.66699 -18 15.334 -26.333 32.001 -25h43l27 41c77.333 122.667 139 261.667 185 417z" />
    <glyph glyph-name="z" unicode="z" horiz-adv-x="485" 
d="M455 458l-409 -436h350l-3 -22h-383l3 22l409 436h-344l3 22h377z" />
    <glyph glyph-name="braceleft" unicode="{" horiz-adv-x="298" 
d="M316 768l-2.00195 -17.9971c-38.667 0 -67 -8.83301 -85 -26.5s-29.667 -45.167 -35 -82.5l-28 -205c-6 -39.333 -14.667 -65.333 -26 -78s-33.333 -22.667 -66 -30c30.667 -11.333 50.334 -23.5 59.001 -36.5s10.667 -36.167 6 -69.5l-36 -262
c-5.33301 -36.667 -1.66602 -63.667 11.001 -81s38.334 -26 77.001 -26l-2 -18c-46 0 -77.5 10 -94.5 30s-22.167 52.333 -15.5 97l38 272c2.66699 18.667 1.66699 33 -3 43s-10.334 16.667 -17.001 20s-20 9 -40 17l5 30c31.333 9.33301 50.333 17 57 23
c10 9.33301 17 29.666 21 60.999l31 215c6 45.333 20 77.666 42 96.999s56.333 28.666 103 27.999z" />
    <glyph glyph-name="bar" unicode="|" horiz-adv-x="233" 
d="M63 -169h-22l133 950h22z" />
    <glyph glyph-name="braceright" unicode="}" horiz-adv-x="296" 
d="M112 750l1.99902 18.001c46 0 77.5 -10 94.5 -30s22.167 -52.333 15.5 -97l-30 -215c-4 -30 -3.16699 -49.167 2.5 -57.5s20.5 -16.166 44.5 -23.499c3.33301 -1.33301 6 -2.33301 8 -3l-5 -30c-17.333 -6 -28.666 -10.167 -33.999 -12.5s-12.5 -6.5 -21.5 -12.5
s-15 -13.167 -18 -21.5s-5.5 -19.5 -7.5 -33.5l-38 -272c-6.66699 -44.667 -20.834 -76.667 -42.501 -96s-55.5 -29 -101.5 -29l2 18c38 0 65.833 9 83.5 27s29.167 45.333 34.5 82l37 262c4.66699 34 12.834 57 24.501 69s34.834 23.667 69.501 35
c-30 7.33301 -49 17.666 -57 30.999s-9 39.666 -3 78.999l29 205c5.33301 37.333 1.66602 64.5 -11.001 81.5s-38.667 25.5 -78 25.5z" />
    <glyph glyph-name="asciitilde" unicode="~" horiz-adv-x="533" 
d="M96 240l-16.9971 2.00098c3.33301 30 12.666 52.667 27.999 68s34.666 22 57.999 20c29.333 -2 63 -13.5 101 -34.5s71 -32.167 99 -33.5c20.667 -1.33301 36.5 3 47.5 13s18.167 27 21.5 51l17 -2c-2.66699 -28.667 -11.834 -50.334 -27.501 -65.001
s-34.834 -21 -57.501 -19c-36.667 2 -73.5 13.5 -110.5 34.5s-66.833 32.167 -89.5 33.5c-39.333 4 -62.666 -18.667 -69.999 -68z" />
    <glyph glyph-name="uni00A0" unicode="&#xa0;" horiz-adv-x="230" 
 />
    <glyph glyph-name="exclamdown" unicode="&#xa1;" horiz-adv-x="230" 
d="M136 480h11.002c7.33301 0 10.666 -4.33301 9.99902 -13l-9 -59c-1.33301 -9.33301 -6 -14 -14 -14h-9c-8.66699 0 -12.334 4.33301 -11.001 13l9 62c0.666992 7.33301 5 11 13 11zM104.002 126l-47 -331h-25l47 331l23 151h21z" />
    <glyph glyph-name="cent" unicode="&#xa2;" horiz-adv-x="502" 
d="M463 585l-5.99707 -18c-24.667 6.66699 -62.334 10.667 -113.001 12l-96 -458h18c49.333 0 96.333 4 141 12l3 -18c-50.667 -11.333 -99.334 -17 -146.001 -17h-21l-21 -98h-21l21 100c-64 6 -107 28.333 -129 67s-27 100.334 -15 185.001
c13.333 91.333 38.666 155.833 75.999 193.5s95.333 56.5 174 56.5l18 88h21l-18 -88c49.333 -2.66699 87.333 -8.33398 114 -17.001zM228.003 123l95 456.001c-69.333 -1.33301 -120.333 -18.5 -153 -51.5s-55 -92.167 -67 -177.5
c-11.333 -79.333 -7.5 -135.833 11.5 -169.5s56.833 -52.834 113.5 -57.501z" />
    <glyph glyph-name="sterling" unicode="&#xa3;" 
d="M531 691l-3.00098 -17.999c-61.333 4 -119.333 6 -174 6c-52 0 -89.833 -11.5 -113.5 -34.5s-38.167 -61.5 -43.5 -115.5l-14 -156h251l-4 -20h-249l-10 -106c-5.33301 -54.667 -15.5 -100.834 -30.5 -138.501s-39.5 -66.5 -73.5 -86.5h58h338l-3 -22h-429l2 22
c36.667 21.333 63.5 50 80.5 86s28.167 81.333 33.5 136l10 109h-83l3 20h82l14 156c3.33301 30.667 9.16602 56.667 17.499 78s18 38.166 29 50.499s25.333 21.833 43 28.5s34.834 10.834 51.501 12.501s37.334 2.5 62.001 2.5c45.333 0 97 -3.33301 155 -10z" />
    <glyph glyph-name="currency" unicode="&#xa4;" horiz-adv-x="600" 
d="M542 554l-79.002 -68.999c28.667 -36 40.334 -81 35.001 -135c-4.66699 -52 -24.667 -95.667 -60 -131l69 -80l-15 -12l-68 80c-36 -30 -80.333 -45 -133 -45c-55.333 0 -98.666 16.667 -129.999 50l-79 -70l-13 14l80 70c-26 34 -36.333 76.667 -31 128
c6.66699 57.333 28 102.666 64 135.999l-69 79l14 13l69 -80c36 27.333 79.667 41 131 41c50.667 0 91.667 -14.667 123 -44l80 70zM282.998 181.001c53.333 -2 97.8301 13.166 133.497 45.499s56.167 74.833 61.5 127.5c4.66699 48.667 -6.16602 89.167 -32.499 121.5
s-65.5 48.5 -117.5 48.5c-54 0 -97.833 -16.167 -131.5 -48.5s-53.167 -74.166 -58.5 -125.499c-5.33301 -48 5.33398 -87.667 32.001 -119s64.334 -48 113.001 -50z" />
    <glyph glyph-name="yen" unicode="&#xa5;" horiz-adv-x="601" 
d="M326 306h186l-3 -20h-198l-12 -90h198l-3 -20h-198l-25 -176h-25l25 176h-193l3 20h193l12 90h-193l3 20h182l-171 384h26l135 -304l31 -69h7l49 68l219 305h29z" />
    <glyph glyph-name="brokenbar" unicode="&#xa6;" horiz-adv-x="233" 
d="M140 381h-22l56 400h22zM63 -169h-22l56 400h22z" />
    <glyph glyph-name="section" unicode="&#xa7;" horiz-adv-x="543" 
d="M377 335l-175.999 110.002c-36.667 22 -61 44.667 -73 68s-15.667 50.666 -11 81.999c6.66699 44 24.667 73 54 87s74.666 20.667 135.999 20c78 0 149.667 -4 215 -12l-3 -18c-78 4.66699 -148.333 7.33398 -211 8.00098
c-54.667 0.666992 -94.834 -4.33301 -120.501 -15s-41.167 -35.334 -46.5 -74.001c-6.66699 -50 14 -89.667 62 -119l176 -109c21.333 -12.667 37.666 -26.5 48.999 -41.5s18.5 -32 21.5 -51s3.33301 -38 1 -57s-7.16602 -43.167 -14.499 -72.5l-22 2
c13.333 45.333 17.833 84.166 13.5 116.499s-21.166 57.5 -50.499 75.5zM104.001 417.002l21.9971 -2c-14 -45.333 -18.833 -83.5 -14.5 -114.5s21.5 -55.833 51.5 -74.5l178 -109c34.667 -21.333 58.334 -43.666 71.001 -66.999s16.334 -51.333 11.001 -84
c-3.33301 -20.667 -9 -38.167 -17 -52.5s-17 -25.333 -27 -33s-23.5 -13.5 -40.5 -17.5s-32.833 -6.33301 -47.5 -7s-34 -0.666992 -58 0c-67.333 1.33301 -139 5.33301 -215 12l3 18c89.333 -4.66699 159.666 -7.33398 210.999 -8.00098c21.333 0 37.833 0.166992 49.5 0.5
s25.5 2 41.5 5s28.333 7.66699 37 14s16.834 15.5 24.501 27.5s12.5 27 14.5 45c6.66699 50.667 -13.666 90.667 -60.999 120l-176 108c-40 24.667 -63.5 54.667 -70.5 90s-2.83301 78.333 12.5 129z" />
    <glyph glyph-name="dieresis" unicode="&#xa8;" horiz-adv-x="399" 
d="M168 678h8.99902c7.33301 0 10.333 -4 9 -12l-8 -53c-0.666992 -8.66699 -5 -13 -13 -13h-7c-7.33301 0 -10.666 4 -9.99902 12l8 54c1.33301 8 5.33301 12 12 12zM344.999 678h8.99902c6.66699 0 9.66699 -4 9 -12l-8 -53c-0.666992 -8.66699 -5 -13 -13 -13h-7
c-7.33301 0 -10.666 4 -9.99902 12l8 54c0.666992 8 4.66699 12 12 12z" />
    <glyph glyph-name="copyright" unicode="&#xa9;" horiz-adv-x="856" 
d="M484 702c101.333 0 181.667 -33.167 241 -99.5s81.666 -152.833 66.999 -259.5c-14.667 -105.333 -57.834 -190.833 -129.501 -256.5s-163.167 -98.5 -274.5 -98.5c-101.333 0 -181.666 33.167 -240.999 99.5s-82 152.833 -68 259.5c14 105.333 57.333 190.833 130 256.5
s164.334 98.5 275.001 98.5zM483.001 683c-105.333 0 -192.333 -31.501 -261 -94.501s-109.667 -144.833 -123 -245.5c-13.333 -100 8 -181 64 -243s131 -93 225 -93c105.333 0 192.333 31.5 261 94.5s109.667 144.833 123 245.5s-7.5 181.834 -62.5 243.501
s-130.5 92.5 -226.5 92.5zM552.001 143.999l2.99902 -16c-40.667 -8 -88.667 -12 -144 -12c-72.667 0 -121.334 17.667 -146.001 53s-31 95.666 -19 180.999c12 84.667 34.833 144.167 68.5 178.5s86.167 51.5 157.5 51.5c54 0 98 -4 132 -12l-5 -14
c-33.333 4 -75.333 6 -126 6c-64.667 0 -112.167 -15.5 -142.5 -46.5s-51.166 -86.833 -62.499 -167.5c-11.333 -77.333 -6.5 -131.666 14.5 -162.999s63.167 -47 126.5 -47c58.667 0 106.334 2.66699 143.001 8z" />
    <glyph glyph-name="ordfeminine" unicode="&#xaa;" horiz-adv-x="444" 
d="M343 343l0.00195312 1c-24.667 -26 -51 -46.167 -79 -60.5s-52.667 -21.5 -74 -21.5s-38.333 2 -51 6s-24 12 -34 24s-15.167 29.167 -15.5 51.5s1.16699 51.833 4.5 88.5c9.33301 66 27.666 110.5 54.999 133.5s69.333 34.5 126 34.5c29.333 0 69.666 -3 120.999 -9
l-46 -322h-16zM345.002 365l28.999 212c-53.333 2.66699 -85.333 4 -96 4c-52 0 -89.833 -9.66699 -113.5 -29s-40.167 -60 -49.5 -122c-8.66699 -59.333 -7.5 -98.833 3.5 -118.5s34.833 -29.5 71.5 -29.5c20.667 0 45.334 7.33301 74.001 22s55.667 35 81 61z" />
    <glyph glyph-name="guillemotleft" unicode="&#xab;" horiz-adv-x="451" 
d="M248 442l-176 -193l121 -193l-13 -10l-136 201l1 8l191 199zM406 442l-176 -193l121 -193l-13 -10l-136 201l1 8l191 199z" />
    <glyph glyph-name="logicalnot" unicode="&#xac;" horiz-adv-x="591" 
d="M505 307l-25 -173h-23l22 151h-394l3 22h417z" />
    <glyph glyph-name="softhyphen" unicode="&#xad;" horiz-adv-x="482" 
d="M389 240h-311l3 22h311z" />
    <glyph glyph-name="registered" unicode="&#xae;" horiz-adv-x="580" 
d="M338 701c69.333 0 122.168 -20.833 158.501 -62.5s50.166 -95.5 41.499 -161.5c-8 -63.333 -34 -116 -78 -158s-99 -63 -165 -63s-118 21.167 -156 63.5s-53 97.833 -45 166.5c8 67.333 34.5 120 79.5 158s99.833 57 164.5 57zM521.002 481
c8 62.667 -4.83398 112.332 -38.501 148.999s-81.834 55 -144.501 55c-64 0 -116 -18.5 -156 -55.5s-63.667 -86.167 -71 -147.5c-7.33301 -63.333 6.33398 -114.166 41.001 -152.499s82.334 -57.5 143.001 -57.5c61.333 0 112.333 19.833 153 59.5s65 89.5 73 149.5z
M193.001 336.998l40.001 283c37.333 2 69 3 95 3c43.333 0 73.166 -4.83301 89.499 -14.5s22.5 -31.5 18.5 -65.5c-2.66699 -25.333 -9.66699 -43.333 -21 -54s-29 -17.667 -53 -21v-2c15.333 -4 26.333 -17.333 33 -40l24 -89h-19l-23 89c-6 24 -21.667 36 -47 36
c-60 0 -93.667 0.333008 -101 1l-18 -126h-18zM231.002 475.998l92.999 -0.00195312c32.667 0.666992 55.834 5.33398 69.501 14.001s22.167 27.334 25.5 56.001c3.33301 26.667 -1 43.667 -13 51s-36 11 -72 11l-85 -1z" />
    <glyph glyph-name="macron" unicode="&#xaf;" horiz-adv-x="400" 
d="M384 625h-260l3 23h260z" />
    <glyph glyph-name="degree" unicode="&#xb0;" horiz-adv-x="381" 
d="M242 702c36 0 64.5 -11.834 85.5 -35.501s29.5 -53.5 25.5 -89.5c-4 -36.667 -19 -66.167 -45 -88.5s-56.333 -33.5 -91 -33.5c-37.333 0 -65.833 12.333 -85.5 37s-27.834 54.334 -24.501 89.001c4 36 18.833 65.167 44.5 87.5s55.834 33.5 90.501 33.5zM242 682.999
c-30.667 0 -56.666 -10 -77.999 -30s-33.666 -45.333 -36.999 -76c-2.66699 -30 4.33301 -54.667 21 -74s39.667 -29 69 -29s55.166 9.66699 77.499 29s35.166 45.333 38.499 78c3.33301 30 -3.5 54.5 -20.5 73.5s-40.5 28.5 -70.5 28.5z" />
    <glyph glyph-name="plusminus" unicode="&#xb1;" horiz-adv-x="597" 
d="M516 358l-4 -22h-197l-21 -147h-21l20 147h-198l4 22h197l20 147h23l-21 -147h198zM65 115h417l-4 -21h-417z" />
    <glyph glyph-name="twosuperior" unicode="&#xb2;" horiz-adv-x="436" 
d="M143 747l-4.00098 18.001c49.333 10.667 94.333 16 135 16c46.667 0 80.334 -5.83301 101.001 -17.5s28.667 -34.5 24 -68.5c-4 -26.667 -14.5 -51.5 -31.5 -74.5s-44.167 -51.5 -81.5 -85.5l-173 -153h77h184l-2 -22h-293l2 15c0 4 1.66699 7.66699 5 11l180 159
c36 32 62.5 60.167 79.5 84.5s26.833 48.166 29.5 71.499c2.66699 24 -4 39.667 -20 47s-42.333 11 -79 11c-42 0 -86.333 -4 -133 -12z" />
    <glyph glyph-name="threesuperior" unicode="&#xb3;" horiz-adv-x="416" 
d="M146 753l-3.99805 18.001c42 6.66699 82 10 120 10c51.333 0 86.5 -7.33301 105.5 -22s25.833 -39.667 20.5 -75c-8 -61.333 -36.333 -95.666 -85 -102.999l-2 -3c29.333 -4 49.666 -15.5 60.999 -34.5s14.666 -42.167 9.99902 -69.5
c-5.33301 -33.333 -21 -61.333 -47 -84s-64.333 -35 -115 -37c-43.333 -2.66699 -87 0.666016 -131 9.99902l5 18c41.333 -6.66699 82 -8.66699 122 -6c85.333 5.33301 133 39.666 143 102.999c4 26.667 -0.666992 48.5 -14 65.5s-41 25.833 -83 26.5h-87l2 17l86 2
c66.667 1.33301 104 33 112 95c3.33301 30 -2 50.167 -16 60.5s-43.333 15.5 -88 15.5c-28.667 0 -67 -2.33301 -115 -7z" />
    <glyph glyph-name="acute" unicode="&#xb4;" horiz-adv-x="277" 
d="M290 691l-172 -141l-14 14l169 146z" />
    <glyph glyph-name="paragraph" unicode="&#xb6;" horiz-adv-x="597" 
d="M216 -210l58 411c-157.333 17.333 -223.333 107 -198 269c13.333 92.667 43.5 154.5 90.5 185.5s124.5 46.5 232.5 46.5c51.333 0 99.666 -5.66699 144.999 -17l-97 -685h-25l95 670c-47.333 6 -97.666 9 -150.999 9l-125 -889h-25z" />
    <glyph glyph-name="periodcentered" unicode="&#xb7;" horiz-adv-x="205" 
d="M98 300h11.001c8 0 11.333 -4.33301 10 -13l-9 -62c-0.666992 -7.33301 -5 -11 -13 -11h-10c-8.66699 0 -12.334 4.33301 -11.001 13l9 61c0.666992 8 5 12 13 12z" />
    <glyph glyph-name="cedilla" unicode="&#xb8;" horiz-adv-x="219" 
d="M58 -63l3 14c26.667 1.33301 46 -3.5 58 -14.5s16 -28.5 12 -52.5c-5.33301 -34 -22 -61 -50 -81s-62.333 -27.333 -103 -22l5 15c34 -1.33301 62.667 7 86 25s37 40.333 41 67c2.66699 18 0.166992 30.5 -7.5 37.5s-22.5 10.833 -44.5 11.5z" />
    <glyph glyph-name="onesuperior" unicode="&#xb9;" horiz-adv-x="282" 
d="M201 360h-23l51 361c2.66699 13.333 5 23.333 7 30l-129 -37l-2 17l131 43h24z" />
    <glyph glyph-name="ordmasculine" unicode="&#xba;" horiz-adv-x="446" 
d="M264 600c56 0 93.499 -12.833 112.499 -38.5s24.167 -69.834 15.5 -132.501c-8.66699 -61.333 -26 -104.5 -52 -129.5s-66 -37.5 -120 -37.5c-55.333 0 -92.5 12.833 -111.5 38.5s-24.167 69.834 -15.5 132.501c8.66699 61.333 25.834 104.5 51.501 129.5
s65.5 37.5 119.5 37.5zM264.999 581c-47.333 0 -82 -11.001 -104 -33.001s-37 -61.667 -45 -119c-8 -55.333 -4.33301 -93.666 11 -114.999s46 -32 92 -32c47.333 0 82 11 104 33s37 61.333 45 118c8 56 4.5 94.667 -10.5 116s-45.833 32 -92.5 32z" />
    <glyph glyph-name="guillemotright" unicode="&#xbb;" horiz-adv-x="449" 
d="M32 58l176 193l-121 193l13 10l136 -201l-1 -8l-191 -199zM190 58l176 193l-121 193l13 10l136 -201l-1 -8l-191 -199z" />
    <glyph glyph-name="onequarter" unicode="&#xbc;" horiz-adv-x="832" 
d="M680 690l-577 -690h-24l577 690h24zM100 632l-2.00293 14.001l132 44h21l-58 -414h-21l51 364c0.666992 2 1.33398 5.16699 2.00098 9.5s1.33398 8.16602 2.00098 11.499s1.33398 6.33301 2.00098 9zM757.997 118.001l-46 -2l-16 -116h-21l16 115h-227
c-14 0 -23.833 5.33301 -29.5 16s-4.5 21.667 3.5 33l183 250h23l-184 -253c-5.33301 -7.33301 -6.33301 -13.833 -3 -19.5s9.33301 -8.5 18 -8.5h219l19 133l14 70h16l-28 -203h45z" />
    <glyph glyph-name="onehalf" unicode="&#xbd;" horiz-adv-x="860" 
d="M102 0h-24l577 690h24zM192 276l-21.0029 0.000976562l51 364c0.666992 2 1.33398 5.16699 2.00098 9.5s1.33398 8.16602 2.00098 11.499s1.33398 6.33301 2.00098 9l-129 -38l-2 14l132 44h21zM534.997 389.001l-4.00098 16.001c50 10.667 94.667 16 134 16
c48 0 82.167 -5.83301 102.5 -17.5s27.833 -34.5 22.5 -68.5c-3.33301 -26 -13.666 -50.5 -30.999 -73.5s-45 -51.833 -83 -86.5l-176 -156l40 1c26.667 0 40 -0.333008 40 -1h187l-3 -19h-293l2 13c0.666992 4 2.66699 7.66699 6 11l180 160
c36 32.667 62.5 61.167 79.5 85.5s26.833 48.5 29.5 72.5c2.66699 25.333 -4 41.666 -20 48.999s-42.333 11 -79 11c-43.333 0 -88 -4.33301 -134 -13z" />
    <glyph glyph-name="threequarters" unicode="&#xbe;" horiz-adv-x="924" 
d="M286 495l-2 -2.00098c54.667 -8 78.667 -43.333 72 -106c-5.33301 -41.333 -19.833 -71.666 -43.5 -90.999s-60.834 -29 -111.501 -29c-34.667 0 -80.667 3.33301 -138 10l4 16c45.333 -4.66699 88.666 -7 129.999 -7c43.333 0 75.833 8.16699 97.5 24.5
s34.834 43.5 39.501 81.5c4 28 -0.666992 50.333 -14 67s-41.333 25.334 -84 26.001h-87l3 15l85 2c69.333 1.33301 108 33.666 116 96.999c4 30 -1.66699 50.333 -17 61s-45.333 16 -90 16c-40.667 0 -79.667 -2.33301 -117 -7l-3 16c40.667 6.66699 80.334 10 119.001 10
c53.333 0 89.5 -7.16699 108.5 -21.5s25.833 -39.5 20.5 -75.5c-8.66699 -60 -38 -94.333 -88 -103zM786 689.999l-577 -690h-24l577 690h24zM849 117.999l-56 -3l-16 -115h-21l16 115h-217c-14 0 -23.833 5.33301 -29.5 16s-4.5 21.667 3.5 33l183 250h23l-184 -253
c-5.33301 -7.33301 -6.33301 -13.833 -3 -19.5s9.33301 -8.5 18 -8.5h209l19 133l14 70h16l-28 -203h55z" />
    <glyph glyph-name="questiondown" unicode="&#xbf;" horiz-adv-x="498" 
d="M279 490h10c8 0 11.667 -4 11 -12l-8 -62c-0.666992 -8 -5 -12 -13 -12h-10c-8 0 -11.667 4.33301 -11 13l9 62c0.666992 7.33301 4.66699 11 12 11zM244 288l23.001 -1.99902c-4.66699 -34.667 -15.5 -66.334 -32.5 -95.001s-36 -52.5 -57 -71.5l-63 -55.5
c-21 -18 -39.667 -38.167 -56 -60.5s-26.166 -46.5 -29.499 -72.5c-6.66699 -44.667 2.16602 -77.667 26.499 -99s65.5 -32 123.5 -32c63.333 0 130.333 4.66699 201 14l5 -18c-6.66699 -1.33301 -16.667 -3 -30 -5s-23 -3.5 -29 -4.5s-15 -2.16699 -27 -3.5
s-22.833 -2.33301 -32.5 -3s-22 -1.16699 -37 -1.5s-31.5 -0.5 -49.5 -0.5c-65.333 0 -112.833 13 -142.5 39s-40.834 65.333 -33.501 118c4 28 14.167 53.833 30.5 77.5s35 44.5 56 62.5l63.5 55c21.333 18.667 40.5 41.5 57.5 68.5s27.833 56.833 32.5 89.5z" />
    <glyph glyph-name="Agrave" unicode="&#xc0;" horiz-adv-x="599" 
d="M390 736l-134 141l19 18l129 -147zM462 252h-328.999l-127 -252h-28l344 682c2.66699 5.33301 7 8 13 8h43c7.33301 0 11.666 -3.33301 12.999 -10l152 -680h-26zM457.001 274l-75 339c-6 28 -10 46 -12 54h-29c-3.33301 -6 -8 -15.333 -14 -28s-10.667 -22 -14 -28
l-169 -337h313z" />
    <glyph glyph-name="Aacute" unicode="&#xc1;" horiz-adv-x="599" 
d="M331 736l-14 14l169 146l17 -19zM462 252h-328.999l-127 -252h-28l344 682c2.66699 5.33301 7 8 13 8h43c7.33301 0 11.666 -3.33301 12.999 -10l152 -680h-26zM457.001 274l-75 339c-6 28 -10 46 -12 54h-29c-3.33301 -6 -8 -15.333 -14 -28s-10.667 -22 -14 -28
l-169 -337h313z" />
    <glyph glyph-name="Acircumflex" unicode="&#xc2;" horiz-adv-x="599" 
d="M232 750l-10 13l152 117h18l121 -117l-12 -12l-115 102h-9zM462 252h-328.999l-127 -252h-28l344 682c2.66699 5.33301 7 8 13 8h43c7.33301 0 11.666 -3.33301 12.999 -10l152 -680h-26zM457.001 274l-75 339c-6 28 -10 46 -12 54h-29c-3.33301 -6 -8 -15.333 -14 -28
s-10.667 -22 -14 -28l-169 -337h313z" />
    <glyph glyph-name="Atilde" unicode="&#xc3;" horiz-adv-x="599" 
d="M510 862l17 -1.99805c-2.66699 -28.667 -11.667 -50.334 -27 -65.001s-34.666 -21 -57.999 -19c-24 2 -48.167 13.5 -72.5 34.5s-43.5 32.167 -57.5 33.5c-39.333 4 -62.666 -18.667 -69.999 -68l-17 2c3.33301 30 12.666 52.667 27.999 68s34.666 22 57.999 20
c20 -2 42 -13.5 66 -34.5s45.333 -32.167 64 -33.5c20.667 -1.33301 36.5 3.16699 47.5 13.5s18.167 27.166 21.5 50.499zM462 252.002h-328.999l-127 -252h-28l344 682c2.66699 5.33301 7 8 13 8h43c7.33301 0 11.666 -3.33301 12.999 -10l152 -680h-26zM457.001 274.002
l-75 339c-6 28 -10 46 -12 54h-29c-3.33301 -6 -8 -15.333 -14 -28s-10.667 -22 -14 -28l-169 -337h313z" />
    <glyph glyph-name="Adieresis" unicode="&#xc4;" horiz-adv-x="599" 
d="M285 778h-7.00098c-7.33301 0 -10.666 4 -9.99902 12l8 54c1.33301 8 5.33301 12 12 12h9c7.33301 0 10.333 -4 9 -12l-8 -53c-0.666992 -8.66699 -5 -13 -13 -13zM461.999 778h-7.00098c-7.33301 0 -10.666 4 -9.99902 12l8 54c0.666992 8 4.66699 12 12 12h9
c6.66699 0 9.66699 -4 9 -12l-8 -53c-0.666992 -8.66699 -5 -13 -13 -13zM461.998 252h-328.999l-127 -252h-28l344 682c2.66699 5.33301 7 8 13 8h43c7.33301 0 11.666 -3.33301 12.999 -10l152 -680h-26zM456.999 274l-75 339c-6 28 -10 46 -12 54h-29
c-3.33301 -6 -8 -15.333 -14 -28s-10.667 -22 -14 -28l-169 -337h313z" />
    <glyph glyph-name="Aring" unicode="&#xc5;" horiz-adv-x="599" 
d="M366 719c-28 0 -50.334 9.33301 -67.001 28s-23.334 41.667 -20.001 69c3.33301 25.333 14.833 47.166 34.5 65.499s43.167 27.5 70.5 27.5c28 0 50.333 -9.5 67 -28.5s23.334 -41.833 20.001 -68.5c-3.33301 -25.333 -14.666 -47.166 -33.999 -65.499
s-43 -27.5 -71 -27.5zM299.999 812c-2.66699 -20.667 2.16602 -38.167 14.499 -52.5s29.5 -21.5 51.5 -21.5s40.833 7.5 56.5 22.5s24.834 33.5 27.501 55.5c2.66699 20.667 -2 38.167 -14 52.5s-29.333 21.5 -52 21.5s-41.667 -7.5 -57 -22.5s-24.333 -33.5 -27 -55.5z
M461.999 252h-328.999l-127 -252h-28l344 682c2.66699 5.33301 7 8 13 8h43c7.33301 0 11.666 -3.33301 12.999 -10l152 -680h-26zM457 274l-75 339c-6 28 -10 46 -12 54h-29c-3.33301 -6 -8 -15.333 -14 -28s-10.667 -22 -14 -28l-169 -337h313z" />
    <glyph glyph-name="AE" unicode="&#xc6;" horiz-adv-x="904" 
d="M900 668h-268.001c-24.667 0 -45.667 -7.5 -63 -22.5s-28 -35.167 -32 -60.5l-28 -205h308l-3 -21h-308l-36 -256c-3.33301 -24 1.33398 -43.5 14.001 -58.5s31 -22.5 55 -22.5h270l-1 -18c-62 -2.66699 -153.333 -4 -274 -4c-30 -0 -53.5 9.83301 -70.5 29.5
s-23.167 44.167 -18.5 73.5l24 169h-252l-217 -272h-30l484 606c28 34 55 56.5 81 67.5s57.333 16.5 94 16.5c117.333 0 208.333 -1.33301 273 -4zM471.999 294l41 294.001c2 15.333 8 30.666 18 45.999s21 25.333 33 30h-4c-28 -10.667 -57.333 -35 -88 -73l-237 -297h237z
" />
    <glyph glyph-name="Ccedilla" unicode="&#xc7;" 
d="M474 24l5 -18c-55.333 -12 -118.333 -18 -189 -18c-94.667 0 -157.5 26.833 -188.5 80.5s-37.167 146.5 -18.5 278.5c18.667 131.333 50.334 223.333 95.001 276s114 79 208 79c67.333 0 125 -5.66699 173 -17l-7 -18c-48.667 8 -103.667 12 -165 12
c-88 0 -152 -24.5 -192 -73.5s-69 -136.5 -87 -262.5c-17.333 -124 -12.833 -210.333 13.5 -259s82.166 -73 167.499 -73c71.333 0 133 4.33301 185 13zM248 -75l3 14c26.667 1.33301 46 -3.5 58 -14.5s16 -28.5 12 -52.5c-5.33301 -34 -22 -61 -50 -81
s-62.333 -27.333 -103 -22l5 15c34 -1.33301 62.667 7 86 25s37 40.333 41 67c2.66699 18 0.166992 30.5 -7.5 37.5s-22.5 10.833 -44.5 11.5z" />
    <glyph glyph-name="Egrave" unicode="&#xc8;" horiz-adv-x="548" 
d="M392 761l-134 141l19 18l129 -147zM543 668h-285.999c-26.667 0 -48.334 -7.5 -65.001 -22.5s-26.667 -35.167 -30 -60.5l-28 -205h328l-3 -21h-328l-36 -256c-3.33301 -24 1.33398 -43.5 14.001 -58.5s31 -22.5 55 -22.5h288l1 -18c-66 -2.66699 -164 -4 -294 -4
c-30 -0 -53.5 9.83301 -70.5 29.5s-23.167 44.167 -18.5 73.5l68 486c4 30 16 54.333 36 73s46 28 78 28c131.333 0 229.666 -1.33301 294.999 -4z" />
    <glyph glyph-name="Eacute" unicode="&#xc9;" horiz-adv-x="548" 
d="M333 761l-14 14l169 146l17 -19zM543 668h-285.999c-26.667 0 -48.334 -7.5 -65.001 -22.5s-26.667 -35.167 -30 -60.5l-28 -205h328l-3 -21h-328l-36 -256c-3.33301 -24 1.33398 -43.5 14.001 -58.5s31 -22.5 55 -22.5h288l1 -18c-66 -2.66699 -164 -4 -294 -4
c-30 -0 -53.5 9.83301 -70.5 29.5s-23.167 44.167 -18.5 73.5l68 486c4 30 16 54.333 36 73s46 28 78 28c131.333 0 229.666 -1.33301 294.999 -4z" />
    <glyph glyph-name="Ecircumflex" unicode="&#xca;" horiz-adv-x="548" 
d="M234 775l-10 13l152 117h18l121 -117l-12 -12l-115 102h-9zM543 668h-285.999c-26.667 0 -48.334 -7.5 -65.001 -22.5s-26.667 -35.167 -30 -60.5l-28 -205h328l-3 -21h-328l-36 -256c-3.33301 -24 1.33398 -43.5 14.001 -58.5s31 -22.5 55 -22.5h288l1 -18
c-66 -2.66699 -164 -4 -294 -4c-30 -0 -53.5 9.83301 -70.5 29.5s-23.167 44.167 -18.5 73.5l68 486c4 30 16 54.333 36 73s46 28 78 28c131.333 0 229.666 -1.33301 294.999 -4z" />
    <glyph glyph-name="Edieresis" unicode="&#xcb;" horiz-adv-x="548" 
d="M287 803h-7.00098c-7.33301 0 -10.666 4 -9.99902 12l8 54c1.33301 8 5.33301 12 12 12h9c7.33301 0 10.333 -4 9 -12l-8 -53c-0.666992 -8.66699 -5 -13 -13 -13zM463.999 803h-7.00098c-7.33301 0 -10.666 4 -9.99902 12l8 54c0.666992 8 4.66699 12 12 12h9
c6.66699 0 9.66699 -4 9 -12l-8 -53c-0.666992 -8.66699 -5 -13 -13 -13zM542.998 668h-285.999c-26.667 0 -48.334 -7.5 -65.001 -22.5s-26.667 -35.167 -30 -60.5l-28 -205h328l-3 -21h-328l-36 -256c-3.33301 -24 1.33398 -43.5 14.001 -58.5s31 -22.5 55 -22.5h288
l1 -18c-66 -2.66699 -164 -4 -294 -4c-30 -0 -53.5 9.83301 -70.5 29.5s-23.167 44.167 -18.5 73.5l68 486c4 30 16 54.333 36 73s46 28 78 28c131.333 0 229.666 -1.33301 294.999 -4z" />
    <glyph glyph-name="Igrave" unicode="&#xcc;" horiz-adv-x="231" 
d="M217 748l-14 -12l-134 141l19 18zM87 0h-25l97 690h25z" />
    <glyph glyph-name="Iacute" unicode="&#xcd;" horiz-adv-x="231" 
d="M316 877l-172 -141l-14 14l169 146zM87 0h-25l97 690h25z" />
    <glyph glyph-name="Icircumflex" unicode="&#xce;" horiz-adv-x="231" 
d="M326 763l-12 -12l-115 102h-9l-145 -103l-10 13l152 117h18zM87 0h-25l97 690h25z" />
    <glyph glyph-name="Idieresis" unicode="&#xcf;" horiz-adv-x="231" 
d="M101 856h8.99902c6.66699 0 9.66699 -4 9 -12l-8 -53c-0.666992 -8.66699 -5 -13 -13 -13h-7c-7.33301 0 -10.666 4 -9.99902 12l8 54c0.666992 8 4.66699 12 12 12zM277.999 856h8.99902c7.33301 0 10.333 -4 9 -12l-8 -53c-0.666992 -8.66699 -5 -13 -13 -13h-7
c-7.33301 0 -10.666 4 -9.99902 12l8 54c1.33301 8 5.33301 12 12 12zM86.998 0h-25l97 690h25z" />
    <glyph glyph-name="Eth" unicode="&#xd0;" horiz-adv-x="658" 
d="M116 381l43.001 309c80.667 6 157 9 229 9c92.667 0 154 -26.667 184 -80s36 -145.333 18 -276c-18 -131.333 -49 -222.833 -93 -274.5s-112.333 -77.5 -205 -77.5c-72.667 0 -149.334 3 -230.001 9l51 361h-83l3 20h83zM138.001 361l-49 -344.001
c122 -2 189.333 -3 202 -3c84 0 146.333 24.333 187 73s69.667 135.334 87 260.001c16.667 122 12 207.333 -14 256s-80.333 73 -163 73c-57.333 0 -126 -1.33301 -206 -4l-41 -291h180l-3 -20h-180z" />
    <glyph glyph-name="Ntilde" unicode="&#xd1;" horiz-adv-x="688" 
d="M293 776l-17 2.00195c3.33301 30 12.666 52.667 27.999 68s34.666 22 57.999 20c20 -2 42 -13.5 66 -34.5s45.333 -32.167 64 -33.5c20.667 -1.33301 36.5 3.16699 47.5 13.5s18.167 27.166 21.5 50.499l17 -2c-2.66699 -28.667 -11.667 -50.334 -27 -65.001
s-34.666 -21 -57.999 -19c-24 2 -48.167 13.5 -72.5 34.5s-43.5 32.167 -57.5 33.5c-39.333 4 -62.666 -18.667 -69.999 -68zM641 690.002l-95.002 -676c-0.666992 -9.33301 -6 -14 -16 -14h-41c-8 0 -13.667 4 -17 12l-238 589l-14.5 34
c-6.33301 14.667 -10.833 25.667 -13.5 33h-25c-1.33301 -8.66699 -3.16602 -21.667 -5.49902 -39s-4.16602 -30.333 -5.49902 -39l-83 -590h-25l95 676c2 9.33301 7.33301 14 16 14h38c8.66699 0 14.667 -4 18 -12l233 -576c4 -9.33301 9.33301 -23 16 -41
s12 -31.333 16 -40h28l12 85l82 584h25z" />
    <glyph glyph-name="Ograve" unicode="&#xd2;" horiz-adv-x="660" 
d="M438 748l-14 -12l-134 141l19 18zM386 702c94.667 0 157.499 -26.833 188.499 -80.5s36.833 -146.5 17.5 -278.5c-18 -131.333 -49.333 -223.333 -94 -276s-114 -79 -208 -79c-94.667 0 -157.5 26.833 -188.5 80.5s-37.167 146.5 -18.5 278.5
c18.667 131.333 50.334 223.333 95.001 276s114 79 208 79zM385.999 679c-86.667 0 -150.334 -24.667 -191.001 -74s-69.667 -136.666 -87 -261.999c-16.667 -123.333 -11.667 -209.5 15 -258.5s82 -73.5 166 -73.5c86.667 0 150.334 24.667 191.001 74
s69.667 136.666 87 261.999c17.333 124 13 210.333 -13 259s-82 73 -168 73z" />
    <glyph glyph-name="Oacute" unicode="&#xd3;" horiz-adv-x="660" 
d="M537 877l-172 -141l-14 14l169 146zM386 702c94.667 0 157.499 -26.833 188.499 -80.5s36.833 -146.5 17.5 -278.5c-18 -131.333 -49.333 -223.333 -94 -276s-114 -79 -208 -79c-94.667 0 -157.5 26.833 -188.5 80.5s-37.167 146.5 -18.5 278.5
c18.667 131.333 50.334 223.333 95.001 276s114 79 208 79zM385.999 679c-86.667 0 -150.334 -24.667 -191.001 -74s-69.667 -136.666 -87 -261.999c-16.667 -123.333 -11.667 -209.5 15 -258.5s82 -73.5 166 -73.5c86.667 0 150.334 24.667 191.001 74
s69.667 136.666 87 261.999c17.333 124 13 210.333 -13 259s-82 73 -168 73z" />
    <glyph glyph-name="Ocircumflex" unicode="&#xd4;" horiz-adv-x="660" 
d="M547 763l-12 -12l-115 102h-9l-145 -103l-10 13l152 117h18zM386 702c94.667 0 157.499 -26.833 188.499 -80.5s36.833 -146.5 17.5 -278.5c-18 -131.333 -49.333 -223.333 -94 -276s-114 -79 -208 -79c-94.667 0 -157.5 26.833 -188.5 80.5s-37.167 146.5 -18.5 278.5
c18.667 131.333 50.334 223.333 95.001 276s114 79 208 79zM385.999 679c-86.667 0 -150.334 -24.667 -191.001 -74s-69.667 -136.666 -87 -261.999c-16.667 -123.333 -11.667 -209.5 15 -258.5s82 -73.5 166 -73.5c86.667 0 150.334 24.667 191.001 74
s69.667 136.666 87 261.999c17.333 124 13 210.333 -13 259s-82 73 -168 73z" />
    <glyph glyph-name="Otilde" unicode="&#xd5;" horiz-adv-x="660" 
d="M276 776l-17 2.00195c3.33301 30 12.666 52.667 27.999 68s34.666 22 57.999 20c20 -2 42 -13.5 66 -34.5s45.333 -32.167 64 -33.5c20.667 -1.33301 36.5 3.16699 47.5 13.5s18.167 27.166 21.5 50.499l17 -2c-2.66699 -28.667 -11.667 -50.334 -27 -65.001
s-34.666 -21 -57.999 -19c-24 2 -48.167 13.5 -72.5 34.5s-43.5 32.167 -57.5 33.5c-39.333 4 -62.666 -18.667 -69.999 -68zM386 702.002c94.667 0 157.499 -26.833 188.499 -80.5s36.833 -146.5 17.5 -278.5c-18 -131.333 -49.333 -223.333 -94 -276s-114 -79 -208 -79
c-94.667 0 -157.5 26.833 -188.5 80.5s-37.167 146.5 -18.5 278.5c18.667 131.333 50.334 223.333 95.001 276s114 79 208 79zM385.999 679.002c-86.667 0 -150.334 -24.667 -191.001 -74s-69.667 -136.666 -87 -261.999c-16.667 -123.333 -11.667 -209.5 15 -258.5
s82 -73.5 166 -73.5c86.667 0 150.334 24.667 191.001 74s69.667 136.666 87 261.999c17.333 124 13 210.333 -13 259s-82 73 -168 73z" />
    <glyph glyph-name="Odieresis" unicode="&#xd6;" horiz-adv-x="660" 
d="M322 856h8.99902c7.33301 0 10.333 -4 9 -12l-8 -53c-0.666992 -8.66699 -5 -13 -13 -13h-7c-7.33301 0 -10.666 4 -9.99902 12l8 54c1.33301 8 5.33301 12 12 12zM498.999 856h8.99902c6.66699 0 9.66699 -4 9 -12l-8 -53c-0.666992 -8.66699 -5 -13 -13 -13h-7
c-7.33301 0 -10.666 4 -9.99902 12l8 54c0.666992 8 4.66699 12 12 12zM385.998 702c94.667 0 157.499 -26.833 188.499 -80.5s36.833 -146.5 17.5 -278.5c-18 -131.333 -49.333 -223.333 -94 -276s-114 -79 -208 -79c-94.667 0 -157.5 26.833 -188.5 80.5
s-37.167 146.5 -18.5 278.5c18.667 131.333 50.334 223.333 95.001 276s114 79 208 79zM385.997 679c-86.667 0 -150.334 -24.667 -191.001 -74s-69.667 -136.666 -87 -261.999c-16.667 -123.333 -11.667 -209.5 15 -258.5s82 -73.5 166 -73.5
c86.667 0 150.334 24.667 191.001 74s69.667 136.666 87 261.999c17.333 124 13 210.333 -13 259s-82 73 -168 73z" />
    <glyph glyph-name="multiply" unicode="&#xd7;" horiz-adv-x="526" 
d="M278 287l145 -148l-16 -17l-147 151l-189 -151l-14 18l187 149l-142 147l16 16l144 -148l189 150l15 -17z" />
    <glyph glyph-name="Oslash" unicode="&#xd8;" horiz-adv-x="660" 
d="M585 731l-43 -71.002c30 -24.667 49 -62.667 57 -114s5.66699 -119 -7 -203c-18 -131.333 -49.333 -223.333 -94 -276s-114 -79 -208 -79c-60.667 0 -107.334 10 -140.001 30l-42 -69l-19 10l44 72c-30 24.667 -48.833 62.834 -56.5 114.501s-5.5 118.834 6.5 201.501
c18.667 131.333 50.334 223.333 95.001 276s114 79 208 79c59.333 0 105.333 -9.66699 138 -29l41 68zM146 52.998l365.002 599c-28.667 18 -70.334 27 -125.001 27c-86.667 0 -150.334 -24.667 -191.001 -74s-69.667 -136.666 -87 -261.999
c-20.667 -148.667 -8 -245.334 38 -290.001zM529.002 638.998l-366 -598.998c30 -19.333 72 -29 126 -29c86.667 0 150.334 24.667 191.001 74s69.667 136.666 87 261.999c11.333 76.667 14.166 138.667 8.49902 186s-21.167 82.666 -46.5 105.999z" />
    <glyph glyph-name="Ugrave" unicode="&#xd9;" horiz-adv-x="667" 
d="M437 748l-14 -12l-134 141l19 18zM625 690l-60.999 -436.001c-13.333 -96.667 -40.333 -165.167 -81 -205.5s-103.667 -60.5 -189 -60.5c-86.667 0 -145.167 20.5 -175.5 61.5s-38.833 109.833 -25.5 206.5l61 434h25l-61 -436
c-12.667 -89.333 -5.83398 -152.166 20.499 -188.499s77.833 -54.5 154.5 -54.5c77.333 0 134.5 18.5 171.5 55.5s61.833 100.167 74.5 189.5l61 434h25z" />
    <glyph glyph-name="Uacute" unicode="&#xda;" horiz-adv-x="667" 
d="M536 877l-172 -141l-14 14l169 146zM625 690l-60.999 -436.001c-13.333 -96.667 -40.333 -165.167 -81 -205.5s-103.667 -60.5 -189 -60.5c-86.667 0 -145.167 20.5 -175.5 61.5s-38.833 109.833 -25.5 206.5l61 434h25l-61 -436
c-12.667 -89.333 -5.83398 -152.166 20.499 -188.499s77.833 -54.5 154.5 -54.5c77.333 0 134.5 18.5 171.5 55.5s61.833 100.167 74.5 189.5l61 434h25z" />
    <glyph glyph-name="Ucircumflex" unicode="&#xdb;" horiz-adv-x="667" 
d="M546 763l-12 -12l-115 102h-9l-145 -103l-10 13l152 117h18zM625 690l-60.999 -436.001c-13.333 -96.667 -40.333 -165.167 -81 -205.5s-103.667 -60.5 -189 -60.5c-86.667 0 -145.167 20.5 -175.5 61.5s-38.833 109.833 -25.5 206.5l61 434h25l-61 -436
c-12.667 -89.333 -5.83398 -152.166 20.499 -188.499s77.833 -54.5 154.5 -54.5c77.333 0 134.5 18.5 171.5 55.5s61.833 100.167 74.5 189.5l61 434h25z" />
    <glyph glyph-name="Udieresis" unicode="&#xdc;" horiz-adv-x="667" 
d="M321 856h8.99902c6.66699 0 9.66699 -4 9 -12l-8 -53c-0.666992 -8.66699 -5 -13 -13 -13h-7c-7.33301 0 -10.666 4 -9.99902 12l8 54c0.666992 8 4.66699 12 12 12zM497.999 856h8.99902c7.33301 0 10.333 -4 9 -12l-8 -53c-0.666992 -8.66699 -5 -13 -13 -13h-7
c-7.33301 0 -10.666 4 -9.99902 12l8 54c1.33301 8 5.33301 12 12 12zM624.998 690l-60.999 -436.001c-13.333 -96.667 -40.333 -165.167 -81 -205.5s-103.667 -60.5 -189 -60.5c-86.667 0 -145.167 20.5 -175.5 61.5s-38.833 109.833 -25.5 206.5l61 434h25l-61 -436
c-12.667 -89.333 -5.83398 -152.166 20.499 -188.499s77.833 -54.5 154.5 -54.5c77.333 0 134.5 18.5 171.5 55.5s61.833 100.167 74.5 189.5l61 434h25z" />
    <glyph glyph-name="Yacute" unicode="&#xdd;" horiz-adv-x="535" 
d="M295 736l-14 14l169 146l17 -19zM274 257l-37 -257h-25l37 257l-176 433h26l134 -334l28 -69h6l47 70l227 333h28z" />
    <glyph glyph-name="Thorn" unicode="&#xde;" horiz-adv-x="582" 
d="M185 690l-20.001 -141c46.667 4 111.667 6 195 6c74.667 0 124.834 -14.667 150.501 -44s32.834 -83 21.501 -161c-10.667 -78 -32.334 -131 -65.001 -159s-86 -42 -160 -42c-87.333 0 -153 1.33301 -197 4l-22 -153h-25l77 546v1l20 143h25zM111.999 172
l193.998 0.00195312c66.667 1.33301 114.334 14.166 143.001 38.499s48 72.166 58 143.499c9.33301 70 3.33301 117.167 -18 141.5s-64 36.5 -128 36.5c-87.333 0 -153.666 -0.666992 -198.999 -2z" />
    <glyph glyph-name="germandbls" unicode="&#xdf;" horiz-adv-x="646" 
d="M147 480l6.99902 52.001c5.33301 40 14.666 72.667 27.999 98s30.833 43.666 52.5 54.999s42.667 18.666 63 21.999s46.5 5 78.5 5c74.667 0 127.334 -8 158.001 -24s44.667 -45.667 42 -89c-2 -36.667 -13.167 -64.167 -33.5 -82.5s-48.5 -33.5 -84.5 -45.5l-38.5 -12
c-19 -6 -31.167 -10 -36.5 -12s-14.166 -6 -26.499 -12s-20.5 -11.667 -24.5 -17s-8.33301 -12.833 -13 -22.5s-7.33398 -20.5 -8.00098 -32.5c-1.33301 -18.667 1.83398 -34 9.50098 -46s22.5 -23 44.5 -33l128 -60c33.333 -15.333 56 -31.666 68 -48.999
s16 -42.333 12 -75c-6 -46 -23.833 -76 -53.5 -90s-73.834 -21 -132.501 -21c-52.667 0 -104 3.66699 -154 11l3 18c55.333 -6 109 -8.33301 161 -7c50 1.33301 86.667 8 110 20s37.333 36.333 42 73c2 16 2 29.5 0 40.5s-7.16699 20.333 -15.5 28
s-14.833 12.834 -19.5 15.501s-13.334 7 -26.001 13l-126 60c-29.333 14.667 -49.666 29.667 -60.999 45s-15.666 35.666 -12.999 60.999c0.666992 9.33301 2.16699 17.666 4.5 24.999s6 14.333 11 21s9 12.334 12 17.001s8.83301 9.5 17.5 14.5s14.834 8.66699 18.501 11
s11.667 5.66602 24 9.99902l24 8.5c3.66699 1.33301 13 4.33301 28 9s24.5 7.66699 28.5 9c11.333 3.33301 21 6.83301 29 10.5s18 9.66699 30 18s21.5 19.5 28.5 33.5s10.833 30.333 11.5 49c1.33301 30.667 -9.33398 52.834 -32.001 66.501s-67.667 20.5 -135 20.5
c-72.667 0 -123.667 -10.833 -153 -32.5s-48.333 -64.167 -57 -127.5l-86 -608c-7.33301 -48 -21.333 -82 -42 -102s-52.667 -30 -96 -30c-32.667 0 -60 1.33301 -82 4l1 18h79c36.667 0 63.667 8.33301 81 25s29 45.667 35 87l76 534h-88l3 17z" />
    <glyph glyph-name="agrave" unicode="&#xe0;" horiz-adv-x="564" 
d="M352 554l-134 141l19 18l129 -147zM412 0l15 122c-39.333 -43.333 -81.5 -76.5 -126.5 -99.5s-84.5 -34.5 -118.5 -34.5c-58.667 0 -96 20.667 -112 62s-16 105.333 0 192c16 100.667 40 167.5 72 200.5s91 49.5 177 49.5c47.333 0 107 -4 179 -12l-68 -480h-18zM428 151
l43.002 312c-72.667 4.66699 -122.334 7 -149.001 7c-34 0 -61.833 -2 -83.5 -6s-40.834 -10.667 -57.501 -20s-30.167 -23.5 -40.5 -42.5s-19.166 -41 -26.499 -66s-14 -57.5 -20 -97.5c-14.667 -79.333 -15.834 -137 -3.50098 -173s42.833 -54 91.5 -54
c33.333 0 72.833 12.5 118.5 37.5s88.167 59.167 127.5 102.5z" />
    <glyph glyph-name="aacute" unicode="&#xe1;" horiz-adv-x="564" 
d="M293 554l-14 14l169 146l17 -19zM412 0l15 122c-39.333 -43.333 -81.5 -76.5 -126.5 -99.5s-84.5 -34.5 -118.5 -34.5c-58.667 0 -96 20.667 -112 62s-16 105.333 0 192c16 100.667 40 167.5 72 200.5s91 49.5 177 49.5c47.333 0 107 -4 179 -12l-68 -480h-18zM428 151
l43.002 312c-72.667 4.66699 -122.334 7 -149.001 7c-34 0 -61.833 -2 -83.5 -6s-40.834 -10.667 -57.501 -20s-30.167 -23.5 -40.5 -42.5s-19.166 -41 -26.499 -66s-14 -57.5 -20 -97.5c-14.667 -79.333 -15.834 -137 -3.50098 -173s42.833 -54 91.5 -54
c33.333 0 72.833 12.5 118.5 37.5s88.167 59.167 127.5 102.5z" />
    <glyph glyph-name="acircumflex" unicode="&#xe2;" horiz-adv-x="564" 
d="M194 568l-10 13l152 117h18l121 -117l-12 -12l-115 102h-9zM412 0l15 122c-39.333 -43.333 -81.5 -76.5 -126.5 -99.5s-84.5 -34.5 -118.5 -34.5c-58.667 0 -96 20.667 -112 62s-16 105.333 0 192c16 100.667 40 167.5 72 200.5s91 49.5 177 49.5
c47.333 0 107 -4 179 -12l-68 -480h-18zM428 151l43.002 312c-72.667 4.66699 -122.334 7 -149.001 7c-34 0 -61.833 -2 -83.5 -6s-40.834 -10.667 -57.501 -20s-30.167 -23.5 -40.5 -42.5s-19.166 -41 -26.499 -66s-14 -57.5 -20 -97.5
c-14.667 -79.333 -15.834 -137 -3.50098 -173s42.833 -54 91.5 -54c33.333 0 72.833 12.5 118.5 37.5s88.167 59.167 127.5 102.5z" />
    <glyph glyph-name="atilde" unicode="&#xe3;" horiz-adv-x="564" 
d="M472 680l17 -1.99805c-2.66699 -28.667 -11.667 -50.334 -27 -65.001s-34.666 -21 -57.999 -19c-24 2 -48.167 13.5 -72.5 34.5s-43.5 32.167 -57.5 33.5c-39.333 4 -62.666 -18.667 -69.999 -68l-17 2c3.33301 30 12.666 52.667 27.999 68s34.666 22 57.999 20
c20 -2 42 -13.5 66 -34.5s45.333 -32.167 64 -33.5c20.667 -1.33301 36.5 3.16699 47.5 13.5s18.167 27.166 21.5 50.499zM412 0.00195312l15 122c-39.333 -43.333 -81.5 -76.5 -126.5 -99.5s-84.5 -34.5 -118.5 -34.5c-58.667 0 -96 20.667 -112 62s-16 105.333 0 192
c16 100.667 40 167.5 72 200.5s91 49.5 177 49.5c47.333 0 107 -4 179 -12l-68 -480h-18zM428 151.002l43.002 312c-72.667 4.66699 -122.334 7 -149.001 7c-34 0 -61.833 -2 -83.5 -6s-40.834 -10.667 -57.501 -20s-30.167 -23.5 -40.5 -42.5s-19.166 -41 -26.499 -66
s-14 -57.5 -20 -97.5c-14.667 -79.333 -15.834 -137 -3.50098 -173s42.833 -54 91.5 -54c33.333 0 72.833 12.5 118.5 37.5s88.167 59.167 127.5 102.5z" />
    <glyph glyph-name="adieresis" unicode="&#xe4;" horiz-adv-x="564" 
d="M247 596h-7.00098c-7.33301 0 -10.666 4 -9.99902 12l8 54c1.33301 8 5.33301 12 12 12h9c7.33301 0 10.333 -4 9 -12l-8 -53c-0.666992 -8.66699 -5 -13 -13 -13zM423.999 596h-7.00098c-7.33301 0 -10.666 4 -9.99902 12l8 54c0.666992 8 4.66699 12 12 12h9
c6.66699 0 9.66699 -4 9 -12l-8 -53c-0.666992 -8.66699 -5 -13 -13 -13zM411.998 0l15 122c-39.333 -43.333 -81.5 -76.5 -126.5 -99.5s-84.5 -34.5 -118.5 -34.5c-58.667 0 -96 20.667 -112 62s-16 105.333 0 192c16 100.667 40 167.5 72 200.5s91 49.5 177 49.5
c47.333 0 107 -4 179 -12l-68 -480h-18zM427.998 151l43.002 312c-72.667 4.66699 -122.334 7 -149.001 7c-34 0 -61.833 -2 -83.5 -6s-40.834 -10.667 -57.501 -20s-30.167 -23.5 -40.5 -42.5s-19.166 -41 -26.499 -66s-14 -57.5 -20 -97.5
c-14.667 -79.333 -15.834 -137 -3.50098 -173s42.833 -54 91.5 -54c33.333 0 72.833 12.5 118.5 37.5s88.167 59.167 127.5 102.5z" />
    <glyph glyph-name="aring" unicode="&#xe5;" horiz-adv-x="564" 
d="M328 537c-28 0 -50.334 9.33301 -67.001 28s-23.334 41.667 -20.001 69c3.33301 25.333 14.833 47.166 34.5 65.499s43.167 27.5 70.5 27.5c28 0 50.333 -9.5 67 -28.5s23.334 -41.833 20.001 -68.5c-3.33301 -25.333 -14.666 -47.166 -33.999 -65.499
s-43 -27.5 -71 -27.5zM261.999 630c-2.66699 -20.667 2.16602 -38.167 14.499 -52.5s29.5 -21.5 51.5 -21.5s40.833 7.5 56.5 22.5s24.834 33.5 27.501 55.5c2.66699 20.667 -2 38.167 -14 52.5s-29.333 21.5 -52 21.5s-41.667 -7.5 -57 -22.5s-24.333 -33.5 -27 -55.5z
M411.999 0l15 122c-39.333 -43.333 -81.5 -76.5 -126.5 -99.5s-84.5 -34.5 -118.5 -34.5c-58.667 0 -96 20.667 -112 62s-16 105.333 0 192c16 100.667 40 167.5 72 200.5s91 49.5 177 49.5c47.333 0 107 -4 179 -12l-68 -480h-18zM427.999 151l43.002 312
c-72.667 4.66699 -122.334 7 -149.001 7c-34 0 -61.833 -2 -83.5 -6s-40.834 -10.667 -57.501 -20s-30.167 -23.5 -40.5 -42.5s-19.166 -41 -26.499 -66s-14 -57.5 -20 -97.5c-14.667 -79.333 -15.834 -137 -3.50098 -173s42.833 -54 91.5 -54
c33.333 0 72.833 12.5 118.5 37.5s88.167 59.167 127.5 102.5z" />
    <glyph glyph-name="ae" unicode="&#xe6;" horiz-adv-x="872" 
d="M764 24l2.99805 -18.001c-44.667 -12 -107.667 -18 -189 -18c-57.333 0 -100.166 9.83301 -128.499 29.5s-44.833 52.167 -49.5 97.5c-36 -41.333 -74 -72.833 -114 -94.5s-78.667 -32.5 -116 -32.5c-38 0 -66.167 10.333 -84.5 31s-27.833 49.834 -28.5 87.501
s2.66602 82.834 9.99902 135.501c15.333 100.667 39.333 167.5 72 200.5s90.334 49.5 173.001 49.5c58.667 0 129.334 -7.33301 212.001 -22c30 14.667 73.333 22 130 22c64 0 110.167 -10.5 138.5 -31.5s35.833 -59.833 22.5 -116.5
c-9.33301 -38.667 -25.5 -65.834 -48.5 -81.501s-59.833 -26.167 -110.5 -31.5l-231 -25c-8.66699 -76 -1 -127.667 23 -155s70.667 -41 140 -41c52 0 110.667 4.66699 176 14zM170.998 10.999c34 0 71 11 111 33s78.667 54 116 96c-0.666992 27.333 2 62 8 104
c16 105.333 46 175 90 209c-96 11.333 -156.667 17 -182 17c-78.667 0 -132 -15.167 -160 -45.5s-49 -92.5 -63 -186.5c-14 -76 -15.333 -132.833 -4 -170.5s39.333 -56.5 84 -56.5zM427.998 226.999l229 26.001c44.667 5.33301 76 14.166 94 26.499s31.333 34.5 40 66.5
c3.33301 18 5.5 33.667 6.5 47s-1.5 24.5 -7.5 33.5s-12.5 16.333 -19.5 22s-16.833 10.167 -29.5 13.5s-25 5.5 -37 6.5s-26.333 1.5 -43 1.5c-38.667 0 -69.5 -2.5 -92.5 -7.5s-44.333 -15.667 -64 -32s-35 -39.5 -46 -69.5s-20.5 -70 -28.5 -120z" />
    <glyph glyph-name="ccedilla" unicode="&#xe7;" horiz-adv-x="475" 
d="M391 23l2.99902 -18.001c-50.667 -11.333 -99.334 -17 -146.001 -17c-80.667 0 -135.167 19.167 -163.5 57.5s-36.166 103.833 -23.499 196.5c12.667 92 38 156.667 76 194s96.667 56 176 56c54.667 0 99.334 -5.66699 134.001 -17l-7 -18c-29.333 8 -70 12 -122 12
c-74 0 -128 -16.5 -162 -49.5s-57.333 -93.167 -70 -180.5c-12 -87.333 -6 -147.166 18 -179.499s72.667 -48.5 146 -48.5c53.333 0 100.333 4 141 12zM202.999 -75.001l3 14c26.667 1.33301 46 -3.5 58 -14.5s16 -28.5 12 -52.5c-5.33301 -34 -22 -61 -50 -81
s-62.333 -27.333 -103 -22l5 15c34 -1.33301 62.667 7 86 25s37 40.333 41 67c2.66699 18 0.166992 30.5 -7.5 37.5s-22.5 10.833 -44.5 11.5z" />
    <glyph glyph-name="egrave" unicode="&#xe8;" horiz-adv-x="526" 
d="M341 554l-134 141l19 18l129 -147zM420 24l3.00098 -18.001c-44.667 -12 -107.667 -18 -189 -18c-78.667 0 -130.5 19.167 -155.5 57.5s-30.5 104.5 -16.5 198.5c8 51.333 18.333 93.333 31 126s29.667 57.834 51 75.501s44.666 29.834 69.999 36.501s57.333 10 96 10
c64 0 110.167 -10.5 138.5 -31.5s35.833 -59.833 22.5 -116.5c-9.33301 -38.667 -25.5 -65.834 -48.5 -81.501s-59.833 -26.167 -110.5 -31.5l-231 -25c-8.66699 -76 -1 -127.667 23 -155s70.667 -41 140 -41c52 0 110.667 4.66699 176 14zM84.001 226.999l229 26.001
c44.667 5.33301 76 14.166 94 26.499s31.333 34.5 40 66.5c3.33301 18 5.5 33.667 6.5 47s-1.5 24.5 -7.5 33.5s-12.5 16.333 -19.5 22s-16.833 10.167 -29.5 13.5s-25 5.5 -37 6.5s-26.333 1.5 -43 1.5c-38.667 0 -69.5 -2.5 -92.5 -7.5s-44.333 -15.667 -64 -32
s-35 -39.5 -46 -69.5s-20.5 -70 -28.5 -120z" />
    <glyph glyph-name="eacute" unicode="&#xe9;" horiz-adv-x="526" 
d="M282 554l-14 14l169 146l17 -19zM420 24l3.00098 -18.001c-44.667 -12 -107.667 -18 -189 -18c-78.667 0 -130.5 19.167 -155.5 57.5s-30.5 104.5 -16.5 198.5c8 51.333 18.333 93.333 31 126s29.667 57.834 51 75.501s44.666 29.834 69.999 36.501s57.333 10 96 10
c64 0 110.167 -10.5 138.5 -31.5s35.833 -59.833 22.5 -116.5c-9.33301 -38.667 -25.5 -65.834 -48.5 -81.501s-59.833 -26.167 -110.5 -31.5l-231 -25c-8.66699 -76 -1 -127.667 23 -155s70.667 -41 140 -41c52 0 110.667 4.66699 176 14zM84.001 226.999l229 26.001
c44.667 5.33301 76 14.166 94 26.499s31.333 34.5 40 66.5c3.33301 18 5.5 33.667 6.5 47s-1.5 24.5 -7.5 33.5s-12.5 16.333 -19.5 22s-16.833 10.167 -29.5 13.5s-25 5.5 -37 6.5s-26.333 1.5 -43 1.5c-38.667 0 -69.5 -2.5 -92.5 -7.5s-44.333 -15.667 -64 -32
s-35 -39.5 -46 -69.5s-20.5 -70 -28.5 -120z" />
    <glyph glyph-name="ecircumflex" unicode="&#xea;" horiz-adv-x="526" 
d="M183 568l-10 13l152 117h18l121 -117l-12 -12l-115 102h-9zM420 24l3.00098 -18.001c-44.667 -12 -107.667 -18 -189 -18c-78.667 0 -130.5 19.167 -155.5 57.5s-30.5 104.5 -16.5 198.5c8 51.333 18.333 93.333 31 126s29.667 57.834 51 75.501
s44.666 29.834 69.999 36.501s57.333 10 96 10c64 0 110.167 -10.5 138.5 -31.5s35.833 -59.833 22.5 -116.5c-9.33301 -38.667 -25.5 -65.834 -48.5 -81.501s-59.833 -26.167 -110.5 -31.5l-231 -25c-8.66699 -76 -1 -127.667 23 -155s70.667 -41 140 -41
c52 0 110.667 4.66699 176 14zM84.001 226.999l229 26.001c44.667 5.33301 76 14.166 94 26.499s31.333 34.5 40 66.5c3.33301 18 5.5 33.667 6.5 47s-1.5 24.5 -7.5 33.5s-12.5 16.333 -19.5 22s-16.833 10.167 -29.5 13.5s-25 5.5 -37 6.5s-26.333 1.5 -43 1.5
c-38.667 0 -69.5 -2.5 -92.5 -7.5s-44.333 -15.667 -64 -32s-35 -39.5 -46 -69.5s-20.5 -70 -28.5 -120z" />
    <glyph glyph-name="edieresis" unicode="&#xeb;" horiz-adv-x="526" 
d="M236 596h-7.00098c-7.33301 0 -10.666 4 -9.99902 12l8 54c0.666992 8 4.66699 12 12 12h9c6.66699 0 9.66699 -4 9 -12l-8 -53c-0.666992 -8.66699 -5 -13 -13 -13zM412.999 596h-7.00098c-7.33301 0 -10.666 4 -9.99902 12l8 54c1.33301 8 5.33301 12 12 12h9
c7.33301 0 10.333 -4 9 -12l-8 -53c-0.666992 -8.66699 -5 -13 -13 -13zM419.998 24l3.00098 -18.001c-44.667 -12 -107.667 -18 -189 -18c-78.667 0 -130.5 19.167 -155.5 57.5s-30.5 104.5 -16.5 198.5c8 51.333 18.333 93.333 31 126s29.667 57.834 51 75.501
s44.666 29.834 69.999 36.501s57.333 10 96 10c64 0 110.167 -10.5 138.5 -31.5s35.833 -59.833 22.5 -116.5c-9.33301 -38.667 -25.5 -65.834 -48.5 -81.501s-59.833 -26.167 -110.5 -31.5l-231 -25c-8.66699 -76 -1 -127.667 23 -155s70.667 -41 140 -41
c52 0 110.667 4.66699 176 14zM83.999 226.999l229 26.001c44.667 5.33301 76 14.166 94 26.499s31.333 34.5 40 66.5c3.33301 18 5.5 33.667 6.5 47s-1.5 24.5 -7.5 33.5s-12.5 16.333 -19.5 22s-16.833 10.167 -29.5 13.5s-25 5.5 -37 6.5s-26.333 1.5 -43 1.5
c-38.667 0 -69.5 -2.5 -92.5 -7.5s-44.333 -15.667 -64 -32s-35 -39.5 -46 -69.5s-20.5 -70 -28.5 -120z" />
    <glyph glyph-name="igrave" unicode="&#xec;" horiz-adv-x="218" 
d="M185 566l-14 -12l-134 141l19 18zM80 0h-24l68 480h24z" />
    <glyph glyph-name="iacute" unicode="&#xed;" horiz-adv-x="218" 
d="M284 695l-172 -141l-14 14l169 146zM80 0h-24l68 480h24z" />
    <glyph glyph-name="icircumflex" unicode="&#xee;" horiz-adv-x="218" 
d="M294 581l-12 -12l-115 102h-9l-145 -103l-10 13l152 117h18zM80 0h-24l68 480h24z" />
    <glyph glyph-name="idieresis" unicode="&#xef;" horiz-adv-x="218" 
d="M69 674h8.99902c6.66699 0 9.66699 -4 9 -12l-8 -53c-0.666992 -8.66699 -5 -13 -13 -13h-7c-7.33301 0 -10.666 4 -9.99902 12l8 54c0.666992 8 4.66699 12 12 12zM245.999 674h8.99902c7.33301 0 10.333 -4 9 -12l-8 -53c-0.666992 -8.66699 -5 -13 -13 -13h-7
c-7.33301 0 -10.666 4 -9.99902 12l8 54c1.33301 8 5.33301 12 12 12zM79.998 0h-24l68 480h24z" />
    <glyph glyph-name="eth" unicode="&#xf0;" horiz-adv-x="545" 
d="M478 681l-88.001 -55.002c71.333 -69.333 95.666 -185.666 72.999 -348.999c-4 -28.667 -8.16699 -53.167 -12.5 -73.5s-10.166 -42.666 -17.499 -66.999s-16.5 -44.5 -27.5 -60.5s-24.5 -31.167 -40.5 -45.5s-35.5 -25 -58.5 -32s-49.167 -10.5 -78.5 -10.5
c-69.333 0 -117.833 18.667 -145.5 56s-35.5 97 -23.5 179c20.667 148.667 95.334 223 224.001 223c74 0 129 -25.667 165 -77c3.33301 110.667 -22.334 192.334 -77.001 245.001l-103 -65l-8 17l96 61c-45.333 35.333 -107.333 53 -186 53l6 18
c82.667 1.33301 149.334 -18.334 200.001 -59.001l93 59zM226.999 9.99805c37.333 0 68.835 6.33105 94.502 18.998s46.167 32.334 61.5 59.001s27.166 55.167 35.499 85.5s15.833 68.5 22.5 114.5c3.33301 20.667 5.33301 39.334 6 56.001
c-34.667 53.333 -90.667 80 -168 80c-112 0 -177.333 -68.667 -196 -206c-10 -74.667 -3.33301 -128 20 -160s64.666 -48 123.999 -48z" />
    <glyph glyph-name="ntilde" unicode="&#xf1;" horiz-adv-x="567" 
d="M457 680l17 -1.99805c-2.66699 -28.667 -11.667 -50.334 -27 -65.001s-34.666 -21 -57.999 -19c-24 2 -48.167 13.5 -72.5 34.5s-43.5 32.167 -57.5 33.5c-39.333 4 -62.666 -18.667 -69.999 -68l-17 2c3.33301 30 12.666 52.667 27.999 68s34.666 22 57.999 20
c20 -2 42 -13.5 66 -34.5s45.333 -32.167 64 -33.5c20.667 -1.33301 36.5 3.16699 47.5 13.5s18.167 27.166 21.5 50.499zM138 480.002l-15.001 -117c102 86 185.667 129 251 129c87.333 0 125 -44 113 -132l-51 -360h-24l51 359c5.33301 38.667 0.5 66.667 -14.5 84
s-41.167 26 -78.5 26c-33.333 0 -69.166 -10.333 -107.499 -31s-84.5 -53 -138.5 -97l-48 -341h-24l68 480h18z" />
    <glyph glyph-name="ograve" unicode="&#xf2;" 
d="M354 566l-14 -12l-134 141l19 18zM304 492c78 0 130.333 -19 157 -57s33.334 -103.667 20.001 -197c-13.333 -92 -38 -156.667 -74 -194s-92.333 -56 -169 -56c-78 0 -130.333 19 -157 57s-33.334 103.667 -20.001 197c13.333 92 38 156.667 74 194s92.333 56 169 56z
M304 469c-68.667 0 -119.167 -17 -151.5 -51s-54.5 -94 -66.5 -180c-12 -85.333 -6.83301 -144.5 15.5 -177.5s67.833 -49.5 136.5 -49.5s119.167 17 151.5 51s54.5 94 66.5 180c12 85.333 6.83301 144.5 -15.5 177.5s-67.833 49.5 -136.5 49.5z" />
    <glyph glyph-name="oacute" unicode="&#xf3;" 
d="M453 695l-172 -141l-14 14l169 146zM304 492c78 0 130.333 -19 157 -57s33.334 -103.667 20.001 -197c-13.333 -92 -38 -156.667 -74 -194s-92.333 -56 -169 -56c-78 0 -130.333 19 -157 57s-33.334 103.667 -20.001 197c13.333 92 38 156.667 74 194s92.333 56 169 56z
M304 469c-68.667 0 -119.167 -17 -151.5 -51s-54.5 -94 -66.5 -180c-12 -85.333 -6.83301 -144.5 15.5 -177.5s67.833 -49.5 136.5 -49.5s119.167 17 151.5 51s54.5 94 66.5 180c12 85.333 6.83301 144.5 -15.5 177.5s-67.833 49.5 -136.5 49.5z" />
    <glyph glyph-name="ocircumflex" unicode="&#xf4;" 
d="M463 581l-12 -12l-115 102h-9l-145 -103l-10 13l152 117h18zM304 492c78 0 130.333 -19 157 -57s33.334 -103.667 20.001 -197c-13.333 -92 -38 -156.667 -74 -194s-92.333 -56 -169 -56c-78 0 -130.333 19 -157 57s-33.334 103.667 -20.001 197
c13.333 92 38 156.667 74 194s92.333 56 169 56zM304 469c-68.667 0 -119.167 -17 -151.5 -51s-54.5 -94 -66.5 -180c-12 -85.333 -6.83301 -144.5 15.5 -177.5s67.833 -49.5 136.5 -49.5s119.167 17 151.5 51s54.5 94 66.5 180c12 85.333 6.83301 144.5 -15.5 177.5
s-67.833 49.5 -136.5 49.5z" />
    <glyph glyph-name="otilde" unicode="&#xf5;" 
d="M192 594l-17 2.00195c3.33301 30 12.666 52.667 27.999 68s34.666 22 57.999 20c20 -2 42 -13.5 66 -34.5s45.333 -32.167 64 -33.5c20.667 -1.33301 36.5 3.16699 47.5 13.5s18.167 27.166 21.5 50.499l17 -2c-2.66699 -28.667 -11.667 -50.334 -27 -65.001
s-34.666 -21 -57.999 -19c-24 2 -48.167 13.5 -72.5 34.5s-43.5 32.167 -57.5 33.5c-39.333 4 -62.666 -18.667 -69.999 -68zM304 492.002c78 0 130.333 -19 157 -57s33.334 -103.667 20.001 -197c-13.333 -92 -38 -156.667 -74 -194s-92.333 -56 -169 -56
c-78 0 -130.333 19 -157 57s-33.334 103.667 -20.001 197c13.333 92 38 156.667 74 194s92.333 56 169 56zM304 469.002c-68.667 0 -119.167 -17 -151.5 -51s-54.5 -94 -66.5 -180c-12 -85.333 -6.83301 -144.5 15.5 -177.5s67.833 -49.5 136.5 -49.5s119.167 17 151.5 51
s54.5 94 66.5 180c12 85.333 6.83301 144.5 -15.5 177.5s-67.833 49.5 -136.5 49.5z" />
    <glyph glyph-name="odieresis" unicode="&#xf6;" 
d="M238 674h8.99902c7.33301 0 10.333 -4 9 -12l-8 -53c-0.666992 -8.66699 -5 -13 -13 -13h-7c-7.33301 0 -10.666 4 -9.99902 12l8 54c1.33301 8 5.33301 12 12 12zM414.999 674h8.99902c6.66699 0 9.66699 -4 9 -12l-8 -53c-0.666992 -8.66699 -5 -13 -13 -13h-7
c-7.33301 0 -10.666 4 -9.99902 12l8 54c0.666992 8 4.66699 12 12 12zM303.998 492c78 0 130.333 -19 157 -57s33.334 -103.667 20.001 -197c-13.333 -92 -38 -156.667 -74 -194s-92.333 -56 -169 -56c-78 0 -130.333 19 -157 57s-33.334 103.667 -20.001 197
c13.333 92 38 156.667 74 194s92.333 56 169 56zM303.998 469c-68.667 0 -119.167 -17 -151.5 -51s-54.5 -94 -66.5 -180c-12 -85.333 -6.83301 -144.5 15.5 -177.5s67.833 -49.5 136.5 -49.5s119.167 17 151.5 51s54.5 94 66.5 180c12 85.333 6.83301 144.5 -15.5 177.5
s-67.833 49.5 -136.5 49.5z" />
    <glyph glyph-name="divide" unicode="&#xf7;" horiz-adv-x="589" 
d="M317 502h10.001c8 -0.666992 11.667 -5 11 -13l-9 -62c-0.666992 -7.33301 -5 -11 -13 -11h-10c-8 0 -11.667 4.33301 -11 13l9 61c1.33301 8 5.66602 12 12.999 12zM502.001 285h-417l3 22h417zM272.001 175h11.001c7.33301 0 10.666 -4.33301 9.99902 -13l-9 -62
c-0.666992 -7.33301 -5 -11 -13 -11h-10c-8 0 -11.667 4.33301 -11 13l9 61c0.666992 8 5 12 13 12z" />
    <glyph glyph-name="oslash" unicode="&#xf8;" 
d="M463 530l-38 -63c28.667 -16 47.334 -42.667 56.001 -80s8.66699 -87 0 -149c-13.333 -92 -38 -156.667 -74 -194s-92.333 -56 -169 -56c-38.667 0 -70.667 4.33301 -96 13l-38 -62l-18 9l37 61c-31.333 16.667 -51.833 43.5 -61.5 80.5s-9.83398 87.833 -0.500977 152.5
c13.333 92 38 156.667 74 194s92.333 56 169 56c42.667 0 77 -5.33301 103 -16l38 63zM136 30l258 426c-22 8.66699 -52 13 -90 13c-68.667 0 -119.167 -17 -151.5 -51s-54.5 -94 -66.5 -180c-8 -58.667 -8.16699 -104.5 -0.5 -137.5s24.5 -56.5 50.5 -70.5zM412 447
l-258 -425c21.333 -7.33301 49.333 -11 84 -11c68.667 0 119.167 17 151.5 51s54.5 94 66.5 180c8 56 8.66699 100.5 2 133.5s-22 56.833 -46 71.5z" />
    <glyph glyph-name="ugrave" unicode="&#xf9;" horiz-adv-x="556" 
d="M336 554l-134 141l19 18l129 -147zM490 480l-68.002 -480.002h-18l15 126c-92 -92 -172.333 -138 -241 -138c-43.333 0 -74.666 11.333 -93.999 34s-25.666 55.334 -18.999 98.001l51 360h24l-51 -359c-10.667 -73.333 20.333 -110 93 -110c34 0 69.5 11.333 106.5 34
s80.833 58.334 131.5 107.001l46 328h24z" />
    <glyph glyph-name="uacute" unicode="&#xfa;" horiz-adv-x="556" 
d="M277 554l-14 14l169 146l17 -19zM490 480l-68.002 -480.002h-18l15 126c-92 -92 -172.333 -138 -241 -138c-43.333 0 -74.666 11.333 -93.999 34s-25.666 55.334 -18.999 98.001l51 360h24l-51 -359c-10.667 -73.333 20.333 -110 93 -110c34 0 69.5 11.333 106.5 34
s80.833 58.334 131.5 107.001l46 328h24z" />
    <glyph glyph-name="ucircumflex" unicode="&#xfb;" horiz-adv-x="556" 
d="M178 568l-10 13l152 117h18l121 -117l-12 -12l-115 102h-9zM490 480l-68.002 -480.002h-18l15 126c-92 -92 -172.333 -138 -241 -138c-43.333 0 -74.666 11.333 -93.999 34s-25.666 55.334 -18.999 98.001l51 360h24l-51 -359c-10.667 -73.333 20.333 -110 93 -110
c34 0 69.5 11.333 106.5 34s80.833 58.334 131.5 107.001l46 328h24z" />
    <glyph glyph-name="udieresis" unicode="&#xfc;" horiz-adv-x="556" 
d="M231 596h-7.00098c-7.33301 0 -10.666 4 -9.99902 12l8 54c1.33301 8 5.33301 12 12 12h9c7.33301 0 10.333 -4 9 -12l-8 -53c-0.666992 -8.66699 -5 -13 -13 -13zM407.999 596h-7.00098c-7.33301 0 -10.666 4 -9.99902 12l8 54c0.666992 8 4.66699 12 12 12h9
c6.66699 0 9.66699 -4 9 -12l-8 -53c-0.666992 -8.66699 -5 -13 -13 -13zM489.998 480l-68.002 -480.002h-18l15 126c-92 -92 -172.333 -138 -241 -138c-43.333 0 -74.666 11.333 -93.999 34s-25.666 55.334 -18.999 98.001l51 360h24l-51 -359
c-10.667 -73.333 20.333 -110 93 -110c34 0 69.5 11.333 106.5 34s80.833 58.334 131.5 107.001l46 328h24z" />
    <glyph glyph-name="yacute" unicode="&#xfd;" horiz-adv-x="511" 
d="M246 554l-14 14l169 146l17 -19zM462 480l24.999 0.000976562c-40 -150.667 -102 -291.334 -186 -422.001c-56.667 -87.333 -102.834 -151.166 -138.501 -191.499s-75.5 -65.833 -119.5 -76.5l-4 15c34 11.333 66.167 32.666 96.5 63.999s63.833 75 100.5 131h-36
c-11.333 -0 -21.166 3.33301 -29.499 10s-13.833 15.667 -16.5 27l-98 443h26l93 -433c4.66699 -18 15.334 -26.333 32.001 -25h43l27 41c77.333 122.667 139 261.667 185 417z" />
    <glyph glyph-name="thorn" unicode="&#xfe;" horiz-adv-x="564" 
d="M176 700l-37.002 -259.002c-5.33301 -40 -9.66602 -67 -12.999 -81c38.667 42.667 80.5 75.334 125.5 98.001s84.167 34 117.5 34c58.667 0 95.5 -19.5 110.5 -58.5s15.5 -104.167 1.5 -195.5c-15.333 -100.667 -39.166 -167.5 -71.499 -200.5s-91.5 -49.5 -177.5 -49.5
c-48 0 -100.333 3.66699 -157 11c-0.666992 -19.333 -4 -49.666 -10 -90.999l-17 -118h-24l128 910h24zM122.998 328.998l-43 -311c85.333 -5.33301 135 -8 149 -8c80.667 0 135.334 14.667 164.001 44s50 92 64 188c13.333 79.333 14.166 137 2.49902 173
s-41.834 54 -90.501 54c-34 0 -73.667 -12.5 -119 -37.5s-87.666 -59.167 -126.999 -102.5z" />
    <glyph glyph-name="ydieresis" unicode="&#xff;" horiz-adv-x="511" 
d="M200 596h-7.00098c-7.33301 0 -10.666 4 -9.99902 12l8 54c0.666992 8 4.66699 12 12 12h9c6.66699 0 9.66699 -4 9 -12l-8 -53c-0.666992 -8.66699 -5 -13 -13 -13zM376.999 596h-7.00098c-7.33301 0 -10.666 4 -9.99902 12l8 54c1.33301 8 5.33301 12 12 12h9
c7.33301 0 10.333 -4 9 -12l-8 -53c-0.666992 -8.66699 -5 -13 -13 -13zM461.998 480l24.999 0.000976562c-40 -150.667 -102 -291.334 -186 -422.001c-56.667 -87.333 -102.834 -151.166 -138.501 -191.499s-75.5 -65.833 -119.5 -76.5l-4 15
c34 11.333 66.167 32.666 96.5 63.999s63.833 75 100.5 131h-36c-11.333 -0 -21.166 3.33301 -29.499 10s-13.833 15.667 -16.5 27l-98 443h26l93 -433c4.66699 -18 15.334 -26.333 32.001 -25h43l27 41c77.333 122.667 139 261.667 185 417z" />
    <glyph glyph-name="Amacron" unicode="&#x100;" horiz-adv-x="599" 
d="M504 804h-260l3 23h260zM462 252h-328.999l-127 -252h-28l344 682c2.66699 5.33301 7 8 13 8h43c7.33301 0 11.666 -3.33301 12.999 -10l152 -680h-26zM457.001 274l-75 339c-6 28 -10 46 -12 54h-29c-3.33301 -6 -8 -15.333 -14 -28s-10.667 -22 -14 -28l-169 -337h313z
" />
    <glyph glyph-name="amacron" unicode="&#x101;" horiz-adv-x="564" 
d="M466 622h-260l3 23h260zM412 0l15 122c-39.333 -43.333 -81.5 -76.5 -126.5 -99.5s-84.5 -34.5 -118.5 -34.5c-58.667 0 -96 20.667 -112 62s-16 105.333 0 192c16 100.667 40 167.5 72 200.5s91 49.5 177 49.5c47.333 0 107 -4 179 -12l-68 -480h-18zM428 151
l43.002 312c-72.667 4.66699 -122.334 7 -149.001 7c-34 0 -61.833 -2 -83.5 -6s-40.834 -10.667 -57.501 -20s-30.167 -23.5 -40.5 -42.5s-19.166 -41 -26.499 -66s-14 -57.5 -20 -97.5c-14.667 -79.333 -15.834 -137 -3.50098 -173s42.833 -54 91.5 -54
c33.333 0 72.833 12.5 118.5 37.5s88.167 59.167 127.5 102.5z" />
    <glyph glyph-name="Abreve" unicode="&#x102;" horiz-adv-x="599" 
d="M501 874l17 -6.00098c-4.66699 -35.333 -20.334 -63 -47.001 -83s-60.667 -30 -102 -30c-42.667 0 -75 10.333 -97 31s-30.667 48.667 -26 84l18 2c-4.66699 -29.333 2.5 -52.166 21.5 -68.499s46.833 -24.5 83.5 -24.5s66.834 8.33301 90.501 25s37.5 40 41.5 70z
M462 251.999h-328.999l-127 -252h-28l344 682c2.66699 5.33301 7 8 13 8h43c7.33301 0 11.666 -3.33301 12.999 -10l152 -680h-26zM457.001 273.999l-75 339c-6 28 -10 46 -12 54h-29c-3.33301 -6 -8 -15.333 -14 -28s-10.667 -22 -14 -28l-169 -337h313z" />
    <glyph glyph-name="abreve" unicode="&#x103;" horiz-adv-x="564" 
d="M463 692l17 -6.00098c-4.66699 -35.333 -20.334 -63 -47.001 -83s-60.667 -30 -102 -30c-42.667 0 -75 10.333 -97 31s-30.667 48.667 -26 84l18 2c-4.66699 -29.333 2.5 -52.166 21.5 -68.499s46.833 -24.5 83.5 -24.5s66.834 8.33301 90.501 25s37.5 40 41.5 70z
M412 -0.000976562l15 122c-39.333 -43.333 -81.5 -76.5 -126.5 -99.5s-84.5 -34.5 -118.5 -34.5c-58.667 0 -96 20.667 -112 62s-16 105.333 0 192c16 100.667 40 167.5 72 200.5s91 49.5 177 49.5c47.333 0 107 -4 179 -12l-68 -480h-18zM428 150.999l43.002 312
c-72.667 4.66699 -122.334 7 -149.001 7c-34 0 -61.833 -2 -83.5 -6s-40.834 -10.667 -57.501 -20s-30.167 -23.5 -40.5 -42.5s-19.166 -41 -26.499 -66s-14 -57.5 -20 -97.5c-14.667 -79.333 -15.834 -137 -3.50098 -173s42.833 -54 91.5 -54
c33.333 0 72.833 12.5 118.5 37.5s88.167 59.167 127.5 102.5z" />
    <glyph glyph-name="Aogonek" unicode="&#x104;" horiz-adv-x="599" 
d="M391 680l152.001 -680.001c-49.333 -43.333 -84.333 -86 -105 -128c-14.667 -30 -14.167 -50 1.5 -60s43.5 -8 83.5 6l3 -12c-53.333 -21.333 -89.333 -23.833 -108 -7.5s-19 42.833 -1 79.5c20 40.667 55.667 81.334 107 122.001h-7l-55 252h-329l-127 -252h-28l344 682
c2.66699 5.33301 7 8 13 8h43c7.33301 0 11.666 -3.33301 12.999 -10zM457.001 273.999l-75 339c-6 28 -10 46 -12 54h-29c-3.33301 -6 -8 -15.333 -14 -28s-10.667 -22 -14 -28l-169 -337h313z" />
    <glyph glyph-name="aogonek" unicode="&#x105;" horiz-adv-x="564" 
d="M498 480l-68 -480c-49.333 -43.333 -84.333 -86 -105 -128c-14.667 -30 -14.167 -50 1.5 -60s43.5 -8 83.5 6l3 -12c-53.333 -21.333 -89.333 -23.833 -108 -7.5s-19 42.833 -1 79.5c20 40.667 56 81.667 108 123l15 121c-39.333 -43.333 -81.5 -76.5 -126.5 -99.5
s-84.5 -34.5 -118.5 -34.5c-58.667 0 -96 20.667 -112 62s-16 105.333 0 192c16 100.667 40 167.5 72 200.5s91 49.5 177 49.5c47.333 0 107 -4 179 -12zM428 151l43.002 312c-72.667 4.66699 -122.334 7 -149.001 7c-34 0 -61.833 -2 -83.5 -6s-40.834 -10.667 -57.501 -20
s-30.167 -23.5 -40.5 -42.5s-19.166 -41 -26.499 -66s-14 -57.5 -20 -97.5c-14.667 -79.333 -15.834 -137 -3.50098 -173s42.833 -54 91.5 -54c33.333 0 72.833 12.5 118.5 37.5s88.167 59.167 127.5 102.5z" />
    <glyph glyph-name="Cacute" unicode="&#x106;" 
d="M522 877l-172 -141l-14 14l169 146zM474 24l5 -18c-55.333 -12 -118.333 -18 -189 -18c-94.667 0 -157.5 26.833 -188.5 80.5s-37.167 146.5 -18.5 278.5c18.667 131.333 50.334 223.333 95.001 276s114 79 208 79c67.333 0 125 -5.66699 173 -17l-7 -18
c-48.667 8 -103.667 12 -165 12c-88 0 -152 -24.5 -192 -73.5s-69 -136.5 -87 -262.5c-17.333 -124 -12.833 -210.333 13.5 -259s82.166 -73 167.499 -73c71.333 0 133 4.33301 185 13z" />
    <glyph glyph-name="cacute" unicode="&#x107;" horiz-adv-x="475" 
d="M439 695l-172 -141l-14 14l169 146zM391 23l2.99902 -18.001c-50.667 -11.333 -99.334 -17 -146.001 -17c-80.667 0 -135.167 19.167 -163.5 57.5s-36.166 103.833 -23.499 196.5c12.667 92 38 156.667 76 194s96.667 56 176 56c54.667 0 99.334 -5.66699 134.001 -17
l-7 -18c-29.333 8 -70 12 -122 12c-74 0 -128 -16.5 -162 -49.5s-57.333 -93.167 -70 -180.5c-12 -87.333 -6 -147.166 18 -179.499s72.667 -48.5 146 -48.5c53.333 0 100.333 4 141 12z" />
    <glyph glyph-name="Cdotaccent" unicode="&#x10a;" 
d="M395 860h11.0029c7.33301 0 10.666 -4.33301 9.99902 -13l-8 -60c-0.666992 -8.66699 -5.33398 -13 -14.001 -13h-9c-8.66699 0 -12.334 4.33301 -11.001 13l8 60c0.666992 8.66699 5 13 13 13zM474.003 24l5 -18c-55.333 -12 -118.333 -18 -189 -18
c-94.667 0 -157.5 26.833 -188.5 80.5s-37.167 146.5 -18.5 278.5c18.667 131.333 50.334 223.333 95.001 276s114 79 208 79c67.333 0 125 -5.66699 173 -17l-7 -18c-48.667 8 -103.667 12 -165 12c-88 0 -152 -24.5 -192 -73.5s-69 -136.5 -87 -262.5
c-17.333 -124 -12.833 -210.333 13.5 -259s82.166 -73 167.499 -73c71.333 0 133 4.33301 185 13z" />
    <glyph glyph-name="cdotaccent" unicode="&#x10b;" horiz-adv-x="475" 
d="M312 678h11.0029c7.33301 0 10.666 -4.33301 9.99902 -13l-8 -60c-0.666992 -8.66699 -5.33398 -13 -14.001 -13h-9c-8.66699 0 -12.334 4.33301 -11.001 13l8 60c0.666992 8.66699 5 13 13 13zM391.003 23l2.99902 -18.001c-50.667 -11.333 -99.334 -17 -146.001 -17
c-80.667 0 -135.167 19.167 -163.5 57.5s-36.166 103.833 -23.499 196.5c12.667 92 38 156.667 76 194s96.667 56 176 56c54.667 0 99.334 -5.66699 134.001 -17l-7 -18c-29.333 8 -70 12 -122 12c-74 0 -128 -16.5 -162 -49.5s-57.333 -93.167 -70 -180.5
c-12 -87.333 -6 -147.166 18 -179.499s72.667 -48.5 146 -48.5c53.333 0 100.333 4 141 12z" />
    <glyph glyph-name="Ccaron" unicode="&#x10c;" 
d="M549 868l-154 -117h-18l-120 117l11 12l116 -102h8l146 102zM474 24l5 -18c-55.333 -12 -118.333 -18 -189 -18c-94.667 0 -157.5 26.833 -188.5 80.5s-37.167 146.5 -18.5 278.5c18.667 131.333 50.334 223.333 95.001 276s114 79 208 79c67.333 0 125 -5.66699 173 -17
l-7 -18c-48.667 8 -103.667 12 -165 12c-88 0 -152 -24.5 -192 -73.5s-69 -136.5 -87 -262.5c-17.333 -124 -12.833 -210.333 13.5 -259s82.166 -73 167.499 -73c71.333 0 133 4.33301 185 13z" />
    <glyph glyph-name="ccaron" unicode="&#x10d;" horiz-adv-x="475" 
d="M466 686l-154 -117h-18l-120 117l11 12l116 -102h8l146 102zM391 23l2.99902 -18.001c-50.667 -11.333 -99.334 -17 -146.001 -17c-80.667 0 -135.167 19.167 -163.5 57.5s-36.166 103.833 -23.499 196.5c12.667 92 38 156.667 76 194s96.667 56 176 56
c54.667 0 99.334 -5.66699 134.001 -17l-7 -18c-29.333 8 -70 12 -122 12c-74 0 -128 -16.5 -162 -49.5s-57.333 -93.167 -70 -180.5c-12 -87.333 -6 -147.166 18 -179.499s72.667 -48.5 146 -48.5c53.333 0 100.333 4 141 12z" />
    <glyph glyph-name="Dcaron" unicode="&#x10e;" horiz-adv-x="658" 
d="M371 751l-120 117l11 12l116 -102h8l146 102l11 -12l-154 -117h-18zM62 0l97.001 690c80.667 6 157 9 229 9c92.667 0 154 -26.667 184 -80s36 -145.333 18 -276c-18 -131.333 -49 -222.833 -93 -274.5s-112.333 -77.5 -205 -77.5c-72.667 0 -149.334 3 -230.001 9z
M182.001 672l-93 -655.001c122 -2 189.333 -3 202 -3c84 0 146.333 24.333 187 73s69.667 135.334 87 260.001c16.667 122 12 207.333 -14 256s-80.333 73 -163 73c-57.333 0 -126 -1.33301 -206 -4z" />
    <glyph glyph-name="dcaron" unicode="&#x10f;" horiz-adv-x="562" 
d="M630 700l11.001 0.000976562c5.33301 0 7.66602 -3.33301 6.99902 -10l-9 -60c-5.33301 -34.667 -16.666 -72.334 -33.999 -113.001l-14 4c9.33301 30.667 17 64.667 23 102c-4.66699 0 -6.33398 3 -5.00098 9l9 58c0.666992 6.66699 4.66699 10 12 10zM527.001 700.001
l-30.999 -220.001l-68 -480h-18l14 121c-82.667 -88.667 -167 -133 -253 -133c-54 0 -88.333 21.833 -103 65.5s-14.667 106.5 0 188.5c14.667 100.667 38.5 167.5 71.5 200.5s92.833 49.5 179.5 49.5c42.667 0 94.667 -3.33301 156 -10
c1.33301 24.667 4.66602 55.334 9.99902 92.001l18 126h24zM426.002 150l42.998 313c-72.667 4.66699 -122 7 -148 7c-81.333 0 -136.333 -14.667 -165 -44s-50 -92 -64 -188c-13.333 -75.333 -14.333 -132 -3 -170s39.333 -57 84 -57c38.667 0 80.334 12 125.001 36
s87.334 58.333 128.001 103z" />
    <glyph glyph-name="Dcroat" unicode="&#x110;" horiz-adv-x="658" 
d="M116 381l43.001 309c80.667 6 157 9 229 9c92.667 0 154 -26.667 184 -80s36 -145.333 18 -276c-18 -131.333 -49 -222.833 -93 -274.5s-112.333 -77.5 -205 -77.5c-72.667 0 -149.334 3 -230.001 9l51 361h-83l3 20h83zM138.001 361l-49 -344.001
c122 -2 189.333 -3 202 -3c84 0 146.333 24.333 187 73s69.667 135.334 87 260.001c16.667 122 12 207.333 -14 256s-80.333 73 -163 73c-57.333 0 -126 -1.33301 -206 -4l-41 -291h180l-3 -20h-180z" />
    <glyph glyph-name="dcroat" unicode="&#x111;" horiz-adv-x="562" 
d="M511 590l-14.999 -110.001l-68 -480h-18l14 121c-82.667 -88.667 -167 -133 -253 -133c-54 0 -88.333 21.833 -103 65.5s-14.667 106.5 0 188.5c14.667 100.667 38.5 167.5 71.5 200.5s92.833 49.5 179.5 49.5c42.667 0 94.667 -3.33301 156 -10
c1.33301 24.667 4.66602 55.334 9.99902 92.001l2 16h-173l3 20h173l13 90h24l-13 -90h78l-3 -20h-78zM426.001 149.999l42.998 313c-72.667 4.66699 -122 7 -148 7c-81.333 0 -136.333 -14.667 -165 -44s-50 -92 -64 -188c-13.333 -75.333 -14.333 -132 -3 -170
s39.333 -57 84 -57c38.667 0 80.334 12 125.001 36s87.334 58.333 128.001 103z" />
    <glyph glyph-name="Emacron" unicode="&#x112;" horiz-adv-x="548" 
d="M506 829h-260l3 23h260zM543 668h-285.999c-26.667 0 -48.334 -7.5 -65.001 -22.5s-26.667 -35.167 -30 -60.5l-28 -205h328l-3 -21h-328l-36 -256c-3.33301 -24 1.33398 -43.5 14.001 -58.5s31 -22.5 55 -22.5h288l1 -18c-66 -2.66699 -164 -4 -294 -4
c-30 -0 -53.5 9.83301 -70.5 29.5s-23.167 44.167 -18.5 73.5l68 486c4 30 16 54.333 36 73s46 28 78 28c131.333 0 229.666 -1.33301 294.999 -4z" />
    <glyph glyph-name="emacron" unicode="&#x113;" horiz-adv-x="526" 
d="M455 622h-260l3 23h260zM420 24l3.00098 -18.001c-44.667 -12 -107.667 -18 -189 -18c-78.667 0 -130.5 19.167 -155.5 57.5s-30.5 104.5 -16.5 198.5c8 51.333 18.333 93.333 31 126s29.667 57.834 51 75.501s44.666 29.834 69.999 36.501s57.333 10 96 10
c64 0 110.167 -10.5 138.5 -31.5s35.833 -59.833 22.5 -116.5c-9.33301 -38.667 -25.5 -65.834 -48.5 -81.501s-59.833 -26.167 -110.5 -31.5l-231 -25c-8.66699 -76 -1 -127.667 23 -155s70.667 -41 140 -41c52 0 110.667 4.66699 176 14zM84.001 226.999l229 26.001
c44.667 5.33301 76 14.166 94 26.499s31.333 34.5 40 66.5c3.33301 18 5.5 33.667 6.5 47s-1.5 24.5 -7.5 33.5s-12.5 16.333 -19.5 22s-16.833 10.167 -29.5 13.5s-25 5.5 -37 6.5s-26.333 1.5 -43 1.5c-38.667 0 -69.5 -2.5 -92.5 -7.5s-44.333 -15.667 -64 -32
s-35 -39.5 -46 -69.5s-20.5 -70 -28.5 -120z" />
    <glyph glyph-name="Edotaccent" unicode="&#x116;" horiz-adv-x="548" 
d="M377 799h-8.99707c-8.66699 0 -12.334 4.33301 -11.001 13l8 60c0.666992 8.66699 5 13 13 13h11c7.33301 0 10.666 -4.33301 9.99902 -13l-8 -60c-0.666992 -8.66699 -5.33398 -13 -14.001 -13zM543.003 668h-285.999c-26.667 0 -48.334 -7.5 -65.001 -22.5
s-26.667 -35.167 -30 -60.5l-28 -205h328l-3 -21h-328l-36 -256c-3.33301 -24 1.33398 -43.5 14.001 -58.5s31 -22.5 55 -22.5h288l1 -18c-66 -2.66699 -164 -4 -294 -4c-30 -0 -53.5 9.83301 -70.5 29.5s-23.167 44.167 -18.5 73.5l68 486c4 30 16 54.333 36 73
s46 28 78 28c131.333 0 229.666 -1.33301 294.999 -4z" />
    <glyph glyph-name="edotaccent" unicode="&#x117;" horiz-adv-x="526" 
d="M326 592h-8.99707c-8.66699 0 -12.334 4.33301 -11.001 13l8 60c0.666992 8.66699 5 13 13 13h11c7.33301 0 10.666 -4.33301 9.99902 -13l-8 -60c-0.666992 -8.66699 -5.33398 -13 -14.001 -13zM420.003 24l3.00098 -18.001c-44.667 -12 -107.667 -18 -189 -18
c-78.667 0 -130.5 19.167 -155.5 57.5s-30.5 104.5 -16.5 198.5c8 51.333 18.333 93.333 31 126s29.667 57.834 51 75.501s44.666 29.834 69.999 36.501s57.333 10 96 10c64 0 110.167 -10.5 138.5 -31.5s35.833 -59.833 22.5 -116.5
c-9.33301 -38.667 -25.5 -65.834 -48.5 -81.501s-59.833 -26.167 -110.5 -31.5l-231 -25c-8.66699 -76 -1 -127.667 23 -155s70.667 -41 140 -41c52 0 110.667 4.66699 176 14zM84.0039 226.999l229 26.001c44.667 5.33301 76 14.166 94 26.499s31.333 34.5 40 66.5
c3.33301 18 5.5 33.667 6.5 47s-1.5 24.5 -7.5 33.5s-12.5 16.333 -19.5 22s-16.833 10.167 -29.5 13.5s-25 5.5 -37 6.5s-26.333 1.5 -43 1.5c-38.667 0 -69.5 -2.5 -92.5 -7.5s-44.333 -15.667 -64 -32s-35 -39.5 -46 -69.5s-20.5 -70 -28.5 -120z" />
    <glyph glyph-name="Eogonek" unicode="&#x118;" horiz-adv-x="548" 
d="M543 668h-286c-26.667 0 -48.334 -7.5 -65.001 -22.5s-26.667 -35.167 -30 -60.5l-28 -205h328l-3 -21h-328l-36 -256c-3.33301 -24 1.33398 -43.5 14.001 -58.5s31 -22.5 55 -22.5h288l1 -18c-49.333 -43.333 -84.333 -86 -105 -128c-14.667 -30 -14.167 -50 1.5 -60
s43.5 -8 83.5 6l3 -12c-53.333 -21.333 -89.333 -23.833 -108 -7.5s-19 42.833 -1 79.5c20.667 40 56 80.333 106 121c-61.333 -2 -152.666 -3 -273.999 -3c-30 -0 -53.5 9.83301 -70.5 29.5s-23.167 44.167 -18.5 73.5l68 486c4 30 16 54.333 36 73s46 28 78 28
c131.333 0 229.666 -1.33301 294.999 -4z" />
    <glyph glyph-name="eogonek" unicode="&#x119;" horiz-adv-x="526" 
d="M403 -176l3.00195 -12.001c-53.333 -21.333 -89.333 -23.833 -108 -7.5s-19 42.833 -1 79.5c19.333 38 52.666 77 99.999 117c-50 -8.66699 -104.333 -13 -163 -13c-78.667 0 -130.5 19.167 -155.5 57.5s-30.5 104.5 -16.5 198.5c8 51.333 18.333 93.333 31 126
s29.667 57.834 51 75.501s44.666 29.834 69.999 36.501s57.333 10 96 10c64 0 110.167 -10.5 138.5 -31.5s35.833 -59.833 22.5 -116.5c-9.33301 -38.667 -25.5 -65.834 -48.5 -81.501s-59.833 -26.167 -110.5 -31.5l-231 -25c-8.66699 -76 -1 -127.667 23 -155
s70.667 -41 140 -41c52 0 110.667 4.66699 176 14l3 -18c-49.333 -43.333 -84.333 -86 -105 -128c-14.667 -30 -14.167 -50 1.5 -60s43.5 -8 83.5 6zM84.002 226.999l229 26.001c44.667 5.33301 76 14.166 94 26.499s31.333 34.5 40 66.5c3.33301 18 5.5 33.667 6.5 47
s-1.5 24.5 -7.5 33.5s-12.5 16.333 -19.5 22s-16.833 10.167 -29.5 13.5s-25 5.5 -37 6.5s-26.333 1.5 -43 1.5c-38.667 0 -69.5 -2.5 -92.5 -7.5s-44.333 -15.667 -64 -32s-35 -39.5 -46 -69.5s-20.5 -70 -28.5 -120z" />
    <glyph glyph-name="Ecaron" unicode="&#x11a;" horiz-adv-x="548" 
d="M360 776l-120 117l11 12l116 -102h8l146 102l11 -12l-154 -117h-18zM543 668h-285.999c-26.667 0 -48.334 -7.5 -65.001 -22.5s-26.667 -35.167 -30 -60.5l-28 -205h328l-3 -21h-328l-36 -256c-3.33301 -24 1.33398 -43.5 14.001 -58.5s31 -22.5 55 -22.5h288l1 -18
c-66 -2.66699 -164 -4 -294 -4c-30 -0 -53.5 9.83301 -70.5 29.5s-23.167 44.167 -18.5 73.5l68 486c4 30 16 54.333 36 73s46 28 78 28c131.333 0 229.666 -1.33301 294.999 -4z" />
    <glyph glyph-name="ecaron" unicode="&#x11b;" horiz-adv-x="526" 
d="M309 569l-120 117l11 12l116 -102h8l146 102l11 -12l-154 -117h-18zM420 24l3.00098 -18.001c-44.667 -12 -107.667 -18 -189 -18c-78.667 0 -130.5 19.167 -155.5 57.5s-30.5 104.5 -16.5 198.5c8 51.333 18.333 93.333 31 126s29.667 57.834 51 75.501
s44.666 29.834 69.999 36.501s57.333 10 96 10c64 0 110.167 -10.5 138.5 -31.5s35.833 -59.833 22.5 -116.5c-9.33301 -38.667 -25.5 -65.834 -48.5 -81.501s-59.833 -26.167 -110.5 -31.5l-231 -25c-8.66699 -76 -1 -127.667 23 -155s70.667 -41 140 -41
c52 0 110.667 4.66699 176 14zM84.001 226.999l229 26.001c44.667 5.33301 76 14.166 94 26.499s31.333 34.5 40 66.5c3.33301 18 5.5 33.667 6.5 47s-1.5 24.5 -7.5 33.5s-12.5 16.333 -19.5 22s-16.833 10.167 -29.5 13.5s-25 5.5 -37 6.5s-26.333 1.5 -43 1.5
c-38.667 0 -69.5 -2.5 -92.5 -7.5s-44.333 -15.667 -64 -32s-35 -39.5 -46 -69.5s-20.5 -70 -28.5 -120z" />
    <glyph glyph-name="Gbreve" unicode="&#x11e;" horiz-adv-x="620" 
d="M533 874l17 -6.00098c-4.66699 -35.333 -20.334 -63 -47.001 -83s-60.667 -30 -102 -30c-42.667 0 -75 10.333 -97 31s-30.667 48.667 -26 84l18 2c-4.66699 -29.333 2.5 -52.166 21.5 -68.499s46.833 -24.5 83.5 -24.5s66.834 8.33301 90.501 25s37.5 40 41.5 70z
M583 684.999l-7.00195 -18c-55.333 8 -117.666 12 -186.999 12c-89.333 0 -154.333 -24.5 -195 -73.5s-69.667 -136.5 -87 -262.5c-15.333 -120.667 -11.333 -206.167 12 -256.5s71.333 -75.5 144 -75.5c40.667 0 78.667 10.667 114 32s74.333 51.333 117 90l37 267h25
l-58 -400h-17l11 107c-75.333 -79.333 -152 -119 -230 -119c-81.333 0 -135.833 27.833 -163.5 83.5s-33.167 147.5 -16.5 275.5c18 131.333 49.833 223.333 95.5 276s115.834 79 210.501 79c75.333 0 140.333 -5.66699 195 -17z" />
    <glyph glyph-name="gbreve" unicode="&#x11f;" horiz-adv-x="569" 
d="M465 692l17 -6.00098c-4.66699 -35.333 -20.334 -63 -47.001 -83s-60.667 -30 -102 -30c-42.667 0 -75 10.333 -97 31s-30.667 48.667 -26 84l18 2c-4.66699 -29.333 2.5 -52.166 21.5 -68.499s46.833 -24.5 83.5 -24.5s66.834 8.33301 90.501 25s37.5 40 41.5 70z
M506 479.999l-76 -486c-20.667 -130.667 -93.334 -202 -218.001 -214c-62 -6 -125.333 -5.33301 -190 2l3 18c70.667 -4 130.334 -3.33301 179.001 2c59.333 6 105.333 24.5 138 55.5s54 77.167 64 138.5c10 64 18.333 107.667 25 131c-40 -44.667 -83 -79 -129 -103
s-86 -36 -120 -36c-58.667 0 -96 20.667 -112 62s-16 105.333 0 192c16 100.667 40 167.5 72 200.5s91 49.5 177 49.5c47.333 0 107 -4 179 -12h8zM430 152.999l48.001 310c-102.667 4.66699 -154.667 7 -156 7c-34 0 -61.833 -2 -83.5 -6s-40.834 -10.667 -57.501 -20
s-30.167 -23.5 -40.5 -42.5s-19.166 -41 -26.499 -66s-14 -57.5 -20 -97.5c-14.667 -79.333 -15.834 -137 -3.50098 -173s42.833 -54 91.5 -54c34 0 73.833 12.667 119.5 38s88.5 60 128.5 104z" />
    <glyph glyph-name="Gdotaccent" unicode="&#x120;" horiz-adv-x="620" 
d="M407 774h-8.99707c-8.66699 0 -12.334 4.33301 -11.001 13l8 60c0.666992 8.66699 5 13 13 13h11c7.33301 0 10.666 -4.33301 9.99902 -13l-8 -60c-0.666992 -8.66699 -5.33398 -13 -14.001 -13zM583.003 685l-7.00195 -18c-55.333 8 -117.666 12 -186.999 12
c-89.333 0 -154.333 -24.5 -195 -73.5s-69.667 -136.5 -87 -262.5c-15.333 -120.667 -11.333 -206.167 12 -256.5s71.333 -75.5 144 -75.5c40.667 0 78.667 10.667 114 32s74.333 51.333 117 90l37 267h25l-58 -400h-17l11 107c-75.333 -79.333 -152 -119 -230 -119
c-81.333 0 -135.833 27.833 -163.5 83.5s-33.167 147.5 -16.5 275.5c18 131.333 49.833 223.333 95.5 276s115.834 79 210.501 79c75.333 0 140.333 -5.66699 195 -17z" />
    <glyph glyph-name="gdotaccent" unicode="&#x121;" horiz-adv-x="569" 
d="M339 592h-8.99707c-8.66699 0 -12.334 4.33301 -11.001 13l8 60c0.666992 8.66699 5 13 13 13h11c7.33301 0 10.666 -4.33301 9.99902 -13l-8 -60c-0.666992 -8.66699 -5.33398 -13 -14.001 -13zM506.003 480l-76 -486c-20.667 -130.667 -93.334 -202 -218.001 -214
c-62 -6 -125.333 -5.33301 -190 2l3 18c70.667 -4 130.334 -3.33301 179.001 2c59.333 6 105.333 24.5 138 55.5s54 77.167 64 138.5c10 64 18.333 107.667 25 131c-40 -44.667 -83 -79 -129 -103s-86 -36 -120 -36c-58.667 0 -96 20.667 -112 62s-16 105.333 0 192
c16 100.667 40 167.5 72 200.5s91 49.5 177 49.5c47.333 0 107 -4 179 -12h8zM430.003 153l48.001 310c-102.667 4.66699 -154.667 7 -156 7c-34 0 -61.833 -2 -83.5 -6s-40.834 -10.667 -57.501 -20s-30.167 -23.5 -40.5 -42.5s-19.166 -41 -26.499 -66
s-14 -57.5 -20 -97.5c-14.667 -79.333 -15.834 -137 -3.50098 -173s42.833 -54 91.5 -54c34 0 73.833 12.667 119.5 38s88.5 60 128.5 104z" />
    <glyph glyph-name="Gcommaaccent" unicode="&#x122;" horiz-adv-x="620" 
d="M583 685l-7.00195 -18c-55.333 8 -117.666 12 -186.999 12c-89.333 0 -154.333 -24.5 -195 -73.5s-69.667 -136.5 -87 -262.5c-15.333 -120.667 -11.333 -206.167 12 -256.5s71.333 -75.5 144 -75.5c40.667 0 78.667 10.667 114 32s74.333 51.333 117 90l37 267h25
l-58 -400h-17l11 107c-75.333 -79.333 -152 -119 -230 -119c-81.333 0 -135.833 27.833 -163.5 83.5s-33.167 147.5 -16.5 275.5c18 131.333 49.833 223.333 95.5 276s115.834 79 210.501 79c75.333 0 140.333 -5.66699 195 -17zM266.998 -65l11.001 0.000976562
c5.33301 0 7.66602 -3.33301 6.99902 -10l-9 -60c-5.33301 -34.667 -16.666 -72.334 -33.999 -113.001l-14 4c9.33301 30.667 17 64.667 23 102c-4.66699 0 -6.33398 3 -5.00098 9l9 58c0.666992 6.66699 4.66699 10 12 10z" />
    <glyph glyph-name="gcommaaccent" unicode="&#x123;" horiz-adv-x="569" 
d="M335 566l-11.001 -0.000976562c-5.33301 0 -7.66602 3.33301 -6.99902 10l9 60c5.33301 34.667 16.666 72.334 33.999 113.001l14 -4c-9.33301 -30.667 -17 -64.667 -23 -102c4.66699 0 6.33398 -3 5.00098 -9l-9 -58c-0.666992 -6.66699 -4.66699 -10 -12 -10z
M505.999 479.999l-76 -486c-20.667 -130.667 -93.334 -202 -218.001 -214c-62 -6 -125.333 -5.33301 -190 2l3 18c70.667 -4 130.334 -3.33301 179.001 2c59.333 6 105.333 24.5 138 55.5s54 77.167 64 138.5c10 64 18.333 107.667 25 131c-40 -44.667 -83 -79 -129 -103
s-86 -36 -120 -36c-58.667 0 -96 20.667 -112 62s-16 105.333 0 192c16 100.667 40 167.5 72 200.5s91 49.5 177 49.5c47.333 0 107 -4 179 -12h8zM429.999 152.999l48.001 310c-102.667 4.66699 -154.667 7 -156 7c-34 0 -61.833 -2 -83.5 -6s-40.834 -10.667 -57.501 -20
s-30.167 -23.5 -40.5 -42.5s-19.166 -41 -26.499 -66s-14 -57.5 -20 -97.5c-14.667 -79.333 -15.834 -137 -3.50098 -173s42.833 -54 91.5 -54c34 0 73.833 12.667 119.5 38s88.5 60 128.5 104z" />
    <glyph glyph-name="Hbar" unicode="&#x126;" horiz-adv-x="657" 
d="M667 525h-80l-74 -525h-25l50 359h-401l-50 -359h-25l74 525h-80l3 20h80l20 145h25l-20 -145h401l20 145h25l-20 -145h80zM562 525h-401l-20 -144h401z" />
    <glyph glyph-name="hbar" unicode="&#x127;" horiz-adv-x="567" 
d="M160 590l-14.999 -106c-6 -42.667 -13 -83 -21 -121c101.333 86 184.666 129 249.999 129c87.333 0 125 -44 113 -132l-51 -360h-24l51 359c5.33301 38.667 0.5 66.667 -14.5 84s-41.167 26 -78.5 26c-33.333 0 -69 -10.333 -107 -31s-84.333 -53.667 -139 -99l-48 -339
h-24l83 590h-81l3 20h81l13 90h24l-12 -90h169l-3 -20h-169z" />
    <glyph glyph-name="Imacron" unicode="&#x12a;" horiz-adv-x="231" 
d="M317 804h-260l3 23h260zM87 0h-25l97 690h25z" />
    <glyph glyph-name="imacron" unicode="&#x12b;" horiz-adv-x="218" 
d="M285 622h-260l3 23h260zM80 0h-24l68 480h24z" />
    <glyph glyph-name="Iogonek" unicode="&#x12e;" horiz-adv-x="231" 
d="M184 690l-97 -690.001c-49.333 -43.333 -84.333 -86 -105 -128c-14.667 -30 -14.167 -50 1.5 -60s43.5 -8 83.5 6l3 -12c-53.333 -21.333 -89.333 -23.833 -108 -7.5s-19 42.833 -1 79.5c20 40.667 55.667 81.334 107 122.001h-6l97 690h25z" />
    <glyph glyph-name="iogonek" unicode="&#x12f;" horiz-adv-x="218" 
d="M157 678h11.0029c7.33301 0 10.666 -4.33301 9.99902 -13l-8 -60c-0.666992 -8.66699 -5.33398 -13 -14.001 -13h-9c-8.66699 0 -12.334 4.33301 -11.001 13l8 60c0.666992 8.66699 5 13 13 13zM124.003 480l24 -0.000976562l-68 -480
c-49.333 -43.333 -84.333 -86 -105 -128c-14.667 -30 -14.167 -50 1.5 -60s43.5 -8 83.5 6l3 -12c-53.333 -21.333 -89.333 -23.833 -108 -7.5s-19 42.833 -1 79.5c20 40.667 55.667 81.334 107 122.001h-5z" />
    <glyph glyph-name="Idotaccent" unicode="&#x130;" horiz-adv-x="231" 
d="M189 860h11.0029c7.33301 0 10.666 -4.33301 9.99902 -13l-8 -60c-0.666992 -8.66699 -5.33398 -13 -14.001 -13h-9c-8.66699 0 -12.334 4.33301 -11.001 13l8 60c0.666992 8.66699 5 13 13 13zM87.0029 0h-25l97 690h25z" />
    <glyph glyph-name="dotlessi" unicode="&#x131;" horiz-adv-x="218" 
d="M80 0h-24l68 480h24z" />
    <glyph glyph-name="IJ" unicode="&#x132;" horiz-adv-x="553" 
d="M87 0h-25l97 690h25zM510 690l-81 -576c-11.333 -80.667 -57 -120.667 -137 -120c-18.667 0 -40 2 -64 6l5 16h57c66.667 0 105 33.667 115 101l80 573h25z" />
    <glyph glyph-name="ij" unicode="&#x133;" horiz-adv-x="437" 
d="M158 679h9.99902c8.66699 0 12.334 -4.33301 11.001 -13l-9 -62c-0.666992 -7.33301 -4.66699 -11 -12 -11h-10c-9.33301 0 -13.333 4.33301 -12 13l9 62c0.666992 7.33301 5 11 13 11zM375.999 679h9.99902c8.66699 0 12.334 -4.33301 11.001 -13l-9 -62
c-0.666992 -7.33301 -4.66699 -11 -12 -11h-10c-9.33301 0 -13.333 4.33301 -12 13l9 62c0.666992 7.33301 5 11 13 11zM79.998 0h-24l68 480h24zM365.998 480l-74 -527c-8 -58.667 -37.667 -113 -89 -163l-12 10c44 49.333 69.667 101 77 155l74 525h24z" />
    <glyph glyph-name="Kcommaaccent" unicode="&#x136;" horiz-adv-x="559" 
d="M268 361v-2.00098c6.66699 -8 13 -17.333 19 -28l201 -331h-28l-214 349h-113c-2 -29.333 -5.33301 -58.333 -10 -87l-37 -262h-24l97 690h24l-33 -237c-3.33301 -25.333 -8 -52.666 -14 -81.999h112l289 319h31l-267 -297c-5.33301 -6 -16.333 -16.667 -33 -32z
M260 -65.001l11.001 0.000976562c5.33301 0 7.66602 -3.33301 6.99902 -10l-9 -60c-5.33301 -34.667 -16.666 -72.334 -33.999 -113.001l-14 4c9.33301 30.667 17 64.667 23 102c-4.66699 0 -6.33398 3 -5.00098 9l9 58c0.666992 6.66699 4.66699 10 12 10z" />
    <glyph glyph-name="kcommaaccent" unicode="&#x137;" horiz-adv-x="487" 
d="M436 480h25c-38 -92 -101.333 -163.333 -190 -214l12.5 -25c5.66699 -11.333 9.83398 -20 12.501 -26l108 -215h-27l-127 254c-40.667 -21.333 -89.334 -40 -146.001 -56l-28 -198h-24l99 700h24l-54 -390c-4.66699 -31.333 -10.334 -61.333 -17.001 -90
c166.667 48 277.334 134.667 332.001 260zM208 -65l11.001 0.000976562c5.33301 0 7.66602 -3.33301 6.99902 -10l-9 -60c-5.33301 -34.667 -16.666 -72.334 -33.999 -113.001l-14 4c9.33301 30.667 17 64.667 23 102c-4.66699 0 -6.33398 3 -5.00098 9l9 58
c0.666992 6.66699 4.66699 10 12 10z" />
    <glyph glyph-name="Lacute" unicode="&#x139;" horiz-adv-x="501" 
d="M314 877l-172 -141l-14 14l169 146zM181 690l-82.001 -587c-3.33301 -24 1.33398 -43.5 14.001 -58.5s31 -22.5 55 -22.5h273l-1 -18c-62 -2.66699 -154.333 -4 -277 -4c-30 -0 -53.5 9.83301 -70.5 29.5s-23.167 44.167 -18.5 73.5l82 587h25z" />
    <glyph glyph-name="lacute" unicode="&#x13a;" horiz-adv-x="265" 
d="M312 900l-172 -141l-14 14l169 146zM176 700l-85 -605c-8 -52.667 14.667 -79 68 -79h59l1 -16c-12.667 -4 -34 -6 -64 -6c-31.333 0 -55 9 -71 27s-21.667 43 -17 75l85 604h24z" />
    <glyph glyph-name="Lcommaaccent" unicode="&#x13b;" horiz-adv-x="501" 
d="M181 690l-82.001 -587c-3.33301 -24 1.33398 -43.5 14.001 -58.5s31 -22.5 55 -22.5h273l-1 -18c-62 -2.66699 -154.333 -4 -277 -4c-30 -0 -53.5 9.83301 -70.5 29.5s-23.167 44.167 -18.5 73.5l82 587h25zM244.999 -75l11.001 0.000976562
c5.33301 0 7.66602 -3.33301 6.99902 -10l-9 -60c-5.33301 -34.667 -16.666 -72.334 -33.999 -113.001l-14 4c9.33301 30.667 17 64.667 23 102c-4.66699 0 -6.33398 3 -5.00098 9l9 58c0.666992 6.66699 4.66699 10 12 10z" />
    <glyph glyph-name="lcommaaccent" unicode="&#x13c;" horiz-adv-x="265" 
d="M176 700l-85 -605c-8 -52.667 14.667 -79 68 -79h59l1 -16c-12.667 -4 -34 -6 -64 -6c-31.333 0 -55 9 -71 27s-21.667 43 -17 75l85 604h24zM114 -75l11.001 0.000976562c5.33301 0 7.66602 -3.33301 6.99902 -10l-9 -60
c-5.33301 -34.667 -16.666 -72.334 -33.999 -113.001l-14 4c9.33301 30.667 17 64.667 23 102c-4.66699 0 -6.33398 3 -5.00098 9l9 58c0.666992 6.66699 4.66699 10 12 10z" />
    <glyph glyph-name="Lcaron" unicode="&#x13d;" horiz-adv-x="501" 
d="M181 690l-82.001 -587c-3.33301 -24 1.33398 -43.5 14.001 -58.5s31 -22.5 55 -22.5h273l-1 -18c-62 -2.66699 -154.333 -4 -277 -4c-30 -0 -53.5 9.83301 -70.5 29.5s-23.167 44.167 -18.5 73.5l82 587h25zM309.999 686l11.001 0.000976562
c5.33301 0 7.66602 -3.33301 6.99902 -10l-9 -60c-5.33301 -34.667 -16.666 -72.334 -33.999 -113.001l-14 4c9.33301 30.667 17 64.667 23 102c-4.66699 0 -6.33398 3 -5.00098 9l9 58c0.666992 6.66699 4.66699 10 12 10z" />
    <glyph glyph-name="lcaron" unicode="&#x13e;" horiz-adv-x="265" 
d="M290 700l11.001 0.000976562c5.33301 0 7.66602 -3.33301 6.99902 -10l-9 -60c-5.33301 -34.667 -16.666 -72.334 -33.999 -113.001l-14 4c9.33301 30.667 17 64.667 23 102c-4.66699 0 -6.33398 3 -5.00098 9l9 58c0.666992 6.66699 4.66699 10 12 10zM176.001 700.001
l-85 -605c-8 -52.667 14.667 -79 68 -79h59l1 -16c-12.667 -4 -34 -6 -64 -6c-31.333 0 -55 9 -71 27s-21.667 43 -17 75l85 604h24z" />
    <glyph glyph-name="Ldot" unicode="&#x13f;" horiz-adv-x="501" 
d="M181 690l-82.001 -587c-3.33301 -24 1.33398 -43.5 14.001 -58.5s31 -22.5 55 -22.5h273l-1 -18c-62 -2.66699 -154.333 -4 -277 -4c-30 -0 -53.5 9.83301 -70.5 29.5s-23.167 44.167 -18.5 73.5l82 587h25zM366.999 331h-11.0029
c-7.33301 0 -10.666 4.33301 -9.99902 13l8 60c0.666992 8.66699 5.33398 13 14.001 13h9c8.66699 0 12.334 -4.33301 11.001 -13l-8 -60c-0.666992 -8.66699 -5 -13 -13 -13z" />
    <glyph glyph-name="ldot" unicode="&#x140;" horiz-adv-x="289" 
d="M176 700l-85 -605c-8 -52.667 14.667 -79 68 -79h59l1 -16c-12.667 -4 -34 -6 -64 -6c-31.333 0 -55 9 -71 27s-21.667 43 -17 75l85 604h24zM283 331h-11.0029c-7.33301 0 -10.666 4.33301 -9.99902 13l8 60c0.666992 8.66699 5.33398 13 14.001 13h9
c8.66699 0 12.334 -4.33301 11.001 -13l-8 -60c-0.666992 -8.66699 -5 -13 -13 -13z" />
    <glyph glyph-name="Lslash" unicode="&#x141;" horiz-adv-x="501" 
d="M441 22l-1.00098 -18c-62 -2.66699 -154.333 -4 -277 -4c-30 -0 -53.5 9.83301 -70.5 29.5s-23.167 44.167 -18.5 73.5l35 253l-78 -33l2 20l79 33l44 314h25l-42 -303l140 58l-3 -20l-140 -58l-37 -264c-3.33301 -24 1.33398 -43.5 14.001 -58.5s31 -22.5 55 -22.5h273z
" />
    <glyph glyph-name="lslash" unicode="&#x142;" horiz-adv-x="288" 
d="M129 362l-38 -267c-8 -52.667 14.667 -79 68 -79h59l1 -16c-12.667 -4 -34 -6 -64 -6c-31.333 0 -55 9 -71 27s-21.667 43 -17 75l36 255l-68 -28l2 20l69 29l46 328h24l-45 -318l152 63l-3 -20z" />
    <glyph glyph-name="Nacute" unicode="&#x143;" horiz-adv-x="688" 
d="M554 877l-172 -141l-14 14l169 146zM641 690l-95.002 -676c-0.666992 -9.33301 -6 -14 -16 -14h-41c-8 0 -13.667 4 -17 12l-238 589l-14.5 34c-6.33301 14.667 -10.833 25.667 -13.5 33h-25c-1.33301 -8.66699 -3.16602 -21.667 -5.49902 -39
s-4.16602 -30.333 -5.49902 -39l-83 -590h-25l95 676c2 9.33301 7.33301 14 16 14h38c8.66699 0 14.667 -4 18 -12l233 -576c4 -9.33301 9.33301 -23 16 -41s12 -31.333 16 -40h28l12 85l82 584h25z" />
    <glyph glyph-name="nacute" unicode="&#x144;" horiz-adv-x="567" 
d="M278 554l-14 14l169 146l17 -19zM138 480l-15.001 -117c102 86 185.667 129 251 129c87.333 0 125 -44 113 -132l-51 -360h-24l51 359c5.33301 38.667 0.5 66.667 -14.5 84s-41.167 26 -78.5 26c-33.333 0 -69.166 -10.333 -107.499 -31s-84.5 -53 -138.5 -97l-48 -341
h-24l68 480h18z" />
    <glyph glyph-name="Ncommaaccent" unicode="&#x145;" horiz-adv-x="688" 
d="M641 690l-95.002 -676c-0.666992 -9.33301 -6 -14 -16 -14h-41c-8 0 -13.667 4 -17 12l-238 589l-14.5 34c-6.33301 14.667 -10.833 25.667 -13.5 33h-25c-1.33301 -8.66699 -3.16602 -21.667 -5.49902 -39s-4.16602 -30.333 -5.49902 -39l-83 -590h-25l95 676
c2 9.33301 7.33301 14 16 14h38c8.66699 0 14.667 -4 18 -12l233 -576c4 -9.33301 9.33301 -23 16 -41s12 -31.333 16 -40h28l12 85l82 584h25zM294.998 -65l11.001 0.000976562c5.33301 0 7.66602 -3.33301 6.99902 -10l-9 -60
c-5.33301 -34.667 -16.666 -72.334 -33.999 -113.001l-14 4c9.33301 30.667 17 64.667 23 102c-4.66699 0 -6.33398 3 -5.00098 9l9 58c0.666992 6.66699 4.66699 10 12 10z" />
    <glyph glyph-name="ncommaaccent" unicode="&#x146;" horiz-adv-x="567" 
d="M138 480l-15.001 -117c102 86 185.667 129 251 129c87.333 0 125 -44 113 -132l-51 -360h-24l51 359c5.33301 38.667 0.5 66.667 -14.5 84s-41.167 26 -78.5 26c-33.333 0 -69.166 -10.333 -107.499 -31s-84.5 -53 -138.5 -97l-48 -341h-24l68 480h18zM239.999 -65
l11.001 0.000976562c5.33301 0 7.66602 -3.33301 6.99902 -10l-9 -60c-5.33301 -34.667 -16.666 -72.334 -33.999 -113.001l-14 4c9.33301 30.667 17 64.667 23 102c-4.66699 0 -6.33398 3 -5.00098 9l9 58c0.666992 6.66699 4.66699 10 12 10z" />
    <glyph glyph-name="Ncaron" unicode="&#x147;" horiz-adv-x="688" 
d="M581 868l-154 -117h-18l-120 117l11 12l116 -102h8l146 102zM641 690l-95.002 -676c-0.666992 -9.33301 -6 -14 -16 -14h-41c-8 0 -13.667 4 -17 12l-238 589l-14.5 34c-6.33301 14.667 -10.833 25.667 -13.5 33h-25c-1.33301 -8.66699 -3.16602 -21.667 -5.49902 -39
s-4.16602 -30.333 -5.49902 -39l-83 -590h-25l95 676c2 9.33301 7.33301 14 16 14h38c8.66699 0 14.667 -4 18 -12l233 -576c4 -9.33301 9.33301 -23 16 -41s12 -31.333 16 -40h28l12 85l82 584h25z" />
    <glyph glyph-name="ncaron" unicode="&#x148;" horiz-adv-x="567" 
d="M305 569l-120 117l11 12l116 -102h8l146 102l11 -12l-154 -117h-18zM138 480l-15.001 -117c102 86 185.667 129 251 129c87.333 0 125 -44 113 -132l-51 -360h-24l51 359c5.33301 38.667 0.5 66.667 -14.5 84s-41.167 26 -78.5 26
c-33.333 0 -69.166 -10.333 -107.499 -31s-84.5 -53 -138.5 -97l-48 -341h-24l68 480h18z" />
    <glyph glyph-name="Eng" unicode="&#x14a;" horiz-adv-x="688" 
d="M641 690l-110.999 -792c-11.333 -80.667 -57 -120.667 -137 -120c-20 0 -41.333 2 -64 6l4 16h57c67.333 0 105.666 33.667 114.999 101l14 99h-30c-8 0 -13.667 4 -17 12l-238 589l-14.5 34c-6.33301 14.667 -10.833 25.667 -13.5 33h-25l-9 -66l-85 -602h-25l95 676
c2 9.33301 7.33301 14 16 14h38c8.66699 0 14.667 -4 18 -12l233 -576c4 -9.33301 9.33301 -23 16 -41s12 -31.333 16 -40h28l12 82l82 587h25z" />
    <glyph glyph-name="eng" unicode="&#x14b;" horiz-adv-x="567" 
d="M138 480l-14.001 -116.002c54.667 44 100.5 76.333 137.5 97s74.5 31 112.5 31c87.333 0 125 -44 113 -132l-63 -450c-12 -80.667 -54 -120.667 -126 -120c-16.667 0 -34.667 2 -54 6l4 16h47c60.667 0 95.667 33.667 105 101l63 446c4.66699 38 -0.5 65.833 -15.5 83.5
s-40.833 26.5 -77.5 26.5c-20 0 -39.333 -2.66699 -58 -8s-39.5 -15.166 -62.5 -29.499s-41.667 -26.666 -56 -36.999s-37.166 -27.833 -68.499 -52.5l-49 -342h-24l68 480h18z" />
    <glyph glyph-name="Omacron" unicode="&#x14c;" horiz-adv-x="660" 
d="M538 804h-260l3 23h260zM386 702c94.667 0 157.499 -26.833 188.499 -80.5s36.833 -146.5 17.5 -278.5c-18 -131.333 -49.333 -223.333 -94 -276s-114 -79 -208 -79c-94.667 0 -157.5 26.833 -188.5 80.5s-37.167 146.5 -18.5 278.5
c18.667 131.333 50.334 223.333 95.001 276s114 79 208 79zM385.999 679c-86.667 0 -150.334 -24.667 -191.001 -74s-69.667 -136.666 -87 -261.999c-16.667 -123.333 -11.667 -209.5 15 -258.5s82 -73.5 166 -73.5c86.667 0 150.334 24.667 191.001 74
s69.667 136.666 87 261.999c17.333 124 13 210.333 -13 259s-82 73 -168 73z" />
    <glyph glyph-name="omacron" unicode="&#x14d;" 
d="M454 622h-260l3 23h260zM304 492c78 0 130.333 -19 157 -57s33.334 -103.667 20.001 -197c-13.333 -92 -38 -156.667 -74 -194s-92.333 -56 -169 -56c-78 0 -130.333 19 -157 57s-33.334 103.667 -20.001 197c13.333 92 38 156.667 74 194s92.333 56 169 56zM304 469
c-68.667 0 -119.167 -17 -151.5 -51s-54.5 -94 -66.5 -180c-12 -85.333 -6.83301 -144.5 15.5 -177.5s67.833 -49.5 136.5 -49.5s119.167 17 151.5 51s54.5 94 66.5 180c12 85.333 6.83301 144.5 -15.5 177.5s-67.833 49.5 -136.5 49.5z" />
    <glyph glyph-name="Ohungarumlaut" unicode="&#x150;" horiz-adv-x="660" 
d="M457 885l-140 -151l-14 11l134 156zM597 885l-140 -151l-14 11l134 156zM386 702c94.667 0 157.499 -26.833 188.499 -80.5s36.833 -146.5 17.5 -278.5c-18 -131.333 -49.333 -223.333 -94 -276s-114 -79 -208 -79c-94.667 0 -157.5 26.833 -188.5 80.5
s-37.167 146.5 -18.5 278.5c18.667 131.333 50.334 223.333 95.001 276s114 79 208 79zM385.999 679c-86.667 0 -150.334 -24.667 -191.001 -74s-69.667 -136.666 -87 -261.999c-16.667 -123.333 -11.667 -209.5 15 -258.5s82 -73.5 166 -73.5
c86.667 0 150.334 24.667 191.001 74s69.667 136.666 87 261.999c17.333 124 13 210.333 -13 259s-82 73 -168 73z" />
    <glyph glyph-name="ohungarumlaut" unicode="&#x151;" 
d="M373 703l-140 -151l-14 11l134 156zM513 703l-140 -151l-14 11l134 156zM304 492c78 0 130.333 -19 157 -57s33.334 -103.667 20.001 -197c-13.333 -92 -38 -156.667 -74 -194s-92.333 -56 -169 -56c-78 0 -130.333 19 -157 57s-33.334 103.667 -20.001 197
c13.333 92 38 156.667 74 194s92.333 56 169 56zM304 469c-68.667 0 -119.167 -17 -151.5 -51s-54.5 -94 -66.5 -180c-12 -85.333 -6.83301 -144.5 15.5 -177.5s67.833 -49.5 136.5 -49.5s119.167 17 151.5 51s54.5 94 66.5 180c12 85.333 6.83301 144.5 -15.5 177.5
s-67.833 49.5 -136.5 49.5z" />
    <glyph glyph-name="OE" unicode="&#x152;" horiz-adv-x="887" 
d="M884 668h-268.001c-24 0 -45 -7.83301 -63 -23.5s-28.667 -35.5 -32 -59.5l-28 -205h308l-3 -21h-308l-36 -256c-3.33301 -24 1.33398 -43.5 14.001 -58.5s31 -22.5 55 -22.5h270l-1 -18c-62 -2.66699 -153.333 -4 -274 -4c-26 -0 -47 7.33301 -63 22
c-52 -22.667 -104 -34 -156 -34c-100 0 -165.5 26.167 -196.5 78.5s-37.167 145.833 -18.5 280.5c18.667 132.667 50.5 225 95.5 277s117.5 78 217.5 78c53.333 0 102.333 -11 147 -33c20.667 14 43 21 67 21c122 0 213.667 -1.33301 275 -4zM428.999 103l68 485.999
c2.66699 24 12.334 45.333 29.001 64c-36.667 17.333 -80 26 -130 26c-91.333 0 -157.5 -24.167 -198.5 -72.5s-70.5 -136.166 -88.5 -263.499c-18 -124 -13.333 -210.333 14 -259s86.666 -73 177.999 -73c45.333 0 92 9.33301 140 28c-12 18.667 -16 40 -12 64z" />
    <glyph glyph-name="oe" unicode="&#x153;" horiz-adv-x="920" 
d="M813 24l3 -17.999c-44.667 -12 -107.667 -18 -189 -18c-56.667 0 -99.167 9.66699 -127.5 29s-45.166 51 -50.499 95c-18 -44 -43.667 -75.667 -77 -95s-78.333 -29 -135 -29c-78 0 -130.333 19 -157 57s-33.334 103.667 -20.001 197c13.333 92 38 156.667 74 194
s92.333 56 169 56c57.333 0 100.333 -10 129 -30s46 -52.667 52 -98c19.333 49.333 46 83 80 101s80.333 27 139 27c64 0 110.167 -10.5 138.5 -31.5s35.833 -59.833 22.5 -116.5c-9.33301 -38.667 -25.5 -65.834 -48.5 -81.501s-59.833 -26.167 -110.5 -31.5l-230 -26
l-2 -7c-7.33301 -70.667 1 -119.5 25 -146.5s71 -40.5 141 -40.5c55.333 0 113.333 4.33301 174 13zM237 11.001c66 0 115.167 15.502 147.5 46.502s54.833 85.5 67.5 163.5l3 23c0 1.33301 0.166992 3.16602 0.5 5.49902s0.833008 4.16602 1.5 5.49902
c10 80 3.5 135.667 -19.5 167s-67.833 47 -134.5 47c-68.667 0 -119.167 -17 -151.5 -51s-54.5 -94 -66.5 -180c-12 -85.333 -6.83301 -144.5 15.5 -177.5s67.833 -49.5 136.5 -49.5zM478 228.003l228 25.999c44 5.33301 75.333 14.333 94 27s32 34.334 40 65.001
c12.667 50 7.16699 83 -16.5 99s-62.5 24 -116.5 24c-70 0 -121 -13.167 -153 -39.5s-55.333 -79.833 -70 -160.5l-4 -31c0 -2.66699 -0.666992 -6 -2 -10z" />
    <glyph glyph-name="Racute" unicode="&#x154;" horiz-adv-x="606" 
d="M326 736l-14 14l169 146l17 -19zM62 0l97 689.999c54 5.33301 127.333 8 220 8c74.667 0 124.834 -13.833 150.501 -41.5s33.5 -79.167 23.5 -154.5c-8.66699 -60.667 -24.834 -104.5 -48.501 -131.5s-58.834 -43.833 -105.501 -50.5v-4
c32 -10.667 53.333 -42.667 64 -96l45 -220h-27l-44 219c-6 32 -17.167 55 -33.5 69s-38.166 21.333 -65.499 22c-26 0.666992 -55.167 1.33398 -87.5 2.00098s-57.5 1.16699 -75.5 1.5s-32.667 0.5 -44 0.5l-44 -314h-25zM134 332.999h195
c65.333 1.33301 112.333 14 141 38s47.667 69 57 135s3.33301 110.667 -18 134s-64.333 35 -129 35c-88 0 -154 -0.666992 -198 -2z" />
    <glyph glyph-name="racute" unicode="&#x155;" horiz-adv-x="383" 
d="M224 554l-14 14l169 146l17 -19zM138 480l-14.999 -119c96.667 87.333 178.334 131 245.001 131h20l-8 -23h-16c-32.667 0 -67.334 -10.333 -104.001 -31s-82.334 -54 -137.001 -100l-47 -338h-24l68 480h18z" />
    <glyph glyph-name="Rcommaaccent" unicode="&#x156;" horiz-adv-x="606" 
d="M62 0l97 689.999c54 5.33301 127.333 8 220 8c74.667 0 124.834 -13.833 150.501 -41.5s33.5 -79.167 23.5 -154.5c-8.66699 -60.667 -24.834 -104.5 -48.501 -131.5s-58.834 -43.833 -105.501 -50.5v-4c32 -10.667 53.333 -42.667 64 -96l45 -220h-27l-44 219
c-6 32 -17.167 55 -33.5 69s-38.166 21.333 -65.499 22c-26 0.666992 -55.167 1.33398 -87.5 2.00098s-57.5 1.16699 -75.5 1.5s-32.667 0.5 -44 0.5l-44 -314h-25zM134 332.999h195c65.333 1.33301 112.333 14 141 38s47.667 69 57 135s3.33301 110.667 -18 134
s-64.333 35 -129 35c-88 0 -154 -0.666992 -198 -2zM276 -65.001l11.001 0.000976562c5.33301 0 7.66602 -3.33301 6.99902 -10l-9 -60c-5.33301 -34.667 -16.666 -72.334 -33.999 -113.001l-14 4c9.33301 30.667 17 64.667 23 102c-4.66699 0 -6.33398 3 -5.00098 9l9 58
c0.666992 6.66699 4.66699 10 12 10z" />
    <glyph glyph-name="rcommaaccent" unicode="&#x157;" horiz-adv-x="383" 
d="M388 492l-7.99902 -23h-16c-32.667 0 -67.334 -10.333 -104.001 -31s-82.334 -54 -137.001 -100l-47 -338h-24l68 480h18l-15 -119c96.667 87.333 178.334 131 245.001 131h20zM50.001 -65l11.001 0.000976562c5.33301 0 7.66602 -3.33301 6.99902 -10l-9 -60
c-5.33301 -34.667 -16.666 -72.334 -33.999 -113.001l-14 4c9.33301 30.667 17 64.667 23 102c-4.66699 0 -6.33398 3 -5.00098 9l9 58c0.666992 6.66699 4.66699 10 12 10z" />
    <glyph glyph-name="Rcaron" unicode="&#x158;" horiz-adv-x="606" 
d="M353 751l-120 117l11 12l116 -102h8l146 102l11 -12l-154 -117h-18zM62 0l97 689.999c54 5.33301 127.333 8 220 8c74.667 0 124.834 -13.833 150.501 -41.5s33.5 -79.167 23.5 -154.5c-8.66699 -60.667 -24.834 -104.5 -48.501 -131.5s-58.834 -43.833 -105.501 -50.5
v-4c32 -10.667 53.333 -42.667 64 -96l45 -220h-27l-44 219c-6 32 -17.167 55 -33.5 69s-38.166 21.333 -65.499 22c-26 0.666992 -55.167 1.33398 -87.5 2.00098s-57.5 1.16699 -75.5 1.5s-32.667 0.5 -44 0.5l-44 -314h-25zM134 332.999h195
c65.333 1.33301 112.333 14 141 38s47.667 69 57 135s3.33301 110.667 -18 134s-64.333 35 -129 35c-88 0 -154 -0.666992 -198 -2z" />
    <glyph glyph-name="rcaron" unicode="&#x159;" horiz-adv-x="383" 
d="M251 569l-120 117l11 12l116 -102h8l146 102l11 -12l-154 -117h-18zM138 480l-14.999 -119c96.667 87.333 178.334 131 245.001 131h20l-8 -23h-16c-32.667 0 -67.334 -10.333 -104.001 -31s-82.334 -54 -137.001 -100l-47 -338h-24l68 480h18z" />
    <glyph glyph-name="Sacute" unicode="&#x15a;" horiz-adv-x="553" 
d="M471 877l-172 -141l-14 14l169 146zM358 304l-149.998 63.0039c-48 20.667 -79.833 44 -95.5 70s-20.834 62.333 -15.501 109c4 29.333 11 53.833 21 73.5s21.167 35 33.5 46s28.833 19.167 49.5 24.5s40 8.66602 58 9.99902s41.333 1.66602 70 0.999023
c64.667 -0.666992 126.667 -4.66699 186 -12l-4 -19c-79.333 5.33301 -146 8 -200 8c-23.333 0 -41.5 -0.5 -54.5 -1.5s-28.333 -3.83301 -46 -8.5s-31.5 -11.5 -41.5 -20.5s-19.333 -22.333 -28 -40s-14.667 -39.5 -18 -65.5c-4 -38.667 -0.333008 -68.834 11 -90.501
s36.333 -41.167 75 -58.5l150 -63c52 -22.667 86 -46.5 102 -71.5s20.667 -62.167 14 -111.5c-4 -28.667 -11.167 -52.834 -21.5 -72.501s-21.833 -35.167 -34.5 -46.5s-29.834 -19.833 -51.501 -25.5s-42.5 -9.33398 -62.5 -11.001s-46 -2.5 -78 -2.5
c-65.333 0 -128.666 3.66699 -189.999 11l4 19c68 -5.33301 134.667 -7.66602 200 -6.99902c68.667 1.33301 118.167 10.5 148.5 27.5s50.166 54.167 59.499 111.5c6 42.667 2.83301 74.167 -9.5 94.5s-39.5 39.833 -81.5 58.5z" />
    <glyph glyph-name="sacute" unicode="&#x15b;" horiz-adv-x="498" 
d="M426 695l-172 -141l-14 14l169 146zM318 201l-159.001 60.001l-21 8c-5.33301 2 -11.666 4.83301 -18.999 8.5s-12.833 7 -16.5 10s-8.33398 7.16699 -14.001 12.5s-9 10.5 -10 15.5s-3.16699 11.333 -6.5 19s-4.16602 15.5 -2.49902 23.5s2.5 17.667 2.5 29
c7.33301 46 25.166 75.333 53.499 88s74.5 18.334 138.5 17.001c66.667 -1.33301 128.667 -5.33301 186 -12l-4 -18c-63.333 4.66699 -123.666 7.33398 -180.999 8.00098c-61.333 1.33301 -103.166 -2.83398 -125.499 -12.501s-36.833 -34.5 -43.5 -74.5
c-4.66699 -28.667 -2.16699 -49.667 7.5 -63s28.5 -25.333 56.5 -36l160 -60c36.667 -13.333 62.5 -28.5 77.5 -45.5s19.833 -43.167 14.5 -78.5c-2.66699 -20.667 -8.16699 -37.834 -16.5 -51.501s-17.666 -24.5 -27.999 -32.5s-24.833 -14.167 -43.5 -18.5
s-36.5 -7 -53.5 -8s-39.5 -1.5 -67.5 -1.5c-60.667 0 -117.334 4 -170.001 12l4 18c55.333 -6 112 -8.66699 170 -8c64.667 1.33301 109.667 7.83301 135 19.5s40.666 36.5 45.999 74.5c4 29.333 0.5 50.166 -10.5 62.499s-30.833 23.833 -59.5 34.5z" />
    <glyph glyph-name="Scedilla" unicode="&#x15e;" horiz-adv-x="553" 
d="M358 304l-149.998 63.0039c-48 20.667 -79.833 44 -95.5 70s-20.834 62.333 -15.501 109c4 29.333 11 53.833 21 73.5s21.167 35 33.5 46s28.833 19.167 49.5 24.5s40 8.66602 58 9.99902s41.333 1.66602 70 0.999023c64.667 -0.666992 126.667 -4.66699 186 -12l-4 -19
c-79.333 5.33301 -146 8 -200 8c-23.333 0 -41.5 -0.5 -54.5 -1.5s-28.333 -3.83301 -46 -8.5s-31.5 -11.5 -41.5 -20.5s-19.333 -22.333 -28 -40s-14.667 -39.5 -18 -65.5c-4 -38.667 -0.333008 -68.834 11 -90.501s36.333 -41.167 75 -58.5l150 -63
c52 -22.667 86 -46.5 102 -71.5s20.667 -62.167 14 -111.5c-4 -28.667 -11.167 -52.834 -21.5 -72.501s-21.833 -35.167 -34.5 -46.5s-29.834 -19.833 -51.501 -25.5s-42.5 -9.33398 -62.5 -11.001s-46 -2.5 -78 -2.5c-65.333 0 -128.666 3.66699 -189.999 11l4 19
c68 -5.33301 134.667 -7.66602 200 -6.99902c68.667 1.33301 118.167 10.5 148.5 27.5s50.166 54.167 59.499 111.5c6 42.667 2.83301 74.167 -9.5 94.5s-39.5 39.833 -81.5 58.5zM219.002 -73.9961l3 14c26.667 1.33301 46 -3.5 58 -14.5s16 -28.5 12 -52.5
c-5.33301 -34 -22 -61 -50 -81s-62.333 -27.333 -103 -22l5 15c34 -1.33301 62.667 7 86 25s37 40.333 41 67c2.66699 18 0.166992 30.5 -7.5 37.5s-22.5 10.833 -44.5 11.5z" />
    <glyph glyph-name="scedilla" unicode="&#x15f;" horiz-adv-x="498" 
d="M318 201l-159.001 60.001l-21 8c-5.33301 2 -11.666 4.83301 -18.999 8.5s-12.833 7 -16.5 10s-8.33398 7.16699 -14.001 12.5s-9 10.5 -10 15.5s-3.16699 11.333 -6.5 19s-4.16602 15.5 -2.49902 23.5s2.5 17.667 2.5 29c7.33301 46 25.166 75.333 53.499 88
s74.5 18.334 138.5 17.001c66.667 -1.33301 128.667 -5.33301 186 -12l-4 -18c-63.333 4.66699 -123.666 7.33398 -180.999 8.00098c-61.333 1.33301 -103.166 -2.83398 -125.499 -12.501s-36.833 -34.5 -43.5 -74.5c-4.66699 -28.667 -2.16699 -49.667 7.5 -63
s28.5 -25.333 56.5 -36l160 -60c36.667 -13.333 62.5 -28.5 77.5 -45.5s19.833 -43.167 14.5 -78.5c-2.66699 -20.667 -8.16699 -37.834 -16.5 -51.501s-17.666 -24.5 -27.999 -32.5s-24.833 -14.167 -43.5 -18.5s-36.5 -7 -53.5 -8s-39.5 -1.5 -67.5 -1.5
c-60.667 0 -117.334 4 -170.001 12l4 18c55.333 -6 112 -8.66699 170 -8c64.667 1.33301 109.667 7.83301 135 19.5s40.666 36.5 45.999 74.5c4 29.333 0.5 50.166 -10.5 62.499s-30.833 23.833 -59.5 34.5zM186.999 -73.999l3 14c26.667 1.33301 46 -3.5 58 -14.5
s16 -28.5 12 -52.5c-5.33301 -34 -22 -61 -50 -81s-62.333 -27.333 -103 -22l5 15c34 -1.33301 62.667 7 86 25s37 40.333 41 67c2.66699 18 0.166992 30.5 -7.5 37.5s-22.5 10.833 -44.5 11.5z" />
    <glyph glyph-name="Scaron" unicode="&#x160;" horiz-adv-x="553" 
d="M498 868l-154 -117h-18l-120 117l11 12l116 -102h8l146 102zM358 304l-149.998 63.0039c-48 20.667 -79.833 44 -95.5 70s-20.834 62.333 -15.501 109c4 29.333 11 53.833 21 73.5s21.167 35 33.5 46s28.833 19.167 49.5 24.5s40 8.66602 58 9.99902
s41.333 1.66602 70 0.999023c64.667 -0.666992 126.667 -4.66699 186 -12l-4 -19c-79.333 5.33301 -146 8 -200 8c-23.333 0 -41.5 -0.5 -54.5 -1.5s-28.333 -3.83301 -46 -8.5s-31.5 -11.5 -41.5 -20.5s-19.333 -22.333 -28 -40s-14.667 -39.5 -18 -65.5
c-4 -38.667 -0.333008 -68.834 11 -90.501s36.333 -41.167 75 -58.5l150 -63c52 -22.667 86 -46.5 102 -71.5s20.667 -62.167 14 -111.5c-4 -28.667 -11.167 -52.834 -21.5 -72.501s-21.833 -35.167 -34.5 -46.5s-29.834 -19.833 -51.501 -25.5
s-42.5 -9.33398 -62.5 -11.001s-46 -2.5 -78 -2.5c-65.333 0 -128.666 3.66699 -189.999 11l4 19c68 -5.33301 134.667 -7.66602 200 -6.99902c68.667 1.33301 118.167 10.5 148.5 27.5s50.166 54.167 59.499 111.5c6 42.667 2.83301 74.167 -9.5 94.5
s-39.5 39.833 -81.5 58.5z" />
    <glyph glyph-name="scaron" unicode="&#x161;" horiz-adv-x="498" 
d="M453 686l-154 -117h-18l-120 117l11 12l116 -102h8l146 102zM318 201l-159.001 60.001l-21 8c-5.33301 2 -11.666 4.83301 -18.999 8.5s-12.833 7 -16.5 10s-8.33398 7.16699 -14.001 12.5s-9 10.5 -10 15.5s-3.16699 11.333 -6.5 19s-4.16602 15.5 -2.49902 23.5
s2.5 17.667 2.5 29c7.33301 46 25.166 75.333 53.499 88s74.5 18.334 138.5 17.001c66.667 -1.33301 128.667 -5.33301 186 -12l-4 -18c-63.333 4.66699 -123.666 7.33398 -180.999 8.00098c-61.333 1.33301 -103.166 -2.83398 -125.499 -12.501s-36.833 -34.5 -43.5 -74.5
c-4.66699 -28.667 -2.16699 -49.667 7.5 -63s28.5 -25.333 56.5 -36l160 -60c36.667 -13.333 62.5 -28.5 77.5 -45.5s19.833 -43.167 14.5 -78.5c-2.66699 -20.667 -8.16699 -37.834 -16.5 -51.501s-17.666 -24.5 -27.999 -32.5s-24.833 -14.167 -43.5 -18.5
s-36.5 -7 -53.5 -8s-39.5 -1.5 -67.5 -1.5c-60.667 0 -117.334 4 -170.001 12l4 18c55.333 -6 112 -8.66699 170 -8c64.667 1.33301 109.667 7.83301 135 19.5s40.666 36.5 45.999 74.5c4 29.333 0.5 50.166 -10.5 62.499s-30.833 23.833 -59.5 34.5z" />
    <glyph glyph-name="Tcedilla" unicode="&#x162;" horiz-adv-x="558" 
d="M587 668h-243l-94 -668h-25l94 668h-242l3 22h510zM198 -63l3 14c26.667 1.33301 46 -3.5 58 -14.5s16 -28.5 12 -52.5c-5.33301 -34 -22 -61 -50 -81s-62.333 -27.333 -103 -22l5 15c34 -1.33301 62.667 7 86 25s37 40.333 41 67c2.66699 18 0.166992 30.5 -7.5 37.5
s-22.5 10.833 -44.5 11.5z" />
    <glyph glyph-name="tcedilla" unicode="&#x163;" horiz-adv-x="341" 
d="M165 458l-51.001 -363c-8 -52.667 14.667 -79 68 -79h89l1 -16c-27.333 -4 -55.666 -6 -84.999 -6c-74 0 -106.333 34 -97 102l51 362h-88l3 17l88 5l21 151h24l-21 -151h178l-4 -22h-177zM114.999 -69l3 14c26.667 1.33301 46 -3.5 58 -14.5s16 -28.5 12 -52.5
c-5.33301 -34 -22 -61 -50 -81s-62.333 -27.333 -103 -22l5 15c34 -1.33301 62.667 7 86 25s37 40.333 41 67c2.66699 18 0.166992 30.5 -7.5 37.5s-22.5 10.833 -44.5 11.5z" />
    <glyph glyph-name="Tcaron" unicode="&#x164;" horiz-adv-x="558" 
d="M336 751l-120 117l11 12l116 -102h8l146 102l11 -12l-154 -117h-18zM587 668h-243l-94 -668h-25l94 668h-242l3 22h510z" />
    <glyph glyph-name="tcaron" unicode="&#x165;" horiz-adv-x="341" 
d="M272 563l-13.999 4.00098c9.33301 30.667 17 64.667 23 102c-4.66699 0 -6.33398 3 -5.00098 9l9 58c0.666992 6.66699 4.66699 10 12 10h11c5.33301 0 7.66602 -3.33301 6.99902 -10l-9 -60c-5.33301 -34.667 -16.666 -72.334 -33.999 -113.001zM165.001 458.001
l-51.001 -363c-8 -52.667 14.667 -79 68 -79h89l1 -16c-27.333 -4 -55.666 -6 -84.999 -6c-74 0 -106.333 34 -97 102l51 362h-88l3 17l88 5l21 151h24l-21 -151h178l-4 -22h-177z" />
    <glyph glyph-name="Tbar" unicode="&#x166;" horiz-adv-x="558" 
d="M344 668l-34 -243h159l-3 -20h-159l-57 -405h-25l57 405h-145l3 20h145l34 243h-242l3 22h510l-3 -22h-243z" />
    <glyph glyph-name="tbar" unicode="&#x167;" horiz-adv-x="341" 
d="M165 458l-17.001 -118h161l-3 -20h-161l-31 -225c-8 -52.667 14.667 -79 68 -79h89l1 -16c-27.333 -4 -55.666 -6 -84.999 -6c-74 0 -106.333 34 -97 102l31 224h-70l3 20h70l17 118h-88l3 17l88 5l21 151h24l-21 -151h178l-4 -22h-177z" />
    <glyph glyph-name="Umacron" unicode="&#x16a;" horiz-adv-x="667" 
d="M537 804h-260l3 23h260zM625 690l-60.999 -436.001c-13.333 -96.667 -40.333 -165.167 -81 -205.5s-103.667 -60.5 -189 -60.5c-86.667 0 -145.167 20.5 -175.5 61.5s-38.833 109.833 -25.5 206.5l61 434h25l-61 -436c-12.667 -89.333 -5.83398 -152.166 20.499 -188.499
s77.833 -54.5 154.5 -54.5c77.333 0 134.5 18.5 171.5 55.5s61.833 100.167 74.5 189.5l61 434h25z" />
    <glyph glyph-name="umacron" unicode="&#x16b;" horiz-adv-x="556" 
d="M450 622h-260l3 23h260zM490 480l-68.002 -480.002h-18l15 126c-92 -92 -172.333 -138 -241 -138c-43.333 0 -74.666 11.333 -93.999 34s-25.666 55.334 -18.999 98.001l51 360h24l-51 -359c-10.667 -73.333 20.333 -110 93 -110c34 0 69.5 11.333 106.5 34
s80.833 58.334 131.5 107.001l46 328h24z" />
    <glyph glyph-name="Uring" unicode="&#x16e;" horiz-adv-x="667" 
d="M417 909c28 0 50.332 -9.5 66.999 -28.5s23.334 -41.833 20.001 -68.5c-3.33301 -25.333 -14.666 -47.166 -33.999 -65.499s-43 -27.5 -71 -27.5s-50.333 9.33301 -67 28s-23.334 41.667 -20.001 69c3.33301 25.333 14.833 47.166 34.5 65.499s43.167 27.5 70.5 27.5z
M416.999 890c-22.667 0 -41.667 -7.5 -57 -22.5s-24.333 -33.5 -27 -55.5c-2.66699 -20.667 2.16602 -38.167 14.499 -52.5s29.5 -21.5 51.5 -21.5s40.833 7.5 56.5 22.5s24.834 33.5 27.501 55.5c2.66699 20.667 -2 38.167 -14 52.5s-29.333 21.5 -52 21.5zM624.999 690
l-60.999 -436.001c-13.333 -96.667 -40.333 -165.167 -81 -205.5s-103.667 -60.5 -189 -60.5c-86.667 0 -145.167 20.5 -175.5 61.5s-38.833 109.833 -25.5 206.5l61 434h25l-61 -436c-12.667 -89.333 -5.83398 -152.166 20.499 -188.499s77.833 -54.5 154.5 -54.5
c77.333 0 134.5 18.5 171.5 55.5s61.833 100.167 74.5 189.5l61 434h25z" />
    <glyph glyph-name="uring" unicode="&#x16f;" horiz-adv-x="556" 
d="M312 537c-28 0 -50.334 9.33301 -67.001 28s-23.334 41.667 -20.001 69c3.33301 25.333 14.833 47.166 34.5 65.499s43.167 27.5 70.5 27.5c28 0 50.333 -9.5 67 -28.5s23.334 -41.833 20.001 -68.5c-3.33301 -25.333 -14.666 -47.166 -33.999 -65.499
s-43 -27.5 -71 -27.5zM245.999 630c-2.66699 -20.667 2.16602 -38.167 14.499 -52.5s29.5 -21.5 51.5 -21.5s40.833 7.5 56.5 22.5s24.834 33.5 27.501 55.5c2.66699 20.667 -2 38.167 -14 52.5s-29.333 21.5 -52 21.5s-41.667 -7.5 -57 -22.5s-24.333 -33.5 -27 -55.5z
M489.999 480l-68.002 -480.002h-18l15 126c-92 -92 -172.333 -138 -241 -138c-43.333 0 -74.666 11.333 -93.999 34s-25.666 55.334 -18.999 98.001l51 360h24l-51 -359c-10.667 -73.333 20.333 -110 93 -110c34 0 69.5 11.333 106.5 34s80.833 58.334 131.5 107.001l46 328
h24z" />
    <glyph glyph-name="Uhungarumlaut" unicode="&#x170;" horiz-adv-x="667" 
d="M456 885l-140 -151l-14 11l134 156zM596 885l-140 -151l-14 11l134 156zM625 690l-60.999 -436.001c-13.333 -96.667 -40.333 -165.167 -81 -205.5s-103.667 -60.5 -189 -60.5c-86.667 0 -145.167 20.5 -175.5 61.5s-38.833 109.833 -25.5 206.5l61 434h25l-61 -436
c-12.667 -89.333 -5.83398 -152.166 20.499 -188.499s77.833 -54.5 154.5 -54.5c77.333 0 134.5 18.5 171.5 55.5s61.833 100.167 74.5 189.5l61 434h25z" />
    <glyph glyph-name="uhungarumlaut" unicode="&#x171;" horiz-adv-x="556" 
d="M229 552l-14 11l134 156l20 -16zM355 563l134 156l20 -16l-140 -151zM466 480l23.998 -0.00195312l-68 -480h-18l15 126c-92 -92 -172.333 -138 -241 -138c-43.333 0 -74.666 11.333 -93.999 34s-25.666 55.334 -18.999 98.001l51 360h24l-51 -359
c-10.667 -73.333 20.333 -110 93 -110c34 0 69.5 11.333 106.5 34s80.833 58.334 131.5 107.001z" />
    <glyph glyph-name="Uogonek" unicode="&#x172;" horiz-adv-x="667" 
d="M625 690l-60.999 -436.001c-12.667 -90 -36.834 -155.5 -72.501 -196.5s-89.5 -63.833 -161.5 -68.5c-47.333 -41.333 -81.666 -83.333 -102.999 -126c-14.667 -30 -14.167 -50 1.5 -60s43.5 -8 83.5 6l3 -12c-53.333 -21.333 -89.333 -23.833 -108 -7.5
s-19 42.833 -1 79.5c18.667 38 53 77.667 103 119h-15c-86.667 0 -145.167 20.5 -175.5 61.5s-38.833 109.833 -25.5 206.5l61 434h25l-61 -436c-12.667 -89.333 -5.83398 -152.166 20.499 -188.499s77.833 -54.5 154.5 -54.5c77.333 0 134.5 18.5 171.5 55.5
s61.833 100.167 74.5 189.5l61 434h25z" />
    <glyph glyph-name="uogonek" unicode="&#x173;" horiz-adv-x="556" 
d="M490 480l-68.002 -480.002c-49.333 -43.333 -84.333 -86 -105 -128c-14.667 -30 -14.167 -50 1.5 -60s43.5 -8 83.5 6l3 -12c-53.333 -21.333 -89.333 -23.833 -108 -7.5s-19 42.833 -1 79.5c20 40.667 56 81.667 108 123l15 125c-92 -92 -172.333 -138 -241 -138
c-43.333 0 -74.666 11.333 -93.999 34s-25.666 55.334 -18.999 98.001l51 360h24l-51 -359c-10.667 -73.333 20.333 -110 93 -110c34 0 69.5 11.333 106.5 34s80.833 58.334 131.5 107.001l46 328h24z" />
    <glyph glyph-name="Wcircumflex" unicode="&#x174;" horiz-adv-x="926" 
d="M673 763l-12 -12l-115 102h-9l-145 -103l-10 13l152 117h18zM949 690l-278.004 -681.002c-3.33301 -6 -8.33301 -9 -15 -9h-42c-7.33301 0 -11.666 4 -12.999 12l-65 580c-5.33301 44 -8.33301 69 -9 75h-25l-31 -77l-227 -580c-2.66699 -6.66699 -7.66699 -10 -15 -10
h-43c-7.33301 0 -11.666 3.66699 -12.999 11l-87 679h25l76 -600c0.666992 -7.33301 1.83398 -18.666 3.50098 -33.999s3.16699 -27 4.5 -35h29c2.66699 8 6.83398 19.833 12.501 35.5s10.167 27.167 13.5 34.5l232 589c2.66699 6.66699 7.33398 10 14.001 10h39
c8 0 12.667 -4 14 -12l67 -588c1.33301 -7.33301 2.66602 -18.666 3.99902 -33.999l3 -35h29l27 70l244 599h26z" />
    <glyph glyph-name="wcircumflex" unicode="&#x175;" horiz-adv-x="813" 
d="M601 581l-12 -12l-115 102h-9l-145 -103l-10 13l152 117h18zM169 21h12.002c12.667 0 24.667 7.33301 36 22c29.333 38 58.666 89.333 87.999 154c27.333 60.667 58.666 152.667 93.999 276c1.33301 6 5 8.33301 11 7h25c6.66699 0 10.667 -3 12 -9l69 -450h12
c14 0 26.667 8.33301 38 25c42 60.667 73 110.667 93 150c43.333 84 77 178.667 101 284h25c-26.667 -114 -62.334 -212.667 -107.001 -296c-40 -75.333 -74 -129 -102 -161c-13.333 -15.333 -29.666 -23 -48.999 -23h-19c-6.66699 0 -10.667 3 -12 9l-69 451h-10
c-26 -103.333 -56 -193 -90 -269c-14 -32 -31 -65 -51 -99s-36.333 -58 -49 -72c-12 -13.333 -27.333 -20 -46 -20h-20c-6.66699 0 -10.667 3 -12 9l-91 471h25z" />
    <glyph glyph-name="Ycircumflex" unicode="&#x176;" horiz-adv-x="535" 
d="M196 750l-10 13l152 117h18l121 -117l-12 -12l-115 102h-9zM274 257l-37 -257h-25l37 257l-176 433h26l134 -334l28 -69h6l47 70l227 333h28z" />
    <glyph glyph-name="ycircumflex" unicode="&#x177;" horiz-adv-x="511" 
d="M147 568l-10 13l152 117h18l121 -117l-12 -12l-115 102h-9zM462 480l24.999 0.000976562c-40 -150.667 -102 -291.334 -186 -422.001c-56.667 -87.333 -102.834 -151.166 -138.501 -191.499s-75.5 -65.833 -119.5 -76.5l-4 15c34 11.333 66.167 32.666 96.5 63.999
s63.833 75 100.5 131h-36c-11.333 -0 -21.166 3.33301 -29.499 10s-13.833 15.667 -16.5 27l-98 443h26l93 -433c4.66699 -18 15.334 -26.333 32.001 -25h43l27 41c77.333 122.667 139 261.667 185 417z" />
    <glyph glyph-name="Ydieresis" unicode="&#x178;" horiz-adv-x="535" 
d="M249 778h-7.00098c-7.33301 0 -10.666 4 -9.99902 12l8 54c1.33301 8 5.33301 12 12 12h9c7.33301 0 10.333 -4 9 -12l-8 -53c-0.666992 -8.66699 -5 -13 -13 -13zM425.999 778h-7.00098c-7.33301 0 -10.666 4 -9.99902 12l8 54c0.666992 8 4.66699 12 12 12h9
c6.66699 0 9.66699 -4 9 -12l-8 -53c-0.666992 -8.66699 -5 -13 -13 -13zM273.998 257l-37 -257h-25l37 257l-176 433h26l134 -334l28 -69h6l47 70l227 333h28z" />
    <glyph glyph-name="Zacute" unicode="&#x179;" horiz-adv-x="553" 
d="M305 736l-14 14l169 146l17 -19zM552 667l-510 -644h425l-4 -23h-455l4 23l509 644h-416l3 23h447z" />
    <glyph glyph-name="zacute" unicode="&#x17a;" horiz-adv-x="485" 
d="M239 554l-14 14l169 146l17 -19zM455 458l-409 -436h350l-3 -22h-383l3 22l409 436h-344l3 22h377z" />
    <glyph glyph-name="Zdotaccent" unicode="&#x17b;" horiz-adv-x="553" 
d="M349 774h-8.99707c-8.66699 0 -12.334 4.33301 -11.001 13l8 60c0.666992 8.66699 5 13 13 13h11c7.33301 0 10.666 -4.33301 9.99902 -13l-8 -60c-0.666992 -8.66699 -5.33398 -13 -14.001 -13zM552.003 667l-510 -644h425l-4 -23h-455l4 23l509 644h-416l3 23h447z" />
    <glyph glyph-name="zdotaccent" unicode="&#x17c;" horiz-adv-x="485" 
d="M283 592h-8.99707c-8.66699 0 -12.334 4.33301 -11.001 13l8 60c0.666992 8.66699 5 13 13 13h11c7.33301 0 10.666 -4.33301 9.99902 -13l-8 -60c-0.666992 -8.66699 -5.33398 -13 -14.001 -13zM455.003 458l-409 -436h350l-3 -22h-383l3 22l409 436h-344l3 22h377z" />
    <glyph glyph-name="Zcaron" unicode="&#x17d;" horiz-adv-x="553" 
d="M332 751l-120 117l11 12l116 -102h8l146 102l11 -12l-154 -117h-18zM552 667l-510 -644h425l-4 -23h-455l4 23l509 644h-416l3 23h447z" />
    <glyph glyph-name="zcaron" unicode="&#x17e;" horiz-adv-x="485" 
d="M266 569l-120 117l11 12l116 -102h8l146 102l11 -12l-154 -117h-18zM455 458l-409 -436h350l-3 -22h-383l3 22l409 436h-344l3 22h377z" />
    <glyph glyph-name="florin" unicode="&#x192;" horiz-adv-x="405" 
d="M168 385l42.9971 182c10 45.333 27 78.666 51 99.999s58.333 32 103 32c32.667 0 58.334 -1.33301 77.001 -4l-3 -18h-69c-40 0 -70.167 -8.33301 -90.5 -25s-35.166 -45.667 -44.499 -87l-43 -180h167l-6 -23h-166l-85 -360
c-10.667 -45.333 -27.167 -78.666 -49.5 -99.999s-53.833 -32 -94.5 -32c-33.333 0 -59 1.33301 -77 4l2 18h69c36.667 0 64.334 8.33301 83.001 25s33 45.667 43 87l85 358h-96l5 18z" />
    <glyph glyph-name="Scommaaccent" unicode="&#x218;" horiz-adv-x="553" 
d="M358 304l-149.998 63.0039c-48 20.667 -79.833 44 -95.5 70s-20.834 62.333 -15.501 109c4 29.333 11 53.833 21 73.5s21.167 35 33.5 46s28.833 19.167 49.5 24.5s40 8.66602 58 9.99902s41.333 1.66602 70 0.999023c64.667 -0.666992 126.667 -4.66699 186 -12l-4 -19
c-79.333 5.33301 -146 8 -200 8c-23.333 0 -41.5 -0.5 -54.5 -1.5s-28.333 -3.83301 -46 -8.5s-31.5 -11.5 -41.5 -20.5s-19.333 -22.333 -28 -40s-14.667 -39.5 -18 -65.5c-4 -38.667 -0.333008 -68.834 11 -90.501s36.333 -41.167 75 -58.5l150 -63
c52 -22.667 86 -46.5 102 -71.5s20.667 -62.167 14 -111.5c-4 -28.667 -11.167 -52.834 -21.5 -72.501s-21.833 -35.167 -34.5 -46.5s-29.834 -19.833 -51.501 -25.5s-42.5 -9.33398 -62.5 -11.001s-46 -2.5 -78 -2.5c-65.333 0 -128.666 3.66699 -189.999 11l4 19
c68 -5.33301 134.667 -7.66602 200 -6.99902c68.667 1.33301 118.167 10.5 148.5 27.5s50.166 54.167 59.499 111.5c6 42.667 2.83301 74.167 -9.5 94.5s-39.5 39.833 -81.5 58.5zM255.002 -64.9961l11.001 0.000976562c5.33301 0 7.66602 -3.33301 6.99902 -10l-9 -60
c-5.33301 -34.667 -16.666 -72.334 -33.999 -113.001l-14 4c9.33301 30.667 17 64.667 23 102c-4.66699 0 -6.33398 3 -5.00098 9l9 58c0.666992 6.66699 4.66699 10 12 10z" />
    <glyph glyph-name="scommaaccent" unicode="&#x219;" horiz-adv-x="498" 
d="M318 201l-159.001 60.001l-21 8c-5.33301 2 -11.666 4.83301 -18.999 8.5s-12.833 7 -16.5 10s-8.33398 7.16699 -14.001 12.5s-9 10.5 -10 15.5s-3.16699 11.333 -6.5 19s-4.16602 15.5 -2.49902 23.5s2.5 17.667 2.5 29c7.33301 46 25.166 75.333 53.499 88
s74.5 18.334 138.5 17.001c66.667 -1.33301 128.667 -5.33301 186 -12l-4 -18c-63.333 4.66699 -123.666 7.33398 -180.999 8.00098c-61.333 1.33301 -103.166 -2.83398 -125.499 -12.501s-36.833 -34.5 -43.5 -74.5c-4.66699 -28.667 -2.16699 -49.667 7.5 -63
s28.5 -25.333 56.5 -36l160 -60c36.667 -13.333 62.5 -28.5 77.5 -45.5s19.833 -43.167 14.5 -78.5c-2.66699 -20.667 -8.16699 -37.834 -16.5 -51.501s-17.666 -24.5 -27.999 -32.5s-24.833 -14.167 -43.5 -18.5s-36.5 -7 -53.5 -8s-39.5 -1.5 -67.5 -1.5
c-60.667 0 -117.334 4 -170.001 12l4 18c55.333 -6 112 -8.66699 170 -8c64.667 1.33301 109.667 7.83301 135 19.5s40.666 36.5 45.999 74.5c4 29.333 0.5 50.166 -10.5 62.499s-30.833 23.833 -59.5 34.5zM212.999 -64.999l11.001 0.000976562
c5.33301 0 7.66602 -3.33301 6.99902 -10l-9 -60c-5.33301 -34.667 -16.666 -72.334 -33.999 -113.001l-14 4c9.33301 30.667 17 64.667 23 102c-4.66699 0 -6.33398 3 -5.00098 9l9 58c0.666992 6.66699 4.66699 10 12 10z" />
    <glyph glyph-name="uni021A" unicode="&#x21a;" horiz-adv-x="558" 
d="M587 668h-243l-94 -668h-25l94 668h-242l3 22h510zM222 -65l11.001 0.000976562c5.33301 0 7.66602 -3.33301 6.99902 -10l-9 -60c-5.33301 -34.667 -16.666 -72.334 -33.999 -113.001l-14 4c9.33301 30.667 17 64.667 23 102c-4.66699 0 -6.33398 3 -5.00098 9l9 58
c0.666992 6.66699 4.66699 10 12 10z" />
    <glyph glyph-name="uni021B" unicode="&#x21b;" horiz-adv-x="341" 
d="M165 458l-51.001 -363c-8 -52.667 14.667 -79 68 -79h89l1 -16c-27.333 -4 -55.666 -6 -84.999 -6c-74 0 -106.333 34 -97 102l51 362h-88l3 17l88 5l21 151h24l-21 -151h178l-4 -22h-177zM160.999 -65l11.001 0.000976562c5.33301 0 7.66602 -3.33301 6.99902 -10
l-9 -60c-5.33301 -34.667 -16.666 -72.334 -33.999 -113.001l-14 4c9.33301 30.667 17 64.667 23 102c-4.66699 0 -6.33398 3 -5.00098 9l9 58c0.666992 6.66699 4.66699 10 12 10z" />
    <glyph glyph-name="circumflex" unicode="&#x2c6;" horiz-adv-x="392" 
d="M391 587l-12 -12l-115 102h-9l-145 -103l-10 13l152 117h18z" />
    <glyph glyph-name="caron" unicode="&#x2c7;" horiz-adv-x="392" 
d="M406 692l-154 -117h-18l-120 117l11 12l116 -102h8l146 102z" />
    <glyph glyph-name="breve" unicode="&#x2d8;" horiz-adv-x="357" 
d="M360 688l17 -6.00098c-4.66699 -35.333 -20.334 -63 -47.001 -83s-60.667 -30 -102 -30c-42.667 0 -75 10.333 -97 31s-30.667 48.667 -26 84l18 2c-4.66699 -29.333 2.5 -52.166 21.5 -68.499s46.833 -24.5 83.5 -24.5s66.834 8.33301 90.501 25s37.5 40 41.5 70z" />
    <glyph glyph-name="dotaccent" unicode="&#x2d9;" horiz-adv-x="206" 
d="M158 676h11.0029c7.33301 0 10.666 -4.33301 9.99902 -13l-8 -60c-0.666992 -8.66699 -5.33398 -13 -14.001 -13h-9c-8.66699 0 -12.334 4.33301 -11.001 13l8 60c0.666992 8.66699 5 13 13 13z" />
    <glyph glyph-name="ring" unicode="&#x2da;" horiz-adv-x="292" 
d="M211 733c28 0 50.332 -9.5 66.999 -28.5s23.334 -41.833 20.001 -68.5c-3.33301 -25.333 -14.666 -47.166 -33.999 -65.499s-43 -27.5 -71 -27.5s-50.333 9.33301 -67 28s-23.334 41.667 -20.001 69c3.33301 25.333 14.833 47.166 34.5 65.499s43.167 27.5 70.5 27.5z
M210.999 714c-22.667 0 -41.667 -7.5 -57 -22.5s-24.333 -33.5 -27 -55.5c-2.66699 -20.667 2.16602 -38.167 14.499 -52.5s29.5 -21.5 51.5 -21.5s40.833 7.5 56.5 22.5s24.834 33.5 27.501 55.5c2.66699 20.667 -2 38.167 -14 52.5s-29.333 21.5 -52 21.5z" />
    <glyph glyph-name="ogonek" unicode="&#x2db;" horiz-adv-x="253" 
d="M114 2l17 -2c-49.333 -43.333 -84.333 -86 -105 -128c-14.667 -30 -14.167 -50 1.5 -60s43.5 -8 83.5 6l3 -12c-53.333 -21.333 -89.333 -23.833 -108 -7.5s-19 42.833 -1 79.5c20 40.667 56.333 82 109 124z" />
    <glyph glyph-name="tilde" unicode="&#x2dc;" horiz-adv-x="400" 
d="M122 597l-17 2.00195c3.33301 30 12.666 52.667 27.999 68s34.666 22 57.999 20c20 -2 42 -13.5 66 -34.5s45.333 -32.167 64 -33.5c20.667 -1.33301 36.5 3.16699 47.5 13.5s18.167 27.166 21.5 50.499l17 -2c-2.66699 -28.667 -11.667 -50.334 -27 -65.001
s-34.666 -21 -57.999 -19c-24 2 -48.167 13.5 -72.5 34.5s-43.5 32.167 -57.5 33.5c-39.333 4 -62.666 -18.667 -69.999 -68z" />
    <glyph glyph-name="hungarumlaut" unicode="&#x2dd;" horiz-adv-x="410" 
d="M263 699l-140 -151l-14 11l134 156zM403 699l-140 -151l-14 11l134 156z" />
    <glyph glyph-name="Delta" unicode="&#x394;" horiz-adv-x="609" 
d="M537 22l-3 -22h-540l3 22l350 668h28zM511 22l-137 575.001l-8.5 36c-3.66699 15.333 -6.16699 25.333 -7.5 30c-4 -8.66699 -10 -20.834 -18 -36.501s-13.333 -26.5 -16 -32.5l-300 -572h487z" />
    <glyph glyph-name="Omega" unicode="&#x3a9;" horiz-adv-x="715" 
d="M151 22h62.999c-51.333 38.667 -86 84.334 -104 137.001s-21.333 119.334 -10 200.001c16 115.333 49.167 201.333 99.5 258s122.833 85 217.5 85c92 0 155.667 -28.833 191 -86.5s45 -144.5 29 -260.5c-11.333 -81.333 -33.166 -147.5 -65.499 -198.5
s-79.5 -95.833 -141.5 -134.5h59h136l-3 -22h-228l2 22c66.667 40 116.334 85.833 149.001 137.5s54.667 117.5 66 197.5c15.333 110 7.5 191.167 -23.5 243.5s-88.167 78.5 -171.5 78.5c-86.667 0 -152.834 -26.333 -198.501 -79s-76.5 -135.334 -92.5 -248.001
c-11.333 -82.667 -7.83301 -147.834 10.5 -195.501s54.5 -92.5 108.5 -134.5l-2 -22h-228l3 22h134z" />
    <glyph glyph-name="mu" unicode="&#x3bc;" horiz-adv-x="574" 
d="M499 480l-67.999 -479.999h-18l10 87c-90.667 -66 -169.334 -99 -236.001 -99c-54 0 -89 17.333 -105 52c0 -28.667 -2.66699 -60 -8 -94l-22 -156h-24l46 330l51 360h24l-51 -359c-4.66699 -38 0.5 -65.833 15.5 -83.5s40.833 -26.5 77.5 -26.5
c33.333 0 67.333 7.66699 102 23s78 40.666 130 75.999l52 370h24z" />
    <glyph glyph-name="pi" unicode="&#x3c0;" horiz-adv-x="637" 
d="M631 459h-111l-65 -459h-24l65 459h-308l-65 -459h-24l65 459h-111l3 21h578z" />
    <glyph glyph-name="uni0401" unicode="&#x401;" horiz-adv-x="548" 
d="M287 803h-7.00098c-7.33301 0 -10.666 4 -9.99902 12l8 54c1.33301 8 5.33301 12 12 12h9c7.33301 0 10.333 -4 9 -12l-8 -53c-0.666992 -8.66699 -5 -13 -13 -13zM463.999 803h-7.00098c-7.33301 0 -10.666 4 -9.99902 12l8 54c0.666992 8 4.66699 12 12 12h9
c6.66699 0 9.66699 -4 9 -12l-8 -53c-0.666992 -8.66699 -5 -13 -13 -13zM542.998 668h-285.999c-26.667 0 -48.334 -7.5 -65.001 -22.5s-26.667 -35.167 -30 -60.5l-28 -205h328l-3 -21h-328l-36 -256c-3.33301 -24 1.33398 -43.5 14.001 -58.5s31 -22.5 55 -22.5h288
l1 -18c-66 -2.66699 -164 -4 -294 -4c-30 -0 -53.5 9.83301 -70.5 29.5s-23.167 44.167 -18.5 73.5l68 486c4 30 16 54.333 36 73s46 28 78 28c131.333 0 229.666 -1.33301 294.999 -4z" />
    <glyph glyph-name="uni0402" unicode="&#x402;" horiz-adv-x="743" 
d="M344 668l-45.0029 -317.001c46.667 30 88.167 51 124.5 63s75.166 18 116.499 18c56.667 0 96.334 -16.333 119.001 -49s29 -86 19 -160c-22 -153.333 -116.333 -227.333 -283 -222l-1 17c76.667 4 136.334 20.833 179.001 50.5s69.334 82.167 80.001 157.5
c9.33301 68.667 4.5 116.334 -14.5 143.001s-52.833 40 -101.5 40c-44.667 0 -83.667 -6.16699 -117 -18.5s-74.666 -33.833 -123.999 -64.5l-46 -326h-25l94 668h-242l3 22h510l-3 -22h-243z" />
    <glyph glyph-name="uni0403" unicode="&#x403;" horiz-adv-x="514" 
d="M498 877l-172 -141l-14 14l169 146zM59 0l82.999 589c4.66699 33.333 17.334 58.5 38.001 75.5s46 25.5 76 25.5c126.667 0 222 -1.33301 286 -4l-4 -18h-277c-24.667 0 -45.667 -6.83301 -63 -20.5s-28 -34.5 -32 -62.5l-82 -585h-25z" />
    <glyph glyph-name="uni0404" unicode="&#x404;" horiz-adv-x="565" 
d="M570 685l-6.99609 -18c-48.667 8 -104.334 12 -167.001 12c-84.667 0 -148.334 -22.333 -191.001 -67s-73.334 -122 -92.001 -232h316l-3 -21h-317l-2 -16c-16.667 -123.333 -11 -209.5 17 -258.5s86 -73.5 174 -73.5c68.667 0 129 4.33301 181 13l5 -18
c-54.667 -12 -116.334 -18 -185.001 -18c-98.667 0 -164.167 26.833 -196.5 80.5s-39.166 146.5 -20.499 278.5c18.667 131.333 51.167 223.333 97.5 276s118.166 79 215.499 79c68.667 0 127 -5.66699 175 -17z" />
    <glyph glyph-name="uni0405" unicode="&#x405;" horiz-adv-x="553" 
d="M358 304l-149.998 63.0039c-48 20.667 -79.833 44 -95.5 70s-20.834 62.333 -15.501 109c4 29.333 11 53.833 21 73.5s21.167 35 33.5 46s28.833 19.167 49.5 24.5s40 8.66602 58 9.99902s41.333 1.66602 70 0.999023c64.667 -0.666992 126.667 -4.66699 186 -12l-4 -19
c-79.333 5.33301 -146 8 -200 8c-23.333 0 -41.5 -0.5 -54.5 -1.5s-28.333 -3.83301 -46 -8.5s-31.5 -11.5 -41.5 -20.5s-19.333 -22.333 -28 -40s-14.667 -39.5 -18 -65.5c-4 -38.667 -0.333008 -68.834 11 -90.501s36.333 -41.167 75 -58.5l150 -63
c52 -22.667 86 -46.5 102 -71.5s20.667 -62.167 14 -111.5c-4 -28.667 -11.167 -52.834 -21.5 -72.501s-21.833 -35.167 -34.5 -46.5s-29.834 -19.833 -51.501 -25.5s-42.5 -9.33398 -62.5 -11.001s-46 -2.5 -78 -2.5c-65.333 0 -128.666 3.66699 -189.999 11l4 19
c68 -5.33301 134.667 -7.66602 200 -6.99902c68.667 1.33301 118.167 10.5 148.5 27.5s50.166 54.167 59.499 111.5c6 42.667 2.83301 74.167 -9.5 94.5s-39.5 39.833 -81.5 58.5z" />
    <glyph glyph-name="uni0406" unicode="&#x406;" horiz-adv-x="230" 
d="M87 0h-25l97 690h25z" />
    <glyph glyph-name="uni0407" unicode="&#x407;" horiz-adv-x="231" 
d="M101 856h8.99902c6.66699 0 9.66699 -4 9 -12l-8 -53c-0.666992 -8.66699 -5 -13 -13 -13h-7c-7.33301 0 -10.666 4 -9.99902 12l8 54c0.666992 8 4.66699 12 12 12zM277.999 856h8.99902c7.33301 0 10.333 -4 9 -12l-8 -53c-0.666992 -8.66699 -5 -13 -13 -13h-7
c-7.33301 0 -10.666 4 -9.99902 12l8 54c1.33301 8 5.33301 12 12 12zM86.998 0h-25l97 690h25z" />
    <glyph glyph-name="uni0408" unicode="&#x408;" horiz-adv-x="322" 
d="M279 690l-81 -576c-11.333 -80.667 -57 -120.667 -137 -120c-18.667 0 -40 2 -64 6l5 16h57c66.667 0 105 33.667 115 101l80 573h25z" />
    <glyph glyph-name="uni0409" unicode="&#x409;" horiz-adv-x="964" 
d="M530 384h182.998c78 0 130 -15 156 -45s34 -81 24 -153c-10 -75.333 -32.167 -126.5 -66.5 -153.5s-89.5 -40.5 -165.5 -40.5c-88 0 -157.667 2.66699 -209 8h-1l94 668h-168c-28.667 0 -50.667 -6.16699 -66 -18.5s-26.333 -34.5 -33 -66.5
c-32.667 -159.333 -57.167 -265.333 -73.5 -318s-43.166 -104 -80.499 -154c-48 -64.667 -92.333 -101.667 -133 -111l-3 22c32.667 12.667 71 46.667 115 102c35.333 47.333 60.833 95.833 76.5 145.5s40.834 156.167 75.501 319.5c8 37.333 21.5 63.5 40.5 78.5
s45.167 22.5 78.5 22.5h199zM526.998 361l-49 -344c45.333 -1.33301 94 -2 146 -2c44 0 78.5 1.83301 103.5 5.5s48 11.5 69 23.5s36.833 29.5 47.5 52.5s18.667 54.167 24 93.5c9.33301 64 3 108.5 -19 133.5s-67.667 37.5 -137 37.5h-185z" />
    <glyph glyph-name="uni040A" unicode="&#x40a;" horiz-adv-x="980" 
d="M547 382h183c78 0 130 -14.833 156 -44.5s34 -80.167 24 -151.5c-10 -75.333 -32.167 -126.5 -66.5 -153.5s-89.5 -40.5 -165.5 -40.5c-88 0 -157.667 2.66699 -209 8h-1l50 359h-381l-50 -359h-25l97 690h25l-43 -309h381l43 309h25zM543 359l-48 -342
c44 -1.33301 104.667 -2 182 -2c68 0 117.167 12 147.5 36s50.5 70.333 60.5 139c8.66699 63.333 2 107.333 -20 132s-67.333 37 -136 37h-186z" />
    <glyph glyph-name="uni040B" unicode="&#x40b;" horiz-adv-x="784" 
d="M344 668l-47.999 -338c93.333 68 191.666 102 294.999 102c97.333 0 139 -48.667 125 -146l-40 -286h-25l40 285c6 42.667 0.666992 74 -16 94s-46 30 -88 30c-50.667 0 -97.5 -7.66699 -140.5 -23s-94.167 -42.333 -153.5 -81l-43 -305h-25l94 668h-242l3 22h510l-3 -22
h-243z" />
    <glyph glyph-name="uni040C" unicode="&#x40c;" horiz-adv-x="571" 
d="M327 736l-14 14l169 146l17 -19zM286 361l-1.99609 -1.99902c13.333 -0.666992 26 -3.33398 38 -8.00098s23 -11.834 33 -21.501s19 -19 27 -28s15.833 -22 23.5 -39l19 -43.5c5 -12 11 -29.167 18 -51.5s12.167 -40 15.5 -53l15.5 -58l15.5 -57.5l-27 2l-14.5 54.5
l-14.5 53.5l-14 48.5c-6 20.333 -11.167 35.833 -15.5 46.5s-10.166 24 -17.499 40s-14.333 28.167 -21 36.5s-14.667 17.5 -24 27.5s-19 17.5 -29 22.5s-21.333 9.33301 -34 13s-26.334 5.5 -41.001 5.5h-104c-2 -29.333 -5.33301 -58.333 -10 -87l-37 -262h-24l97 690h24
l-33 -237c-3.33301 -25.333 -8 -52.666 -14 -81.999h102c15.333 0 30.166 1.83301 44.499 5.5s28.666 10.5 42.999 20.5l37.5 27c10.667 8 23 21.167 37 39.5l32.5 41.5c7.66699 9.33301 18.667 26.166 33 50.499l29 49.5l30.5 54l18 32l26 -2
c-2.66699 -5.33301 -11.334 -21 -26.001 -47l-29 -51l-27.5 -46.5c-13.667 -23 -23.834 -39 -30.501 -48l-29.5 -40c-13 -17.667 -24.167 -30.5 -33.5 -38.5l-33 -27c-12.667 -10 -25 -17.167 -37 -21.5s-24.333 -7.16602 -37 -8.49902z" />
    <glyph glyph-name="uni040D" unicode="&#x40d;" horiz-adv-x="678" 
d="M438 748l-14 -12l-134 141l19 18zM534 0h-24.999l78 553c3.33301 21.333 7.66602 53.333 12.999 96l-1 -1c-1.33301 -2 -7.33301 -10.5 -18 -25.5s-19 -26.167 -25 -33.5l-470 -589h-24l97 690h25l-77 -548l-14 -101l1 1l26 34l24 32l463 582h24z" />
    <glyph glyph-name="uni040E" unicode="&#x40e;" horiz-adv-x="533" 
d="M466 874l17 -6.00098c-4.66699 -35.333 -20.334 -63 -47.001 -83s-60.667 -30 -102 -30c-42.667 0 -75 10.333 -97 31s-30.667 48.667 -26 84l18 2c-4.66699 -29.333 2.5 -52.166 21.5 -68.499s46.833 -24.5 83.5 -24.5s66.834 8.33301 90.501 25s37.5 40 41.5 70z
M565 689.999l-274.002 -529.999c-32.667 -62.667 -57 -103.334 -73 -122.001c-23.333 -27.333 -48.666 -42 -75.999 -44c-32.667 -2 -64.334 2 -95.001 12l3 16c22.667 -4 40.834 -6.5 54.501 -7.5s27.167 0.166992 40.5 3.5s23.833 7.33301 31.5 12s17 14.167 28 28.5
s20.5 28.5 28.5 42.5s19.333 35.333 34 64l21 40h-43c-25.333 0 -40.666 12 -45.999 36l-111 449h26l107 -442c2.66699 -14 11.667 -21 27 -21h51l239 463h27z" />
    <glyph glyph-name="uni040F" unicode="&#x40f;" horiz-adv-x="666" 
d="M619 690l-97 -690h-210l-23 -151h-18l17 151h-226l97 690h25l-94 -668h410l94 668h25z" />
    <glyph glyph-name="uni0410" unicode="&#x410;" horiz-adv-x="599" 
d="M462 252h-328.999l-127 -252h-28l344 682c2.66699 5.33301 7 8 13 8h43c7.33301 0 11.666 -3.33301 12.999 -10l152 -680h-26zM457.001 274l-75 339c-6 28 -10 46 -12 54h-29c-3.33301 -6 -8 -15.333 -14 -28s-10.667 -22 -14 -28l-169 -337h313z" />
    <glyph glyph-name="uni0411" unicode="&#x411;" horiz-adv-x="591" 
d="M181 671l-41.999 -301h193c78.667 0 131 -14.333 157 -43s34 -78 24 -148c-10 -72.667 -32 -122 -66 -148s-89 -39 -165 -39c-92.667 0 -165.667 2.66699 -219 8h-1l97 690c54 3.33301 118.667 5 194 5c59.333 0 125.666 -1.66699 198.999 -5l-4 -19h-367zM136.001 347
l-46.999 -330c45.333 -1.33301 109.333 -2 192 -2c68 0 117.167 11.5 147.5 34.5s50.166 67.5 59.499 133.5c8.66699 62 2 104.833 -20 128.5s-67.667 35.5 -137 35.5h-195z" />
    <glyph glyph-name="uni0412" unicode="&#x412;" horiz-adv-x="610" 
d="M62 0l97 690c48 5.33301 112.667 8 194 8c84 0 140.5 -12.833 169.5 -38.5s38.5 -73.5 28.5 -143.5c-7.33301 -49.333 -22 -86.666 -44 -111.999s-53.667 -40 -95 -44v-4c48 -4.66699 80.5 -22.334 97.5 -53.001s21.167 -75 12.5 -133
c-10 -69.333 -31.667 -116.333 -65 -141s-90 -37 -170 -37c-96.667 0 -171.667 2.66699 -225 8zM139 368l188 -0.000976562c66 0.666992 113.5 11.334 142.5 32.001s47.5 60.667 55.5 120c8.66699 62 0.666992 103.333 -24 124s-74 31 -148 31h-171zM136 346.999
l-47 -330.002c46.667 -1.33301 112.334 -2 197.001 -2c71.333 0 122.166 10.833 152.499 32.5s49.833 63.834 58.5 126.501c9.33301 66.667 1.5 111.834 -23.5 135.501s-74.167 36.167 -147.5 37.5h-190z" />
    <glyph glyph-name="uni0413" unicode="&#x413;" horiz-adv-x="514" 
d="M59 0l82.999 589c4.66699 33.333 17.334 58.5 38.001 75.5s46 25.5 76 25.5c126.667 0 222 -1.33301 286 -4l-4 -18h-277c-24.667 0 -45.667 -6.83301 -63 -20.5s-28 -34.5 -32 -62.5l-82 -585h-25z" />
    <glyph glyph-name="uni0414" unicode="&#x414;" horiz-adv-x="649" 
d="M577 22l-2 -15l-22 -158h-18l15 151h-544l-27 -151h-18l21 151l3 22h53c94.667 130.667 161.667 319.667 201 567c6 36.667 18.333 62.667 37 78s45 23 79 23h234l-94 -668h82zM470 22l91 646h-205c-28 0 -49.333 -6 -64 -18s-24.667 -33.667 -30 -65
c-20.667 -117.333 -45.5 -222 -74.5 -314s-69.5 -175 -121.5 -249h404z" />
    <glyph glyph-name="uni0415" unicode="&#x415;" horiz-adv-x="548" 
d="M543 668h-285.999c-26.667 0 -48.334 -7.5 -65.001 -22.5s-26.667 -35.167 -30 -60.5l-28 -205h328l-3 -21h-328l-36 -256c-3.33301 -24 1.33398 -43.5 14.001 -58.5s31 -22.5 55 -22.5h288l1 -18c-66 -2.66699 -164 -4 -294 -4c-30 -0 -53.5 9.83301 -70.5 29.5
s-23.167 44.167 -18.5 73.5l68 486c4 30 16 54.333 36 73s46 28 78 28c131.333 0 229.666 -1.33301 294.999 -4z" />
    <glyph glyph-name="uni0416" unicode="&#x416;" horiz-adv-x="890" 
d="M641 361l-0.00390625 -2c18 -2.66699 34.167 -10.5 48.5 -23.5s26.333 -28.167 36 -45.5s19 -41 28 -71s16.5 -57.667 22.5 -83s13 -57.666 21 -96.999c3.33301 -17.333 6 -30.333 8 -39h-25c-25.333 118 -43.333 192.333 -54 223
c-25.333 71.333 -60.666 112.333 -105.999 123c-8.66699 2 -18 3 -28 3h-125c-2 -36 -5 -65 -9 -87l-37 -262h-24l37 264c2.66699 17.333 7.66699 45.666 15 84.999h-121c-22 0 -42.333 -3.5 -61 -10.5s-36.834 -18.833 -54.501 -35.5s-33 -33.167 -46 -49.5
s-28 -40.333 -45 -72s-31 -59.167 -42 -82.5l-45.5 -99h-28l44 96c10.667 22.667 24.334 50 41.001 82s31.334 56.667 44.001 74s27.167 35.166 43.5 53.499s33 31.666 50 39.999s34.833 13.166 53.5 14.499v2c-20.667 2.66699 -39.167 12.334 -55.5 29.001
s-31 42.334 -44 77.001s-22.667 63.667 -29 87s-15.166 58.666 -26.499 105.999c-3.33301 12.667 -5.66602 22.334 -6.99902 29.001h25c24.667 -101.333 42 -165.666 52 -192.999c33.333 -82.667 77.333 -124.667 132 -126h123c0.666992 22.667 3.66699 50.667 9 84l33 235
h24l-33 -237c-4.66699 -34.667 -9.33398 -62 -14.001 -82h123c21.333 0 42 5.5 62 16.5s38.167 25.833 54.5 44.5s32.333 40.5 48 65.5s30.334 51 44.001 78l41.5 84.5c6 13.333 10.667 23.333 14 30h27c-51.333 -108.667 -88 -180 -110 -214
c-46 -72 -90.667 -110.333 -134 -115z" />
    <glyph glyph-name="uni0417" unicode="&#x417;" horiz-adv-x="540" 
d="M112 667l-3 17.999c58 8.66699 115 13 171 13c84 0 140.667 -12.833 170 -38.5s39 -73.5 29 -143.5c-7.33301 -49.333 -21.833 -86.666 -43.5 -111.999s-53.167 -40 -94.5 -44l-3 -4c49.333 -4.66699 82.5 -22.334 99.5 -53.001s21.167 -75 12.5 -133
c-10 -69.333 -31.833 -116.333 -65.5 -141s-90.167 -37 -169.5 -37c-85.333 0 -156.333 4.66699 -213 14l5 18c4.66699 0 18.167 -0.833008 40.5 -2.5s48.166 -3.16699 77.499 -4.5s59 -2 89 -2c70.667 0 121.167 10.833 151.5 32.5s49.833 63.834 58.5 126.501
c9.33301 66.667 1.5 112.167 -23.5 136.5s-73.833 36.5 -146.5 36.5h-102l3 21h100c66.667 0 114.5 10.5 143.5 31.5s47.5 61.167 55.5 120.5c8.66699 62 0.5 103.333 -24.5 124s-74.5 31 -148.5 31c-24.667 0 -49 -0.5 -73 -1.5s-45.167 -2.33301 -63.5 -4
s-29.166 -2.5 -32.499 -2.5z" />
    <glyph glyph-name="uni0418" unicode="&#x418;" horiz-adv-x="678" 
d="M534 0h-24.999l78 553c3.33301 21.333 7.66602 53.333 12.999 96l-1 -1c-1.33301 -2 -7.33301 -10.5 -18 -25.5s-19 -26.167 -25 -33.5l-470 -589h-24l97 690h25l-77 -548l-14 -101l1 1l26 34l24 32l463 582h24z" />
    <glyph glyph-name="uni0419" unicode="&#x419;" horiz-adv-x="678" 
d="M528 873h23.001c-5.33301 -36 -21.333 -64.667 -48 -86s-60.334 -32 -101.001 -32c-42.667 0 -75.167 10.833 -97.5 32.5s-30.833 50.167 -25.5 85.5h25c-4.66699 -32 1.83301 -56.667 19.5 -74s43.5 -26 77.5 -26s62.5 8.66699 85.5 26s36.833 42 41.5 74zM534.001 0
h-24.999l78 553c3.33301 21.333 7.66602 53.333 12.999 96l-1 -1c-1.33301 -2 -7.33301 -10.5 -18 -25.5s-19 -26.167 -25 -33.5l-470 -589h-24l97 690h25l-77 -548l-14 -101l1 1l26 34l24 32l463 582h24z" />
    <glyph glyph-name="uni041A" unicode="&#x41a;" horiz-adv-x="571" 
d="M286 361l-1.99609 -1.99902c13.333 -0.666992 26 -3.33398 38 -8.00098s23 -11.834 33 -21.501s19 -19 27 -28s15.833 -22 23.5 -39l19 -43.5c5 -12 11 -29.167 18 -51.5s12.167 -40 15.5 -53l15.5 -58l15.5 -57.5l-27 2l-14.5 54.5l-14.5 53.5l-14 48.5
c-6 20.333 -11.167 35.833 -15.5 46.5s-10.166 24 -17.499 40s-14.333 28.167 -21 36.5s-14.667 17.5 -24 27.5s-19 17.5 -29 22.5s-21.333 9.33301 -34 13s-26.334 5.5 -41.001 5.5h-104c-2 -29.333 -5.33301 -58.333 -10 -87l-37 -262h-24l97 690h24l-33 -237
c-3.33301 -25.333 -8 -52.666 -14 -81.999h102c15.333 0 30.166 1.83301 44.499 5.5s28.666 10.5 42.999 20.5l37.5 27c10.667 8 23 21.167 37 39.5l32.5 41.5c7.66699 9.33301 18.667 26.166 33 50.499l29 49.5l30.5 54l18 32l26 -2
c-2.66699 -5.33301 -11.334 -21 -26.001 -47l-29 -51l-27.5 -46.5c-13.667 -23 -23.834 -39 -30.501 -48l-29.5 -40c-13 -17.667 -24.167 -30.5 -33.5 -38.5l-33 -27c-12.667 -10 -25 -17.167 -37 -21.5s-24.333 -7.16602 -37 -8.49902z" />
    <glyph glyph-name="uni041B" unicode="&#x41b;" horiz-adv-x="632" 
d="M585 690l-97 -689.998h-25l94 668h-193c-28.667 0 -50.667 -6.33301 -66 -19s-26.333 -34.667 -33 -66c-34 -160.667 -59 -267.334 -75 -320.001s-41.667 -103.334 -77 -152.001c-41.333 -57.333 -86.333 -94.333 -135 -111l-3 23c15.333 8 27.833 15 37.5 21
s21.5 15.833 35.5 29.5s28.333 30.5 43 50.5c33.333 46.667 58 94.667 74 144s41.667 156.333 77 321c8 37.333 21.167 63.5 39.5 78.5s44.833 22.5 79.5 22.5h224z" />
    <glyph glyph-name="uni041C" unicode="&#x41c;" horiz-adv-x="855" 
d="M734 690l41.9971 0.00195312c10.667 0 15.334 -5.33301 14.001 -16l-65 -674h-25l64 668h-24l-310 -600c-2.66699 -5.33301 -7 -8 -13 -8h-42c-7.33301 0 -11.666 3.33301 -12.999 10l-142 598h-24l-124 -668h-25l125 676c2 9.33301 7.33301 14 16 14h41
c7.33301 0 11.666 -3.33301 12.999 -10l120 -505c2.66699 -10.667 6.33398 -26.334 11.001 -47.001s8.33398 -36.334 11.001 -47.001h27l49 98l261 503c2.66699 5.33301 7 8 13 8z" />
    <glyph glyph-name="uni041D" unicode="&#x41d;" horiz-adv-x="657" 
d="M610 690l-97 -690h-25l50 359h-401l-50 -359h-25l97 690h25l-43 -309h401l43 309h25z" />
    <glyph glyph-name="uni041E" unicode="&#x41e;" horiz-adv-x="660" 
d="M386 702c94.667 0 157.499 -26.833 188.499 -80.5s36.833 -146.5 17.5 -278.5c-18 -131.333 -49.333 -223.333 -94 -276s-114 -79 -208 -79c-94.667 0 -157.5 26.833 -188.5 80.5s-37.167 146.5 -18.5 278.5c18.667 131.333 50.334 223.333 95.001 276s114 79 208 79z
M385.999 679c-86.667 0 -150.334 -24.667 -191.001 -74s-69.667 -136.666 -87 -261.999c-16.667 -123.333 -11.667 -209.5 15 -258.5s82 -73.5 166 -73.5c86.667 0 150.334 24.667 191.001 74s69.667 136.666 87 261.999c17.333 124 13 210.333 -13 259s-82 73 -168 73z" />
    <glyph glyph-name="uni041F" unicode="&#x41f;" horiz-adv-x="661" 
d="M614 690l-97 -690h-25l94 668h-405l-94 -668h-25l97 690h455z" />
    <glyph glyph-name="uni0420" unicode="&#x420;" horiz-adv-x="580" 
d="M62 0l96.999 690c54 5.33301 127.333 8 220 8c74.667 0 124.834 -14.5 150.501 -43.5s33.167 -82.5 22.5 -160.5c-11.333 -78 -33.333 -131.167 -66 -159.5s-86 -42.5 -160 -42.5c-87.333 0 -153 1.33301 -197 4l-42 -296h-25zM130.999 315h195
c66 1.33301 113.333 14.5 142 39.5s48 72.5 58 142.5c10 69.333 4.33301 116.333 -17 141s-64.333 37 -129 37c-88 0 -154 -0.666992 -198 -2z" />
    <glyph glyph-name="uni0421" unicode="&#x421;" 
d="M474 24l5 -18c-55.333 -12 -118.333 -18 -189 -18c-94.667 0 -157.5 26.833 -188.5 80.5s-37.167 146.5 -18.5 278.5c18.667 131.333 50.334 223.333 95.001 276s114 79 208 79c67.333 0 125 -5.66699 173 -17l-7 -18c-48.667 8 -103.667 12 -165 12
c-88 0 -152 -24.5 -192 -73.5s-69 -136.5 -87 -262.5c-17.333 -124 -12.833 -210.333 13.5 -259s82.166 -73 167.499 -73c71.333 0 133 4.33301 185 13z" />
    <glyph glyph-name="uni0422" unicode="&#x422;" horiz-adv-x="558" 
d="M587 668h-243l-94 -668h-25l94 668h-242l3 22h510z" />
    <glyph glyph-name="uni0423" unicode="&#x423;" horiz-adv-x="533" 
d="M565 690l-274.002 -529.999c-32.667 -62.667 -57 -103.334 -73 -122.001c-23.333 -27.333 -48.666 -42 -75.999 -44c-32.667 -2 -64.334 2 -95.001 12l3 16c22.667 -4 40.834 -6.5 54.501 -7.5s27.167 0.166992 40.5 3.5s23.833 7.33301 31.5 12s17 14.167 28 28.5
s20.5 28.5 28.5 42.5s19.333 35.333 34 64l21 40h-43c-25.333 0 -40.666 12 -45.999 36l-111 449h26l107 -442c2.66699 -14 11.667 -21 27 -21h51l239 463h27z" />
    <glyph glyph-name="uni0424" unicode="&#x424;" horiz-adv-x="819" 
d="M488 758l-15 -106c118 -1.33301 198 -24.5 240 -69.5s55.667 -121.5 41 -229.5c-14.667 -107.333 -49.334 -183 -104.001 -227s-141.334 -66.667 -260.001 -68l-15 -106h-25l15 106c-118 1.33301 -198.167 24.5 -240.5 69.5s-56.166 121.5 -41.499 229.5
c15.333 108 50.333 183.833 105 227.5s141.334 66.167 260.001 67.5l15 106h25zM470 630l-77 -550c109.333 1.33301 189 22.333 239 63s82 112 96 214c14.667 101.333 2.66699 171.833 -36 211.5s-112.667 60.167 -222 61.5zM368 80l77 550c-110 -1.33301 -190 -22 -240 -62
s-82 -111.667 -96 -215c-14.667 -102.667 -2.66699 -173.5 36 -212.5s113 -59.167 223 -60.5z" />
    <glyph glyph-name="uni0425" unicode="&#x425;" horiz-adv-x="590" 
d="M345 360l168 -360h-27l-163 350h-35l-262 -350h-30l270 361l-160 329h27l154 -318h37l244 318h29z" />
    <glyph glyph-name="uni0426" unicode="&#x426;" horiz-adv-x="667" 
d="M513 22h82l-3 -22l-21 -151h-18l15 151h-506l97 690h25l-94 -668h398l94 668h25z" />
    <glyph glyph-name="uni0427" unicode="&#x427;" horiz-adv-x="603" 
d="M556 690l-97 -689.999h-25l52 370c-92.667 -68 -184.667 -102 -276 -102c-48.667 0 -83 11 -103 33s-27 59.667 -21 113l39 276h25l-38 -275c-5.33301 -46 -0.5 -78.167 14.5 -96.5s43.5 -27.5 85.5 -27.5c48.667 0 94.5 9.16699 137.5 27.5s89.833 44.166 140.5 77.499
l41 294h25z" />
    <glyph glyph-name="uni0428" unicode="&#x428;" horiz-adv-x="901" 
d="M854 690l-97 -690h-695l97 690h25l-94 -668h310l94 668h25l-94 -668h310l94 668h25z" />
    <glyph glyph-name="uni0429" unicode="&#x429;" horiz-adv-x="904" 
d="M750 22h82l-3 -22l-21 -151h-18l15 151h-743l97 690h25l-94 -668h305l94 668h25l-94 -668h305l94 668h25z" />
    <glyph glyph-name="uni042A" unicode="&#x42a;" horiz-adv-x="735" 
d="M292 384h193c78 0 130 -15 156 -45s34 -81 24 -153c-10 -75.333 -32.167 -126.5 -66.5 -153.5s-89.5 -40.5 -165.5 -40.5c-92.667 0 -165.667 2.66699 -219 8h-1l94 668h-233l3 22h258zM289 361l-49 -344c45.333 -1.33301 109.333 -2 192 -2c68 0 117.167 12 147.5 36
s50.5 70.333 60.5 139c9.33301 64 3 108.5 -19 133.5s-67.667 37.5 -137 37.5h-195z" />
    <glyph glyph-name="uni042B" unicode="&#x42b;" horiz-adv-x="809" 
d="M141 384h193c78 0 130 -15 156 -45s34 -81 24 -153c-10 -75.333 -32.167 -126.5 -66.5 -153.5s-89.5 -40.5 -165.5 -40.5c-92.667 0 -165.667 2.66699 -219 8h-1l97 690h25zM762 690l-97 -690h-25l97 690h25zM138 361l-49 -344c45.333 -1.33301 109.333 -2 192 -2
c68 0 117.167 12 147.5 36s50.5 70.333 60.5 139c9.33301 64 3 108.5 -19 133.5s-67.667 37.5 -137 37.5h-195z" />
    <glyph glyph-name="uni042C" unicode="&#x42c;" horiz-adv-x="584" 
d="M141 384h193c78 0 130 -15 156 -45s34 -81 24 -153c-10 -75.333 -32.167 -126.5 -66.5 -153.5s-89.5 -40.5 -165.5 -40.5c-92.667 0 -165.667 2.66699 -219 8h-1l97 690h25zM138 361l-49 -344c45.333 -1.33301 109.333 -2 192 -2c68 0 117.167 12 147.5 36
s50.5 70.333 60.5 139c9.33301 64 3 108.5 -19 133.5s-67.667 37.5 -137 37.5h-195z" />
    <glyph glyph-name="uni042D" unicode="&#x42d;" horiz-adv-x="566" 
d="M110 667l-5 17.999c50 11.333 109 17 177 17c98.667 0 164.167 -26.833 196.5 -80.5s38.833 -146.5 19.5 -278.5c-18 -131.333 -50.167 -223.333 -96.5 -276s-118.166 -79 -215.499 -79c-70.667 0 -131.667 6 -183 18l7 18c48 -8.66699 106.333 -13 175 -13
c89.333 0 155.333 24.833 198 74.5s72.667 136.834 90 261.501l2 12h-320l3 21h319c12.667 110.667 4.5 188.167 -24.5 232.5s-85.5 66.5 -169.5 66.5c-64.667 0 -122.334 -4 -173.001 -12z" />
    <glyph glyph-name="uni042E" unicode="&#x42e;" horiz-adv-x="891" 
d="M139 371h188.999c18.667 122 49.667 207.667 93 257s108.666 74 195.999 74c94.667 0 157.5 -26.833 188.5 -80.5s36.833 -146.5 17.5 -278.5c-18 -131.333 -49.333 -223.333 -94 -276s-114 -79 -208 -79c-91.333 0 -151.666 26.833 -180.999 80.5
s-34.666 146.5 -15.999 278.5v2h-188l-49 -349h-25l97 690h25zM349.999 349l-0.998047 -6.00195c-17.333 -123.333 -13.333 -209.5 12 -258.5s78.333 -73.5 159 -73.5c85.333 0 148.666 24.833 189.999 74.5s70.666 136.834 87.999 261.501
c17.333 123.333 12.833 209.5 -13.5 258.5s-81.833 73.5 -166.5 73.5c-80 0 -139.833 -23.667 -179.5 -71s-68.5 -129.666 -86.5 -246.999z" />
    <glyph glyph-name="uni042F" unicode="&#x42f;" horiz-adv-x="600" 
d="M213 309l1 4.00195c-82 23.333 -114.333 91.666 -97 204.999c10 63.333 32 109.166 66 137.499s83.333 42.5 148 42.5c95.333 0 169.333 -2.66699 222 -8l-97 -690h-25l43 304c-63.333 -2 -131.333 -3.33301 -204 -4c-56 -0.666992 -98.667 -31.667 -128 -93l-100 -207
h-29l103 212c26 52.667 58.333 85 97 97zM476 323.002l50.001 350c-46.667 1.33301 -111.334 2 -194.001 2c-56 0 -99 -12 -129 -36s-50 -64.667 -60 -122c-10 -60.667 -3.66699 -108.167 19 -142.5s62 -51.5 118 -51.5h196z" />
    <glyph glyph-name="uni0430" unicode="&#x430;" horiz-adv-x="564" 
d="M412 0l15 122c-39.333 -43.333 -81.5 -76.5 -126.5 -99.5s-84.5 -34.5 -118.5 -34.5c-58.667 0 -96 20.667 -112 62s-16 105.333 0 192c16 100.667 40 167.5 72 200.5s91 49.5 177 49.5c47.333 0 107 -4 179 -12l-68 -480h-18zM428 151l43.002 312
c-72.667 4.66699 -122.334 7 -149.001 7c-34 0 -61.833 -2 -83.5 -6s-40.834 -10.667 -57.501 -20s-30.167 -23.5 -40.5 -42.5s-19.166 -41 -26.499 -66s-14 -57.5 -20 -97.5c-14.667 -79.333 -15.834 -137 -3.50098 -173s42.833 -54 91.5 -54
c33.333 0 72.833 12.5 118.5 37.5s88.167 59.167 127.5 102.5z" />
    <glyph glyph-name="uni0431" unicode="&#x431;" horiz-adv-x="559" 
d="M512 733l8 -16c-19.333 -12.667 -38.666 -23.5 -57.999 -32.5s-34.333 -15.167 -45 -18.5s-26.667 -7.66602 -48 -12.999s-35.666 -9 -42.999 -11c-64.667 -18 -110.5 -44.5 -137.5 -79.5s-47.5 -86.167 -61.5 -153.5c0 -1.33301 -4.66699 -23.666 -14 -66.999h1
c28.667 83.333 97 125 205 125c72.667 0 120.667 -17.667 144 -53s29 -96.666 17 -183.999c-6 -39.333 -13.333 -72.5 -22 -99.5s-21.334 -52 -38.001 -75s-39 -40 -67 -51s-62.333 -16.5 -103 -16.5c-62 0 -106.833 12.333 -134.5 37s-41.834 59.834 -42.501 105.501
s3.33301 101.5 12 167.5c7.33301 50.667 14.5 92.167 21.5 124.5s16 62.666 27 90.999s24.667 51.166 41 68.499s36 32.666 59 45.999s51.5 25 85.5 35c11.333 3.33301 26.333 7.16602 45 11.499s33.667 8 45 11s26.333 8.66699 45 17s38 18.5 58 30.5zM318 444
c-73.333 0 -125.501 -18.166 -156.501 -54.499s-51.167 -89.5 -60.5 -159.5c-12 -82.667 -6.66699 -139.834 16 -171.501s67.334 -47.5 134.001 -47.5c63.333 0 110.333 16.667 141 50s52 92.333 64 177c11.333 78 7 131.833 -13 161.5s-61.667 44.5 -125 44.5z" />
    <glyph glyph-name="uni0432" unicode="&#x432;" horiz-adv-x="556" 
d="M354 268l0.00195312 -2.00195c46.667 -2 78.667 -15.667 96 -41s23 -61.333 17 -108c-7.33301 -50 -27 -84 -59 -102s-83.333 -27 -154 -27c-30 0 -55.167 1.33301 -75.5 4s-39 7.66699 -56 15s-30 17 -39 29s-16 27.833 -21 47.5s-7.16699 42.834 -6.5 69.501
s3.66699 58.334 9 95.001c8 54.667 18.167 98.5 30.5 131.5s29.166 57.667 50.499 74s43.5 26.833 66.5 31.5s53.833 7 92.5 7c72.667 0 122.667 -7.66699 150 -23s36.666 -45 27.999 -89c-13.333 -62 -56.333 -99.333 -129 -112zM87.002 236.998l187 30.001
c64 8.66699 109.167 21.667 135.5 39s42.5 43 48.5 77c6.66699 35.333 -0.333008 58.666 -21 69.999s-64 17 -130 17c-29.333 0 -52.833 -1.16699 -70.5 -3.5s-35.5 -7.5 -53.5 -15.5s-32.333 -20 -43 -36s-20.5 -37.833 -29.5 -65.5s-16.5 -62.5 -22.5 -104.5z
M274.002 246.999l-189.999 -29.999c-7.33301 -59.333 -6.33301 -103.833 3 -133.5s26.166 -49.334 50.499 -59.001s62.166 -14.5 113.499 -14.5c65.333 0 111.833 7.66699 139.5 23s44.834 45 51.501 89c6.66699 50.667 -2.83301 87 -28.5 109s-72.167 27.333 -139.5 16z
" />
    <glyph glyph-name="uni0433" unicode="&#x433;" horiz-adv-x="507" 
d="M85 442l-1.99707 18.002c59.333 18 126.666 28.667 201.999 32c14.667 0 29.667 0.166992 45 0.5s30 -1.66699 44 -6s26.333 -10 37 -17s18.667 -17.833 24 -32.5s6.66602 -32.334 3.99902 -53.001c-2.66699 -20 -8 -37.5 -16 -52.5s-18.833 -27.333 -32.5 -37
s-25.334 -16.667 -35.001 -21s-22.5 -9.5 -38.5 -15.5l-166 -55c-25.333 -9.33301 -45.5 -21.333 -60.5 -36s-24.5 -35.667 -28.5 -63c-6 -38 2.66699 -63 26 -75s61 -18 113 -18c73.333 0 147.333 13 222 39l3 -18c-68 -29.333 -144.333 -44 -229 -44
c-26.667 0 -48.834 1.16699 -66.501 3.5s-35 7.16602 -52 14.499s-29 19 -36 35s-8.83301 36.667 -5.5 62c4 30.667 15 55.834 33 75.501s46.333 36.5 85 50.5l167 55c54 19.333 84.667 52.333 92 99c6.66699 37.333 -1.66602 61.666 -24.999 72.999s-60.333 16 -111 14
c-54 -2.66699 -118.333 -12 -193 -28z" />
    <glyph glyph-name="uni0434" unicode="&#x434;" horiz-adv-x="555" 
d="M164 690l4.99805 19c26 -2 49.167 -4.83301 69.5 -8.5s41.833 -8.66699 64.5 -15s42.5 -14.833 59.5 -25.5s33.5 -23.5 49.5 -38.5s28.833 -33.167 38.5 -54.5s17.5 -45.666 23.5 -72.999s8.66699 -59.333 8 -96s-4.33398 -77 -11.001 -121
c-4 -28.667 -8.16699 -53.167 -12.5 -73.5s-10.166 -42.666 -17.499 -66.999s-16.5 -44.5 -27.5 -60.5s-24.5 -31.167 -40.5 -45.5s-35.5 -25 -58.5 -32s-49.167 -10.5 -78.5 -10.5c-69.333 0 -117.833 18.667 -145.5 56s-35.5 97 -23.5 179
c20.667 148.667 95.334 223 224.001 223c76 0 131.667 -26.667 167 -80c2.66699 38 1.83398 72.167 -2.49902 102.5s-11 56.166 -20 77.499s-21.333 40.166 -37 56.499s-31.5 29.333 -47.5 39s-35.333 18 -58 25s-43.5 12 -62.5 15s-41.167 5.83301 -66.5 8.5zM234.998 10
c37.333 0 68.835 6.33203 94.502 18.999s46.167 32.334 61.5 59.001s27.166 55.167 35.499 85.5s15.833 68.5 22.5 114.5c2 10.667 4.33301 28.667 7 54c-34.667 54.667 -91 82 -169 82c-112 0 -177.333 -68.667 -196 -206c-10 -74.667 -3.33301 -128 20 -160
s64.666 -48 123.999 -48z" />
    <glyph glyph-name="uni0435" unicode="&#x435;" horiz-adv-x="526" 
d="M420 24l3.00098 -18.001c-44.667 -12 -107.667 -18 -189 -18c-78.667 0 -130.5 19.167 -155.5 57.5s-30.5 104.5 -16.5 198.5c8 51.333 18.333 93.333 31 126s29.667 57.834 51 75.501s44.666 29.834 69.999 36.501s57.333 10 96 10c64 0 110.167 -10.5 138.5 -31.5
s35.833 -59.833 22.5 -116.5c-9.33301 -38.667 -25.5 -65.834 -48.5 -81.501s-59.833 -26.167 -110.5 -31.5l-231 -25c-8.66699 -76 -1 -127.667 23 -155s70.667 -41 140 -41c52 0 110.667 4.66699 176 14zM84.001 226.999l229 26.001c44.667 5.33301 76 14.166 94 26.499
s31.333 34.5 40 66.5c3.33301 18 5.5 33.667 6.5 47s-1.5 24.5 -7.5 33.5s-12.5 16.333 -19.5 22s-16.833 10.167 -29.5 13.5s-25 5.5 -37 6.5s-26.333 1.5 -43 1.5c-38.667 0 -69.5 -2.5 -92.5 -7.5s-44.333 -15.667 -64 -32s-35 -39.5 -46 -69.5s-20.5 -70 -28.5 -120z
" />
    <glyph glyph-name="uni0436" unicode="&#x436;" horiz-adv-x="761" 
d="M516 250c27.333 -2.66699 51.165 -15.9971 71.498 -39.9971s34.833 -47.333 43.5 -70s20.667 -59.667 36 -111l9 -29h-24l-13 43c-6 20 -10.333 33.833 -13 41.5l-12.5 36c-5.66699 16.333 -10.5 27.833 -14.5 34.5l-16 27.5c-6.66699 11.667 -13.334 20 -20.001 25
s-14.5 10.5 -23.5 16.5s-18.667 10.167 -29 12.5s-21.833 3.5 -34.5 3.5h-90c-1.33301 -25.333 -3 -45 -5 -59l-26 -181h-24l26 183c1.33301 14.667 5 33.667 11 57h-94c-11.333 0 -22.166 -1.33301 -32.499 -4s-19.666 -5.33398 -27.999 -8.00098
s-17.333 -7.83398 -27 -15.501l-23.5 -18.5c-6 -4.66699 -13.667 -13 -23 -25l-21 -27c-4.66699 -6 -12 -16.833 -22 -32.5l-21 -33c-4 -6.33301 -11.5 -19 -22.5 -38l-22.5 -38.5h-27c50.667 86.667 85.334 142 104.001 166c42 53.333 85.333 81.666 130 84.999v1
c-17.333 2 -33.166 8.5 -47.499 19.5s-26.166 22.5 -35.499 34.5s-18.833 29.833 -28.5 53.5s-16.834 42.667 -21.501 57l-20 63.5h24c23.333 -75.333 42 -125 56 -149c28 -46.667 65.333 -70 112 -70h94c-0.666992 15.333 1 35 5 59l23 160h24l-23 -162
c-3.33301 -24.667 -7 -43.667 -11 -57h86c20 0 39.5 4.66699 58.5 14s35 19.5 48 30.5s28.333 28.5 46 52.5s30.5 42.833 38.5 56.5l39 65.5h26c-46.667 -80 -81.334 -133 -104.001 -159c-36.667 -43.333 -73.667 -67 -111 -71z" />
    <glyph glyph-name="uni0437" unicode="&#x437;" horiz-adv-x="484" 
d="M85 458l-3.00195 18.002c41.333 6.66699 88 10 140 10c77.333 0 129.5 -9 156.5 -27s37.167 -51.667 30.5 -101c-5.33301 -34.667 -16.666 -60.834 -33.999 -78.501s-45 -28.167 -83 -31.5l-2 -2c42 -3.33301 71 -15.333 87 -36s21.333 -52 16 -94
c-6.66699 -48 -25.167 -80.333 -55.5 -97s-83.166 -25 -158.499 -25c-69.333 0 -128.333 3.33301 -177 10l5 18c96 -4 153 -6 171 -6c68 0 115 7 141 21s42.333 42.667 49 86c6 43.333 -2.16699 72.833 -24.5 88.5s-65.5 24.167 -129.5 25.5h-95l2 20h94
c59.333 0.666992 101 8 125 22s38.667 40.667 44 80c6 43.333 -2.5 71.666 -25.5 84.999s-70.5 20 -142.5 20c-60 0 -103.667 -2 -131 -6z" />
    <glyph glyph-name="uni0438" unicode="&#x438;" horiz-adv-x="556" 
d="M490 480l-68.002 -480.002h-18l15 126c-92 -92 -172.333 -138 -241 -138c-43.333 0 -74.666 11.333 -93.999 34s-25.666 55.334 -18.999 98.001l51 360h24l-51 -359c-10.667 -73.333 20.333 -110 93 -110c34 0 69.5 11.333 106.5 34s80.833 58.334 131.5 107.001l46 328
h24z" />
    <glyph glyph-name="uni0439" unicode="&#x439;" horiz-adv-x="556" 
d="M445 691h23.001c-5.33301 -36 -21.333 -64.667 -48 -86s-60.334 -32 -101.001 -32c-42.667 0 -75.167 10.833 -97.5 32.5s-30.833 50.167 -25.5 85.5h25c-4.66699 -32 1.83301 -56.667 19.5 -74s43.5 -26 77.5 -26s62.5 8.66699 85.5 26s36.833 42 41.5 74zM490.001 480
l-68.002 -480.002h-18l15 126c-92 -92 -172.333 -138 -241 -138c-43.333 0 -74.666 11.333 -93.999 34s-25.666 55.334 -18.999 98.001l51 360h24l-51 -359c-10.667 -73.333 20.333 -110 93 -110c34 0 69.5 11.333 106.5 34s80.833 58.334 131.5 107.001l46 328h24z" />
    <glyph glyph-name="uni043A" unicode="&#x43a;" horiz-adv-x="513" 
d="M253 251l-3.00098 -1.00586c30.667 -2 57.5 -15.333 80.5 -40s39.333 -48.5 49 -71.5s23.167 -60.833 40.5 -113.5l9 -26l-27 2c-2.66699 7.33301 -7 20.166 -13 38.499s-10.333 30.833 -13 37.5s-6.83398 17.834 -12.501 33.501s-10.334 26.5 -14.001 32.5
s-8.66699 14.833 -15 26.5s-12.166 19.834 -17.499 24.501s-12 10.834 -20 18.501s-16.167 12.834 -24.5 15.501s-17.833 5.33398 -28.5 8.00098s-22 4 -34 4h-102c-0.666992 -18.667 -2.66699 -38.334 -6 -59.001l-26 -181h-24l68 480h24l-23 -162
c-2 -14.667 -5.33301 -33.667 -10 -57h99c25.333 0 48.833 4.83301 70.5 14.5s43.834 27.334 66.501 53.001s38.834 45.334 48.501 59.001s26.834 39.834 51.501 78.501c4.66699 6.66699 8 11.667 10 15l26 -2c-48.667 -78 -84.334 -130 -107.001 -156
c-40.667 -44.667 -81.667 -68.667 -123 -72z" />
    <glyph glyph-name="uni043B" unicode="&#x43b;" horiz-adv-x="536" 
d="M470 480l-67.9971 -480.002h-24l65 459h-150c-24.667 0 -43.834 -5.5 -57.501 -16.5s-23.167 -29.5 -28.5 -55.5c-34 -145.333 -68 -245.333 -102 -300c-30.667 -47.333 -69.667 -78 -117 -92l-3 22c42 17.333 75.667 45.666 101 84.999c6.66699 10 13 21.5 19 34.5
l16.5 37c5 11.667 10 25.5 15 41.5l12.5 40c3.33301 10.667 7.16602 24.334 11.499 41.001s7.33301 28.834 9 36.501l7.5 33.5c3.33301 14.667 5.33301 23.334 6 26.001c7.33301 31.333 19.666 53.833 36.999 67.5s42 20.5 74 20.5h176z" />
    <glyph glyph-name="uni043C" unicode="&#x43c;" horiz-adv-x="715" 
d="M585 480l35.999 0.000976562c4 0 7.33301 -1.33301 10 -4s3.66699 -6 3 -10l-41 -466h-24l41 458h-20l-236 -406c-3.33301 -5.33301 -7.66602 -8 -12.999 -8h-36c-5.33301 0 -9 3.33301 -11 10l-122 404h-20l-89 -458h-24l91 468c1.33301 8 6.33301 12 15 12h37
c6 0 9.66699 -3.33301 11 -10l102 -341c9.33301 -29.333 16 -51.333 20 -66l20 2c5.33301 8.66699 12.333 20.667 21 36s14.667 25.666 18 30.999l198 340c2 5.33301 6.33301 8 13 8z" />
    <glyph glyph-name="uni043D" unicode="&#x43d;" horiz-adv-x="564" 
d="M498 480l-68 -480h-24l35 246h-330l-35 -246h-24l68 480h24l-30 -213h330l30 213h24z" />
    <glyph glyph-name="uni043E" unicode="&#x43e;" 
d="M304 492c78 0 130.333 -19 157 -57s33.334 -103.667 20.001 -197c-13.333 -92 -38 -156.667 -74 -194s-92.333 -56 -169 -56c-78 0 -130.333 19 -157 57s-33.334 103.667 -20.001 197c13.333 92 38 156.667 74 194s92.333 56 169 56zM304 469
c-68.667 0 -119.167 -17 -151.5 -51s-54.5 -94 -66.5 -180c-12 -85.333 -6.83301 -144.5 15.5 -177.5s67.833 -49.5 136.5 -49.5s119.167 17 151.5 51s54.5 94 66.5 180c12 85.333 6.83301 144.5 -15.5 177.5s-67.833 49.5 -136.5 49.5z" />
    <glyph glyph-name="uni043F" unicode="&#x43f;" horiz-adv-x="567" 
d="M138 480l-15.001 -117c102 86 185.667 129 251 129c87.333 0 125 -44 113 -132l-51 -360h-24l51 359c5.33301 38.667 0.5 66.667 -14.5 84s-41.167 26 -78.5 26c-33.333 0 -69.166 -10.333 -107.499 -31s-84.5 -53 -138.5 -97l-48 -341h-24l68 480h18z" />
    <glyph glyph-name="uni0440" unicode="&#x440;" horiz-adv-x="563" 
d="M138 480l-14.002 -120.999c39.333 43.333 81.5 76.333 126.5 99s84.167 34 117.5 34c58.667 0 95.5 -19.5 110.5 -58.5s15.5 -104.167 1.5 -195.5c-15.333 -100.667 -39.166 -167.5 -71.499 -200.5s-91.5 -49.5 -177.5 -49.5c-44 0 -96.667 3.33301 -158 10
c-1.33301 -24.667 -4.66602 -55.334 -9.99902 -92.001l-18 -126h-24l31 220l68 480h18zM121.998 330.001l-43 -313c72.667 -4.66699 122.334 -7 149.001 -7c80.667 0 135.334 14.667 164.001 44s50 92 64 188c13.333 79.333 14.166 137 2.49902 173s-41.834 54 -90.501 54
c-33.333 0 -72.833 -12.333 -118.5 -37s-88.167 -58.667 -127.5 -102z" />
    <glyph glyph-name="uni0441" unicode="&#x441;" horiz-adv-x="475" 
d="M391 23l2.99902 -18.001c-50.667 -11.333 -99.334 -17 -146.001 -17c-80.667 0 -135.167 19.167 -163.5 57.5s-36.166 103.833 -23.499 196.5c12.667 92 38 156.667 76 194s96.667 56 176 56c54.667 0 99.334 -5.66699 134.001 -17l-7 -18c-29.333 8 -70 12 -122 12
c-74 0 -128 -16.5 -162 -49.5s-57.333 -93.167 -70 -180.5c-12 -87.333 -6 -147.166 18 -179.499s72.667 -48.5 146 -48.5c53.333 0 100.333 4 141 12z" />
    <glyph glyph-name="uni0442" unicode="&#x442;" horiz-adv-x="876" 
d="M138 480l-15.0029 -117c46.667 42.667 87.834 74.834 123.501 96.501s69.834 32.5 102.501 32.5c84 0 122 -41.333 114 -124c90 82.667 163.333 124 220 124c87.333 0 125 -44 113 -132l-51 -360h-24l51 359c5.33301 38.667 0.5 66.667 -14.5 84s-41.167 26 -78.5 26
c-30 0 -61.167 -9.83301 -93.5 -29.5s-74.166 -51.834 -125.499 -96.501l-49 -343h-24l51 359c5.33301 38.667 0.5 66.667 -14.5 84s-41.167 26 -78.5 26c-30 0 -61.5 -9.83301 -94.5 -29.5s-75.167 -52.167 -126.5 -97.5l-48 -342h-24l68 480h18z" />
    <glyph glyph-name="uni0443" unicode="&#x443;" horiz-adv-x="510" 
d="M462 480l24.999 -0.00488281c-12.667 -54 -36 -120.5 -70 -199.5s-71 -153.833 -111 -224.5c-28.667 -52.667 -56.167 -97.167 -82.5 -133.5s-49.833 -63.333 -70.5 -81s-41 -31.167 -61 -40.5s-38.5 -13.666 -55.5 -12.999l-52.5 2l5 21c12.667 0 25 -0.666992 37 -2
s26.167 1.33398 42.5 8.00098s33.166 15.834 50.499 27.501s37 30.834 59 57.501s45 59.334 69 98.001h-47c-11.333 -0 -21.166 3.33301 -29.499 10s-13.833 15.667 -16.5 27l-98 443h26l93 -433c4.66699 -18 15.334 -26.333 32.001 -25h53l21 37c40 70 77.667 147 113 231
s58 147.333 68 190z" />
    <glyph glyph-name="uni0444" unicode="&#x444;" horiz-adv-x="693" 
d="M417 700l-29.001 -207.998c95.333 -2 160.666 -22.667 195.999 -62s47 -103.333 35 -192c-13.333 -88.667 -42.666 -152.167 -87.999 -190.5s-116.666 -58.166 -213.999 -59.499l-28 -198h-25l28 198c-96.667 1.33301 -162.667 21.666 -198 60.999
s-47 103.666 -35 192.999c13.333 89.333 42.833 153.166 88.5 191.499s117.5 57.833 215.5 58.5l29 208h25zM383.999 469.002l-63.999 -457.997c88 1.33301 152.833 19.166 194.5 53.499s68.167 93.5 79.5 177.5c12 83.333 2.16699 141.666 -29.5 174.999
s-91.834 50.666 -180.501 51.999zM295 11.0049l64.001 457.997c-88.667 -1.33301 -153.834 -19.166 -195.501 -53.499s-68.167 -93.5 -79.5 -177.5c-12 -83.333 -2 -141.666 30 -174.999s92.333 -50.666 181 -51.999z" />
    <glyph glyph-name="uni0445" unicode="&#x445;" horiz-adv-x="501" 
d="M279 250l147 -250h-27l-141 240h-27l-206 -240h-32l218 251l-136 229h27l129 -218h29l191 218h30z" />
    <glyph glyph-name="uni0446" unicode="&#x446;" horiz-adv-x="570" 
d="M496 21l-3.00098 -21.002l-23 -149h-23l28 149h-10c-42 0 -60.333 22.333 -55 67l5 43c-90.667 -81.333 -169.667 -122 -237 -122c-43.333 0 -74.666 11.333 -93.999 34s-25.666 55.334 -18.999 98.001l51 360h24l-51 -359c-10.667 -73.333 20.333 -110 93 -110
c34 0 69.167 10.167 105.5 30.5s80.166 52.5 131.499 96.5l47 342h24l-58 -414c-2.66699 -17.333 -0.666992 -29.166 6 -35.499s17 -9.5 31 -9.5h27z" />
    <glyph glyph-name="uni0447" unicode="&#x447;" horiz-adv-x="516" 
d="M450 480l-68 -480.002h-24l36 257c-86.667 -50 -163 -75 -229 -75c-78 0 -112.333 34.333 -103 103l28 195h24l-27 -193c-4 -29.333 0.5 -50.166 13.5 -62.499s36.167 -18.5 69.5 -18.5c38 0 73.5 5.83301 106.5 17.5s73.5 30.834 121.5 57.501l28 199h24z" />
    <glyph glyph-name="uni0448" unicode="&#x448;" horiz-adv-x="860" 
d="M794 480l-67.999 -480.003h-18l14 113c-87.333 -83.333 -163 -125 -227 -125c-37.333 0 -64.833 10.333 -82.5 31s-24.834 50.334 -21.501 89.001c-86 -80 -160.333 -120 -223 -120c-39.333 0 -67.833 11.333 -85.5 34s-23.5 55.334 -17.5 98.001l51 360h24l-51 -359
c-10.667 -73.333 17 -110 83 -110c32 0 64.667 9.83301 98 29.5s74.666 51.834 123.999 96.501l49 343h24l-51 -359c-10.667 -73.333 17 -110 83 -110c32.667 0 65.834 10 99.501 30s75.167 52.333 124.5 97l47 342h24z" />
    <glyph glyph-name="uni0449" unicode="&#x449;" horiz-adv-x="873" 
d="M799 21l-2.99805 -21.0029l-24 -149h-23l29 149h-10c-42 0 -60.333 22.333 -55 67l5 41c-86 -80 -160.333 -120 -223 -120c-37.333 0 -64.833 10.333 -82.5 31s-24.834 50.334 -21.501 89.001c-86 -80 -160.333 -120 -223 -120c-39.333 0 -67.833 11.333 -85.5 34
s-23.5 55.334 -17.5 98.001l51 360h24l-51 -359c-10.667 -73.333 17 -110 83 -110c32 0 64.667 9.83301 98 29.5s74.666 51.834 123.999 96.501l49 343h24l-51 -359c-10.667 -73.333 17 -110 83 -110c32.667 0 65.834 10 99.501 30s75.167 52.333 124.5 97l47 342h24
l-59 -414c-2.66699 -18 -0.833984 -30 5.49902 -36s16.833 -9 31.5 -9h27z" />
    <glyph glyph-name="uni044A" unicode="&#x44a;" horiz-adv-x="618" 
d="M310 480l-72 -251.001c37.333 29.333 85.333 44 144 44c68.667 0 114.167 -10.667 136.5 -32s29.833 -58.666 22.5 -111.999c-7.33301 -54 -25.5 -91 -54.5 -111s-73.5 -30 -133.5 -30c-24 0 -46.167 2.16699 -66.5 6.5s-40 11.5 -59 21.5s-32.167 25.333 -39.5 46
s-7.33301 45.667 0 75l93 321h-233l3 22h259zM231 203.999l-20.001 -69c-6.66699 -26 -6.66699 -47.833 0 -65.5s18.334 -30.5 35.001 -38.5s33 -13.5 49 -16.5s33.333 -4.5 52 -4.5c58 0 99 8.5 123 25.5s39.333 49.833 46 98.5c6 45.333 0 76.333 -18 93
s-56.667 25 -116 25c-62 0 -112.333 -16 -151 -48z" />
    <glyph glyph-name="uni044B" unicode="&#x44b;" horiz-adv-x="665" 
d="M142 480l-39 -257c40.667 33.333 94 50 160 50c68 0 113.5 -10.667 136.5 -32s30.833 -58.666 23.5 -111.999c-8 -54.667 -25.5 -91.834 -52.5 -111.501s-72.167 -29.5 -135.5 -29.5c-25.333 0 -47.5 1.5 -66.5 4.5s-38 8.33301 -57 16s-32.833 20 -41.5 37
s-11 37.833 -7 62.5l55 372h24zM599 480l-68 -480h-25l68 480h25zM100 201l-14.002 -94.999c-3.33301 -20.667 -1.16602 -37.834 6.50098 -51.501s19.834 -23.5 36.501 -29.5s32.5 -10 47.5 -12s32.5 -3 52.5 -3c58 0 99 8.5 123 25.5s39.333 49.833 46 98.5
c6 45.333 -0.166992 76.333 -18.5 93s-57.5 25 -117.5 25c-66.667 0 -120.667 -17 -162 -51z" />
    <glyph glyph-name="uni044C" unicode="&#x44c;" horiz-adv-x="499" 
d="M142 480l-39 -257c40.667 33.333 94 50 160 50c68 0 113.5 -10.667 136.5 -32s30.833 -58.666 23.5 -111.999c-8 -54.667 -25.5 -91.834 -52.5 -111.501s-72.167 -29.5 -135.5 -29.5c-25.333 0 -47.5 1.5 -66.5 4.5s-38 8.33301 -57 16s-32.833 20 -41.5 37
s-11 37.833 -7 62.5l55 372h24zM100 201l-14.002 -94.999c-3.33301 -20.667 -1.16602 -37.834 6.50098 -51.501s19.834 -23.5 36.501 -29.5s32.5 -10 47.5 -12s32.5 -3 52.5 -3c58 0 99 8.5 123 25.5s39.333 49.833 46 98.5c6 45.333 -0.166992 76.333 -18.5 93
s-57.5 25 -117.5 25c-66.667 0 -120.667 -17 -162 -51z" />
    <glyph glyph-name="uni044D" unicode="&#x44d;" horiz-adv-x="480" 
d="M80 453l-3.99902 19c39.333 8 87.333 12 144 12c80 0 133.5 -18.333 160.5 -55s34.5 -101 22.5 -193c-12.667 -92.667 -37.167 -156.5 -73.5 -191.5s-94.5 -52.5 -174.5 -52.5c-58.667 0 -108.334 4.33301 -149.001 13l6 19c42 -6 89.333 -9 142 -9
c72 0 124.667 15.833 158 47.5s55.333 89.5 66 173.5h-254l3 20h254c8 77.333 0.333008 130.833 -23 160.5s-69 44.5 -137 44.5c-52 0 -99 -2.66699 -141 -8z" />
    <glyph glyph-name="uni044E" unicode="&#x44e;" horiz-adv-x="764" 
d="M113 259l155.998 -0.000976562c13.333 86.667 37.833 147.167 73.5 181.5s91.167 51.5 166.5 51.5c78.667 0 131.334 -18.667 158.001 -56s33.667 -102.666 21 -195.999c-12.667 -92 -37.5 -156.333 -74.5 -193s-94.5 -55 -172.5 -55c-76.667 0 -128.167 18 -154.5 54
s-33.166 100 -20.499 192h-156l-34 -238h-24l68 480h24zM662.998 243.999c12 85.333 6 144.333 -18 177s-69.667 49 -137 49s-117.166 -16.333 -149.499 -49s-54.5 -93 -66.5 -181c-12 -85.333 -7.33301 -144.333 14 -177s65.666 -49 132.999 -49
c71.333 0 123.5 17.167 156.5 51.5s55.5 93.833 67.5 178.5z" />
    <glyph glyph-name="uni044F" unicode="&#x44f;" horiz-adv-x="523" 
d="M456 476l-66.998 -476h-24l27 195h-170c-34.667 0 -62.834 -4.66699 -84.501 -14s-36.834 -26.333 -45.501 -51l-47 -130h-27l52 140c14 38 46.667 60 98 66l1 3c-30.667 3.33301 -53.334 18.833 -68.001 46.5s-19.667 58.5 -15 92.5c8 54.667 26.667 90.667 56 108
s81.333 26 156 26c56.667 0 109.334 -2 158.001 -6zM395.002 216l34 242c-40 1.33301 -85 2 -135 2c-64.667 0 -109.834 -7.16699 -135.501 -21.5s-41.5 -45.833 -47.5 -94.5c-3.33301 -13.333 -3.66602 -27.5 -0.999023 -42.5s7.16699 -28.833 13.5 -41.5
s18 -23.167 35 -31.5s38.167 -12.5 63.5 -12.5h173z" />
    <glyph glyph-name="uni0451" unicode="&#x451;" horiz-adv-x="526" 
d="M236 596h-7.00098c-7.33301 0 -10.666 4 -9.99902 12l8 54c0.666992 8 4.66699 12 12 12h9c6.66699 0 9.66699 -4 9 -12l-8 -53c-0.666992 -8.66699 -5 -13 -13 -13zM412.999 596h-7.00098c-7.33301 0 -10.666 4 -9.99902 12l8 54c1.33301 8 5.33301 12 12 12h9
c7.33301 0 10.333 -4 9 -12l-8 -53c-0.666992 -8.66699 -5 -13 -13 -13zM419.998 24l3.00098 -18.001c-44.667 -12 -107.667 -18 -189 -18c-78.667 0 -130.5 19.167 -155.5 57.5s-30.5 104.5 -16.5 198.5c8 51.333 18.333 93.333 31 126s29.667 57.834 51 75.501
s44.666 29.834 69.999 36.501s57.333 10 96 10c64 0 110.167 -10.5 138.5 -31.5s35.833 -59.833 22.5 -116.5c-9.33301 -38.667 -25.5 -65.834 -48.5 -81.501s-59.833 -26.167 -110.5 -31.5l-231 -25c-8.66699 -76 -1 -127.667 23 -155s70.667 -41 140 -41
c52 0 110.667 4.66699 176 14zM83.999 226.999l229 26.001c44.667 5.33301 76 14.166 94 26.499s31.333 34.5 40 66.5c3.33301 18 5.5 33.667 6.5 47s-1.5 24.5 -7.5 33.5s-12.5 16.333 -19.5 22s-16.833 10.167 -29.5 13.5s-25 5.5 -37 6.5s-26.333 1.5 -43 1.5
c-38.667 0 -69.5 -2.5 -92.5 -7.5s-44.333 -15.667 -64 -32s-35 -39.5 -46 -69.5s-20.5 -70 -28.5 -120z" />
    </font>
</defs>
</svg>
