<?xml version="1.0" standalone="no"?>
<!DOCTYPE svg PUBLIC "-//W3C//DTD SVG 1.1//EN" "http://www.w3.org/Graphics/SVG/1.1/DTD/svg11.dtd" >
<svg>
<metadata>
Created by FontForge 20090914 at Thu Nov 12 09:19:34 2015
 By www-data
Copyright &#194;&#169; 2013, Natanael Gama (www.ndiscovered.com . info(at)ndiscovered.com), with Reserved Font Name Exo. This Font Software is licensed under the SIL Open Font License, Version 1.1.
</metadata>
<defs>
<font id="Exo2-MediumItalic" horiz-adv-x="574" >
  <font-face 
    font-family="Exo 2 Medium"
    font-weight="500"
    font-style="italic"
    font-stretch="normal"
    units-per-em="1000"
    panose-1="0 0 6 0 0 0 0 0 0 0"
    ascent="800"
    descent="-200"
    x-height="488"
    cap-height="690"
    bbox="-217 -280 1218.39 939"
    underline-thickness="50"
    underline-position="-50"
    slope="-8"
    unicode-range="U+0020-U+FB02"
  />
<missing-glyph horiz-adv-x="600" 
 />
    <glyph glyph-name=".notdef" horiz-adv-x="600" 
 />
    <glyph glyph-name="space" unicode=" " horiz-adv-x="222" 
 />
    <glyph glyph-name="exclam" unicode="!" horiz-adv-x="275" 
d="M199 396l-34 -183h-77l16 183l42 299h96zM99 124h24.999c25.333 0 36 -12.333 32 -37l-7 -53c-2 -22.667 -14.333 -34 -37 -34h-25c-25.333 -0 -36.666 12.333 -33.999 37l9 54c2 22 14.333 33 37 33z" />
    <glyph glyph-name="quotedbl" unicode="&#x22;" horiz-adv-x="356" 
d="M162 474h-66l25 216h78zM310 474h-67l25 216h78z" />
    <glyph glyph-name="numbersign" unicode="#" horiz-adv-x="686" 
d="M545 444l-54 -173h110l-21 -61h-109l-66 -210h-76l66 210h-175l-66 -210h-76l66 210h-116l20 61h116l54 173h-116l21 61h114l58 185h76l-58 -185h175l58 185h76l-58 -185h112l-21 -61h-110zM469 444h-175l-54 -173h175z" />
    <glyph glyph-name="dollar" unicode="$" horiz-adv-x="565" 
d="M542 680l-11.002 -72c-64 2.66699 -113.667 4 -149 4l-50 -226l53 -19c50.667 -18 84.167 -41.833 100.5 -71.5s20.833 -71.167 13.5 -124.5c-10 -74 -33.667 -123 -71 -147s-100 -36 -188 -36h-2l-26 -113h-46l26 114c-62 2.66699 -117.333 9 -166 19l13 74
c37.333 -1.33301 74 -2.5 110 -3.5s56.667 -1.5 62 -1.5l51 232l-63 22c-47.333 17.333 -79.5 41.5 -96.5 72.5s-22.167 71.833 -15.5 122.5c5.33301 38 14.333 69 27 93s30.334 41.833 53.001 53.5s46.334 19.5 71.001 23.5s56.667 6 96 6h21l21 96h46l-21 -98
c52 -3.33301 99 -10 141 -20zM335.998 613l-1.99902 0.000976562c-22.667 0 -39.167 -0.166992 -49.5 -0.5s-22.5 -2 -36.5 -5s-24 -7.83301 -30 -14.5s-12 -16.334 -18 -29.001s-10.333 -28.667 -13 -48c-4 -32.667 -1.83301 -55 6.5 -67s28.166 -23.667 59.499 -35l37 -13
zM304.999 294.001l-47.999 -217c50.667 1.33301 85.667 8.5 105 21.5s31.666 40.5 36.999 82.5c4 32.667 1.66699 55.167 -7 67.5s-28 23.833 -58 34.5z" />
    <glyph glyph-name="percent" unicode="%" horiz-adv-x="897" 
d="M255 703c62 0 103.501 -16 124.501 -48s26.167 -85.667 15.5 -161c-10.667 -74 -29.667 -126 -57 -156s-70.333 -45 -129 -45c-60.667 0 -101.334 16 -122.001 48s-26 85.667 -16 161c10.667 74 29.5 126 56.5 156s69.5 45 127.5 45zM223.001 0h-75l538 690h75z
M258.001 643c-38 0 -64.5 -10.499 -79.5 -31.499s-26.5 -60.167 -34.5 -117.5c-7.33301 -54 -6.83301 -91 1.5 -111s28.5 -30 60.5 -30c39.333 0 66.5 10.5 81.5 31.5s26.5 60.167 34.5 117.5c8 53.333 7.66699 90.166 -1 110.499s-29.667 30.5 -63 30.5zM700.001 399.001
c62 0 103.501 -16 124.501 -48s26.167 -85.333 15.5 -160c-10.667 -74 -29.667 -126 -57 -156s-70.333 -45 -129 -45c-60.667 0 -101.334 16 -122.001 48s-25.667 85.333 -15 160c10 74 28.5 126 55.5 156s69.5 45 127.5 45zM703.002 339.001
c-38 0 -64.501 -10.499 -79.501 -31.499s-26.5 -59.833 -34.5 -116.5c-7.33301 -54 -6.66602 -91.167 2.00098 -111.5s29 -30.5 61 -30.5c38.667 0 65.5 10.5 80.5 31.5s26.5 60.167 34.5 117.5c8 53.333 7.66699 90.166 -1 110.499s-29.667 30.5 -63 30.5z" />
    <glyph glyph-name="ampersand" unicode="&#x26;" horiz-adv-x="747" 
d="M712 319l-101.004 -0.000976562c-10 -72 -30 -132 -60 -180c-62 -99.333 -166.333 -149.333 -313 -150c-77.333 -0.666992 -131.333 13.833 -162 43.5s-42 78.5 -34 146.5c13.333 112 68.666 171 165.999 177l1 5c-80 6 -111.667 60.667 -95 164
c12 70.667 38.333 117.667 79 141s102.334 35 185.001 35c56.667 0 114 -7.33301 172 -22l-17 -74c-39.333 8.66699 -89.666 13 -150.999 13c-59.333 0 -100.666 -7.16699 -123.999 -21.5s-38.666 -45.166 -45.999 -92.499c-6.66699 -42.667 -2.16699 -71.5 13.5 -86.5
s47.834 -22.5 96.501 -22.5h209c1.33301 26 2 67.667 2 125h88c0.666992 -40 0 -81.667 -2 -125h104zM522.996 318.999h-210.998c-53.333 0 -92 -9.16699 -116 -27.5s-40 -52.5 -48 -102.5c-6.66699 -43.333 -2.83398 -73 11.499 -89s44.166 -24 89.499 -24
c100 0 173.667 33.333 221 100c26 36 43.667 83.667 53 143z" />
    <glyph glyph-name="quotesingle" unicode="'" horiz-adv-x="209" 
d="M162 474h-66l25 216h78z" />
    <glyph glyph-name="parenleft" unicode="(" horiz-adv-x="357" 
d="M384 791l11 -47.001c-69.333 -31.333 -124 -82.166 -164 -152.499s-68 -164.5 -84 -282.5c-16 -112 -14.5 -203.5 4.5 -274.5s58.167 -122.833 117.5 -155.5l-13 -43c-171.333 67.333 -239 227.333 -203 480c18 129.333 53.667 232.333 107 309s128 132 224 166z" />
    <glyph glyph-name="parenright" unicode=")" horiz-adv-x="357" 
d="M94 746l12.999 43c87.333 -34 147.833 -90.333 181.5 -169s41.167 -182.667 22.5 -312c-18.667 -128.667 -54.5 -231.334 -107.5 -308.001s-127.833 -132 -224.5 -166l-11 47c133.333 64 216.333 209.333 249 436c16 114 14.333 206.333 -5 277
s-58.666 121.334 -117.999 152.001z" />
    <glyph glyph-name="asterisk" unicode="*" horiz-adv-x="448" 
d="M276 529l85 -129l-48 -34l-59 124l-93 -123l-44 34l120 128l14 162h58zM224 557l-4 -25l-14 -16l-122 34l23 53zM434 545l-127 -29l-9 16v25l125 46z" />
    <glyph glyph-name="plus" unicode="+" horiz-adv-x="547" 
d="M490 263h-184l-24 -174h-74l25 174h-185l11 72h183l25 175h74l-25 -175h184z" />
    <glyph glyph-name="comma" unicode="," horiz-adv-x="231" 
d="M80 124l28 0.000976562c24.667 0 35 -12.333 31 -37l-9 -64c-5.33301 -46.667 -25 -99.667 -59 -159l-47 16c16.667 52 27.667 92.667 33 122c-10 -0.666992 -17.667 1.83301 -23 7.5s-7.33301 13.5 -6 23.5l8 58c2.66699 13.333 7 22.166 13 26.499s16.333 6.5 31 6.5z
" />
    <glyph glyph-name="hyphen" unicode="-" horiz-adv-x="440" 
d="M361 216h-303l10 74h303z" />
    <glyph glyph-name="period" unicode="." horiz-adv-x="229" 
d="M73 124h32.001c24.667 0 35.667 -12.333 33 -37l-7 -53c-2.66699 -22.667 -15.334 -34 -38.001 -34h-32c-26 -0 -37 12.333 -33 37l8 54c2.66699 22 15 33 37 33z" />
    <glyph glyph-name="slash" unicode="/" horiz-adv-x="529" 
d="M59 -67h-82l499 757h82z" />
    <glyph glyph-name="zero" unicode="0" horiz-adv-x="605" 
d="M354 703c89.333 0 149 -28.665 179 -85.998s36 -149.333 18 -276c-17.333 -126.667 -47.833 -217.334 -91.5 -272.001s-108.5 -82 -194.5 -82c-88.667 0 -148.167 28.333 -178.5 85s-36.5 149 -18.5 277c18 127.333 48.5 218.166 91.5 272.499s107.833 81.5 194.5 81.5z
M352 616.002c-56 0 -97.832 -20.498 -125.499 -61.498s-48.167 -112.167 -61.5 -213.5c-14.667 -98.667 -14.834 -167.834 -0.500977 -207.501s47.833 -59.5 100.5 -59.5c56 0 98 20.5 126 61.5s49.333 112.167 64 213.5c14 99.333 13.667 168.666 -1 207.999
s-48.667 59 -102 59z" />
    <glyph glyph-name="one" unicode="1" horiz-adv-x="399" 
d="M250 0h-100l74 535c4 27.333 8.33301 48.333 13 63l-172 -53l-2 75l183 70h101z" />
    <glyph glyph-name="two" unicode="2" horiz-adv-x="558" 
d="M109 599l0.000976562 78.001c76.667 16.667 148 25 214 25c70 0 122.167 -11 156.5 -33s48.166 -62.667 41.499 -122c-5.33301 -42 -19 -80.833 -41 -116.5s-59 -78.5 -111 -128.5l-217 -209c29.333 2.66699 64.333 4 105 4h225l-13 -97h-457l9 65c3.33301 20 9 34 17 42
l224 216c51.333 48.667 89.833 90.667 115.5 126s39.834 68.666 42.501 99.999c3.33301 27.333 -3.33398 45 -20.001 53s-45.667 12 -87 12c-62 0 -130 -5 -204 -15z" />
    <glyph glyph-name="three" unicode="3" horiz-adv-x="551" 
d="M116 607l-1.00195 77.999c74 12 139 18 195 18c76 0 129.167 -13.5 159.5 -40.5s42.833 -68.167 37.5 -123.5c-2.66699 -26.667 -8.16699 -52 -16.5 -76s-21.666 -45.833 -39.999 -65.5s-40.166 -30.834 -65.499 -33.501l-2 -4c80 -13.333 112.333 -70.666 97 -171.999
c-20 -128 -108.333 -195 -265 -201c-58 -2 -125.667 4 -203 18l13 78l65.5 -4.5c34.333 -2.33301 54.333 -3.5 60 -3.5s25.167 0.333008 58.5 1c100.667 7.33301 158 51 172 131c6 36 0.833008 64.167 -15.5 84.5s-48.166 30.833 -95.499 31.5l-129 3l10 75h125
c47.333 0.666992 80.666 11.834 99.999 33.501s31 51.167 35 88.5s-1.66699 62 -17 74s-51 18 -107 18c-47.333 0 -104.333 -2.66699 -171 -8z" />
    <glyph glyph-name="four" unicode="4" horiz-adv-x="614" 
d="M557 174l-91 -10l-23 -164h-95l23 164h-257c-36 0 -61.333 13.167 -76 39.5s-13 53.833 5 82.5l245 404h100l-243 -407c-15.333 -25.333 -10.333 -38 15 -38h222l28 200l34 112h77l-44 -312h90z" />
    <glyph glyph-name="five" unicode="5" horiz-adv-x="535" 
d="M502 604l-285.997 0.00292969l-34 -172l74 -7c78.667 -6.66699 136 -26.334 172 -59.001s50 -84 42 -154c-3.33301 -26.667 -9.5 -51.5 -18.5 -74.5s-22.5 -45.833 -40.5 -68.5s-43.333 -41.167 -76 -55.5s-71.334 -22.833 -116.001 -25.5
c-66 -3.33301 -134.333 5 -205 25l17 81c59.333 -14.667 114.666 -20.334 165.999 -17.001c106 6 164.667 53.667 176 143c6 44.667 -3.16699 75.5 -27.5 92.5s-71.5 27.5 -141.5 31.5l-75 7c-12.667 0.666992 -22.834 5.66699 -30.501 15s-10.167 20.666 -7.5 33.999
l56 290h372z" />
    <glyph glyph-name="six" unicode="6" horiz-adv-x="571" 
d="M528 686l-12.001 -72c-30.667 2 -75 3 -133 3c-67.333 0 -114.666 -15.167 -141.999 -45.5s-50 -94.833 -68 -193.5c51.333 49.333 110.333 74 177 74c62 0.666992 107.167 -16.333 135.5 -51s36.5 -93.667 24.5 -177c-12 -80.667 -36.667 -140.167 -74 -178.5
s-98.333 -57.5 -183 -57.5c-63.333 0 -110.166 12 -140.499 36s-48.333 62.167 -54 114.5s-2.16699 119.833 10.5 202.5c8.66699 62.667 19.667 115.5 33 158.5s28 77.833 44 104.5s36.167 47.167 60.5 61.5s49.333 24 75 29s57.5 7.5 95.5 7.5
c43.333 0 93.666 -5.33301 150.999 -16zM414.999 230c8 53.333 6.33203 90.332 -5.00098 110.999s-40 30.667 -86 30c-52 0 -107 -27.667 -165 -83c-12 -84 -11.667 -140.667 1 -170s45.667 -44 99 -44c52.667 0 89.834 12.333 111.501 37s36.5 64.334 44.5 119.001z" />
    <glyph glyph-name="seven" unicode="7" horiz-adv-x="512" 
d="M89 690l394.001 -0.000976562c21.333 0 35.666 -6.16699 42.999 -18.5s6.33301 -28.166 -3 -47.499l-301 -624h-100l268 554c9.33301 20 19.333 37 30 51h-339z" />
    <glyph glyph-name="eight" unicode="8" horiz-adv-x="605" 
d="M186 359l1.00098 4.00293c-62.667 7.33301 -87.667 60.333 -75 159c9.33301 64.667 30.833 110.667 64.5 138s92.5 41 176.5 41c86.667 -0.666992 144.167 -15.334 172.5 -44.001s37.833 -76.334 28.5 -143.001c-13.333 -96 -53.333 -147.667 -120 -155l-1 -4
c75.333 -8 104.666 -70.333 87.999 -187c-8.66699 -64.667 -30.834 -110.5 -66.501 -137.5s-99.167 -40.833 -190.5 -41.5c-84.667 -0.666992 -144.167 14.166 -178.5 44.499s-47.166 77.833 -38.499 142.5c8 56 22.5 99.5 43.5 130.5s52.833 48.5 95.5 52.5z
M345.001 620.003c-54 0 -90.166 -7.83301 -108.499 -23.5s-30.5 -46.167 -36.5 -91.5c-6 -44 -1.33301 -72.833 14 -86.5s51 -20.5 107 -20.5c52 0 87.167 7.66699 105.5 23s30.166 45.666 35.499 90.999c6.66699 42.667 2.66699 71.334 -12 86.001s-49.667 22 -105 22z
M304.002 318.003c-58 -0.666992 -97.3301 -8.83301 -117.997 -24.5s-34.667 -50.167 -42 -103.5c-6 -45.333 -0.666992 -75.833 16 -91.5s55 -23.5 115 -23.5c55.333 0 93.666 8.83301 114.999 26.5s34.666 49.834 39.999 96.501
c7.33301 49.333 3.16602 81.666 -12.501 96.999s-53.5 23 -113.5 23z" />
    <glyph glyph-name="nine" unicode="9" horiz-adv-x="570" 
d="M45 4l14.001 73.001c44 -3.33301 91 -4.33301 141 -3c68.667 2 116.834 19.167 144.501 51.5s50.5 95.833 68.5 190.5c-26.667 -28.667 -53 -48.834 -79 -60.501s-56 -17.5 -90 -17.5c-36.667 0 -67.167 5.66699 -91.5 17s-42.166 27.333 -53.499 48s-19 45 -23 73
s-3.66699 58 1 90c10 85.333 35.667 146 77 182s101.333 54 180 54c89.333 0 147.166 -25.333 173.499 -76s29.166 -143 8.49902 -277c-11.333 -75.333 -25 -136.333 -41 -183s-36.833 -83.167 -62.5 -109.5s-54.334 -44.333 -86.001 -54s-72.167 -14.5 -121.5 -14.5
c-54.667 0 -108 5.33301 -160 16zM264.001 318.001c29.333 0 55.8311 6.16699 79.498 18.5s51.834 34.5 84.501 66.5c13.333 82.667 13.333 139 0 169s-47 45 -101 45c-52.667 0 -90.167 -11.833 -112.5 -35.5s-37.166 -64.167 -44.499 -121.5
c-6 -51.333 -2.33301 -88 11 -110s41 -32.667 83 -32z" />
    <glyph glyph-name="colon" unicode=":" horiz-adv-x="241" 
d="M117 442h31.998c25.333 0 36 -12.333 32 -37l-7 -53c-2.66699 -22.667 -15 -34 -37 -34h-32c-25.333 0 -36.666 12.333 -33.999 37l8 54c2.66699 22 15.334 33 38.001 33zM71.998 124h32c24.667 0 35.667 -12.333 33 -37l-8 -53c-2 -22.667 -14.333 -34 -37 -34h-32
c-26 -0 -37 12.333 -33 37l8 54c2.66699 22 15 33 37 33z" />
    <glyph glyph-name="semicolon" unicode=";" horiz-adv-x="245" 
d="M124 442h32c24.667 0 35.667 -12.333 33 -37l-8 -53c-2 -22.667 -14.333 -34 -37 -34h-32c-26 0 -37 12.333 -33 37l8 54c2 22 14.333 33 37 33zM87 124l28.998 0.000976562c24.667 0 35 -12.333 31 -37l-9 -64c-5.33301 -46.667 -25 -99.667 -59 -159l-48 16
c18 57.333 29.333 98 34 122c-10 -0.666992 -17.667 1.83301 -23 7.5s-7.33301 13.5 -6 23.5l8 58c2.66699 13.333 6.83398 22.166 12.501 26.499s15.834 6.5 30.501 6.5z" />
    <glyph glyph-name="less" unicode="&#x3c;" horiz-adv-x="524" 
d="M477 427l-345 -131l307 -133l-11 -74l-384 171l11 76l432 171z" />
    <glyph glyph-name="equal" unicode="=" horiz-adv-x="585" 
d="M523 363h-442l10 72h442zM494 152h-442l10 72h442z" />
    <glyph glyph-name="greater" unicode="&#x3e;" horiz-adv-x="525" 
d="M482 336l-11 -76l-433 -170l11 81l344 132l-306 132l10 74z" />
    <glyph glyph-name="question" unicode="?" horiz-adv-x="500" 
d="M86 621l-0.00585938 70c4.66699 0.666992 15.334 2.5 32.001 5.5s27.334 4.83301 32.001 5.5l29 4c14.667 2 27 3.16699 37 3.5s23.167 0.833008 39.5 1.5s34.166 1 53.499 1c66.667 0 116.334 -13.333 149.001 -40s45.334 -66.334 38.001 -119.001
c-3.33301 -27.333 -12.666 -52.5 -27.999 -75.5s-32.833 -43.167 -52.5 -60.5l-60 -53.5c-20.333 -18.333 -38.666 -40.5 -54.999 -66.5s-27.5 -54.667 -33.5 -86h-82c4 33.333 13.333 64.333 28 93s31.334 52.834 50.001 72.501s37.167 38.167 55.5 55.5
s34.5 35.333 48.5 54s22.333 37.667 25 57c4.66699 34 -0.833008 57 -16.5 69s-45.167 18 -88.5 18c-66 0 -133 -3 -201 -9zM198.994 124h24.999c25.333 0 36 -12.333 32 -37l-7 -53c-2.66699 -22.667 -15 -34 -37 -34h-25c-25.333 -0 -36.666 12.333 -33.999 37l9 54
c2 22 14.333 33 37 33z" />
    <glyph glyph-name="at" unicode="@" horiz-adv-x="778" 
d="M108 567l7.99512 72c101.333 4.66699 207 7.66699 317 9c47.333 0.666992 86 -0.333008 116 -3s57.333 -8.33398 82 -17.001s43.167 -20.334 55.5 -35.001s21.833 -34.834 28.5 -60.501s9.5 -55.5 8.5 -89.5s-5.16699 -76 -12.5 -126c-10.667 -88 -24.5 -155 -41.5 -201
s-39.167 -78.167 -66.5 -96.5s-64.666 -27.5 -111.999 -27.5c-72 0 -111.333 32.667 -118 98c-54.667 -68 -118.334 -102 -191.001 -102c-56.667 0 -95.667 18.833 -117 56.5s-25 99.5 -11 185.5c8 48 18.5 87 31.5 117s30 52.667 51 68s42.833 25.5 65.5 30.5
s52 7.5 88 7.5c55.333 0 130.333 -8.66699 225 -26l-47 -307c-4 -30.667 6.33301 -46 31 -46c36.667 0 62.834 17.5 78.501 52.5s29.834 101.167 42.501 198.5l8.5 64.5c2.33301 17.667 3.66602 34.834 3.99902 51.501s0.333008 30.334 0 41.001
s-2.66602 20.834 -6.99902 30.501s-8.16602 17.167 -11.499 22.5s-10.166 10.333 -20.499 15s-19.166 8 -26.499 10s-19.5 3.66699 -36.5 5s-32 2 -45 2h-55.5h-322zM379.995 177l32 196.001c-58.667 1.33301 -88.334 2 -89.001 2c-34.667 0 -61.167 -1.5 -79.5 -4.5
s-34.333 -10.5 -48 -22.5s-23.5 -27 -29.5 -45s-12 -44.667 -18 -80c-10 -62.667 -11.167 -103.834 -3.5 -123.501s27.167 -29.5 58.5 -29.5c30 0 58.333 8.33301 85 25s57.334 44 92.001 82z" />
    <glyph glyph-name="A" unicode="A" horiz-adv-x="623" 
d="M442 208h-276l-92 -208h-106l310 665c6.66699 16.667 19.667 25 39 25h102c8.66699 0 16.167 -2.83301 22.5 -8.5s9.83301 -12.5 10.5 -20.5l125 -661h-100zM428 296l-42.999 259c-2.66699 13.333 -5.33398 33.333 -8.00098 60h-30l-26 -60l-116 -259h223z" />
    <glyph glyph-name="B" unicode="B" horiz-adv-x="620" 
d="M42 0l97 690c54 5.33301 129.333 8 226 8c84.667 0 143.334 -13.333 176.001 -40s44 -74.667 34 -144c-7.33301 -50 -21.666 -87.333 -42.999 -112s-53 -39 -95 -43l-1 -5c92 -7.33301 129.333 -69.333 112 -186c-10.667 -69.333 -33.334 -116 -68.001 -140
s-92 -36 -172 -36c-116.667 0 -205.334 2.66699 -266.001 8zM196 396h138c48 0 82.5 8 103.5 24s34.833 46 41.5 90c6 42 0.666992 69.667 -16 83s-51 20 -103 20h-134zM151 78l142 -1c54.667 0 93 7.83301 115 23.5s36.333 46.5 43 92.5
c6.66699 49.333 1.5 82.5 -15.5 99.5s-52.5 25.833 -106.5 26.5h-144z" />
    <glyph glyph-name="C" unicode="C" horiz-adv-x="568" 
d="M494 88l4.99902 -77c-55.333 -15.333 -124 -23 -206 -23c-99.333 0 -166.666 28.5 -201.999 85.5s-43.666 148.833 -24.999 275.5c18 130.667 50.333 222.167 97 274.5s120 78.5 220 78.5c71.333 0 135 -7 191 -21l-16 -76c-52.667 5.33301 -111.667 8 -177 8
c-44.667 0 -79.834 -7.33301 -105.501 -22s-47.167 -41.667 -64.5 -81s-31 -95.666 -41 -168.999c-14.667 -100 -13 -168.833 5 -206.5s58 -56.834 120 -57.501c74.667 -0.666992 141 3 199 11z" />
    <glyph glyph-name="D" unicode="D" horiz-adv-x="663" 
d="M42 0l97.0029 690c81.333 6 156.333 9 225 9c109.333 0 182.666 -26.333 219.999 -79s46.666 -145.667 27.999 -279c-7.33301 -51.333 -15.833 -95.333 -25.5 -132s-21.667 -68 -36 -94s-29.833 -47 -46.5 -63s-37.334 -28.667 -62.001 -38s-50 -15.5 -76 -18.5
s-57.667 -4.5 -95 -4.5c-64 0 -140.333 3 -229 9zM228.003 611l-75.001 -531c57.333 -1.33301 96.333 -2 117 -2c54 0 95.333 6.66699 124 20s52 39 70 77s32.667 96 44 174c6.66699 45.333 10.334 82.833 11.001 112.5s-1.5 54.834 -6.5 75.501s-14.167 36.167 -27.5 46.5
s-29.5 17.666 -48.5 21.999s-43.833 6.5 -74.5 6.5c-8 0 -28 -0.166992 -60 -0.5s-56.667 -0.5 -74 -0.5z" />
    <glyph glyph-name="E" unicode="E" horiz-adv-x="560" 
d="M551 606h-272.002c-21.333 0 -37.166 -4.83301 -47.499 -14.5s-16.833 -26.5 -19.5 -50.5l-19 -140h291l-10 -77h-292l-24 -178c-2.66699 -22.667 -0.166992 -38.667 7.5 -48s22.5 -14 44.5 -14h267l-2 -78c-57.333 -5.33301 -149.666 -8 -276.999 -8
c-53.333 0 -91.833 12.833 -115.5 38.5s-32.5 61.167 -26.5 106.5l59 427c5.33301 38.667 21 68.667 47 90s61 32 105 32c138 0 237 -2.66699 297 -8z" />
    <glyph glyph-name="F" unicode="F" horiz-adv-x="539" 
d="M544 606h-253c-25.333 0 -43.333 -4.5 -54 -13.5s-17.667 -26.167 -21 -51.5l-22 -152h283l-11 -77h-282l-44 -312h-100l78 565c13.333 84.667 64.333 127 153 127c134 0 230 -3 288 -9z" />
    <glyph glyph-name="G" unicode="G" horiz-adv-x="624" 
d="M595 681l-14.998 -74.999c-56 5.33301 -113 8 -171 8c-41.333 0 -74.5 -3.33301 -99.5 -10s-47.333 -20.167 -67 -40.5s-34.834 -48 -45.501 -83s-19.667 -81.5 -27 -139.5c-11.333 -98.667 -9.83301 -167.667 4.5 -207s45.5 -59 93.5 -59c32 0 61 7.66699 87 23
s57 40.666 93 75.999l32 226h96l-56 -400h-72v93c-60 -70.667 -131.667 -106 -215 -106c-70 0 -118.833 29 -146.5 87s-34.834 149.667 -21.501 275c9.33301 72 22.833 131.5 40.5 178.5s41 83.167 70 108.5s60.833 42.833 95.5 52.5s76.667 14.5 126 14.5
c75.333 0 141.333 -7.33301 198 -22z" />
    <glyph glyph-name="H" unicode="H" horiz-adv-x="668" 
d="M641 690l-97 -690h-100l46 324h-302l-45 -324h-101l97 690h101l-40 -279h302l39 279h100z" />
    <glyph glyph-name="I" unicode="I" horiz-adv-x="267" 
d="M143 0h-101l97 690h101z" />
    <glyph glyph-name="J" unicode="J" horiz-adv-x="342" 
d="M318 690l-76.001 -541c-7.33301 -52 -24.166 -91.5 -50.499 -118.5s-60.5 -40.167 -102.5 -39.5c-40.667 0 -73.667 4.66699 -99 14l19 71h46c50.667 0 79.667 24 87 72l75 542h101z" />
    <glyph glyph-name="K" unicode="K" horiz-adv-x="599" 
d="M344 360l-1.00195 -4.00098c12.667 -16 24.334 -34.333 35.001 -55l165 -301h-113l-172 319h-78c0 -27.333 -1.33301 -51.666 -4 -72.999l-34 -246h-100l97 690h100l-31 -213c-2.66699 -25.333 -7.66699 -51 -15 -77h74l239 290h121l-234 -284
c-15.333 -18.667 -31.666 -34 -48.999 -46z" />
    <glyph glyph-name="L" unicode="L" horiz-adv-x="511" 
d="M237 690l-76.002 -544c-5.33301 -41.333 12 -62 52 -62h246l-2 -78c-57.333 -5.33301 -145.666 -8 -264.999 -8c-46.667 0 -81.667 12.833 -105 38.5s-31.666 63.167 -24.999 112.5l74 541h101z" />
    <glyph glyph-name="M" unicode="M" horiz-adv-x="880" 
d="M685 690l108.998 -0.000976562c13.333 0 23.333 -3.83301 30 -11.5s9.33398 -18.167 8.00098 -31.5l-63 -647h-99l63 607h-19l-209 -493c-8.66699 -21.333 -24 -32 -46 -32h-87c-23.333 0 -36.666 12 -39.999 36l-77 489h-20l-106 -607h-100l118 651
c4 26 18.667 39 44 39h107c21.333 0 33.666 -12 36.999 -36l65 -404c2.66699 -15.333 6.33398 -46.666 11.001 -93.999h18l21.5 53c9 22 14.167 35 15.5 39l173 409c8.66699 21.333 24 32.333 46 33z" />
    <glyph glyph-name="N" unicode="N" horiz-adv-x="706" 
d="M679 690l-92 -653c-4 -24.667 -17.333 -37 -40 -37h-87c-18.667 0 -31.667 11 -39 33l-161 470c-12.667 36 -21.667 67.333 -27 94h-15c-0.666992 -28 -3.33398 -59.333 -8.00098 -94l-68 -503h-100l91 653c4 24.667 18 37 42 37h85c18 0 31.333 -11 40 -33l155 -457
c20.667 -66 31.334 -100.667 32.001 -104h17c2 38 5.33301 72.667 10 104l66 490h99z" />
    <glyph glyph-name="O" unicode="O" horiz-adv-x="667" 
d="M387 703c98 0 165.334 -27.5 202.001 -82.5s45.667 -148.167 27 -279.5c-18 -132.667 -50.5 -224.834 -97.5 -276.501s-120.167 -77.5 -219.5 -77.5c-98 0 -165.833 27.167 -203.5 81.5s-47.5 147.833 -29.5 280.5c17.333 130.667 49.666 222.334 96.999 275.001
s122 79 224 79zM382.001 614c-66.667 0 -114.833 -19.168 -144.5 -57.501s-52.167 -110.166 -67.5 -215.499c-14 -101.333 -11.833 -170.833 6.5 -208.5s59.833 -56.5 124.5 -56.5c65.333 0 113.166 19.5 143.499 58.5s52.833 110.5 67.5 214.5
c14.667 103.333 12.834 173.333 -5.49902 210s-59.833 55 -124.5 55z" />
    <glyph glyph-name="P" unicode="P" horiz-adv-x="590" 
d="M42 0l96.999 690.002c57.333 6 136.333 9 237 9c82 0 138.5 -17 169.5 -51s40.833 -91 29.5 -171c-6.66699 -45.333 -15.667 -81.833 -27 -109.5s-27.166 -49.334 -47.499 -65.001s-43.833 -26.334 -70.5 -32.001s-61 -8.5 -103 -8.5c-40.667 0 -89.667 3.33301 -147 10
l-38 -272h-100zM190.999 348.002h131.999c52.667 0 89.334 9.33301 110.001 28s35 55 43 109c7.33301 50.667 3.33301 84.667 -12 102s-46 26 -92 26c-70 0 -118 -0.333008 -144 -1z" />
    <glyph glyph-name="Q" unicode="Q" horiz-adv-x="667" 
d="M387 703c98 0 165.334 -27.5 202.001 -82.5s45.667 -148.167 27 -279.5c-18 -132.667 -50.5 -224.834 -97.5 -276.501s-120.167 -77.5 -219.5 -77.5c-98 0 -165.833 27.167 -203.5 81.5s-47.5 147.833 -29.5 280.5c17.333 130.667 49.666 222.334 96.999 275.001
s122 79 224 79zM382.001 614c-66.667 0 -114.833 -19.168 -144.5 -57.501s-52.167 -110.166 -67.5 -215.499c-14 -101.333 -11.833 -170.833 6.5 -208.5s59.833 -56.5 124.5 -56.5c65.333 0 113.166 19.5 143.499 58.5s52.833 110.5 67.5 214.5
c14.667 103.333 12.834 173.333 -5.49902 210s-59.833 55 -124.5 55zM203.002 -102.001l38 60c76 -35.333 164.667 -61 266 -77l-40 -99c-96 23.333 -184 62 -264 116z" />
    <glyph glyph-name="R" unicode="R" horiz-adv-x="621" 
d="M42 0l97 689.999c57.333 6 136.333 9 237 9c76 0 131.5 -15.167 166.5 -45.5s47.5 -83.166 37.5 -158.499c-7.33301 -52.667 -23 -93 -47 -121s-59.667 -45 -107 -51l-1 -6c40 -11.333 65 -45 75 -101l44 -216h-102l-41 217c-4.66699 24.667 -12.667 42 -24 52
s-28 15 -50 15l-147 1l-40 -285h-98zM192 369.999h138c48.667 0.666992 84 10 106 28s36.333 51 43 99c6.66699 44.667 2.5 75.167 -12.5 91.5s-46.167 24.5 -93.5 24.5c-72 0 -121 -0.333008 -147 -1z" />
    <glyph glyph-name="S" unicode="S" horiz-adv-x="562" 
d="M332 283l-134.999 48.001c-47.333 17.333 -79.666 41.666 -96.999 72.999s-22.333 72 -15 122c5.33301 38 14.333 69 27 93s30.167 41.833 52.5 53.5s46 19.5 71 23.5s57.167 6 96.5 6c80 0 149 -7.33301 207 -22l-11 -72c-68.667 3.33301 -134 5 -196 5
c-22.667 0 -39.167 -0.166992 -49.5 -0.5s-22.5 -2 -36.5 -5s-24.167 -7.83301 -30.5 -14.5s-12.333 -16.334 -18 -29.001s-9.83398 -28.667 -12.501 -48c-4 -32.667 -1.83301 -55 6.5 -67s28.166 -23.667 59.499 -35l132 -47c50.667 -18 84.167 -41.833 100.5 -71.5
s20.833 -71.167 13.5 -124.5c-10 -73.333 -33.833 -122.166 -71.5 -146.499s-100.5 -36.5 -188.5 -36.5c-72.667 0 -143.667 6.66699 -213 20l13 74c104 -3.33301 170.333 -5 199 -5c58.667 0.666992 98.667 7.16699 120 19.5s35 40.5 41 84.5
c4 32.667 1.66699 55.167 -7 67.5s-28 23.833 -58 34.5z" />
    <glyph glyph-name="T" unicode="T" horiz-adv-x="576" 
d="M600 601h-219l-85 -601h-100l85 601h-218l13 89h536z" />
    <glyph glyph-name="U" unicode="U" horiz-adv-x="664" 
d="M642 690l-61.001 -426c-14 -100.667 -42.667 -172 -86 -214s-108.666 -63 -195.999 -63c-90 0 -153.333 22 -190 66s-48 116 -34 216l58 421h101l-60 -426c-10 -70.667 -6.16699 -119.667 11.5 -147s54.5 -41 110.5 -41c58 0 101 14.333 129 43s47 78.667 57 150l59 421
h101z" />
    <glyph glyph-name="V" unicode="V" horiz-adv-x="609" 
d="M650 690l-300 -664.001c-7.33301 -17.333 -20 -26 -38 -26h-97c-8.66699 0 -16 3 -22 9s-9.66699 13 -11 21l-115 660h101l81 -539c6 -48.667 9 -74 9 -76h26c9.33301 28.667 19.333 55.334 30 80.001l230 535h106z" />
    <glyph glyph-name="W" unicode="W" horiz-adv-x="946" 
d="M973 690l-226 -663c-7.33301 -18 -21 -27 -41 -27h-109c-9.33301 0 -17.333 3 -24 9s-10.334 13.667 -11.001 23l-31 507l-3 38.5c-1.33301 17 -2 29.833 -2 38.5h-21l-25 -81l-170 -507c-6 -18.667 -19.333 -28 -40 -28h-108c-10 0 -18.5 3 -25.5 9
s-10.833 13.333 -11.5 22l-42 659h102l24 -528c0.666992 -9.33301 1.16699 -23.833 1.5 -43.5s0.5 -34.5 0.5 -44.5h23c2.66699 9.33301 12.334 40 29.001 92l166 493c6.66699 20.667 20.334 31 41.001 31h105c9.33301 0 17.166 -3.33301 23.499 -10s9.83301 -15 10.5 -25
l36 -494c2.66699 -38.667 3.66699 -67.667 3 -87h24l27 90l169 526h105z" />
    <glyph glyph-name="X" unicode="X" horiz-adv-x="613" 
d="M411 357l140 -357h-102l-121 320h-25l-208 -320h-116l242 357l-129 333h102l109 -294h26l197 294h110z" />
    <glyph glyph-name="Y" unicode="Y" horiz-adv-x="571" 
d="M325 238l-33 -238h-101l35 243l-163 447h101l99 -285c9.33301 -29.333 15.333 -56 18 -80h9c8.66699 27.333 22 55 40 83l178 282h109z" />
    <glyph glyph-name="Z" unicode="Z" horiz-adv-x="564" 
d="M569 690l-13 -85l-429 -520h364l-12 -85h-474l12 85l429 520h-351l13 85h461z" />
    <glyph glyph-name="bracketleft" unicode="[" horiz-adv-x="328" 
d="M348 705l-94 0.000976562c-4.66699 0 -9 -1.83301 -13 -5.5s-6.66699 -7.83398 -8 -12.501l-109 -775c-1.33301 -9.33301 2.33398 -14 11.001 -14h100l-9 -63h-144c-17.333 0 -31 5 -41 15s-13.667 25 -11 45l115 817c2.66699 17.333 9.66699 31 21 41
s25.666 15 42.999 15h148z" />
    <glyph glyph-name="backslash" unicode="\" horiz-adv-x="513" 
d="M441 -67h-74l-289 757h74z" />
    <glyph glyph-name="bracketright" unicode="]" horiz-adv-x="328" 
d="M104 768h143.006c17.333 0 31.166 -5.83301 41.499 -17.5s14.166 -25.834 11.499 -42.501l-115 -817c-2.66699 -17.333 -9.83398 -31 -21.501 -41s-25.834 -15 -42.501 -15h-148l9 63h93c4.66699 0 9.16699 1.83301 13.5 5.5s7.16602 7.83398 8.49902 12.501l109 775
c1.33301 9.33301 -2.33398 14 -11.001 14h-100z" />
    <glyph glyph-name="asciicircum" unicode="^" horiz-adv-x="432" 
d="M424 392l-41 -23l-116 172h-8l-171 -172l-37 23l180 213h71z" />
    <glyph glyph-name="underscore" unicode="_" horiz-adv-x="577" 
d="M457 -73h-439l11 73h439z" />
    <glyph glyph-name="grave" unicode="`" horiz-adv-x="321" 
d="M301 579l-34 -44l-195 122l52 69z" />
    <glyph glyph-name="a" unicode="a" 
d="M460 0l-75.998 -0.000976562l4 90c-58.667 -68 -128.667 -102 -210 -102c-59.333 0 -99.333 19.333 -120 58s-24.334 106.667 -11.001 204c7.33301 54 17.666 98.167 30.999 132.5s31 59.833 53 76.5s44.667 27.834 68 33.501s53.333 8.5 90 8.5
c79.333 0 159 -8.66699 239 -26zM387.002 175.999l34.999 242c-61.333 1.33301 -95.666 2 -102.999 2c-34.667 0 -61 -1.66699 -79 -5s-33.833 -11.833 -47.5 -25.5s-23.667 -31.167 -30 -52.5s-12.5 -52.666 -18.5 -93.999c-9.33301 -72.667 -10.5 -119.334 -3.5 -140.001
s26.167 -31 57.5 -31c30.667 0 60.667 8.5 90 25.5s62.333 43.167 99 78.5z" />
    <glyph glyph-name="b" unicode="b" horiz-adv-x="575" 
d="M225 700l-27.0049 -202c-6 -44 -14.667 -81.333 -26 -112c32 32 67.167 59 105.5 81s73.833 33 106.5 33c38.667 0 68.334 -7.16699 89.001 -21.5s35.334 -41 44.001 -80s7.33398 -92.5 -3.99902 -160.5c-7.33301 -54.667 -17.666 -99.167 -30.999 -133.5
s-30.666 -59.833 -51.999 -76.5s-43 -27.667 -65 -33s-50.333 -8 -85 -8c-81.333 0 -163.333 12 -246 36l95 677h96zM169.995 310l-33 -240.001c48 -2 83.667 -3 107 -3c63.333 0 105 10.167 125 30.5s35.333 69.5 46 147.5c9.33301 72.667 10.333 119.334 3 140.001
s-26.333 31 -57 31c-47.333 0 -111 -35.333 -191 -106z" />
    <glyph glyph-name="c" unicode="c" horiz-adv-x="486" 
d="M410 80l7.00586 -66c-50 -17.333 -107.333 -26 -172 -26c-86 0 -144.333 20 -175 60s-39.334 106.667 -26.001 200c12.667 93.333 38.667 158.833 78 196.5s101 56.5 185 56.5c65.333 0 118.666 -8.66699 159.999 -26l-15 -60c-40 2.66699 -83.333 4 -130 4
c-58.667 0 -100.834 -11.833 -126.501 -35.5s-42.834 -71.167 -51.501 -142.5s-4.83398 -117.833 11.499 -139.5s52.166 -32.5 107.499 -32.5c56.667 0 105.667 3.66699 147 11z" />
    <glyph glyph-name="d" unicode="d" 
d="M558 700l-98.001 -700.001h-76l5 102c-69.333 -76 -143 -114 -221 -114c-51.333 0 -87.666 19.833 -108.999 59.5s-25.333 107.167 -12 202.5c8 54 18.5 98.167 31.5 132.5s30 59.833 51 76.5s42.5 27.834 64.5 33.501s50 8.5 84 8.5c50 0 103 -4.33301 159 -13
c0 22.667 2.33301 53.667 7 93l17 119h97zM387.999 177.999l32.999 240.998c-30 1.33301 -65 2 -105 2c-33.333 0 -58.833 -1.66699 -76.5 -5s-33.334 -11.666 -47.001 -24.999s-23.5 -31 -29.5 -53s-12 -53.667 -18 -95
c-9.33301 -69.333 -10.666 -115.166 -3.99902 -137.499s25 -33.5 55 -33.5s59.333 8.16699 88 24.5s63.334 43.5 104.001 81.5z" />
    <glyph glyph-name="e" unicode="e" horiz-adv-x="539" 
d="M443 81l6 -65c-47.333 -18.667 -114.333 -28 -201 -28c-83.333 0 -141 21.833 -173 65.5s-42 111.5 -30 203.5c12.667 94 38.5 158.167 77.5 192.5s103.167 51.5 192.5 51.5c76 0 127.667 -13.333 155 -40s37.333 -66 30 -118c-8 -47.333 -26.667 -81.5 -56 -102.5
s-74.333 -33.833 -135 -38.5l-169 -15c-0.666992 -46 9 -77.167 29 -93.5s51.333 -24.5 94 -24.5c45.333 0 105.333 4 180 12zM146 259l163 15.001c30.667 2 53 8.5 67 19.5s23 30.167 27 57.5c4 31.333 -1.16699 50.666 -15.5 57.999s-43.5 11 -87.5 11
c-50.667 0 -86.5 -10.5 -107.5 -31.5s-36.5 -64.167 -46.5 -129.5z" />
    <glyph glyph-name="f" unicode="f" horiz-adv-x="382" 
d="M440 638h-95.998c-31.333 0 -53.833 -5.16699 -67.5 -15.5s-22.834 -31.166 -27.501 -62.499l-11 -72h151l-10 -75h-151l-66 -469c-13.333 -95.333 -66.333 -143 -159 -143c-36 0 -76.333 2.66699 -121 8l15 72h75c31.333 0 53.666 5.16699 66.999 15.5
s22.333 31.166 27 62.499l64 454h-87l9 70l89 5l12 87c13.333 94.667 66.666 142 159.999 142c64.667 0 112.334 -2.33301 143.001 -7z" />
    <glyph glyph-name="g" unicode="g" horiz-adv-x="576" 
d="M530 475l-66.0029 -463.003c-17.333 -145.333 -113.666 -219 -288.999 -221c-68 0 -122 6.33301 -162 19l10 64c52.667 -1.33301 104.334 -1.66602 155.001 -0.999023c110 1.33301 172.667 41 188 119c11.333 56.667 25.333 97.334 42 122.001
c-27.333 -37.333 -61.166 -67.666 -101.499 -90.999s-84.166 -35 -131.499 -35c-54.667 0 -93 19.333 -115 58s-26 106.667 -12 204c8 54.667 18.667 99.167 32 133.5s30.666 59.833 51.999 76.5s42.833 27.667 64.5 33s49.5 8 83.5 8c85.333 0 168 -8.66699 248 -26h2z
M388.997 175.997l34.999 241.998c-61.333 1.33301 -96.666 2 -105.999 2c-63.333 0 -105.166 -10.167 -125.499 -30.5s-35.833 -69.166 -46.5 -146.499c-9.33301 -71.333 -10.5 -117.666 -3.5 -138.999s25.833 -32 56.5 -32c31.333 0 61.666 8.33301 90.999 25
s62.333 43 99 79z" />
    <glyph glyph-name="h" unicode="h" horiz-adv-x="580" 
d="M227 700l-24.998 -192c-6.66699 -44.667 -14.667 -84.667 -24 -120c85.333 75.333 160.666 113 225.999 113c41.333 0 72.666 -11.833 93.999 -35.5s28.666 -57.5 21.999 -101.5l-52 -364h-96l47 340c4 30.667 2.83301 51.5 -3.5 62.5s-20.166 16.5 -41.499 16.5
c-27.333 0 -55.833 -8.33301 -85.5 -25s-68.5 -44 -116.5 -82l-43 -312h-97l99 700h96z" />
    <glyph glyph-name="i" unicode="i" horiz-adv-x="251" 
d="M157 696l45.999 -0.000976562c9.33301 0 16.333 -2.66699 21 -8s6.33398 -12.666 5.00098 -21.999l-7 -56c-2.66699 -18 -12.667 -27 -30 -27h-46c-20 0 -29 10.333 -27 31l9 56c1.33301 17.333 11 26 29 26zM132.999 -0.000976562h-96l68 488h96z" />
    <glyph glyph-name="j" unicode="j" horiz-adv-x="251" 
d="M157 696l45.999 -0.000976562c9.33301 0 16.333 -2.66699 21 -8s6.33398 -12.666 5.00098 -21.999l-7 -56c-2.66699 -18 -12.667 -27 -30 -27h-46c-20 0 -29 10.333 -27 31l9 56c1.33301 17.333 11 26 29 26zM200.999 487.999l-69.999 -496.001
c-4.66699 -40 -17.834 -77.167 -39.501 -111.5s-49.167 -62.166 -82.5 -83.499l-53 45c44.667 45.333 71 97 79 155l70 491h96z" />
    <glyph glyph-name="k" unicode="k" horiz-adv-x="527" 
d="M406 488l99.002 -0.00195312c-28 -87.333 -82 -159.666 -162 -216.999c10 -15.333 20 -34.666 30 -57.999l95 -213h-104l-94 225c-30 -16 -68.667 -34.667 -116 -56l-25 -169h-96l98 700h97l-44 -328c-6 -40 -16.667 -80 -32 -120
c63.333 30 118.166 65.167 164.499 105.5s76.166 83.833 89.499 130.5z" />
    <glyph glyph-name="l" unicode="l" horiz-adv-x="298" 
d="M228 700l-78.998 -561c-3.33301 -22 -1 -37.5 7 -46.5s23.333 -13.5 46 -13.5h46l4 -76c-18 -8 -49 -12 -93 -12c-38.667 0 -67.834 11.333 -87.501 34s-26.834 54.667 -21.501 96l82 579h96z" />
    <glyph glyph-name="m" unicode="m" horiz-adv-x="872" 
d="M175 488l-4.99902 -104c77.333 78 147.666 117 210.999 117c37.333 0 66 -9.66699 86 -29s29.667 -46.333 29 -81c38 38.667 73 66.667 105 84s64.333 26 97 26c42.667 0 73.834 -12.167 93.501 -36.5s26.5 -57.833 20.5 -100.5l-51 -364h-97l48 340
c4 29.333 1.66699 49.833 -7 61.5s-23.667 17.5 -45 17.5c-23.333 0 -46.833 -7.5 -70.5 -22.5s-57.834 -43.833 -102.501 -86.5l-44 -310h-93l47 340c4 28 2.33301 48.167 -5 60.5s-23 18.5 -47 18.5s-47.667 -7.33301 -71 -22s-57.333 -42.667 -102 -84l-44 -313h-96
l69 488h74z" />
    <glyph glyph-name="n" unicode="n" horiz-adv-x="580" 
d="M178 488l-4.99902 -105c88 78.667 165 118 231 118c41.333 0 72.666 -11.833 93.999 -35.5s28.666 -57.5 21.999 -101.5l-52 -364h-96l47 340c4 30.667 2.83301 51.5 -3.5 62.5s-20.166 16.5 -41.499 16.5c-27.333 0 -55.833 -8.33301 -85.5 -25s-68.5 -44 -116.5 -82
l-43 -312h-97l69 488h77z" />
    <glyph glyph-name="o" unicode="o" horiz-adv-x="566" 
d="M307 501c84 0 141.997 -20.168 173.997 -60.501s41.333 -107.166 28 -200.499c-12.667 -92 -39 -157.167 -79 -195.5s-101 -57.5 -183 -57.5c-83.333 0 -141.166 20.167 -173.499 60.5s-42.166 106.833 -29.499 199.5c12.667 92 38.834 157.333 78.501 196
s101.167 58 184.5 58zM306.997 418.999c-51.333 0 -88.832 -12.333 -112.499 -37s-40.5 -72 -50.5 -142c-9.33301 -67.333 -6.83301 -112.833 7.5 -136.5s46.166 -35.5 95.499 -35.5c52 0 89.667 12.833 113 38.5s39.666 72.5 48.999 140.5
c10 67.333 7.83301 112.833 -6.5 136.5s-46.166 35.5 -95.499 35.5z" />
    <glyph glyph-name="p" unicode="p" horiz-adv-x="577" 
d="M178 488l-5.00098 -104c31.333 32 66.666 59.333 105.999 82s75.333 34 108 34c58.667 0 98 -18.667 118 -56s23.333 -106 10 -206c-7.33301 -54.667 -17.666 -99 -30.999 -133s-30.666 -59.5 -51.999 -76.5s-43.333 -28.167 -66 -33.5s-51.667 -8 -87 -8
c-46 0 -97.333 4.33301 -154 13c0 -30 -2.33301 -61 -7 -93l-17 -107h-97l98 688h76zM173.999 310l-33.999 -242c31.333 -0.666992 65.666 -1 102.999 -1c34.667 0 61 1.66699 79 5s33.833 11.666 47.5 24.999s23.5 31 29.5 53s12 53.667 18 95
c9.33301 72.667 10.5 119.334 3.5 140.001s-25.5 31 -55.5 31c-22 0 -50.333 -9.33301 -85 -28s-70 -44.667 -106 -78z" />
    <glyph glyph-name="q" unicode="q" horiz-adv-x="571" 
d="M525 465l-95.998 -665.001h-96l28 187c6 42 16 80.667 30 116c-70 -76.667 -144 -115 -222 -115c-51.333 0 -87.833 19.5 -109.5 58.5s-25.834 106.833 -12.501 203.5c7.33301 54 17.666 98.167 30.999 132.5s30.333 59.833 51 76.5s42 27.834 64 33.501
s49.333 8.5 82 8.5c86.667 0 170 -12 250 -36zM388.002 177.999l32.999 240c-46 2 -82 3 -108 3s-46.833 -1.33301 -62.5 -4s-30 -7.16699 -43 -13.5s-23 -16.5 -30 -30.5s-13 -31 -18 -51s-9.83301 -46.333 -14.5 -79c-9.33301 -70 -10.666 -116 -3.99902 -138
s25.667 -33 57 -33c30 0 58.667 8 86 24s62 43.333 104 82z" />
    <glyph glyph-name="r" unicode="r" horiz-adv-x="401" 
d="M416 501l-23.999 -91h-27c-25.333 0 -51.333 -7.5 -78 -22.5s-65 -40.5 -115 -76.5l-43 -311h-97l69 488h74l-5 -112c81.333 83.333 154.666 125 219.999 125h26z" />
    <glyph glyph-name="s" unicode="s" horiz-adv-x="508" 
d="M283 182l-130.997 60.0049c-36.667 17.333 -62.667 36.833 -78 58.5s-20.666 49.5 -15.999 83.5c5.33301 44.667 24.333 75.667 57 93s82.334 25.333 149.001 24c75.333 -1.33301 145 -7 209 -17l-12 -69c-84.667 2.66699 -149.334 4.33398 -194.001 5.00098
c-44 0 -73.5 -2.33301 -88.5 -7s-23.833 -16.667 -26.5 -36c-2 -16.667 1.16699 -29 9.5 -37s24.5 -17.333 48.5 -28l132 -60c40 -18.667 67.333 -37.834 82 -57.501s19.667 -47.5 15 -83.5c-2.66699 -22 -8.33398 -40.5 -17.001 -55.5s-18.834 -26.833 -30.501 -35.5
s-27.667 -15.334 -48 -20.001s-40.333 -7.66699 -60 -9s-44.834 -2 -75.501 -2c-32 0 -57.167 0.5 -75.5 1.5s-38.666 3 -60.999 6s-39.833 5.16699 -52.5 6.5l11 72c37.333 -3.33301 88.333 -5 153 -5c61.333 0 102.666 3.33301 123.999 10s33.666 20 36.999 40
c0.666992 3.33301 1 6.66602 1 9.99902s-0.166992 6.16602 -0.5 8.49902s-1.33301 4.66602 -3 6.99902s-3 4.33301 -4 6s-2.83301 3.5 -5.5 5.5s-5 3.66699 -7 5s-5 3 -9 5s-7.16699 3.5 -9.5 4.5s-6 2.66699 -11 5s-9.16699 4.16602 -12.5 5.49902z" />
    <glyph glyph-name="t" unicode="t" horiz-adv-x="385" 
d="M225 413l-39.001 -274.001c-3.33301 -23.333 -1.16602 -39.166 6.50098 -47.499s23.167 -12.5 46.5 -12.5h73l4 -75c-29.333 -8.66699 -67.333 -13 -114 -13c-43.333 0 -74.5 12 -93.5 36s-25.5 58.333 -19.5 103l40 283h-89l9 70l91 5l21 143h95l-20 -143h150l-10 -75
h-151z" />
    <glyph glyph-name="u" unicode="u" horiz-adv-x="569" 
d="M523 488l-68 -487.999h-75l6 102c-79.333 -76.667 -153.333 -115 -222 -115c-44 0 -76 12.167 -96 36.5s-27 57.5 -21 99.5l51 365h97l-49 -340c-4 -28.667 -2 -48.834 6 -60.501s23.333 -17.5 46 -17.5c27.333 0 54 8 80 24s61.667 44 107 84l42 310h96z" />
    <glyph glyph-name="v" unicode="v" horiz-adv-x="536" 
d="M423 488l100.002 -0.000976562c-18 -94 -47 -187.333 -87 -280c-28 -65.333 -55 -115.666 -81 -150.999c-14 -20 -28.333 -34.5 -43 -43.5s-35 -13.5 -61 -13.5h-83c-18 0 -28.667 8.66699 -32 26l-94 462h101l71 -412h15c13.333 0 24 2 32 6s16.333 12 25 24
c19.333 25.333 42.666 72.333 69.999 141c29.333 70.667 51.666 151 66.999 241z" />
    <glyph glyph-name="w" unicode="w" horiz-adv-x="857" 
d="M208 76l14.002 0.000976562c19.333 0 35.666 12.667 48.999 38c15.333 28.667 31.666 73 48.999 133c15.333 56 29.666 128.333 42.999 217c2 16 11 24 27 24h106c14 0 22 -7.33301 24 -22l45 -390h12c14 0 27.667 10.667 41 32c26.667 41.333 49 87.666 67 138.999
c25.333 69.333 44.666 149.666 57.999 240.999h101c-21.333 -101.333 -49.666 -194.666 -84.999 -279.999c-30.667 -72 -58.334 -123.667 -83.001 -155c-26.667 -35.333 -57.334 -53 -92.001 -53h-64c-8 0 -14.667 2.5 -20 7.5s-8.66602 11.167 -9.99902 18.5l-42 399h-13
c-5.33301 -60 -17.666 -127.333 -36.999 -202c-18 -60 -38.333 -110.667 -61 -152c-26 -47.333 -65.667 -71 -119 -71h-55c-17.333 0 -27.666 8.66699 -30.999 26l-90 462h101z" />
    <glyph glyph-name="x" unicode="x" horiz-adv-x="531" 
d="M347 252l123 -252h-97l-102 216h-22l-163 -216h-108l196 253l-114 235h97l90 -197h27l149 197h105z" />
    <glyph glyph-name="y" unicode="y" horiz-adv-x="545" 
d="M430 488h101c-36 -158.667 -83 -293 -141 -403c-52 -98.667 -103.5 -168.667 -154.5 -210s-111.833 -68 -182.5 -80l-18 69c42.667 10 80 25 112 45s62.667 50.333 92 91h-45c-15.333 0 -28.333 4.16699 -39 12.5s-17.334 19.833 -20.001 34.5l-94 441h102l74 -395
c2 -11.333 8.66699 -17 20 -17h49c2.66699 4.66699 6.33398 11.5 11.001 20.5l9 17.5c58.667 122 100 246.667 124 374z" />
    <glyph glyph-name="z" unicode="z" horiz-adv-x="508" 
d="M475 409l-348 -330h305l-11 -79h-415l10 79l348 330h-297l11 79h407z" />
    <glyph glyph-name="braceleft" unicode="{" horiz-adv-x="322" 
d="M345 768l-3 -60.998c-33.333 0 -57.666 -6.33301 -72.999 -19s-25.333 -34 -30 -64l-24 -173c-5.33301 -42.667 -15.166 -72.334 -29.499 -89.001s-40.5 -28.334 -78.5 -35.001c34.667 -11.333 57.5 -25.666 68.5 -42.999s13.833 -43.666 8.5 -78.999l-32 -231
c-4.66699 -30 -1.83398 -50.5 8.49902 -61.5s32.166 -16.5 65.499 -16.5l-4 -61c-61.333 -4.66699 -105.5 4.83301 -132.5 28.5s-36.833 59.5 -29.5 107.5l35 253c3.33301 23.333 1.66602 38.666 -5.00098 45.999s-22.667 15.666 -48 24.999l9 68
c20 5.33301 33.333 9.66602 40 12.999s12.834 9.83301 18.501 19.5s9.83398 24.834 12.501 45.501l27 195c6.66699 49.333 25.167 85 55.5 107s77.166 30.333 140.499 25z" />
    <glyph glyph-name="bar" unicode="|" horiz-adv-x="247" 
d="M93 -169h-69l133 950h70z" />
    <glyph glyph-name="braceright" unicode="}" horiz-adv-x="323" 
d="M102 707l3.00195 60.999c62.667 6 107.167 -3.5 133.5 -28.5s36.166 -60.833 29.499 -107.5l-27 -196c-4 -28.667 -3.5 -46.334 1.5 -53.001s20.833 -14 47.5 -22l-9 -68c-15.333 -5.33301 -25.666 -9.16602 -30.999 -11.499s-11.833 -6.16602 -19.5 -11.499
s-13 -12 -16 -20s-5.5 -18.333 -7.5 -31l-36 -252c-6.66699 -49.333 -24.834 -85 -54.501 -107s-76.834 -30.333 -141.501 -25l4 61c33.333 0 57.5 6.16699 72.5 18.5s24.5 33.5 28.5 63.5l33 231c5.33301 36 15.333 62 30 78s42 30 82 42c-34 6.66699 -56.5 19 -67.5 37
s-13.167 47.667 -6.5 89l25 173c4 30 1 50.667 -9 62s-31.667 17 -65 17z" />
    <glyph glyph-name="asciitilde" unicode="~" horiz-adv-x="520" 
d="M113 223l-50.001 4c0.666992 42 9.5 73.5 26.5 94.5s38.167 30.833 63.5 29.5s60.833 -10.666 106.5 -27.999s75.834 -27 90.501 -29c18 -2 31 1.33301 39 10s13.667 23.334 17 44.001l48 -4c0 -40.667 -8.33301 -71.5 -25 -92.5s-37.667 -30.5 -63 -28.5
c-29.333 1.33301 -66.5 10.666 -111.5 27.999s-73.833 26.666 -86.5 27.999c-18 2 -31 -1.33301 -39 -10s-13.333 -24 -16 -46z" />
    <glyph glyph-name="uni00A0" unicode="&#xa0;" horiz-adv-x="222" 
 />
    <glyph glyph-name="exclamdown" unicode="&#xa1;" horiz-adv-x="260" 
d="M145 496h25.001c25.333 0 35.666 -12.667 30.999 -38l-7 -53c-2.66699 -22.667 -15 -34 -37 -34h-25c-24.667 0 -35.667 12.333 -33 37l7 54c4 22.667 17 34 39 34zM151.001 100l-41 -294h-96l41 294l36 183h76z" />
    <glyph glyph-name="cent" unicode="&#xa2;" horiz-adv-x="505" 
d="M481 578l-13.998 -59.998c-32 2.66699 -67.333 4 -106 4l-79 -350c61.333 2 108.666 5.66699 141.999 11l7 -66c-50 -17.333 -106.667 -26 -170 -26l-21 -91h-46l22 93c-68.667 6 -115.167 29.167 -139.5 69.5s-30.5 103.166 -18.5 188.499
c13.333 93.333 39.666 158.833 78.999 196.5s100.666 56.5 183.999 56.5h14l21 86h46l-22 -89c42.667 -4.66699 76.334 -12.334 101.001 -23.001zM236.002 174.002l78 348c-49.333 -2 -85.5 -15.333 -108.5 -40s-38.5 -70.667 -46.5 -138c-8 -62 -6.33301 -104.833 5 -128.5
s35.333 -37.5 72 -41.5z" />
    <glyph glyph-name="sterling" unicode="&#xa3;" horiz-adv-x="570" 
d="M553 692l-11.9971 -79.998c-50 2 -107.333 3 -172 3c-40 0 -68.833 -7 -86.5 -21s-27.834 -40 -30.501 -78l-9 -123h205l-11 -58h-199l-5 -70c-4 -46 -13.333 -82.667 -28 -110s-38 -52.333 -70 -75c14 4 36.333 6 67 6h291l-12 -86h-464l12 86
c62.667 28 98 88.667 106 182l5 67h-78l8 58h75l11 129c3.33301 38 10.166 69.167 20.499 93.5s25.166 42.666 44.499 54.999s40 20.666 62 24.999s50 6.5 84 6.5c55.333 0 117.333 -3.33301 186 -10z" />
    <glyph glyph-name="currency" unicode="&#xa4;" horiz-adv-x="595" 
d="M561 537l-78.001 -69c18.667 -34 25 -74 19 -120c-6 -47.333 -22.333 -87.333 -49 -120l69 -76l-45 -41l-68 78c-36 -22.667 -77.667 -34 -125 -34c-46.667 0 -86 12.333 -118 37l-77 -69l-40 46l78 70c-17.333 32 -23.666 71 -18.999 117
c7.33301 49.333 24.333 90 51 122l-67 76l45 42l68 -78c33.333 21.333 73.333 32 120 32c48 0 87.667 -12 119 -36l77 69zM284.999 210c44 -0.666992 80.334 12.332 109.001 38.999s45.334 62.667 50.001 108c4.66699 42 -3.83301 75.5 -25.5 100.5s-53.167 37.5 -94.5 37.5
c-44 0 -80 -13.167 -108 -39.5s-44.667 -62.166 -50 -107.499c-4.66699 -42 3.66602 -75.5 24.999 -100.5s52.666 -37.5 93.999 -37.5z" />
    <glyph glyph-name="yen" unicode="&#xa5;" horiz-adv-x="618" 
d="M403 326h131l-8 -57h-160l-18 -27l-4 -29h174l-8 -57h-174l-21 -156h-101l22 156h-170l7 57h171l5 34l-8 22h-159l7 57h131l-135 364h102l98 -281c10 -27.333 16.333 -54 19 -80h9c8.66699 27.333 22 55 40 83l177 278h110z" />
    <glyph glyph-name="brokenbar" unicode="&#xa6;" horiz-adv-x="248" 
d="M171 381h-70l56 400h70zM94 -169h-70l56 400h70z" />
    <glyph glyph-name="section" unicode="&#xa7;" horiz-adv-x="545" 
d="M335 320l-154.997 97c-32 20 -55 41.5 -69 64.5s-18 54.167 -12 93.5c7.33301 50.667 27.5 84.667 60.5 102s83.833 26 152.5 26c85.333 -1.33301 158.666 -5.33301 219.999 -12l-12 -76c-44.667 3.33301 -105.334 5.33301 -182.001 6
c-48 0.666992 -81.833 -2.33301 -101.5 -9s-31.5 -22.334 -35.5 -47.001c-3.33301 -20 -0.833008 -36.167 7.5 -48.5s21.5 -24.166 39.5 -35.499l148 -90c43.333 -26.667 68.666 -59.167 75.999 -97.5s0 -84.833 -22 -139.5h-70c10 42 12 75.833 6 101.5
s-23 47.167 -51 64.5zM88.0029 380l70.001 0.00195312c-10 -41.333 -12.167 -74 -6.5 -98s22.5 -44.667 50.5 -62l156 -97c31.333 -18.667 54.166 -39.667 68.499 -63s18.833 -55.333 13.5 -96c-8 -53.333 -28.833 -88.166 -62.5 -104.499s-84.5 -24.5 -152.5 -24.5
c-85.333 1.33301 -158.333 5.33301 -219 12l12 76c60.667 -4 121.667 -6.33301 183 -7c22.667 0 40.5 0.5 53.5 1.5s26.167 3.33301 39.5 7s23.333 9.66699 30 18s11 19.166 13 32.499c3.33301 20 1 36.333 -7 49s-21.333 24.667 -40 36l-145 87
c-44 25.333 -70 56.666 -78 93.999s-1 83.666 21 138.999z" />
    <glyph glyph-name="dieresis" unicode="&#xa8;" horiz-adv-x="413" 
d="M341 697h28.999c10.667 0 17.667 -2 21 -6s4.33301 -11 3 -21l-9 -54c-0.666992 -17.333 -10 -26 -28 -26h-32c-18 0 -26 8.33301 -24 25l8 55c2.66699 18 13.334 27 32.001 27zM172.999 697h28.998c10.667 0 17.834 -2 21.501 -6s4.83398 -11 3.50098 -21l-9 -54
c-2 -17.333 -11.667 -26 -29 -26h-32c-18 0 -26 8.33301 -24 25l9 55c2.66699 18 13 27 31 27z" />
    <glyph glyph-name="copyright" unicode="&#xa9;" horiz-adv-x="830" 
d="M460 703c107.333 0 191.167 -33.668 251.5 -101.001s83.833 -154.333 70.5 -261c-13.333 -103.333 -56.5 -188.166 -129.5 -254.499s-163.167 -99.5 -270.5 -99.5c-108 0 -191.5 34.167 -250.5 102.5s-81.833 154.833 -68.5 259.5c13.333 102 56 186.5 128 253.5
s161.667 100.5 269 100.5zM464.001 653.999c-93.333 0 -171.999 -29.333 -235.999 -88s-101.667 -133.667 -113 -225s8 -165 58 -221s119.333 -84 208 -84c92.667 0 171.167 29.333 235.5 88s102.166 133.667 113.499 225c11.333 88.667 -7.5 161.667 -56.5 219
s-118.833 86 -209.5 86zM542.002 199.999l3.99805 -54.999c-40.667 -10.667 -85.667 -16 -135 -16c-78.667 0 -130.834 16.167 -156.501 48.5s-32.834 90.166 -21.501 173.499c10.667 81.333 32.834 137.333 66.501 168s88.167 46 163.5 46
c42.667 0 84.334 -4.66699 125.001 -14l-10 -54c-42 2 -78 3 -108 3c-56.667 0 -95.667 -9.66699 -117 -29s-36.666 -62 -45.999 -128c-8 -57.333 -5.5 -96.5 7.5 -117.5s41.167 -31.5 84.5 -31.5c62.667 0 110.334 2 143.001 6z" />
    <glyph glyph-name="ordfeminine" unicode="&#xaa;" horiz-adv-x="447" 
d="M371 272l-59.001 0.000976562v53c-37.333 -40 -83.666 -60 -138.999 -60c-39.333 0 -67.333 13.333 -84 40s-20.667 72 -12 136c4.66699 37.333 12 67.833 22 91.5s22.833 40.667 38.5 51s31 17.166 46 20.499s34.167 5 57.5 5c60.667 0 118.667 -6.33301 174 -19z
M336.999 547.001l-70.001 1c-44 0 -72.833 -6.16699 -86.5 -18.5s-23.5 -43.5 -29.5 -93.5c-5.33301 -46.667 -5.66602 -76 -0.999023 -88s17.334 -18 38.001 -18c35.333 0 77.666 21 126.999 63z" />
    <glyph glyph-name="guillemotleft" unicode="&#xab;" horiz-adv-x="482" 
d="M262 425l-148 -174l106 -181l-48 -32l-137 207l2 22l186 193zM448 425l-148 -174l106 -181l-48 -32l-137 207l2 22l186 193z" />
    <glyph glyph-name="logicalnot" unicode="&#xac;" horiz-adv-x="586" 
d="M517 334l-28 -201h-74l18 128h-368l10 73h442z" />
    <glyph glyph-name="softhyphen" unicode="&#xad;" horiz-adv-x="440" 
d="M360 216h-303l10 74h303z" />
    <glyph glyph-name="registered" unicode="&#xae;" horiz-adv-x="550" 
d="M320 702c64.667 0 116.5 -19.833 155.5 -59.5s54.5 -95.167 46.5 -166.5c-6.66699 -68 -31.5 -121.5 -74.5 -160.5s-97.5 -58.5 -163.5 -58.5c-69.333 0 -122.833 21 -160.5 63s-52.834 96.667 -45.501 164c7.33301 66.667 32.833 119.667 76.5 159s98.834 59 165.501 59
zM491 484c4.66699 59.333 -8.5 105.499 -39.5 138.499s-75.167 49.5 -132.5 49.5c-60 0 -108.167 -17.667 -144.5 -53s-57.5 -81.666 -63.5 -138.999c-6 -61.333 7 -108.833 39 -142.5s76.667 -50.5 134 -50.5c59.333 0 107.333 17.667 144 53s57.667 83.333 63 144z
M183 353.999l35 254.001c24 2 60.667 3 110 3c32 0 56.167 -5 72.5 -15s22.5 -31 18.5 -63c-2 -17.333 -7.33301 -30.833 -16 -40.5s-22.667 -16.834 -42 -21.501l-1 -2c10 -4 18.333 -16.333 25 -37l19 -78h-46l-18 79c-4.66699 16.667 -15.667 25 -33 25h-66l-14 -104h-44
zM246 490l60.999 -0.00195312c23.333 0.666992 39.833 3.83398 49.5 9.50098s15.834 17.834 18.501 36.501c2 17.333 -0.5 28.5 -7.5 33.5s-21.167 7.5 -42.5 7.5l-67 -1z" />
    <glyph glyph-name="macron" unicode="&#xaf;" horiz-adv-x="400" 
d="M392 606h-283l10 71h283z" />
    <glyph glyph-name="degree" unicode="&#xb0;" horiz-adv-x="360" 
d="M227 703c40.667 0 72.1699 -12.668 94.5029 -38.001s31.833 -56.666 28.5 -93.999c-4 -37.333 -18.833 -67.5 -44.5 -90.5s-57.5 -34.5 -95.5 -34.5c-40.667 0 -71.834 13 -93.501 39s-30.834 57.333 -27.501 94s17.666 66.5 42.999 89.5s57 34.5 95 34.5z
M225.003 645.999c-21.333 0 -38.832 -6.33105 -52.499 -18.998s-21.5 -29.334 -23.5 -50.001c-2 -22 3 -39.667 15 -53s28.667 -20 50 -20s38.666 6.33301 51.999 19s21 29.667 23 51c1.33301 21.333 -3.5 38.666 -14.5 51.999s-27.5 20 -49.5 20z" />
    <glyph glyph-name="plusminus" unicode="&#xb1;" horiz-adv-x="583" 
d="M527 397l-10 -72h-184l-19 -131h-73l18 131h-184l10 72h184l18 131h75l-19 -131h184zM48 137h443l-10 -72h-443z" />
    <glyph glyph-name="twosuperior" unicode="&#xb2;" horiz-adv-x="406" 
d="M126 708v59.002c47.333 9.33301 92.666 14 135.999 14s76.333 -6.83301 99 -20.5s32 -38.834 28 -75.501c-3.33301 -24.667 -11.333 -47.334 -24 -68.001s-35 -45 -67 -73l-129 -117c16 3.33301 37.333 5 64 5h134l-11 -72h-288l6 48c2.66699 16 6.66699 26.333 12 31
l131 118c62 54.667 94.333 97 97 127c1.33301 13.333 -2.66699 22 -12 26s-25.666 6 -48.999 6c-42.667 0 -85 -2.66699 -127 -8z" />
    <glyph glyph-name="threesuperior" unicode="&#xb3;" horiz-adv-x="390" 
d="M128 713l-0.00292969 57.999c50 7.33301 91.667 11 125 11c90 0 131.667 -33 125 -99c-2 -25.333 -9.16699 -49 -21.5 -71s-29.833 -33.667 -52.5 -35v-2c48.667 -8.66699 68.334 -43 59.001 -103c-12.667 -77.333 -69 -117.333 -169 -120
c-33.333 -0.666992 -75.666 3 -126.999 11l8 58c10.667 0 24.5 -0.5 41.5 -1.5s29.333 -1.66699 37 -2s19.834 -0.166016 36.501 0.500977c58.667 4 92 27 100 69c4 20 1 35.167 -9 45.5s-28.333 15.5 -55 15.5h-81l7 58h78c28 0 47.333 5.33301 58 16
s17.334 26.667 20.001 48c2 19.333 -1.33301 32 -10 38s-29.334 9 -62.001 9c-29.333 0 -65.333 -1.33301 -108 -4z" />
    <glyph glyph-name="acute" unicode="&#xb4;" horiz-adv-x="321" 
d="M342 652l-213 -117l-28 45l196 147z" />
    <glyph glyph-name="paragraph" unicode="&#xb6;" horiz-adv-x="589" 
d="M455 0l-72.999 0.00195312l89 637c-31.333 2 -60.333 3 -87 3l-119 -850h-73l58 411c-78.667 8 -133.334 32.167 -164.001 72.5s-40.334 101.166 -29.001 182.499c12.667 91.333 44.334 155.166 95.001 191.499s130.667 54.5 240 54.5c61.333 0 114.333 -5.66699 159 -17
z" />
    <glyph glyph-name="periodcentered" unicode="&#xb7;" horiz-adv-x="239" 
d="M105 320h31.999c25.333 0 36 -12.333 32 -37l-7 -54c-2.66699 -22 -15 -33 -37 -33h-32c-25.333 0 -36.666 12.333 -33.999 37l9 54c2 22 14.333 33 37 33z" />
    <glyph glyph-name="cedilla" unicode="&#xb8;" horiz-adv-x="236" 
d="M33 -87l11.001 44.999c44.667 4 75.834 1.33301 93.501 -8s23.5 -29.666 17.5 -60.999c-6.66699 -42.667 -27.334 -75 -62.001 -97s-76.334 -29.667 -125.001 -23l18 51c24.667 -0.666992 46.5 5.33301 65.5 18s30.5 29.667 34.5 51c2 9.33301 -0.166992 15.5 -6.5 18.5
s-21.833 4.83301 -46.5 5.5z" />
    <glyph glyph-name="onesuperior" unicode="&#xb9;" horiz-adv-x="286" 
d="M224 360h-75l44 305c2 16 4.66699 30 8 42l-108 -30l-1 56l115 41h75z" />
    <glyph glyph-name="ordmasculine" unicode="&#xba;" horiz-adv-x="440" 
d="M257 609c61.333 0 103.332 -13.5 125.999 -40.5s29.334 -72.5 20.001 -136.5c-8.66699 -61.333 -26.667 -104.5 -54 -129.5s-70.333 -37.5 -129 -37.5c-60 0 -101.5 13.333 -124.5 40s-30.167 71.667 -21.5 135c8.66699 62.667 26.5 106.5 53.5 131.5
s70.167 37.5 129.5 37.5zM256.999 549c-37.333 0 -62.999 -8 -76.999 -24s-24.667 -47 -32 -93c-5.33301 -42.667 -3 -71.167 7 -85.5s32.333 -21.5 67 -21.5c34 0 58.667 8.16699 74 24.5s26.333 46.5 33 90.5c5.33301 43.333 3.16602 72.333 -6.50098 87
s-31.5 22 -65.5 22z" />
    <glyph glyph-name="guillemotright" unicode="&#xbb;" horiz-adv-x="484" 
d="M22 70l149 174l-107 181l48 32l137 -207l-2 -22l-186 -193zM208 70l148 174l-106 181l48 32l137 -207l-2 -22l-186 -193z" />
    <glyph glyph-name="onequarter" unicode="&#xbc;" horiz-adv-x="863" 
d="M144 276l43 307c2.66699 17.333 5.66699 31.333 9 42l-113 -30l-1 53l121 42h75l-58 -414h-76zM702 690l-538 -690h-70l538 690h70zM801 101l-53 -6l-14 -95h-70l12 94h-186c-18.667 0 -32 6.33301 -40 19s-6.33301 29.667 5 51l159 250h74l-151 -242
c-6.66699 -12.667 -3 -19 11 -19h136l16 115l23 66h58l-25 -181h53z" />
    <glyph glyph-name="onehalf" unicode="&#xbd;" horiz-adv-x="882" 
d="M220 276h-76l43 307c2.66699 17.333 5.66699 31.333 9 42l-113 -30l-1 53l121 42h75zM156 0h-70l538 690h70zM542 350l-1 56.999c47.333 9.33301 94.333 14 141 14c55.333 0 94.666 -6.83301 117.999 -20.5s32 -40.5 26 -80.5c-6 -40.667 -38.333 -86.667 -97 -138
l-144 -117c20 2.66699 42.333 3.33398 67 2.00098h155l-9 -67h-316l7 44c1.33301 14 5.66602 24.667 12.999 32l140 118c62 51.333 96 93.333 102 126c2.66699 15.333 -1.16602 25.333 -11.499 30s-28.166 7 -53.499 7c-45.333 0 -91 -2.33301 -137 -7z" />
    <glyph glyph-name="threequarters" unicode="&#xbe;" horiz-adv-x="958" 
d="M300 495l-5.99902 -2.99902c30.667 -4.66699 51.5 -15.667 62.5 -33s14.833 -42.333 11.5 -75c-5.33301 -42 -20.333 -72.167 -45 -90.5s-64.334 -27.5 -119.001 -27.5c-43.333 0 -93.666 3.66699 -150.999 11l6 56c43.333 -2.66699 85 -4 125 -4
c36.667 0 63.167 5.5 79.5 16.5s26.166 29.833 29.499 56.5c2.66699 19.333 -0.5 34 -9.5 44s-29.5 15 -61.5 15h-88l8 57h83c30.667 0 52 6.16699 64 18.5s19.333 28.166 22 47.499c2.66699 20 -0.833008 33.167 -10.5 39.5s-30.5 9.5 -62.5 9.5
c-49.333 0 -90.666 -1 -123.999 -3l-1 55c46 6.66699 90.667 10 134 10c57.333 0 96.166 -7.33301 116.499 -22s27.833 -40.667 22.5 -78c-4 -29.333 -12.167 -52.333 -24.5 -69s-32.833 -27 -61.5 -31zM804.001 690.001l-538 -690h-70l538 690h70zM894.001 101.001l-54 -6
l-13 -95h-71l13 94h-185c-18.667 0 -32 6.33301 -40 19s-6.33301 29.667 5 51l159 250h74l-151 -242c-6.66699 -12.667 -3 -19 11 -19h135l15 115l23 66h59l-26 -181h54z" />
    <glyph glyph-name="questiondown" unicode="&#xbf;" horiz-adv-x="493" 
d="M272 501h24.0029c25.333 0 36.666 -12.333 33.999 -37l-8 -54c-2.66699 -22.667 -15.334 -34 -38.001 -34h-24c-25.333 0 -36 12.667 -32 38l7 54c3.33301 22 15.666 33 36.999 33zM216.003 287h81.002c-4 -34 -13.333 -65.167 -28 -93.5s-31.167 -52.166 -49.5 -71.499
s-36.666 -37.5 -54.999 -54.5s-34.5 -34.833 -48.5 -53.5s-22.667 -37.667 -26 -57c-5.33301 -30 0.333984 -51.833 17.001 -65.5s46 -20.5 88 -20.5c74 0 141 3 201 9v-69c-4.66699 -0.666992 -12.834 -2.16699 -24.501 -4.5s-19.667 -3.83301 -24 -4.5l-22 -3.5
c-10.333 -1.66699 -18.333 -2.83398 -24 -3.50098s-13.834 -1.5 -24.501 -2.5s-20.667 -1.66699 -30 -2s-20.333 -0.666016 -33 -0.999023s-26.334 -0.5 -41.001 -0.5c-67.333 0 -116.833 14.5 -148.5 43.5s-44.167 67.5 -37.5 115.5
c3.33301 26.667 12.666 51.667 27.999 75s33 43.833 53 61.5l60 54c20 18.333 38.333 40.166 55 65.499s27.667 53 33 83z" />
    <glyph glyph-name="Agrave" unicode="&#xc0;" horiz-adv-x="623" 
d="M398 726l-195 122l52 69l177 -147zM442 208h-276l-92 -208h-106l310 665c6.66699 16.667 19.667 25 39 25h102c8.66699 0 16.167 -2.83301 22.5 -8.5s9.83301 -12.5 10.5 -20.5l125 -661h-100zM428 296l-42.999 259c-2.66699 13.333 -5.33398 33.333 -8.00098 60h-30
l-26 -60l-116 -259h223z" />
    <glyph glyph-name="Aacute" unicode="&#xc1;" horiz-adv-x="623" 
d="M341 726l-28 45l196 147l45 -75zM442 208h-276l-92 -208h-106l310 665c6.66699 16.667 19.667 25 39 25h102c8.66699 0 16.167 -2.83301 22.5 -8.5s9.83301 -12.5 10.5 -20.5l125 -661h-100zM428 296l-42.999 259c-2.66699 13.333 -5.33398 33.333 -8.00098 60h-30
l-26 -60l-116 -259h223z" />
    <glyph glyph-name="Acircumflex" unicode="&#xc2;" horiz-adv-x="623" 
d="M243 728l-27 42l148 129h68l125 -135l-36 -38l-120 101h-8zM442 208h-276l-92 -208h-106l310 665c6.66699 16.667 19.667 25 39 25h102c8.66699 0 16.167 -2.83301 22.5 -8.5s9.83301 -12.5 10.5 -20.5l125 -661h-100zM428 296l-42.999 259
c-2.66699 13.333 -5.33398 33.333 -8.00098 60h-30l-26 -60l-116 -259h223z" />
    <glyph glyph-name="Atilde" unicode="&#xc3;" horiz-adv-x="623" 
d="M513 879l44.002 -3c-0.666992 -38.667 -9.16699 -68.167 -25.5 -88.5s-37.5 -29.5 -63.5 -27.5s-53.667 11.333 -83 28s-50 25.667 -62 27c-18.667 2 -32.334 -1.5 -41.001 -10.5s-14.334 -23.5 -17.001 -43.5l-44 4c0.666992 40 9.66699 70.167 27 90.5
s38.333 29.5 63 27.5c22.667 -2 48.167 -11 76.5 -27s50.5 -25 66.5 -27c18.667 -2 32.5 1.16699 41.5 9.5s14.833 21.833 17.5 40.5zM442.002 208h-276l-92 -208h-106l310 665c6.66699 16.667 19.667 25 39 25h102c8.66699 0 16.167 -2.83301 22.5 -8.5
s9.83301 -12.5 10.5 -20.5l125 -661h-100zM428.002 296l-42.999 259c-2.66699 13.333 -5.33398 33.333 -8.00098 60h-30l-26 -60l-116 -259h223z" />
    <glyph glyph-name="Adieresis" unicode="&#xc4;" horiz-adv-x="623" 
d="M315 765h-32.998c-16.667 0 -24.667 8.33301 -24 25l9 56c3.33301 18 13.666 27 30.999 27h29c19.333 0 27.666 -9 24.999 -27l-9 -55c-2 -17.333 -11.333 -26 -28 -26zM482.002 765h-32c-18 0 -26 8.33301 -24 25l9 56c2 18 12.333 27 31 27h29c18.667 0 27 -9 25 -27
l-9 -55c-2 -17.333 -11.667 -26 -29 -26zM442.002 208h-276l-92 -208h-106l310 665c6.66699 16.667 19.667 25 39 25h102c8.66699 0 16.167 -2.83301 22.5 -8.5s9.83301 -12.5 10.5 -20.5l125 -661h-100zM428.002 296l-42.999 259
c-2.66699 13.333 -5.33398 33.333 -8.00098 60h-30l-26 -60l-116 -259h223z" />
    <glyph glyph-name="Aring" unicode="&#xc5;" horiz-adv-x="623" 
d="M384 714c-33.333 0 -59.5 10.335 -78.5 31.002s-26.833 47 -23.5 79c3.33301 29.333 15 53.833 35 73.5s45.667 29.5 77 29.5c33.333 0 60 -10.333 80 -31s28 -47.334 24 -80.001c-4 -28.667 -16 -52.834 -36 -72.501s-46 -29.5 -78 -29.5zM334 821.002
c-2 -18.667 1.99902 -33.167 11.999 -43.5s23 -15.5 39 -15.5c16.667 0 30.5 5.66699 41.5 17s17.5 25.666 19.5 42.999c1.33301 16.667 -2.66699 30.334 -12 41.001s-22.333 16 -39 16s-30.667 -5.5 -42 -16.5s-17.666 -24.833 -18.999 -41.5zM441.999 208.002h-276
l-92 -208h-106l310 665c6.66699 16.667 19.667 25 39 25h102c8.66699 0 16.167 -2.83301 22.5 -8.5s9.83301 -12.5 10.5 -20.5l125 -661h-100zM427.999 296.002l-42.999 259c-2.66699 13.333 -5.33398 33.333 -8.00098 60h-30l-26 -60l-116 -259h223z" />
    <glyph glyph-name="AE" unicode="&#xc6;" horiz-adv-x="914" 
d="M905 606l-253.001 -0.000976562c-42 0 -66.333 -22 -73 -66l-19 -138h278l-10 -79h-279l-24 -176c-3.33301 -23.333 -1 -39.666 7 -48.999s23 -14 45 -14h256l-5 -78c-68 -5.33301 -157.667 -8 -269 -8c-45.333 0 -79.833 12.833 -103.5 38.5s-32.167 61.167 -25.5 106.5
l10 72h-227l-151 -215h-107l413 579c30.667 44 63.5 73.667 98.5 89s85.167 23 150.5 23c130.667 0 231.334 -2.33301 302.001 -7zM451.999 300.999l35.999 253.001c3.33301 31.333 16 54.666 38 69.999h-5c-21.333 -12.667 -42.666 -33.667 -63.999 -63l-183 -260h178z" />
    <glyph glyph-name="Ccedilla" unicode="&#xc7;" horiz-adv-x="568" 
d="M494 88l4.99902 -77c-55.333 -15.333 -124 -23 -206 -23c-99.333 0 -166.666 28.5 -201.999 85.5s-43.666 148.833 -24.999 275.5c18 130.667 50.333 222.167 97 274.5s120 78.5 220 78.5c71.333 0 135 -7 191 -21l-16 -76c-52.667 5.33301 -111.667 8 -177 8
c-44.667 0 -79.834 -7.33301 -105.501 -22s-47.167 -41.667 -64.5 -81s-31 -95.666 -41 -168.999c-14.667 -100 -13 -168.833 5 -206.5s58 -56.834 120 -57.501c74.667 -0.666992 141 3 199 11zM211.999 -99l11.999 44.999c44 4 74.833 1.33301 92.5 -8
s23.834 -29.666 18.501 -60.999c-6.66699 -42.667 -27.5 -75 -62.5 -97s-76.833 -29.667 -125.5 -23l18 51c25.333 -0.666992 47.5 5.33301 66.5 18s30.5 29.667 34.5 51c1.33301 9.33301 -1.16699 15.5 -7.5 18.5s-21.833 4.83301 -46.5 5.5z" />
    <glyph glyph-name="Egrave" unicode="&#xc8;" horiz-adv-x="560" 
d="M394 746l-195 122l52 69l177 -147zM551 606h-272.002c-21.333 0 -37.166 -4.83301 -47.499 -14.5s-16.833 -26.5 -19.5 -50.5l-19 -140h291l-10 -77h-292l-24 -178c-2.66699 -22.667 -0.166992 -38.667 7.5 -48s22.5 -14 44.5 -14h267l-2 -78
c-57.333 -5.33301 -149.666 -8 -276.999 -8c-53.333 0 -91.833 12.833 -115.5 38.5s-32.5 61.167 -26.5 106.5l59 427c5.33301 38.667 21 68.667 47 90s61 32 105 32c138 0 237 -2.66699 297 -8z" />
    <glyph glyph-name="Eacute" unicode="&#xc9;" horiz-adv-x="560" 
d="M337 746l-28 45l196 147l45 -75zM551 606h-272.002c-21.333 0 -37.166 -4.83301 -47.499 -14.5s-16.833 -26.5 -19.5 -50.5l-19 -140h291l-10 -77h-292l-24 -178c-2.66699 -22.667 -0.166992 -38.667 7.5 -48s22.5 -14 44.5 -14h267l-2 -78
c-57.333 -5.33301 -149.666 -8 -276.999 -8c-53.333 0 -91.833 12.833 -115.5 38.5s-32.5 61.167 -26.5 106.5l59 427c5.33301 38.667 21 68.667 47 90s61 32 105 32c138 0 237 -2.66699 297 -8z" />
    <glyph glyph-name="Ecircumflex" unicode="&#xca;" horiz-adv-x="560" 
d="M239 748l-27 42l147 129h69l124 -135l-35 -38l-120 101h-8zM551 606h-272.002c-21.333 0 -37.166 -4.83301 -47.499 -14.5s-16.833 -26.5 -19.5 -50.5l-19 -140h291l-10 -77h-292l-24 -178c-2.66699 -22.667 -0.166992 -38.667 7.5 -48s22.5 -14 44.5 -14h267l-2 -78
c-57.333 -5.33301 -149.666 -8 -276.999 -8c-53.333 0 -91.833 12.833 -115.5 38.5s-32.5 61.167 -26.5 106.5l59 427c5.33301 38.667 21 68.667 47 90s61 32 105 32c138 0 237 -2.66699 297 -8z" />
    <glyph glyph-name="Edieresis" unicode="&#xcb;" horiz-adv-x="560" 
d="M311 785h-33.002c-18 0 -26 8.33301 -24 25l9 56c2.66699 17.333 13 26 31 26h29c10.667 0 17.834 -2 21.501 -6s4.83398 -10.667 3.50098 -20l-9 -55c-2 -17.333 -11.333 -26 -28 -26zM477.998 785h-32c-18 0 -26 8.33301 -24 25l9 56c2 17.333 12.333 26 31 26h29
c10.667 0 17.667 -2 21 -6s4.33301 -10.667 3 -20l-8 -55c-2 -17.333 -11.667 -26 -29 -26zM550.998 606h-272.002c-21.333 0 -37.166 -4.83301 -47.499 -14.5s-16.833 -26.5 -19.5 -50.5l-19 -140h291l-10 -77h-292l-24 -178c-2.66699 -22.667 -0.166992 -38.667 7.5 -48
s22.5 -14 44.5 -14h267l-2 -78c-57.333 -5.33301 -149.666 -8 -276.999 -8c-53.333 0 -91.833 12.833 -115.5 38.5s-32.5 61.167 -26.5 106.5l59 427c5.33301 38.667 21 68.667 47 90s61 32 105 32c138 0 237 -2.66699 297 -8z" />
    <glyph glyph-name="Igrave" unicode="&#xcc;" horiz-adv-x="267" 
d="M250 770l-34 -44l-195 122l52 69zM143 0h-101l97 690h101z" />
    <glyph glyph-name="Iacute" unicode="&#xcd;" horiz-adv-x="267" 
d="M373 843l-213 -117l-29 45l196 147zM143 0h-101l97 690h101z" />
    <glyph glyph-name="Icircumflex" unicode="&#xce;" horiz-adv-x="267" 
d="M375 764l-36 -38l-120 101h-8l-149 -99l-28 42l148 129h68zM143 0h-101l97 690h101z" />
    <glyph glyph-name="Idieresis" unicode="&#xcf;" horiz-adv-x="267" 
d="M117 873l29 -0.000976562c10.667 0 17.667 -2.16699 21 -6.5s4.33301 -11.166 3 -20.499l-9 -55c-0.666992 -17.333 -10 -26 -28 -26h-32c-18 0 -26 8.33301 -24 25l9 56c2 18 12.333 27 31 27zM284 872.999h29.002c19.333 0 27.666 -9 24.999 -27l-9 -55
c-2 -17.333 -11.667 -26 -29 -26h-32c-18 0 -26 8.33301 -24 25l9 56c3.33301 18 13.666 27 30.999 27zM143.002 -0.000976562h-101l97 690h101z" />
    <glyph glyph-name="Eth" unicode="&#xd0;" horiz-adv-x="663" 
d="M97 393l42.0029 297c81.333 6 156.333 9 225 9c109.333 0 182.666 -26.333 219.999 -79s46.666 -145.667 27.999 -279c-7.33301 -51.333 -15.833 -95.333 -25.5 -132s-21.667 -68 -36 -94s-29.833 -47 -46.5 -63s-37.334 -28.667 -62.001 -38s-50 -15.5 -76 -18.5
s-57.667 -4.5 -95 -4.5c-64 0 -140.333 3 -229 9l48 338h-63l7 55h63zM189.003 338l-36.001 -258c57.333 -1.33301 96.333 -2 117 -2c54 0 95.333 6.66699 124 20s52 39 70 77s32.667 96 44 174c6.66699 45.333 10.334 82.833 11.001 112.5s-1.5 54.834 -6.5 75.501
s-14.167 36.167 -27.5 46.5s-29.5 17.666 -48.5 21.999s-43.833 6.5 -74.5 6.5c-8 0 -28 -0.166992 -60 -0.5s-56.667 -0.5 -74 -0.5l-31 -218h149l-7 -55h-150z" />
    <glyph glyph-name="Ntilde" unicode="&#xd1;" horiz-adv-x="706" 
d="M310 761l-43.998 4c0.666992 40 9.66699 70.167 27 90.5s38.333 29.5 63 27.5c22.667 -2 48.167 -11 76.5 -27s50.5 -25 66.5 -27c18.667 -2 32.5 1.16699 41.5 9.5s14.833 21.833 17.5 40.5l44 -3c-0.666992 -38.667 -9.16699 -68.167 -25.5 -88.5
s-37.5 -29.5 -63.5 -27.5s-53.667 11.333 -83 28s-50 25.667 -62 27c-18.667 2 -32.334 -1.5 -41.001 -10.5s-14.334 -23.5 -17.001 -43.5zM679.002 690l-92 -653c-4 -24.667 -17.333 -37 -40 -37h-87c-18.667 0 -31.667 11 -39 33l-161 470
c-12.667 36 -21.667 67.333 -27 94h-15c-0.666992 -28 -3.33398 -59.333 -8.00098 -94l-68 -503h-100l91 653c4 24.667 18 37 42 37h85c18 0 31.333 -11 40 -33l155 -457c20.667 -66 31.334 -100.667 32.001 -104h17c2 38 5.33301 72.667 10 104l66 490h99z" />
    <glyph glyph-name="Ograve" unicode="&#xd2;" horiz-adv-x="667" 
d="M450 770l-34 -44l-195 122l52 69zM387 703c98 0 165.334 -27.5 202.001 -82.5s45.667 -148.167 27 -279.5c-18 -132.667 -50.5 -224.834 -97.5 -276.501s-120.167 -77.5 -219.5 -77.5c-98 0 -165.833 27.167 -203.5 81.5s-47.5 147.833 -29.5 280.5
c17.333 130.667 49.666 222.334 96.999 275.001s122 79 224 79zM382.001 614c-66.667 0 -114.833 -19.168 -144.5 -57.501s-52.167 -110.166 -67.5 -215.499c-14 -101.333 -11.833 -170.833 6.5 -208.5s59.833 -56.5 124.5 -56.5c65.333 0 113.166 19.5 143.499 58.5
s52.833 110.5 67.5 214.5c14.667 103.333 12.834 173.333 -5.49902 210s-59.833 55 -124.5 55z" />
    <glyph glyph-name="Oacute" unicode="&#xd3;" horiz-adv-x="667" 
d="M573 843l-213 -117l-29 45l196 147zM387 703c98 0 165.334 -27.5 202.001 -82.5s45.667 -148.167 27 -279.5c-18 -132.667 -50.5 -224.834 -97.5 -276.501s-120.167 -77.5 -219.5 -77.5c-98 0 -165.833 27.167 -203.5 81.5s-47.5 147.833 -29.5 280.5
c17.333 130.667 49.666 222.334 96.999 275.001s122 79 224 79zM382.001 614c-66.667 0 -114.833 -19.168 -144.5 -57.501s-52.167 -110.166 -67.5 -215.499c-14 -101.333 -11.833 -170.833 6.5 -208.5s59.833 -56.5 124.5 -56.5c65.333 0 113.166 19.5 143.499 58.5
s52.833 110.5 67.5 214.5c14.667 103.333 12.834 173.333 -5.49902 210s-59.833 55 -124.5 55z" />
    <glyph glyph-name="Ocircumflex" unicode="&#xd4;" horiz-adv-x="667" 
d="M575 764l-36 -38l-120 101h-8l-149 -99l-28 42l148 129h68zM387 703c98 0 165.334 -27.5 202.001 -82.5s45.667 -148.167 27 -279.5c-18 -132.667 -50.5 -224.834 -97.5 -276.501s-120.167 -77.5 -219.5 -77.5c-98 0 -165.833 27.167 -203.5 81.5
s-47.5 147.833 -29.5 280.5c17.333 130.667 49.666 222.334 96.999 275.001s122 79 224 79zM382.001 614c-66.667 0 -114.833 -19.168 -144.5 -57.501s-52.167 -110.166 -67.5 -215.499c-14 -101.333 -11.833 -170.833 6.5 -208.5s59.833 -56.5 124.5 -56.5
c65.333 0 113.166 19.5 143.499 58.5s52.833 110.5 67.5 214.5c14.667 103.333 12.834 173.333 -5.49902 210s-59.833 55 -124.5 55z" />
    <glyph glyph-name="Otilde" unicode="&#xd5;" horiz-adv-x="667" 
d="M283 761l-43.998 4c1.33301 40 10.5 70.167 27.5 90.5s37.833 29.5 62.5 27.5c23.333 -2 49.166 -11 77.499 -27s50.166 -25 65.499 -27c19.333 -2 33.5 1.16699 42.5 9.5s14.833 21.833 17.5 40.5l44 -3c-0.666992 -38.667 -9.33398 -68.167 -26.001 -88.5
s-38 -29.5 -64 -27.5s-53.667 11.333 -83 28s-49.666 25.667 -60.999 27c-18.667 2 -32.5 -1.5 -41.5 -10.5s-14.833 -23.5 -17.5 -43.5zM387.002 703c98 0 165.334 -27.5 202.001 -82.5s45.667 -148.167 27 -279.5c-18 -132.667 -50.5 -224.834 -97.5 -276.501
s-120.167 -77.5 -219.5 -77.5c-98 0 -165.833 27.167 -203.5 81.5s-47.5 147.833 -29.5 280.5c17.333 130.667 49.666 222.334 96.999 275.001s122 79 224 79zM382.003 614c-66.667 0 -114.833 -19.168 -144.5 -57.501s-52.167 -110.166 -67.5 -215.499
c-14 -101.333 -11.833 -170.833 6.5 -208.5s59.833 -56.5 124.5 -56.5c65.333 0 113.166 19.5 143.499 58.5s52.833 110.5 67.5 214.5c14.667 103.333 12.834 173.333 -5.49902 210s-59.833 55 -124.5 55z" />
    <glyph glyph-name="Odieresis" unicode="&#xd6;" horiz-adv-x="667" 
d="M484 873h29.002c19.333 0 27.666 -9 24.999 -27l-9 -55c-2 -17.333 -11.667 -26 -29 -26h-32c-18 0 -26 8.33301 -24 25l9 56c3.33301 18 13.666 27 30.999 27zM317.002 873l29 -0.000976562c10.667 0 17.667 -2.16699 21 -6.5s4.33301 -11.166 3 -20.499l-8 -55
c-2 -17.333 -11.667 -26 -29 -26h-32c-18 0 -26 8.33301 -24 25l9 56c2 18 12.333 27 31 27zM387.002 702.999c98 0 165.334 -27.5 202.001 -82.5s45.667 -148.167 27 -279.5c-18 -132.667 -50.5 -224.834 -97.5 -276.501s-120.167 -77.5 -219.5 -77.5
c-98 0 -165.833 27.167 -203.5 81.5s-47.5 147.833 -29.5 280.5c17.333 130.667 49.666 222.334 96.999 275.001s122 79 224 79zM382.003 613.999c-66.667 0 -114.833 -19.168 -144.5 -57.501s-52.167 -110.166 -67.5 -215.499c-14 -101.333 -11.833 -170.833 6.5 -208.5
s59.833 -56.5 124.5 -56.5c65.333 0 113.166 19.5 143.499 58.5s52.833 110.5 67.5 214.5c14.667 103.333 12.834 173.333 -5.49902 210s-59.833 55 -124.5 55z" />
    <glyph glyph-name="multiply" unicode="&#xd7;" horiz-adv-x="524" 
d="M317 283l124 -129l-52 -53l-131 136l-175 -139l-43 62l165 131l-126 131l54 53l131 -137l180 143l43 -62z" />
    <glyph glyph-name="Oslash" unicode="&#xd8;" horiz-adv-x="667" 
d="M605 728l-44.999 -74c59.333 -52.667 78 -157 56 -313c-18 -132.667 -50.5 -224.834 -97.5 -276.501s-120.167 -77.5 -219.5 -77.5c-53.333 0 -97 7.33301 -131 22l-43 -70l-45 27l43 71c-60 52 -79 156 -57 312c17.333 130.667 49.666 222.334 96.999 275.001
s122 79 224 79c50.667 0 93 -7 127 -21l45 73zM179.001 129l286.001 471c-19.333 9.33301 -47 14 -83 14c-66.667 0 -114.834 -19.167 -144.501 -57.5s-52.167 -110.166 -67.5 -215.499c-15.333 -104.667 -12.333 -175.334 9 -212.001zM505.002 563l-287 -472
c21.333 -10 49 -15 83 -15c65.333 0 113.166 19.5 143.499 58.5s52.833 110.5 67.5 214.5c14.667 106.667 12.334 178 -6.99902 214z" />
    <glyph glyph-name="Ugrave" unicode="&#xd9;" horiz-adv-x="664" 
d="M449 770l-34 -44l-195 122l52 69zM642 690l-61.001 -426c-14 -100.667 -42.667 -172 -86 -214s-108.666 -63 -195.999 -63c-90 0 -153.333 22 -190 66s-48 116 -34 216l58 421h101l-60 -426c-10 -70.667 -6.16699 -119.667 11.5 -147s54.5 -41 110.5 -41
c58 0 101 14.333 129 43s47 78.667 57 150l59 421h101z" />
    <glyph glyph-name="Uacute" unicode="&#xda;" horiz-adv-x="664" 
d="M572 843l-213 -117l-29 45l196 147zM642 690l-61.001 -426c-14 -100.667 -42.667 -172 -86 -214s-108.666 -63 -195.999 -63c-90 0 -153.333 22 -190 66s-48 116 -34 216l58 421h101l-60 -426c-10 -70.667 -6.16699 -119.667 11.5 -147s54.5 -41 110.5 -41
c58 0 101 14.333 129 43s47 78.667 57 150l59 421h101z" />
    <glyph glyph-name="Ucircumflex" unicode="&#xdb;" horiz-adv-x="664" 
d="M574 764l-36 -38l-120 101h-8l-149 -99l-28 42l148 129h68zM642 690l-61.001 -426c-14 -100.667 -42.667 -172 -86 -214s-108.666 -63 -195.999 -63c-90 0 -153.333 22 -190 66s-48 116 -34 216l58 421h101l-60 -426c-10 -70.667 -6.16699 -119.667 11.5 -147
s54.5 -41 110.5 -41c58 0 101 14.333 129 43s47 78.667 57 150l59 421h101z" />
    <glyph glyph-name="Udieresis" unicode="&#xdc;" horiz-adv-x="664" 
d="M316 873h29c19.333 0 27.333 -9 24 -27l-8 -55c-2 -17.333 -11.667 -26 -29 -26h-32c-18 0 -26 8.33301 -24 25l9 56c2 18 12.333 27 31 27zM483 873h29c20 0 28.333 -9 25 -27l-9 -55c-2 -17.333 -11.667 -26 -29 -26h-32c-18 0 -26 8.33301 -24 25l9 56
c2.66699 18 13 27 31 27zM642 690l-61.001 -426c-14 -100.667 -42.667 -172 -86 -214s-108.666 -63 -195.999 -63c-90 0 -153.333 22 -190 66s-48 116 -34 216l58 421h101l-60 -426c-10 -70.667 -6.16699 -119.667 11.5 -147s54.5 -41 110.5 -41c58 0 101 14.333 129 43
s47 78.667 57 150l59 421h101z" />
    <glyph glyph-name="Yacute" unicode="&#xdd;" horiz-adv-x="571" 
d="M308 726l-29 45l196 147l46 -75zM325 238l-33 -238h-101l35 243l-163 447h101l99 -285c9.33301 -29.333 15.333 -56 18 -80h9c8.66699 27.333 22 55 40 83l178 282h109z" />
    <glyph glyph-name="Thorn" unicode="&#xde;" horiz-adv-x="591" 
d="M239 690l-17 -122c24.667 1.33301 69.667 2 135 2c80 0 136.167 -16.5 168.5 -49.5s42.5 -91.5 30.5 -175.5s-35.667 -141.167 -71 -171.5s-91.333 -45.5 -168 -45.5c-52.667 0 -104.667 3 -156 9l-19 -137h-100l97 690h100zM172 214h133
c50.667 0.666992 86.667 10.334 108 29.001s36 55 44 109c6.66699 53.333 3.16699 88.666 -10.5 105.999s-44.5 26 -92.5 26c-70 0 -118 -0.333008 -144 -1z" />
    <glyph glyph-name="germandbls" unicode="&#xdf;" horiz-adv-x="677" 
d="M460 306l91.9922 -59.0068c29.333 -19.333 49.333 -38.166 60 -56.499s14 -44.5 10 -78.5c-6.66699 -48.667 -25.334 -81.334 -56.001 -98.001s-77.334 -25 -140.001 -25c-48.667 0 -102 3.66699 -160 11l12 74c42.667 -2.66699 85.667 -4 129 -4
c40.667 0 69.667 3.5 87 10.5s27.333 21.833 30 44.5c2 16.667 -0.5 29.334 -7.5 38.001s-20.167 19.334 -39.5 32.001l-96 61c-49.333 32 -70.666 70 -63.999 114c2 14.667 6.16699 27.834 12.5 39.501s16.333 23 30 34s25.834 19.833 36.501 26.5s27 16.334 49 29.001
c27.333 16.667 46.666 31.334 57.999 44.001s18 27 20 43c2.66699 20 -3.66602 34.667 -18.999 44s-48.666 14 -99.999 14c-56 0 -95 -7.5 -117 -22.5s-36 -44.5 -42 -88.5l-83 -589c-7.33301 -48.667 -24.333 -84.667 -51 -108s-64.667 -35 -114 -35
c-33.333 0 -71.666 2.66699 -114.999 8l15 72h75c31.333 0 53.666 5.16699 66.999 15.5s22.333 31.166 27 62.499l65 454h-89l10 69l89 6l9 59c4 30 10.833 55.667 20.5 77s21 38.333 34 51s29.833 22.667 50.5 30s41.834 12.166 63.501 14.499s47.834 3.5 78.501 3.5
c88 0 148.5 -10.333 181.5 -31s45.833 -56.334 38.5 -107.001c-4 -26 -13.167 -49 -27.5 -69s-39.166 -40.667 -74.499 -62c-5.33301 -3.33301 -14.666 -8.66602 -27.999 -15.999s-22.833 -12.833 -28.5 -16.5s-12.667 -8.66699 -21 -15s-14.666 -12.666 -18.999 -18.999
s-7.16602 -13.166 -8.49902 -20.499c-1.33301 -8 0.166992 -15.667 4.5 -23s9.33301 -13.166 15 -17.499s15.834 -11.166 30.501 -20.499z" />
    <glyph glyph-name="agrave" unicode="&#xe0;" 
d="M343 547l-195 122l52 68l177 -147zM460 0l-75.998 -0.000976562l4 90c-58.667 -68 -128.667 -102 -210 -102c-59.333 0 -99.333 19.333 -120 58s-24.334 106.667 -11.001 204c7.33301 54 17.666 98.167 30.999 132.5s31 59.833 53 76.5s44.667 27.834 68 33.501
s53.333 8.5 90 8.5c79.333 0 159 -8.66699 239 -26zM387.002 175.999l34.999 242c-61.333 1.33301 -95.666 2 -102.999 2c-34.667 0 -61 -1.66699 -79 -5s-33.833 -11.833 -47.5 -25.5s-23.667 -31.167 -30 -52.5s-12.5 -52.666 -18.5 -93.999
c-9.33301 -72.667 -10.5 -119.334 -3.5 -140.001s26.167 -31 57.5 -31c30.667 0 60.667 8.5 90 25.5s62.333 43.167 99 78.5z" />
    <glyph glyph-name="aacute" unicode="&#xe1;" 
d="M287 547l-29 45l196 146l46 -74zM460 0l-75.998 -0.000976562l4 90c-58.667 -68 -128.667 -102 -210 -102c-59.333 0 -99.333 19.333 -120 58s-24.334 106.667 -11.001 204c7.33301 54 17.666 98.167 30.999 132.5s31 59.833 53 76.5s44.667 27.834 68 33.501
s53.333 8.5 90 8.5c79.333 0 159 -8.66699 239 -26zM387.002 175.999l34.999 242c-61.333 1.33301 -95.666 2 -102.999 2c-34.667 0 -61 -1.66699 -79 -5s-33.833 -11.833 -47.5 -25.5s-23.667 -31.167 -30 -52.5s-12.5 -52.666 -18.5 -93.999
c-9.33301 -72.667 -10.5 -119.334 -3.5 -140.001s26.167 -31 57.5 -31c30.667 0 60.667 8.5 90 25.5s62.333 43.167 99 78.5z" />
    <glyph glyph-name="acircumflex" unicode="&#xe2;" 
d="M189 549l-28 42l148 129h69l124 -136l-36 -38l-120 101h-8zM460 0l-75.998 -0.000976562l4 90c-58.667 -68 -128.667 -102 -210 -102c-59.333 0 -99.333 19.333 -120 58s-24.334 106.667 -11.001 204c7.33301 54 17.666 98.167 30.999 132.5s31 59.833 53 76.5
s44.667 27.834 68 33.501s53.333 8.5 90 8.5c79.333 0 159 -8.66699 239 -26zM387.002 175.999l34.999 242c-61.333 1.33301 -95.666 2 -102.999 2c-34.667 0 -61 -1.66699 -79 -5s-33.833 -11.833 -47.5 -25.5s-23.667 -31.167 -30 -52.5s-12.5 -52.666 -18.5 -93.999
c-9.33301 -72.667 -10.5 -119.334 -3.5 -140.001s26.167 -31 57.5 -31c30.667 0 60.667 8.5 90 25.5s62.333 43.167 99 78.5z" />
    <glyph glyph-name="atilde" unicode="&#xe3;" 
d="M459 700l44.001 -3.99805c-0.666992 -38.667 -9.33398 -68 -26.001 -88s-37.667 -29 -63 -27c-26.667 2 -54.667 11.167 -84 27.5s-49.666 25.5 -60.999 27.5c-18.667 2 -32.5 -1.5 -41.5 -10.5s-14.833 -23.5 -17.5 -43.5l-44 4c1.33301 40 10.5 70 27.5 90
s37.833 29 62.5 27c23.333 -2 49.166 -10.833 77.499 -26.5s50.5 -24.5 66.5 -26.5c18.667 -2.66699 32.5 0.166016 41.5 8.49902s14.833 22.166 17.5 41.499zM460.001 0.00195312l-75.998 -0.000976562l4 90c-58.667 -68 -128.667 -102 -210 -102
c-59.333 0 -99.333 19.333 -120 58s-24.334 106.667 -11.001 204c7.33301 54 17.666 98.167 30.999 132.5s31 59.833 53 76.5s44.667 27.834 68 33.501s53.333 8.5 90 8.5c79.333 0 159 -8.66699 239 -26zM387.003 176.001l34.999 242c-61.333 1.33301 -95.666 2 -102.999 2
c-34.667 0 -61 -1.66699 -79 -5s-33.833 -11.833 -47.5 -25.5s-23.667 -31.167 -30 -52.5s-12.5 -52.666 -18.5 -93.999c-9.33301 -72.667 -10.5 -119.334 -3.5 -140.001s26.167 -31 57.5 -31c30.667 0 60.667 8.5 90 25.5s62.333 43.167 99 78.5z" />
    <glyph glyph-name="adieresis" unicode="&#xe4;" 
d="M260 586h-32.002c-18 0 -26 8.33301 -24 25l9 55c2 18 12.333 27 31 27h29c10.667 0 17.834 -2 21.501 -6s4.83398 -11 3.50098 -21l-9 -54c-2 -17.333 -11.667 -26 -29 -26zM426.998 586h-32.002c-18 0 -26 8.33301 -24 25l9 55c2.66699 18 13 27 31 27h29
c10.667 0 17.834 -2 21.501 -6s4.83398 -11 3.50098 -21l-9 -54c-2 -17.333 -11.667 -26 -29 -26zM459.996 0l-75.998 -0.000976562l4 90c-58.667 -68 -128.667 -102 -210 -102c-59.333 0 -99.333 19.333 -120 58s-24.334 106.667 -11.001 204
c7.33301 54 17.666 98.167 30.999 132.5s31 59.833 53 76.5s44.667 27.834 68 33.501s53.333 8.5 90 8.5c79.333 0 159 -8.66699 239 -26zM386.998 175.999l34.999 242c-61.333 1.33301 -95.666 2 -102.999 2c-34.667 0 -61 -1.66699 -79 -5s-33.833 -11.833 -47.5 -25.5
s-23.667 -31.167 -30 -52.5s-12.5 -52.666 -18.5 -93.999c-9.33301 -72.667 -10.5 -119.334 -3.5 -140.001s26.167 -31 57.5 -31c30.667 0 60.667 8.5 90 25.5s62.333 43.167 99 78.5z" />
    <glyph glyph-name="aring" unicode="&#xe5;" 
d="M330 534c-33.333 0 -59.667 10.5 -79 31.5s-27.333 47.167 -24 78.5c3.33301 29.333 15 54 35 74s46 30 78 30c32.667 0 59 -10.5 79 -31.5s28 -47.5 24 -79.5c-3.33301 -29.333 -15 -53.833 -35 -73.5s-46 -29.5 -78 -29.5zM278.999 641c-2 -18 2 -32.167 12 -42.5
s23.333 -15.5 40 -15.5s30.5 5.5 41.5 16.5s17.167 25.5 18.5 43.5c1.33301 16.667 -2.5 30.167 -11.5 40.5s-21.833 15.5 -38.5 15.5c-17.333 0 -31.5 -5.33301 -42.5 -16s-17.5 -24.667 -19.5 -42zM459.999 0l-75.998 -0.000976562l4 90
c-58.667 -68 -128.667 -102 -210 -102c-59.333 0 -99.333 19.333 -120 58s-24.334 106.667 -11.001 204c7.33301 54 17.666 98.167 30.999 132.5s31 59.833 53 76.5s44.667 27.834 68 33.501s53.333 8.5 90 8.5c79.333 0 159 -8.66699 239 -26zM387.001 175.999l34.999 242
c-61.333 1.33301 -95.666 2 -102.999 2c-34.667 0 -61 -1.66699 -79 -5s-33.833 -11.833 -47.5 -25.5s-23.667 -31.167 -30 -52.5s-12.5 -52.666 -18.5 -93.999c-9.33301 -72.667 -10.5 -119.334 -3.5 -140.001s26.167 -31 57.5 -31c30.667 0 60.667 8.5 90 25.5
s62.333 43.167 99 78.5z" />
    <glyph glyph-name="ae" unicode="&#xe6;" horiz-adv-x="874" 
d="M774 81l6.00195 -65c-45.333 -18.667 -111 -28 -197 -28c-104.667 0 -169.334 35 -194.001 105c-59.333 -70 -130.333 -105 -213 -105c-58.667 0 -98.334 19.667 -119.001 59s-24 107 -10 203c7.33301 54.667 17.666 99 30.999 133s31 59.5 53 76.5
s44.5 28.167 67.5 33.5s52.833 8 89.5 8c69.333 0 141.666 -7.33301 216.999 -22c37.333 14.667 86 22 146 22c76 0 127.5 -13.333 154.5 -40s36.833 -66 29.5 -118c-7.33301 -47.333 -25.666 -81.5 -54.999 -102.5s-74.333 -33.833 -135 -38.5l-170 -15
c0 -46 9.83301 -77.167 29.5 -93.5s50.834 -24.5 93.501 -24.5c45.333 0 104 4 176 12zM196.002 72c30 0 58.999 7.66602 86.999 22.999s59 39.333 93 72c-1.33301 30.667 0.333984 60.667 5.00098 90c8.66699 68.667 25 122 49 160c-16 0 -36.833 0.5 -62.5 1.5
s-42.167 1.5 -49.5 1.5c-63.333 0 -105 -10.167 -125 -30.5s-35.333 -69.166 -46 -146.499c-10 -72 -11.667 -118.5 -5 -139.5s24.667 -31.5 54 -31.5zM482.001 258.999l162 15.001c30.667 2 53 8.5 67 19.5s23.333 30.167 28 57.5c4 31.333 -1.16699 50.666 -15.5 57.999
s-43.5 11 -87.5 11c-51.333 0 -87.333 -10.5 -108 -31.5s-36 -64.167 -46 -129.5z" />
    <glyph glyph-name="ccedilla" unicode="&#xe7;" horiz-adv-x="486" 
d="M410 80l7.00586 -66c-50 -17.333 -107.333 -26 -172 -26c-86 0 -144.333 20 -175 60s-39.334 106.667 -26.001 200c12.667 93.333 38.667 158.833 78 196.5s101 56.5 185 56.5c65.333 0 118.666 -8.66699 159.999 -26l-15 -60c-40 2.66699 -83.333 4 -130 4
c-58.667 0 -100.834 -11.833 -126.501 -35.5s-42.834 -71.167 -51.501 -142.5s-4.83398 -117.833 11.499 -139.5s52.166 -32.5 107.499 -32.5c56.667 0 105.667 3.66699 147 11zM166.006 -99l10.999 44.999c44.667 4 75.834 1.33301 93.501 -8s23.5 -29.666 17.5 -60.999
c-6.66699 -42.667 -27.5 -75 -62.5 -97s-76.833 -29.667 -125.5 -23l18 51c25.333 -0.666992 47.5 5.33301 66.5 18s30.5 29.667 34.5 51c2 9.33301 -0.166992 15.5 -6.5 18.5s-21.833 4.83301 -46.5 5.5z" />
    <glyph glyph-name="egrave" unicode="&#xe8;" horiz-adv-x="539" 
d="M338 547l-195 122l52 68l177 -147zM443 81l6 -65c-47.333 -18.667 -114.333 -28 -201 -28c-83.333 0 -141 21.833 -173 65.5s-42 111.5 -30 203.5c12.667 94 38.5 158.167 77.5 192.5s103.167 51.5 192.5 51.5c76 0 127.667 -13.333 155 -40s37.333 -66 30 -118
c-8 -47.333 -26.667 -81.5 -56 -102.5s-74.333 -33.833 -135 -38.5l-169 -15c-0.666992 -46 9 -77.167 29 -93.5s51.333 -24.5 94 -24.5c45.333 0 105.333 4 180 12zM146 259l163 15.001c30.667 2 53 8.5 67 19.5s23 30.167 27 57.5c4 31.333 -1.16699 50.666 -15.5 57.999
s-43.5 11 -87.5 11c-50.667 0 -86.5 -10.5 -107.5 -31.5s-36.5 -64.167 -46.5 -129.5z" />
    <glyph glyph-name="eacute" unicode="&#xe9;" horiz-adv-x="539" 
d="M281 547l-29 45l196 146l46 -74zM443 81l6 -65c-47.333 -18.667 -114.333 -28 -201 -28c-83.333 0 -141 21.833 -173 65.5s-42 111.5 -30 203.5c12.667 94 38.5 158.167 77.5 192.5s103.167 51.5 192.5 51.5c76 0 127.667 -13.333 155 -40s37.333 -66 30 -118
c-8 -47.333 -26.667 -81.5 -56 -102.5s-74.333 -33.833 -135 -38.5l-169 -15c-0.666992 -46 9 -77.167 29 -93.5s51.333 -24.5 94 -24.5c45.333 0 105.333 4 180 12zM146 259l163 15.001c30.667 2 53 8.5 67 19.5s23 30.167 27 57.5c4 31.333 -1.16699 50.666 -15.5 57.999
s-43.5 11 -87.5 11c-50.667 0 -86.5 -10.5 -107.5 -31.5s-36.5 -64.167 -46.5 -129.5z" />
    <glyph glyph-name="ecircumflex" unicode="&#xea;" horiz-adv-x="539" 
d="M183 549l-27 42l147 129h69l124 -136l-35 -38l-121 101h-8zM443 81l6 -65c-47.333 -18.667 -114.333 -28 -201 -28c-83.333 0 -141 21.833 -173 65.5s-42 111.5 -30 203.5c12.667 94 38.5 158.167 77.5 192.5s103.167 51.5 192.5 51.5c76 0 127.667 -13.333 155 -40
s37.333 -66 30 -118c-8 -47.333 -26.667 -81.5 -56 -102.5s-74.333 -33.833 -135 -38.5l-169 -15c-0.666992 -46 9 -77.167 29 -93.5s51.333 -24.5 94 -24.5c45.333 0 105.333 4 180 12zM146 259l163 15.001c30.667 2 53 8.5 67 19.5s23 30.167 27 57.5
c4 31.333 -1.16699 50.666 -15.5 57.999s-43.5 11 -87.5 11c-50.667 0 -86.5 -10.5 -107.5 -31.5s-36.5 -64.167 -46.5 -129.5z" />
    <glyph glyph-name="edieresis" unicode="&#xeb;" horiz-adv-x="539" 
d="M254 586h-32.002c-18 0 -26 8.33301 -24 25l9 55c2.66699 18 13 27 31 27h29c10.667 0 17.834 -2 21.501 -6s4.83398 -11 3.50098 -21l-9 -54c-2 -17.333 -11.667 -26 -29 -26zM421.998 586h-33.001c-17.333 0 -25 8.33301 -23 25l8 55c2.66699 18 13.334 27 32.001 27
h29c10.667 0 17.667 -2 21 -6s4.33301 -11 3 -21l-9 -54c-0.666992 -17.333 -10 -26 -28 -26zM442.997 81l6 -65c-47.333 -18.667 -114.333 -28 -201 -28c-83.333 0 -141 21.833 -173 65.5s-42 111.5 -30 203.5c12.667 94 38.5 158.167 77.5 192.5s103.167 51.5 192.5 51.5
c76 0 127.667 -13.333 155 -40s37.333 -66 30 -118c-8 -47.333 -26.667 -81.5 -56 -102.5s-74.333 -33.833 -135 -38.5l-169 -15c-0.666992 -46 9 -77.167 29 -93.5s51.333 -24.5 94 -24.5c45.333 0 105.333 4 180 12zM145.997 259l163 15.001c30.667 2 53 8.5 67 19.5
s23 30.167 27 57.5c4 31.333 -1.16699 50.666 -15.5 57.999s-43.5 11 -87.5 11c-50.667 0 -86.5 -10.5 -107.5 -31.5s-36.5 -64.167 -46.5 -129.5z" />
    <glyph glyph-name="igrave" unicode="&#xec;" horiz-adv-x="252" 
d="M218 590l-34 -43l-195 122l52 68zM133 0h-97l69 488h97z" />
    <glyph glyph-name="iacute" unicode="&#xed;" horiz-adv-x="252" 
d="M341 664l-213 -117l-29 45l196 146zM133 0h-97l69 488h97z" />
    <glyph glyph-name="icircumflex" unicode="&#xee;" horiz-adv-x="252" 
d="M343 584l-36 -38l-120 101h-8l-149 -98l-28 42l148 129h68zM133 0h-97l69 488h97z" />
    <glyph glyph-name="idieresis" unicode="&#xef;" horiz-adv-x="252" 
d="M252 693h28.998c10.667 0 17.834 -2 21.501 -6s4.83398 -11 3.50098 -21l-9 -54c-2 -17.333 -11.667 -26 -29 -26h-32c-18 0 -26 8.33301 -24 25l9 55c2.66699 18 13 27 31 27zM84.998 693h29c10.667 0 17.667 -2 21 -6s4.33301 -11 3 -21l-9 -54
c-0.666992 -17.333 -10 -26 -28 -26h-32c-18 0 -26 8.33301 -24 25l9 55c2 18 12.333 27 31 27zM132.998 0h-97l69 488h97z" />
    <glyph glyph-name="eth" unicode="&#xf0;" horiz-adv-x="557" 
d="M495 673l-72 -51.001c70 -68.667 94.667 -182.667 74 -342c-12.667 -98.667 -38.834 -172.167 -78.501 -220.5s-102.167 -72.5 -187.5 -72.5c-76.667 0 -130.167 19.167 -160.5 57.5s-40.166 97.5 -29.499 177.5c19.333 151.333 94.333 227 225 227
c58 0 104.333 -16.667 139 -50c-0.666992 79.333 -18 137 -52 173l-86 -60l-26 37l73 53c-33.333 18.667 -82.333 27.334 -147 26.001l15 70c83.333 3.33301 151 -11.667 203 -45l83 59zM236 67.999c50.667 0 87.8311 16.999 111.498 50.999s40.5 91.333 50.5 172
c2.66699 20.667 4.33398 35 5.00098 43c-32 22 -70 33 -114 33c-46 0 -80.167 -12.333 -102.5 -37s-37.5 -63 -45.5 -115c-7.33301 -53.333 -3.66602 -91.166 11.001 -113.499s42.667 -33.5 84 -33.5z" />
    <glyph glyph-name="ntilde" unicode="&#xf1;" horiz-adv-x="580" 
d="M467 700l44 -3.99805c-0.666992 -38.667 -9.16699 -68 -25.5 -88s-37.5 -29 -63.5 -27s-53.667 11.167 -83 27.5s-50 25.5 -62 27.5c-18 2 -31.5 -1.5 -40.5 -10.5s-14.833 -23.5 -17.5 -43.5l-44 4c0.666992 40 9.66699 70 27 90s38.333 29 63 27
c22.667 -2 48.167 -10.833 76.5 -26.5s50.5 -24.5 66.5 -26.5c18.667 -2.66699 32.5 0.166016 41.5 8.49902s14.833 22.166 17.5 41.499zM178 488.002l-4.99902 -105c88 78.667 165 118 231 118c41.333 0 72.666 -11.833 93.999 -35.5s28.666 -57.5 21.999 -101.5l-52 -364
h-96l47 340c4 30.667 2.83301 51.5 -3.5 62.5s-20.166 16.5 -41.499 16.5c-27.333 0 -55.833 -8.33301 -85.5 -25s-68.5 -44 -116.5 -82l-43 -312h-97l69 488h77z" />
    <glyph glyph-name="ograve" unicode="&#xf2;" horiz-adv-x="566" 
d="M373 590l-34 -43l-195 122l52 68zM307 501c84 0 141.997 -20.168 173.997 -60.501s41.333 -107.166 28 -200.499c-12.667 -92 -39 -157.167 -79 -195.5s-101 -57.5 -183 -57.5c-83.333 0 -141.166 20.167 -173.499 60.5s-42.166 106.833 -29.499 199.5
c12.667 92 38.834 157.333 78.501 196s101.167 58 184.5 58zM306.997 418.999c-51.333 0 -88.832 -12.333 -112.499 -37s-40.5 -72 -50.5 -142c-9.33301 -67.333 -6.83301 -112.833 7.5 -136.5s46.166 -35.5 95.499 -35.5c52 0 89.667 12.833 113 38.5
s39.666 72.5 48.999 140.5c10 67.333 7.83301 112.833 -6.5 136.5s-46.166 35.5 -95.499 35.5z" />
    <glyph glyph-name="oacute" unicode="&#xf3;" horiz-adv-x="566" 
d="M496 664l-213 -117l-29 45l196 146zM307 501c84 0 141.997 -20.168 173.997 -60.501s41.333 -107.166 28 -200.499c-12.667 -92 -39 -157.167 -79 -195.5s-101 -57.5 -183 -57.5c-83.333 0 -141.166 20.167 -173.499 60.5s-42.166 106.833 -29.499 199.5
c12.667 92 38.834 157.333 78.501 196s101.167 58 184.5 58zM306.997 418.999c-51.333 0 -88.832 -12.333 -112.499 -37s-40.5 -72 -50.5 -142c-9.33301 -67.333 -6.83301 -112.833 7.5 -136.5s46.166 -35.5 95.499 -35.5c52 0 89.667 12.833 113 38.5
s39.666 72.5 48.999 140.5c10 67.333 7.83301 112.833 -6.5 136.5s-46.166 35.5 -95.499 35.5z" />
    <glyph glyph-name="ocircumflex" unicode="&#xf4;" horiz-adv-x="566" 
d="M498 584l-36 -38l-120 101h-8l-149 -98l-28 42l148 129h68zM307 501c84 0 141.997 -20.168 173.997 -60.501s41.333 -107.166 28 -200.499c-12.667 -92 -39 -157.167 -79 -195.5s-101 -57.5 -183 -57.5c-83.333 0 -141.166 20.167 -173.499 60.5
s-42.166 106.833 -29.499 199.5c12.667 92 38.834 157.333 78.501 196s101.167 58 184.5 58zM306.997 418.999c-51.333 0 -88.832 -12.333 -112.499 -37s-40.5 -72 -50.5 -142c-9.33301 -67.333 -6.83301 -112.833 7.5 -136.5s46.166 -35.5 95.499 -35.5
c52 0 89.667 12.833 113 38.5s39.666 72.5 48.999 140.5c10 67.333 7.83301 112.833 -6.5 136.5s-46.166 35.5 -95.499 35.5z" />
    <glyph glyph-name="otilde" unicode="&#xf5;" horiz-adv-x="566" 
d="M206 582l-43.998 4.00195c1.33301 40 10.5 70 27.5 90s37.833 29 62.5 27c23.333 -2 49.166 -10.833 77.499 -26.5s50.166 -24.5 65.499 -26.5c19.333 -2.66699 33.5 0.166016 42.5 8.49902s14.833 22.166 17.5 41.499l44 -4c-0.666992 -38.667 -9.33398 -68 -26.001 -88
s-38 -29 -64 -27s-53.667 11.167 -83 27.5s-49.666 25.5 -60.999 27.5c-18.667 2 -32.5 -1.5 -41.5 -10.5s-14.833 -23.5 -17.5 -43.5zM307.002 501.002c84 0 141.997 -20.168 173.997 -60.501s41.333 -107.166 28 -200.499c-12.667 -92 -39 -157.167 -79 -195.5
s-101 -57.5 -183 -57.5c-83.333 0 -141.166 20.167 -173.499 60.5s-42.166 106.833 -29.499 199.5c12.667 92 38.834 157.333 78.501 196s101.167 58 184.5 58zM306.999 419.001c-51.333 0 -88.832 -12.333 -112.499 -37s-40.5 -72 -50.5 -142
c-9.33301 -67.333 -6.83301 -112.833 7.5 -136.5s46.166 -35.5 95.499 -35.5c52 0 89.667 12.833 113 38.5s39.666 72.5 48.999 140.5c10 67.333 7.83301 112.833 -6.5 136.5s-46.166 35.5 -95.499 35.5z" />
    <glyph glyph-name="odieresis" unicode="&#xf6;" horiz-adv-x="566" 
d="M407 693h28.998c10.667 0 17.834 -2 21.501 -6s4.83398 -11 3.50098 -21l-9 -54c-2 -17.333 -11.667 -26 -29 -26h-32c-18 0 -26 8.33301 -24 25l9 55c2.66699 18 13 27 31 27zM239.998 693h29c10.667 0 17.667 -2 21 -6s4.33301 -11 3 -21l-8 -54
c-2 -17.333 -11.667 -26 -29 -26h-32c-18 0 -26 8.33301 -24 25l9 55c2 18 12.333 27 31 27zM306.998 501c84 0 141.997 -20.168 173.997 -60.501s41.333 -107.166 28 -200.499c-12.667 -92 -39 -157.167 -79 -195.5s-101 -57.5 -183 -57.5
c-83.333 0 -141.166 20.167 -173.499 60.5s-42.166 106.833 -29.499 199.5c12.667 92 38.834 157.333 78.501 196s101.167 58 184.5 58zM306.995 418.999c-51.333 0 -88.832 -12.333 -112.499 -37s-40.5 -72 -50.5 -142c-9.33301 -67.333 -6.83301 -112.833 7.5 -136.5
s46.166 -35.5 95.499 -35.5c52 0 89.667 12.833 113 38.5s39.666 72.5 48.999 140.5c10 67.333 7.83301 112.833 -6.5 136.5s-46.166 35.5 -95.499 35.5z" />
    <glyph glyph-name="divide" unicode="&#xf7;" horiz-adv-x="563" 
d="M299 529h24.999c25.333 0 36 -12.333 32 -37l-6 -47c-2.66699 -21.333 -15 -32 -37 -32h-25c-26 0 -37 12 -33 36l6 46c2.66699 22.667 15.334 34 38.001 34zM497.999 259h-443l11 72h442zM247.999 176h25.001c26.667 0 38 -12.667 34 -38l-7 -46
c-2.66699 -22 -15.334 -33 -38.001 -33h-25c-24.667 0 -35 12.667 -31 38l6 45c2.66699 22.667 14.667 34 36 34z" />
    <glyph glyph-name="oslash" unicode="&#xf8;" horiz-adv-x="566" 
d="M492 543l-44 -73c57.333 -36 77.666 -112.667 60.999 -230c-12.667 -92 -39 -157.167 -79 -195.5s-101 -57.5 -183 -57.5c-32.667 0 -61.667 3 -87 9l-45 -74l-41 24l40 67c-64 35.333 -87.333 113.333 -70 234c12.667 92 38.834 157.333 78.501 196s101.167 58 184.5 58
c36.667 0 68.667 -4 96 -12l47 79zM162 91l195.001 323c-10.667 3.33301 -27.334 5 -50.001 5c-51.333 0 -88.833 -12.333 -112.5 -37s-40.5 -72 -50.5 -142c-10.667 -77.333 -4.66699 -127 18 -149zM399.001 389l-193 -318c12 -2 25.667 -3 41 -3
c52 0 89.667 12.833 113 38.5s39.666 72.5 48.999 140.5c10.667 72 7.33398 119.333 -9.99902 142z" />
    <glyph glyph-name="ugrave" unicode="&#xf9;" horiz-adv-x="569" 
d="M345 551l-195 122l52 69l177 -147zM523 488l-68 -487.999h-75l6 102c-79.333 -76.667 -153.333 -115 -222 -115c-44 0 -76 12.167 -96 36.5s-27 57.5 -21 99.5l51 365h97l-49 -340c-4 -28.667 -2 -48.834 6 -60.501s23.333 -17.5 46 -17.5c27.333 0 54 8 80 24
s61.667 44 107 84l42 310h96z" />
    <glyph glyph-name="uacute" unicode="&#xfa;" horiz-adv-x="569" 
d="M288 551l-28 45l196 147l45 -75zM523 488l-68 -487.999h-75l6 102c-79.333 -76.667 -153.333 -115 -222 -115c-44 0 -76 12.167 -96 36.5s-27 57.5 -21 99.5l51 365h97l-49 -340c-4 -28.667 -2 -48.834 6 -60.501s23.333 -17.5 46 -17.5c27.333 0 54 8 80 24
s61.667 44 107 84l42 310h96z" />
    <glyph glyph-name="ucircumflex" unicode="&#xfb;" horiz-adv-x="569" 
d="M190 553l-27 42l147 129h69l124 -135l-35 -38l-120 101h-8zM523 488l-68 -487.999h-75l6 102c-79.333 -76.667 -153.333 -115 -222 -115c-44 0 -76 12.167 -96 36.5s-27 57.5 -21 99.5l51 365h97l-49 -340c-4 -28.667 -2 -48.834 6 -60.501s23.333 -17.5 46 -17.5
c27.333 0 54 8 80 24s61.667 44 107 84l42 310h96z" />
    <glyph glyph-name="udieresis" unicode="&#xfc;" horiz-adv-x="569" 
d="M261 590h-32c-18 0 -26 8.33301 -24 25l9 56c2.66699 18 13 27 31 27h29c20 0 28.333 -9 25 -27l-9 -55c-2 -17.333 -11.667 -26 -29 -26zM429 590l-32 -0.000976562c-18 0 -26 8.33301 -24 25l9 56c2 18 12.333 27 31 27h29c10.667 0 17.667 -2.16699 21 -6.5
s4.33301 -11.166 3 -20.499l-8 -55c-2 -17.333 -11.667 -26 -29 -26zM523 487.999l-68 -487.999h-75l6 102c-79.333 -76.667 -153.333 -115 -222 -115c-44 0 -76 12.167 -96 36.5s-27 57.5 -21 99.5l51 365h97l-49 -340c-4 -28.667 -2 -48.834 6 -60.501
s23.333 -17.5 46 -17.5c27.333 0 54 8 80 24s61.667 44 107 84l42 310h96z" />
    <glyph glyph-name="yacute" unicode="&#xfd;" horiz-adv-x="545" 
d="M256 547l-28 45l196 146l45 -74zM430 488h101c-36 -158.667 -83 -293 -141 -403c-52 -98.667 -103.5 -168.667 -154.5 -210s-111.833 -68 -182.5 -80l-18 69c42.667 10 80 25 112 45s62.667 50.333 92 91h-45c-15.333 0 -28.333 4.16699 -39 12.5
s-17.334 19.833 -20.001 34.5l-94 441h102l74 -395c2 -11.333 8.66699 -17 20 -17h49c2.66699 4.66699 6.33398 11.5 11.001 20.5l9 17.5c58.667 122 100 246.667 124 374z" />
    <glyph glyph-name="thorn" unicode="&#xfe;" 
d="M182 415l1.99902 -5.99902c59.333 60.667 126.666 91 201.999 91c55.333 0 94 -19.167 116 -57.5s26 -106.5 12 -204.5c-7.33301 -54.667 -17.666 -99 -30.999 -133s-30.666 -59.5 -51.999 -76.5s-43.333 -28.167 -66 -33.5s-51.667 -8 -87 -8c-42 0 -92 4 -150 12
c-2 -20.667 -5 -43.334 -9 -68.001l-18 -130h-96l126 899h96l-24 -173c-6 -46 -13 -83.333 -21 -112zM171.999 310.001l-33 -240.001c62.667 -1.33301 97 -2 103 -2c64 0 106 10 126 30s35.333 69 46 147c10 72.667 11.667 119.334 5 140.001s-25 31 -55 31
c-31.333 0 -61.833 -8.66699 -91.5 -26s-63.167 -44 -100.5 -80z" />
    <glyph glyph-name="ydieresis" unicode="&#xff;" horiz-adv-x="545" 
d="M230 586h-33.002c-16.667 0 -24.667 8.33301 -24 25l9 55c2.66699 18 13 27 31 27h29c10.667 0 17.834 -2 21.501 -6s4.83398 -11 3.50098 -21l-9 -54c-2 -17.333 -11.333 -26 -28 -26zM396.998 586h-32.002c-18 0 -26 8.33301 -24 25l9 55c2 18 12.333 27 31 27h29
c10.667 0 17.834 -2 21.501 -6s4.83398 -11 3.50098 -21l-9 -54c-2 -17.333 -11.667 -26 -29 -26zM429.996 488h101c-36 -158.667 -83 -293 -141 -403c-52 -98.667 -103.5 -168.667 -154.5 -210s-111.833 -68 -182.5 -80l-18 69c42.667 10 80 25 112 45s62.667 50.333 92 91
h-45c-15.333 0 -28.333 4.16699 -39 12.5s-17.334 19.833 -20.001 34.5l-94 441h102l74 -395c2 -11.333 8.66699 -17 20 -17h49c2.66699 4.66699 6.33398 11.5 11.001 20.5l9 17.5c58.667 122 100 246.667 124 374z" />
    <glyph glyph-name="Amacron" unicode="&#x100;" horiz-adv-x="623" 
d="M525 782h-283l10 71h283zM442 208h-276l-92 -208h-106l310 665c6.66699 16.667 19.667 25 39 25h102c8.66699 0 16.167 -2.83301 22.5 -8.5s9.83301 -12.5 10.5 -20.5l125 -661h-100zM428 296l-42.999 259c-2.66699 13.333 -5.33398 33.333 -8.00098 60h-30l-26 -60
l-116 -259h223z" />
    <glyph glyph-name="amacron" unicode="&#x101;" 
d="M470 603h-282l10 71h282zM460 0l-75.998 -0.000976562l4 90c-58.667 -68 -128.667 -102 -210 -102c-59.333 0 -99.333 19.333 -120 58s-24.334 106.667 -11.001 204c7.33301 54 17.666 98.167 30.999 132.5s31 59.833 53 76.5s44.667 27.834 68 33.501s53.333 8.5 90 8.5
c79.333 0 159 -8.66699 239 -26zM387.002 175.999l34.999 242c-61.333 1.33301 -95.666 2 -102.999 2c-34.667 0 -61 -1.66699 -79 -5s-33.833 -11.833 -47.5 -25.5s-23.667 -31.167 -30 -52.5s-12.5 -52.666 -18.5 -93.999c-9.33301 -72.667 -10.5 -119.334 -3.5 -140.001
s26.167 -31 57.5 -31c30.667 0 60.667 8.5 90 25.5s62.333 43.167 99 78.5z" />
    <glyph glyph-name="Abreve" unicode="&#x102;" horiz-adv-x="623" 
d="M501 888l48 -11c-2.66699 -40 -19 -72.167 -49 -96.5s-68.667 -36.5 -116 -36.5c-50.667 0 -88.834 12.833 -114.501 38.5s-34.167 58.167 -25.5 97.5l50 4c-3.33301 -22 2.83398 -39 18.501 -51s39.167 -18 70.5 -18c34 0 61.5 6.5 82.5 19.5s32.833 30.833 35.5 53.5z
M442 208h-276l-92 -208h-106l310 665c6.66699 16.667 19.667 25 39 25h102c8.66699 0 16.167 -2.83301 22.5 -8.5s9.83301 -12.5 10.5 -20.5l125 -661h-100zM428 296l-42.999 259c-2.66699 13.333 -5.33398 33.333 -8.00098 60h-30l-26 -60l-116 -259h223z" />
    <glyph glyph-name="abreve" unicode="&#x103;" 
d="M446 709l48.9961 -12c-3.33301 -40 -20 -72.167 -50 -96.5s-68.667 -36.5 -116 -36.5c-50.667 0 -88.667 12.833 -114 38.5s-33.666 58.5 -24.999 98.5l49 4c-2.66699 -22 3.83301 -39.167 19.5 -51.5s38.834 -18.5 69.501 -18.5c34.667 0 62.334 6.5 83.001 19.5
s32.334 31.167 35.001 54.5zM459.996 0l-75.998 -0.000976562l4 90c-58.667 -68 -128.667 -102 -210 -102c-59.333 0 -99.333 19.333 -120 58s-24.334 106.667 -11.001 204c7.33301 54 17.666 98.167 30.999 132.5s31 59.833 53 76.5s44.667 27.834 68 33.501
s53.333 8.5 90 8.5c79.333 0 159 -8.66699 239 -26zM386.998 175.999l34.999 242c-61.333 1.33301 -95.666 2 -102.999 2c-34.667 0 -61 -1.66699 -79 -5s-33.833 -11.833 -47.5 -25.5s-23.667 -31.167 -30 -52.5s-12.5 -52.666 -18.5 -93.999
c-9.33301 -72.667 -10.5 -119.334 -3.5 -140.001s26.167 -31 57.5 -31c30.667 0 60.667 8.5 90 25.5s62.333 43.167 99 78.5z" />
    <glyph glyph-name="Aogonek" unicode="&#x104;" horiz-adv-x="623" 
d="M452 661l125.001 -660.999c-32 -34 -60.333 -72.333 -85 -115c-18.667 -30.667 -13.334 -46 15.999 -46c12 0 28 3 48 9l12 -42c-26.667 -10 -50.5 -16.167 -71.5 -18.5s-37.667 -1 -50 4s-21.833 12.167 -28.5 21.5s-9.66699 20.5 -9 33.5s4.66699 26.833 12 41.5
c20 37.333 55.667 74.666 107 111.999h-51l-35 208h-276l-92 -208h-106l310 665c6.66699 16.667 19.667 25 39 25h102c8.66699 0 16.167 -2.83301 22.5 -8.5s9.83301 -12.5 10.5 -20.5zM428.001 296.001l-42.999 259c-2.66699 13.333 -5.33398 33.333 -8.00098 60h-30
l-26 -60l-116 -259h223z" />
    <glyph glyph-name="aogonek" unicode="&#x105;" 
d="M528 475l-67.998 -475.001c-32 -34 -60.333 -72.333 -85 -115c-12.667 -22 -13 -36.333 -1 -43s34 -4.66699 66 6l11 -42c-26.667 -10 -50.5 -16.167 -71.5 -18.5s-37.667 -1 -50 4s-21.833 12.167 -28.5 21.5s-9.5 20.5 -8.5 33.5s5.16699 26.833 12.5 41.5
c20 38 55.667 75.333 107 112h-28l4 90c-58.667 -68 -128.667 -102 -210 -102c-59.333 0 -99.333 19.333 -120 58s-24.334 106.667 -11.001 204c7.33301 54 17.666 98.167 30.999 132.5s31 59.833 53 76.5s44.667 27.834 68 33.501s53.333 8.5 90 8.5
c79.333 0 159 -8.66699 239 -26zM387.002 175.999l34.999 242c-61.333 1.33301 -95.666 2 -102.999 2c-34.667 0 -61 -1.66699 -79 -5s-33.833 -11.833 -47.5 -25.5s-23.667 -31.167 -30 -52.5s-12.5 -52.666 -18.5 -93.999c-9.33301 -72.667 -10.5 -119.334 -3.5 -140.001
s26.167 -31 57.5 -31c30.667 0 60.667 8.5 90 25.5s62.333 43.167 99 78.5z" />
    <glyph glyph-name="Cacute" unicode="&#x106;" horiz-adv-x="568" 
d="M559 843l-213 -117l-29 45l196 147zM494 88l4.99902 -77c-55.333 -15.333 -124 -23 -206 -23c-99.333 0 -166.666 28.5 -201.999 85.5s-43.666 148.833 -24.999 275.5c18 130.667 50.333 222.167 97 274.5s120 78.5 220 78.5c71.333 0 135 -7 191 -21l-16 -76
c-52.667 5.33301 -111.667 8 -177 8c-44.667 0 -79.834 -7.33301 -105.501 -22s-47.167 -41.667 -64.5 -81s-31 -95.666 -41 -168.999c-14.667 -100 -13 -168.833 5 -206.5s58 -56.834 120 -57.501c74.667 -0.666992 141 3 199 11z" />
    <glyph glyph-name="cacute" unicode="&#x107;" horiz-adv-x="486" 
d="M477 664l-213 -117l-28 45l196 146zM410 80l7.00586 -66c-50 -17.333 -107.333 -26 -172 -26c-86 0 -144.333 20 -175 60s-39.334 106.667 -26.001 200c12.667 93.333 38.667 158.833 78 196.5s101 56.5 185 56.5c65.333 0 118.666 -8.66699 159.999 -26l-15 -60
c-40 2.66699 -83.333 4 -130 4c-58.667 0 -100.834 -11.833 -126.501 -35.5s-42.834 -71.167 -51.501 -142.5s-4.83398 -117.833 11.499 -139.5s52.166 -32.5 107.499 -32.5c56.667 0 105.667 3.66699 147 11z" />
    <glyph glyph-name="Cdotaccent" unicode="&#x10a;" horiz-adv-x="568" 
d="M382 869h31c9.33301 0 16.5 -2.83301 21.5 -8.5s6.83301 -13.167 5.5 -22.5l-8 -55c-2 -18 -11.667 -27 -29 -27h-31c-20 0 -29 10 -27 30l7 56c2.66699 18 12.667 27 30 27zM494 88l4.99902 -77c-55.333 -15.333 -124 -23 -206 -23
c-99.333 0 -166.666 28.5 -201.999 85.5s-43.666 148.833 -24.999 275.5c18 130.667 50.333 222.167 97 274.5s120 78.5 220 78.5c71.333 0 135 -7 191 -21l-16 -76c-52.667 5.33301 -111.667 8 -177 8c-44.667 0 -79.834 -7.33301 -105.501 -22s-47.167 -41.667 -64.5 -81
s-31 -95.666 -41 -168.999c-14.667 -100 -13 -168.833 5 -206.5s58 -56.834 120 -57.501c74.667 -0.666992 141 3 199 11z" />
    <glyph glyph-name="cdotaccent" unicode="&#x10b;" horiz-adv-x="486" 
d="M301 689l31 0.000976562c9.33301 0 16.5 -2.83301 21.5 -8.5s6.83301 -12.834 5.5 -21.501l-8 -56c-3.33301 -18 -13.333 -27 -30 -27h-30c-9.33301 0 -16.5 2.83301 -21.5 8.5s-6.83301 13.167 -5.5 22.5l7 55c2.66699 18 12.667 27 30 27zM410 80.001l7.00586 -66
c-50 -17.333 -107.333 -26 -172 -26c-86 0 -144.333 20 -175 60s-39.334 106.667 -26.001 200c12.667 93.333 38.667 158.833 78 196.5s101 56.5 185 56.5c65.333 0 118.666 -8.66699 159.999 -26l-15 -60c-40 2.66699 -83.333 4 -130 4
c-58.667 0 -100.834 -11.833 -126.501 -35.5s-42.834 -71.167 -51.501 -142.5s-4.83398 -117.833 11.499 -139.5s52.166 -32.5 107.499 -32.5c56.667 0 105.667 3.66699 147 11z" />
    <glyph glyph-name="Ccaron" unicode="&#x10c;" horiz-adv-x="568" 
d="M569 871l-149 -129h-70l-117 136l39 35l113 -99h8l147 99zM494 88l4.99902 -77c-55.333 -15.333 -124 -23 -206 -23c-99.333 0 -166.666 28.5 -201.999 85.5s-43.666 148.833 -24.999 275.5c18 130.667 50.333 222.167 97 274.5s120 78.5 220 78.5
c71.333 0 135 -7 191 -21l-16 -76c-52.667 5.33301 -111.667 8 -177 8c-44.667 0 -79.834 -7.33301 -105.501 -22s-47.167 -41.667 -64.5 -81s-31 -95.666 -41 -168.999c-14.667 -100 -13 -168.833 5 -206.5s58 -56.834 120 -57.501c74.667 -0.666992 141 3 199 11z" />
    <glyph glyph-name="ccaron" unicode="&#x10d;" horiz-adv-x="486" 
d="M488 692l-149 -129h-70l-117 135l39 36l113 -100h8l146 100zM410 80l7.00586 -66c-50 -17.333 -107.333 -26 -172 -26c-86 0 -144.333 20 -175 60s-39.334 106.667 -26.001 200c12.667 93.333 38.667 158.833 78 196.5s101 56.5 185 56.5
c65.333 0 118.666 -8.66699 159.999 -26l-15 -60c-40 2.66699 -83.333 4 -130 4c-58.667 0 -100.834 -11.833 -126.501 -35.5s-42.834 -71.167 -51.501 -142.5s-4.83398 -117.833 11.499 -139.5s52.166 -32.5 107.499 -32.5c56.667 0 105.667 3.66699 147 11z" />
    <glyph glyph-name="Dcaron" unicode="&#x10e;" horiz-adv-x="663" 
d="M346 742l-117 136l39 35l113 -99h8l146 99l30 -42l-149 -129h-70zM42 0l97.0029 690c81.333 6 156.333 9 225 9c109.333 0 182.666 -26.333 219.999 -79s46.666 -145.667 27.999 -279c-7.33301 -51.333 -15.833 -95.333 -25.5 -132s-21.667 -68 -36 -94
s-29.833 -47 -46.5 -63s-37.334 -28.667 -62.001 -38s-50 -15.5 -76 -18.5s-57.667 -4.5 -95 -4.5c-64 0 -140.333 3 -229 9zM228.003 611l-75.001 -531c57.333 -1.33301 96.333 -2 117 -2c54 0 95.333 6.66699 124 20s52 39 70 77s32.667 96 44 174
c6.66699 45.333 10.334 82.833 11.001 112.5s-1.5 54.834 -6.5 75.501s-14.167 36.167 -27.5 46.5s-29.5 17.666 -48.5 21.999s-43.833 6.5 -74.5 6.5c-8 0 -28 -0.166992 -60 -0.5s-56.667 -0.5 -74 -0.5z" />
    <glyph glyph-name="dcaron" unicode="&#x10f;" 
d="M461 700l96.999 -0.000976562l-98 -700h-76l5 102c-69.333 -76 -143 -114 -221 -114c-51.333 0 -87.666 19.833 -108.999 59.5s-25.333 107.167 -12 202.5c8 54 18.5 98.167 31.5 132.5s30 59.833 51 76.5s42.5 27.834 64.5 33.501s50 8.5 84 8.5
c50 0 103 -4.33301 159 -13c0 22.667 2.33301 53.667 7 93zM648.999 698.999h26c22.667 0 32 -10.333 28 -31l-8 -54c-5.33301 -38 -23.333 -82.333 -54 -133l-43 13c16.667 49.333 27 83.666 31 102.999c-9.33301 -0.666992 -16.5 1.33301 -21.5 6
s-6.83301 11.334 -5.5 20.001l7 48c2.66699 11.333 6.5 18.833 11.5 22.5s14.5 5.5 28.5 5.5zM387.999 177.999l32.999 240.998c-30 1.33301 -65 2 -105 2c-33.333 0 -58.833 -1.66699 -76.5 -5s-33.334 -11.666 -47.001 -24.999s-23.5 -31 -29.5 -53s-12 -53.667 -18 -95
c-9.33301 -69.333 -10.666 -115.166 -3.99902 -137.499s25 -33.5 55 -33.5s59.333 8.16699 88 24.5s63.334 43.5 104.001 81.5z" />
    <glyph glyph-name="Dcroat" unicode="&#x110;" horiz-adv-x="663" 
d="M97 393l42.0029 297c81.333 6 156.333 9 225 9c109.333 0 182.666 -26.333 219.999 -79s46.666 -145.667 27.999 -279c-7.33301 -51.333 -15.833 -95.333 -25.5 -132s-21.667 -68 -36 -94s-29.833 -47 -46.5 -63s-37.334 -28.667 -62.001 -38s-50 -15.5 -76 -18.5
s-57.667 -4.5 -95 -4.5c-64 0 -140.333 3 -229 9l48 338h-63l7 55h63zM189.003 338l-36.001 -258c57.333 -1.33301 96.333 -2 117 -2c54 0 95.333 6.66699 124 20s52 39 70 77s32.667 96 44 174c6.66699 45.333 10.334 82.833 11.001 112.5s-1.5 54.834 -6.5 75.501
s-14.167 36.167 -27.5 46.5s-29.5 17.666 -48.5 21.999s-43.833 6.5 -74.5 6.5c-8 0 -28 -0.166992 -60 -0.5s-56.667 -0.5 -74 -0.5l-31 -218h149l-7 -55h-150z" />
    <glyph glyph-name="dcroat" unicode="&#x111;" 
d="M613 573l-72.001 -0.000976562l-81 -573h-76l5 102c-69.333 -76 -143 -114 -221 -114c-51.333 0 -87.666 19.833 -108.999 59.5s-25.333 107.167 -12 202.5c8 54 18.5 98.167 31.5 132.5s30 59.833 51 76.5s42.5 27.834 64.5 33.501s50 8.5 84 8.5
c50 0 103 -4.33301 159 -13c0 26.667 2 55 6 85h-143l7 54h144l10 73h97l-10 -73h72zM387.999 177.999l32.999 240.998c-30 1.33301 -65 2 -105 2c-33.333 0 -58.833 -1.66699 -76.5 -5s-33.334 -11.666 -47.001 -24.999s-23.5 -31 -29.5 -53s-12 -53.667 -18 -95
c-9.33301 -69.333 -10.666 -115.166 -3.99902 -137.499s25 -33.5 55 -33.5s59.333 8.16699 88 24.5s63.334 43.5 104.001 81.5z" />
    <glyph glyph-name="Emacron" unicode="&#x112;" horiz-adv-x="560" 
d="M521 802h-283l10 71h283zM551 606h-272.002c-21.333 0 -37.166 -4.83301 -47.499 -14.5s-16.833 -26.5 -19.5 -50.5l-19 -140h291l-10 -77h-292l-24 -178c-2.66699 -22.667 -0.166992 -38.667 7.5 -48s22.5 -14 44.5 -14h267l-2 -78
c-57.333 -5.33301 -149.666 -8 -276.999 -8c-53.333 0 -91.833 12.833 -115.5 38.5s-32.5 61.167 -26.5 106.5l59 427c5.33301 38.667 21 68.667 47 90s61 32 105 32c138 0 237 -2.66699 297 -8z" />
    <glyph glyph-name="emacron" unicode="&#x113;" horiz-adv-x="539" 
d="M465 603h-283l10 71h283zM443 81l6 -65c-47.333 -18.667 -114.333 -28 -201 -28c-83.333 0 -141 21.833 -173 65.5s-42 111.5 -30 203.5c12.667 94 38.5 158.167 77.5 192.5s103.167 51.5 192.5 51.5c76 0 127.667 -13.333 155 -40s37.333 -66 30 -118
c-8 -47.333 -26.667 -81.5 -56 -102.5s-74.333 -33.833 -135 -38.5l-169 -15c-0.666992 -46 9 -77.167 29 -93.5s51.333 -24.5 94 -24.5c45.333 0 105.333 4 180 12zM146 259l163 15.001c30.667 2 53 8.5 67 19.5s23 30.167 27 57.5c4 31.333 -1.16699 50.666 -15.5 57.999
s-43.5 11 -87.5 11c-50.667 0 -86.5 -10.5 -107.5 -31.5s-36.5 -64.167 -46.5 -129.5z" />
    <glyph glyph-name="Edotaccent" unicode="&#x116;" horiz-adv-x="560" 
d="M394 775l-30 -0.000976562c-9.33301 0 -16.5 2.83301 -21.5 8.5s-6.83301 13.167 -5.5 22.5l7 56c2.66699 17.333 12.667 26 30 26h31c9.33301 0 16.5 -2.66699 21.5 -8s6.83301 -12.666 5.5 -21.999l-8 -56c-2.66699 -18 -12.667 -27 -30 -27zM551 605.999h-272.002
c-21.333 0 -37.166 -4.83301 -47.499 -14.5s-16.833 -26.5 -19.5 -50.5l-19 -140h291l-10 -77h-292l-24 -178c-2.66699 -22.667 -0.166992 -38.667 7.5 -48s22.5 -14 44.5 -14h267l-2 -78c-57.333 -5.33301 -149.666 -8 -276.999 -8c-53.333 0 -91.833 12.833 -115.5 38.5
s-32.5 61.167 -26.5 106.5l59 427c5.33301 38.667 21 68.667 47 90s61 32 105 32c138 0 237 -2.66699 297 -8z" />
    <glyph glyph-name="edotaccent" unicode="&#x117;" horiz-adv-x="539" 
d="M338 576l-30.999 0.000976562c-9.33301 0 -16.333 2.83301 -21 8.5s-6.33398 13.167 -5.00098 22.5l7 55c2.66699 18 12.334 27 29.001 27h31c9.33301 0 16.666 -2.83301 21.999 -8.5s7.33301 -12.834 6 -21.501l-8 -56c-2.66699 -18 -12.667 -27 -30 -27z
M443.001 81.001l6 -65c-47.333 -18.667 -114.333 -28 -201 -28c-83.333 0 -141 21.833 -173 65.5s-42 111.5 -30 203.5c12.667 94 38.5 158.167 77.5 192.5s103.167 51.5 192.5 51.5c76 0 127.667 -13.333 155 -40s37.333 -66 30 -118c-8 -47.333 -26.667 -81.5 -56 -102.5
s-74.333 -33.833 -135 -38.5l-169 -15c-0.666992 -46 9 -77.167 29 -93.5s51.333 -24.5 94 -24.5c45.333 0 105.333 4 180 12zM146.001 259.001l163 15.001c30.667 2 53 8.5 67 19.5s23 30.167 27 57.5c4 31.333 -1.16699 50.666 -15.5 57.999s-43.5 11 -87.5 11
c-50.667 0 -86.5 -10.5 -107.5 -31.5s-36.5 -64.167 -46.5 -129.5z" />
    <glyph glyph-name="Eogonek" unicode="&#x118;" horiz-adv-x="560" 
d="M551 606l-272.001 -0.00195312c-21.333 0 -37.166 -4.83301 -47.499 -14.5s-16.833 -26.5 -19.5 -50.5l-19 -140h291l-10 -77h-292l-24 -178c-2.66699 -22.667 -0.166992 -38.667 7.5 -48s22.5 -14 44.5 -14h267l-2 -78c-32 -34 -60.333 -72.333 -85 -115
c-13.333 -22.667 -14 -37.167 -2 -43.5s34 -4.5 66 5.5l12 -41c-26.667 -10 -50.5 -16.167 -71.5 -18.5s-37.667 -1.16602 -50 3.50098s-21.833 11.834 -28.5 21.501s-9.66699 21 -9 34s4.66699 26.5 12 40.5c18 36 52 72.333 102 109c-48.667 -2.66699 -123 -4 -223 -4
c-53.333 0 -91.833 12.833 -115.5 38.5s-32.5 61.167 -26.5 106.5l59 427c5.33301 38.667 21 68.667 47 90s61 32 105 32c138 0 237 -2.66699 297 -8z" />
    <glyph glyph-name="eogonek" unicode="&#x119;" horiz-adv-x="539" 
d="M428 -136l12 -42c-26.667 -10 -50.5 -16.167 -71.5 -18.5s-37.667 -1 -50 4s-21.833 12.333 -28.5 22s-9.5 21 -8.5 34s5.16699 26.5 12.5 40.5c15.333 30.667 42.666 62 81.999 94c-42 -6.66699 -84.667 -10 -128 -10c-83.333 0 -141 21.833 -173 65.5
s-42 111.5 -30 203.5c12.667 94 38.5 158.167 77.5 192.5s103.167 51.5 192.5 51.5c76 0 127.667 -13.333 155 -40s37.333 -66 30 -118c-8 -47.333 -26.667 -81.5 -56 -102.5s-74.333 -33.833 -135 -38.5l-169 -15c-0.666992 -46 9 -77.167 29 -93.5s51.333 -24.5 94 -24.5
c45.333 0 105.333 4 180 12l6 -65c-31.333 -33.333 -59.666 -71.333 -84.999 -114c-12.667 -22.667 -13 -37.167 -1 -43.5s33.667 -4.5 65 5.5zM146 259l163 15.001c30.667 2 53 8.5 67 19.5s23 30.167 27 57.5c4 31.333 -1.16699 50.666 -15.5 57.999s-43.5 11 -87.5 11
c-50.667 0 -86.5 -10.5 -107.5 -31.5s-36.5 -64.167 -46.5 -129.5z" />
    <glyph glyph-name="Ecaron" unicode="&#x11a;" horiz-adv-x="560" 
d="M342 762l-117 135l39 36l113 -100h8l146 100l30 -42l-149 -129h-70zM551 606h-272.002c-21.333 0 -37.166 -4.83301 -47.499 -14.5s-16.833 -26.5 -19.5 -50.5l-19 -140h291l-10 -77h-292l-24 -178c-2.66699 -22.667 -0.166992 -38.667 7.5 -48s22.5 -14 44.5 -14h267
l-2 -78c-57.333 -5.33301 -149.666 -8 -276.999 -8c-53.333 0 -91.833 12.833 -115.5 38.5s-32.5 61.167 -26.5 106.5l59 427c5.33301 38.667 21 68.667 47 90s61 32 105 32c138 0 237 -2.66699 297 -8z" />
    <glyph glyph-name="ecaron" unicode="&#x11b;" horiz-adv-x="539" 
d="M285 563l-116 135l39 36l112 -100h8l147 100l30 -42l-149 -129h-71zM443 81l6 -65c-47.333 -18.667 -114.333 -28 -201 -28c-83.333 0 -141 21.833 -173 65.5s-42 111.5 -30 203.5c12.667 94 38.5 158.167 77.5 192.5s103.167 51.5 192.5 51.5
c76 0 127.667 -13.333 155 -40s37.333 -66 30 -118c-8 -47.333 -26.667 -81.5 -56 -102.5s-74.333 -33.833 -135 -38.5l-169 -15c-0.666992 -46 9 -77.167 29 -93.5s51.333 -24.5 94 -24.5c45.333 0 105.333 4 180 12zM146 259l163 15.001c30.667 2 53 8.5 67 19.5
s23 30.167 27 57.5c4 31.333 -1.16699 50.666 -15.5 57.999s-43.5 11 -87.5 11c-50.667 0 -86.5 -10.5 -107.5 -31.5s-36.5 -64.167 -46.5 -129.5z" />
    <glyph glyph-name="Gbreve" unicode="&#x11e;" horiz-adv-x="624" 
d="M513 888l48 -11c-2.66699 -40 -19 -72.167 -49 -96.5s-68.667 -36.5 -116 -36.5c-50.667 0 -88.834 12.833 -114.501 38.5s-34.167 58.167 -25.5 97.5l50 4c-3.33301 -22 2.83398 -39 18.501 -51s39.167 -18 70.5 -18c34 0 61.5 6.5 82.5 19.5s32.833 30.833 35.5 53.5z
M595 681l-14.998 -74.999c-56 5.33301 -113 8 -171 8c-41.333 0 -74.5 -3.33301 -99.5 -10s-47.333 -20.167 -67 -40.5s-34.834 -48 -45.501 -83s-19.667 -81.5 -27 -139.5c-11.333 -98.667 -9.83301 -167.667 4.5 -207s45.5 -59 93.5 -59c32 0 61 7.66699 87 23
s57 40.666 93 75.999l32 226h96l-56 -400h-72v93c-60 -70.667 -131.667 -106 -215 -106c-70 0 -118.833 29 -146.5 87s-34.834 149.667 -21.501 275c9.33301 72 22.833 131.5 40.5 178.5s41 83.167 70 108.5s60.833 42.833 95.5 52.5s76.667 14.5 126 14.5
c75.333 0 141.333 -7.33301 198 -22z" />
    <glyph glyph-name="gbreve" unicode="&#x11f;" horiz-adv-x="576" 
d="M447 709l48.001 -12c-3.33301 -40 -19.833 -72.167 -49.5 -96.5s-68.167 -36.5 -115.5 -36.5c-50.667 0 -88.834 12.833 -114.501 38.5s-34.167 58.5 -25.5 98.5l49 4c-2.66699 -22 4 -39.167 20 -51.5s39.333 -18.5 70 -18.5c34 0 61.333 6.5 82 19.5
s32.667 31.167 36 54.5zM530.001 475l-66.0029 -463.003c-17.333 -145.333 -113.666 -219 -288.999 -221c-68 0 -122 6.33301 -162 19l10 64c52.667 -1.33301 104.334 -1.66602 155.001 -0.999023c110 1.33301 172.667 41 188 119c11.333 56.667 25.333 97.334 42 122.001
c-27.333 -37.333 -61.166 -67.666 -101.499 -90.999s-84.166 -35 -131.499 -35c-54.667 0 -93 19.333 -115 58s-26 106.667 -12 204c8 54.667 18.667 99.167 32 133.5s30.666 59.833 51.999 76.5s42.833 27.667 64.5 33s49.5 8 83.5 8c85.333 0 168 -8.66699 248 -26h2z
M388.998 175.997l34.999 241.998c-61.333 1.33301 -96.666 2 -105.999 2c-63.333 0 -105.166 -10.167 -125.499 -30.5s-35.833 -69.166 -46.5 -146.499c-9.33301 -71.333 -10.5 -117.666 -3.5 -138.999s25.833 -32 56.5 -32c31.333 0 61.666 8.33301 90.999 25
s62.333 43 99 79z" />
    <glyph glyph-name="Gdotaccent" unicode="&#x120;" horiz-adv-x="624" 
d="M410 756l-30 -0.000976562c-9.33301 0 -16.5 2.83301 -21.5 8.5s-6.83301 12.834 -5.5 21.501l7 56c2.66699 18 12.667 27 30 27h31c9.33301 0 16.5 -2.83301 21.5 -8.5s6.83301 -13.167 5.5 -22.5l-8 -55c-2.66699 -18 -12.667 -27 -30 -27zM595 680.999
l-14.998 -74.999c-56 5.33301 -113 8 -171 8c-41.333 0 -74.5 -3.33301 -99.5 -10s-47.333 -20.167 -67 -40.5s-34.834 -48 -45.501 -83s-19.667 -81.5 -27 -139.5c-11.333 -98.667 -9.83301 -167.667 4.5 -207s45.5 -59 93.5 -59c32 0 61 7.66699 87 23
s57 40.666 93 75.999l32 226h96l-56 -400h-72v93c-60 -70.667 -131.667 -106 -215 -106c-70 0 -118.833 29 -146.5 87s-34.834 149.667 -21.501 275c9.33301 72 22.833 131.5 40.5 178.5s41 83.167 70 108.5s60.833 42.833 95.5 52.5s76.667 14.5 126 14.5
c75.333 0 141.333 -7.33301 198 -22z" />
    <glyph glyph-name="gdotaccent" unicode="&#x121;" horiz-adv-x="576" 
d="M344 576l-30.999 0.000976562c-9.33301 0 -16.333 2.83301 -21 8.5s-6.33398 13.167 -5.00098 22.5l7 55c2.66699 18 12.334 27 29.001 27h31c9.33301 0 16.666 -2.83301 21.999 -8.5s7.33301 -12.834 6 -21.501l-8 -56c-2.66699 -18 -12.667 -27 -30 -27z
M530.001 475.001l-66.0029 -463.003c-17.333 -145.333 -113.666 -219 -288.999 -221c-68 0 -122 6.33301 -162 19l10 64c52.667 -1.33301 104.334 -1.66602 155.001 -0.999023c110 1.33301 172.667 41 188 119c11.333 56.667 25.333 97.334 42 122.001
c-27.333 -37.333 -61.166 -67.666 -101.499 -90.999s-84.166 -35 -131.499 -35c-54.667 0 -93 19.333 -115 58s-26 106.667 -12 204c8 54.667 18.667 99.167 32 133.5s30.666 59.833 51.999 76.5s42.833 27.667 64.5 33s49.5 8 83.5 8c85.333 0 168 -8.66699 248 -26h2z
M388.998 175.998l34.999 241.998c-61.333 1.33301 -96.666 2 -105.999 2c-63.333 0 -105.166 -10.167 -125.499 -30.5s-35.833 -69.166 -46.5 -146.499c-9.33301 -71.333 -10.5 -117.666 -3.5 -138.999s25.833 -32 56.5 -32c31.333 0 61.666 8.33301 90.999 25
s62.333 43 99 79z" />
    <glyph glyph-name="Gcommaaccent" unicode="&#x122;" horiz-adv-x="624" 
d="M595 681l-14.998 -74.999c-56 5.33301 -113 8 -171 8c-41.333 0 -74.5 -3.33301 -99.5 -10s-47.333 -20.167 -67 -40.5s-34.834 -48 -45.501 -83s-19.667 -81.5 -27 -139.5c-11.333 -98.667 -9.83301 -167.667 4.5 -207s45.5 -59 93.5 -59c32 0 61 7.66699 87 23
s57 40.666 93 75.999l32 226h96l-56 -400h-72v93c-60 -70.667 -131.667 -106 -215 -106c-70 0 -118.833 29 -146.5 87s-34.834 149.667 -21.501 275c9.33301 72 22.833 131.5 40.5 178.5s41 83.167 70 108.5s60.833 42.833 95.5 52.5s76.667 14.5 126 14.5
c75.333 0 141.333 -7.33301 198 -22zM278.002 -57.999l26.001 -0.000976562c22.667 0 32 -10.333 28 -31l-8 -55c-5.33301 -41.333 -23.333 -86 -54 -134l-43 14c16 46 26.333 80.333 31 103c-9.33301 -0.666992 -16.5 1.33301 -21.5 6s-6.83301 11.334 -5.5 20.001l7 49
c2.66699 11.333 6.66699 18.833 12 22.5s14.666 5.5 27.999 5.5z" />
    <glyph glyph-name="gcommaaccent" unicode="&#x123;" horiz-adv-x="576" 
d="M336 556h-26.001c-22.667 0 -32 10.667 -28 32l8 54c5.33301 39.333 23.333 84.333 54 135l43 -14c-15.333 -45.333 -25.666 -79.666 -30.999 -102.999c20 1.33301 29 -7.33398 27 -26.001l-7 -49c-2.66699 -11.333 -6.5 -19 -11.5 -23s-14.5 -6 -28.5 -6zM529.999 475
l-66.0029 -463.003c-17.333 -145.333 -113.666 -219 -288.999 -221c-68 0 -122 6.33301 -162 19l10 64c52.667 -1.33301 104.334 -1.66602 155.001 -0.999023c110 1.33301 172.667 41 188 119c11.333 56.667 25.333 97.334 42 122.001
c-27.333 -37.333 -61.166 -67.666 -101.499 -90.999s-84.166 -35 -131.499 -35c-54.667 0 -93 19.333 -115 58s-26 106.667 -12 204c8 54.667 18.667 99.167 32 133.5s30.666 59.833 51.999 76.5s42.833 27.667 64.5 33s49.5 8 83.5 8c85.333 0 168 -8.66699 248 -26h2z
M388.996 175.997l34.999 241.998c-61.333 1.33301 -96.666 2 -105.999 2c-63.333 0 -105.166 -10.167 -125.499 -30.5s-35.833 -69.166 -46.5 -146.499c-9.33301 -71.333 -10.5 -117.666 -3.5 -138.999s25.833 -32 56.5 -32c31.333 0 61.666 8.33301 90.999 25
s62.333 43 99 79z" />
    <glyph glyph-name="Hbar" unicode="&#x126;" horiz-adv-x="668" 
d="M690 518h-73l-73 -518h-100l46 324h-302l-45 -324h-101l73 518h-65l7 52h65l17 120h101l-17 -120h302l16 120h100l-16 -120h71zM517 518h-301l-16 -107h302z" />
    <glyph glyph-name="hbar" unicode="&#x127;" horiz-adv-x="580" 
d="M210 573l-7.99805 -65c-6.66699 -44.667 -14.667 -84.667 -24 -120c85.333 75.333 160.666 113 225.999 113c41.333 0 72.666 -11.833 93.999 -35.5s28.666 -57.5 21.999 -101.5l-52 -364h-96l47 340c4 30.667 2.83301 51.5 -3.5 62.5s-20.166 16.5 -41.499 16.5
c-27.333 0 -55.833 -8.33301 -85.5 -25s-68.5 -44 -116.5 -82l-43 -312h-97l81 573h-69l7 54h70l10 73h96l-10 -73h145l-7 -54h-145z" />
    <glyph glyph-name="Imacron" unicode="&#x12a;" horiz-adv-x="267" 
d="M343 782h-283l10 71h283zM143 0h-101l97 690h101z" />
    <glyph glyph-name="imacron" unicode="&#x12b;" horiz-adv-x="252" 
d="M311 603h-283l10 71h283zM133 0h-97l69 488h97z" />
    <glyph glyph-name="Iogonek" unicode="&#x12e;" horiz-adv-x="267" 
d="M143 0h-11.999c-32.667 -34 -61 -72.333 -85 -115c-18.667 -30.667 -13.334 -46 15.999 -46c12 0 28 3 48 9l11 -42c-26.667 -10 -50.5 -16.167 -71.5 -18.5s-37.667 -1 -50 4s-21.833 12.167 -28.5 21.5s-9.5 20.5 -8.5 33.5s5.16699 26.833 12.5 41.5
c20 38 55.667 75.333 107 112h-40l97 690h101z" />
    <glyph glyph-name="iogonek" unicode="&#x12f;" horiz-adv-x="252" 
d="M164 689l31 0.000976562c9.33301 0 16.5 -2.83301 21.5 -8.5s6.83301 -12.834 5.5 -21.501l-8 -56c-2 -18 -11.667 -27 -29 -27h-31c-9.33301 0 -16.333 2.83301 -21 8.5s-6.66699 13.167 -6 22.5l7 55c2.66699 18 12.667 27 30 27zM105 488.001h97l-69 -488h-8
c-32 -34 -60.333 -72.333 -85 -115c-12.667 -22 -13 -36.333 -1 -43s33.667 -4.66699 65 6l12 -42c-26.667 -10 -50.5 -16.167 -71.5 -18.5s-37.667 -1 -50 4s-21.833 12.167 -28.5 21.5s-9.5 20.5 -8.5 33.5s5.16699 26.833 12.5 41.5c18 36.667 53.333 74 106 112h-40z
" />
    <glyph glyph-name="Idotaccent" unicode="&#x130;" horiz-adv-x="267" 
d="M196 869l31 -0.000976562c9.33301 0 16.5 -2.83301 21.5 -8.5s6.83301 -13.167 5.5 -22.5l-8 -55c-2 -18 -11.667 -27 -29 -27h-31c-9.33301 0 -16.333 2.83301 -21 8.5s-6.66699 12.834 -6 21.501l7 56c2.66699 18 12.667 27 30 27zM143 -0.000976562h-101l97 690h101z
" />
    <glyph glyph-name="dotlessi" unicode="&#x131;" horiz-adv-x="252" 
d="M133 0h-97l69 488h97z" />
    <glyph glyph-name="IJ" unicode="&#x132;" horiz-adv-x="609" 
d="M143 0h-101l97 690h101zM585 690l-77 -541c-6.66699 -52 -23.167 -91.5 -49.5 -118.5s-60.5 -40.167 -102.5 -39.5c-40 0 -73 4.66699 -99 14l19 71h45c52 0 81 24 87 72l76 542h101z" />
    <glyph glyph-name="ij" unicode="&#x133;" horiz-adv-x="502" 
d="M157 696l45.999 -0.000976562c9.33301 0 16.333 -2.66699 21 -8s6.33398 -12.666 5.00098 -21.999l-7 -56c-2.66699 -18 -12.667 -27 -30 -27h-46c-20 0 -29 10.333 -27 31l9 56c1.33301 17.333 11 26 29 26zM407.999 695.999h46.001c20 0 29 -10 27 -30l-8 -56
c-2 -18 -12 -27 -30 -27h-46c-20.667 0 -29.334 10.333 -26.001 31l8 56c2 17.333 11.667 26 29 26zM133 -0.000976562h-96l68 488h96zM452 487.999l-69 -496.001c-5.33301 -40 -18.833 -77.167 -40.5 -111.5s-49.167 -62.166 -82.5 -83.499l-52 45c44 46 70 97.667 78 155
l70 491h96z" />
    <glyph glyph-name="Kcommaaccent" unicode="&#x136;" horiz-adv-x="599" 
d="M344 360l-1.00195 -4.00098c12.667 -16 24.334 -34.333 35.001 -55l165 -301h-113l-172 319h-78c0 -27.333 -1.33301 -51.666 -4 -72.999l-34 -246h-100l97 690h100l-31 -213c-2.66699 -25.333 -7.66699 -51 -15 -77h74l239 290h121l-234 -284
c-15.333 -18.667 -31.666 -34 -48.999 -46zM261.998 -58.001l26 -0.000976562c22.667 0 32 -10.333 28 -31l-7 -55c-6.66699 -42 -25 -86.667 -55 -134l-43 14c16 46 26.333 80.333 31 103c-9.33301 -0.666992 -16.333 1.33301 -21 6s-6.66699 11.334 -6 20.001l8 49
c2.66699 11.333 6.5 18.833 11.5 22.5s14.167 5.5 27.5 5.5z" />
    <glyph glyph-name="kcommaaccent" unicode="&#x137;" horiz-adv-x="527" 
d="M406 488l99.002 -0.00195312c-28 -87.333 -82 -159.666 -162 -216.999c10 -15.333 20 -34.666 30 -57.999l95 -213h-104l-94 225c-30 -16 -68.667 -34.667 -116 -56l-25 -169h-96l98 700h97l-44 -328c-6 -40 -16.667 -80 -32 -120
c63.333 30 118.166 65.167 164.499 105.5s76.166 83.833 89.499 130.5zM237.002 -58.002l26 -0.000976562c22.667 0 32 -10.333 28 -31l-7 -55c-6.66699 -42 -25 -86.667 -55 -134l-43 14c16 46 26.333 80.333 31 103c-9.33301 -0.666992 -16.333 1.33301 -21 6
s-6.66699 11.334 -6 20.001l8 49c2.66699 11.333 6.5 18.833 11.5 22.5s14.167 5.5 27.5 5.5z" />
    <glyph glyph-name="Lacute" unicode="&#x139;" horiz-adv-x="511" 
d="M371 843l-212 -117l-29 45l196 147zM237 690l-76.002 -544c-5.33301 -41.333 12 -62 52 -62h246l-2 -78c-57.333 -5.33301 -145.666 -8 -264.999 -8c-46.667 0 -81.667 12.833 -105 38.5s-31.666 63.167 -24.999 112.5l74 541h101z" />
    <glyph glyph-name="lacute" unicode="&#x13a;" horiz-adv-x="298" 
d="M368 864l-213 -116l-29 44l196 147zM228 700l-78.998 -561c-3.33301 -22 -1 -37.5 7 -46.5s23.333 -13.5 46 -13.5h46l4 -76c-18 -8 -49 -12 -93 -12c-38.667 0 -67.834 11.333 -87.501 34s-26.834 54.667 -21.501 96l82 579h96z" />
    <glyph glyph-name="Lcommaaccent" unicode="&#x13b;" horiz-adv-x="511" 
d="M237 690l-76.002 -544c-5.33301 -41.333 12 -62 52 -62h246l-2 -78c-57.333 -5.33301 -145.666 -8 -264.999 -8c-46.667 0 -81.667 12.833 -105 38.5s-31.666 63.167 -24.999 112.5l74 541h101zM251.998 -59h26c22.667 0 32 -10.333 28 -31l-7 -55
c-5.33301 -38 -23.333 -83 -54 -135l-43 14c17.333 54.667 27.333 89 30 103c-9.33301 -0.666992 -16.333 1.5 -21 6.5s-6.66699 11.5 -6 19.5l8 50c2.66699 11.333 6.5 18.833 11.5 22.5s14.167 5.5 27.5 5.5z" />
    <glyph glyph-name="lcommaaccent" unicode="&#x13c;" horiz-adv-x="298" 
d="M228 700l-78.998 -561c-3.33301 -22 -1 -37.5 7 -46.5s23.333 -13.5 46 -13.5h46l4 -76c-18 -8 -49 -12 -93 -12c-38.667 0 -67.834 11.333 -87.501 34s-26.834 54.667 -21.501 96l82 579h96zM128.002 -59h26.001c22 0 31 -10.333 27 -31l-7 -55
c-5.33301 -38 -23.333 -83 -54 -135l-43 14c17.333 54.667 27.333 89 30 103c-9.33301 -0.666992 -16.333 1.5 -21 6.5s-6.33398 11.5 -5.00098 19.5l7 50c2.66699 11.333 6.5 18.833 11.5 22.5s14.5 5.5 28.5 5.5z" />
    <glyph glyph-name="Lcaron" unicode="&#x13d;" horiz-adv-x="511" 
d="M353 691h26c22.667 0 32 -10.667 28 -32l-8 -54c-5.33301 -42 -23.333 -87 -54 -135l-43 14c16.667 49.333 27 83.666 31 102.999c-9.33301 -0.666992 -16.5 1.33301 -21.5 6s-6.83301 11.334 -5.5 20.001l8 49c2.66699 11.333 6.5 19 11.5 23s14.167 6 27.5 6zM237 690
l-76.002 -544c-5.33301 -41.333 12 -62 52 -62h246l-2 -78c-57.333 -5.33301 -145.666 -8 -264.999 -8c-46.667 0 -81.667 12.833 -105 38.5s-31.666 63.167 -24.999 112.5l74 541h101z" />
    <glyph glyph-name="lcaron" unicode="&#x13e;" horiz-adv-x="298" 
d="M228 700l-78.998 -561c-3.33301 -22 -1 -37.5 7 -46.5s23.333 -13.5 46 -13.5h46l4 -76c-18 -8 -49 -12 -93 -12c-38.667 0 -67.834 11.333 -87.501 34s-26.834 54.667 -21.501 96l82 579h96zM319.002 700l26 -0.000976562c22.667 0 32 -10.667 28 -32l-7 -54
c-6.66699 -42.667 -25 -87.667 -55 -135l-43 14c16 46 26.333 80.333 31 103c-9.33301 -0.666992 -16.333 1.33301 -21 6s-6.66699 11.334 -6 20.001l8 49c2.66699 11.333 6.5 19 11.5 23s14.167 6 27.5 6z" />
    <glyph glyph-name="Ldot" unicode="&#x13f;" horiz-adv-x="511" 
d="M237 690l-76.002 -544c-5.33301 -41.333 12 -62 52 -62h246l-2 -78c-57.333 -5.33301 -145.666 -8 -264.999 -8c-46.667 0 -81.667 12.833 -105 38.5s-31.666 63.167 -24.999 112.5l74 541h101zM402.998 340l-31.001 0.000976562c-9.33301 0 -16.666 2.66699 -21.999 8
s-7.33301 12.666 -6 21.999l8 56c2.66699 18 12.667 27 30 27h31c9.33301 0 16.333 -2.83301 21 -8.5s6.33398 -13.167 5.00098 -22.5l-7 -55c-2.66699 -18 -12.334 -27 -29.001 -27z" />
    <glyph glyph-name="ldot" unicode="&#x140;" horiz-adv-x="343" 
d="M228 700l-78.998 -561c-3.33301 -22 -1 -37.5 7 -46.5s23.333 -13.5 46 -13.5h46l4 -76c-18 -8 -49 -12 -93 -12c-38.667 0 -67.834 11.333 -87.501 34s-26.834 54.667 -21.501 96l82 579h96zM320.002 316l-31.002 0.000976562c-9.33301 0 -16.666 2.83301 -21.999 8.5
s-7.33301 13.167 -6 22.5l8 55c2.66699 18 12.667 27 30 27h31c9.33301 0 16.333 -2.83301 21 -8.5s6.33398 -12.834 5.00098 -21.501l-7 -56c-3.33301 -18 -13 -27 -29 -27z" />
    <glyph glyph-name="Lslash" unicode="&#x141;" horiz-adv-x="510" 
d="M458 84l-2.00195 -78c-57.333 -5.33301 -145.666 -8 -264.999 -8c-46.667 0 -81.667 12.833 -105 38.5s-31.666 63.167 -24.999 112.5l24 179l-65 -26l6 60l68 27l41 301h101l-36 -260l124 49l-6 -60l-127 -50l-31 -223c-5.33301 -41.333 12 -62 52 -62h246z" />
    <glyph glyph-name="lslash" unicode="&#x142;" horiz-adv-x="301" 
d="M182 368l-32.998 -229c-3.33301 -22 -1 -37.5 7 -46.5s23.333 -13.5 46 -13.5h46l4 -76c-18 -8 -49 -12 -93 -12c-38.667 0 -67.834 11.333 -87.501 34s-26.834 54.667 -21.501 96l30 207l-68 -26l8 60l68 27l44 311h96l-38 -271l129 50l-9 -60z" />
    <glyph glyph-name="Nacute" unicode="&#x143;" horiz-adv-x="706" 
d="M599 843l-213 -117l-28 45l196 147zM679 690l-92 -653c-4 -24.667 -17.333 -37 -40 -37h-87c-18.667 0 -31.667 11 -39 33l-161 470c-12.667 36 -21.667 67.333 -27 94h-15c-0.666992 -28 -3.33398 -59.333 -8.00098 -94l-68 -503h-100l91 653c4 24.667 18 37 42 37h85
c18 0 31.333 -11 40 -33l155 -457c20.667 -66 31.334 -100.667 32.001 -104h17c2 38 5.33301 72.667 10 104l66 490h99z" />
    <glyph glyph-name="nacute" unicode="&#x144;" horiz-adv-x="580" 
d="M295 547l-28 45l196 146l45 -74zM178 488l-4.99902 -105c88 78.667 165 118 231 118c41.333 0 72.666 -11.833 93.999 -35.5s28.666 -57.5 21.999 -101.5l-52 -364h-96l47 340c4 30.667 2.83301 51.5 -3.5 62.5s-20.166 16.5 -41.499 16.5
c-27.333 0 -55.833 -8.33301 -85.5 -25s-68.5 -44 -116.5 -82l-43 -312h-97l69 488h77z" />
    <glyph glyph-name="Ncommaaccent" unicode="&#x145;" horiz-adv-x="706" 
d="M679 690l-92 -653c-4 -24.667 -17.333 -37 -40 -37h-87c-18.667 0 -31.667 11 -39 33l-161 470c-12.667 36 -21.667 67.333 -27 94h-15c-0.666992 -28 -3.33398 -59.333 -8.00098 -94l-68 -503h-100l91 653c4 24.667 18 37 42 37h85c18 0 31.333 -11 40 -33l155 -457
c20.667 -66 31.334 -100.667 32.001 -104h17c2 38 5.33301 72.667 10 104l66 490h99zM315 -58h26.001c22.667 0 31.667 -10.333 27 -31l-7 -55c-5.33301 -39.333 -23.333 -84 -54 -134l-43 14c14.667 42 24.667 76.333 30 103c-9.33301 -0.666992 -16.333 1.5 -21 6.5
s-6.33398 11.5 -5.00098 19.5l7 49c2.66699 11.333 6.5 18.833 11.5 22.5s14.5 5.5 28.5 5.5z" />
    <glyph glyph-name="ncommaaccent" unicode="&#x146;" horiz-adv-x="580" 
d="M178 488l-4.99902 -105c88 78.667 165 118 231 118c41.333 0 72.666 -11.833 93.999 -35.5s28.666 -57.5 21.999 -101.5l-52 -364h-96l47 340c4 30.667 2.83301 51.5 -3.5 62.5s-20.166 16.5 -41.499 16.5c-27.333 0 -55.833 -8.33301 -85.5 -25s-68.5 -44 -116.5 -82
l-43 -312h-97l69 488h77zM241.001 -58h25.999c22.667 0 32 -10.333 28 -31l-7 -55c-5.33301 -40 -23.666 -84.667 -54.999 -134l-42 14c16.667 51.333 26.667 85.666 30 102.999c-9.33301 -0.666992 -16.333 1.33301 -21 6s-6.66699 11.334 -6 20.001l8 49
c2.66699 11.333 6.5 18.833 11.5 22.5s14.167 5.5 27.5 5.5z" />
    <glyph glyph-name="Ncaron" unicode="&#x147;" horiz-adv-x="706" 
d="M610 871l-149 -129h-70l-117 136l39 35l113 -99h8l146 99zM679 690l-92 -653c-4 -24.667 -17.333 -37 -40 -37h-87c-18.667 0 -31.667 11 -39 33l-161 470c-12.667 36 -21.667 67.333 -27 94h-15c-0.666992 -28 -3.33398 -59.333 -8.00098 -94l-68 -503h-100l91 653
c4 24.667 18 37 42 37h85c18 0 31.333 -11 40 -33l155 -457c20.667 -66 31.334 -100.667 32.001 -104h17c2 38 5.33301 72.667 10 104l66 490h99z" />
    <glyph glyph-name="ncaron" unicode="&#x148;" horiz-adv-x="580" 
d="M300 563l-117 135l39 36l113 -100h8l147 100l29 -42l-149 -129h-70zM178 488l-4.99902 -105c88 78.667 165 118 231 118c41.333 0 72.666 -11.833 93.999 -35.5s28.666 -57.5 21.999 -101.5l-52 -364h-96l47 340c4 30.667 2.83301 51.5 -3.5 62.5
s-20.166 16.5 -41.499 16.5c-27.333 0 -55.833 -8.33301 -85.5 -25s-68.5 -44 -116.5 -82l-43 -312h-97l69 488h77z" />
    <glyph glyph-name="Eng" unicode="&#x14a;" horiz-adv-x="706" 
d="M679 690l-107.998 -767c-6.66699 -44.667 -23.334 -79 -50.001 -103s-60 -35.667 -100 -35c-36.667 0 -68.334 5 -95.001 15l17 62h46c53.333 0 83.333 24.333 90 73l10 65h-28c-3.33301 0 -6.33301 0.666992 -9 2s-5.16699 3.83301 -7.5 7.5s-3.83301 6.5 -4.5 8.5
s-2.33398 5.66699 -5.00098 11l-176 456c-11.333 28.667 -19.666 60.667 -24.999 96h-15c-0.666992 -28 -4 -60.667 -10 -98l-67 -483h-100l91 653c4 24.667 18 37 42 37h73c18 0 31.333 -11 40 -33l166 -440c15.333 -41.333 27 -76 35 -104h14
c0.666992 31.333 4 67.333 10 108l66 469h100z" />
    <glyph glyph-name="eng" unicode="&#x14b;" horiz-adv-x="580" 
d="M175 488l-2.99805 -106.001c85.333 79.333 161.666 119 228.999 119c44.667 0 77.167 -11.833 97.5 -35.5s27.5 -57.5 21.5 -101.5l-58 -413c-14 -103.333 -62.333 -155 -145 -155c-34.667 0 -65 5 -91 15l17 61h39c24 0 42.667 5.5 56 16.5s22 30.167 26 57.5l55 394
c4 26.667 2.66699 45.334 -4 56.001s-21.334 16 -44.001 16c-26 0 -54 -8.16699 -84 -24.5s-68.333 -41.5 -115 -75.5l-43 -312h-97l69 488h74z" />
    <glyph glyph-name="Omacron" unicode="&#x14c;" horiz-adv-x="667" 
d="M543 782h-282l10 71h282zM387 703c98 0 165.334 -27.5 202.001 -82.5s45.667 -148.167 27 -279.5c-18 -132.667 -50.5 -224.834 -97.5 -276.501s-120.167 -77.5 -219.5 -77.5c-98 0 -165.833 27.167 -203.5 81.5s-47.5 147.833 -29.5 280.5
c17.333 130.667 49.666 222.334 96.999 275.001s122 79 224 79zM382.001 614c-66.667 0 -114.833 -19.168 -144.5 -57.501s-52.167 -110.166 -67.5 -215.499c-14 -101.333 -11.833 -170.833 6.5 -208.5s59.833 -56.5 124.5 -56.5c65.333 0 113.166 19.5 143.499 58.5
s52.833 110.5 67.5 214.5c14.667 103.333 12.834 173.333 -5.49902 210s-59.833 55 -124.5 55z" />
    <glyph glyph-name="omacron" unicode="&#x14d;" horiz-adv-x="566" 
d="M466 603h-282l10 71h282zM307 501c84 0 141.997 -20.168 173.997 -60.501s41.333 -107.166 28 -200.499c-12.667 -92 -39 -157.167 -79 -195.5s-101 -57.5 -183 -57.5c-83.333 0 -141.166 20.167 -173.499 60.5s-42.166 106.833 -29.499 199.5
c12.667 92 38.834 157.333 78.501 196s101.167 58 184.5 58zM306.997 418.999c-51.333 0 -88.832 -12.333 -112.499 -37s-40.5 -72 -50.5 -142c-9.33301 -67.333 -6.83301 -112.833 7.5 -136.5s46.166 -35.5 95.499 -35.5c52 0 89.667 12.833 113 38.5
s39.666 72.5 48.999 140.5c10 67.333 7.83301 112.833 -6.5 136.5s-46.166 35.5 -95.499 35.5z" />
    <glyph glyph-name="Ohungarumlaut" unicode="&#x150;" horiz-adv-x="667" 
d="M627 881l-159 -161l-39 32l138 171zM458 881l-158 -161l-41 32l140 171zM387 703c98 0 165.334 -27.5 202.001 -82.5s45.667 -148.167 27 -279.5c-18 -132.667 -50.5 -224.834 -97.5 -276.501s-120.167 -77.5 -219.5 -77.5c-98 0 -165.833 27.167 -203.5 81.5
s-47.5 147.833 -29.5 280.5c17.333 130.667 49.666 222.334 96.999 275.001s122 79 224 79zM382.001 614c-66.667 0 -114.833 -19.168 -144.5 -57.501s-52.167 -110.166 -67.5 -215.499c-14 -101.333 -11.833 -170.833 6.5 -208.5s59.833 -56.5 124.5 -56.5
c65.333 0 113.166 19.5 143.499 58.5s52.833 110.5 67.5 214.5c14.667 103.333 12.834 173.333 -5.49902 210s-59.833 55 -124.5 55z" />
    <glyph glyph-name="ohungarumlaut" unicode="&#x151;" horiz-adv-x="566" 
d="M550 701l-159 -160l-39 32l138 170zM381 701l-158 -160l-41 32l140 170zM307 501c84 0 141.997 -20.168 173.997 -60.501s41.333 -107.166 28 -200.499c-12.667 -92 -39 -157.167 -79 -195.5s-101 -57.5 -183 -57.5c-83.333 0 -141.166 20.167 -173.499 60.5
s-42.166 106.833 -29.499 199.5c12.667 92 38.834 157.333 78.501 196s101.167 58 184.5 58zM306.997 418.999c-51.333 0 -88.832 -12.333 -112.499 -37s-40.5 -72 -50.5 -142c-9.33301 -67.333 -6.83301 -112.833 7.5 -136.5s46.166 -35.5 95.499 -35.5
c52 0 89.667 12.833 113 38.5s39.666 72.5 48.999 140.5c10 67.333 7.83301 112.833 -6.5 136.5s-46.166 35.5 -95.499 35.5z" />
    <glyph glyph-name="OE" unicode="&#x152;" horiz-adv-x="925" 
d="M916 606h-270.001c-20.667 0 -36.334 -5 -47.001 -15s-17.334 -26.667 -20.001 -50l-19 -139h289l-10 -79h-289l-25 -177c-2.66699 -22.667 -0.166992 -38.667 7.5 -48s22.834 -14 45.501 -14h265l-3 -78c-56.667 -5.33301 -148 -8 -274 -8c-40.667 0 -73.667 8 -99 24
c-53.333 -23.333 -110 -35 -170 -35c-104.667 0 -174.167 26.5 -208.5 79.5s-41.833 147.167 -22.5 282.5c18.667 134 51.334 226.5 98.001 277.5s120.667 76.5 222 76.5c60.667 0 115.334 -10 164.001 -30c24 12.667 52.333 19 85 19c136.667 0 235 -2.66699 295 -8z
M423.999 143l59.001 426.999c2.66699 14.667 5.33398 25.334 8.00098 32.001c-34 8 -69 12 -105 12c-67.333 0 -116.5 -19.5 -147.5 -58.5s-53.833 -110.5 -68.5 -214.5c-14.667 -100.667 -12.834 -170 5.49902 -208s59.5 -57 123.5 -57c45.333 0 86.666 5.33301 123.999 16
c-2 17.333 -1.66699 34.333 1 51z" />
    <glyph glyph-name="oe" unicode="&#x153;" horiz-adv-x="903" 
d="M803 81l7 -65c-45.333 -18.667 -111 -28 -197 -28c-82.667 0 -140.667 22 -174 66c-40 -44.667 -104 -67 -192 -67c-83.333 0 -141.333 20.167 -174 60.5s-42.667 106.833 -30 199.5c13.333 92.667 39.833 158.167 79.5 196.5s101.167 57.5 184.5 57.5
c84 0 141.667 -20 173 -60c38 40 104.667 60 200 60c76 0 127.667 -13.333 155 -40s37.333 -66 30 -118c-8 -47.333 -26.667 -81.5 -56 -102.5s-74 -33.833 -134 -38.5l-170 -15c0 -46 10 -77.167 30 -93.5s51.333 -24.5 94 -24.5c45.333 0 103.333 4 174 12zM247 68
c51.333 0 88.833 12.833 112.5 38.5s40.167 72.5 49.5 140.5c10 67.333 7.83301 112.833 -6.5 136.5s-46.166 35.5 -95.499 35.5c-51.333 0 -88.833 -12.333 -112.5 -37s-40.5 -72 -50.5 -142c-9.33301 -66.667 -6.83301 -112 7.5 -136s46.166 -36 95.499 -36zM512 259
l162.001 15c30.667 2 53 8.5 67 19.5s23.333 30.167 28 57.5c1.33301 13.333 1 24.333 -1 33s-4.83301 15.334 -8.5 20.001s-11.167 8.16699 -22.5 10.5s-21.333 3.66602 -30 3.99902s-22.667 0.5 -42 0.5c-50.667 0 -86.334 -10.333 -107.001 -31s-36 -63.667 -46 -129z
" />
    <glyph glyph-name="Racute" unicode="&#x154;" horiz-adv-x="621" 
d="M329 726l-29 45l196 147l46 -75zM42 0l97 689.999c57.333 6 136.333 9 237 9c76 0 131.5 -15.167 166.5 -45.5s47.5 -83.166 37.5 -158.499c-7.33301 -52.667 -23 -93 -47 -121s-59.667 -45 -107 -51l-1 -6c40 -11.333 65 -45 75 -101l44 -216h-102l-41 217
c-4.66699 24.667 -12.667 42 -24 52s-28 15 -50 15l-147 1l-40 -285h-98zM192 369.999h138c48.667 0.666992 84 10 106 28s36.333 51 43 99c6.66699 44.667 2.5 75.167 -12.5 91.5s-46.167 24.5 -93.5 24.5c-72 0 -121 -0.333008 -147 -1z" />
    <glyph glyph-name="racute" unicode="&#x155;" horiz-adv-x="401" 
d="M234 547l-29 45l196 146l45 -74zM175 488l-4.99902 -112c81.333 83.333 154.666 125 219.999 125h26l-24 -91h-27c-25.333 0 -51.333 -7.5 -78 -22.5s-65 -40.5 -115 -76.5l-43 -311h-97l69 488h74z" />
    <glyph glyph-name="Rcommaaccent" unicode="&#x156;" horiz-adv-x="621" 
d="M42 0l97 689.999c57.333 6 136.333 9 237 9c76 0 131.5 -15.167 166.5 -45.5s47.5 -83.166 37.5 -158.499c-7.33301 -52.667 -23 -93 -47 -121s-59.667 -45 -107 -51l-1 -6c40 -11.333 65 -45 75 -101l44 -216h-102l-41 217c-4.66699 24.667 -12.667 42 -24 52
s-28 15 -50 15l-147 1l-40 -285h-98zM192 369.999h138c48.667 0.666992 84 10 106 28s36.333 51 43 99c6.66699 44.667 2.5 75.167 -12.5 91.5s-46.167 24.5 -93.5 24.5c-72 0 -121 -0.333008 -147 -1zM295 -58.001l26 -0.000976562c22.667 0 32 -10.333 28 -31l-8 -55
c-5.33301 -39.333 -23.333 -84 -54 -134l-43 14c16 46 26.333 80.333 31 103c-9.33301 -0.666992 -16.5 1.33301 -21.5 6s-6.83301 11.334 -5.5 20.001l7 49c2.66699 11.333 6.5 18.833 11.5 22.5s14.5 5.5 28.5 5.5z" />
    <glyph glyph-name="rcommaaccent" unicode="&#x157;" horiz-adv-x="401" 
d="M416 501l-23.999 -91h-27c-25.333 0 -51.333 -7.5 -78 -22.5s-65 -40.5 -115 -76.5l-43 -311h-97l69 488h74l-5 -112c81.333 83.333 154.666 125 219.999 125h26zM57.001 -58h26c22.667 0 32 -10.333 28 -31l-7 -55c-5.33301 -39.333 -23.333 -84 -54 -134l-43 14
c16.667 51.333 26.667 85.666 30 102.999c-9.33301 -0.666992 -16.333 1.33301 -21 6s-6.66699 11.334 -6 20.001l8 49c2.66699 11.333 6.5 18.833 11.5 22.5s14.167 5.5 27.5 5.5z" />
    <glyph glyph-name="Rcaron" unicode="&#x158;" horiz-adv-x="621" 
d="M333 742l-117 136l39 35l113 -99h8l147 99l29 -42l-149 -129h-70zM42 0l97 689.999c57.333 6 136.333 9 237 9c76 0 131.5 -15.167 166.5 -45.5s47.5 -83.166 37.5 -158.499c-7.33301 -52.667 -23 -93 -47 -121s-59.667 -45 -107 -51l-1 -6c40 -11.333 65 -45 75 -101
l44 -216h-102l-41 217c-4.66699 24.667 -12.667 42 -24 52s-28 15 -50 15l-147 1l-40 -285h-98zM192 369.999h138c48.667 0.666992 84 10 106 28s36.333 51 43 99c6.66699 44.667 2.5 75.167 -12.5 91.5s-46.167 24.5 -93.5 24.5c-72 0 -121 -0.333008 -147 -1z" />
    <glyph glyph-name="rcaron" unicode="&#x159;" horiz-adv-x="401" 
d="M238 563l-117 135l39 36l113 -100h8l147 100l29 -42l-149 -129h-70zM175 488l-4.99902 -112c81.333 83.333 154.666 125 219.999 125h26l-24 -91h-27c-25.333 0 -51.333 -7.5 -78 -22.5s-65 -40.5 -115 -76.5l-43 -311h-97l69 488h74z" />
    <glyph glyph-name="Sacute" unicode="&#x15a;" horiz-adv-x="562" 
d="M516 843l-213 -117l-28 45l196 147zM332 283l-134.999 48.001c-47.333 17.333 -79.666 41.666 -96.999 72.999s-22.333 72 -15 122c5.33301 38 14.333 69 27 93s30.167 41.833 52.5 53.5s46 19.5 71 23.5s57.167 6 96.5 6c80 0 149 -7.33301 207 -22l-11 -72
c-68.667 3.33301 -134 5 -196 5c-22.667 0 -39.167 -0.166992 -49.5 -0.5s-22.5 -2 -36.5 -5s-24.167 -7.83301 -30.5 -14.5s-12.333 -16.334 -18 -29.001s-9.83398 -28.667 -12.501 -48c-4 -32.667 -1.83301 -55 6.5 -67s28.166 -23.667 59.499 -35l132 -47
c50.667 -18 84.167 -41.833 100.5 -71.5s20.833 -71.167 13.5 -124.5c-10 -73.333 -33.833 -122.166 -71.5 -146.499s-100.5 -36.5 -188.5 -36.5c-72.667 0 -143.667 6.66699 -213 20l13 74c104 -3.33301 170.333 -5 199 -5c58.667 0.666992 98.667 7.16699 120 19.5
s35 40.5 41 84.5c4 32.667 1.66699 55.167 -7 67.5s-28 23.833 -58 34.5z" />
    <glyph glyph-name="sacute" unicode="&#x15b;" horiz-adv-x="508" 
d="M472 664l-213 -117l-29 45l196 146zM283 182l-130.997 60.0049c-36.667 17.333 -62.667 36.833 -78 58.5s-20.666 49.5 -15.999 83.5c5.33301 44.667 24.333 75.667 57 93s82.334 25.333 149.001 24c75.333 -1.33301 145 -7 209 -17l-12 -69
c-84.667 2.66699 -149.334 4.33398 -194.001 5.00098c-44 0 -73.5 -2.33301 -88.5 -7s-23.833 -16.667 -26.5 -36c-2 -16.667 1.16699 -29 9.5 -37s24.5 -17.333 48.5 -28l132 -60c40 -18.667 67.333 -37.834 82 -57.501s19.667 -47.5 15 -83.5
c-2.66699 -22 -8.33398 -40.5 -17.001 -55.5s-18.834 -26.833 -30.501 -35.5s-27.667 -15.334 -48 -20.001s-40.333 -7.66699 -60 -9s-44.834 -2 -75.501 -2c-32 0 -57.167 0.5 -75.5 1.5s-38.666 3 -60.999 6s-39.833 5.16699 -52.5 6.5l11 72
c37.333 -3.33301 88.333 -5 153 -5c61.333 0 102.666 3.33301 123.999 10s33.666 20 36.999 40c0.666992 3.33301 1 6.66602 1 9.99902s-0.166992 6.16602 -0.5 8.49902s-1.33301 4.66602 -3 6.99902s-3 4.33301 -4 6s-2.83301 3.5 -5.5 5.5s-5 3.66699 -7 5s-5 3 -9 5
s-7.16699 3.5 -9.5 4.5s-6 2.66699 -11 5s-9.16699 4.16602 -12.5 5.49902z" />
    <glyph glyph-name="Scedilla" unicode="&#x15e;" horiz-adv-x="562" 
d="M332 283l-134.999 48.001c-47.333 17.333 -79.666 41.666 -96.999 72.999s-22.333 72 -15 122c5.33301 38 14.333 69 27 93s30.167 41.833 52.5 53.5s46 19.5 71 23.5s57.167 6 96.5 6c80 0 149 -7.33301 207 -22l-11 -72c-68.667 3.33301 -134 5 -196 5
c-22.667 0 -39.167 -0.166992 -49.5 -0.5s-22.5 -2 -36.5 -5s-24.167 -7.83301 -30.5 -14.5s-12.333 -16.334 -18 -29.001s-9.83398 -28.667 -12.501 -48c-4 -32.667 -1.83301 -55 6.5 -67s28.166 -23.667 59.499 -35l132 -47c50.667 -18 84.167 -41.833 100.5 -71.5
s20.833 -71.167 13.5 -124.5c-10 -73.333 -33.833 -122.166 -71.5 -146.499s-100.5 -36.5 -188.5 -36.5c-72.667 0 -143.667 6.66699 -213 20l13 74c104 -3.33301 170.333 -5 199 -5c58.667 0.666992 98.667 7.16699 120 19.5s35 40.5 41 84.5
c4 32.667 1.66699 55.167 -7 67.5s-28 23.833 -58 34.5zM177.001 -98.999l12 44.999c44 4 74.833 1.33301 92.5 -8s23.834 -29.666 18.501 -60.999c-7.33301 -42.667 -28.5 -75 -63.5 -97s-76.5 -29.667 -124.5 -23l18 51c25.333 -0.666992 47.5 5.5 66.5 18.5
s30.5 29.833 34.5 50.5c1.33301 10 -1.33398 16.5 -8.00098 19.5s-22 4.5 -46 4.5z" />
    <glyph glyph-name="scedilla" unicode="&#x15f;" horiz-adv-x="508" 
d="M283 182l-130.997 60.0049c-36.667 17.333 -62.667 36.833 -78 58.5s-20.666 49.5 -15.999 83.5c5.33301 44.667 24.333 75.667 57 93s82.334 25.333 149.001 24c75.333 -1.33301 145 -7 209 -17l-12 -69c-84.667 2.66699 -149.334 4.33398 -194.001 5.00098
c-44 0 -73.5 -2.33301 -88.5 -7s-23.833 -16.667 -26.5 -36c-2 -16.667 1.16699 -29 9.5 -37s24.5 -17.333 48.5 -28l132 -60c40 -18.667 67.333 -37.834 82 -57.501s19.667 -47.5 15 -83.5c-2.66699 -22 -8.33398 -40.5 -17.001 -55.5s-18.834 -26.833 -30.501 -35.5
s-27.667 -15.334 -48 -20.001s-40.333 -7.66699 -60 -9s-44.834 -2 -75.501 -2c-32 0 -57.167 0.5 -75.5 1.5s-38.666 3 -60.999 6s-39.833 5.16699 -52.5 6.5l11 72c37.333 -3.33301 88.333 -5 153 -5c61.333 0 102.666 3.33301 123.999 10s33.666 20 36.999 40
c0.666992 3.33301 1 6.66602 1 9.99902s-0.166992 6.16602 -0.5 8.49902s-1.33301 4.66602 -3 6.99902s-3 4.33301 -4 6s-2.83301 3.5 -5.5 5.5s-5 3.66699 -7 5s-5 3 -9 5s-7.16699 3.5 -9.5 4.5s-6 2.66699 -11 5s-9.16699 4.16602 -12.5 5.49902zM143.003 -97.9951
l10.999 44.999c44.667 4 75.834 1.33301 93.501 -8s23.5 -29.666 17.5 -60.999c-6.66699 -42.667 -27.5 -75 -62.5 -97s-76.833 -29.667 -125.5 -23l18 51c25.333 -0.666992 47.5 5.33301 66.5 18s30.5 29.667 34.5 51c2 9.33301 -0.166992 15.5 -6.5 18.5
s-21.833 4.83301 -46.5 5.5z" />
    <glyph glyph-name="Scaron" unicode="&#x160;" horiz-adv-x="562" 
d="M527 871l-149 -129h-70l-117 136l39 35l113 -99h8l146 99zM332 283l-134.999 48.001c-47.333 17.333 -79.666 41.666 -96.999 72.999s-22.333 72 -15 122c5.33301 38 14.333 69 27 93s30.167 41.833 52.5 53.5s46 19.5 71 23.5s57.167 6 96.5 6
c80 0 149 -7.33301 207 -22l-11 -72c-68.667 3.33301 -134 5 -196 5c-22.667 0 -39.167 -0.166992 -49.5 -0.5s-22.5 -2 -36.5 -5s-24.167 -7.83301 -30.5 -14.5s-12.333 -16.334 -18 -29.001s-9.83398 -28.667 -12.501 -48c-4 -32.667 -1.83301 -55 6.5 -67
s28.166 -23.667 59.499 -35l132 -47c50.667 -18 84.167 -41.833 100.5 -71.5s20.833 -71.167 13.5 -124.5c-10 -73.333 -33.833 -122.166 -71.5 -146.499s-100.5 -36.5 -188.5 -36.5c-72.667 0 -143.667 6.66699 -213 20l13 74c104 -3.33301 170.333 -5 199 -5
c58.667 0.666992 98.667 7.16699 120 19.5s35 40.5 41 84.5c4 32.667 1.66699 55.167 -7 67.5s-28 23.833 -58 34.5z" />
    <glyph glyph-name="scaron" unicode="&#x161;" horiz-adv-x="508" 
d="M483 692l-149 -129h-70l-117 135l39 36l112 -100h8l147 100zM283 182l-130.997 60.0049c-36.667 17.333 -62.667 36.833 -78 58.5s-20.666 49.5 -15.999 83.5c5.33301 44.667 24.333 75.667 57 93s82.334 25.333 149.001 24c75.333 -1.33301 145 -7 209 -17l-12 -69
c-84.667 2.66699 -149.334 4.33398 -194.001 5.00098c-44 0 -73.5 -2.33301 -88.5 -7s-23.833 -16.667 -26.5 -36c-2 -16.667 1.16699 -29 9.5 -37s24.5 -17.333 48.5 -28l132 -60c40 -18.667 67.333 -37.834 82 -57.501s19.667 -47.5 15 -83.5
c-2.66699 -22 -8.33398 -40.5 -17.001 -55.5s-18.834 -26.833 -30.501 -35.5s-27.667 -15.334 -48 -20.001s-40.333 -7.66699 -60 -9s-44.834 -2 -75.501 -2c-32 0 -57.167 0.5 -75.5 1.5s-38.666 3 -60.999 6s-39.833 5.16699 -52.5 6.5l11 72
c37.333 -3.33301 88.333 -5 153 -5c61.333 0 102.666 3.33301 123.999 10s33.666 20 36.999 40c0.666992 3.33301 1 6.66602 1 9.99902s-0.166992 6.16602 -0.5 8.49902s-1.33301 4.66602 -3 6.99902s-3 4.33301 -4 6s-2.83301 3.5 -5.5 5.5s-5 3.66699 -7 5s-5 3 -9 5
s-7.16699 3.5 -9.5 4.5s-6 2.66699 -11 5s-9.16699 4.16602 -12.5 5.49902z" />
    <glyph glyph-name="Tcedilla" unicode="&#x162;" horiz-adv-x="576" 
d="M600 601h-219l-85 -601h-100l85 601h-218l13 89h536zM177 -87l11.999 44.999c44 4 74.833 1.33301 92.5 -8s23.834 -29.666 18.501 -60.999c-7.33301 -42.667 -28.5 -75 -63.5 -97s-76.5 -29.667 -124.5 -23l18 51c25.333 -0.666992 47.5 5.33301 66.5 18
s30.5 29.667 34.5 51c1.33301 9.33301 -1.16699 15.5 -7.5 18.5s-21.833 4.83301 -46.5 5.5z" />
    <glyph glyph-name="tcedilla" unicode="&#x163;" horiz-adv-x="385" 
d="M225 413l-39.001 -274.001c-3.33301 -23.333 -1.16602 -39.166 6.50098 -47.499s23.167 -12.5 46.5 -12.5h73l4 -75c-29.333 -8.66699 -67.333 -13 -114 -13c-43.333 0 -74.5 12 -93.5 36s-25.5 58.333 -19.5 103l40 283h-89l9 70l91 5l21 143h95l-20 -143h150l-10 -75
h-151zM108.999 -97.001l12.001 45.001c43.333 4.66699 74 2.16699 92 -7.5s24.333 -29.834 19 -60.501c-7.33301 -42.667 -28.333 -75 -63 -97s-76.334 -30 -125.001 -24l18 51c25.333 -0.666992 47.5 5.5 66.5 18.5s30.5 29.833 34.5 50.5
c1.33301 10 -1.16699 16.5 -7.5 19.5s-21.833 4.5 -46.5 4.5z" />
    <glyph glyph-name="Tcaron" unicode="&#x164;" horiz-adv-x="576" 
d="M319 742l-117 136l39 35l112 -99h8l147 99l30 -42l-149 -129h-70zM600 601h-219l-85 -601h-100l85 601h-218l13 89h536z" />
    <glyph glyph-name="tcaron" unicode="&#x165;" horiz-adv-x="385" 
d="M351 775h26.001c22 0 31 -10.333 27 -31l-7 -55c-5.33301 -38 -23.333 -83 -54 -135l-43 14c17.333 54.667 27.333 89 30 103c-9.33301 -0.666992 -16.333 1.5 -21 6.5s-6.33398 11.833 -5.00098 20.5l7 49c2.66699 11.333 6.5 18.833 11.5 22.5s14.5 5.5 28.5 5.5z
M236.001 488l149.999 -0.000976562l-10 -75h-151l-39 -274c-3.33301 -23.333 -1.16602 -39.166 6.50098 -47.499s23.167 -12.5 46.5 -12.5h73l4 -75c-29.333 -8.66699 -67.333 -13 -114 -13c-43.333 0 -74.5 12 -93.5 36s-25.5 58.333 -19.5 103l40 283h-89l9 70l91 5
l21 143h95z" />
    <glyph glyph-name="Tbar" unicode="&#x166;" horiz-adv-x="576" 
d="M381 601l-26 -186h144l-7 -54h-145l-51 -361h-100l51 361h-131l7 54h132l26 186h-218l13 89h536l-12 -89h-219z" />
    <glyph glyph-name="tbar" unicode="&#x167;" horiz-adv-x="385" 
d="M225 413l-12.001 -85.001h128l-7 -55h-129l-19 -134c-3.33301 -23.333 -1.16602 -39.166 6.50098 -47.499s23.167 -12.5 46.5 -12.5h73l4 -75c-29.333 -8.66699 -67.333 -13 -114 -13c-43.333 0 -74.5 12 -93.5 36s-25.5 58.333 -19.5 103l21 143h-65l7 55h65l12 85h-89
l9 70l91 5l21 143h95l-20 -143h150l-10 -75h-151z" />
    <glyph glyph-name="Umacron" unicode="&#x16a;" horiz-adv-x="664" 
d="M542 782h-282l10 71h282zM642 690l-61.001 -426c-14 -100.667 -42.667 -172 -86 -214s-108.666 -63 -195.999 -63c-90 0 -153.333 22 -190 66s-48 116 -34 216l58 421h101l-60 -426c-10 -70.667 -6.16699 -119.667 11.5 -147s54.5 -41 110.5 -41c58 0 101 14.333 129 43
s47 78.667 57 150l59 421h101z" />
    <glyph glyph-name="umacron" unicode="&#x16b;" horiz-adv-x="569" 
d="M472 607h-283l10 71h283zM523 488l-68 -487.999h-75l6 102c-79.333 -76.667 -153.333 -115 -222 -115c-44 0 -76 12.167 -96 36.5s-27 57.5 -21 99.5l51 365h97l-49 -340c-4 -28.667 -2 -48.834 6 -60.501s23.333 -17.5 46 -17.5c27.333 0 54 8 80 24s61.667 44 107 84
l42 310h96z" />
    <glyph glyph-name="Uring" unicode="&#x16e;" horiz-adv-x="664" 
d="M412 927c33.333 0 59.832 -10.3311 79.499 -30.998s27.5 -47.334 23.5 -80.001c-4 -28.667 -16 -52.834 -36 -72.501s-45.667 -29.5 -77 -29.5c-33.333 0 -59.666 10.333 -78.999 31s-27.333 47 -24 79c3.33301 29.333 15 53.833 35 73.5s46 29.5 78 29.5z
M412.999 879.002c-17.333 0 -31.5 -5.5 -42.5 -16.5s-17.5 -24.833 -19.5 -41.5c-2 -18.667 2 -33.167 12 -43.5s23 -15.5 39 -15.5c17.333 0 31.5 5.66699 42.5 17s17.167 25.666 18.5 42.999c1.33301 16.667 -2.5 30.334 -11.5 41.001s-21.833 16 -38.5 16z
M641.999 690.002l-61.001 -426c-14 -100.667 -42.667 -172 -86 -214s-108.666 -63 -195.999 -63c-90 0 -153.333 22 -190 66s-48 116 -34 216l58 421h101l-60 -426c-10 -70.667 -6.16699 -119.667 11.5 -147s54.5 -41 110.5 -41c58 0 101 14.333 129 43s47 78.667 57 150
l59 421h101z" />
    <glyph glyph-name="uring" unicode="&#x16f;" horiz-adv-x="569" 
d="M331 539c-33.333 0 -59.666 10.333 -78.999 31s-27.333 47 -24 79c3.33301 29.333 15.166 53.833 35.499 73.5s46.166 29.5 77.499 29.5c33.333 0 60 -10.333 80 -31s28 -47.334 24 -80.001c-3.33301 -29.333 -15.166 -53.666 -35.499 -72.999s-46.5 -29 -78.5 -29z
M281 646c-2 -18.667 2 -33.167 12 -43.5s23 -15.5 39 -15.5c16.667 0 30.5 5.66699 41.5 17s17.5 25.666 19.5 42.999c1.33301 16.667 -2.66699 30.334 -12 41.001s-22.333 16 -39 16c-17.333 0 -31.5 -5.5 -42.5 -16.5s-17.167 -24.833 -18.5 -41.5zM523 488l-68 -487.999
h-75l6 102c-79.333 -76.667 -153.333 -115 -222 -115c-44 0 -76 12.167 -96 36.5s-27 57.5 -21 99.5l51 365h97l-49 -340c-4 -28.667 -2 -48.834 6 -60.501s23.333 -17.5 46 -17.5c27.333 0 54 8 80 24s61.667 44 107 84l42 310h96z" />
    <glyph glyph-name="Uhungarumlaut" unicode="&#x170;" horiz-adv-x="664" 
d="M457 881l-158 -161l-41 32l140 171zM626 881l-159 -161l-39 32l138 171zM642 690l-61.001 -426c-14 -100.667 -42.667 -172 -86 -214s-108.666 -63 -195.999 -63c-90 0 -153.333 22 -190 66s-48 116 -34 216l58 421h101l-60 -426
c-10 -70.667 -6.16699 -119.667 11.5 -147s54.5 -41 110.5 -41c58 0 101 14.333 129 43s47 78.667 57 150l59 421h101z" />
    <glyph glyph-name="uhungarumlaut" unicode="&#x171;" horiz-adv-x="569" 
d="M228 545l-40 32l139 171l59 -42zM358 577l138 171l59 -42l-158 -161zM427 488l96 0.000976562l-68 -488h-75l6 102c-79.333 -76.667 -153.333 -115 -222 -115c-44 0 -76 12.167 -96 36.5s-27 57.5 -21 99.5l51 365h97l-49 -340c-4 -28.667 -2 -48.834 6 -60.501
s23.333 -17.5 46 -17.5c27.333 0 54 8 80 24s61.667 44 107 84z" />
    <glyph glyph-name="Uogonek" unicode="&#x172;" horiz-adv-x="664" 
d="M642 690l-61.002 -425.999c-13.333 -95.333 -39.666 -164.166 -78.999 -206.499s-97.666 -65.5 -174.999 -69.5c-30.667 -32.667 -58 -70 -82 -112c-12.667 -22 -13 -36.333 -1 -43s33.667 -4.66699 65 6l12 -42c-26.667 -10 -50.5 -16.167 -71.5 -18.5s-37.667 -1 -50 4
s-21.833 12.167 -28.5 21.5s-9.5 20.5 -8.5 33.5s5.16699 26.833 12.5 41.5c18.667 36.667 52.667 73 102 109c-82 3.33301 -139.667 27.166 -173 71.499s-43 114.166 -29 209.499l58 421h101l-60 -426c-10 -70.667 -6.16699 -119.667 11.5 -147s54.5 -41 110.5 -41
c58 0 101 14.333 129 43s47 78.667 57 150l59 421h101z" />
    <glyph glyph-name="uogonek" unicode="&#x173;" horiz-adv-x="569" 
d="M523 488l-68 -487.998c-32 -34 -60.333 -72.333 -85 -115c-12.667 -22 -13 -36.333 -1 -43s33.667 -4.66699 65 6l12 -42c-26.667 -10 -50.5 -16.167 -71.5 -18.5s-37.667 -1 -50 4s-21.833 12.167 -28.5 21.5s-9.66699 20.5 -9 33.5s4.66699 26.833 12 41.5
c20 37.333 55.667 74.666 107 111.999h-26l6 102c-79.333 -76.667 -153.333 -115 -222 -115c-44 0 -76 12.167 -96 36.5s-27 57.5 -21 99.5l51 365h97l-49 -340c-4 -28.667 -2 -48.834 6 -60.501s23.333 -17.5 46 -17.5c27.333 0 54 8 80 24s61.667 44 107 84l42 310h96z
" />
    <glyph glyph-name="Wcircumflex" unicode="&#x174;" horiz-adv-x="946" 
d="M713 763l-35 -38l-121 101h-8l-149 -99l-28 42l148 129h69zM973 690l-226 -663c-7.33301 -18 -21 -27 -41 -27h-109c-9.33301 0 -17.333 3 -24 9s-10.334 13.667 -11.001 23l-31 507l-3 38.5c-1.33301 17 -2 29.833 -2 38.5h-21l-25 -81l-170 -507
c-6 -18.667 -19.333 -28 -40 -28h-108c-10 0 -18.5 3 -25.5 9s-10.833 13.333 -11.5 22l-42 659h102l24 -528c0.666992 -9.33301 1.16699 -23.833 1.5 -43.5s0.5 -34.5 0.5 -44.5h23c2.66699 9.33301 12.334 40 29.001 92l166 493c6.66699 20.667 20.334 31 41.001 31h105
c9.33301 0 17.166 -3.33301 23.499 -10s9.83301 -15 10.5 -25l36 -494c2.66699 -38.667 3.66699 -67.667 3 -87h24l27 90l169 526h105z" />
    <glyph glyph-name="wcircumflex" unicode="&#x175;" horiz-adv-x="857" 
d="M639 584l-35 -38l-120 101h-9l-149 -98l-27 42l147 129h69zM208 76l14.002 0.000976562c19.333 0 35.666 12.667 48.999 38c15.333 28.667 31.666 73 48.999 133c15.333 56 29.666 128.333 42.999 217c2 16 11 24 27 24h106c14 0 22 -7.33301 24 -22l45 -390h12
c14 0 27.667 10.667 41 32c26.667 41.333 49 87.666 67 138.999c25.333 69.333 44.666 149.666 57.999 240.999h101c-21.333 -101.333 -49.666 -194.666 -84.999 -279.999c-30.667 -72 -58.334 -123.667 -83.001 -155c-26.667 -35.333 -57.334 -53 -92.001 -53h-64
c-8 0 -14.667 2.5 -20 7.5s-8.66602 11.167 -9.99902 18.5l-42 399h-13c-5.33301 -60 -17.666 -127.333 -36.999 -202c-18 -60 -38.333 -110.667 -61 -152c-26 -47.333 -65.667 -71 -119 -71h-55c-17.333 0 -27.666 8.66699 -30.999 26l-90 462h101z" />
    <glyph glyph-name="Ycircumflex" unicode="&#x176;" horiz-adv-x="571" 
d="M210 728l-27 42l147 129h69l124 -135l-35 -38l-121 101h-8zM325 238l-33 -238h-101l35 243l-163 447h101l99 -285c9.33301 -29.333 15.333 -56 18 -80h9c8.66699 27.333 22 55 40 83l178 282h109z" />
    <glyph glyph-name="ycircumflex" unicode="&#x177;" horiz-adv-x="545" 
d="M158 549l-27 42l148 129h68l125 -136l-36 -38l-120 101h-8zM430 488h101c-36 -158.667 -83 -293 -141 -403c-52 -98.667 -103.5 -168.667 -154.5 -210s-111.833 -68 -182.5 -80l-18 69c42.667 10 80 25 112 45s62.667 50.333 92 91h-45
c-15.333 0 -28.333 4.16699 -39 12.5s-17.334 19.833 -20.001 34.5l-94 441h102l74 -395c2 -11.333 8.66699 -17 20 -17h49c2.66699 4.66699 6.33398 11.5 11.001 20.5l9 17.5c58.667 122 100 246.667 124 374z" />
    <glyph glyph-name="Ydieresis" unicode="&#x178;" horiz-adv-x="571" 
d="M281 765h-32c-18 0 -26 8.33301 -24 25l9 56c2.66699 18 13 27 31 27h29c18.667 0 27 -9 25 -27l-9 -55c-2 -17.333 -11.667 -26 -29 -26zM449 765h-32.999c-16.667 0 -24.667 8.33301 -24 25l9 56c3.33301 18 13.666 27 30.999 27h30c18.667 0 26.667 -9 24 -27l-9 -55
c-2 -17.333 -11.333 -26 -28 -26zM325.001 238l-33 -238h-101l35 243l-163 447h101l99 -285c9.33301 -29.333 15.333 -56 18 -80h9c8.66699 27.333 22 55 40 83l178 282h109z" />
    <glyph glyph-name="Zacute" unicode="&#x179;" horiz-adv-x="564" 
d="M312 726l-29 45l196 147l46 -75zM569 690l-13 -85l-429 -520h364l-12 -85h-474l12 85l429 520h-351l13 85h461z" />
    <glyph glyph-name="zacute" unicode="&#x17a;" horiz-adv-x="508" 
d="M249 547l-28 45l196 146l45 -74zM475 409l-348 -330h305l-11 -79h-415l10 79l348 330h-297l11 79h407z" />
    <glyph glyph-name="Zdotaccent" unicode="&#x17b;" horiz-adv-x="564" 
d="M369 756l-30.999 -0.000976562c-9.33301 0 -16.333 2.83301 -21 8.5s-6.33398 12.834 -5.00098 21.501l7 56c2 18 11.667 27 29 27h31c20.667 0 30 -10.333 28 -31l-8 -55c-2.66699 -18 -12.667 -27 -30 -27zM569.001 689.999l-13 -85l-429 -520h364l-12 -85h-474l12 85
l429 520h-351l13 85h461z" />
    <glyph glyph-name="zdotaccent" unicode="&#x17c;" horiz-adv-x="508" 
d="M307 576l-30.999 0.000976562c-9.33301 0 -16.5 2.83301 -21.5 8.5s-6.83301 13.167 -5.5 22.5l7 55c2.66699 18 12.667 27 30 27h31c9.33301 0 16.5 -2.83301 21.5 -8.5s6.83301 -12.834 5.5 -21.501l-8 -56c-2.66699 -18 -12.334 -27 -29.001 -27zM475.001 409.001
l-348 -330h305l-11 -79h-415l10 79l348 330h-297l11 79h407z" />
    <glyph glyph-name="Zcaron" unicode="&#x17d;" horiz-adv-x="564" 
d="M316 742l-116 136l39 35l112 -99h8l147 99l29 -42l-148 -129h-71zM569 690l-13 -85l-429 -520h364l-12 -85h-474l12 85l429 520h-351l13 85h461z" />
    <glyph glyph-name="zcaron" unicode="&#x17e;" horiz-adv-x="508" 
d="M254 563l-117 135l39 36l113 -100h8l147 100l29 -42l-149 -129h-70zM475 409l-348 -330h305l-11 -79h-415l10 79l348 330h-297l11 79h407z" />
    <glyph glyph-name="florin" unicode="&#x192;" horiz-adv-x="444" 
d="M467 620h-69.999c-29.333 0 -51.333 -5.33301 -66 -16s-25.334 -31 -32.001 -61l-33 -142h137l-17 -76h-138l-77 -332c-11.333 -47.333 -30 -82.833 -56 -106.5s-63.333 -35.5 -112 -35.5c-44.667 0 -80.667 2.33301 -108 7l19 73h65c28 0 49.5 6 64.5 18
s25.833 31.667 32.5 59l74 317h-98l14 67l102 8l37 158c22 95.333 79.333 143 172 143c42.667 0 79 -2.66699 109 -8z" />
    <glyph glyph-name="Scommaaccent" unicode="&#x218;" horiz-adv-x="562" 
d="M332 283l-134.999 48.001c-47.333 17.333 -79.666 41.666 -96.999 72.999s-22.333 72 -15 122c5.33301 38 14.333 69 27 93s30.167 41.833 52.5 53.5s46 19.5 71 23.5s57.167 6 96.5 6c80 0 149 -7.33301 207 -22l-11 -72c-68.667 3.33301 -134 5 -196 5
c-22.667 0 -39.167 -0.166992 -49.5 -0.5s-22.5 -2 -36.5 -5s-24.167 -7.83301 -30.5 -14.5s-12.333 -16.334 -18 -29.001s-9.83398 -28.667 -12.501 -48c-4 -32.667 -1.83301 -55 6.5 -67s28.166 -23.667 59.499 -35l132 -47c50.667 -18 84.167 -41.833 100.5 -71.5
s20.833 -71.167 13.5 -124.5c-10 -73.333 -33.833 -122.166 -71.5 -146.499s-100.5 -36.5 -188.5 -36.5c-72.667 0 -143.667 6.66699 -213 20l13 74c104 -3.33301 170.333 -5 199 -5c58.667 0.666992 98.667 7.16699 120 19.5s35 40.5 41 84.5
c4 32.667 1.66699 55.167 -7 67.5s-28 23.833 -58 34.5zM247.001 -57.999l26.001 -0.000976562c22.667 0 32 -10.333 28 -31l-8 -55c-5.33301 -39.333 -23.333 -84 -54 -134l-43 14c16 46 26.333 80.333 31 103c-9.33301 -0.666992 -16.5 1.33301 -21.5 6
s-6.83301 11.334 -5.5 20.001l7 49c2.66699 11.333 6.66699 18.833 12 22.5s14.666 5.5 27.999 5.5z" />
    <glyph glyph-name="scommaaccent" unicode="&#x219;" horiz-adv-x="508" 
d="M283 182l-130.997 60.0049c-36.667 17.333 -62.667 36.833 -78 58.5s-20.666 49.5 -15.999 83.5c5.33301 44.667 24.333 75.667 57 93s82.334 25.333 149.001 24c75.333 -1.33301 145 -7 209 -17l-12 -69c-84.667 2.66699 -149.334 4.33398 -194.001 5.00098
c-44 0 -73.5 -2.33301 -88.5 -7s-23.833 -16.667 -26.5 -36c-2 -16.667 1.16699 -29 9.5 -37s24.5 -17.333 48.5 -28l132 -60c40 -18.667 67.333 -37.834 82 -57.501s19.667 -47.5 15 -83.5c-2.66699 -22 -8.33398 -40.5 -17.001 -55.5s-18.834 -26.833 -30.501 -35.5
s-27.667 -15.334 -48 -20.001s-40.333 -7.66699 -60 -9s-44.834 -2 -75.501 -2c-32 0 -57.167 0.5 -75.5 1.5s-38.666 3 -60.999 6s-39.833 5.16699 -52.5 6.5l11 72c37.333 -3.33301 88.333 -5 153 -5c61.333 0 102.666 3.33301 123.999 10s33.666 20 36.999 40
c0.666992 3.33301 1 6.66602 1 9.99902s-0.166992 6.16602 -0.5 8.49902s-1.33301 4.66602 -3 6.99902s-3 4.33301 -4 6s-2.83301 3.5 -5.5 5.5s-5 3.66699 -7 5s-5 3 -9 5s-7.16699 3.5 -9.5 4.5s-6 2.66699 -11 5s-9.16699 4.16602 -12.5 5.49902zM200.003 -57.9951
l26.001 0.000976562c22 0 31 -10.333 27 -31l-7 -55c-5.33301 -39.333 -23.333 -84 -54 -134l-43 14c16.667 51.333 26.667 85.666 30 102.999c-9.33301 -0.666992 -16.333 1.5 -21 6.5s-6.33398 11.5 -5.00098 19.5l7 49c2.66699 11.333 6.5 18.833 11.5 22.5
s14.5 5.5 28.5 5.5z" />
    <glyph glyph-name="uni021A" unicode="&#x21a;" horiz-adv-x="576" 
d="M600 601h-219l-85 -601h-100l85 601h-218l13 89h536zM229 -58h26c22.667 0 32 -10.333 28 -31l-7 -55c-5.33301 -39.333 -23.333 -84 -54 -134l-43 14c16.667 51.333 26.667 85.666 30 102.999c-9.33301 -0.666992 -16.333 1.33301 -21 6s-6.66699 11.334 -6 20.001l8 49
c2.66699 11.333 6.5 18.833 11.5 22.5s14.167 5.5 27.5 5.5z" />
    <glyph glyph-name="uni021B" unicode="&#x21b;" horiz-adv-x="385" 
d="M225 413l-39.001 -274.001c-3.33301 -23.333 -1.16602 -39.166 6.50098 -47.499s23.167 -12.5 46.5 -12.5h73l4 -75c-29.333 -8.66699 -67.333 -13 -114 -13c-43.333 0 -74.5 12 -93.5 36s-25.5 58.333 -19.5 103l40 283h-89l9 70l91 5l21 143h95l-20 -143h150l-10 -75
h-151zM173.999 -58.001h26.001c22.667 0 31.667 -10.333 27 -31l-7 -55c-5.33301 -39.333 -23.333 -84 -54 -134l-43 14c14.667 42 24.667 76.333 30 103c-9.33301 -0.666992 -16.333 1.5 -21 6.5s-6.33398 11.5 -5.00098 19.5l7 49c2.66699 11.333 6.5 18.833 11.5 22.5
s14.5 5.5 28.5 5.5z" />
    <glyph glyph-name="circumflex" unicode="&#x2c6;" horiz-adv-x="425" 
d="M436 579l-35 -38l-120 101h-9l-149 -98l-27 41l147 129h69z" />
    <glyph glyph-name="caron" unicode="&#x2c7;" horiz-adv-x="425" 
d="M443 687l-149 -129h-70l-117 135l39 35l112 -99h8l147 99z" />
    <glyph glyph-name="breve" unicode="&#x2d8;" horiz-adv-x="378" 
d="M357 700l47.998 -11c-3.33301 -40 -20 -72.167 -50 -96.5s-68.667 -36.5 -116 -36.5c-50.667 0 -88.667 12.833 -114 38.5s-33.666 58.5 -24.999 98.5l49 3c-2.66699 -22 3.83301 -39 19.5 -51s38.834 -18 69.501 -18c34 0 61.5 6.5 82.5 19.5s33.167 30.833 36.5 53.5z
" />
    <glyph glyph-name="dotaccent" unicode="&#x2d9;" horiz-adv-x="223" 
d="M155 687l31.001 0.000976562c9.33301 0 16.666 -2.83301 21.999 -8.5s7.33301 -12.834 6 -21.501l-8 -56c-2.66699 -18 -12.667 -27 -30 -27h-31c-9.33301 0 -16.333 2.83301 -21 8.5s-6.33398 13.167 -5.00098 22.5l7 55c2.66699 18 12.334 27 29.001 27z" />
    <glyph glyph-name="ring" unicode="&#x2da;" horiz-adv-x="302" 
d="M211 743c32.667 0 58.999 -10.333 78.999 -31s28.333 -47 25 -79c-4 -29.333 -16 -53.833 -36 -73.5s-46 -29.5 -78 -29.5c-33.333 0 -59.666 10.333 -78.999 31s-27.333 47 -24 79c3.33301 29.333 15 53.833 35 73.5s46 29.5 78 29.5zM211.999 695
c-17.333 0 -31.499 -5.50098 -42.499 -16.501s-17.167 -24.833 -18.5 -41.5c-2.66699 -18.667 1.16602 -33 11.499 -43s23.5 -15 39.5 -15c16.667 0 30.5 5.5 41.5 16.5s17.167 25.167 18.5 42.5c1.33301 16.667 -2.5 30.334 -11.5 41.001s-21.833 16 -38.5 16z" />
    <glyph glyph-name="ogonek" unicode="&#x2db;" horiz-adv-x="251" 
d="M105 3l45 -3c-32 -34 -60.333 -72.333 -85 -115c-12.667 -22 -13 -36.333 -1 -43s33.667 -4.66699 65 6l12 -42c-26.667 -10 -50.5 -16.167 -71.5 -18.5s-37.667 -1 -50 4s-21.833 12.167 -28.5 21.5s-9.5 20.5 -8.5 33.5s5.16699 26.833 12.5 41.5
c20 38.667 56.667 77 110 115z" />
    <glyph glyph-name="tilde" unicode="&#x2dc;" horiz-adv-x="423" 
d="M143 580l-44 4.00195c1.33301 40 10.5 70.167 27.5 90.5s37.833 29.5 62.5 27.5c22.667 -2 48.167 -10.833 76.5 -26.5s50.5 -24.5 66.5 -26.5c19.333 -2.66699 33.5 0.166016 42.5 8.49902s14.833 22.166 17.5 41.499l44 -4c-0.666992 -38.667 -9.33398 -68 -26.001 -88
s-38 -29 -64 -27s-53.667 11.167 -83 27.5s-49.666 25.5 -60.999 27.5c-18.667 2 -32.5 -1.5 -41.5 -10.5s-14.833 -23.833 -17.5 -44.5z" />
    <glyph glyph-name="hungarumlaut" unicode="&#x2dd;" horiz-adv-x="463" 
d="M297 689l-158 -160l-40 32l139 171zM466 689l-159 -160l-39 32l139 171z" />
    <glyph glyph-name="Delta" unicode="&#x394;" horiz-adv-x="631" 
d="M573 40l-6 -40h-582l5 40l333 650h100zM465 81l-93 434.001c-4 20.667 -7.66699 46.667 -11 78c-11.333 -32.667 -22.333 -59.334 -33 -80.001l-213 -432h350z" />
    <glyph glyph-name="Omega" unicode="&#x3a9;" horiz-adv-x="715" 
d="M21 88l95.9971 0.000976562c22 0 44.333 -2.33301 67 -7c-40.667 40 -69.667 83.667 -87 131s-21.333 103.333 -12 168c14.667 109.333 47.834 190.5 99.501 243.5s126.834 79.5 225.501 79.5c194 0 275.333 -110.667 244 -332
c-10.667 -71.333 -29.667 -128.5 -57 -171.5s-69.666 -82.833 -126.999 -119.5c21.333 5.33301 43 8 65 8h101l-11 -88h-255l9 85c52.667 34.667 91.667 73.167 117 115.5s42.666 97.5 51.999 165.5c12.667 89.333 8.33398 153.166 -12.999 191.499s-64.333 57.5 -129 57.5
c-66.667 0 -116.5 -20 -149.5 -60s-56.167 -106.333 -69.5 -199c-10 -69.333 -8.5 -123 4.5 -161s40.5 -75.333 82.5 -112l-10 -83h-254z" />
    <glyph glyph-name="mu" unicode="&#x3bc;" horiz-adv-x="595" 
d="M537 488l-68.999 -487.999h-73v71c-74.667 -56 -140.334 -84 -197.001 -84c-30.667 0 -57 7.33301 -79 22c2 -25.333 1.66699 -49.333 -1 -72l-20 -136h-85l48 340l48 347h97l-48 -340c-2.66699 -24.667 1 -42.334 11 -53.001s27.667 -16 53 -16c41.333 0 98 19 170 57
l48 352h97z" />
    <glyph glyph-name="pi" unicode="&#x3c0;" horiz-adv-x="640" 
d="M631 410h-90l-58 -410h-96l57 410h-215l-57 -410h-97l58 410h-91l11 78h589z" />
    <glyph glyph-name="uni0401" unicode="&#x401;" horiz-adv-x="560" 
d="M311 785h-33.002c-18 0 -26 8.33301 -24 25l9 56c2.66699 17.333 13 26 31 26h29c10.667 0 17.834 -2 21.501 -6s4.83398 -10.667 3.50098 -20l-9 -55c-2 -17.333 -11.333 -26 -28 -26zM477.998 785h-32c-18 0 -26 8.33301 -24 25l9 56c2 17.333 12.333 26 31 26h29
c10.667 0 17.667 -2 21 -6s4.33301 -10.667 3 -20l-8 -55c-2 -17.333 -11.667 -26 -29 -26zM550.998 606h-272.002c-21.333 0 -37.166 -4.83301 -47.499 -14.5s-16.833 -26.5 -19.5 -50.5l-19 -140h291l-10 -77h-292l-24 -178c-2.66699 -22.667 -0.166992 -38.667 7.5 -48
s22.5 -14 44.5 -14h267l-2 -78c-57.333 -5.33301 -149.666 -8 -276.999 -8c-53.333 0 -91.833 12.833 -115.5 38.5s-32.5 61.167 -26.5 106.5l59 427c5.33301 38.667 21 68.667 47 90s61 32 105 32c138 0 237 -2.66699 297 -8z" />
    <glyph glyph-name="uni0402" unicode="&#x402;" horiz-adv-x="748" 
d="M381 601l-31.001 -223.001c64.667 44 133.334 66 206.001 66c53.333 0 93.5 -15.667 120.5 -47s34.833 -87 23.5 -167c-13.333 -88.667 -44 -150.667 -92 -186s-113.333 -51.666 -196 -48.999l-4 73c63.333 5.33301 108.666 18.833 135.999 40.5s46 61.5 56 119.5
c2.66699 29.333 4 52.5 4 69.5s-4.5 30 -13.5 39s-18.167 14.833 -27.5 17.5s-21.333 4 -36 4c-33.333 0 -63.666 -5 -90.999 -15s-60 -27.333 -98 -52l-41 -291h-100l85 601h-218l13 89h536l-12 -89h-220z" />
    <glyph glyph-name="uni0403" unicode="&#x403;" horiz-adv-x="516" 
d="M532 843l-213 -117l-29 45l196 147zM40 0l77.999 558c6 43.333 21.833 76.5 47.5 99.5s57.834 34.5 96.501 34.5c134 0 230.333 -3 289 -9l-14 -77h-246c-26.667 0 -45 -4.66699 -55 -14s-17 -28.333 -21 -57l-75 -535h-100z" />
    <glyph glyph-name="uni0404" unicode="&#x404;" 
d="M582 681l-16 -77.002c-52.667 5.33301 -104.334 8 -155.001 8c-38.667 0 -70 -2.66699 -94 -8s-45.667 -15.666 -65 -30.999s-34.666 -36.666 -45.999 -63.999s-21 -63.333 -29 -108h289l-10 -77h-291c-10 -62 -11.333 -110.833 -4 -146.5s21.5 -60.5 42.5 -74.5
s53.5 -22.333 97.5 -25c53.333 -2.66699 118 0.666016 194 9.99902l5 -77c-63.333 -18.667 -130.333 -26.334 -201 -23.001c-104.667 4.66699 -174 33.834 -208 87.501s-42.667 144.834 -26 273.501c18 134.667 52.333 227.167 103 277.5s129 75.5 235 75.5
c67.333 0 127 -7 179 -21z" />
    <glyph glyph-name="uni0405" unicode="&#x405;" horiz-adv-x="562" 
d="M332 283l-134.999 48.001c-47.333 17.333 -79.666 41.666 -96.999 72.999s-22.333 72 -15 122c5.33301 38 14.333 69 27 93s30.167 41.833 52.5 53.5s46 19.5 71 23.5s57.167 6 96.5 6c80 0 149 -7.33301 207 -22l-11 -72c-68.667 3.33301 -134 5 -196 5
c-22.667 0 -39.167 -0.166992 -49.5 -0.5s-22.5 -2 -36.5 -5s-24.167 -7.83301 -30.5 -14.5s-12.333 -16.334 -18 -29.001s-9.83398 -28.667 -12.501 -48c-4 -32.667 -1.83301 -55 6.5 -67s28.166 -23.667 59.499 -35l132 -47c50.667 -18 84.167 -41.833 100.5 -71.5
s20.833 -71.167 13.5 -124.5c-10 -73.333 -33.833 -122.166 -71.5 -146.499s-100.5 -36.5 -188.5 -36.5c-72.667 0 -143.667 6.66699 -213 20l13 74c104 -3.33301 170.333 -5 199 -5c58.667 0.666992 98.667 7.16699 120 19.5s35 40.5 41 84.5
c4 32.667 1.66699 55.167 -7 67.5s-28 23.833 -58 34.5z" />
    <glyph glyph-name="uni0406" unicode="&#x406;" horiz-adv-x="266" 
d="M143 0h-101l97 690h101z" />
    <glyph glyph-name="uni0407" unicode="&#x407;" horiz-adv-x="267" 
d="M117 873l29 -0.000976562c10.667 0 17.667 -2.16699 21 -6.5s4.33301 -11.166 3 -20.499l-9 -55c-0.666992 -17.333 -10 -26 -28 -26h-32c-18 0 -26 8.33301 -24 25l9 56c2 18 12.333 27 31 27zM284 872.999h29.002c19.333 0 27.666 -9 24.999 -27l-9 -55
c-2 -17.333 -11.667 -26 -29 -26h-32c-18 0 -26 8.33301 -24 25l9 56c3.33301 18 13.666 27 30.999 27zM143.002 -0.000976562h-101l97 690h101z" />
    <glyph glyph-name="uni0408" unicode="&#x408;" horiz-adv-x="342" 
d="M318 690l-76.001 -541c-7.33301 -52 -24.166 -91.5 -50.499 -118.5s-60.5 -40.167 -102.5 -39.5c-40.667 0 -73.667 4.66699 -99 14l19 71h46c50.667 0 79.667 24 87 72l75 542h101z" />
    <glyph glyph-name="uni0409" unicode="&#x409;" horiz-adv-x="974" 
d="M585 417l130.996 0.00292969c84.667 0 142.5 -16.333 173.5 -49s40.833 -89.334 29.5 -170.001c-10.667 -78.667 -33.667 -132.667 -69 -162s-91.666 -44 -168.999 -44c-110 0 -194.667 2.66699 -254 8l86 609h-105c-25.333 0 -44.166 -5.16699 -56.499 -15.5
s-21.5 -29.166 -27.5 -56.499l-20.5 -92.5c-9.66699 -43 -16.334 -71.5 -20.001 -85.5l-17 -65c-7.66699 -29.333 -14.167 -51 -19.5 -65s-12.166 -30.333 -20.499 -49s-17.5 -35.667 -27.5 -51c-25.333 -40 -54.166 -70.5 -86.499 -91.5s-71.5 -34.167 -117.5 -39.5l-4 88
c51.333 10.667 90.333 36 117 76c6.66699 10.667 12.834 21.5 18.501 32.5s10.667 21.167 15 30.5s9.16602 22.166 14.499 38.499s9.5 29.666 12.5 39.999s7.33301 27.166 13 50.499s10 41.833 13 55.5l15.5 70l18 79.5c10 44.667 27.333 77.667 52 99s58.334 32 101.001 32
h242zM537.996 80.0029l123.001 -1c56.667 0 95.334 8.5 116.001 25.5s34.667 51.167 42 102.5c7.33301 49.333 4.16602 83 -9.50098 101s-46.834 27 -99.501 27h-136z" />
    <glyph glyph-name="uni040A" unicode="&#x40a;" horiz-adv-x="976" 
d="M586 417l132.999 0.000976562c84.667 0 142.334 -16.333 173.001 -49s40.334 -89.334 29.001 -170.001c-10.667 -79.333 -33.5 -133.5 -68.5 -162.5s-91.5 -43.5 -169.5 -43.5c-110.667 0 -195.334 2.66699 -254.001 8l47 334h-285l-47 -334h-101l97 690h101l-39 -274
h285l39 274h99zM538.999 80.001l129.002 -1c54.667 0 92 8.5 112 25.5s33.667 51.167 41 102.5c7.33301 49.333 4.16602 83 -9.50098 101s-46.834 27 -99.501 27h-137z" />
    <glyph glyph-name="uni040B" unicode="&#x40b;" horiz-adv-x="767" 
d="M381 601l-32 -227c75.333 46.667 149.333 70 222 70c110.667 0 158.667 -53.333 144 -160l-40 -284h-100l38 268c4.66699 33.333 1.5 56.333 -9.5 69s-33.5 19 -67.5 19s-65.667 -5.16699 -95 -15.5s-64.333 -28.5 -105 -54.5l-40 -286h-100l85 601h-218l13 89h536
l-12 -89h-219z" />
    <glyph glyph-name="uni040C" unicode="&#x40c;" horiz-adv-x="601" 
d="M333 726l-29 45l196 147l46 -75zM344 360l-1.00293 -3.99512c52.667 -7.33301 91.667 -35.333 117 -84c17.333 -34.667 37.666 -106 60.999 -214c6.66699 -30.667 10.667 -50 12 -58h-101c-2.66699 11.333 -6 27.666 -10 48.999l-12 57.5l-11 49
c-4.66699 20.333 -8.66699 35.166 -12 44.499l-13 35.5c-5.33301 14.333 -10.666 24.666 -15.999 30.999l-19 22.5c-7.33301 8.66699 -15.166 14.667 -23.499 18s-17.833 6.16602 -28.5 8.49902s-22.334 3.5 -35.001 3.5h-71c0.666992 -18 -1 -42.333 -5 -73l-34 -246h-100
l97 690h100l-31 -213c-2.66699 -28 -8 -53.667 -16 -77h66c26.667 0 50.334 5.33301 71.001 16s41.834 31.167 63.501 61.5s38.334 56.166 50.001 77.499s30.5 59 56.5 113l11 22h103l-26.5 -56l-23.5 -49.5c-11.333 -23.667 -19.5 -39.667 -24.5 -48l-23 -40
c-10.333 -18.333 -18.5 -31 -24.5 -38l-24.5 -30c-10.333 -13 -19.5 -22.167 -27.5 -27.5l-28 -19c-10.667 -7.33301 -21.5 -12.5 -32.5 -15.5s-22.5 -5.16699 -34.5 -6.5z" />
    <glyph glyph-name="uni040D" unicode="&#x40d;" horiz-adv-x="692" 
d="M466 770l-34 -44l-195 122l52 69zM568 0l-96.002 -0.000976562l65 465c4.66699 30 11.334 64 20.001 102h-5c-22.667 -40.667 -38 -66.667 -46 -78l-354 -489h-110l97 690h97l-65 -465c-5.33301 -34.667 -12.666 -68.667 -21.999 -102h5
c12 22.667 28.667 49.334 50 80.001l352 487h109z" />
    <glyph glyph-name="uni040E" unicode="&#x40e;" horiz-adv-x="568" 
d="M467 888l48.001 -11c-2.66699 -40 -19 -72.167 -49 -96.5s-68.667 -36.5 -116 -36.5c-50.667 0 -88.834 12.833 -114.501 38.5s-34.167 58.167 -25.5 97.5l49 4c-2.66699 -22 4 -39 20 -51s39.333 -18 70 -18c34 0 61.333 6.5 82 19.5s32.667 30.833 36 53.5z
M612.001 690l-254.999 -519.998c-26.667 -55.333 -53.834 -97.833 -81.501 -127.5s-61.167 -46.167 -100.5 -49.5c-41.333 -3.33301 -85 2 -131 16l16 72c24 -1.33301 42.667 -2.33301 56 -3s26.666 0.166016 39.999 2.49902s23 4.83301 29 7.5s13.333 8.66699 22 18
s15.5 18.166 20.5 26.499l23.5 40.5l16 27h-33c-37.333 0 -59.666 17 -66.999 51l-95 439h100l79 -393c2 -8.66699 7.66699 -13 17 -13h42l195 406h107z" />
    <glyph glyph-name="uni040F" unicode="&#x40f;" horiz-adv-x="676" 
d="M648 690l-97 -690h-207l-25 -151h-70l17 151h-223l97 690h101l-86 -609h307l85 609h101z" />
    <glyph glyph-name="uni0410" unicode="&#x410;" horiz-adv-x="623" 
d="M442 208h-276l-92 -208h-106l310 665c6.66699 16.667 19.667 25 39 25h102c8.66699 0 16.167 -2.83301 22.5 -8.5s9.83301 -12.5 10.5 -20.5l125 -661h-100zM428 296l-42.999 259c-2.66699 13.333 -5.33398 33.333 -8.00098 60h-30l-26 -60l-116 -259h223z" />
    <glyph glyph-name="uni0411" unicode="&#x411;" horiz-adv-x="597" 
d="M227 606l-29 -209h134c86 0 144.333 -15.167 175 -45.5s40.667 -83.833 30 -160.5c-11.333 -77.333 -34.5 -130 -69.5 -158s-91.5 -42 -169.5 -42c-102.667 0 -188 3 -256 9l97 690c72 4 144.333 6 217 6c70 0 141 -2 213 -6l-21 -84h-321zM187 319l-34 -242h131
c54.667 0 92 8.16699 112 24.5s33.667 49.5 41 99.5c6 48 2.5 79.667 -10.5 95s-46.167 23 -99.5 23h-140z" />
    <glyph glyph-name="uni0412" unicode="&#x412;" horiz-adv-x="620" 
d="M42 0l97 690c54 5.33301 129.333 8 226 8c84.667 0 143.334 -13.333 176.001 -40s44 -74.667 34 -144c-7.33301 -50 -21.666 -87.333 -42.999 -112s-53 -39 -95 -43l-1 -5c92 -7.33301 129.333 -69.333 112 -186c-10.667 -69.333 -33.334 -116 -68.001 -140
s-92 -36 -172 -36c-116.667 0 -205.334 2.66699 -266.001 8zM196 396h138c48 0 82.5 8 103.5 24s34.833 46 41.5 90c6 42 0.666992 69.667 -16 83s-51 20 -103 20h-134zM151 78l142 -1c54.667 0 93 7.83301 115 23.5s36.333 46.5 43 92.5
c6.66699 49.333 1.5 82.5 -15.5 99.5s-52.5 25.833 -106.5 26.5h-144z" />
    <glyph glyph-name="uni0413" unicode="&#x413;" horiz-adv-x="516" 
d="M40 0l77.999 558c6 43.333 21.833 76.5 47.5 99.5s57.834 34.5 96.501 34.5c134 0 230.333 -3 289 -9l-14 -77h-246c-26.667 0 -45 -4.66699 -55 -14s-17 -28.333 -21 -57l-75 -535h-100z" />
    <glyph glyph-name="uni0414" unicode="&#x414;" horiz-adv-x="697" 
d="M639 81l-10 -74l-22 -158h-78l13 151h-475l-31 -151h-78l22 152l11 80h65c72.667 120 129 279.333 169 478c7.33301 42 24.5 74.333 51.5 97s61.5 34 103.5 34h259l-85 -609h85zM454 81l74 528h-125c-46 0 -73.667 -24 -83 -72c-36 -190.667 -87.333 -342.667 -154 -456
h288z" />
    <glyph glyph-name="uni0415" unicode="&#x415;" horiz-adv-x="560" 
d="M551 606h-272.002c-21.333 0 -37.166 -4.83301 -47.499 -14.5s-16.833 -26.5 -19.5 -50.5l-19 -140h291l-10 -77h-292l-24 -178c-2.66699 -22.667 -0.166992 -38.667 7.5 -48s22.5 -14 44.5 -14h267l-2 -78c-57.333 -5.33301 -149.666 -8 -276.999 -8
c-53.333 0 -91.833 12.833 -115.5 38.5s-32.5 61.167 -26.5 106.5l59 427c5.33301 38.667 21 68.667 47 90s61 32 105 32c138 0 237 -2.66699 297 -8z" />
    <glyph glyph-name="uni0416" unicode="&#x416;" horiz-adv-x="906" 
d="M654 360l-0.999023 -3.99707c27.333 -3.33301 50.166 -12.166 68.499 -26.499s33.666 -36.333 45.999 -66s22.833 -61.667 31.5 -96s19 -79.833 31 -136.5l6 -31h-99c-26 119.333 -42 188 -48 206c-18 57.333 -43 92.333 -75 105c-13.333 5.33301 -28.666 8 -45.999 8
h-68c1.33301 -24.667 0.333008 -49 -3 -73l-34 -246h-96l35 250c2.66699 18 8 41 16 69h-64c-20 0 -38.333 -3.83301 -55 -11.5s-31.334 -17.334 -44.001 -29.001s-27.167 -30.5 -43.5 -56.5s-30.333 -50.167 -42 -72.5l-49.5 -97.5l-26 -52h-106
c60 126.667 101.333 207.667 124 243c40 62 85 99.333 135 112c8.66699 2 18 3.66699 28 5l1 4c-18 2.66699 -34 7.66699 -48 15s-26.5 19.166 -37.5 35.499s-20.167 31.5 -27.5 45.5s-14.833 36 -22.5 66s-13.667 54.5 -18 73.5s-10.5 49.167 -18.5 90.5h98l6 -29
c6.66699 -34 11.834 -59 15.501 -75s9 -36.333 16 -61s13.667 -42.834 20 -54.501s14.333 -23.834 24 -36.501s20.5 -21.5 32.5 -26.5s26 -7.5 42 -7.5h72c-0.666992 23.333 1 50 5 80l29 210h96l-31 -213c-2.66699 -25.333 -7.66699 -51 -15 -77h60
c24 0 45.667 5.5 65 16.5s39.5 32 60.5 63s37.833 58.167 50.5 81.5s32.334 62.333 59.001 117l6 12h102c-52 -112.667 -87.333 -184 -106 -214c-40 -63.333 -85.667 -101 -137 -113c-6.66699 -1.33301 -13.334 -2.33301 -20.001 -3z" />
    <glyph glyph-name="uni0417" unicode="&#x417;" horiz-adv-x="549" 
d="M106 605l-3.00098 77c56 10.667 120.667 16 194 16c79.333 0 136 -13.667 170 -41s46.333 -75 37 -143c-7.33301 -50 -21.5 -87.333 -42.5 -112s-52.5 -39 -94.5 -43l-1 -5c90 -8.66699 126.667 -70.667 110 -186c-9.33301 -68 -30.833 -114.333 -64.5 -139
s-91.167 -37 -172.5 -37c-96.667 0 -176.667 8 -240 24l12 72c73.333 -9.33301 143.666 -14 210.999 -14c52 0 89.167 8.16699 111.5 24.5s36.833 47.833 43.5 94.5c6.66699 48.667 1.5 81.667 -15.5 99s-51.5 26 -103.5 26h-121l10 79h117c46 0 79.333 8 100 24
s34 45.667 40 89c6.66699 44 2.33398 72.833 -12.999 86.5s-48.666 20.5 -99.999 20.5c-48 0 -109.667 -4 -185 -12z" />
    <glyph glyph-name="uni0418" unicode="&#x418;" horiz-adv-x="692" 
d="M568 0l-96.002 -0.000976562l65 465c4.66699 30 11.334 64 20.001 102h-5c-22.667 -40.667 -38 -66.667 -46 -78l-354 -489h-110l97 690h97l-65 -465c-5.33301 -34.667 -12.666 -68.667 -21.999 -102h5c12 22.667 28.667 49.334 50 80.001l352 487h109z" />
    <glyph glyph-name="uni0419" unicode="&#x419;" horiz-adv-x="692" 
d="M510 883h73c-2.66699 -41.333 -19 -74.833 -49 -100.5s-68.667 -38.5 -116 -38.5c-50.667 0 -88.834 12.833 -114.501 38.5s-34.167 59.167 -25.5 100.5h72c-8.66699 -57.333 16 -86 74 -86c50.667 0 79.334 28.667 86.001 86zM568 0l-96.002 -0.000976562l65 465
c4.66699 30 11.334 64 20.001 102h-5c-22.667 -40.667 -38 -66.667 -46 -78l-354 -489h-110l97 690h97l-65 -465c-5.33301 -34.667 -12.666 -68.667 -21.999 -102h5c12 22.667 28.667 49.334 50 80.001l352 487h109z" />
    <glyph glyph-name="uni041A" unicode="&#x41a;" horiz-adv-x="601" 
d="M344 360l-1.00293 -3.99512c52.667 -7.33301 91.667 -35.333 117 -84c17.333 -34.667 37.666 -106 60.999 -214c6.66699 -30.667 10.667 -50 12 -58h-101c-2.66699 11.333 -6 27.666 -10 48.999l-12 57.5l-11 49c-4.66699 20.333 -8.66699 35.166 -12 44.499l-13 35.5
c-5.33301 14.333 -10.666 24.666 -15.999 30.999l-19 22.5c-7.33301 8.66699 -15.166 14.667 -23.499 18s-17.833 6.16602 -28.5 8.49902s-22.334 3.5 -35.001 3.5h-71c0.666992 -18 -1 -42.333 -5 -73l-34 -246h-100l97 690h100l-31 -213c-2.66699 -28 -8 -53.667 -16 -77
h66c26.667 0 50.334 5.33301 71.001 16s41.834 31.167 63.501 61.5s38.334 56.166 50.001 77.499s30.5 59 56.5 113l11 22h103l-26.5 -56l-23.5 -49.5c-11.333 -23.667 -19.5 -39.667 -24.5 -48l-23 -40c-10.333 -18.333 -18.5 -31 -24.5 -38l-24.5 -30
c-10.333 -13 -19.5 -22.167 -27.5 -27.5l-28 -19c-10.667 -7.33301 -21.5 -12.5 -32.5 -15.5s-22.5 -5.16699 -34.5 -6.5z" />
    <glyph glyph-name="uni041B" unicode="&#x41b;" horiz-adv-x="654" 
d="M626 690l-97.001 -690.004h-100l86 609h-124c-26 0 -45.167 -5.16699 -57.5 -15.5s-21.166 -29.166 -26.499 -56.499c-21.333 -93.333 -36.333 -157.166 -45 -191.499s-19.667 -71.5 -33 -111.5s-28.666 -75 -45.999 -105c-51.333 -89.333 -119 -133 -203 -131l-4 82
c24 6.66699 45 15.834 63 27.501s35.333 30.834 52 57.501c23.333 36.667 42.166 79.167 56.499 127.5s35.833 138.5 64.5 270.5c18.667 84.667 71.667 127 159 127h255z" />
    <glyph glyph-name="uni041C" unicode="&#x41c;" horiz-adv-x="880" 
d="M685 690l108.998 -0.000976562c13.333 0 23.333 -3.83301 30 -11.5s9.33398 -18.167 8.00098 -31.5l-63 -647h-99l63 607h-19l-209 -493c-8.66699 -21.333 -24 -32 -46 -32h-87c-23.333 0 -36.666 12 -39.999 36l-77 489h-20l-106 -607h-100l118 651
c4 26 18.667 39 44 39h107c21.333 0 33.666 -12 36.999 -36l65 -404c2.66699 -15.333 6.33398 -46.666 11.001 -93.999h18l21.5 53c9 22 14.167 35 15.5 39l173 409c8.66699 21.333 24 32.333 46 33z" />
    <glyph glyph-name="uni041D" unicode="&#x41d;" horiz-adv-x="668" 
d="M641 690l-97 -690h-100l46 324h-302l-45 -324h-101l97 690h101l-40 -279h302l39 279h100z" />
    <glyph glyph-name="uni041E" unicode="&#x41e;" horiz-adv-x="667" 
d="M387 703c98 0 165.334 -27.5 202.001 -82.5s45.667 -148.167 27 -279.5c-18 -132.667 -50.5 -224.834 -97.5 -276.501s-120.167 -77.5 -219.5 -77.5c-98 0 -165.833 27.167 -203.5 81.5s-47.5 147.833 -29.5 280.5c17.333 130.667 49.666 222.334 96.999 275.001
s122 79 224 79zM382.001 614c-66.667 0 -114.833 -19.168 -144.5 -57.501s-52.167 -110.166 -67.5 -215.499c-14 -101.333 -11.833 -170.833 6.5 -208.5s59.833 -56.5 124.5 -56.5c65.333 0 113.166 19.5 143.499 58.5s52.833 110.5 67.5 214.5
c14.667 103.333 12.834 173.333 -5.49902 210s-59.833 55 -124.5 55z" />
    <glyph glyph-name="uni041F" unicode="&#x41f;" horiz-adv-x="670" 
d="M643 690l-97 -690h-101l86 609h-303l-85 -609h-101l97 690h504z" />
    <glyph glyph-name="uni0420" unicode="&#x420;" horiz-adv-x="590" 
d="M42 0l96.999 690.002c57.333 6 136.333 9 237 9c82 0 138.5 -17 169.5 -51s40.833 -91 29.5 -171c-6.66699 -45.333 -15.667 -81.833 -27 -109.5s-27.166 -49.334 -47.499 -65.001s-43.833 -26.334 -70.5 -32.001s-61 -8.5 -103 -8.5c-40.667 0 -89.667 3.33301 -147 10
l-38 -272h-100zM190.999 348.002h131.999c52.667 0 89.334 9.33301 110.001 28s35 55 43 109c7.33301 50.667 3.33301 84.667 -12 102s-46 26 -92 26c-70 0 -118 -0.333008 -144 -1z" />
    <glyph glyph-name="uni0421" unicode="&#x421;" horiz-adv-x="568" 
d="M494 88l4.99902 -77c-55.333 -15.333 -124 -23 -206 -23c-99.333 0 -166.666 28.5 -201.999 85.5s-43.666 148.833 -24.999 275.5c18 130.667 50.333 222.167 97 274.5s120 78.5 220 78.5c71.333 0 135 -7 191 -21l-16 -76c-52.667 5.33301 -111.667 8 -177 8
c-44.667 0 -79.834 -7.33301 -105.501 -22s-47.167 -41.667 -64.5 -81s-31 -95.666 -41 -168.999c-14.667 -100 -13 -168.833 5 -206.5s58 -56.834 120 -57.501c74.667 -0.666992 141 3 199 11z" />
    <glyph glyph-name="uni0422" unicode="&#x422;" horiz-adv-x="576" 
d="M600 601h-219l-85 -601h-100l85 601h-218l13 89h536z" />
    <glyph glyph-name="uni0423" unicode="&#x423;" horiz-adv-x="568" 
d="M612 690l-254.999 -519.998c-26.667 -55.333 -53.834 -97.833 -81.501 -127.5s-61.167 -46.167 -100.5 -49.5c-41.333 -3.33301 -85 2 -131 16l16 72c24 -1.33301 42.667 -2.33301 56 -3s26.666 0.166016 39.999 2.49902s23 4.83301 29 7.5s13.333 8.66699 22 18
s15.5 18.166 20.5 26.499l23.5 40.5l16 27h-33c-37.333 0 -59.666 17 -66.999 51l-95 439h100l79 -393c2 -8.66699 7.66699 -13 17 -13h42l195 406h107z" />
    <glyph glyph-name="uni0424" unicode="&#x424;" horiz-adv-x="819" 
d="M525 737l-13.001 -97.999c111.333 -5.33301 188 -30 230 -74s56 -116.667 42 -218c-14.667 -102 -48.167 -174 -100.5 -216s-137.166 -65 -254.499 -69l-13 -97h-100l13 98c-114 5.33301 -191.5 29.833 -232.5 73.5s-54.167 116.5 -39.5 218.5
c14 101.333 47.5 173.166 100.5 215.499s137.5 65.5 253.5 69.5l13 97h101zM494.999 556.001l-58 -410.001c82.667 4.66699 141.5 22 176.5 52s58.167 82.333 69.5 157c10 74 1.83301 125.333 -24.5 154s-80.833 44.334 -163.5 47.001zM344.999 146l58.001 410.001
c-82.667 -4 -141.5 -21 -176.5 -51s-57.833 -82.667 -68.5 -158c-10.667 -74 -2.83398 -125.333 23.499 -154s80.833 -44.334 163.5 -47.001z" />
    <glyph glyph-name="uni0425" unicode="&#x425;" horiz-adv-x="613" 
d="M411 357l140 -357h-102l-121 320h-25l-208 -320h-116l242 357l-129 333h102l109 -294h26l197 294h110z" />
    <glyph glyph-name="uni0426" unicode="&#x426;" horiz-adv-x="691" 
d="M634 81l-11 -81l-21 -151h-78l13 151h-494l97 690h101l-86 -609h294l86 609h100l-86 -609h85z" />
    <glyph glyph-name="uni0427" unicode="&#x427;" horiz-adv-x="626" 
d="M599 690l-97.001 -689.999h-100l45 323c-40 -24.667 -81 -43.334 -123 -56.001s-79 -19 -111 -19c-55.333 0 -94.666 13.167 -117.999 39.5s-31.333 66.833 -24 121.5l40 281h100l-36 -265c-5.33301 -32 -2.5 -54.667 8.5 -68s32.833 -20 65.5 -20
c34.667 0 67.5 5.5 98.5 16.5s68.167 28.833 111.5 53.5l40 283h100z" />
    <glyph glyph-name="uni0428" unicode="&#x428;" horiz-adv-x="933" 
d="M906 690l-97 -690h-767l97 690h98l-85 -609h236l86 609h97l-85 -609h237l85 609h98z" />
    <glyph glyph-name="uni0429" unicode="&#x429;" horiz-adv-x="958" 
d="M816 81h84l-11 -81l-21 -151h-78l13 151h-760l97 690h98l-86 -609h234l86 609h98l-86 -609h234l85 609h98z" />
    <glyph glyph-name="uni042A" unicode="&#x42a;" horiz-adv-x="741" 
d="M352 417l131.999 0.000976562c84 0 141.5 -16.333 172.5 -49s41.167 -89.334 30.5 -170.001c-10.667 -78.667 -33.667 -132.667 -69 -162s-91.666 -44 -168.999 -44c-110.667 0 -195.667 2.66699 -255 8l84 601h-216l12 89h317zM304.999 80.001l129.002 -1
c54.667 0 92 8.5 112 25.5s33.667 51.167 41 102.5c7.33301 49.333 4.16602 83 -9.50098 101s-46.834 27 -99.501 27h-137z" />
    <glyph glyph-name="uni042B" unicode="&#x42b;" horiz-adv-x="853" 
d="M201 417l134 0.000976562c84 0 141.5 -16.333 172.5 -49s41.167 -89.334 30.5 -170.001c-10.667 -78.667 -33.667 -132.667 -69 -162s-92 -44 -170 -44c-111.333 0 -197 2.66699 -257 8l97 690h101zM826 690.001l-97 -690h-101l97 690h101zM154 80.001l130.001 -1
c54.667 0 92.167 8.5 112.5 25.5s34.166 51.167 41.499 102.5c6.66699 49.333 3.16699 83 -10.5 101s-46.5 27 -98.5 27h-139z" />
    <glyph glyph-name="uni042C" unicode="&#x42c;" horiz-adv-x="592" 
d="M201 417l134 0.000976562c84 0 141.5 -16.333 172.5 -49s41.167 -89.334 30.5 -170.001c-10.667 -78.667 -33.667 -132.667 -69 -162s-92 -44 -170 -44c-111.333 0 -197 2.66699 -257 8l97 690h101zM154 80.001l130.001 -1c54.667 0 92.167 8.5 112.5 25.5
s34.166 51.167 41.499 102.5c6.66699 49.333 3.16699 83 -10.5 101s-46.5 27 -98.5 27h-139z" />
    <glyph glyph-name="uni042D" unicode="&#x42d;" horiz-adv-x="576" 
d="M101 604l-4.00195 78.0029c52 13.333 111 20 177 20c109.333 0 183 -26.5 221 -79.5s48 -146.833 30 -281.5c-16.667 -129.333 -49.167 -219.666 -97.5 -270.999s-123.5 -78.666 -225.5 -81.999c-74.667 -2.66699 -141.334 5.66602 -200.001 24.999l15 75
c60.667 -9.33301 122.667 -12.666 186 -9.99902c66.667 3.33301 115.5 22.666 146.5 57.999s54.5 98.333 70.5 189h-294l10 77h294c2.66699 23.333 4 44.333 4 63s-1.33301 35.167 -4 49.5s-6 26.666 -10 36.999s-9.83301 19.166 -17.5 26.499s-15.667 13.166 -24 17.499
s-18.666 7.66602 -30.999 9.99902s-24.666 4 -36.999 5s-27.166 1.5 -44.499 1.5c-54.667 0 -109.667 -2.66699 -165 -8z" />
    <glyph glyph-name="uni042E" unicode="&#x42e;" horiz-adv-x="930" 
d="M200 399h151.001c20 113.333 52.5 192.333 97.5 237s111.5 67 199.5 67c96.667 0 164.167 -27.333 202.5 -82s48.166 -148 29.499 -280c-19.333 -134 -52.333 -226.5 -99 -277.5s-120.667 -76.5 -222 -76.5c-93.333 0 -157 24.833 -191 74.5s-43.667 135.167 -29 256.5
h-151l-44 -318h-101l97 690h101zM775.001 349c14 100.667 11.999 170 -6.00098 208s-58.333 57 -121 57c-63.333 0 -110.166 -19.833 -140.499 -59.5s-52.833 -110.834 -67.5 -213.501c-14 -100.667 -12.5 -170 4.5 -208s55.833 -57 116.5 -57c66 0 114.5 19.833 145.5 59.5
s53.833 110.834 68.5 213.501z" />
    <glyph glyph-name="uni042F" unicode="&#x42f;" horiz-adv-x="613" 
d="M489 0l-101 -0.000976562l39 277l-136 -1c-24 0 -43.833 -5.33301 -59.5 -16s-28.834 -29 -39.501 -55l-85 -205h-109l91 214c30.667 62.667 68 95.334 112 98.001l1 4c-29.333 5.33301 -52.833 18.333 -70.5 39s-29 44.5 -34 71.5s-5.16699 55.833 -0.5 86.5
c9.33301 68 33.333 116 72 144s96 42 172 42c96.667 0 178.334 -3 245.001 -9zM439 361.999l35 249.999c-24 0.666992 -68 1 -132 1c-46.667 0 -80.667 -8.16699 -102 -24.5s-35.333 -45.833 -42 -88.5c-6.66699 -45.333 -2.5 -79.666 12.5 -102.999s43.833 -35 86.5 -35
h142z" />
    <glyph glyph-name="uni0430" unicode="&#x430;" horiz-adv-x="578" 
d="M462 0l-75.999 -0.000976562l4 90c-58.667 -68 -129 -102 -211 -102c-59.333 0 -99.333 19.333 -120 58s-24 106.667 -10 204c7.33301 54 17.666 98.167 30.999 132.5s31 59.833 53 76.5s44.667 27.834 68 33.501s53.333 8.5 90 8.5c78.667 0 158 -8.66699 238 -26z
M389.001 175.999l34.999 242c-61.333 1.33301 -95.666 2 -102.999 2c-34.667 0 -61.167 -1.66699 -79.5 -5s-34.333 -11.833 -48 -25.5s-23.5 -31.167 -29.5 -52.5s-12 -52.666 -18 -93.999c-9.33301 -72.667 -10.666 -119.334 -3.99902 -140.001s25.667 -31 57 -31
s61.666 8.5 90.999 25.5s62.333 43.167 99 78.5z" />
    <glyph glyph-name="uni0431" unicode="&#x431;" 
d="M541 726l9 -86.0029c-36.667 -14 -79.167 -23.833 -127.5 -29.5s-80.166 -10.5 -95.499 -14.5c-26 -6.66699 -48 -14.834 -66 -24.501s-32.667 -22 -44 -37s-20 -28.833 -26 -41.5s-12.667 -29.667 -20 -51l-21 -70h2c18.667 30.667 42.167 55.167 70.5 73.5
s68.5 27.5 120.5 27.5c74 0 123 -20.333 147 -61s31.667 -99.334 23 -176.001c-10 -87.333 -34.667 -150.5 -74 -189.5s-99 -58.5 -179 -58.5c-32 0 -59.833 3 -83.5 9s-43 13.833 -58 23.5s-27.167 22.834 -36.5 39.501s-16 32.834 -20 48.501s-6 35.834 -6 60.501
s1 46.334 3 65.001s5 42.667 9 72c6.66699 46.667 13.334 85 20.001 115s15.5 60 26.5 90s24.167 54.333 39.5 73s34.666 35.667 57.999 51s51 28 83 38c23.333 6.66699 61.166 13.834 113.499 21.501s96.5 18.167 132.5 31.5zM318 390.997
c-55.333 0 -93.833 -12.167 -115.5 -36.5s-36.167 -64.5 -43.5 -120.5c-8 -61.333 -4.66699 -104.166 10 -128.499s45.667 -36.5 93 -36.5c45.333 0 79.333 12.333 102 37s38.667 69.667 48 135c8.66699 59.333 6.5 99.166 -6.5 119.499s-42.167 30.5 -87.5 30.5z" />
    <glyph glyph-name="uni0432" unicode="&#x432;" horiz-adv-x="544" 
d="M358 263l-1.00586 -3.00195c46.667 -3.33301 78.834 -16.5 96.501 -39.5s23.167 -57.5 16.5 -103.5c-7.33301 -48 -27.5 -81.667 -60.5 -101s-88.167 -29 -165.5 -29c-30 0 -55.667 1.33301 -77 4s-40.666 7.83398 -57.999 15.501s-30.833 17.667 -40.5 30
s-17.167 28.333 -22.5 48s-7.66602 43 -6.99902 70s3.66699 58.833 9 95.5c8 53.333 18.333 96.5 31 129.5s29.834 58.5 51.501 76.5s45.834 30 72.501 36s61.334 9 104.001 9c20 0 37.667 -0.666992 53 -2s32.833 -4.66602 52.5 -9.99902s35.167 -12.5 46.5 -21.5
s20 -22.5 26 -40.5s6.66699 -39.333 2 -64c-12 -58.667 -55 -92 -129 -100zM148.994 280.998l118.999 11.999c46 4.66699 77.5 12.334 94.5 23.001s27.5 25.667 31.5 45c6 24 1.33301 40.333 -14 49s-44.333 13 -87 13c-48 0 -81.167 -8.5 -99.5 -25.5
s-33.166 -55.833 -44.499 -116.5zM263.993 223.997l-125.001 -12.001c-5.33301 -26.667 -7 -49 -5 -67s4.16699 -32.167 6.5 -42.5s8.5 -18.166 18.5 -23.499s20.167 -8.83301 30.5 -10.5s24.833 -2.5 43.5 -2.5c49.333 0 84.333 5.33301 105 16s33.334 31.667 38.001 63
c4 32 -1.83301 54.333 -17.5 67s-47.167 16.667 -94.5 12z" />
    <glyph glyph-name="uni0433" unicode="&#x433;" horiz-adv-x="520" 
d="M76 392l-1.99414 77.0039c60 18 127.333 28.667 202 32c21.333 0 42 0.166992 62 0.5s38.833 -1.83398 56.5 -6.50098s32.834 -10.834 45.501 -18.501s22.167 -19.334 28.5 -35.001s8.16602 -34.834 5.49902 -57.501s-9.33398 -43.167 -20.001 -61.5
s-23.834 -33 -39.501 -44s-29.667 -19.5 -42 -25.5s-25.5 -11.667 -39.5 -17c-2.66699 -0.666992 -4.66699 -1.33398 -6 -2.00098l-141 -56c-22.667 -10 -38.834 -19.167 -48.501 -27.5s-15.167 -19.166 -16.5 -32.499c-2 -20 3.5 -33 16.5 -39s34.5 -8.66699 64.5 -8
c82 2 161.333 15 238 39l3 -79c-74.667 -29.333 -154.334 -44 -239.001 -44c-62 0 -108.667 10.667 -140 32s-44.333 55 -39 101c4 33.333 16.5 60.5 37.5 81.5s52.833 39.833 95.5 56.5l129 50c34 12 57.833 23.333 71.5 34s21.167 24 22.5 40
c1.33301 16.667 -5.33398 27.667 -20.001 33s-45.334 7 -92.001 5c-52 -2.66699 -116.333 -12 -193 -28z" />
    <glyph glyph-name="uni0434" unicode="&#x434;" horiz-adv-x="567" 
d="M148 641l15 71c34 -4 64.667 -9.33301 92 -16s54.666 -15.5 81.999 -26.5s50.5 -24.167 69.5 -39.5s37 -33.833 54 -55.5s29.167 -46.5 36.5 -74.5s12.666 -60.333 15.999 -97s1 -77.667 -7 -123c-14 -99.333 -40.5 -173 -79.5 -221s-101.5 -72 -187.5 -72
c-76 0 -129.167 19.167 -159.5 57.5s-40.166 97.5 -29.499 177.5c19.333 151.333 94.333 227 225 227c58.667 0 105.334 -17 140.001 -51c-0.666992 36 -5.66699 67.333 -15 94s-20.833 48 -34.5 64s-33.167 29.833 -58.5 41.5s-49 20.167 -71 25.5s-51.333 11.333 -88 18z
M245 68c50.667 0 87.498 16.832 110.498 50.499s40.167 91.167 51.5 172.5c2.66699 20.667 4.33398 35 5.00098 43c-32.667 22 -71 33 -115 33c-46 0 -80.167 -12.333 -102.5 -37s-37.166 -63 -44.499 -115c-8 -53.333 -4.5 -91.166 10.5 -113.499s43.167 -33.5 84.5 -33.5z
" />
    <glyph glyph-name="uni0435" unicode="&#x435;" horiz-adv-x="539" 
d="M443 81l6 -65c-47.333 -18.667 -114.333 -28 -201 -28c-83.333 0 -141 21.833 -173 65.5s-42 111.5 -30 203.5c12.667 94 38.5 158.167 77.5 192.5s103.167 51.5 192.5 51.5c76 0 127.667 -13.333 155 -40s37.333 -66 30 -118c-8 -47.333 -26.667 -81.5 -56 -102.5
s-74.333 -33.833 -135 -38.5l-169 -15c-0.666992 -46 9 -77.167 29 -93.5s51.333 -24.5 94 -24.5c45.333 0 105.333 4 180 12zM146 259l163 15.001c30.667 2 53 8.5 67 19.5s23 30.167 27 57.5c4 31.333 -1.16699 50.666 -15.5 57.999s-43.5 11 -87.5 11
c-50.667 0 -86.5 -10.5 -107.5 -31.5s-36.5 -64.167 -46.5 -129.5z" />
    <glyph glyph-name="uni0436" unicode="&#x436;" horiz-adv-x="757" 
d="M532 254l-0.99707 -2.00293c42.667 -5.33301 72.334 -22.333 89.001 -51s36 -86.334 58 -173.001c2.66699 -12 5 -21.333 7 -28h-92c-22 90 -38 145 -48 165c-16 32 -40.333 49.333 -73 52h-10h-54c1.33301 -19.333 0.666016 -35.333 -2.00098 -48l-23 -169h-87l25 173
c2 12.667 5.66699 27.334 11 44.001h-51c-15.333 0 -29.5 -3 -42.5 -9s-24.5 -13 -34.5 -21s-21.833 -22.833 -35.5 -44.5s-25.334 -41.167 -35.001 -58.5l-45.5 -84h-99l20 38l42.5 80.5c9 16.333 20.5 35 34.5 56s26.5 35.667 37.5 44s24.167 16 39.5 23
s32.666 11.5 51.999 13.5l1 3c-18.667 2.66699 -34.667 7.83398 -48 15.501s-24.333 16.334 -33 26.001s-16.834 25.5 -24.501 47.5s-13.667 41.833 -18 59.5s-10.5 44.834 -18.5 81.501h92c17.333 -75.333 33.5 -127.166 48.5 -155.499s40.167 -42.5 75.5 -42.5h53
c-1.33301 18.667 -0.333008 38 3 58l19 140h87l-21 -144c-3.33301 -22 -7 -40 -11 -54h41c35.333 0 64.833 14.167 88.5 42.5s55.5 80.166 95.5 155.499h96l-27.5 -54.5c-4.33301 -9 -12 -23.667 -23 -44s-19 -33.833 -24 -40.5l-22 -30
c-9.66699 -13.333 -17.667 -22.333 -24 -27l-24.5 -17.5c-10 -7 -20.167 -11.833 -30.5 -14.5s-21.5 -4.66699 -33.5 -6z" />
    <glyph glyph-name="uni0437" unicode="&#x437;" horiz-adv-x="500" 
d="M76 408l-2.99805 71.999c42 11.333 95 17 159 17c81.333 0 138.5 -9.33301 171.5 -28s45.833 -54.334 38.5 -107.001c-5.33301 -36 -16.833 -62.667 -34.5 -80s-45.834 -27.666 -84.501 -30.999l-1 -2c42 -3.33301 71.167 -15.666 87.5 -36.999s21.5 -53 15.5 -95
c-7.33301 -52 -26.833 -86 -58.5 -102s-87.167 -24 -166.5 -24c-83.333 0 -150.333 5.33301 -201 16l12 73c64 -5.33301 125.333 -8 184 -8c52 0 86.5 4.5 103.5 13.5s27.5 28.833 31.5 59.5c3.33301 26.667 -2.16699 44.5 -16.5 53.5s-44.166 13.833 -89.499 14.5l-123 2
l8 69h118c42 0 71.667 5.16699 89 15.5s28 29.5 32 57.5c3.33301 25.333 -1.83398 41.5 -15.501 48.5s-46.834 10.5 -99.501 10.5s-105 -2.66699 -157 -8z" />
    <glyph glyph-name="uni0438" unicode="&#x438;" horiz-adv-x="573" 
d="M525 488l-68 -487.999h-75l6 102c-79.333 -76.667 -153.333 -115 -222 -115c-44.667 0 -77 12 -97 36s-27 57.333 -21 100l51 365h98l-49 -340c-4 -28.667 -2.16699 -48.834 5.5 -60.501s22.834 -17.5 45.501 -17.5c27.333 0 54.166 8 80.499 24s61.833 44 106.5 84
l43 310h96z" />
    <glyph glyph-name="uni0439" unicode="&#x439;" horiz-adv-x="573" 
d="M421 704h72.999c-3.33301 -41.333 -19.833 -75 -49.5 -101s-68.167 -39 -115.5 -39c-50 0 -88 13 -114 39s-34.667 59.667 -26 101h72c-8.66699 -58 16 -87 74 -87c50.667 0 79.334 29 86.001 87zM524.999 488l-68 -487.999h-75l6 102
c-79.333 -76.667 -153.333 -115 -222 -115c-44.667 0 -77 12 -97 36s-27 57.333 -21 100l51 365h98l-49 -340c-4 -28.667 -2.16699 -48.834 5.5 -60.501s22.834 -17.5 45.501 -17.5c27.333 0 54.166 8 80.499 24s61.833 44 106.5 84l43 310h96z" />
    <glyph glyph-name="uni043A" unicode="&#x43a;" horiz-adv-x="536" 
d="M305 254l-1 -2.00098c46.667 -4.66699 78.667 -21.167 96 -49.5s36.333 -84.833 57 -169.5c3.33301 -14.667 6 -25.667 8 -33h-96c-22.667 86.667 -38 139 -46 157c-15.333 32.667 -39 51.667 -71 57c-7.33301 1.33301 -16 2 -26 2h-70
c1.33301 -16.667 0.666016 -32.667 -2.00098 -48l-24 -168h-96l69 488h96l-20 -143c-3.33301 -20.667 -7.66602 -38.667 -12.999 -54h59c42.667 0 76 14 100 42s54.667 79.667 92 155h103c-43.333 -87.333 -78 -146.666 -104 -177.999s-63 -50 -111 -56z" />
    <glyph glyph-name="uni043B" unicode="&#x43b;" horiz-adv-x="567" 
d="M520 488l-69.001 -487.999h-97l59 413h-94c-20 0 -35.333 -4.66699 -46 -14s-19 -25.666 -25 -48.999c-21.333 -90.667 -48 -173.334 -80 -248.001c-16.667 -40 -39.167 -68.167 -67.5 -84.5s-64.166 -23.833 -107.499 -22.5l-7 79c32.667 6 54 13 64 21
c12 8.66699 22.667 23 32 43c20 44 45.667 122.667 77 236c10 39.333 25.5 68.166 46.5 86.499s50.833 27.5 89.5 27.5h225z" />
    <glyph glyph-name="uni043C" unicode="&#x43c;" horiz-adv-x="750" 
d="M556 488h98.002c11.333 0 20.166 -3.5 26.499 -10.5s8.83301 -16.167 7.5 -27.5l-44 -450h-88l39 415h-15l-158 -331c-8.66699 -19.333 -21.667 -29 -39 -29h-76c-18.667 0 -30.334 11 -35.001 33l-67 327h-17l-75 -415h-89l82 454c4 22.667 17 34 39 34h97
c18 0 29.333 -11 34 -33l53 -260c6.66699 -37.333 10.667 -63 12 -77h16c12 33.333 21.667 57.333 29 72l130 269c8.66699 19.333 22 29 40 29z" />
    <glyph glyph-name="uni043D" unicode="&#x43d;" horiz-adv-x="582" 
d="M535 488l-69 -488h-96l32 222h-241l-31 -222h-96l69 488h95l-27 -192h241l27 192h96z" />
    <glyph glyph-name="uni043E" unicode="&#x43e;" horiz-adv-x="569" 
d="M309 501c84 0 141.833 -20.168 173.5 -60.501s41.167 -107.166 28.5 -200.499c-12.667 -92 -39 -157.167 -79 -195.5s-101.333 -57.5 -184 -57.5s-140.334 20.167 -173.001 60.5s-42.667 106.833 -30 199.5c12.667 92 38.834 157.333 78.501 196s101.5 58 185.5 58z
M309 418.999c-51.333 0 -88.833 -12.333 -112.5 -37s-40.5 -72 -50.5 -142c-9.33301 -66.667 -7 -112 7 -136s45.667 -36 95 -36c52 0 89.833 12.833 113.5 38.5s40.167 72.5 49.5 140.5c9.33301 67.333 7 112.833 -7 136.5s-45.667 35.5 -95 35.5z" />
    <glyph glyph-name="uni043F" unicode="&#x43f;" horiz-adv-x="584" 
d="M180 488l-4.99902 -105c88 78.667 165 118 231 118c41.333 0 72.666 -11.833 93.999 -35.5s28.666 -57.5 21.999 -101.5l-52 -364h-96l47 340c4 30.667 2.83301 51.5 -3.5 62.5s-20.166 16.5 -41.499 16.5c-28 0 -56.5 -8.16699 -85.5 -24.5
s-68.167 -43.833 -117.5 -82.5l-42 -312h-97l69 488h77z" />
    <glyph glyph-name="uni0440" unicode="&#x440;" horiz-adv-x="580" 
d="M180 488l-6.00391 -104c32 32 67.667 59.333 107 82s75.333 34 108 34c38.667 0 68.334 -7.33301 89.001 -22s35 -41.5 43 -80.5s6.66699 -92.167 -4 -159.5c-7.33301 -54.667 -17.666 -99 -30.999 -133s-30.666 -59.5 -51.999 -76.5s-43.333 -28.167 -66 -33.5
s-51.667 -8 -87 -8c-46.667 0 -98 4.33301 -154 13c-1.33301 -38.667 -3.66602 -69.667 -6.99902 -93l-18 -107h-97l98 688h77zM174.996 310l-33 -242c30.667 -0.666992 65 -1 103 -1c34.667 0 61 1.66699 79 5s33.833 11.666 47.5 24.999s23.5 31 29.5 53s12 53.667 18 95
c9.33301 72.667 10.5 119.334 3.5 140.001s-25.833 31 -56.5 31c-22 0 -50.167 -9.33301 -84.5 -28s-69.833 -44.667 -106.5 -78z" />
    <glyph glyph-name="uni0441" unicode="&#x441;" horiz-adv-x="490" 
d="M412 80l6.00586 -66c-50 -17.333 -107 -26 -171 -26c-86 0 -144.5 20 -175.5 60s-39.833 106.667 -26.5 200s39.666 158.833 78.999 196.5s101 56.5 185 56.5c65.333 0 118.666 -8.66699 159.999 -26l-15 -60c-40 2.66699 -83.333 4 -130 4
c-58.667 0 -100.834 -11.833 -126.501 -35.5s-42.834 -71.167 -51.501 -142.5s-4.83398 -117.833 11.499 -139.5s52.166 -32.5 107.499 -32.5c56.667 0 105.667 3.66699 147 11z" />
    <glyph glyph-name="uni0442" unicode="&#x442;" horiz-adv-x="875" 
d="M177 488l-4.99902 -104c77.333 78 147.666 117 210.999 117c37.333 0 65.833 -9.66699 85.5 -29s29.5 -46.333 29.5 -81c38 38.667 73 66.667 105 84s64.333 26 97 26c42.667 0 73.667 -12.167 93 -36.5s26 -57.833 20 -100.5l-51 -364h-96l48 340
c4 29.333 1.66699 49.833 -7 61.5s-23.667 17.5 -45 17.5c-23.333 0 -46.833 -7.5 -70.5 -22.5s-58.167 -43.833 -103.5 -86.5l-43 -310h-94l48 340c3.33301 28 1.33301 48.167 -6 60.5s-22.666 18.5 -45.999 18.5c-24 0 -47.833 -7.5 -71.5 -22.5
s-57.834 -42.833 -102.501 -83.5l-43 -313h-96l69 488h74z" />
    <glyph glyph-name="uni0443" unicode="&#x443;" horiz-adv-x="547" 
d="M432 488l100 -0.000976562c-30 -142 -76 -276.667 -138 -404c-31.333 -65.333 -64 -119.666 -98 -162.999s-66.833 -74 -98.5 -92s-64.167 -30.167 -97.5 -36.5s-65.333 -5.5 -96 2.5l9 79c86.667 -16.667 164.334 25.333 233.001 126h-50
c-15.333 0 -28.333 4.16699 -39 12.5s-17.334 19.833 -20.001 34.5l-94 441h102l74 -395c2 -11.333 8.66699 -17 20 -17h51l19 37c60 120.667 101 245.667 123 375z" />
    <glyph glyph-name="uni0444" unicode="&#x444;" horiz-adv-x="720" 
d="M462 700l-27.001 -201c93.333 -5.33301 157.5 -28.166 192.5 -68.499s46.5 -103.833 34.5 -190.5s-40.833 -149.167 -86.5 -187.5s-116.834 -59.5 -213.501 -63.5l-26 -188h-89l25 188c-94 5.33301 -158.5 28.166 -193.5 68.499s-46.5 103.5 -34.5 189.5
c12.667 87.333 41.834 150.333 87.501 189s116.834 60 213.501 64l28 200h89zM418.999 419l-50.001 -347.998c65.333 3.33301 112.833 18.166 142.5 44.499s48.834 70.166 57.501 131.499c8.66699 62 2.16699 105.5 -19.5 130.5s-65.167 38.833 -130.5 41.5zM287.998 70.002
l49.001 347.998c-64.667 -4 -111.834 -19.333 -141.501 -46s-49.167 -70.667 -58.5 -132c-8 -61.333 -1.16699 -104.166 20.5 -128.499s65.167 -38.166 130.5 -41.499z" />
    <glyph glyph-name="uni0445" unicode="&#x445;" horiz-adv-x="531" 
d="M347 252l123 -252h-97l-102 216h-22l-163 -216h-108l196 253l-114 235h97l90 -197h27l149 197h105z" />
    <glyph glyph-name="uni0446" unicode="&#x446;" horiz-adv-x="601" 
d="M531 0l-21.001 -148.999h-82l31 149c-24 1.33301 -42.833 9.83301 -56.5 25.5s-19.167 38.167 -16.5 67.5v6c-78.667 -74.667 -152 -112 -220 -112c-44.667 0 -77 12 -97 36s-27 57.333 -21 100l51 365h98l-49 -340c-4 -28.667 -2.16699 -48.834 5.5 -60.501
s22.834 -17.5 45.501 -17.5c27.333 0 54 8 80 24s61.667 43.667 107 83l43 311h96l-54 -394c-1.33301 -14.667 4.66699 -22 18 -22h52z" />
    <glyph glyph-name="uni0447" unicode="&#x447;" horiz-adv-x="540" 
d="M493 488l-68.9961 -488.001h-97l30 214c-68 -32 -129.333 -48 -184 -48c-46.667 -0.666992 -80.334 8.33301 -101.001 27s-28.334 46.334 -23.001 83.001l30 212h97l-25 -183c-4 -24 -2.33301 -40 5 -48s23.666 -12 48.999 -12c49.333 0 103.666 17.333 162.999 52
l27 191h98z" />
    <glyph glyph-name="uni0448" unicode="&#x448;" horiz-adv-x="857" 
d="M809 488l-69.001 -488.001h-75l5 102c-72 -76.667 -139.333 -115 -202 -115c-36.667 0 -64.834 9.5 -84.501 28.5s-29.5 45.5 -29.5 79.5c-68 -72 -132.333 -108 -193 -108c-42 0 -72.833 12.167 -92.5 36.5s-26.5 57.5 -20.5 99.5l51 365h97l-48 -340
c-4 -26.667 -1.66699 -45.334 7 -56.001s24.334 -16 47.001 -16c23.333 0 44.666 6.33301 63.999 19s52 40.334 98 83.001l43 310h94l-48 -340c-3.33301 -25.333 -1.16602 -43.666 6.50098 -54.999s23.5 -17 47.5 -17c17.333 0 34.333 4.16699 51 12.5
s30.834 17.333 42.501 27l68.5 59.5l44 313h96z" />
    <glyph glyph-name="uni0449" unicode="&#x449;" horiz-adv-x="885" 
d="M825 72l-9.99902 -72.0029l-21 -149h-82l34 149c-24.667 0.666992 -44.334 8.83398 -59.001 24.501s-20.667 38.5 -18 68.5l1 9c-72 -76.667 -139.333 -115 -202 -115c-36.667 0 -64.834 9.5 -84.501 28.5s-29.5 45.5 -29.5 79.5c-68 -72 -132.333 -108 -193 -108
c-42 0 -72.833 12.167 -92.5 36.5s-26.5 57.5 -20.5 99.5l51 365h97l-48 -340c-4 -26.667 -1.66699 -45.334 7 -56.001s24.334 -16 47.001 -16c23.333 0 44.666 6.33301 63.999 19s52 40.334 98 83.001l43 310h94l-48 -340
c-3.33301 -25.333 -1.16602 -43.666 6.50098 -54.999s23.5 -17 47.5 -17c17.333 0 34.333 4.16699 51 12.5s31 17.333 43 27s35 29.834 69 60.501l43 312h96l-54 -394c-2 -14.667 4 -22 18 -22h52z" />
    <glyph glyph-name="uni044A" unicode="&#x44a;" horiz-adv-x="631" 
d="M355 488l-52.002 -197c31.333 8.66699 60.333 13 87 13c76.667 0 128.334 -11.667 155.001 -35s35.334 -64.666 26.001 -123.999s-28.833 -99.5 -58.5 -120.5s-77.167 -31.5 -142.5 -31.5c-12.667 0 -23.667 0.166992 -33 0.5s-20.666 1 -33.999 2s-24.833 2.5 -34.5 4.5
s-20.334 5.16699 -32.001 9.5s-21.167 9.16602 -28.5 14.499s-14.5 12.333 -21.5 21s-11.833 18.5 -14.5 29.5s-4 23.833 -4 38.5s2.33301 31 7 49l67 249h-204l11 77h306zM283.998 220l-19 -74.001c-6.66699 -30 -1.66699 -50.333 15 -61s41.667 -16 75 -16
c40 0 68.333 5.83301 85 17.5s28 34.834 34 69.501c5.33301 30 1.83301 50.5 -10.5 61.5s-38.5 16.5 -78.5 16.5c-32 0 -65.667 -4.66699 -101 -14z" />
    <glyph glyph-name="uni044B" unicode="&#x44b;" horiz-adv-x="724" 
d="M193 488l-29 -203c38 12.667 73.667 19 107 19c76.667 0 128 -11.5 154 -34.5s35 -64.5 27 -124.5c-8 -58.667 -26.833 -98.667 -56.5 -120s-77.5 -32 -143.5 -32c-14.667 0 -25.667 0.166992 -33 0.5l-34 1.5c-15.333 0.666992 -27.5 2.33398 -36.5 5.00098l-33 10
c-13 4 -23.167 9.66699 -30.5 17s-14.5 15.666 -21.5 24.999s-11.667 21 -14 35s-2.5 29.667 -0.5 47l51 354h93zM676 488l-68 -488h-98l69 488h97zM155 217l-12 -84c-4 -26 2 -43.167 18 -51.5s41 -12.5 75 -12.5c40.667 0 69.5 6 86.5 18s27.833 35 32.5 69
c4.66699 30 1 50.5 -11 61.5s-38 16.5 -78 16.5c-32 0 -69 -5.66699 -111 -17z" />
    <glyph glyph-name="uni044C" unicode="&#x44c;" horiz-adv-x="512" 
d="M193 488l-29 -203c38 12.667 73.667 19 107 19c76.667 0 128 -11.5 154 -34.5s35 -64.5 27 -124.5c-8 -58.667 -26.833 -98.667 -56.5 -120s-77.5 -32 -143.5 -32c-14.667 0 -25.667 0.166992 -33 0.5l-34 1.5c-15.333 0.666992 -27.5 2.33398 -36.5 5.00098l-33 10
c-13 4 -23.167 9.66699 -30.5 17s-14.5 15.666 -21.5 24.999s-11.667 21 -14 35s-2.5 29.667 -0.5 47l51 354h93zM155 217l-12 -84c-4 -26 2 -43.167 18 -51.5s41 -12.5 75 -12.5c40.667 0 69.5 6 86.5 18s27.833 35 32.5 69c4.66699 30 1 50.5 -11 61.5s-38 16.5 -78 16.5
c-32 0 -69 -5.66699 -111 -17z" />
    <glyph glyph-name="uni044D" unicode="&#x44d;" horiz-adv-x="509" 
d="M72 409l-3.99805 68c38.667 12 89.334 18 152.001 18c94.667 0 159.5 -18.5 194.5 -55.5s46.167 -104.167 33.5 -201.5c-12 -94.667 -38.833 -160.167 -80.5 -196.5s-108.834 -53.833 -201.501 -52.5c-64.667 0.666992 -119.334 8 -164.001 22l13 67
c48.667 -4 95.667 -6 141 -6c63.333 -2 108.166 6.5 134.499 25.5s44.833 57.833 55.5 116.5h-246l10 69h245c4.66699 56 -3 91.833 -23 107.5s-59 23.5 -117 23.5c-50 0 -97.667 -1.66699 -143 -5z" />
    <glyph glyph-name="uni044E" unicode="&#x44e;" horiz-adv-x="799" 
d="M172 289h118.996c15.333 80 41.5 135.333 78.5 166s92.833 46 167.5 46c84.667 0 142.834 -19 174.501 -57s40.834 -105.667 27.501 -203c-13.333 -96 -39.166 -161.667 -77.499 -197s-100.166 -53 -185.499 -53c-78.667 0 -133 16.167 -163 48.5s-41 90.5 -33 174.5
h-119l-30 -214h-96l68 488h97zM638.996 249c9.33301 66 6.66602 110.831 -8.00098 134.498s-47 35.5 -97 35.5c-50.667 0 -87.5 -12.667 -110.5 -38s-38.833 -71.666 -47.5 -138.999c-9.33301 -66 -7.16602 -110.833 6.50098 -134.5s44.5 -35.5 92.5 -35.5
c52.667 0 91 12.833 115 38.5s40.333 71.834 49 138.501z" />
    <glyph glyph-name="uni044F" unicode="&#x44f;" horiz-adv-x="540" 
d="M493 487l-69 -486.999h-95l25 178h-113c-51.333 0 -83 -16.333 -95 -49l-47 -129h-98l50 143c9.33301 24 24 41.667 44 53s41 16.333 63 15l1 4c-70.667 13.333 -100.667 58.666 -90 135.999c6 58.667 26.667 97.167 62 115.5s93 27.5 173 27.5c68 0 131 -2.33301 189 -7
zM365 250.001l22.999 166h-121c-38.667 0 -65 -5 -79 -15s-23 -30.667 -27 -62c-4 -32.667 -0.666992 -55.667 10 -69s33.334 -20 68.001 -20h126z" />
    </font>
</defs>
</svg>
