<svg xmlns="http://www.w3.org/2000/svg" xmlns:xlink="http://www.w3.org/1999/xlink" preserveAspectRatio="xMidYMid" width="20" height="20" viewBox="0 0 20 20">
  <defs>
    <style>
      .cls-1 {
        fill: #000;
        filter: url(#color-overlay-1);
        fill-rule: evenodd;
      }
    </style>

    <filter id="color-overlay-1" filterUnits="userSpaceOnUse">
      <feFlood flood-color="#4d565b"/>
      <feComposite operator="in" in2="SourceGraphic"/>
      <feBlend in2="SourceGraphic" result="solidFill"/>
    </filter>
  </defs>
  <path d="M12.474,13.376 C11.980,13.298 11.969,11.957 11.969,11.957 C11.969,11.957 13.419,10.540 13.735,8.633 C14.917,8.581 15.629,6.512 14.260,5.893 C14.296,5.142 15.353,-0.000 10.000,-0.000 C4.647,-0.000 5.704,5.142 5.740,5.893 C4.356,6.493 5.087,8.564 6.265,8.633 C6.581,10.540 8.031,11.957 8.031,11.957 C8.031,11.957 8.020,13.298 7.526,13.376 C5.936,13.625 -0.000,14.217 -0.000,19.999 L9.524,19.999 L20.000,19.999 C20.000,14.217 14.064,13.625 12.474,13.376 Z" class="cls-1"/>
</svg>
